<svg width="44" height="52" viewBox="0 0 44 52" fill="none" xmlns="http://www.w3.org/2000/svg">
<path d="M42.8895 44.5663L43.4319 44.9216C43.4471 44.2582 43.2966 43.6015 42.9939 43.011C42.3728 41.8272 41.7504 40.6447 41.1524 39.4487C40.8351 38.8181 40.6181 38.132 40.2642 37.5245C39.9058 36.8695 39.4647 36.2634 38.9516 35.721C38.5814 35.3508 38.0241 35.1501 37.5237 34.9331C36.4809 34.4829 35.43 34.0517 34.3668 33.6517C33.5871 33.3574 32.7871 33.116 31.9897 32.8692C30.9768 32.5546 29.9557 32.2468 28.94 31.958C28.22 31.7546 27.4945 31.5661 26.7636 31.4061C25.5554 31.1416 24.3431 30.9016 23.1294 30.6603C22.3361 30.503 21.5442 30.3321 20.7428 30.2263C19.9414 30.1206 19.1224 30.0907 18.3128 30.0256C17.4029 29.9483 16.4957 29.8371 15.5845 29.7829C14.3451 29.7097 13.1029 29.6663 11.8608 29.6297C11.2411 29.6107 10.62 29.6297 10.0003 29.6459C9.91658 29.6609 9.83591 29.6898 9.76167 29.7314C9.44979 29.5185 9.08366 29.7612 8.77449 29.5958C19.0423 29.2093 28.9251 30.9125 38.3631 35.0985C38.2465 34.5751 38.1312 34.4449 37.6851 34.2253C37.0423 33.9134 36.4253 33.5378 35.7636 33.276C34.9093 32.9343 34.0211 32.6753 33.1464 32.3838C32.3617 32.1297 31.5761 31.8734 30.7896 31.6149C30.574 31.5457 30.353 31.4915 30.132 31.4359C29.4919 31.2745 28.8519 31.1118 28.2105 30.9559C26.9073 30.6399 25.6082 30.3036 24.297 30.0216C23.2555 29.7965 22.2033 29.5998 21.1469 29.4629C20.0485 29.3191 18.9406 29.2608 17.8355 29.1659C17.0842 29.1022 16.333 29.0167 15.5804 28.9856C13.5464 28.9015 11.5204 28.85 9.49996 29.1361C8.97111 29.212 8.44361 29.292 7.91612 29.3829C7.79907 29.4171 7.68694 29.4663 7.58253 29.5293L7.6083 29.6175L8.63074 29.5903V29.6595C8.36424 29.6447 8.09693 29.6537 7.83204 29.6866C7.41032 29.7734 6.9791 29.7043 6.57907 30.0419C6.01089 30.5206 5.32339 30.8555 4.70232 31.2772C4.37281 31.4996 4.07584 31.7736 3.76395 32.0244L3.75039 32.0054C4.17754 31.6515 4.58977 31.2759 5.03862 30.9518C5.46035 30.6467 5.9214 30.3985 6.36346 30.1206C6.42947 30.0721 6.49158 30.0186 6.54924 29.9605L6.5072 29.8927C5.97971 30.1572 5.42916 30.3877 4.92878 30.6955C3.84911 31.3656 2.92791 32.2623 2.22893 33.3235C1.87771 33.8469 1.3692 34.2619 0.946121 34.7392C0.7397 34.972 0.552838 35.2215 0.387436 35.485C0.216577 35.7562 0.274886 35.904 0.570501 36.0871C0.750853 36.2403 0.908152 36.4383 1.11291 36.5387C2.02823 36.9807 2.94762 37.4174 3.88464 37.8133C4.81491 38.2228 5.76535 38.5849 6.7323 38.8981C7.68966 39.1924 8.68499 39.3687 9.66675 39.587C10.9685 39.8754 12.2721 40.1588 13.5775 40.4372C14.5349 40.6406 15.4963 40.8251 16.4523 41.0298C16.7656 41.0976 17.0707 41.2034 17.3717 41.2902L18.1094 40.2054C17.4314 40.0697 16.8035 39.9436 16.1771 39.8094C14.9114 39.5382 13.6481 39.2638 12.387 38.9863C11.3564 38.7598 10.3271 38.5347 9.30198 38.2906C9.10367 38.2213 8.91359 38.1303 8.73516 38.0194V38.0262C9.15146 38.1442 9.56369 38.2811 9.98542 38.3761C10.7082 38.5401 11.4418 38.6622 12.1632 38.8317C12.768 38.9673 13.3402 39.2019 13.9749 39.2765C15.1356 39.4121 16.2801 39.6833 17.4314 39.9002C17.6558 39.94 17.8821 39.968 18.1094 39.9843C18.1407 39.9828 18.1712 39.9742 18.1987 39.9591C18.2262 39.9441 18.2499 39.923 18.2681 39.8975C18.5393 39.4324 18.7969 38.9646 19.064 38.4886C18.8511 38.4452 18.6396 38.4113 18.4335 38.353C17.1832 38.0371 15.9411 37.675 14.6814 37.4038C13.3131 37.1122 11.93 36.8939 10.5495 36.6648C9.41453 36.4763 8.27547 36.2946 7.13233 36.1549C6.15127 36.019 5.16351 35.9371 4.17347 35.9094C3.06966 35.8945 1.96586 35.9976 0.862047 36.0451L1.15495 35.9094L1.61329 34.8246L1.67973 34.8517C1.54413 35.1894 1.40853 35.5298 1.22953 35.9542C1.80042 35.8593 2.29537 35.7698 2.79168 35.6993C2.87846 35.6871 2.9761 35.7766 3.06966 35.7779C3.98905 35.7942 4.91115 35.7779 5.82783 35.8213C6.46516 35.8552 7.09707 35.98 7.72627 36.0708C9.05925 36.262 10.3977 36.4261 11.7239 36.6593C12.8602 36.86 13.983 37.1394 15.1139 37.3862C15.4701 37.4648 15.8254 37.5489 16.1798 37.6384C16.79 37.7943 17.4002 37.9693 18.0091 38.1089C18.3915 38.1957 18.7888 38.2174 19.1766 38.2906C20.5525 38.551 21.9275 38.8168 23.3016 39.088C23.7681 39.1788 24.2359 39.2629 24.6943 39.3822C25.4537 39.5816 26.2063 39.8067 26.9616 40.0209C27.2179 40.0928 27.4728 40.1674 27.7304 40.2298C28.7366 40.4766 29.7469 40.7017 30.7476 40.9661C31.5911 41.1898 32.4209 41.461 33.2576 41.7078C33.6075 41.8109 33.96 41.9017 34.3099 42.0034C34.9771 42.2001 35.6415 42.4103 36.3114 42.5974C36.9813 42.7845 37.6796 42.9662 38.3671 43.1398C39.2689 43.369 40.1801 43.5656 41.0792 43.8178C41.6447 43.9819 42.1857 44.2246 42.739 44.4402C41.8386 44.1948 40.9382 43.9453 40.0364 43.7053C39.555 43.5778 39.0682 43.4625 38.5827 43.35C37.5183 43.1059 36.4484 42.8916 35.4273 42.4808C35.0001 42.3099 34.5296 42.2516 34.0848 42.1214C33.4922 41.9465 32.9105 41.7363 32.322 41.5682C31.4229 41.3159 30.5171 41.0895 29.6099 40.8468C28.356 40.5105 27.1026 40.1724 25.8496 39.8324C25.4971 39.7375 25.1458 39.6372 24.7906 39.5612C23.4345 39.2602 22.0744 38.9632 20.7103 38.6703C20.4316 38.6116 20.1486 38.5757 19.8641 38.5632C19.8107 38.5718 19.7598 38.5923 19.7153 38.623C19.6707 38.6537 19.6335 38.694 19.6065 38.7408C19.14 39.5911 18.6925 40.4508 18.226 41.301C17.8302 42.0329 17.6254 42.8529 17.6307 43.6849C17.6192 44.0001 17.6935 44.3126 17.8456 44.5889C17.9977 44.8652 18.222 45.095 18.4945 45.2539C18.8688 45.4668 19.2607 45.6471 19.6444 45.8424C19.7262 45.8779 19.8031 45.9234 19.8736 45.978C20.5909 46.6221 21.4724 46.6953 22.3646 46.6397C23.067 46.595 23.7776 46.519 24.4217 46.1827C24.9926 45.8858 25.5364 45.5563 25.973 45.0681C26.3914 44.5992 26.6112 43.986 26.5859 43.3581C26.5859 43.2469 26.6687 43.1344 26.67 43.0218C26.67 42.2787 26.67 41.5302 26.67 40.7925C26.6824 40.6454 26.7037 40.4991 26.7338 40.3545C26.8138 40.4644 26.8788 40.5118 26.8802 40.562C26.8911 40.943 26.9046 41.3254 26.887 41.7051C26.8788 41.8963 26.9073 42.0129 27.0484 42.0102C27.0104 42.0672 26.9263 42.1458 26.9127 42.2231C26.8843 42.4455 26.9127 42.6788 26.8721 42.9011C26.811 43.1818 26.7473 43.4354 27.0795 43.5792L26.8165 43.5249C26.7473 43.7541 26.6632 43.9751 26.6117 44.2029C26.4246 45.0545 25.7981 45.5413 25.1431 46.0065C24.217 46.6573 23.1525 46.8119 22.0731 46.8825C21.8222 47.4642 21.9958 48.0134 22.1097 48.5707C22.2453 49.2108 22.4663 49.8562 22.2521 50.5153C21.8968 51.6082 21.4913 52.0001 20.2967 51.8998C19.8085 51.8604 19.4451 51.493 19.1224 51.12C18.4782 50.3851 18.5596 49.5891 18.8579 48.7389C19.0092 48.2807 19.2831 47.8726 19.6498 47.5591C19.7886 47.4316 19.9004 47.2776 19.9787 47.1062C20.0569 46.9348 20.1001 46.7494 20.1055 46.5611C20.1052 46.5153 20.095 46.4701 20.0756 46.4287C20.0562 46.3872 20.028 46.3505 19.9929 46.321C19.7773 46.1499 19.5403 46.0077 19.2878 45.898C18.3386 45.5549 17.727 44.8755 17.3297 43.9724C17.2226 43.731 17.1019 43.4937 16.9934 43.2524C16.7385 42.6855 16.9839 42.1838 17.2009 41.678L17.2944 41.4624C17.0056 41.3837 16.729 41.2902 16.4442 41.2359C15.9899 41.1478 15.5302 41.0895 15.0746 41.0122C14.4251 40.9024 13.7769 40.7912 13.1301 40.6705C12.6758 40.585 12.2269 40.4779 11.774 40.3843C10.814 40.1864 9.84439 40.0291 8.89788 39.785C7.97714 39.5477 7.07538 39.2358 6.17226 38.9361C5.62307 38.7544 5.0793 38.5564 4.54503 38.3286C3.8426 38.0276 3.15781 37.6845 2.46081 37.3685C1.9984 37.157 1.51159 36.9916 1.06681 36.7448C0.728277 36.5421 0.417806 36.2959 0.143351 36.0125C0.0647013 35.9352 0.0836857 35.6721 0.154199 35.5487C0.328032 35.211 0.547005 34.8985 0.805094 34.6199C1.47188 33.9399 2.09123 33.215 2.65879 32.4502C3.52279 31.3429 4.66032 30.4797 5.95937 29.9456C6.20345 29.8412 6.4394 29.7151 6.67942 29.6012C6.73708 29.5634 6.80237 29.5389 6.87062 29.5293C7.48761 29.5781 7.81984 29.1008 8.21309 28.7727C8.52361 28.4875 8.91047 28.2991 9.32639 28.2302C9.52979 28.2004 9.71286 28.1543 9.81727 27.8885C9.93518 27.6724 10.1281 27.507 10.3597 27.4234C10.7757 27.2631 11.1151 26.9503 11.3089 26.5488C11.6954 25.7975 12.0981 25.0571 12.4887 24.3073C12.8005 23.7079 13.1314 23.118 13.404 22.501C13.7015 21.7905 13.8744 21.0341 13.9152 20.2649C13.966 19.9028 14.0408 19.5445 14.1389 19.1923C14.1616 19.1289 14.1708 19.0615 14.1661 18.9943C14.0305 18.4709 14.1823 17.9854 14.3505 17.5027C14.4281 17.3093 14.4739 17.1046 14.4861 16.8965C14.4819 16.0251 14.6439 15.1608 14.9634 14.3499C15.2528 13.6299 15.6348 12.9507 16.0998 12.3294C16.7024 11.5289 17.3656 10.7759 18.0836 10.0771C18.4348 9.73128 18.9298 9.50347 19.3936 9.30277C20.0362 9.03347 20.693 8.79944 21.3612 8.60171C21.6147 8.52306 21.9036 8.55018 22.2209 8.52577C22.2304 8.32236 22.2372 8.10269 22.2494 7.88301C22.2738 7.48298 22.2887 7.0816 22.3334 6.68428C22.3945 6.12831 22.8243 5.88558 23.2365 5.59946C23.7597 5.23761 24.2489 4.82913 24.6984 4.37903C25.2326 3.83662 25.3004 3.03927 25.6476 2.38838C25.7832 2.11717 25.8578 1.80799 26.0286 1.56391C26.1724 1.3605 26.4137 1.22355 26.6171 1.06353C26.7243 0.980816 26.8504 0.927931 26.9534 0.834365C27.3901 0.464168 27.8687 0.207879 28.46 0.226863C28.3732 0.450608 28.0776 0.633672 28.262 0.853349C27.6477 3.42981 27.3833 6.02118 26.7215 8.52713C27.3996 8.59221 28.0776 8.63832 28.7393 8.72511C29.5841 8.83494 30.353 9.20107 31.1422 9.49262C31.2195 9.5211 31.3849 9.50211 31.4134 9.45601C31.549 9.16039 31.7253 8.85935 31.7795 8.54204C31.8975 7.8464 31.9477 7.13991 32.0358 6.43884C32.1497 5.51674 32.1036 4.61091 31.7307 3.74983C31.4731 3.15318 31.1788 2.56873 30.5713 2.23379C30.5247 2.20389 30.4723 2.18422 30.4175 2.17605C30.3628 2.16788 30.3069 2.1714 30.2536 2.18639C30.2003 2.20138 30.1508 2.2275 30.1083 2.26301C30.0659 2.29853 30.0314 2.34264 30.0072 2.39244C29.957 2.47519 29.9013 2.55447 29.8404 2.62975C29.2275 3.42031 28.9468 4.36276 28.7556 5.30655C28.54 6.36155 28.4844 7.44637 28.3488 8.50272C28.3488 8.50272 28.3284 8.49051 28.3244 8.46882C28.3082 8.40228 28.3014 8.33383 28.304 8.26541C28.4207 6.97583 28.4613 5.68895 28.8125 4.41835C29.0574 3.61939 29.4028 2.85479 29.8404 2.14293C29.9083 2.03437 30.0119 1.95286 30.1333 1.91241C30.345 1.84186 30.5704 1.82216 30.7911 1.85491C31.0119 1.88765 31.2218 1.97192 31.4039 2.1009C32.0996 2.60941 32.6949 3.22505 33.0542 4.03595C33.1817 4.32479 33.3458 4.59735 33.5098 4.90788C33.6396 4.63634 33.6903 4.33377 33.6563 4.03475C33.6222 3.73574 33.5048 3.45233 33.3173 3.21691C33.2032 3.04109 33.0782 2.87261 32.943 2.71247C32.463 2.19446 32.0209 1.62764 31.4731 1.191C30.6011 0.500781 29.5896 0.106176 28.4396 0.210591C28.6824 0.165842 28.9278 0.0668514 29.1638 0.0871919C30.0737 0.155524 30.9427 0.493029 31.6602 1.05675C32.4296 1.66109 33.0936 2.38873 33.6251 3.21013C33.6944 3.29303 33.7902 3.34953 33.8963 3.37014C34.3153 3.46913 34.7479 3.52066 35.1547 3.65626C35.3486 3.72 35.5181 3.91255 35.6564 4.0807C35.9276 4.41293 36.1392 4.7994 36.4348 5.10857C37.1657 5.87473 37.1765 6.25442 36.6382 7.30127C36.2178 8.11489 35.7581 8.92173 35.3974 9.76654C35.2266 10.1733 35.2347 10.6493 35.1913 11.0968C35.196 11.156 35.2142 11.2133 35.2446 11.2643C35.2749 11.3153 35.3165 11.3587 35.3662 11.3911C36.1861 11.8849 36.9154 12.5155 37.5223 13.2556C38.1325 14.0177 38.7224 14.8232 39.0574 15.767C39.277 16.388 39.5442 16.9955 39.7055 17.6302C39.8154 18.0682 39.7869 18.5428 39.8086 19.0011C39.8479 19.793 39.5781 20.5199 39.3313 21.2535C39.155 21.781 39.018 22.322 38.8621 22.8563C38.8268 22.7207 38.7468 22.5715 38.7658 22.4427C38.8106 22.1579 38.6533 21.9667 38.5041 21.781C37.8383 20.9524 36.9962 20.3097 36.1446 19.6981C35.4205 19.1787 34.6286 18.7489 33.8624 18.296C32.3247 17.3752 30.7001 16.6836 28.9237 16.3704C28.5789 16.292 28.2385 16.1952 27.904 16.0802C28.0006 16.0558 28.1017 16.0558 28.1983 16.0802C28.8261 16.2158 29.4607 16.3297 30.0764 16.506C30.7223 16.6703 31.3522 16.8922 31.9585 17.1691C33.2495 17.8092 34.5147 18.5021 35.7744 19.2032C36.7101 19.7225 37.5006 20.4331 38.2342 21.206C38.461 21.4718 38.6738 21.7493 38.8716 22.0373C38.9285 21.8786 38.9719 21.7661 39.0072 21.6576C39.2133 20.9524 39.4818 20.2568 39.6011 19.5354C39.7123 18.9494 39.704 18.3471 39.5767 17.7644C39.2404 16.4613 38.7821 15.1988 37.9603 14.0882C37.3772 13.299 36.7562 12.5532 35.9615 11.985C35.3101 11.5172 34.6238 11.1001 33.9085 10.7375C33.1478 10.3689 32.3669 10.0439 31.5694 9.76382C30.2933 9.29735 29.0336 8.79291 27.6369 8.75629C26.5914 8.72917 25.5526 8.52441 24.499 8.62069C23.4454 8.71697 22.3592 8.7346 21.3205 8.93936C20.0662 9.18887 18.9528 9.83434 17.9494 10.6168C17.4829 10.9802 17.1141 11.4738 16.729 11.9294C15.7485 13.0766 14.9932 14.3377 14.8305 15.8782C14.7993 16.1751 14.8075 16.4762 14.7966 16.7759C14.7654 16.9291 14.5797 17.0796 14.7871 17.2383C14.6244 17.7183 14.4603 18.1983 14.2881 18.7055L14.5593 18.696L14.3817 18.8316L14.6244 19.0567C14.7749 18.9564 14.9132 18.8113 15.0814 18.7597C15.7445 18.5563 16.413 18.3665 17.0856 18.201C17.6551 18.0455 18.2346 17.9291 18.82 17.8525C19.8336 17.7398 20.8571 17.7498 21.8683 17.8824C22.6046 17.9841 23.3599 17.9651 24.0922 18.0736C25.3004 18.2539 26.5059 18.4533 27.6586 18.8872C28.6363 19.2587 29.6316 19.5883 30.6012 19.972C32.307 20.6582 33.9546 21.4637 35.4734 22.5146C36.5297 23.2482 37.5278 24.0374 38.3319 25.0368L38.5122 24.7249C37.7827 23.7594 36.9867 22.8604 35.9358 22.2393C35.0245 21.6969 34.0956 21.187 33.1464 20.7206C31.9179 20.1185 30.6879 19.5001 29.4092 19.0255C28.3013 18.6106 27.1256 18.3746 25.9798 18.0614C25.8795 18.0343 25.775 18.0193 25.6733 17.9976L25.7059 17.8837C26.8178 18.1739 27.9501 18.4058 29.0363 18.7706C30.0314 19.1235 31.0045 19.5356 31.9504 20.0046C32.924 20.4656 33.8488 21.0189 34.8265 21.4813C36.2761 22.1715 37.5047 23.1153 38.4417 24.4279C38.4702 24.47 38.5299 24.4903 38.6451 24.5635C38.6994 24.093 38.7509 23.6781 38.7929 23.2631C38.7929 23.2251 38.7441 23.1804 38.7197 23.1384C38.1265 22.1589 37.3708 21.2876 36.485 20.5619C35.514 19.7659 34.3858 19.1815 33.2305 18.6906C32.2108 18.258 31.1748 17.8607 30.1306 17.4959C28.9644 17.0891 27.7982 16.6592 26.6049 16.3799C25.5391 16.1331 24.4353 16.0409 23.3369 15.9473C22.1775 15.847 21.0113 15.8117 19.8465 15.7738C18.8456 15.7239 17.8445 15.8661 16.8971 16.1928C16.7018 16.2633 16.5256 16.3596 16.4998 16.5725C16.4469 17.0105 16.4225 17.4525 16.3859 17.8987L17.4626 17.7508V17.7427C17.39 17.7894 17.3116 17.8263 17.2293 17.8525C16.451 17.9881 15.674 18.1238 14.9715 18.5224C14.9498 18.5346 14.9146 18.5224 14.8861 18.5156L16.2801 17.9C16.3357 17.4037 16.39 16.9074 16.4469 16.4002L15.9791 16.567C16.0116 16.5318 16.0374 16.4775 16.0767 16.464C16.6395 16.2592 17.1941 16.0219 17.7717 15.8687C18.6898 15.6232 19.6376 15.6666 20.576 15.7087C21.73 15.7615 22.8813 15.8443 24.0353 15.9297C25.2123 16.0138 26.3839 16.1304 27.5121 16.5141C28.5689 16.8758 29.6262 17.2333 30.6839 17.5868C32.1198 18.0794 33.5153 18.6829 34.8577 19.3916C36.2088 20.1019 37.3831 21.1066 38.2939 22.3315C38.4607 22.5512 38.6058 22.7858 38.778 23.038L38.8634 22.8549C38.9512 23.1075 38.9536 23.3819 38.8702 23.636C38.7631 23.9343 38.7821 24.2747 38.7346 24.5934C38.717 24.7032 38.6329 24.7995 38.599 24.9093C38.5326 25.1697 38.4214 25.4368 38.4349 25.6945C38.4566 26.0674 38.2885 26.3467 38.1488 26.6586C37.9801 27.0541 37.8339 27.4589 37.7108 27.8709C37.5535 28.3658 37.4016 28.8635 37.2755 29.3625C37.0034 30.3872 37.0949 31.4746 37.5345 32.4394C37.7054 32.8191 37.883 33.1947 38.0512 33.5757C38.098 33.6834 38.1334 33.7956 38.157 33.9107C38.2548 34.4846 38.5332 35.0123 38.9516 35.4172C39.2574 35.7218 39.5239 36.0635 39.7449 36.4342C40.1449 37.0756 40.5341 37.7279 40.8731 38.4018C41.2419 39.1382 41.5308 39.9138 41.8915 40.6542C42.1355 41.1586 42.4773 41.6156 42.7051 42.1241C42.9898 42.7452 43.4116 43.3134 43.4929 44.0226C43.5295 44.3331 43.5634 44.645 43.5702 44.9569C43.5565 45.1193 43.5256 45.2797 43.478 45.4356L43.3777 45.4274C43.3878 45.3124 43.3878 45.1967 43.3777 45.0816C43.3605 45.0064 43.3213 44.9379 43.2651 44.885C43.1431 44.7684 43.0129 44.6708 42.8895 44.5663ZM32.3396 3.69694L32.2609 3.85153L32.1904 4.01426C32.0548 3.79187 31.9301 3.58304 31.8053 3.37421C31.8677 3.72813 32.0006 4.04273 32.0846 4.37089C32.1693 4.70374 32.2265 5.04299 32.2555 5.3852C32.2948 5.85303 32.2975 6.32358 32.3138 6.79276C32.3233 7.06397 32.3287 7.33517 32.3355 7.61723H32.2989C32.2786 7.51959 32.2569 7.42332 32.2352 7.32568H32.1687L32.1457 8.26406C32.227 8.12845 32.2569 7.86674 32.2813 7.86674C32.5186 7.86674 32.4304 7.71351 32.4508 7.59553C32.5064 7.28229 32.5755 6.97176 32.6284 6.71682C32.6284 6.85921 32.6203 7.06397 32.6135 7.34602C32.8847 6.92023 33.0203 6.55953 32.8928 6.13509C32.8836 6.0471 32.8891 5.9582 32.9091 5.87202C32.9512 6.02525 32.9918 6.17984 33.0339 6.33985C33.1304 6.18348 33.1865 6.00555 33.1972 5.8221C33.2078 5.63864 33.1727 5.45542 33.0949 5.28892C33.0772 5.22445 33.0685 5.15781 33.0691 5.09094L33.2047 5.2496C33.278 4.81025 32.5023 3.38235 32.048 3.07181C32.1375 3.26437 32.2392 3.47998 32.3396 3.69694ZM22.9165 7.10058L22.8311 6.08356C22.7549 6.19077 22.6951 6.30866 22.6535 6.43341C22.5735 6.61241 22.4148 6.78056 22.4067 6.95955C22.3836 7.48841 22.4189 8.01997 22.4311 8.57052L22.827 8.51492L22.7321 8.00099C22.9613 8.09998 22.7321 8.52441 23.1159 8.51085C23.1159 8.40508 23.105 8.3088 23.0996 8.21253L23.3315 8.50407L23.5172 8.27219C23.562 8.32779 23.6176 8.39423 23.6732 8.46068L23.7925 8.42271C23.7586 8.1176 23.7247 7.8125 23.684 7.44366L23.8739 7.86538C24.0881 7.35687 24.2698 6.89175 24.0692 6.37375L24.2183 6.73039C24.2576 6.30052 24.5627 5.91677 24.4082 5.47334L24.5966 5.54657L24.3431 5.12485L23.7084 5.60488C23.6651 5.59951 23.6212 5.60559 23.581 5.62251C23.4883 5.68453 23.3923 5.74156 23.2935 5.79337C23.0223 5.88151 22.8867 6.03745 22.9179 6.34798C22.9329 6.59864 22.9324 6.84998 22.9165 7.10058ZM21.2011 46.9096L21.1333 46.774C21.0737 46.8282 20.9883 46.8716 20.9598 46.9394C20.8825 47.1279 20.8621 47.3462 20.7604 47.5157C20.5123 47.9225 20.2099 48.2995 19.9699 48.7117C19.8446 48.9203 19.7746 49.1574 19.7665 49.4006C19.7665 49.9118 19.8234 50.3905 20.3279 50.7431C20.5394 50.8909 20.6343 50.8787 20.7794 50.7756C20.9001 50.6917 21.0009 50.5825 21.075 50.4556C21.5198 49.665 21.311 48.8758 21.0032 48.1137C20.8418 47.715 20.8852 47.2052 21.2134 46.8933C21.1754 47.2228 21.0777 47.5577 21.113 47.8791C21.1523 48.2412 21.349 48.5843 21.4046 48.9463C21.4927 49.5213 21.5185 50.1017 21.17 50.6237C20.7848 51.2001 19.9631 51.2299 19.7 50.6156C19.5164 50.1948 19.4625 49.7288 19.5454 49.2772C19.7179 48.6184 20.0656 48.0185 20.5516 47.5415C20.7401 47.3449 20.8296 47.0533 20.9788 46.778L20.3007 46.5543C20.3083 46.7584 20.2703 46.9616 20.1896 47.1492C20.1089 47.3368 19.9876 47.5042 19.8343 47.6391C19.4465 48.0003 19.1571 48.4544 18.9935 48.9585C18.6898 49.8101 18.7955 50.5315 19.4193 51.1811C20.0106 51.7967 20.8513 51.9418 21.4751 51.5336C22.0514 51.1567 22.3456 50.16 22.1666 49.3897C22.0202 48.7538 21.9334 48.1029 21.8466 47.456C21.8209 47.2703 21.8873 47.0723 21.9212 46.8065L21.2011 46.9096ZM32.8047 8.5773L32.1158 9.79773L32.9295 10.1449C33.4 9.28108 33.8597 8.4322 34.3248 7.58604C34.4211 7.41247 34.5377 7.2511 34.6448 7.08431V7.07617L33.0664 10.195L33.2793 10.294L33.6102 9.85875L33.6454 9.87773C33.5641 10.0255 33.4827 10.1747 33.3878 10.3456L33.6427 10.4622L33.8299 10.1516L33.8692 10.1747C33.8244 10.2764 33.781 10.3795 33.7336 10.4961L33.975 10.6019C34.0034 10.1584 33.9451 9.70145 34.0726 9.30413C34.3736 8.37254 34.7506 7.46535 35.1222 6.55953C35.3934 5.91134 35.628 5.26723 35.5968 4.54853C35.5969 4.43067 35.5647 4.31503 35.5037 4.21415C35.4428 4.11327 35.3554 4.03101 35.251 3.97629C35.0632 3.88845 34.8692 3.81457 34.6706 3.75525C34.6353 4.75058 34.516 5.71336 34.1282 6.53376L34.6991 3.73898C34.5635 3.72407 34.478 3.68745 34.436 3.71593C34.394 3.74441 34.3763 3.83662 34.3316 3.94374C34.3316 3.8217 34.3316 3.74712 34.3316 3.67254L34.2489 3.62643C34.1906 3.70779 34.0984 3.78102 34.078 3.87187C34.0546 4.02576 34.0441 4.18135 34.0468 4.33699C33.9832 5.40717 33.6431 6.44255 33.0596 7.34195C33.3864 6.50393 33.8543 5.71472 33.8963 4.77906C33.5397 5.59268 33.2617 6.44969 32.8834 7.25517C32.505 8.06065 32.0101 8.8146 31.5707 9.59161C31.6317 9.59161 31.7158 9.57127 31.7321 9.59161C31.8812 9.80993 31.987 9.75569 32.1131 9.56449C32.3342 9.23226 32.5728 8.90681 32.8047 8.5773ZM13.587 26.5433C13.625 26.5189 13.663 26.4728 13.7009 26.4742C14.0345 26.4823 14.1647 26.2721 14.2637 25.9955C14.3493 25.794 14.4471 25.5979 14.5566 25.4083L14.6095 25.4382L14.1552 26.3969C14.7451 26.4145 15.2807 26.4227 15.815 26.4471C16.9893 26.4986 18.1636 26.5447 19.3407 26.622C19.8412 26.6683 20.3391 26.7403 20.8323 26.8376C21.5415 26.9569 22.2548 27.0586 22.9545 27.2241C23.6542 27.3895 24.3444 27.6526 25.0496 27.818C26.0612 28.0553 27.0958 28.1991 28.0993 28.4621C29.2261 28.7564 30.3299 29.1401 31.4432 29.4859C32.4182 29.7883 33.4 30.0704 34.3641 30.4026C35.2456 30.7077 36.1093 31.0684 36.9406 31.3884C37.0043 30.7335 37.0355 30.0961 37.1386 29.471C37.2337 28.9466 37.3642 28.4292 37.5291 27.9224C37.6737 27.4128 37.855 26.9143 38.0715 26.4308C38.3427 25.864 38.298 25.1602 37.8641 24.7005C36.6436 23.396 35.152 22.4197 33.6007 21.5816C32.3445 20.9142 31.0556 20.3105 29.7387 19.7727C28.7861 19.3816 27.8068 19.059 26.8083 18.8072C25.794 18.5441 24.7526 18.3733 23.7166 18.2038C23.0508 18.0939 22.3714 18.0546 21.6988 17.9868C21.3761 17.9556 21.0533 17.9122 20.7306 17.9041C19.6295 17.877 18.5338 17.9203 17.4653 18.2363C16.7235 18.456 15.9737 18.6431 15.2305 18.8655C15.1768 18.8909 15.1294 18.9277 15.0914 18.9734C15.0535 19.0191 15.026 19.0725 15.0109 19.1299C14.9431 19.4174 14.9336 19.7171 14.8658 20.0046C14.5797 21.2169 14.2813 22.4278 13.9871 23.6387L13.9138 23.6211C14.2664 22.0888 14.8441 20.6053 14.9322 19.0174C14.3206 19.1882 14.2162 19.5517 14.2542 20.0236C14.3098 20.6107 14.1593 21.1409 13.9532 21.6806C13.6087 22.5837 13.0243 23.396 12.8941 24.3927L13.0012 23.8665C12.9397 23.8845 12.8876 23.9259 12.8561 23.9818C12.3589 24.9057 11.8617 25.831 11.3645 26.7576C11.3436 26.826 11.3353 26.8977 11.3401 26.9691C11.2845 27.0072 11.2311 27.0484 11.1801 27.0925C10.9251 27.3298 10.7312 27.6458 10.3285 27.6838C10.2753 27.6963 10.2258 27.7212 10.1839 27.7562C10.142 27.7913 10.1089 27.8357 10.0871 27.8858C9.97593 28.2384 9.68031 28.275 9.39555 28.3374C8.82195 28.454 8.41514 28.8269 7.96493 29.2907C8.15342 29.273 8.27004 29.2717 8.38124 29.2486C8.81381 29.1605 9.24232 29.0439 9.6776 28.9774C11.4499 28.7062 13.2345 28.7184 15.0176 28.8066C15.9194 28.8527 16.8185 28.9584 17.7175 29.0398C19.1142 29.1646 20.5123 29.2676 21.9049 29.4276C22.7077 29.5198 23.5023 29.6839 24.2929 29.8534C24.9845 30.0012 25.6638 30.2114 26.3514 30.3782C27.6165 30.686 28.8858 30.9816 30.1482 31.2867C30.4425 31.3586 30.734 31.4468 31.0242 31.5362C31.8785 31.798 32.722 32.099 33.5858 32.3187C34.685 32.6134 35.7503 33.0224 36.7643 33.5391C37.1603 33.7344 37.5603 33.9229 37.9847 34.1249C38.0023 33.9419 37.9726 33.7573 37.8986 33.589C37.8245 33.4207 37.7085 33.2742 37.5617 33.1635C37.1667 32.8881 36.739 32.663 36.2883 32.4936C35.1452 32.0027 34.0034 31.4996 32.8359 31.0684C31.77 30.6765 30.6744 30.3646 29.5814 30.0338C28.7542 29.7815 27.9176 29.5632 27.089 29.3164C25.9025 28.9625 24.7214 28.5977 23.5376 28.2316L22.6399 27.9604C23.1902 28.0441 23.734 28.1665 24.2671 28.3265C25.2258 28.6113 26.1764 28.9191 27.1338 29.2066C27.7087 29.3788 28.2932 29.5185 28.8681 29.6907C29.8174 29.9755 30.7666 30.2643 31.705 30.5708C32.5715 30.8515 33.442 31.1254 34.2814 31.459C35.3662 31.8847 36.4131 32.3675 37.4776 32.8258C37.3827 32.5546 37.2986 32.2658 37.1711 31.9932C37.1049 31.8378 36.9897 31.7082 36.843 31.6244C36.0727 31.2854 35.2998 30.9464 34.5092 30.6616C33.4583 30.2792 32.3938 29.9334 31.3307 29.5863C30.3815 29.2757 29.4323 28.9611 28.4627 28.6913C27.7508 28.492 27.0199 28.3604 26.293 28.2031C25.6082 28.0553 24.918 27.9319 24.24 27.7624C23.5362 27.5848 22.8514 27.3258 22.1436 27.163C20.49 26.7975 18.8034 26.6017 17.11 26.5786C15.9357 26.5583 14.7614 26.5569 13.587 26.5433ZM26.5114 2.54161L26.4761 2.53211L26.7677 1.10557L26.5317 1.45814C26.3581 1.34559 26.2754 1.49204 26.213 1.63035C25.9744 2.15378 25.7194 2.67314 25.5187 3.21149C25.2584 3.90849 25.0346 4.61905 24.8123 5.32961C24.6319 5.90863 24.48 6.49579 24.3119 7.07889C24.1763 7.52502 24.0407 7.96844 23.9227 8.37796C24.7051 8.41457 25.4577 8.44441 26.2117 8.4878C26.4246 8.5 26.5087 8.39017 26.5507 8.21659C26.769 7.26737 27.0185 6.33849 27.1948 5.38927C27.3399 4.60955 27.3982 3.81356 27.4945 3.02571L27.4172 3.00537L26.6646 5.86117C26.7114 5.49181 26.7797 5.12551 26.8694 4.76414C27.1636 3.65491 27.4714 2.5511 27.7738 1.44458C27.7942 1.36864 27.7915 1.24253 27.8348 1.22355C28.1833 1.07438 28.0016 0.790972 28.0586 0.515698C27.6884 0.678421 27.3602 0.814024 27.0484 0.969968C26.947 1.03538 26.8731 1.13575 26.8409 1.25202C26.7215 1.67782 26.6198 2.11039 26.5114 2.54161ZM35.9765 4.98246C35.8691 5.35019 35.7433 5.71226 35.5995 6.06729C35.2469 6.83209 34.855 7.58062 34.493 8.34135C34.1549 9.02237 34.0239 9.7875 34.116 10.5422C34.1192 10.5836 34.1305 10.624 34.1493 10.661C34.1682 10.698 34.1942 10.7309 34.2258 10.7578C34.497 10.9192 34.7859 11.0602 35.095 11.2229C34.9716 10.2995 35.2564 9.50347 35.6524 8.73595C36.0076 8.04709 36.3765 7.36636 36.729 6.6775C36.8062 6.5434 36.842 6.38955 36.8321 6.23519C36.8222 6.08082 36.767 5.9328 36.6735 5.80964C36.4578 5.51267 36.2138 5.2496 35.9765 4.97975V4.98246ZM30.9998 2.18904L32.0765 3.58033C31.7904 3.08131 31.6033 2.50364 30.9998 2.18633V2.18904ZM18.1175 41.2698C18.108 41.2631 18.0619 41.221 18.0565 41.2264C17.9538 41.3069 17.8598 41.3978 17.7758 41.4977C17.7448 41.5668 17.7277 41.6415 17.7256 41.7173L17.8043 41.7444L18.1175 41.2698ZM35.4937 5.78252L35.5507 5.79337L35.7297 4.92008L35.6713 4.90924L35.4937 5.78252Z" fill="#84EDFF"/>
<path d="M20.63 52C20.5256 52 20.4144 52 20.2951 51.9851C19.7757 51.9417 19.4015 51.5606 19.0625 51.1715C18.3411 50.3484 18.5201 49.4615 18.7804 48.7021C18.9349 48.2286 19.2163 47.8064 19.594 47.4817C19.8435 47.2688 19.9819 46.961 20.0185 46.5447C20.0172 46.5144 20.01 46.4847 19.9972 46.4572C19.9844 46.4297 19.9663 46.4051 19.9439 46.3847L19.8422 46.3128C19.6641 46.1743 19.4685 46.0598 19.2604 45.9724C18.3478 45.6443 17.6915 44.9988 17.2508 43.9994C17.1939 43.8706 17.1315 43.7391 17.0705 43.613C17.0094 43.4868 16.966 43.3919 16.9145 43.2794C16.6569 42.7071 16.8752 42.2027 17.0867 41.7145L17.1749 41.5111L17.0054 41.4623C16.8074 41.404 16.6216 41.3497 16.4304 41.3131C16.1592 41.2602 15.8744 41.2168 15.6019 41.1775C15.4256 41.1504 15.2425 41.1219 15.0595 41.0907H15.0283C14.3991 40.9836 13.7495 40.8738 13.1136 40.7531C12.8424 40.7016 12.5562 40.6405 12.285 40.5809L11.7562 40.467C11.4538 40.4046 11.1432 40.3449 10.8436 40.288C10.1954 40.1632 9.52686 40.0344 8.87596 39.8676C8.08947 39.6642 7.30432 39.4025 6.5463 39.1503L6.13949 39.0147C5.52386 38.8099 4.99094 38.6078 4.51226 38.4044C4.07833 38.2173 3.6444 38.0125 3.22403 37.8146C2.96367 37.6912 2.69382 37.5637 2.42668 37.443C2.26125 37.3671 2.09039 37.2966 1.9236 37.2274C1.61694 37.1088 1.31724 36.973 1.0259 36.8206C0.677652 36.616 0.358402 36.3656 0.0766826 36.0761C-0.039936 35.9622 -0.0101033 35.649 0.0766826 35.5066C0.25501 35.1614 0.479455 34.8421 0.74385 34.5574C1.40704 33.8764 2.02362 33.1516 2.58941 32.3877C3.46247 31.2683 4.6122 30.3957 5.92524 29.856C6.07983 29.7896 6.23442 29.7123 6.38494 29.6391C6.47037 29.597 6.5558 29.5536 6.64258 29.5129L6.68326 29.4913C6.74136 29.4534 6.80918 29.4331 6.87853 29.4329C7.33009 29.4682 7.61621 29.1983 7.91861 28.9122C7.9959 28.839 8.07591 28.7644 8.15727 28.6953C8.48024 28.3984 8.88261 28.2019 9.31532 28.1298C9.50652 28.1013 9.6489 28.0647 9.73569 27.8437C9.82247 27.6226 10.0964 27.4192 10.3242 27.3284C10.7198 27.1758 11.0424 26.878 11.226 26.4958C11.447 26.0659 11.6775 25.632 11.904 25.213C12.0708 24.8984 12.2443 24.5743 12.4111 24.2529C12.4857 24.1092 12.563 23.9654 12.6389 23.8217C12.8749 23.3769 13.1176 22.9172 13.317 22.4521C13.6105 21.7511 13.7812 21.0048 13.8214 20.2458C13.8465 19.9934 13.8946 19.7437 13.9651 19.5C13.9923 19.3888 14.0221 19.2736 14.0465 19.161C14.0465 19.1447 14.0546 19.1271 14.0587 19.1095C14.0709 19.0756 14.0765 19.0397 14.075 19.0037C13.9394 18.4613 14.0858 17.9609 14.2608 17.4565C14.3325 17.2718 14.3741 17.0767 14.3842 16.8788C14.3805 15.9971 14.5448 15.1227 14.8683 14.3024C15.1617 13.5779 15.5473 12.8943 16.0155 12.2683C16.6211 11.464 17.2875 10.7074 18.0088 10.0051C18.3668 9.65388 18.8658 9.42065 19.3459 9.21317C19.9911 8.94229 20.6507 8.70689 21.3216 8.50804C21.5126 8.46 21.7092 8.43765 21.9061 8.44159L22.123 8.43346V8.32362C22.123 8.17581 22.1352 8.02258 22.1447 7.86935C22.1447 7.76764 22.1556 7.66594 22.1624 7.5656C22.1773 7.26998 22.1949 6.96487 22.2274 6.66519C22.2885 6.12278 22.6776 5.85157 23.0533 5.59393L23.1699 5.51392C23.6883 5.15392 24.173 4.74771 24.6181 4.30027C24.9395 3.97347 25.0832 3.5531 25.2365 3.10968C25.3207 2.84193 25.4259 2.58122 25.5511 2.32996C25.6059 2.22058 25.6548 2.10832 25.6975 1.99367C25.7598 1.81657 25.8441 1.648 25.9484 1.49194C26.0718 1.33555 26.2208 1.2012 26.3891 1.09462C26.4433 1.05529 26.5016 1.01326 26.5545 0.972576C26.608 0.933278 26.6637 0.897058 26.7213 0.864093C26.7808 0.829197 26.8375 0.789755 26.8908 0.746119L26.9207 0.72171L26.9491 0.679673V0.702726C27.4563 0.287781 27.9377 0.10336 28.4625 0.118277H28.4787C28.5371 0.106072 28.5967 0.0898001 28.655 0.0748838C28.822 0.0221013 28.9965 -0.00308988 29.1717 0.000302103C30.0987 0.0723721 30.9837 0.416759 31.7156 0.990204C32.4925 1.59848 33.163 2.33169 33.6995 3.15985C33.7578 3.22265 33.8348 3.26497 33.9191 3.28054C34.0697 3.3158 34.227 3.34699 34.3775 3.37546C34.6525 3.42214 34.9243 3.48646 35.1911 3.56802C35.4092 3.66827 35.5965 3.82513 35.7335 4.02229C35.8501 4.15789 35.9572 4.31655 36.0589 4.46571C36.1935 4.66914 36.3431 4.86223 36.5064 5.04338C37.2536 5.82716 37.2929 6.23397 36.7261 7.33914C36.6054 7.57373 36.4793 7.81104 36.3586 8.04021C36.0562 8.60974 35.743 9.19826 35.4867 9.80305C35.3759 10.1215 35.3173 10.4558 35.3131 10.7929C35.305 10.8974 35.2982 11.0045 35.2874 11.1089C35.2953 11.1501 35.3113 11.1894 35.3346 11.2243C35.3579 11.2592 35.3879 11.2892 35.423 11.3123C36.2521 11.8109 36.9892 12.4485 37.6021 13.1972C38.3005 14.0691 38.832 14.8339 39.1521 15.7343C39.2185 15.9228 39.2877 16.114 39.3609 16.2984C39.5331 16.7252 39.6802 17.1617 39.8016 17.6056C39.8729 17.9393 39.9052 18.2802 39.8979 18.6213C39.8979 18.7447 39.8979 18.8708 39.9087 18.9942C39.9453 19.7441 39.7094 20.4425 39.4816 21.1164L39.4273 21.2791C39.3066 21.6385 39.2022 22.0127 39.1005 22.3734C39.0558 22.5348 39.011 22.6975 38.9649 22.8589C39.0517 23.1181 39.0517 23.3984 38.9649 23.6576C38.909 23.8463 38.8766 24.0413 38.8686 24.238C38.8591 24.3573 38.8497 24.4794 38.8293 24.6C38.8144 24.6693 38.7883 24.7358 38.752 24.7967C38.7292 24.8371 38.7105 24.8799 38.6964 24.9241C38.6788 24.9906 38.6598 25.0597 38.6395 25.1248C38.5735 25.3034 38.5382 25.4918 38.5351 25.6822C38.5359 25.9842 38.4574 26.2812 38.3072 26.5432L38.2408 26.6856C38.0734 27.0785 37.9286 27.4805 37.8069 27.8898C37.6577 28.3576 37.5018 28.8621 37.3729 29.3814C37.0991 30.3876 37.182 31.4575 37.6075 32.4094L37.815 32.8623C37.9181 33.0861 38.0238 33.3166 38.1255 33.5404C38.1749 33.6537 38.2121 33.7718 38.2367 33.8929C38.3307 34.4497 38.6001 34.9618 39.0056 35.3547C39.3202 35.6627 39.5936 36.01 39.8192 36.388C40.1542 36.9237 40.584 37.6315 40.9529 38.3638C41.1508 38.7584 41.3285 39.1774 41.4953 39.5679C41.6444 39.9151 41.799 40.273 41.9658 40.6161C42.0797 40.8507 42.218 41.0812 42.3523 41.3036C42.5115 41.557 42.6564 41.8192 42.7862 42.0888C42.8662 42.2637 42.9598 42.44 43.0574 42.6095C43.2893 43.0421 43.528 43.4882 43.589 44.0076C43.6256 44.3262 43.6595 44.6381 43.6649 44.9568C43.6621 45.0769 43.6424 45.196 43.6066 45.3107C43.5944 45.3609 43.5822 45.407 43.5714 45.4544L43.5564 45.5317L43.2934 45.5114V45.4273C43.2934 45.3921 43.2934 45.3554 43.2934 45.3202C43.3015 45.2463 43.3015 45.1717 43.2934 45.0978C43.2769 45.041 43.2444 44.9902 43.1998 44.9514C43.1198 44.8741 43.0303 44.8022 42.9449 44.7317L42.8337 44.6408L42.9408 44.5052L43.3476 44.7696C43.3397 44.1761 43.1925 43.5927 42.9178 43.0665L42.8025 42.8454C42.2289 41.7538 41.6363 40.6243 41.0749 39.5028C40.9393 39.2316 40.824 38.9604 40.7101 38.6892C40.5603 38.311 40.3864 37.9427 40.1894 37.5868C39.8336 36.9389 39.3971 36.3389 38.8903 35.8009C38.5839 35.4944 38.1337 35.3046 37.6997 35.1228L37.4909 35.0347C36.3708 34.5492 35.3389 34.1316 34.3381 33.7533C33.6371 33.4902 32.9062 33.2637 32.1997 33.0454L31.9664 32.9722C30.7745 32.6033 29.8063 32.3145 28.9181 32.0623C28.1275 31.8385 27.417 31.6555 26.7484 31.5117C25.5172 31.2405 24.2411 30.9897 23.1156 30.7673L22.6912 30.6818C22.0512 30.5462 21.3908 30.4201 20.7358 30.3333C20.2164 30.2655 19.6835 30.2303 19.1682 30.1977C18.8862 30.1788 18.5946 30.1598 18.3085 30.1354C17.9736 30.1055 17.6305 30.073 17.3064 30.0404C16.7423 29.9835 16.1578 29.9265 15.5842 29.8926C14.3028 29.8167 13.0376 29.7733 11.8619 29.7394C11.3494 29.7231 10.8259 29.7394 10.3201 29.7489L10.0055 29.7557C9.95779 29.763 9.91181 29.7791 9.86994 29.8031C9.84417 29.8153 9.82112 29.8262 9.79942 29.8343L9.75603 29.8506L9.71806 29.8248C9.57513 29.7473 9.40909 29.7237 9.25023 29.7584C9.0781 29.7891 8.90074 29.7684 8.74036 29.6987V29.7692H8.65357C8.56814 29.7692 8.48271 29.7692 8.4 29.7692C8.22275 29.7592 8.04494 29.7688 7.86979 29.7977C7.7491 29.8221 7.62842 29.8343 7.51044 29.8465C7.2094 29.8777 6.92599 29.9062 6.6575 30.1327C6.27769 30.4254 5.87552 30.6879 5.4547 30.9178C5.22282 31.0534 4.98416 31.2012 4.7577 31.3544C4.53452 31.5115 4.31953 31.6798 4.11358 31.8589C4.01731 31.9389 3.92238 32.0189 3.82475 32.0975L3.75152 32.1559L3.63355 31.9931L3.69864 31.9402C3.83424 31.8331 3.95629 31.7246 4.08511 31.6148C4.3753 31.368 4.67634 31.1117 4.99229 30.8839C5.2757 30.6791 5.57945 30.4974 5.87371 30.3211L6.02288 30.233C5.6656 30.3946 5.31748 30.5756 4.98009 30.7754C3.91254 31.4371 3.00225 32.3238 2.31278 33.3736C2.07172 33.7096 1.79929 34.022 1.49916 34.3065C1.34186 34.4652 1.17778 34.6292 1.02862 34.7988C0.821822 35.0258 0.634482 35.2699 0.468575 35.5283C0.376365 35.6761 0.380433 35.7453 0.393994 35.7887C0.41569 35.8537 0.488916 35.9243 0.623163 36.0083L0.634011 36.0151L0.666556 36.0449L1.0815 35.8565L1.56154 34.7282L1.79206 34.8218L1.36356 35.8632L1.63476 35.8158C2.02801 35.7493 2.39821 35.687 2.76705 35.6341C2.83481 35.6301 2.90225 35.6461 2.96096 35.6802C2.99176 35.6957 3.02465 35.7066 3.05859 35.7127C3.37862 35.7127 3.70271 35.7195 4.01731 35.7195C4.60854 35.7195 5.22011 35.7195 5.82083 35.7548C6.28816 35.788 6.75345 35.8455 7.21483 35.927C7.38704 35.9541 7.55926 35.9812 7.73012 36.0056C8.09896 36.0585 8.4678 36.1087 8.838 36.1602C9.78722 36.2958 10.7703 36.4314 11.7304 36.5955C12.544 36.7392 13.3658 36.925 14.1604 37.1054C14.4804 37.1786 14.8018 37.2518 15.1232 37.3223C15.4717 37.3983 15.831 37.4837 16.1917 37.5759C16.4141 37.6315 16.6379 37.6912 16.8562 37.7495C17.2359 37.8512 17.6291 37.9569 18.0183 38.0451C18.2299 38.0926 18.4495 38.121 18.6624 38.1482C18.8333 38.1712 19.0096 38.1943 19.1832 38.2268C20.5853 38.498 21.9901 38.7692 23.3096 39.0241L23.5509 39.0702C23.932 39.1435 24.3252 39.2194 24.7076 39.3198C25.2243 39.4554 25.7463 39.6045 26.2521 39.751L26.9763 39.9571L27.0888 39.9896C27.3031 40.0507 27.5241 40.113 27.7424 40.1659C28.0855 40.25 28.4286 40.3314 28.7716 40.4127C29.4239 40.5673 30.1006 40.7287 30.7609 40.9036C31.3196 41.0514 31.881 41.2236 32.4248 41.3891C32.696 41.4731 32.9903 41.5613 33.2737 41.6454C33.4486 41.6969 33.6276 41.7457 33.8012 41.7932L34.3259 41.941L35.088 42.1701C35.4948 42.2922 35.9111 42.4183 36.3261 42.5349C36.9729 42.7166 37.6143 42.8821 38.3791 43.0773C38.6937 43.1573 39.0151 43.2346 39.3283 43.3092C39.9074 43.4448 40.5067 43.5926 41.0912 43.7594C41.4842 43.8805 41.8707 44.0217 42.2492 44.1825C42.416 44.2489 42.5882 44.3181 42.7577 44.3832L42.7021 44.5527L41.9089 44.3425C41.2837 44.1716 40.6383 43.994 40.0009 43.8258C39.4761 43.6902 38.95 43.5628 38.55 43.4706L38.1432 43.3797C37.2265 43.1722 36.2773 42.958 35.3782 42.5973C35.1185 42.5012 34.8514 42.4264 34.5795 42.3735C34.4032 42.3329 34.2202 42.2922 34.0439 42.2379C33.7727 42.1579 33.5015 42.0684 33.2303 41.983C32.917 41.8813 32.5929 41.7755 32.2716 41.6847C31.7061 41.526 31.1271 41.3741 30.5684 41.2291C30.2334 41.1409 29.8999 41.0541 29.5663 40.9646L27.4305 40.3883L26.7213 40.189L26.8027 40.3015C26.8298 40.3395 26.8556 40.3693 26.8773 40.3951C26.9251 40.4377 26.9563 40.4958 26.9654 40.5592V40.627C26.9763 40.9809 26.9871 41.3484 26.9654 41.7118C26.9586 41.8474 26.9763 41.8962 26.9925 41.9125C27.0088 41.9288 27.0034 41.9261 27.0359 41.9233H27.2054L27.1119 42.0589C27.0973 42.0807 27.0815 42.1015 27.0644 42.1213C27.0321 42.1528 27.0075 42.1913 26.9925 42.2339C26.9829 42.328 26.9788 42.4227 26.9803 42.5173C26.9838 42.6504 26.9738 42.7835 26.9505 42.9146V42.9349C26.8895 43.2156 26.8664 43.3729 27.0861 43.4773L27.2827 43.518L27.0942 43.678L27.0427 43.655L27.0278 43.6469L26.8827 43.6184L26.8379 43.754C26.7846 43.9028 26.7393 44.0545 26.7023 44.2083C26.5098 45.0815 25.8806 45.5846 25.1958 46.066C24.3157 46.6857 23.334 46.8715 22.1379 46.9542C21.9562 47.418 22.0525 47.86 22.1542 48.3279L22.199 48.5394C22.222 48.652 22.2478 48.7672 22.2735 48.8784C22.3969 49.4127 22.5231 49.9632 22.3386 50.5287C22.0281 51.5078 21.6728 52 20.63 52ZM19.5696 51.444C19.759 51.6301 20 51.7548 20.2612 51.802C20.0088 51.7306 19.7736 51.6089 19.5696 51.444ZM20.3954 46.6857C20.3862 46.8817 20.3377 47.0738 20.2526 47.2507C20.1676 47.4275 20.0478 47.5854 19.9005 47.7149C19.5257 48.0678 19.2459 48.5095 19.0869 48.9991C18.7831 49.8493 18.9133 50.5274 19.4937 51.1308C20.0524 51.7125 20.8497 51.8522 21.4355 51.4698C21.9671 51.1226 22.2668 50.1843 22.0891 49.4208C21.944 48.7903 21.8559 48.138 21.7705 47.5075V47.4776C21.7587 47.3334 21.7706 47.1882 21.8057 47.0478C21.8057 47.0071 21.8206 46.9651 21.8274 46.9203L21.2972 46.9881C21.2864 47.0654 21.2741 47.1441 21.2606 47.22C21.2131 47.4358 21.1949 47.657 21.2063 47.8777C21.2348 48.0632 21.2835 48.2451 21.3514 48.4201C21.416 48.5888 21.465 48.7631 21.4979 48.9408C21.586 49.5185 21.6186 50.1287 21.2484 50.6819C21.1482 50.84 21.007 50.9679 20.8398 51.0519C20.6726 51.136 20.4858 51.1731 20.2992 51.1593C20.151 51.1466 20.0092 51.0931 19.8895 51.0048C19.7698 50.9165 19.6769 50.7968 19.6211 50.6589C19.4296 50.2207 19.3744 49.7349 19.4625 49.2649C19.6361 48.5914 19.989 47.9775 20.4836 47.4885C20.6018 47.346 20.697 47.1858 20.7656 47.0139C20.7914 46.9556 20.8199 46.8973 20.8484 46.8376L20.3954 46.6857ZM20.5582 47.6716C20.1112 48.1254 19.7918 48.689 19.632 49.3056C19.5517 49.7384 19.6037 50.1855 19.7812 50.5884C19.8251 50.6971 19.8982 50.7915 19.9926 50.8611C20.0869 50.9308 20.1986 50.973 20.3154 50.983C20.4209 50.992 20.5271 50.9791 20.6273 50.945C20.4992 50.9505 20.3738 50.9063 20.2775 50.8216C19.7256 50.4365 19.6781 49.9104 19.6767 49.4059C19.6854 49.1471 19.7596 48.8947 19.8924 48.6723C20.028 48.4499 20.1717 48.2357 20.3154 48.0282C20.3968 47.9116 20.4836 47.7922 20.5582 47.6716ZM20.108 46.2992C20.1717 46.3748 20.2046 46.4717 20.2002 46.5705C20.1595 47.0369 20.0008 47.3841 19.7147 47.6282C19.3597 47.9309 19.0946 48.3254 18.9486 48.7686C18.7085 49.4547 18.5417 50.2494 19.1289 50.9816C18.7072 50.3972 18.638 49.7273 18.916 48.9476C19.0852 48.4301 19.3823 47.9636 19.7798 47.5915C19.9239 47.4647 20.0381 47.3074 20.1141 47.131C20.19 46.9547 20.2259 46.7637 20.2192 46.5718V46.4457L21.068 46.7278L21.0762 46.721L21.0965 46.7006C20.7437 46.6334 20.4077 46.497 20.108 46.2992ZM20.8239 47.5861C20.71 47.7733 20.5839 47.955 20.4619 48.1285C20.3195 48.3333 20.1731 48.5448 20.0469 48.7604C19.9297 48.9556 19.8635 49.1771 19.8544 49.4046C19.8544 49.8819 19.8964 50.3375 20.3792 50.6738C20.569 50.8094 20.6233 50.7809 20.7277 50.7063C20.8377 50.6301 20.9302 50.5311 20.9989 50.4162C21.4274 49.6541 21.2145 48.8771 20.9216 48.1502C20.8493 47.9713 20.816 47.779 20.8239 47.5861ZM21.0613 47.2946C21.0008 47.4749 20.9868 47.6675 21.0206 47.8546C21.0124 47.667 21.0261 47.479 21.0613 47.2946ZM21.323 46.7318L21.3148 46.805L21.666 46.7603C21.5521 46.7562 21.4328 46.7467 21.323 46.7318ZM22.024 46.7644V46.7928H22.0769C22.4322 46.7684 22.7671 46.7372 23.0858 46.6871C22.8444 46.7196 22.6031 46.7372 22.3658 46.7522C22.2464 46.7576 22.1393 46.7617 22.024 46.7644ZM21.1982 46.7128L21.2267 46.7671L21.2714 46.725L21.1982 46.7128ZM19.853 38.6756C19.7792 38.6962 19.7164 38.7449 19.6781 38.8112C19.4408 39.2425 19.2048 39.6845 18.977 40.1117C18.7492 40.5388 18.5268 40.9524 18.299 41.3714C17.9093 42.0896 17.7082 42.8949 17.7146 43.7119C17.7025 44.0109 17.7718 44.3076 17.9151 44.5703C18.0583 44.833 18.2703 45.0519 18.5282 45.2036C18.775 45.3392 19.0367 45.4748 19.2889 45.5982L19.674 45.7907L19.7215 45.8138C19.7933 45.8456 19.8604 45.8871 19.9208 45.9372C20.649 46.5894 21.5562 46.6261 22.3481 46.5759C23.0194 46.5338 23.7286 46.4647 24.37 46.1297C24.9015 45.8585 25.4548 45.529 25.8955 45.0354C26.3083 44.5792 26.5233 43.978 26.4935 43.3634C26.4962 43.2937 26.5123 43.2251 26.541 43.1614C26.5606 43.1185 26.573 43.0727 26.5776 43.0258C26.5776 42.6108 26.5776 42.1891 26.5776 41.7823C26.5776 41.4542 26.5776 41.1246 26.5776 40.7965C26.5809 40.7053 26.5922 40.6145 26.6115 40.5253C26.621 40.4737 26.6318 40.4154 26.6413 40.349L26.6657 40.1822L25.8169 39.953L25.5999 39.8947C25.3287 39.8188 25.0426 39.7415 24.7619 39.6791C23.2512 39.3442 21.9142 39.0526 20.6829 38.7896C20.4094 38.7303 20.1313 38.6949 19.8517 38.6838L19.853 38.6756ZM25.2677 45.8084C25.0061 45.983 24.7344 46.1419 24.454 46.2843C24.3713 46.3264 24.2886 46.3657 24.2059 46.3996C24.521 46.2812 24.8198 46.1236 25.0954 45.9304L25.2677 45.8084ZM19.6578 45.9697C19.7215 46.0091 19.7839 46.0511 19.8449 46.0931L19.8069 46.0606C19.7616 46.0235 19.7114 45.993 19.6578 45.9697ZM18.6068 45.4395C18.8294 45.5912 19.0705 45.7138 19.3242 45.8043H19.3337L19.2143 45.746C19.0136 45.6551 18.8075 45.5534 18.6068 45.445V45.4395ZM43.4642 45.0422C43.4642 45.0422 43.4642 45.0517 43.4642 45.0571C43.4642 45.0625 43.4642 45.0666 43.4642 45.0707V45.0476V45.0422ZM17.4176 41.3972L17.2495 41.7891C17.0447 42.2623 16.8508 42.7098 17.0759 43.2102C17.1261 43.3214 17.1789 43.4326 17.2305 43.5411C17.282 43.6496 17.3647 43.8001 17.4176 43.9357C17.4834 44.0856 17.5571 44.2318 17.6386 44.3737C17.5685 44.1597 17.5336 43.9358 17.5356 43.7106C17.5308 43.0261 17.6655 42.3479 17.9315 41.7172L17.8434 41.8528L17.6251 41.7782L17.6413 41.7009C17.6413 41.6806 17.6413 41.6589 17.6495 41.6372C17.6508 41.5689 17.671 41.5023 17.7078 41.4447C17.78 41.3559 17.8613 41.275 17.9505 41.2033L17.9993 41.1613C18.0617 41.1084 18.1241 41.1612 18.1648 41.1938L18.1838 41.2087C18.3994 40.8155 18.6123 40.4168 18.8197 40.029C19.0475 39.6005 19.2835 39.1597 19.5208 38.7272C19.5768 38.6346 19.6609 38.5624 19.7608 38.5211L19.1574 38.4072C19.0218 38.3827 18.893 38.3638 18.7614 38.3461L18.874 38.3678L19.0774 38.4072L19.1967 38.4316L18.9621 38.8506C18.7601 39.2113 18.5553 39.5842 18.3411 39.9462C18.3156 39.9877 18.2799 40.0219 18.2374 40.0457C18.1949 40.0694 18.147 40.0819 18.0983 40.0818C17.9564 40.071 17.8235 40.0574 17.6997 40.0412L18.1349 40.1293L18.2705 40.1564L17.4176 41.3972ZM26.739 43.1451C26.7308 43.1709 26.7213 43.1953 26.7118 43.2197C26.6921 43.2624 26.6801 43.3084 26.6766 43.3553C26.6781 43.4821 26.6726 43.6088 26.6603 43.735L26.6698 43.7065C26.6928 43.6346 26.7159 43.5641 26.7376 43.4923L26.762 43.415H26.7756C26.7397 43.3298 26.7271 43.2367 26.739 43.1451ZM35.9857 42.6203C36.5756 42.8123 37.1748 42.9743 37.7811 43.1058C37.2495 42.9702 36.7695 42.8414 36.2895 42.7058C36.1851 42.6786 36.0861 42.6502 35.9857 42.6203ZM26.7864 40.5646C26.7701 40.64 26.7606 40.7167 26.7579 40.7938C26.7579 41.1219 26.7579 41.4487 26.7579 41.7769C26.7579 42.1837 26.7579 42.5905 26.7579 42.9973C26.7647 42.9621 26.7729 42.9282 26.7796 42.8943V42.8753C26.8015 42.7559 26.8101 42.6345 26.8054 42.5132C26.8044 42.4113 26.8094 42.3094 26.8203 42.2081C26.8298 42.1506 26.8546 42.0967 26.8922 42.0522L26.8678 42.0318C26.7995 41.935 26.7717 41.8153 26.7905 41.6982C26.8068 41.3443 26.7905 40.9809 26.7905 40.6297V40.5673C26.7893 40.5661 26.788 40.5652 26.7864 40.5646ZM33.9734 42.0223L34.109 42.063L34.2798 42.1091L33.9734 42.0223ZM3.42879 37.7129C3.80983 37.8919 4.20173 38.0749 4.59226 38.2431C5.06823 38.4478 5.59708 38.6499 6.2073 38.8479L6.61411 38.9835C7.37077 39.2357 8.15184 39.496 8.93292 39.6967C9.57703 39.8622 10.2442 39.991 10.8897 40.1157C11.1894 40.1727 11.4999 40.2324 11.805 40.2961C11.9826 40.3314 12.1589 40.3707 12.3352 40.41C12.6064 40.4683 12.8776 40.5293 13.1583 40.5809C13.7943 40.7002 14.4425 40.81 15.0703 40.9172H15.1015C15.2805 40.947 15.4622 40.9755 15.6439 41.0026C15.9151 41.0446 16.2012 41.088 16.4792 41.1382C16.6786 41.1775 16.8779 41.2345 17.0691 41.2914L17.2413 41.3402L17.0799 41.2914C16.8752 41.229 16.6623 41.164 16.4508 41.1179C15.9544 41.0121 15.4486 40.909 14.9591 40.81C14.5048 40.7192 14.0357 40.6243 13.5746 40.5253C12.3216 40.2541 11.0063 39.9734 9.66382 39.675C9.40617 39.6181 9.14446 39.5625 8.89088 39.5096C8.17354 39.3591 7.43315 39.2031 6.72123 38.9848C5.75135 38.6687 4.79818 38.3035 3.86543 37.8905L3.42879 37.7129ZM0.779106 36.1534L0.803515 36.1765C0.906112 36.2879 1.02553 36.3827 1.15744 36.4572C1.98326 36.8572 2.9474 37.3183 3.9251 37.7318C4.85252 38.1416 5.80026 38.5036 6.76462 38.8167C7.4684 39.0323 8.20473 39.1882 8.918 39.3374C9.17158 39.3903 9.43465 39.4459 9.69229 39.5028C11.0348 39.8012 12.3501 40.0873 13.6017 40.3544C14.0628 40.452 14.5306 40.547 14.9849 40.6392C15.4744 40.7382 15.9802 40.8399 16.4765 40.947C16.6948 40.9945 16.9118 41.0595 17.1193 41.1233L17.3403 41.1911L17.9668 40.2649L17.4637 40.1632C17.0149 40.0737 16.5918 39.9869 16.1646 39.892C14.9049 39.6208 13.6289 39.3496 12.3677 39.0689L12.2321 39.0391C11.2626 38.8329 10.2673 38.6133 9.28684 38.376C9.14079 38.3335 9.00153 38.2705 8.87325 38.1888C8.82986 38.1644 8.78782 38.14 8.74579 38.1183L8.71188 38.1088L8.59933 38.0763L8.70782 37.8986L8.78104 37.9353L8.81359 37.9515L9.14853 38.0505C9.42922 38.1346 9.71806 38.22 10.0069 38.2851C10.3459 38.3624 10.6944 38.4316 11.0307 38.498C11.4104 38.5739 11.8023 38.6512 12.1847 38.7407C12.4057 38.7923 12.6254 38.856 12.8369 38.9184C13.212 39.0407 13.5966 39.1315 13.9868 39.1896C14.7896 39.2845 15.5951 39.4459 16.3748 39.6032C16.726 39.675 17.0908 39.7483 17.4488 39.8134C17.6682 39.8529 17.8895 39.8805 18.1119 39.8961C18.1406 39.8905 18.1668 39.8757 18.1865 39.854C18.3967 39.492 18.6055 39.1191 18.8062 38.7584L18.9214 38.5536L18.8401 38.5387C18.7045 38.5116 18.5499 38.4831 18.4075 38.4465C18.0007 38.3434 17.5939 38.2349 17.1871 38.1305C16.3585 37.9108 15.5015 37.683 14.6513 37.5027C13.4634 37.2491 12.243 37.0484 11.0632 36.8545L10.5208 36.765C9.25294 36.5548 8.1871 36.388 7.10634 36.2551C6.12839 36.12 5.14382 36.0381 4.15698 36.0097C3.39218 36.0002 2.6111 36.0477 1.85173 36.0938C1.52221 36.1141 1.17371 36.1344 0.845552 36.1507L0.779106 36.1534ZM30.2131 40.9443L30.6267 41.0514L30.9155 41.1273L30.723 41.0758C30.5535 41.0311 30.3826 40.9863 30.2131 40.9443ZM40.8932 38.6567C40.999 38.9075 41.1088 39.1652 41.2308 39.4093C41.2308 39.4201 41.2431 39.431 41.2485 39.4418C41.1319 39.1801 41.0152 38.9184 40.8905 38.6567H40.8932ZM0.445523 36.1683C0.651941 36.3586 0.879421 36.5247 1.12354 36.6633C1.40873 36.8159 1.70258 36.9517 2.0036 37.0701L2.10395 37.1121C1.74731 36.944 1.40288 36.7786 1.0815 36.6226C0.933516 36.5385 0.799857 36.4314 0.68554 36.3053C0.635367 36.2578 0.585194 36.209 0.535021 36.1697L0.445523 36.1683ZM10.3134 36.548L10.5574 36.5874L11.0999 36.6769L12.1128 36.845L11.706 36.7704C11.2477 36.6891 10.7812 36.6131 10.3134 36.548ZM0.246186 35.5744L0.235338 35.5934C0.207839 35.648 0.191406 35.7075 0.186985 35.7685C0.182563 35.8294 0.19024 35.8907 0.209574 35.9487C0.285511 36.0219 0.358737 36.0843 0.430607 36.1548L0.48078 36.1317C0.365263 36.0696 0.274735 35.9695 0.22449 35.8483C0.197665 35.7575 0.205393 35.6599 0.246186 35.5744ZM38.0794 35.0727C38.4249 35.2093 38.7428 35.4073 39.0178 35.6571C39.1561 35.7954 39.2868 35.9401 39.4097 36.091C39.256 35.8723 39.0821 35.6685 38.8903 35.4822C38.6884 35.295 38.5173 35.0772 38.3832 34.8367C38.4062 34.9099 38.4266 34.99 38.4469 35.0822L38.4849 35.2544L38.3235 35.1839L38.0794 35.0727ZM5.94151 35.9405C6.17068 35.9622 6.39985 35.988 6.63038 36.0151C6.39172 35.9826 6.16119 35.9554 5.93202 35.9351L5.94151 35.9405ZM2.81451 35.8049C2.64636 35.8293 2.47686 35.8551 2.306 35.8836C2.51618 35.8714 2.72772 35.8592 2.93926 35.8497L2.90943 35.8361C2.87655 35.8211 2.84113 35.8123 2.80502 35.8104L2.81451 35.8049ZM0.990647 34.5642L0.871316 34.6835C0.695161 34.8684 0.541745 35.0737 0.414334 35.2951C0.55927 35.08 0.718273 34.8748 0.890301 34.6808L0.990647 34.5642ZM37.08 34.6469L37.556 34.8503L37.7635 34.9384L37.9682 35.0252C37.6726 34.8977 37.3766 34.7716 37.08 34.6469ZM11.5528 29.4587C15.6903 29.4486 19.8203 29.8116 23.8926 30.5435C28.8275 31.4452 33.6398 32.9216 38.2313 34.9425C38.1364 34.5994 38.0198 34.4896 37.6401 34.3038C37.4082 34.1913 37.1763 34.0692 36.9526 33.9499C36.5542 33.7314 36.1445 33.5341 35.7254 33.3587C35.1124 33.1146 34.471 32.9084 33.8513 32.7091C33.6086 32.6305 33.3577 32.5505 33.1123 32.4691C32.2377 32.1775 31.4701 31.9267 30.7677 31.6975C30.5819 31.6365 30.3867 31.5877 30.1995 31.5416L29.8999 31.4656C29.3412 31.33 28.7635 31.1782 28.194 31.0398C27.8455 30.9558 27.4983 30.869 27.1498 30.7835C26.2115 30.5517 25.2433 30.3116 24.2832 30.1055C23.1197 29.8547 22.0918 29.6716 21.1399 29.5482C20.367 29.4465 19.5737 29.3868 18.8062 29.3285C18.4875 29.3041 18.158 29.2797 17.8339 29.2526L17.1789 29.1929C16.6555 29.1441 16.1145 29.0926 15.5815 29.0709C13.5475 28.9868 11.5406 28.9353 9.51872 29.2214C8.9058 29.3095 8.40271 29.3868 7.93623 29.4668C7.8861 29.4784 7.83775 29.4966 7.7925 29.5211L8.72544 29.4967V29.5089H8.76884C9.70088 29.4745 10.6289 29.4578 11.5528 29.4587ZM33.1638 32.2996C33.4079 32.381 33.6588 32.461 33.9002 32.5382C34.5226 32.7389 35.168 32.9451 35.7864 33.1932C36.2113 33.3717 36.6263 33.5727 37.0299 33.7953C37.2536 33.9133 37.4828 34.0353 37.7079 34.1465C37.9103 34.2266 38.0893 34.3562 38.2286 34.5235C38.1621 34.3548 38.109 34.1812 38.0699 34.0041C38.0728 34.0493 38.0728 34.0946 38.0699 34.1397L38.0604 34.2753L37.9425 34.2184L37.5465 34.0299C37.2631 33.8943 36.9946 33.7587 36.7234 33.6326C35.7161 33.1146 34.6565 32.7055 33.5625 32.4121C33.4337 32.3742 33.2981 32.3376 33.1638 32.2996ZM2.38193 32.96C2.03208 33.4048 1.64561 33.8739 1.22388 34.3241L1.36356 34.1804C1.65698 33.9044 1.92351 33.6011 2.15955 33.2746C2.23141 33.1674 2.30464 33.063 2.37922 32.96H2.38193ZM12.9712 28.6641C13.6912 28.6641 14.3801 28.6898 15.0229 28.7224C15.6656 28.7549 16.3057 28.8173 16.9308 28.8783C17.1948 28.9054 17.4596 28.9308 17.7254 28.9543C18.12 28.9909 18.5146 29.0234 18.9092 29.0573C19.8951 29.1414 20.9148 29.2282 21.9156 29.3434C22.717 29.4343 23.5062 29.597 24.3117 29.7706C24.7185 29.8587 25.1375 29.9699 25.5321 30.0784C25.8033 30.1516 26.0881 30.2276 26.3674 30.2954C27.0563 30.4635 27.7587 30.6303 28.4381 30.7917L30.167 31.1985C30.4721 31.2731 30.7786 31.3666 31.0498 31.4494C31.321 31.5321 31.6125 31.627 31.8864 31.7206C32.4478 31.9023 33.0282 32.0894 33.6059 32.2359C34.712 32.5309 35.7835 32.9432 36.8021 33.4658C37.0733 33.6014 37.3445 33.7261 37.6238 33.8617L37.895 33.9973C37.89 33.8509 37.8523 33.7075 37.7848 33.5775C37.7172 33.4475 37.6214 33.3343 37.5045 33.2461C37.1257 32.9821 36.7158 32.7657 36.284 32.602L36.2501 32.5871L35.7823 32.3864C34.8114 31.9674 33.8079 31.5361 32.7991 31.1659C31.9448 30.8514 31.0552 30.5842 30.1941 30.3252L29.569 30.1259C29.1242 29.9903 28.6672 29.8614 28.2265 29.738C27.8495 29.6323 27.459 29.5224 27.0766 29.4085C26.263 29.1644 25.4277 28.9109 24.6249 28.6654L23.5252 28.3291L22.9027 28.1406L22.6315 28.0579L22.6695 27.8844C23.2267 27.9683 23.7773 28.0915 24.3171 28.2532C24.827 28.4051 25.3422 28.5651 25.8413 28.721C26.2806 28.8566 26.7362 28.9922 27.1837 29.1278C27.4685 29.2133 27.7614 29.2919 28.0448 29.3679C28.3282 29.4438 28.6279 29.5252 28.9181 29.6119C29.7019 29.8479 30.7338 30.1544 31.7563 30.492L32.06 30.591C32.8153 30.8337 33.595 31.0873 34.3449 31.3829C35.0948 31.6785 35.8542 32.0121 36.5837 32.3321C36.8427 32.4447 37.1004 32.5586 37.3594 32.6698L37.3431 32.6237C37.2808 32.4241 37.2066 32.2285 37.1207 32.0379C37.0646 31.9016 36.9656 31.7874 36.8387 31.7124C36.0549 31.368 35.2874 31.0344 34.509 30.751C33.53 30.3957 32.5224 30.0662 31.5474 29.7475L31.0932 29.5997C30.2362 29.319 29.3507 29.0302 28.4706 28.7861C27.9553 28.6424 27.421 28.5312 26.9044 28.4254L26.3091 28.3007C26.0704 28.2478 25.8263 28.199 25.5918 28.1515C25.151 28.0634 24.6968 27.9711 24.2533 27.8586C23.9279 27.7759 23.6038 27.6755 23.2892 27.5792C22.9204 27.4653 22.5393 27.3474 22.1583 27.2592C20.5024 26.8901 18.8129 26.6929 17.1166 26.6707C16.3029 26.6531 15.4812 26.6463 14.6838 26.6395L13.599 26.63H13.3034L13.5516 26.4687C13.5576 26.4605 13.5631 26.4519 13.5678 26.4429C13.6037 26.4059 13.652 26.3836 13.7034 26.3805C13.9746 26.3805 14.0818 26.2327 14.1794 25.9615C14.2363 25.8166 14.3038 25.6761 14.3814 25.5411C14.414 25.4828 14.4465 25.4232 14.4764 25.3649L14.5184 25.2821L14.7259 25.396L14.2933 26.3073L14.7001 26.3181C15.0852 26.3276 15.4486 26.3371 15.8148 26.3534L16.4236 26.3805C17.3729 26.4212 18.3668 26.4646 19.3377 26.5283C19.7472 26.5628 20.1546 26.6189 20.5582 26.6965L20.8389 26.7453L21.2891 26.8185C21.841 26.9094 22.4132 27.0016 22.9678 27.1331C23.3231 27.2158 23.677 27.3257 24.0188 27.4301C24.3605 27.5345 24.713 27.6443 25.0629 27.7271C25.505 27.8301 25.9592 27.9169 26.3972 27.9983C26.9627 28.1067 27.5471 28.2193 28.114 28.3671C28.9086 28.5759 29.7046 28.8309 30.4748 29.0777C30.7976 29.1821 31.1325 29.2906 31.4634 29.3923C31.7472 29.4827 32.0311 29.5694 32.3149 29.6526C32.993 29.8601 33.7008 30.0743 34.3856 30.3103C35.0026 30.5232 35.606 30.7646 36.2027 30.9992L36.8549 31.2554C36.8699 31.0954 36.8834 30.9354 36.897 30.7795C36.9349 30.3198 36.9716 29.8859 37.0434 29.4479C37.1396 28.9197 37.2715 28.3987 37.438 27.8884C37.5818 27.3745 37.7631 26.8719 37.9804 26.3846C38.2516 25.8178 38.173 25.1642 37.7879 24.7574C36.7302 23.6318 35.3823 22.6447 33.5462 21.6507C32.2968 20.9865 31.0147 20.3859 29.7046 19.8512C28.756 19.4614 27.7808 19.1397 26.7864 18.8884C25.7884 18.6308 24.7524 18.4586 23.7408 18.2932H23.7014C23.2309 18.2145 22.7454 18.1725 22.2749 18.1318L21.6891 18.0775L21.4667 18.0531C21.224 18.0274 20.9731 18.0002 20.7277 17.9948C19.7581 17.9704 18.6136 17.9948 17.4908 18.323C17.1315 18.4288 16.7667 18.5291 16.406 18.6254C16.025 18.7298 15.6331 18.8383 15.2493 18.9522C15.1722 18.9951 15.1152 19.0668 15.0907 19.1515C15.0581 19.2871 15.0378 19.439 15.0188 19.5814C15.0022 19.7308 14.9778 19.8793 14.9456 20.0262C14.7354 20.9144 14.5157 21.8161 14.3028 22.688L14.0668 23.6603L14.0452 23.7471L13.8011 23.6888L13.8201 23.6034C13.9326 23.1152 14.0682 22.627 14.2011 22.1538C14.4723 21.1801 14.753 20.174 14.8276 19.1434C14.376 19.3115 14.3042 19.6153 14.3435 20.0153C14.4031 20.6445 14.2309 21.2032 14.0357 21.7131C13.9163 22.0277 13.7645 22.3341 13.6207 22.6311C13.399 23.052 13.2174 23.4929 13.0783 23.9478L12.9847 24.4061L12.8085 24.3763C12.8166 24.3207 12.8247 24.2651 12.8342 24.2109C12.3664 25.0801 11.908 25.933 11.4511 26.7941C11.4412 26.8266 11.4375 26.8606 11.4402 26.8945C11.4402 26.9216 11.4402 26.9487 11.4402 26.9731V27.0111L11.4104 27.0355L11.3575 27.0748C11.3221 27.0985 11.2886 27.1248 11.2572 27.1535C11.2029 27.2036 11.1487 27.2606 11.0971 27.3162C10.9019 27.5223 10.6998 27.7352 10.3527 27.7691C10.3174 27.7793 10.2845 27.7966 10.256 27.8199C10.2276 27.8432 10.2042 27.8721 10.1872 27.9047C10.0706 28.2817 9.76281 28.3454 9.4916 28.4024L9.43058 28.4159C8.93021 28.5244 8.55594 28.8322 8.20066 29.1875C8.26439 29.1875 8.31863 29.1767 8.37016 29.1672C8.52611 29.1346 8.68612 29.098 8.83935 29.0627C9.11056 29.0017 9.39126 28.9366 9.67195 28.8946C10.7643 28.7344 11.8672 28.6574 12.9712 28.6641ZM36.9295 32.6874C37.1726 32.7989 37.4034 32.9352 37.6184 33.0942C37.6931 33.1512 37.7609 33.2168 37.8204 33.2895C37.7648 33.1661 37.7079 33.0441 37.6536 32.9247L37.5411 32.6806C37.5546 32.7213 37.5696 32.762 37.5831 32.8013L37.6523 32.9952L37.4638 32.9139L36.9295 32.6874ZM29.4714 32.0094C30.224 32.2277 31.0471 32.4759 32.0193 32.7769L32.2526 32.8488L32.4085 32.8976C31.434 32.5839 30.4531 32.2901 29.4659 32.0162L29.4714 32.0094ZM6.86497 29.6174C6.83146 29.6247 6.79939 29.6375 6.77005 29.6553L6.72123 29.6811L6.4663 29.8059C6.31442 29.8804 6.15712 29.9577 5.99847 30.0255C4.71386 30.554 3.58897 31.4078 2.7345 32.503C3.34462 31.7613 4.07258 31.1249 4.88923 30.6195C5.2407 30.4117 5.60281 30.2225 5.97406 30.0526C6.13814 29.9754 6.30629 29.8953 6.47037 29.8126L6.54359 29.776L6.62089 29.9008C6.87767 29.7397 7.17347 29.6515 7.47654 29.6458H7.52671L7.48196 29.4926C7.2945 29.5972 7.0804 29.6444 6.86633 29.6282L6.86497 29.6174ZM33.3659 30.1706C33.7659 30.3062 34.1659 30.4418 34.5605 30.5896C35.3443 30.8744 36.1145 31.2093 36.901 31.5551C37.0346 31.6259 37.1445 31.7343 37.217 31.867C37.1385 31.6012 37.084 31.3289 37.0543 31.0534C37.0448 31.1673 37.0339 31.2826 37.0231 31.3978L37.0109 31.5144L36.9024 31.4724C36.6502 31.3748 36.3957 31.2749 36.139 31.1727C35.5504 30.9395 34.9429 30.6981 34.3287 30.4866C34.0113 30.3754 33.6886 30.2723 33.3659 30.1706ZM8.61154 28.5895C8.49537 28.6652 8.38438 28.7485 8.27931 28.839C8.20202 28.9041 8.12743 28.9746 8.04879 29.0492C7.90322 29.1955 7.74331 29.3268 7.57146 29.4411L7.65554 29.3977C7.71006 29.3661 7.76723 29.3393 7.8264 29.3177L7.9064 29.2336C8.12015 28.9967 8.35629 28.781 8.61154 28.5895ZM11.2626 26.79C11.0548 27.1146 10.7481 27.3637 10.3879 27.5006C10.1837 27.5781 10.0133 27.725 9.90655 27.9155C9.8772 27.9974 9.831 28.0723 9.77094 28.1352C9.83018 28.1088 9.8828 28.0695 9.92501 28.0203C9.96722 27.971 9.99797 27.913 10.015 27.8505C10.0419 27.7833 10.0851 27.724 10.1408 27.6778C10.1964 27.6316 10.2628 27.6001 10.3337 27.586C10.613 27.5589 10.7839 27.3786 10.9643 27.1874C11.0185 27.1304 11.0741 27.0721 11.1324 27.0179C11.1696 26.9846 11.2085 26.9534 11.249 26.9243L11.2666 26.9121V26.889C11.2633 26.8561 11.262 26.8231 11.2626 26.79ZM38.1811 25.0272C38.3345 25.3811 38.3622 25.7768 38.2598 26.1486C38.316 26.0022 38.3414 25.8457 38.3344 25.6889C38.335 25.4779 38.3726 25.2686 38.4456 25.0706C38.4591 25.0231 38.474 24.9757 38.4876 24.935L38.3262 25.2062L38.2449 25.1045L38.1811 25.0272ZM20.2558 17.6911C20.7951 17.6906 21.3337 17.7268 21.8681 17.7996C22.2207 17.8484 22.5854 17.8687 22.9366 17.8891C23.3177 17.9108 23.7096 17.9338 24.0933 17.9908C25.3233 18.1738 26.5247 18.3759 27.6773 18.8139C28.0841 18.9685 28.4909 19.1176 28.8978 19.2614C29.4659 19.4661 30.0531 19.6763 30.624 19.9068C32.5889 20.6974 34.1429 21.5083 35.5057 22.4589C36.4102 23.0867 37.4448 23.8651 38.3018 24.8997L38.3886 24.7506C37.7486 23.9085 36.9512 22.9715 35.8759 22.3355C34.886 21.7483 33.9774 21.2507 33.0933 20.8194L32.8858 20.7177C31.7454 20.1577 30.567 19.5787 29.3602 19.1285C28.5845 18.8555 27.794 18.6264 26.9925 18.4423C26.6495 18.3555 26.2942 18.2674 25.947 18.1711C25.8819 18.1535 25.8114 18.1413 25.745 18.1277L25.646 18.1087L25.5511 18.0897L25.6351 17.7982L25.7192 17.8199C26.0555 17.908 26.3972 17.9921 26.7349 18.0735C27.501 18.2606 28.2943 18.4532 29.0551 18.7081C30.0534 19.0627 31.0297 19.4766 31.9787 19.9475C32.4722 20.1807 32.9604 20.4425 33.4337 20.6947C33.9069 20.9469 34.3748 21.1964 34.8548 21.4242C36.4102 22.1646 37.6035 23.1369 38.5039 24.3994C38.5211 24.4158 38.5408 24.4295 38.5622 24.44L38.5812 24.2787C38.6218 23.9356 38.6598 23.6129 38.6924 23.2928C38.6857 23.2817 38.678 23.2713 38.6693 23.2616C38.6571 23.2454 38.6435 23.2277 38.6327 23.2115C38.0458 22.2405 37.2974 21.3769 36.4197 20.6581C35.5803 19.9706 34.551 19.3793 33.1828 18.799C32.201 18.3827 31.1596 17.9853 30.0883 17.607L29.6734 17.4619C28.656 17.0836 27.6189 16.7604 26.5667 16.4937C25.5334 16.2537 24.4445 16.1601 23.3909 16.0706L23.3109 16.0625C22.2152 15.9689 21.0952 15.9269 20.0117 15.897H19.8259C18.8365 15.8445 17.8463 15.9826 16.9091 16.3039C16.6826 16.3852 16.5877 16.4706 16.5701 16.6103C16.5335 16.9181 16.5104 17.2354 16.4874 17.5419C16.4806 17.6355 16.4738 17.729 16.4657 17.8226L17.3905 17.6951H17.4027L17.4759 17.6599L17.5898 17.8538L17.4461 17.8728L17.4122 17.8918C17.3547 17.9295 17.2908 17.9566 17.2237 17.9718C16.4657 18.1074 15.6819 18.243 14.993 18.6322C14.9554 18.6507 14.9121 18.6536 14.8723 18.6403H14.8547H14.8113L14.5089 18.8491L14.6201 18.9522L14.696 18.8925C14.7983 18.8027 14.9159 18.7319 15.0432 18.6837C15.7687 18.4613 16.4263 18.2769 17.0528 18.1236L17.1369 18.1033C17.6822 17.9526 18.2372 17.8393 18.798 17.7643C19.2823 17.7143 19.7689 17.6899 20.2558 17.6911ZM38.5188 24.6123L38.5771 24.6895L38.5893 24.7045C38.5893 24.6923 38.6015 24.6801 38.6069 24.6692L38.592 24.6584L38.5188 24.6123ZM13.1203 23.3023C13.0173 23.5017 12.9129 23.6996 12.8098 23.8949C12.8442 23.8476 12.8912 23.8109 12.9454 23.7891C12.9934 23.624 13.05 23.4615 13.1149 23.3023H13.1203ZM38.8212 23.1518L38.8375 23.1721C38.8375 23.1572 38.8375 23.1423 38.8375 23.1274L38.8212 23.1518ZM19.4883 15.5811C19.853 15.5811 20.2178 15.5987 20.5731 15.615C21.6932 15.6652 22.8282 15.7506 23.9265 15.8265L24.035 15.8347C25.1687 15.9174 26.3742 16.0299 27.5336 16.4245L29.4158 17.0605L30.7053 17.4972C32.1449 17.9911 33.544 18.5959 34.89 19.3061C36.2532 20.0215 37.4375 21.0352 38.3547 22.2717C38.47 22.4223 38.573 22.5782 38.6829 22.7436L38.7534 22.8521L38.7602 22.8386C38.752 22.8114 38.7425 22.783 38.7317 22.7545C38.6862 22.6524 38.6666 22.5406 38.6747 22.429C38.7113 22.1863 38.5771 22.0222 38.4361 21.8432V21.8365C37.7581 20.9984 36.9092 20.3557 36.0928 19.7699C35.5681 19.3915 34.9931 19.0593 34.4385 18.7366C34.2351 18.6172 34.0235 18.4952 33.8174 18.3718C32.1468 17.3724 30.5413 16.7446 28.91 16.4584C28.6685 16.4101 28.4306 16.3453 28.198 16.2645C28.095 16.2306 27.9865 16.1967 27.8807 16.1655L27.5743 16.076L27.8834 15.9933C27.9934 15.9658 28.1084 15.9658 28.2184 15.9933C28.4014 16.034 28.5832 16.072 28.7608 16.1086C29.2015 16.1994 29.6571 16.2944 30.0978 16.4205C30.7493 16.5863 31.3846 16.8101 31.9963 17.089C33.3252 17.7467 34.6121 18.4545 35.8162 19.123C36.6407 19.5814 37.4055 20.2079 38.2964 21.1435C38.4561 21.3193 38.6034 21.5059 38.7371 21.7022L38.8429 21.85C38.8727 21.77 38.8971 21.6995 38.9175 21.6317C38.9785 21.4229 39.0463 21.2127 39.1114 21.0079C39.2796 20.5209 39.4123 20.0224 39.5087 19.5163C39.6205 18.9424 39.6135 18.3517 39.4883 17.7806C39.0815 16.2089 38.5893 15.0848 37.8869 14.1342C37.3445 13.3965 36.7248 12.6344 35.9084 12.0513C35.2591 11.5857 34.5745 11.1713 33.8608 10.8119C33.1057 10.4462 32.3301 10.1243 31.5379 9.8478L31.2301 9.73524C30.0856 9.31352 28.9018 8.87823 27.6272 8.84569C27.2434 8.83484 26.8529 8.80094 26.4772 8.76704C25.8212 8.68922 25.1593 8.67242 24.5001 8.71687C24.1544 8.75077 23.8004 8.77382 23.4587 8.79823C22.7452 8.83148 22.0346 8.91029 21.3311 9.03418C20.2463 9.24979 19.152 9.7922 17.9966 10.694C17.6367 10.9977 17.3103 11.3391 17.023 11.7123C16.9443 11.8059 16.8657 11.9008 16.7857 11.9944C15.6453 13.3287 15.0473 14.5708 14.9076 15.8943C14.8859 16.0937 14.8832 16.3011 14.8791 16.4991C14.8791 16.5954 14.8791 16.6903 14.8791 16.7852V16.891H14.852C14.8425 16.9127 14.8316 16.9344 14.8208 16.9561C14.7652 17.0714 14.7503 17.112 14.8371 17.1771L14.8886 17.2165L14.4099 18.6227L14.7259 18.6105L14.5387 18.5915L16.2026 17.8348L16.3477 16.5262L15.6697 16.7663L15.911 16.4951L15.9355 16.4652C15.9612 16.4222 15.9995 16.3881 16.0453 16.3676C16.2026 16.3106 16.3585 16.251 16.5158 16.1913C16.9188 16.0299 17.3298 15.8891 17.7471 15.7696C18.3169 15.6316 18.9022 15.5683 19.4883 15.5811ZM38.8239 22.1212C38.8625 22.2284 38.8728 22.3438 38.8537 22.4562C38.8491 22.4849 38.8491 22.5142 38.8537 22.543L38.9147 22.3273C39.0165 21.9653 39.1209 21.5897 39.2429 21.2249L39.2985 21.0622C39.4965 20.475 39.6863 19.9163 39.7162 19.3197C39.7053 19.3956 39.6945 19.4729 39.6823 19.5502C39.5828 20.0637 39.4468 20.5694 39.2755 21.0635C39.2104 21.2669 39.1399 21.4703 39.0829 21.6832C39.0612 21.7592 39.0341 21.8351 39.0015 21.9219L38.9487 22.067L38.8944 22.2229L38.8239 22.1212ZM14.2214 18.8071C14.2296 18.86 14.2391 18.9142 14.2526 18.9685C14.2638 19.033 14.2582 19.0993 14.2364 19.161C14.2364 19.1759 14.2282 19.1908 14.2255 19.2058C14.2011 19.321 14.1713 19.4376 14.1428 19.5502C14.0772 19.7841 14.0318 20.0232 14.0072 20.2648C13.9671 20.9796 13.8171 21.684 13.5624 22.3531C13.675 22.1212 13.7848 21.8839 13.877 21.6439C14.0641 21.1544 14.2282 20.6187 14.1726 20.0275C14.1401 19.6926 14.1726 19.3346 14.5211 19.0973L14.2323 18.8261L14.2648 18.8017L14.2214 18.8071ZM35.3579 19.0783C35.644 19.2532 35.9261 19.4349 36.1959 19.6288C36.833 20.0684 37.4346 20.5571 37.9954 21.0906C37.1899 20.2648 36.4847 19.7034 35.7308 19.2844L35.3579 19.0783ZM15.0676 18.864C15.0343 18.8768 15.0024 18.8931 14.9727 18.9129L15.0256 18.8979V18.9115C15.0378 18.8912 15.0595 18.8749 15.0676 18.86V18.864ZM24.0838 18.1711C24.9666 18.3176 25.8684 18.4735 26.7444 18.6959C25.8695 18.4648 24.9809 18.2895 24.0838 18.1711ZM22.321 7.95613C22.321 8.08089 22.3088 8.207 22.3034 8.32904C22.3034 8.39413 22.3034 8.46464 22.2966 8.52024V8.59889L22.2179 8.60567C22.1122 8.61381 22.0118 8.61652 21.9142 8.61788C21.7316 8.61388 21.5492 8.63394 21.3718 8.67754C20.7069 8.87422 20.0533 9.10689 19.4137 9.37454C18.9486 9.57659 18.4645 9.80033 18.1309 10.1312C17.4162 10.8266 16.7561 11.576 16.1565 12.3727C15.6965 12.988 15.3182 13.6603 15.031 14.3729C14.7158 15.1734 14.5556 16.0266 14.5591 16.8869C14.5489 17.1049 14.5031 17.3198 14.4235 17.5229C14.2788 17.8789 14.202 18.2588 14.197 18.643L14.6608 17.2775C14.6125 17.2232 14.5842 17.1541 14.5808 17.0815C14.5773 17.0089 14.5989 16.9374 14.6418 16.8788C14.6607 16.8444 14.6757 16.808 14.6866 16.7703C14.6866 16.6835 14.6866 16.594 14.6866 16.4991C14.6866 16.2957 14.6866 16.0923 14.715 15.8781C14.8601 14.5139 15.4703 13.2433 16.6352 11.8805C16.7138 11.7901 16.7925 11.6965 16.8711 11.5998C17.1672 11.2172 17.5031 10.8672 17.8732 10.5556C19.0665 9.64032 20.1812 9.08571 21.2972 8.86467C21.9639 8.74596 22.6373 8.66942 23.3136 8.6355L23.2092 8.4999V8.59754H23.1184C23.0526 8.60143 22.9868 8.58885 22.9272 8.56092V8.58804L22.3386 8.6694V8.56906C22.3386 8.41447 22.3305 8.25988 22.3251 8.10801C22.3305 8.05783 22.3291 8.00088 22.3278 7.95478L22.321 7.95613ZM35.2033 11.372L35.2196 11.3815C35.2196 11.3815 35.2074 11.3679 35.2019 11.3598L35.2033 11.372ZM36.0115 5.15322C35.9884 5.22509 35.9654 5.28882 35.9437 5.3634C35.8724 5.61528 35.7845 5.86216 35.6806 6.10244C35.484 6.52959 35.2738 6.95674 35.0663 7.37033C34.9023 7.69984 34.7341 8.04834 34.5741 8.37786C34.2443 9.04402 34.1157 9.79181 34.2039 10.5299C34.2088 10.586 34.2322 10.6389 34.2703 10.6804C34.4697 10.797 34.6772 10.9028 34.8914 11.0153L34.9877 11.0655C34.9104 10.1285 35.2372 9.34335 35.5735 8.69381C35.7335 8.38328 35.8989 8.06868 36.0589 7.76493C36.2542 7.39609 36.4563 7.01369 36.6488 6.63536C36.7185 6.51619 36.7514 6.37904 36.7432 6.24122C36.7349 6.10341 36.6861 5.97112 36.6027 5.86107C36.4536 5.66309 36.2854 5.47324 36.124 5.29018L36.0115 5.15322ZM34.0439 10.7129L34.0968 10.7401C34.0767 10.705 34.0607 10.6677 34.0493 10.6289L34.0439 10.7129ZM33.831 10.4417L33.873 10.4594C33.873 10.42 33.873 10.3807 33.873 10.3414L33.831 10.4417ZM33.5015 10.3061L33.5964 10.3495L33.7876 10.0322L33.8798 10.0865C33.869 9.81205 33.9006 9.53763 33.9734 9.27284C34.2703 8.35209 34.6514 7.44084 35.008 6.56078L35.0243 6.52145C35.2887 5.88141 35.5233 5.2495 35.4921 4.54843C35.4936 4.44559 35.4664 4.34437 35.4134 4.2562C35.3605 4.16802 35.2839 4.0964 35.1924 4.04941C35.0773 3.9907 34.957 3.94259 34.8331 3.90567L34.7463 3.87719L34.7382 3.92194C34.7016 4.72607 34.6026 5.71461 34.1958 6.56756L33.8798 7.23608L34.5578 3.90025V3.80532H34.5375C34.5125 3.79946 34.4871 3.79539 34.4615 3.79312C34.4497 3.81858 34.4397 3.84486 34.4317 3.87177C34.4209 3.90296 34.4087 3.93821 34.3924 3.97618L34.2188 4.38299V3.76871C34.1846 3.80177 34.1582 3.84208 34.1415 3.88669C34.123 3.98593 34.1144 4.08677 34.1158 4.18772C34.1158 4.2379 34.1158 4.28671 34.1158 4.33689C34.0505 5.42166 33.7063 6.47121 33.1164 7.38389L32.9591 7.30388C33.0418 7.0937 33.1326 6.88351 33.2221 6.68011C33.391 6.31659 33.5359 5.94243 33.6561 5.56003C33.6113 5.67258 33.5679 5.78377 33.5205 5.89497C33.3415 6.35737 33.157 6.8347 32.9428 7.29168C32.6716 7.85307 32.3583 8.40091 32.0505 8.93112C31.942 9.11689 31.8295 9.30945 31.721 9.50201C31.737 9.50358 31.7525 9.50865 31.7663 9.51685C31.7801 9.52505 31.792 9.53619 31.801 9.54947C31.8675 9.64981 31.9027 9.65253 31.9068 9.65253C31.9163 9.65253 31.9529 9.64303 32.0315 9.51692C32.1888 9.27826 32.357 9.04231 32.5184 8.81314L32.6879 8.59211L32.7896 8.41311L32.9252 8.57177L32.8872 8.62737C32.8723 8.64771 32.8587 8.66805 32.8438 8.68703L32.2458 9.75287L32.8885 10.0241L33.2167 9.42065C33.553 8.80094 33.8947 8.16089 34.2459 7.53576C34.3124 7.41372 34.391 7.2971 34.4656 7.18455L34.5266 7.0937L34.6256 6.89843L34.7517 7.07471L34.7192 7.12489L34.6812 7.1832L33.1896 10.1421L33.2533 10.1719L33.5869 9.73389L33.7686 9.83017L33.5015 10.3061ZM31.9678 9.8261L31.9936 9.83559L32.0071 9.81254C31.9929 9.81621 31.9784 9.81848 31.9637 9.81932L31.9678 9.8261ZM31.5895 9.6905H31.6044L31.7305 9.7366C31.7131 9.71767 31.6968 9.69774 31.6817 9.67694H31.6464L31.5895 9.6905ZM36.8509 6.63671C36.8387 6.66384 36.8265 6.69096 36.8115 6.71943C36.6176 7.09776 36.4156 7.48152 36.2203 7.85172C36.0617 8.15411 35.8962 8.46871 35.7362 8.77789C35.5734 9.08191 35.4372 9.39951 35.3294 9.72711C35.5857 9.12774 35.8962 8.54329 36.1973 7.97783C36.318 7.74866 36.4427 7.51271 36.5634 7.27947C36.6732 7.06907 36.768 6.8511 36.8468 6.62722L36.8509 6.63671ZM31.2911 9.58201L31.4457 9.63761L31.4918 9.55625C31.6274 9.31759 31.763 9.07757 31.8986 8.84433L32.041 8.60025L32.079 7.26049L32.2336 7.24828C32.2336 7.10048 32.2336 6.95131 32.2214 6.80351C32.2092 6.6557 32.2132 6.54586 32.2105 6.41704C32.201 6.08345 32.1929 5.73902 32.1644 5.40137C32.1644 5.3634 32.1644 5.32543 32.1536 5.28611C32.1714 5.67097 32.1556 6.05665 32.1061 6.43873C32.0749 6.68418 32.0492 6.9364 32.0234 7.17913C31.9759 7.62797 31.9271 8.09309 31.8498 8.54601C31.7882 8.8195 31.6882 9.08292 31.5529 9.32843C31.5271 9.37996 31.5013 9.43149 31.4769 9.48438C31.4549 9.51279 31.4265 9.53559 31.3939 9.55091C31.3614 9.56623 31.3257 9.57364 31.2898 9.57252L31.2911 9.58201ZM28.4191 8.58804C28.5276 8.60025 28.636 8.61245 28.7445 8.62737C29.4103 8.71415 30.0341 8.95824 30.643 9.19554C30.8165 9.26335 30.9955 9.33115 31.1718 9.39895C31.2243 9.41262 31.2794 9.41262 31.3318 9.39895L31.4023 9.26335C31.5298 9.03316 31.6243 8.78621 31.683 8.52973C31.7603 8.08224 31.8078 7.61984 31.8553 7.1737C31.881 6.92962 31.9081 6.6774 31.938 6.4306C32.0654 5.40951 31.9678 4.54436 31.641 3.7877C31.3956 3.21952 31.1054 2.63778 30.5209 2.31505C30.4846 2.29033 30.4433 2.27382 30.4 2.26667C30.3566 2.25951 30.3123 2.26189 30.2699 2.27364C30.2276 2.28538 30.1883 2.30621 30.1549 2.33467C30.1214 2.36314 30.0945 2.39855 30.0761 2.43844L30.0314 2.52252C30.0012 2.5869 29.9649 2.64821 29.9229 2.70558C29.2883 3.5192 29.0266 4.49961 28.8544 5.34577C28.7176 6.08113 28.618 6.82292 28.556 7.56831C28.5262 7.87477 28.4937 8.19073 28.457 8.49854L28.4733 8.51888L28.4191 8.58804ZM28.8096 8.81586C29.0971 8.87281 29.3791 8.94332 29.6585 9.02468C29.3813 8.92954 29.097 8.85654 28.8083 8.80636L28.8096 8.81586ZM26.2765 8.58533L26.4949 8.60567C26.8257 8.63415 27.1729 8.66398 27.5024 8.67754L27.3315 8.66262L26.7064 8.60703L26.602 8.59618L26.6278 8.49448C26.9844 7.14794 27.2298 5.7458 27.4685 4.38842C27.6556 3.3158 27.8495 2.21063 28.1004 1.11632C28.054 1.20025 27.9803 1.2658 27.8916 1.30209C27.8916 1.32108 27.8821 1.35362 27.878 1.37532C27.875 1.40832 27.8691 1.44099 27.8604 1.47295C27.7736 1.79569 27.6841 2.11707 27.596 2.43844L27.4604 2.92933L27.596 2.96458L27.5865 3.04188C27.558 3.28325 27.5309 3.53005 27.5051 3.76735C27.4468 4.30977 27.3871 4.8671 27.2868 5.41086C27.162 6.08888 26.998 6.75605 26.8407 7.4083C26.7742 7.6795 26.7051 7.96427 26.6413 8.24225C26.5857 8.45244 26.4677 8.56499 26.2752 8.57584L26.2765 8.58533ZM23.5184 8.40769L23.338 8.63415H23.4479C23.7882 8.60974 24.1408 8.58669 24.4839 8.55279C24.6561 8.53516 24.8297 8.52702 25.0019 8.52431L24.5652 8.50397L23.9184 8.47549H23.8886V8.4877L23.6418 8.56635L23.5184 8.40769ZM26.8257 8.43074L27.3451 8.47685C27.657 8.50397 27.9743 8.53109 28.2943 8.56499C28.2707 8.54399 28.2546 8.51593 28.2482 8.48498V8.46193C28.2339 8.39512 28.228 8.3268 28.2306 8.25853C28.2536 8.00766 28.274 7.75273 28.293 7.50729C28.3743 6.48348 28.457 5.42442 28.7432 4.38842C28.9866 3.58341 29.3301 2.81213 29.7656 2.09266C29.8447 1.96486 29.9661 1.86887 30.1087 1.82145C30.3346 1.7458 30.5753 1.72466 30.8109 1.75978C31.0466 1.7949 31.2706 1.88526 31.4647 2.0235C32.2661 2.60795 32.8207 3.25342 33.1435 3.99381C33.2289 4.18637 33.3306 4.3735 33.4391 4.57012L33.5028 4.68674C33.5841 4.44754 33.6038 4.19174 33.5602 3.94291C33.5166 3.69409 33.4111 3.46024 33.2533 3.26291C33.2154 3.21138 33.1787 3.1585 33.1421 3.10426C33.0666 2.98726 32.9823 2.8762 32.8899 2.77203C32.7543 2.63643 32.6295 2.48455 32.5034 2.34217C32.1779 1.94978 31.8186 1.58677 31.4295 1.25734C30.5182 0.550851 29.5337 0.225403 28.5072 0.299985C28.4757 0.358028 28.4394 0.413362 28.3987 0.465421C28.2848 0.62272 28.2482 0.690522 28.3214 0.775951L28.3486 0.81392L28.3377 0.857313C28.0557 2.04113 27.8441 3.24664 27.6394 4.41283C27.4102 5.73631 27.1688 7.1059 26.8257 8.42939V8.43074ZM22.7685 6.3967L22.74 6.46586C22.7077 6.53371 22.671 6.59939 22.6302 6.66248C22.5622 6.74939 22.5157 6.85115 22.4946 6.95945C22.4783 7.33507 22.4946 7.70662 22.5054 8.09987L22.5176 8.46329L22.7224 8.43617L22.6126 7.84901L22.7658 7.91545C22.8217 7.94635 22.8679 7.99207 22.8995 8.04758C22.9311 8.10308 22.9468 8.16622 22.9448 8.23005C22.9583 8.33447 22.9692 8.38735 23.0207 8.40769L22.9936 7.92359L23.3312 8.35887L23.5184 8.12428L23.6974 8.34124L23.5319 6.84961L23.8669 7.62662C24.0459 7.17642 24.1381 6.80486 23.9821 6.39534L24.1476 6.3289L24.1842 6.41975C24.2032 6.35466 24.2249 6.29228 24.2452 6.22991C24.3279 5.9804 24.4066 5.74445 24.3198 5.49358L24.2547 5.31187L24.3822 5.36069L24.313 5.24678L23.7828 5.65359L23.7733 5.68343L23.6119 5.70105C23.5725 5.72072 23.5348 5.74386 23.4994 5.77021C23.4445 5.81443 23.3826 5.84926 23.3163 5.87327C23.0614 5.95599 22.9733 6.08481 23.0031 6.33296C23.0191 6.51331 23.0227 6.69454 23.0139 6.87538C23.0139 6.95267 23.0139 7.02996 23.0139 7.1059L22.8363 7.11404L22.7685 6.3967ZM24.0405 8.28972L24.572 8.31413C25.1375 8.33989 25.6718 8.36294 26.2155 8.39413C26.3633 8.40227 26.4257 8.35074 26.4637 8.18801C26.5288 7.91681 26.5993 7.62662 26.663 7.35405C26.8203 6.70316 26.983 6.03057 27.1064 5.36476C27.2068 4.82235 27.2664 4.2718 27.3234 3.73752L27.3302 3.67786L26.7512 5.87869L26.5762 5.84344C26.6235 5.47038 26.6928 5.10044 26.7837 4.73556C26.9912 3.94906 27.2109 3.15172 27.4224 2.38014C27.5128 2.05921 27.6032 1.73783 27.6936 1.416C27.6995 1.39102 27.7036 1.36564 27.7058 1.34006C27.718 1.25599 27.7302 1.16784 27.8061 1.13666C27.9784 1.06207 27.9797 0.965796 27.9675 0.773239C27.9675 0.735271 27.9675 0.69459 27.9675 0.652553L27.798 0.727134C27.5526 0.832905 27.3207 0.933251 27.101 1.04851C27.0213 1.10224 26.9631 1.18247 26.9369 1.27497C26.8488 1.58415 26.7701 1.90281 26.6956 2.21199C26.6671 2.32861 26.6386 2.44522 26.6088 2.56184L26.5871 2.64863L26.3837 2.59574L26.6006 1.52855L26.5681 1.57872L26.4935 1.53126C26.4719 1.51331 26.4442 1.50455 26.4162 1.50685C26.3701 1.52041 26.324 1.62211 26.3037 1.66551C26.2521 1.77941 26.1993 1.89468 26.1464 2.00858C25.9606 2.41539 25.7694 2.8222 25.6134 3.24121C25.3572 3.92601 25.1334 4.63115 24.9083 5.35527C24.8712 5.47098 24.836 5.5876 24.8025 5.70512L24.8107 5.71868H24.7998C24.728 5.96277 24.6642 6.20685 24.5937 6.44687C24.5327 6.66655 24.4717 6.88758 24.4079 7.1059C24.3171 7.41779 24.2235 7.72696 24.1367 8.02665C24.0947 8.11479 24.0676 8.20564 24.0405 8.29378V8.28972ZM23.8384 8.01851L23.8655 8.25988C23.894 8.16496 23.9225 8.06868 23.9523 7.9724L24.0459 7.65781C24.0147 7.73917 23.9808 7.81782 23.9482 7.89511L23.8737 8.08767L23.8384 8.01851ZM32.3394 7.95342L32.3272 8.00224C32.3122 8.05919 32.296 8.12835 32.2716 8.19479C32.3204 8.10936 32.3678 8.02258 32.4153 7.93715C32.3908 7.9457 32.3652 7.95117 32.3394 7.95342ZM32.2471 7.7134V7.7812C32.2597 7.77894 32.2726 7.77894 32.2851 7.7812C32.3461 7.7812 32.3611 7.769 32.3611 7.769C32.3643 7.74879 32.3643 7.72819 32.3611 7.70798L32.2471 7.7134ZM32.5373 7.63882C32.5373 7.65238 32.5373 7.6673 32.5373 7.68221V7.70255C32.6051 7.57644 32.6729 7.44762 32.7313 7.32015C32.7177 7.34456 32.7028 7.36762 32.6879 7.39202L32.5373 7.63882ZM35.4582 5.86378C35.3796 6.10515 35.2847 6.34517 35.187 6.58519L35.1707 6.62451C35.0704 6.86724 34.9687 7.11404 34.8684 7.36084L34.9077 7.28219C35.1124 6.87538 35.324 6.4428 35.5206 6.01837L35.5776 5.88276L35.4582 5.86378ZM32.0573 3.96533C32.0966 4.09009 32.1373 4.21891 32.1712 4.34774C32.2568 4.68556 32.3148 5.02976 32.3448 5.37696C32.3733 5.71868 32.3828 6.06583 32.3909 6.40212C32.3909 6.53772 32.3977 6.65977 32.4017 6.78859C32.4085 6.95809 32.4126 7.1276 32.4167 7.2971C32.4424 7.1615 32.4695 7.03674 32.4953 6.91741C32.5116 6.84148 32.5265 6.76825 32.5401 6.69909L32.7163 6.71808V6.98928C32.7863 6.86436 32.8308 6.72684 32.8473 6.58464C32.8638 6.44244 32.852 6.29837 32.8126 6.16075C32.7956 6.08896 32.7956 6.01421 32.8126 5.94243C32.8126 5.91666 32.8207 5.8909 32.8235 5.86513L32.8641 5.34442L33.0594 6.07803C33.1451 5.83131 33.1315 5.56094 33.0214 5.32408C33.0012 5.27134 32.9915 5.21512 32.993 5.15864C32.993 5.13966 32.993 5.11932 32.993 5.10033L32.9591 4.80065L33.0947 4.96473C32.9315 4.45983 32.6903 3.98353 32.38 3.5531L32.4492 3.6982L32.3502 3.89075L32.2146 4.20942L32.0573 3.96533ZM24.2276 6.99606C24.2276 7.02861 24.2194 7.06115 24.214 7.0937L24.2262 7.05437L24.2357 7.01776L24.2276 6.99606ZM24.5259 5.61427C24.5408 5.84603 24.5018 6.07809 24.412 6.29228C24.3571 6.43512 24.3193 6.58397 24.2995 6.7357L24.2913 6.8252C24.332 6.6896 24.3713 6.54044 24.4107 6.39805C24.4785 6.15261 24.5463 5.90175 24.6222 5.65224L24.5259 5.61427ZM33.0269 6.5323C33.021 6.60887 33.0079 6.6847 32.9875 6.75876C33.1231 6.44823 33.2411 6.13363 33.3591 5.82717C33.4947 5.46782 33.6411 5.09762 33.7984 4.74234L33.9341 4.43045C33.9341 4.39655 33.9341 4.36401 33.9408 4.33011C33.9476 4.29621 33.9408 4.23654 33.9408 4.1945C33.9387 4.08076 33.9487 3.96712 33.9707 3.8555C33.9977 3.77526 34.0443 3.70303 34.1063 3.64531C34.1261 3.62379 34.1446 3.60115 34.1619 3.57751L34.1903 3.53819C34.0873 3.51784 33.9829 3.49615 33.8798 3.47174C33.7502 3.44547 33.6337 3.37501 33.5503 3.2724C33.0245 2.45559 32.3664 1.73198 31.603 1.13123C31.2929 0.885683 30.9508 0.68358 30.586 0.53051C30.9207 0.694138 31.2363 0.894236 31.5271 1.12716C31.9246 1.46114 32.2913 1.8301 32.6228 2.22962C32.7489 2.36522 32.8777 2.51709 33.0079 2.65677C33.1061 2.76808 33.1967 2.88587 33.2791 3.00933C33.3143 3.06086 33.3496 3.11375 33.3862 3.16392C33.5833 3.41169 33.7068 3.70989 33.7425 4.02448C33.7783 4.33908 33.7248 4.65737 33.5883 4.94303L33.515 5.11525L33.4283 4.94981C33.3754 4.84947 33.3238 4.75454 33.2723 4.66098C33.1625 4.46029 33.0581 4.27044 32.9699 4.07111C32.654 3.35919 32.1237 2.73948 31.3495 2.17266C31.1647 2.03897 30.9474 1.95747 30.7203 1.93671L31.043 2.10757C31.5474 2.372 31.7712 2.80593 31.9922 3.22494C32.0465 3.32664 32.1007 3.43377 32.159 3.53276L32.0519 3.60463L32.1875 3.82024V3.81075L32.2471 3.69548L31.8403 2.81542L32.1115 2.99849C32.5726 3.31444 33.3889 4.76132 33.3062 5.26577L33.2737 5.45968L33.2642 5.44748C33.3069 5.60485 33.3169 5.76931 33.2936 5.93071C33.2702 6.0921 33.2141 6.247 33.1286 6.38585L33.0269 6.5323ZM22.721 6.07532C22.5464 6.23166 22.4358 6.44709 22.4105 6.68011L22.4742 6.57298C22.511 6.51686 22.544 6.45843 22.5732 6.39805C22.5868 6.36686 22.5976 6.33703 22.6098 6.30584C22.6393 6.22482 22.6779 6.14747 22.7251 6.07532H22.721ZM35.9423 4.80336L36.044 4.92134C36.1132 5.0027 36.1796 5.08406 36.2569 5.16542C36.4224 5.3512 36.5919 5.54375 36.7451 5.74716C36.871 5.91029 36.9332 6.11373 36.92 6.3194C36.9716 5.91259 36.7966 5.61969 36.3776 5.17491C36.2081 4.98717 36.053 4.78681 35.9139 4.57555C35.8122 4.4291 35.7077 4.27993 35.5952 4.14297C35.4784 3.97291 35.3196 3.83602 35.1341 3.74566C34.8766 3.66687 34.6144 3.60437 34.349 3.55853L34.2907 3.54768L34.41 3.61548C34.4634 3.60146 34.5194 3.60146 34.5727 3.61548C34.6066 3.62226 34.646 3.62904 34.6894 3.63446L34.787 3.64531L34.7775 3.6887L34.8833 3.72532C35.0187 3.765 35.1499 3.81767 35.2752 3.88262C35.3952 3.94534 35.4956 4.03988 35.5654 4.15589C35.6353 4.2719 35.6718 4.40489 35.6711 4.54029C35.6711 4.63386 35.6711 4.72471 35.6711 4.8115L35.8406 4.8454L35.686 5.59664C35.7186 5.50307 35.7484 5.4068 35.7796 5.30781C35.8108 5.20881 35.8555 5.06914 35.8976 4.94574L35.9423 4.80336ZM22.9068 5.92209V5.93294C22.9133 5.92332 22.9205 5.91424 22.9285 5.90581L22.9068 5.92209ZM26.1789 1.49194C26.1469 1.52525 26.117 1.56058 26.0894 1.59771C25.9975 1.74149 25.9233 1.89584 25.8684 2.0574C25.8237 2.17868 25.7721 2.2973 25.7138 2.41268C25.5939 2.65561 25.4924 2.90718 25.41 3.16528C25.2582 3.61005 25.1009 4.06839 24.751 4.42367C24.2982 4.87936 23.8048 5.29285 23.277 5.65902L23.1604 5.74038C23.1921 5.7261 23.2247 5.71387 23.258 5.70377C23.3071 5.68484 23.3528 5.65829 23.3936 5.62512C23.4391 5.59122 23.4877 5.56171 23.5387 5.53697C23.5818 5.51959 23.6278 5.51039 23.6743 5.50985L24.3605 4.99049L24.6656 5.49901C24.6859 5.43392 24.7049 5.3634 24.7252 5.30374C24.9517 4.5769 25.1768 3.86906 25.4331 3.18019C25.5918 2.75576 25.7857 2.33945 25.9755 1.93536L26.1342 1.59228C26.1473 1.55806 26.1622 1.52456 26.1789 1.49194ZM30.3324 2.06554C30.4249 2.06711 30.5155 2.09232 30.5955 2.13876C31.2098 2.47641 31.5149 3.05951 31.7671 3.6304C31.7468 3.55039 31.7278 3.46903 31.7129 3.38495L31.683 3.21409L30.6891 1.92993C30.5059 1.91621 30.3219 1.93738 30.1467 1.99231C30.0473 2.02628 29.9623 2.09267 29.9053 2.1808C29.7453 2.46014 29.5785 2.76254 29.4212 3.08663C29.5276 2.90896 29.6459 2.73862 29.7751 2.57676C29.8105 2.52793 29.8409 2.47569 29.866 2.42082L29.9148 2.32996C29.9544 2.25158 30.0145 2.18544 30.0888 2.13862C30.1631 2.0918 30.2487 2.06607 30.3365 2.06418L30.3324 2.06554ZM26.4176 1.32921C26.4461 1.32928 26.4745 1.33385 26.5016 1.34277L26.6373 1.13123C26.5884 1.1692 26.5369 1.20581 26.4867 1.24243C26.4366 1.27904 26.4013 1.30345 26.3606 1.33464C26.3793 1.33029 26.3984 1.32847 26.4176 1.32921ZM26.8868 0.968508V0.995628C26.9215 0.95287 26.9644 0.917388 27.0129 0.891214C27.2393 0.773239 27.4739 0.671537 27.7221 0.564411C27.8211 0.521018 27.9228 0.477625 28.0272 0.428808L28.1858 0.358294L28.1506 0.529154C28.1814 0.467849 28.2182 0.409714 28.2604 0.355582L28.3052 0.293205C27.8645 0.316257 27.4495 0.504745 27.0088 0.877654C26.9654 0.914267 26.9261 0.941387 26.8868 0.968508ZM28.1438 0.832905C28.1438 0.857313 28.1438 0.881722 28.1438 0.907486L28.156 0.854601C28.1512 0.847825 28.1471 0.840552 28.1438 0.832905Z" fill="#84EDFF"/>
<path d="M27.0806 43.579C27.5931 43.678 28.1044 43.7756 28.6156 43.876C28.7322 43.899 28.8461 43.9356 28.9614 43.9627C29.5038 44.0902 30.0299 44.2516 30.5737 44.3343C31.5541 44.4848 32.5427 44.5797 33.5244 44.7126C34.1211 44.7926 34.711 44.9201 35.3076 44.9838C36.1741 45.0869 37.0447 45.1547 37.9125 45.2442C38.4794 45.3025 39.0421 45.4042 39.6103 45.4354C40.6436 45.4937 41.6715 45.7391 42.7115 45.5371C42.8712 45.4978 43.0283 45.4489 43.1821 45.3906C43.2078 45.4232 43.2499 45.4801 43.3529 45.6158C42.9461 45.6876 42.5841 45.8002 42.2274 45.7988C41.6104 45.7988 40.9934 45.7364 40.3792 45.6754C39.4801 45.5846 38.5838 45.4734 37.6861 45.3662C36.1845 45.1854 34.6829 45.0046 33.1813 44.8238C32.3148 44.7181 31.4402 44.6435 30.5832 44.4821C29.577 44.2909 28.583 44.0251 27.5864 43.781C27.4143 43.7233 27.2473 43.6512 27.0873 43.5654L27.0806 43.579Z" fill="#84EDFF"/>
<path d="M42.2341 45.895H42.226C41.628 45.895 41.0313 45.8367 40.3696 45.7703C39.6359 45.6957 38.8901 45.6076 38.1701 45.5208L37.6765 45.4611C36.3367 45.3025 34.7556 45.114 33.1704 44.9187C32.9399 44.8902 32.708 44.8645 32.4761 44.8387C31.8483 44.7682 31.1987 44.695 30.5668 44.5756C29.7776 44.4265 28.9843 44.2285 28.2168 44.0332L27.5659 43.8718C27.4403 43.8355 27.319 43.786 27.2039 43.724L27.0832 43.6657L26.8662 43.6237L27.0235 43.5071L27.0425 43.4922L27.0818 43.4705L27.1225 43.4881H27.1374L27.5008 43.5572L28.6331 43.7783C28.705 43.7918 28.7769 43.8108 28.8447 43.8298L28.9803 43.8651C29.1457 43.9044 29.3125 43.9478 29.4739 43.9885C29.8373 44.082 30.2129 44.1783 30.5858 44.2353C31.1675 44.3248 31.7615 44.3953 32.3378 44.4644C32.7297 44.5105 33.1365 44.5594 33.5352 44.6136C33.8064 44.6502 34.0776 44.6977 34.3488 44.7424C34.6661 44.7967 34.9943 44.8536 35.3183 44.8916C35.8458 44.954 36.3828 45.0041 36.9035 45.0529C37.2371 45.0841 37.5816 45.1167 37.9219 45.1519C38.1375 45.1736 38.3559 45.2035 38.5674 45.2306C38.9105 45.2767 39.2658 45.3228 39.6156 45.3431C39.9234 45.3594 40.2353 45.3947 40.5364 45.4272C41.2442 45.5045 41.9751 45.5845 42.6952 45.4462C42.7992 45.4236 42.9012 45.3928 43.0003 45.354L43.1548 45.3011L43.2159 45.2821L43.5128 45.6754L43.3677 45.6998C43.2389 45.7228 43.1142 45.7486 42.9935 45.7744C42.7454 45.8417 42.4908 45.8821 42.2341 45.895ZM41.9087 45.7106C42.0144 45.7106 42.1188 45.7106 42.2246 45.7106C42.4681 45.701 42.7098 45.6661 42.946 45.6062L43.186 45.556L43.1399 45.4964L43.0504 45.5276C42.9428 45.5689 42.8322 45.602 42.7196 45.6265C42.4523 45.6783 42.1809 45.7065 41.9087 45.7106Z" fill="#84EDFF"/>
<path d="M32.9807 43.1846L37.9329 44.1962L37.9193 44.2626L32.959 43.2483L32.9807 43.1846Z" fill="#84EDFF"/>
<path d="M37.9885 44.3682L32.8438 43.3159L32.921 43.0813L38.0373 44.1268L37.9885 44.3682Z" fill="#84EDFF"/>
<path d="M33.1139 43.3101C33.1168 43.2961 31.757 43.0065 30.0767 42.6631C28.3964 42.3197 27.0319 42.0526 27.0291 42.0666C27.0262 42.0805 28.3861 42.3702 30.0664 42.7136C31.7466 43.0569 33.1111 43.324 33.1139 43.3101Z" fill="#84EDFF"/>
<path d="M32.2878 43.2509L27.8115 42.3369L27.8536 42.1267L32.3312 43.0407L32.2878 43.2509Z" fill="#84EDFF"/>
<path d="M40.3617 44.5676L38.4497 44.4143V44.3506L40.3617 44.5147V44.5676Z" fill="#84EDFF"/>
<path d="M40.4431 44.6639L38.3521 44.4958L38.3751 44.2544L40.4634 44.4334L40.4431 44.6639Z" fill="#84EDFF"/>
<path d="M18.8782 41.6562L18.6653 42.7017L18.6016 42.6895L18.8158 41.644L18.8782 41.6562Z" fill="#84EDFF"/>
<path d="M18.7463 41.537L18.4971 42.7566L18.7349 42.8052L18.9841 41.5856L18.7463 41.537Z" fill="#84EDFF"/>
<path d="M3.76922 32.0244C3.41394 32.4348 3.05956 32.8466 2.70609 33.2597L2.62744 33.1865C3.00351 32.7932 3.37959 32.3995 3.75566 32.0054L3.76922 32.0244Z" fill="#84EDFF"/>
<path d="M2.71425 33.3872L2.5 33.1906L3.76518 31.8657L3.8818 32.0284L2.71425 33.3872Z" fill="#84EDFF"/>
<path d="M6.61149 32.899L7.42511 31.707L7.50918 31.7694L6.60742 32.8936L6.61149 32.899Z" fill="#84EDFF"/>
<path d="M6.61532 33.0522L6.49463 32.8922L6.59091 32.7702L7.40317 31.5796L7.63641 31.7532L6.73465 32.8773L6.61532 33.0522Z" fill="#84EDFF"/>
<path d="M6.01219 33.9783C5.84676 34.3336 5.68042 34.6889 5.51317 35.0442L5.46436 35.0252C5.61487 34.6713 5.76539 34.3173 5.91998 33.9661C5.91998 33.958 5.981 33.9743 6.01355 33.9783H6.01219Z" fill="#84EDFF"/>
<path d="M5.55773 35.1568L5.34619 35.0754L5.42891 34.8828C5.56451 34.5696 5.70012 34.2469 5.83572 33.9336C5.84655 33.9119 5.86481 33.8947 5.8872 33.8853C5.90959 33.8758 5.93462 33.8747 5.95776 33.8821L5.98895 33.8184L6.08658 33.9363L6.18829 34.1004L6.06218 34.0814L5.55773 35.1568Z" fill="#84EDFF"/>
<path d="M7.31517 34.8083L6.9504 35.8768L6.87988 35.8511L7.26093 34.7893L7.31517 34.8083Z" fill="#84EDFF"/>
<path d="M7.00613 35.9907L6.76611 35.9053L7.20682 34.6768L7.42921 34.7527L7.00613 35.9907Z" fill="#84EDFF"/>
<path d="M6.60754 32.8936C6.44482 33.1783 6.27938 33.4617 6.11937 33.7479C6.07733 33.8211 6.0475 33.9011 6.01224 33.9784C6.01129 33.8755 6.02969 33.7734 6.06648 33.6773C6.23463 33.4061 6.42719 33.158 6.6089 32.899L6.60754 32.8936Z" fill="#84EDFF"/>
<path d="M6.05688 34.2672L5.92941 34.0164L5.91992 33.9675L5.92806 33.9499C5.92806 33.9255 5.92806 33.8997 5.92806 33.874C5.92719 33.7891 5.94722 33.7052 5.98637 33.6299C6.10977 33.4346 6.24673 33.2448 6.37962 33.0617L6.49081 32.9085L6.59387 32.7295L6.67252 32.8393L6.68201 32.8515L6.7132 32.9031L6.6793 32.9505C6.66574 32.9682 6.65353 32.9871 6.64133 33.0048L6.54641 33.1675C6.42843 33.375 6.3091 33.5824 6.19113 33.7913C6.16536 33.8387 6.14367 33.8889 6.12061 33.9418C6.11248 33.9621 6.10299 33.9811 6.09485 34.0001L6.05688 34.2672Z" fill="#84EDFF"/>
<path d="M6.84182 37.5245L5.0166 36.9536L5.03423 36.8926L6.88657 37.4567L6.84182 37.5245Z" fill="#84EDFF"/>
<path d="M6.87868 37.6289L4.9043 37.0119L4.97617 36.7827L7.02648 37.4065L6.87868 37.6289Z" fill="#84EDFF"/>
<path d="M8.74158 38.0193C8.59393 38.012 8.44705 37.9934 8.30223 37.9637C7.87508 37.8403 7.45335 37.702 7.03027 37.5691L7.05604 37.4836L8.7348 38.0261L8.74158 38.0193Z" fill="#84EDFF"/>
<path d="M8.76092 38.1291L8.70804 38.1128L8.67414 38.102L8.59549 38.0952C8.48844 38.0905 8.38214 38.0751 8.27818 38.0491C7.969 37.9596 7.65983 37.862 7.35879 37.7671L7.00351 37.6545L6.91943 37.6274L6.99808 37.3711L7.08487 37.3996L8.71211 37.9257H8.75279L8.88839 37.942L8.81652 38.06C8.81151 38.0687 8.80561 38.0769 8.79889 38.0844L8.76092 38.1291Z" fill="#84EDFF"/>
<path d="M15.2939 23.4109C15.6438 21.9328 16.0248 20.3246 16.4045 18.7163C16.0764 20.3408 15.7943 21.9681 15.2939 23.4109Z" fill="#84EDFF"/>
<path d="M15.3779 23.4392L15.207 23.3904L16.3176 18.6958L16.4925 18.7338C16.4401 18.9923 16.3881 19.2522 16.3366 19.5135C16.0722 20.8451 15.7996 22.2228 15.3779 23.4392Z" fill="#84EDFF"/>
<path d="M14.7882 16.7879C14.9116 16.6523 15.0256 16.5167 15.1612 16.3892C15.259 16.318 15.3634 16.2562 15.473 16.2048L15.7442 14.8962L15.8066 14.9112C15.7198 15.2176 15.6263 15.5214 15.5503 15.8292C15.5417 15.9226 15.5472 16.0168 15.5666 16.1085C15.6587 16.1009 15.7496 16.0831 15.8378 16.0556C16.5891 15.7397 17.3294 15.3858 18.1431 15.242C19.5059 15.0074 20.8673 14.7837 22.2613 15.0468C22.8159 15.1525 23.3896 15.1552 23.955 15.2095C24.0517 15.2218 24.1443 15.2556 24.2262 15.3085C23.5685 15.2502 22.9095 15.2176 22.2559 15.1281C21.1676 14.9699 20.0602 14.9974 18.9811 15.2095C18.2653 15.3449 17.5574 15.5187 16.8603 15.7302C16.306 15.9276 15.766 16.1628 15.2439 16.434C15.0784 16.5346 14.9243 16.6528 14.7842 16.7865L14.7882 16.7879Z" fill="#84EDFF"/>
<path d="M14.8166 16.8855L14.7474 16.8679L14.6118 16.8082L14.7271 16.7174L14.8234 16.6089C14.9077 16.5084 14.9983 16.4133 15.0946 16.3241C15.1635 16.2695 15.2391 16.2239 15.3197 16.1885L15.3875 16.1533L15.4458 15.8712C15.4471 15.8525 15.4498 15.8339 15.4539 15.8156C15.4539 15.7953 15.4634 15.775 15.4688 15.756L15.6655 14.7959L15.9082 14.8529L15.8824 14.9424C15.858 15.0264 15.8336 15.1105 15.8105 15.1946C15.7522 15.3912 15.6939 15.5932 15.6424 15.7953L15.6221 15.8943C15.6227 15.9343 15.6263 15.9742 15.6329 16.0136C15.6876 16.0101 15.7415 15.9987 15.7929 15.9797C15.9082 15.9323 16.0221 15.8834 16.136 15.8333C16.7652 15.5621 17.4161 15.2908 18.1131 15.1647C19.3823 14.9464 20.8251 14.6983 22.2625 14.9708C22.6301 15.0319 23.0009 15.0712 23.3731 15.0888C23.5616 15.101 23.7569 15.1132 23.9481 15.1322C24.0582 15.1454 24.164 15.1834 24.2573 15.2434L24.58 15.4414L24.203 15.4075L23.5928 15.3587C23.1453 15.3248 22.6829 15.2895 22.2286 15.223C21.1503 15.065 20.0529 15.0921 18.9837 15.3031C18.2745 15.4371 17.5729 15.6087 16.8818 15.817C16.4198 15.9778 15.9694 16.1704 15.5339 16.3933L15.2763 16.5167C15.1668 16.5764 15.066 16.6508 14.9766 16.7377C14.9359 16.7743 14.8925 16.8123 14.841 16.8489L14.8166 16.8855Z" fill="#84EDFF"/>
<path d="M27.6798 16.0015L24.6206 15.3763L24.6287 15.3384L27.6947 15.9649L27.6798 16.0015Z" fill="#84EDFF"/>
<path d="M27.7358 16.1004L24.5166 15.4428L24.5586 15.2285L27.8172 15.8943L27.7358 16.1004Z" fill="#84EDFF"/>
<path d="M15.8353 16.605C15.358 16.8396 15.3566 17.306 15.2834 17.7373C15.2646 17.8849 15.2157 18.027 15.1396 18.1549C15.2088 17.82 15.2753 17.485 15.3431 17.1487C15.3528 17.0586 15.3528 16.9677 15.3431 16.8775L15.8353 16.605Z" fill="#84EDFF"/>
<path d="M14.9575 18.5996L15.0524 18.1358L15.1094 17.8646C15.1596 17.626 15.2097 17.3792 15.2545 17.1351C15.2619 17.0802 15.2619 17.0245 15.2545 16.9697C15.2545 16.9385 15.2545 16.9073 15.2545 16.8774V16.8218L15.7413 16.5615C15.7616 16.5493 15.7833 16.5384 15.805 16.5276L15.8728 16.6795L15.8159 16.7093C15.4932 16.8978 15.4443 17.2259 15.3942 17.5717C15.3847 17.6314 15.3765 17.6897 15.3657 17.748C15.3461 17.9072 15.2934 18.0606 15.2111 18.1982L14.9575 18.5996Z" fill="#84EDFF"/>
<path d="M19.7485 10.0078L20.7791 9.28638L20.8252 9.35011L19.7919 10.0688L19.7485 10.0078Z" fill="#84EDFF"/>
<path d="M19.7717 10.1922L19.6226 9.98744L20.8009 9.16162L20.9501 9.37181L19.7717 10.1922Z" fill="#84EDFF"/>
<path d="M15.9393 26.9933C16.2946 27.0069 16.6526 26.9933 17.0025 27.0381C18.368 27.2171 19.7294 27.4137 21.0923 27.6049C21.2358 27.6215 21.3743 27.6677 21.4991 27.7405C21.1709 27.7025 20.8427 27.6713 20.5159 27.6239C19.4447 27.4693 18.3748 27.3052 17.3022 27.152C16.8492 27.0882 16.3936 27.0435 15.938 26.9893L15.9393 26.9933Z" fill="#84EDFF"/>
<path d="M21.8885 27.8749L21.4817 27.8275L21.1739 27.7936C20.9515 27.7691 20.7224 27.7434 20.4959 27.7108C20.0122 27.6421 19.529 27.5712 19.0463 27.4979C18.4686 27.4125 17.8706 27.323 17.2835 27.2403C16.9729 27.1955 16.6556 27.1603 16.3478 27.125L15.9844 27.0843H15.9315H15.8773L15.7837 26.885L15.9423 26.904H15.9966H16.2678C16.5142 26.9025 16.7605 26.9152 17.0055 26.942C18.1066 27.0857 19.2253 27.2444 20.3061 27.3976L21.0953 27.5088C21.2503 27.5264 21.4 27.5763 21.5346 27.6552L21.8885 27.8749Z" fill="#84EDFF"/>
<path d="M15.937 26.9852C15.6156 26.9852 15.2942 26.9784 14.9728 26.9703C14.8078 26.9684 14.6434 26.9503 14.4819 26.9161C14.9675 26.8342 15.465 26.8597 15.9397 26.9906L15.937 26.9852Z" fill="#84EDFF"/>
<path d="M16.1036 27.1317L15.9151 27.0788H15.6575C15.4351 27.0788 15.2045 27.0788 14.9794 27.0666C14.808 27.0655 14.6372 27.0469 14.4696 27.011L14.0112 26.908L14.4763 26.8361C14.9643 26.7552 15.4638 26.7783 15.9422 26.9039H16.0019L16.1036 27.1317Z" fill="#84EDFF"/>
<path d="M14.3908 26.8496L13.8579 27.1669L13.9135 26.9974L13.1799 27.1073L13.1704 27.0313L14.3908 26.8496Z" fill="#84EDFF"/>
<path d="M13.6978 27.3636L13.7832 27.1046L13.1038 27.2063L13.0713 26.9527L14.8233 26.6924L13.6978 27.3636Z" fill="#84EDFF"/>
<path d="M11.4458 28.2722L10.7204 28.797L10.6064 28.6275L11.4458 28.2722Z" fill="#84EDFF"/>
<path d="M10.6929 28.9231L10.4678 28.5868L12.1398 27.8831L10.6929 28.9231Z" fill="#84EDFF"/>
<path d="M20.7903 17.291L24.8339 17.7399L24.8244 17.8266L20.7808 17.3778L20.7903 17.291Z" fill="#84EDFF"/>
<path d="M24.9031 17.9258L20.6831 17.4579L20.7116 17.1921L24.9329 17.6613L24.9031 17.9258Z" fill="#84EDFF"/>
<path d="M17.4463 17.7724L19.6702 17.3452L19.681 17.4076C19.0695 17.5432 18.4606 17.6788 17.8436 17.7981C17.7103 17.8052 17.5767 17.7943 17.4463 17.7656V17.7724Z" fill="#84EDFF"/>
<path d="M17.7578 17.8999C17.6886 17.8976 17.6197 17.8899 17.5517 17.8768L17.4717 17.8632L17.4012 17.8768L17.37 17.8226C17.363 17.8124 17.3582 17.801 17.3558 17.7889C17.3534 17.7768 17.3534 17.7644 17.356 17.7523C17.3585 17.7403 17.3634 17.7289 17.3705 17.7188C17.3776 17.7087 17.3867 17.7002 17.3971 17.6937L17.4215 17.6788H17.4514H17.4649L19.7376 17.2422L19.7797 17.4781L19.6956 17.4958L19.2169 17.6002C18.7722 17.6978 18.3111 17.7982 17.8609 17.8863C17.8271 17.8946 17.7926 17.8991 17.7578 17.8999Z" fill="#84EDFF"/>
<path d="M25.501 8.07273L26.3309 4.95386L26.4082 4.9742L25.5295 8.08222L25.501 8.07273Z" fill="#84EDFF"/>
<path d="M25.5905 8.19336L25.3857 8.1337L26.2604 4.84668L26.5126 4.91177L25.5905 8.19336Z" fill="#84EDFF"/>
<path d="M25.8642 3.46087L25.1482 5.83121L25.0967 5.8163L25.8086 3.41748L25.8642 3.46087Z" fill="#84EDFF"/>
<path d="M25.2078 5.94504L24.9868 5.8813L25.7584 3.27637L25.9672 3.42553L25.2078 5.94504Z" fill="#84EDFF"/>
<path d="M26.3648 2.88452L25.8142 5.5776H25.7871L26.3377 2.88859L26.3648 2.88452Z" fill="#84EDFF"/>
<path d="M25.8833 5.68199L25.6826 5.64131L26.2657 2.78687L26.4718 2.80449L25.8833 5.68199Z" fill="#84EDFF"/>
<path d="M26.6211 3.7795L27.0971 1.44849L27.1364 1.45662L26.6577 3.79713L26.6211 3.7795Z" fill="#84EDFF"/>
<path d="M26.7224 3.92341L26.519 3.83255L27.0276 1.34424L27.2391 1.38628L27.2228 1.47442L26.7224 3.92341Z" fill="#84EDFF"/>
<path d="M26.0259 8.00088L26.491 6.23804L26.5466 6.2516L26.0991 8.01444L26.0259 8.00088Z" fill="#84EDFF"/>
<path d="M26.1624 8.12973L25.917 8.06871L26.4255 6.13501L26.6547 6.19061L26.1624 8.12973Z" fill="#84EDFF"/>
<path d="M26.3997 1.55148L25.9929 2.81259L25.9414 2.79767C26.0689 2.37459 26.1968 1.95196 26.3252 1.52979L26.3997 1.55148Z" fill="#84EDFF"/>
<path d="M26.0555 2.92265L25.8345 2.85756L26.2698 1.42017L26.5125 1.49204L26.0555 2.92265Z" fill="#84EDFF"/>
<path d="M34.166 7.27414C34.5889 6.31085 34.8632 5.28898 34.9796 4.24341C35.0122 5.33637 34.5864 6.30457 34.166 7.27414Z" fill="#84EDFF"/>
<path d="M34.2471 7.30936L34.083 7.23885C34.5027 6.28415 34.7735 5.27071 34.8858 4.23389L35.0634 4.24067C35.1014 5.35126 34.6688 6.34523 34.2498 7.3053L34.2471 7.30936Z" fill="#84EDFF"/>
<path d="M34.6338 7.08274C34.7179 6.8373 34.8101 6.59593 34.8806 6.34778C35.0352 5.81486 35.1776 5.27922 35.2997 4.83716C35.2644 5.56941 35.0067 6.33828 34.6284 7.07461L34.6338 7.08274Z" fill="#84EDFF"/>
<path d="M34.6625 7.27545L34.5269 7.08289L34.5526 7.03407C34.5595 7.01831 34.5672 7.00292 34.5757 6.98797L34.6326 6.82389C34.6909 6.66116 34.7506 6.49166 34.7981 6.32351C34.9093 5.93976 35.0164 5.54786 35.1113 5.20207C35.1479 5.06647 35.1832 4.93087 35.2171 4.81425L35.4313 4.03589L35.392 4.84137C35.3313 5.61775 35.1091 6.37289 34.7398 7.05848C34.7398 7.07611 34.7275 7.09374 34.7221 7.11137L34.6625 7.27545Z" fill="#84EDFF"/>
<path d="M33.2748 8.38062L32.4422 9.80173L32.3676 9.77055C32.3653 9.72455 32.3718 9.67853 32.3866 9.63494C32.6506 9.22542 32.9186 8.81861 33.1908 8.41452C33.203 8.39689 33.2491 8.40231 33.2789 8.39689L33.2748 8.38062Z" fill="#84EDFF"/>
<path d="M32.4802 9.91286L32.27 9.82607L32.2809 9.7637C32.2809 9.75149 32.2809 9.73793 32.2809 9.72437C32.278 9.67712 32.2889 9.63004 32.3121 9.58877C32.5534 9.21315 32.8165 8.81312 33.1175 8.36834C33.1293 8.35297 33.1442 8.3403 33.1613 8.33118C33.1784 8.32206 33.1972 8.3167 33.2165 8.31546L33.2843 8.2002L33.4077 8.4714L33.3264 8.48632L32.4802 9.91286Z" fill="#84EDFF"/>
<path d="M33.279 8.38737C33.28 8.3106 33.2918 8.23436 33.3142 8.16092C33.5353 7.67953 33.7644 7.20085 33.9922 6.72217L34.0722 6.76014C33.801 7.30255 33.5407 7.83818 33.2749 8.37924L33.279 8.38737Z" fill="#84EDFF"/>
<path d="M33.3254 8.69926L33.1763 8.38059L33.1939 8.34127C33.1946 8.32998 33.1946 8.31866 33.1939 8.30737C33.1945 8.24415 33.2069 8.1816 33.2305 8.12295C33.3987 7.75818 33.5736 7.38798 33.7444 7.03812L33.9465 6.60962L34.1906 6.72488L34.1499 6.80624C33.8904 7.33148 33.6292 7.85988 33.3661 8.39144V8.39958L33.3254 8.69926Z" fill="#84EDFF"/>
<path d="M32.8043 8.57731C32.9602 8.21254 33.1134 7.84776 33.2734 7.48435C33.3447 7.31636 33.4295 7.15446 33.527 7.00024C33.3658 7.55733 33.1202 8.08644 32.7988 8.56917L32.8043 8.57731Z" fill="#84EDFF"/>
<path d="M32.8236 8.74933L32.7314 8.63272L32.7219 8.62051L32.688 8.57034L32.7219 8.52017C32.7219 8.51067 32.7341 8.50118 32.7409 8.49305L32.8561 8.22184C32.966 7.96284 33.0758 7.70384 33.1884 7.44755C33.262 7.27484 33.3495 7.1084 33.4501 6.94988L33.7959 6.40747L33.6101 7.02175C33.4513 7.57181 33.2113 8.09512 32.8982 8.57441L32.8236 8.74933Z" fill="#84EDFF"/>
<path d="M33.5654 6.78036L34.0807 5.3728L34.1241 5.38772C33.9632 5.86414 33.8009 6.33739 33.6373 6.80748L33.5654 6.78036Z" fill="#84EDFF"/>
<path d="M33.6913 6.9282L33.4526 6.82378L34.0262 5.25757L34.2378 5.32673L33.6913 6.9282Z" fill="#84EDFF"/>
<path d="M33.0459 9.35696C33.2592 8.95919 33.4726 8.56278 33.6859 8.16772L33.7443 8.19756L33.1137 9.39222L33.0459 9.35696Z" fill="#84EDFF"/>
<path d="M33.1516 9.51139L32.9238 9.39341L33.6493 8.04688L33.8649 8.16078L33.1516 9.51139Z" fill="#84EDFF"/>
<path d="M23.9199 7.28634L23.6147 6.05778L23.6717 6.0415C23.7856 6.44831 23.8982 6.85512 24.0121 7.26193L23.9199 7.28634Z" fill="#84EDFF"/>
<path d="M23.8548 7.39602L23.5063 5.99388L23.7342 5.93286L24.122 7.32415L23.8548 7.39602Z" fill="#84EDFF"/>
<path d="M22.9997 7.06928L22.8247 7.09961L23.0226 8.24199L23.1977 8.21167L22.9997 7.06928Z" fill="#84EDFF"/>
</svg>
