<svg width="45" height="52" viewBox="0 0 45 52" fill="none" xmlns="http://www.w3.org/2000/svg">
<path d="M43.5567 44.5659L44.0991 44.9211C44.1144 44.2577 43.9638 43.601 43.6611 43.0105C43.0401 41.8267 42.4177 40.6442 41.8197 39.4482C41.5023 38.8176 41.2854 38.1315 40.9315 37.524C40.5731 36.869 40.1319 36.2629 39.6188 35.7205C39.2486 35.3503 38.6913 35.1496 38.1909 34.9326C37.1481 34.4824 36.0972 34.0512 35.0341 33.6512C34.2544 33.3569 33.4543 33.1155 32.657 32.8687C31.644 32.5541 30.6229 32.2463 29.6073 31.9575C28.8872 31.7541 28.1617 31.5656 27.4308 31.4056C26.2226 31.1412 25.0103 30.9011 23.7967 30.6598C23.0034 30.5025 22.2115 30.3316 21.41 30.2258C20.6086 30.1201 19.7896 30.0902 18.98 30.0251C18.0701 29.9478 17.163 29.8367 16.2517 29.7824C15.0123 29.7092 13.7702 29.6658 12.528 29.6292C11.9083 29.6102 11.2873 29.6292 10.6676 29.6455C10.5838 29.6604 10.5031 29.6893 10.4289 29.7309C10.117 29.518 9.7509 29.7607 9.44172 29.5953C19.7096 29.2088 29.5923 30.912 39.0303 35.0981C38.9137 34.5746 38.7984 34.4444 38.3523 34.2248C37.7095 33.9129 37.0925 33.5373 36.4308 33.2755C35.5765 32.9338 34.6883 32.6748 33.8137 32.3833C33.029 32.1292 32.2434 31.873 31.4569 31.6144C31.2413 31.5453 31.0202 31.491 30.7992 31.4354C30.1592 31.274 29.5191 31.1113 28.8777 30.9554C27.5746 30.6394 26.2755 30.3031 24.9642 30.0211C23.9228 29.796 22.8705 29.5993 21.8141 29.4624C20.7158 29.3187 19.6079 29.2603 18.5027 29.1654C17.7515 29.1017 17.0002 29.0163 16.2476 28.9851C14.2136 28.901 12.1877 28.8495 10.1672 29.1356C9.63835 29.2115 9.11085 29.2915 8.58335 29.3824C8.46631 29.4166 8.35418 29.4658 8.24977 29.5288L8.27553 29.617L9.29798 29.5899V29.659C9.03147 29.6442 8.76417 29.6532 8.49928 29.6861C8.07755 29.7729 7.64634 29.7038 7.24631 30.0414C6.67813 30.5201 5.99062 30.855 5.36956 31.2768C5.04005 31.4991 4.74308 31.7731 4.43119 32.0239L4.41763 32.0049C4.84478 31.651 5.25701 31.2754 5.70586 30.9513C6.12758 30.6462 6.58863 30.3981 7.0307 30.1201C7.0967 30.0717 7.15882 30.0182 7.21648 29.9601L7.17444 29.8923C6.64694 30.1567 6.09639 30.3872 5.59602 30.695C4.51635 31.3651 3.59515 32.2618 2.89616 33.323C2.54495 33.8464 2.03644 34.2614 1.61336 34.7387C1.40694 34.9715 1.22007 35.221 1.05467 35.4845C0.883813 35.7557 0.942122 35.9035 1.23774 36.0866C1.41809 36.2398 1.57539 36.4378 1.78015 36.5382C2.69547 36.9802 3.61486 37.4169 4.55188 37.8128C5.48214 38.2224 6.43259 38.5844 7.39954 38.8977C8.3569 39.1919 9.35222 39.3682 10.334 39.5865C11.6358 39.8749 12.9394 40.1583 14.2448 40.4367C15.2021 40.6402 16.1636 40.8246 17.1196 41.0293C17.4328 41.0971 17.7379 41.2029 18.039 41.2897L18.7766 40.2049C18.0986 40.0693 17.4708 39.9432 16.8443 39.8089C15.5787 39.5377 14.3153 39.2633 13.0542 38.9858C12.0236 38.7593 10.9944 38.5342 9.96922 38.2901C9.77091 38.2208 9.58082 38.1299 9.4024 38.0189V38.0257C9.8187 38.1437 10.2309 38.2807 10.6527 38.3756C11.3754 38.5397 12.109 38.6617 12.8304 38.8312C13.4352 38.9668 14.0075 39.2014 14.6421 39.276C15.8029 39.4116 16.9473 39.6828 18.0986 39.8998C18.323 39.9395 18.5493 39.9675 18.7766 39.9838C18.8079 39.9823 18.8384 39.9737 18.8659 39.9586C18.8934 39.9436 18.9171 39.9226 18.9353 39.897C19.2065 39.4319 19.4641 38.9641 19.7313 38.4881C19.5184 38.4447 19.3068 38.4108 19.1007 38.3525C17.8505 38.0366 16.6083 37.6745 15.3486 37.4033C13.9804 37.1118 12.5972 36.8934 11.2168 36.6643C10.0818 36.4758 8.9427 36.2941 7.79957 36.1544C6.81851 36.0186 5.83074 35.9366 4.84071 35.909C3.7369 35.894 2.63309 35.9971 1.52928 36.0446L1.82219 35.909L2.28052 34.8241L2.34697 34.8513C2.21137 35.1889 2.07576 35.5293 1.89677 35.9537C2.46766 35.8588 2.96261 35.7693 3.45891 35.6988C3.5457 35.6866 3.64333 35.7761 3.7369 35.7774C4.65629 35.7937 5.57839 35.7774 6.49507 35.8208C7.1324 35.8547 7.76431 35.9795 8.39351 36.0703C9.72649 36.2615 11.0649 36.4256 12.3911 36.6588C13.5274 36.8595 14.6502 37.1389 15.7812 37.3857C16.1373 37.4643 16.4926 37.5484 16.847 37.6379C17.4572 37.7938 18.0674 37.9688 18.6763 38.1084C19.0587 38.1952 19.456 38.2169 19.8438 38.2901C21.2197 38.5505 22.5948 38.8163 23.9689 39.0875C24.4353 39.1783 24.9032 39.2624 25.3615 39.3818C26.1209 39.5811 26.8735 39.8062 27.6288 40.0204C27.8851 40.0923 28.14 40.1669 28.3977 40.2293C29.4038 40.4761 30.4141 40.7012 31.4148 40.9656C32.2583 41.1893 33.0882 41.4605 33.9249 41.7073C34.2747 41.8104 34.6273 41.9013 34.9771 42.003C35.6443 42.1996 36.3088 42.4098 36.9786 42.5969C37.6485 42.784 38.3469 42.9657 39.0344 43.1393C39.9361 43.3685 40.8474 43.5651 41.7464 43.8173C42.3119 43.9814 42.853 44.2241 43.4062 44.4397C42.5058 44.1943 41.6054 43.9448 40.7036 43.7048C40.2223 43.5773 39.7354 43.462 39.25 43.3495C38.1855 43.1054 37.1156 42.8912 36.0945 42.4803C35.6674 42.3094 35.1968 42.2511 34.752 42.1209C34.1594 41.946 33.5777 41.7358 32.9892 41.5677C32.0901 41.3155 31.1843 41.089 30.2771 40.8463C29.0233 40.51 27.7698 40.1719 26.5169 39.832C26.1643 39.737 25.8131 39.6367 25.4578 39.5607C24.1018 39.2597 22.7417 38.9627 21.3775 38.6698C21.0988 38.6111 20.8158 38.5753 20.5313 38.5627C20.4779 38.5714 20.4271 38.5918 20.3825 38.6225C20.3379 38.6532 20.3008 38.6935 20.2737 38.7404C19.8072 39.5906 19.3597 40.4503 18.8933 41.3005C18.4974 42.0324 18.2927 42.8524 18.298 43.6844C18.2865 43.9996 18.3607 44.3121 18.5129 44.5884C18.665 44.8647 18.8892 45.0945 19.1617 45.2534C19.536 45.4663 19.9279 45.6466 20.3117 45.8419C20.3934 45.8774 20.4704 45.9229 20.5408 45.9775C21.2582 46.6216 22.1396 46.6948 23.0319 46.6392C23.7343 46.5945 24.4448 46.5185 25.089 46.1822C25.6598 45.8853 26.2036 45.5558 26.6403 45.0676C27.0587 44.5987 27.2785 43.9856 27.2532 43.3576C27.2532 43.2464 27.3359 43.1339 27.3373 43.0213C27.3373 42.2782 27.3373 41.5297 27.3373 40.792C27.3496 40.6449 27.3709 40.4986 27.401 40.354C27.481 40.4639 27.5461 40.5113 27.5474 40.5615C27.5583 40.9425 27.5718 41.3249 27.5542 41.7046C27.5461 41.8958 27.5746 42.0125 27.7156 42.0097C27.6776 42.0667 27.5935 42.1453 27.58 42.2226C27.5515 42.445 27.58 42.6783 27.5393 42.9007C27.4783 43.1814 27.4145 43.4349 27.7468 43.5787L27.4837 43.5244C27.4145 43.7536 27.3305 43.9746 27.2789 44.2024C27.0918 45.054 26.4653 45.5408 25.8104 46.006C24.8842 46.6569 23.8197 46.8114 22.7403 46.882C22.4894 47.4637 22.663 48.0129 22.7769 48.5702C22.9125 49.2103 23.1336 49.8557 22.9193 50.5148C22.564 51.6077 22.1586 51.9996 20.9639 51.8993C20.4757 51.8599 20.1123 51.4925 19.7896 51.1196C19.1455 50.3846 19.2268 49.5886 19.5252 48.7384C19.6764 48.2802 19.9503 47.8722 20.3171 47.5586C20.4559 47.4311 20.5677 47.2771 20.6459 47.1057C20.7242 46.9343 20.7673 46.7489 20.7727 46.5606C20.7725 46.5148 20.7623 46.4696 20.7428 46.4282C20.7234 46.3868 20.6952 46.35 20.6602 46.3206C20.4445 46.1494 20.2075 46.0072 19.955 45.8975C19.0058 45.5544 18.3942 44.875 17.9969 43.9719C17.8898 43.7305 17.7691 43.4932 17.6606 43.2519C17.4057 42.685 17.6511 42.1833 17.8681 41.6775L17.9617 41.4619C17.6728 41.3833 17.3962 41.2897 17.1114 41.2354C16.6572 41.1473 16.1975 41.089 15.7418 41.0117C15.0923 40.9019 14.4441 40.7907 13.7973 40.67C13.343 40.5846 12.8942 40.4774 12.4413 40.3839C11.4812 40.1859 10.5116 40.0286 9.56512 39.7845C8.64438 39.5472 7.74261 39.2353 6.8395 38.9356C6.29031 38.7539 5.74654 38.5559 5.21226 38.3281C4.50984 38.0271 3.82504 37.684 3.12804 37.368C2.66564 37.1565 2.17882 36.9911 1.73404 36.7443C1.39551 36.5416 1.08504 36.2955 0.810587 36.012C0.731938 35.9347 0.750922 35.6717 0.821436 35.5483C0.995268 35.2105 1.21424 34.898 1.47233 34.6194C2.13912 33.9394 2.75847 33.2145 3.32602 32.4497C4.19002 31.3424 5.32756 30.4792 6.6266 29.9451C6.87069 29.8407 7.10664 29.7146 7.34665 29.6007C7.40432 29.563 7.4696 29.5384 7.53785 29.5288C8.15485 29.5777 8.48708 29.1003 8.88032 28.7722C9.19085 28.487 9.57771 28.2986 9.99363 28.2298C10.197 28.1999 10.3801 28.1538 10.4845 27.888C10.6024 27.6719 10.7954 27.5065 11.0269 27.4229C11.443 27.2626 11.7824 26.9498 11.9761 26.5483C12.3626 25.797 12.7654 25.0566 13.1559 24.3068C13.4678 23.7074 13.7986 23.1175 14.0712 22.5005C14.3687 21.79 14.5416 21.0336 14.5824 20.2644C14.6333 19.9024 14.708 19.544 14.8062 19.1918C14.8288 19.1284 14.8381 19.061 14.8333 18.9938C14.6977 18.4704 14.8496 17.9849 15.0177 17.5022C15.0953 17.3088 15.1411 17.1041 15.1533 16.8961C15.1492 16.0246 15.3112 15.1603 15.6306 14.3494C15.92 13.6294 16.302 12.9502 16.767 12.3289C17.3696 11.5284 18.0328 10.7754 18.7509 10.0766C19.1021 9.73079 19.597 9.50298 20.0608 9.30229C20.7034 9.03298 21.3603 8.79895 22.0284 8.60122C22.282 8.52257 22.5708 8.54969 22.8881 8.52528C22.8976 8.32188 22.9044 8.1022 22.9166 7.88252C22.941 7.48249 22.9559 7.08111 23.0007 6.68379C23.0617 6.12782 23.4916 5.88509 23.9038 5.59897C24.4269 5.23712 24.9162 4.82864 25.3656 4.37854C25.8999 3.83613 25.9677 3.03878 26.3148 2.38789C26.4504 2.11668 26.525 1.80751 26.6959 1.56342C26.8396 1.36002 27.081 1.22306 27.2844 1.06305C27.3915 0.980328 27.5176 0.927442 27.6207 0.833876C28.0573 0.46368 28.536 0.20739 29.1272 0.226375C29.0404 0.45012 28.7448 0.633184 28.9292 0.852861C28.315 3.42932 28.0505 6.02069 27.3888 8.52664C28.0668 8.59173 28.7448 8.63783 29.4066 8.72462C30.2514 8.83446 31.0202 9.20058 31.8094 9.49213C31.8867 9.52061 32.0522 9.50162 32.0807 9.45552C32.2163 9.1599 32.3925 8.85886 32.4468 8.54155C32.5648 7.84591 32.6149 7.13942 32.7031 6.43835C32.817 5.51625 32.7709 4.61042 32.398 3.74934C32.1403 3.15269 31.8461 2.56824 31.2386 2.2333C31.192 2.20341 31.1395 2.18373 31.0848 2.17556C31.03 2.16739 30.9742 2.17092 30.9209 2.18591C30.8676 2.2009 30.818 2.22701 30.7756 2.26252C30.7331 2.29804 30.6986 2.34215 30.6744 2.39196C30.6242 2.4747 30.5685 2.55398 30.5077 2.62926C29.8947 3.41983 29.614 4.36227 29.4228 5.30607C29.2072 6.36106 29.1516 7.44588 29.016 8.50223C29.016 8.50223 28.9957 8.49002 28.9916 8.46833C28.9755 8.40179 28.9686 8.33334 28.9713 8.26492C29.0879 6.97534 29.1286 5.68847 29.4798 4.41786C29.7246 3.6189 30.07 2.8543 30.5077 2.14245C30.5755 2.03389 30.6791 1.95237 30.8006 1.91192C31.0123 1.84137 31.2376 1.82167 31.4584 1.85442C31.6791 1.88716 31.889 1.97144 32.0712 2.10041C32.7668 2.60892 33.3621 3.22456 33.7214 4.03546C33.8489 4.3243 34.013 4.59686 34.1771 4.90739C34.3068 4.63585 34.3576 4.33328 34.3235 4.03427C34.2895 3.73525 34.172 3.45184 33.9845 3.21642C33.8705 3.0406 33.7454 2.87212 33.6103 2.71198C33.1302 2.19397 32.6882 1.62715 32.1403 1.19051C31.2684 0.500293 30.2568 0.105688 29.1069 0.210102C29.3496 0.165353 29.595 0.0663632 29.831 0.0867036C30.7409 0.155036 31.6099 0.492541 32.3274 1.05627C33.0969 1.6606 33.7608 2.38824 34.2923 3.20964C34.3617 3.29254 34.4574 3.34905 34.5635 3.36965C34.9826 3.46864 35.4151 3.52017 35.8219 3.65578C36.0159 3.71951 36.1854 3.91207 36.3237 4.08021C36.5949 4.41244 36.8064 4.79891 37.102 5.10808C37.8329 5.87424 37.8438 6.25393 37.3054 7.30079C36.8851 8.1144 36.4254 8.92124 36.0647 9.76605C35.8938 10.1729 35.9019 10.6488 35.8585 11.0963C35.8632 11.1555 35.8815 11.2128 35.9118 11.2638C35.9421 11.3148 35.9837 11.3582 36.0335 11.3906C36.8534 11.8844 37.5826 12.515 38.1896 13.2551C38.7998 14.0172 39.3897 14.8227 39.7246 15.7665C39.9443 16.3875 40.2114 16.995 40.3728 17.6297C40.4826 18.0677 40.4541 18.5423 40.4758 19.0006C40.5152 19.7925 40.2453 20.5194 39.9985 21.253C39.8222 21.7805 39.6853 22.3215 39.5293 22.8558C39.4941 22.7202 39.4141 22.571 39.433 22.4422C39.4778 22.1575 39.3205 21.9663 39.1713 21.7805C38.5055 20.9519 37.6634 20.3092 36.8118 19.6976C36.0877 19.1783 35.2958 18.7484 34.5296 18.2955C32.9919 17.3747 31.3674 16.6832 29.591 16.3699C29.2461 16.2915 28.9057 16.1947 28.5712 16.0797C28.6678 16.0553 28.7689 16.0553 28.8655 16.0797C29.4933 16.2153 30.128 16.3292 30.7436 16.5055C31.3896 16.6698 32.0195 16.8917 32.6258 17.1686C33.9167 17.8087 35.1819 18.5016 36.4416 19.2027C37.3773 19.722 38.1679 20.4326 38.9015 21.2055C39.1283 21.4713 39.341 21.7488 39.5388 22.0368C39.5958 21.8781 39.6392 21.7656 39.6744 21.6571C39.8805 20.9519 40.149 20.2563 40.2684 19.5349C40.3796 18.9489 40.3712 18.3466 40.2439 17.7639C39.9077 16.4608 39.4493 15.1983 38.6276 14.0877C38.0445 13.2985 37.4234 12.5527 36.6288 11.9845C35.9774 11.5167 35.291 11.0997 34.5757 10.737C33.8151 10.3684 33.0341 10.0434 32.2366 9.76334C30.9606 9.29686 29.7008 8.79242 28.3041 8.75581C27.2586 8.72869 26.2199 8.52392 25.1663 8.6202C24.1126 8.71648 23.0264 8.73411 21.9877 8.93887C20.7334 9.18838 19.6201 9.83385 18.6166 10.6163C18.1501 10.9797 17.7813 11.4733 17.3962 11.9289C16.4158 13.0761 15.6605 14.3372 15.4978 15.8777C15.4666 16.1746 15.4747 16.4757 15.4639 16.7754C15.4327 16.9286 15.2469 17.0791 15.4544 17.2378C15.2916 17.7178 15.1276 18.1978 14.9553 18.705L15.2265 18.6955L15.0489 18.8311L15.2916 19.0562C15.4422 18.9559 15.5805 18.8108 15.7486 18.7592C16.4117 18.5558 17.0802 18.366 17.7528 18.2006C18.3223 18.045 18.9018 17.9286 19.4872 17.8521C20.5008 17.7393 21.5243 17.7493 22.5356 17.8819C23.2719 17.9836 24.0272 17.9646 24.7594 18.0731C25.9677 18.2534 27.1732 18.4528 28.3258 18.8867C29.3035 19.2583 30.2988 19.5878 31.2684 19.9715C32.9743 20.6577 34.6219 21.4632 36.1406 22.5141C37.197 23.2477 38.195 24.0369 38.9991 25.0363L39.1795 24.7244C38.4499 23.7589 37.6539 22.8599 36.603 22.2388C35.6918 21.6964 34.7629 21.1865 33.8137 20.7201C32.5851 20.118 31.3552 19.4996 30.0764 19.025C28.9686 18.6101 27.7929 18.3741 26.647 18.0609C26.5467 18.0338 26.4423 18.0189 26.3406 17.9972L26.3731 17.8832C27.4851 18.1734 28.6173 18.4053 29.7035 18.7701C30.6986 19.123 31.6717 19.5351 32.6176 20.0041C33.5913 20.4651 34.5161 21.0184 35.4938 21.4808C36.9434 22.171 38.1719 23.1148 39.109 24.4274C39.1374 24.4695 39.1971 24.4898 39.3124 24.5631C39.3666 24.0925 39.4181 23.6776 39.4602 23.2626C39.4602 23.2247 39.4114 23.1799 39.3869 23.1379C38.7938 22.1584 38.038 21.2871 37.1522 20.5614C36.1813 19.7654 35.0531 19.181 33.8977 18.6901C32.878 18.2575 31.842 17.8602 30.7978 17.4954C29.6317 17.0886 28.4655 16.6588 27.2722 16.3794C26.2063 16.1326 25.1025 16.0404 24.0041 15.9468C22.8447 15.8465 21.6785 15.8112 20.5137 15.7733C19.5129 15.7234 18.5117 15.8656 17.5643 16.1923C17.3691 16.2628 17.1928 16.3591 17.167 16.572C17.1141 17.01 17.0897 17.452 17.0531 17.8982L18.1298 17.7504V17.7422C18.0572 17.7889 17.9788 17.8258 17.8966 17.8521C17.1182 17.9877 16.3412 18.1233 15.6388 18.5219C15.6171 18.5341 15.5818 18.5219 15.5534 18.5152L16.9473 17.8995C17.0029 17.4032 17.0572 16.9069 17.1141 16.3997L16.6463 16.5665C16.6789 16.5313 16.7046 16.477 16.7439 16.4635C17.3067 16.2587 17.8613 16.0214 18.439 15.8682C19.357 15.6227 20.3049 15.6661 21.2433 15.7082C22.3972 15.7611 23.5485 15.8438 24.7025 15.9292C25.8795 16.0133 27.0511 16.1299 28.1793 16.5137C29.2361 16.8753 30.2934 17.2328 31.3511 17.5863C32.787 18.0789 34.1825 18.6824 35.525 19.3912C36.8761 20.1014 38.0504 21.1061 38.9611 22.331C39.1279 22.5507 39.273 22.7853 39.4453 23.0375L39.5307 22.8545C39.6184 23.107 39.6208 23.3815 39.5375 23.6355C39.4303 23.9339 39.4493 24.2742 39.4019 24.5929C39.3842 24.7027 39.3002 24.799 39.2663 24.9088C39.1998 25.1692 39.0886 25.4363 39.1022 25.694C39.1239 26.0669 38.9557 26.3462 38.8161 26.6581C38.6473 27.0536 38.5011 27.4584 38.3781 27.8704C38.2208 28.3654 38.0689 28.863 37.9428 29.362C37.6706 30.3867 37.7622 31.4741 38.2018 32.4389C38.3726 32.8186 38.5503 33.1942 38.7184 33.5752C38.7652 33.6829 38.8007 33.7952 38.8242 33.9102C38.9221 34.4841 39.2004 35.0119 39.6188 35.4167C39.9246 35.7213 40.1911 36.063 40.4121 36.4337C40.8121 37.0751 41.2013 37.7274 41.5403 38.4013C41.9092 39.1377 42.198 39.9133 42.5587 40.6537C42.8028 41.1582 43.1445 41.6151 43.3723 42.1236C43.6571 42.7447 44.0788 43.3129 44.1602 44.0221C44.1968 44.3326 44.2307 44.6445 44.2375 44.9564C44.2237 45.1188 44.1928 45.2792 44.1453 45.4351L44.0449 45.4269C44.0551 45.3119 44.0551 45.1962 44.0449 45.0812C44.0277 45.0059 43.9885 44.9375 43.9324 44.8845C43.8103 44.7679 43.6801 44.6703 43.5567 44.5659ZM33.0068 3.69646L32.9282 3.85104L32.8577 4.01377C32.7221 3.79138 32.5973 3.58255 32.4725 3.37372C32.5349 3.72765 32.6678 4.04224 32.7519 4.3704C32.8366 4.70325 32.8937 5.0425 32.9227 5.38471C32.9621 5.85254 32.9648 6.32309 32.9811 6.79227C32.9905 7.06348 32.996 7.33469 33.0028 7.61674H32.9661C32.9458 7.51911 32.9241 7.42283 32.9024 7.32519H32.836L32.8129 8.26357C32.8943 8.12796 32.9241 7.86625 32.9485 7.86625C33.1858 7.86625 33.0977 7.71302 33.118 7.59504C33.1736 7.2818 33.2428 6.97127 33.2957 6.71634C33.2957 6.85872 33.2875 7.06348 33.2807 7.34553C33.5519 6.91974 33.6875 6.55904 33.5601 6.1346C33.5509 6.04661 33.5564 5.95771 33.5764 5.87153C33.6184 6.02476 33.6591 6.17935 33.7011 6.33936C33.7976 6.18299 33.8538 6.00507 33.8644 5.82161C33.8751 5.63815 33.8399 5.45493 33.7621 5.28844C33.7444 5.22396 33.7357 5.15733 33.7364 5.09046L33.872 5.24911C33.9452 4.80976 33.1695 3.38186 32.7153 3.07133C32.8048 3.26388 32.9065 3.47949 33.0068 3.69646ZM23.5838 7.10009L23.4983 6.08307C23.4222 6.19028 23.3623 6.30818 23.3207 6.43293C23.2407 6.61192 23.082 6.78007 23.0739 6.95907C23.0508 7.48792 23.0861 8.01948 23.0983 8.57003L23.4943 8.51443L23.3993 8.0005C23.6285 8.09949 23.3993 8.52392 23.7831 8.51036C23.7831 8.40459 23.7722 8.30832 23.7668 8.21204L23.9987 8.50358L24.1845 8.2717C24.2292 8.3273 24.2848 8.39375 24.3404 8.46019L24.4598 8.42222C24.4259 8.11712 24.392 7.81201 24.3513 7.44317L24.5411 7.86489C24.7554 7.35638 24.9371 6.89126 24.7364 6.37326L24.8856 6.7299C24.9249 6.30004 25.23 5.91628 25.0754 5.47286L25.2639 5.54608L25.0103 5.12436L24.3757 5.60439C24.3324 5.59902 24.2884 5.6051 24.2482 5.62202C24.1555 5.68404 24.0595 5.74107 23.9607 5.79288C23.6895 5.88102 23.5539 6.03697 23.5851 6.3475C23.6001 6.59815 23.5997 6.84949 23.5838 7.10009ZM21.8684 46.9091L21.8006 46.7735C21.7409 46.8277 21.6555 46.8711 21.627 46.9389C21.5497 47.1274 21.5294 47.3457 21.4277 47.5152C21.1795 47.922 20.8771 48.299 20.6371 48.7112C20.5118 48.9198 20.4418 49.1569 20.4337 49.4001C20.4337 49.9113 20.4907 50.39 20.9951 50.7426C21.2066 50.8904 21.3016 50.8782 21.4467 50.7751C21.5673 50.6912 21.6682 50.582 21.7423 50.4551C22.1871 49.6645 21.9782 48.8753 21.6704 48.1132C21.509 47.7146 21.5524 47.2047 21.8806 46.8928C21.8426 47.2223 21.745 47.5573 21.7802 47.8786C21.8196 48.2407 22.0162 48.5838 22.0718 48.9458C22.1599 49.5208 22.1857 50.1012 21.8372 50.6232C21.4521 51.1996 20.6303 51.2294 20.3673 50.6151C20.1836 50.1943 20.1298 49.7283 20.2127 49.2767C20.3851 48.6179 20.7328 48.0181 21.2188 47.541C21.4073 47.3444 21.4968 47.0528 21.646 46.7775L20.968 46.5538C20.9755 46.7579 20.9375 46.9611 20.8569 47.1487C20.7762 47.3363 20.6548 47.5037 20.5015 47.6386C20.1137 47.9999 19.8244 48.4539 19.6608 48.958C19.357 49.8096 19.4628 50.531 20.0866 51.1806C20.6778 51.7962 21.5185 51.9413 22.1423 51.5331C22.7186 51.1562 23.0129 50.1595 22.8339 49.3893C22.6874 48.7533 22.6006 48.1024 22.5139 47.4556C22.4881 47.2698 22.5545 47.0718 22.5884 46.806L21.8684 46.9091ZM33.4719 8.57681L32.7831 9.79724L33.5967 10.1444C34.0672 9.28059 34.5269 8.43172 34.992 7.58555C35.0883 7.41198 35.2049 7.25061 35.3121 7.08382V7.07568L33.7337 10.1946L33.9465 10.2935L34.2774 9.85826L34.3127 9.87724C34.2313 10.025 34.15 10.1742 34.055 10.3451L34.31 10.4617L34.4971 10.1512L34.5364 10.1742C34.4917 10.2759 34.4483 10.379 34.4008 10.4956L34.6422 10.6014C34.6707 10.1579 34.6124 9.70096 34.7398 9.30364C35.0409 8.37205 35.4178 7.46487 35.7894 6.55904C36.0606 5.91085 36.2952 5.26674 36.264 4.54804C36.2641 4.43018 36.2319 4.31454 36.171 4.21366C36.11 4.11278 36.0226 4.03052 35.9182 3.9758C35.7304 3.88796 35.5365 3.81408 35.3378 3.75477C35.3026 4.75009 35.1832 5.71287 34.7954 6.53327L35.3663 3.73849C35.2307 3.72358 35.1453 3.68696 35.1032 3.71544C35.0612 3.74392 35.0436 3.83613 34.9988 3.94325C34.9988 3.82121 34.9988 3.74663 34.9988 3.67205L34.9161 3.62594C34.8578 3.7073 34.7656 3.78053 34.7452 3.87138C34.7218 4.02527 34.7114 4.18086 34.7141 4.3365C34.6505 5.40669 34.3103 6.44206 33.7269 7.34147C34.0537 6.50344 34.5215 5.71423 34.5635 4.77857C34.2069 5.59219 33.9289 6.4492 33.5506 7.25468C33.1723 8.06016 32.6773 8.81412 32.2379 9.59112C32.299 9.59112 32.383 9.57078 32.3993 9.59112C32.5485 9.80944 32.6542 9.7552 32.7804 9.564C33.0014 9.23177 33.2401 8.90633 33.4719 8.57681ZM14.2543 26.5429C14.2922 26.5184 14.3302 26.4723 14.3682 26.4737C14.7018 26.4818 14.8319 26.2717 14.9309 25.995C15.0165 25.7935 15.1144 25.5974 15.2238 25.4079L15.2767 25.4377L14.8225 26.3964C15.4123 26.414 15.948 26.4222 16.4822 26.4466C17.6566 26.4981 18.8309 26.5442 20.0079 26.6215C20.5085 26.6679 21.0063 26.7398 21.4995 26.8371C22.2087 26.9564 22.922 27.0581 23.6217 27.2236C24.3214 27.389 25.0117 27.6521 25.7168 27.8175C26.7284 28.0548 27.763 28.1986 28.7665 28.4616C29.8934 28.7559 30.9972 29.1397 32.1105 29.4854C33.0855 29.7878 34.0672 30.0699 35.0314 30.4021C35.9128 30.7072 36.7766 31.0679 37.6078 31.388C37.6716 30.733 37.7028 30.0957 37.8058 29.4705C37.9009 28.9461 38.0314 28.4287 38.1963 27.9219C38.3409 27.4123 38.5222 26.9138 38.7388 26.4303C39.01 25.8635 38.9652 25.1597 38.5313 24.7C37.3109 23.3955 35.8192 22.4192 34.2679 21.5811C33.0118 20.9137 31.7228 20.31 30.406 19.7722C29.4533 19.3811 28.4741 19.0585 27.4756 18.8067C26.4613 18.5436 25.4198 18.3728 24.3838 18.2033C23.718 18.0934 23.0386 18.0541 22.366 17.9863C22.0433 17.9551 21.7206 17.9117 21.3978 17.9036C20.2967 17.8765 19.2011 17.9199 18.1325 18.2358C17.3908 18.4555 16.6409 18.6426 15.8978 18.865C15.8441 18.8904 15.7966 18.9272 15.7586 18.9729C15.7207 19.0186 15.6932 19.072 15.6781 19.1294C15.6103 19.4169 15.6008 19.7166 15.533 20.0041C15.2469 21.2164 14.9486 22.4273 14.6543 23.6382L14.5811 23.6206C14.9336 22.0883 15.5113 20.6048 15.5995 19.0169C14.9879 19.1877 14.8835 19.5512 14.9214 20.0231C14.977 20.6102 14.8265 21.1404 14.6204 21.6801C14.276 22.5832 13.6915 23.3955 13.5613 24.3922L13.6685 23.8661C13.6069 23.884 13.5548 23.9254 13.5234 23.9813C13.0262 24.9052 12.529 25.8305 12.0317 26.7571C12.0108 26.8256 12.0026 26.8972 12.0073 26.9687C11.9517 27.0067 11.8983 27.0479 11.8473 27.092C11.5924 27.3294 11.3985 27.6453 10.9957 27.6833C10.9426 27.6959 10.893 27.7207 10.8511 27.7557C10.8092 27.7908 10.7761 27.8352 10.7544 27.8853C10.6432 28.2379 10.3476 28.2745 10.0628 28.3369C9.48918 28.4535 9.08237 28.8264 8.63217 29.2902C8.82066 29.2725 8.93728 29.2712 9.04847 29.2481C9.48105 29.16 9.90955 29.0434 10.3448 28.9769C12.1172 28.7057 13.9017 28.7179 15.6849 28.8061C16.5866 28.8522 17.4857 28.9579 18.3847 29.0393C19.7815 29.1641 21.1795 29.2671 22.5722 29.4271C23.3749 29.5193 24.1696 29.6834 24.9601 29.8529C25.6517 30.0007 26.3311 30.2109 27.0186 30.3777C28.2838 30.6855 29.553 30.9811 30.8155 31.2863C31.1097 31.3581 31.4013 31.4463 31.6915 31.5358C32.5458 31.7975 33.3892 32.0985 34.253 32.3182C35.3522 32.6129 36.4176 33.0219 37.4315 33.5386C37.8275 33.7339 38.2275 33.9224 38.652 34.1244C38.6695 33.9414 38.6399 33.7569 38.5658 33.5885C38.4917 33.4202 38.3757 33.2737 38.2289 33.163C37.834 32.8876 37.4062 32.6626 36.9556 32.4931C35.8124 32.0022 34.6707 31.4991 33.5031 31.0679C32.4373 30.676 31.3416 30.3641 30.2487 30.0333C29.4215 29.7811 28.5848 29.5627 27.7563 29.3159C26.5697 28.962 25.3886 28.5972 24.2048 28.2311L23.3071 27.9599C23.8575 28.0436 24.4012 28.166 24.9344 28.326C25.8931 28.6108 26.8437 28.9186 27.801 29.2061C28.376 29.3783 28.9604 29.518 29.5354 29.6902C30.4846 29.975 31.4338 30.2638 32.3722 30.5703C33.2387 30.851 34.1093 31.1249 34.9487 31.4585C36.0335 31.8843 37.0803 32.367 38.1448 32.8253C38.0499 32.5541 37.9658 32.2653 37.8384 31.9927C37.7721 31.8373 37.6569 31.7078 37.5102 31.6239C36.74 31.2849 35.967 30.9459 35.1765 30.6611C34.1255 30.2787 33.0611 29.9329 31.9979 29.5858C31.0487 29.2753 30.0995 28.9607 29.1299 28.6908C28.418 28.4915 27.6871 28.3599 26.9603 28.2026C26.2755 28.0548 25.5853 27.9314 24.9072 27.7619C24.2035 27.5843 23.5187 27.3253 22.8108 27.1626C21.1572 26.797 19.4706 26.6012 17.7772 26.5781C16.6029 26.5578 15.4286 26.5564 14.2543 26.5429ZM27.1786 2.54112L27.1433 2.53163L27.4349 1.10508L27.1989 1.45765C27.0254 1.3451 26.9426 1.49155 26.8803 1.62987C26.6416 2.15329 26.3867 2.67265 26.186 3.211C25.9256 3.908 25.7019 4.61856 25.4795 5.32912C25.2991 5.90814 25.1473 6.4953 24.9791 7.0784C24.8435 7.52453 24.7079 7.96795 24.5899 8.37747C25.3724 8.41409 26.125 8.44392 26.8789 8.48731C27.0918 8.49952 27.1759 8.38968 27.2179 8.21611C27.4362 7.26688 27.6858 6.338 27.862 5.38878C28.0071 4.60907 28.0654 3.81308 28.1617 3.02522L28.0844 3.00488L27.3318 5.86068C27.3786 5.49132 27.447 5.12502 27.5366 4.76365C27.8308 3.65442 28.1387 2.55061 28.4411 1.44409C28.4614 1.36815 28.4587 1.24204 28.5021 1.22306C28.8506 1.07389 28.6689 0.790483 28.7258 0.515209C28.3556 0.677933 28.0275 0.813536 27.7156 0.969479C27.6142 1.03489 27.5404 1.13526 27.5081 1.25153C27.3888 1.67733 27.2871 2.1099 27.1786 2.54112ZM36.6437 4.98197C36.5364 5.3497 36.4106 5.71177 36.2667 6.0668C35.9141 6.8316 35.5223 7.58013 35.1602 8.34086C34.8222 9.02188 34.6911 9.78701 34.7832 10.5417C34.7864 10.5831 34.7977 10.6235 34.8166 10.6605C34.8354 10.6975 34.8614 10.7304 34.8931 10.7573C35.1643 10.9187 35.4531 11.0597 35.7623 11.2224C35.6389 10.299 35.9236 9.50298 36.3196 8.73547C36.6749 8.0466 37.0437 7.36588 37.3963 6.67701C37.4734 6.54292 37.5092 6.38906 37.4994 6.2347C37.4895 6.08033 37.4343 5.93231 37.3407 5.80915C37.1251 5.51218 36.881 5.24911 36.6437 4.97926V4.98197ZM31.6671 2.18855L32.7437 3.57984C32.4576 3.08082 32.2705 2.50315 31.6671 2.18584V2.18855ZM18.7848 41.2693C18.7753 41.2626 18.7292 41.2205 18.7238 41.226C18.6211 41.3064 18.527 41.3973 18.4431 41.4972C18.412 41.5664 18.3949 41.641 18.3929 41.7168L18.4715 41.744L18.7848 41.2693ZM36.1609 5.78203L36.2179 5.79288L36.3969 4.9196L36.3386 4.90875L36.1609 5.78203Z" fill="#0E8499"/>
<path d="M21.2975 52C21.1931 52 21.0819 52 20.9626 51.9851C20.4432 51.9417 20.069 51.5606 19.7299 51.1715C19.0085 50.3484 19.1875 49.4615 19.4479 48.7021C19.6024 48.2286 19.8838 47.8064 20.2615 47.4817C20.511 47.2688 20.6493 46.961 20.6859 46.5447C20.6847 46.5144 20.6775 46.4847 20.6647 46.4572C20.6519 46.4297 20.6338 46.4051 20.6114 46.3847L20.5097 46.3128C20.3316 46.1743 20.136 46.0598 19.9279 45.9724C19.0153 45.6443 18.359 44.9988 17.9183 43.9994C17.8613 43.8706 17.799 43.7391 17.7379 43.613C17.6769 43.4868 17.6335 43.3919 17.582 43.2794C17.3243 42.7071 17.5427 42.2027 17.7542 41.7145L17.8424 41.5111L17.6728 41.4623C17.4749 41.404 17.2891 41.3497 17.0979 41.3131C16.8267 41.2602 16.5419 41.2168 16.2694 41.1775C16.0931 41.1504 15.91 41.1219 15.7269 41.0907H15.6958C15.0666 40.9836 14.417 40.8738 13.781 40.7531C13.5098 40.7016 13.2237 40.6405 12.9525 40.5809L12.4237 40.467C12.1213 40.4046 11.8107 40.3449 11.511 40.288C10.8629 40.1632 10.1943 40.0344 9.54344 39.8676C8.75695 39.6642 7.97181 39.4025 7.21378 39.1503L6.80697 39.0147C6.19134 38.8099 5.65842 38.6078 5.17974 38.4044C4.74581 38.2173 4.31188 38.0125 3.89151 37.8146C3.63115 37.6912 3.3613 37.5637 3.09416 37.443C2.92873 37.3671 2.75787 37.2966 2.59108 37.2274C2.28442 37.1088 1.98472 36.973 1.69338 36.8206C1.34513 36.616 1.02588 36.3656 0.744163 36.0761C0.627544 35.9622 0.657377 35.649 0.744163 35.5066C0.92249 35.1614 1.14694 34.8421 1.41133 34.5574C2.07452 33.8764 2.6911 33.1516 3.25689 32.3877C4.12995 31.2683 5.27968 30.3957 6.59272 29.856C6.74731 29.7896 6.9019 29.7123 7.05242 29.6391C7.13785 29.597 7.22328 29.5536 7.31006 29.5129L7.35074 29.4913C7.40884 29.4534 7.47666 29.4331 7.54601 29.4329C7.99757 29.4682 8.28369 29.1983 8.58609 28.9122C8.66338 28.839 8.74339 28.7644 8.82475 28.6953C9.14772 28.3984 9.55009 28.2019 9.9828 28.1298C10.174 28.1013 10.3164 28.0647 10.4032 27.8437C10.49 27.6226 10.7639 27.4192 10.9917 27.3284C11.3873 27.1758 11.7098 26.878 11.8934 26.4958C12.1145 26.0659 12.345 25.632 12.5715 25.213C12.7383 24.8984 12.9118 24.5743 13.0786 24.2529C13.1532 24.1092 13.2305 23.9654 13.3064 23.8217C13.5424 23.3769 13.7851 22.9172 13.9844 22.4521C14.278 21.7511 14.4487 21.0048 14.4889 20.2458C14.514 19.9934 14.5621 19.7437 14.6326 19.5C14.6597 19.3888 14.6896 19.2736 14.714 19.161C14.714 19.1447 14.7221 19.1271 14.7262 19.1095C14.7384 19.0756 14.7439 19.0397 14.7425 19.0037C14.6069 18.4613 14.7533 17.9609 14.9282 17.4565C15 17.2718 15.0416 17.0767 15.0516 16.8788C15.048 15.9971 15.2123 15.1227 15.5357 14.3024C15.8292 13.5779 16.2148 12.8943 16.6829 12.2683C17.2886 11.464 17.955 10.7074 18.6763 10.0051C19.0343 9.65388 19.5333 9.42065 20.0134 9.21317C20.6586 8.94229 21.3182 8.70689 21.9891 8.50804C22.1801 8.46 22.3766 8.43765 22.5735 8.44159L22.7905 8.43346V8.32362C22.7905 8.17581 22.8027 8.02258 22.8122 7.86935C22.8122 7.76764 22.8231 7.66594 22.8298 7.5656C22.8447 7.26998 22.8624 6.96487 22.8949 6.66519C22.9559 6.12278 23.3451 5.85157 23.7207 5.59393L23.8374 5.51392C24.3558 5.15392 24.8405 4.74771 25.2856 4.30027C25.607 3.97347 25.7507 3.5531 25.904 3.10968C25.9882 2.84193 26.0934 2.58122 26.2185 2.32996C26.2734 2.22058 26.3223 2.10832 26.365 1.99367C26.4273 1.81657 26.5115 1.648 26.6159 1.49194C26.7393 1.33555 26.8883 1.2012 27.0566 1.09462C27.1108 1.05529 27.1691 1.01326 27.222 0.972576C27.2755 0.933278 27.3312 0.897058 27.3888 0.864093C27.4483 0.829197 27.5049 0.789755 27.5583 0.746119L27.5881 0.72171L27.6166 0.679673V0.702726C28.1238 0.287781 28.6052 0.10336 29.1299 0.118277H29.1462C29.2045 0.106072 29.2642 0.0898001 29.3225 0.0748838C29.4895 0.0221013 29.664 -0.00308988 29.8392 0.000302103C30.7661 0.0723721 31.6512 0.416759 32.3831 0.990204C33.16 1.59848 33.8305 2.33169 34.3669 3.15985C34.4253 3.22265 34.5023 3.26497 34.5866 3.28054C34.7371 3.3158 34.8944 3.34699 35.045 3.37546C35.32 3.42214 35.5918 3.48646 35.8586 3.56802C36.0767 3.66827 36.264 3.82513 36.401 4.02229C36.5176 4.15789 36.6247 4.31655 36.7264 4.46571C36.861 4.66914 37.0106 4.86223 37.1739 5.04338C37.9211 5.82716 37.9604 6.23397 37.3936 7.33914C37.2729 7.57373 37.1468 7.81104 37.0261 8.04021C36.7237 8.60974 36.4105 9.19826 36.1542 9.80305C36.0434 10.1215 35.9848 10.4558 35.9806 10.7929C35.9725 10.8974 35.9657 11.0045 35.9548 11.1089C35.9627 11.1501 35.9788 11.1894 36.0021 11.2243C36.0254 11.2592 36.0554 11.2892 36.0905 11.3123C36.9196 11.8109 37.6567 12.4485 38.2696 13.1972C38.9679 14.0691 39.4995 14.8339 39.8195 15.7343C39.886 15.9228 39.9551 16.114 40.0284 16.2984C40.2005 16.7252 40.3477 17.1617 40.4691 17.6056C40.5404 17.9393 40.5727 18.2802 40.5654 18.6213C40.5654 18.7447 40.5653 18.8708 40.5762 18.9942C40.6128 19.7441 40.3769 20.4425 40.1491 21.1164L40.0948 21.2791C39.9741 21.6385 39.8697 22.0127 39.768 22.3734C39.7233 22.5348 39.6785 22.6975 39.6324 22.8589C39.7191 23.1181 39.7191 23.3984 39.6324 23.6576C39.5765 23.8463 39.5441 24.0413 39.5361 24.238C39.5266 24.3573 39.5171 24.4794 39.4968 24.6C39.4819 24.6693 39.4558 24.7358 39.4195 24.7967C39.3967 24.8371 39.378 24.8799 39.3639 24.9241C39.3463 24.9906 39.3273 25.0597 39.307 25.1248C39.241 25.3034 39.2057 25.4918 39.2025 25.6822C39.2034 25.9842 39.1249 26.2812 38.9747 26.5432L38.9083 26.6856C38.7409 27.0785 38.596 27.4805 38.4743 27.8898C38.3252 28.3576 38.1692 28.8621 38.0404 29.3814C37.7665 30.3876 37.8494 31.4575 38.275 32.4094L38.4825 32.8623C38.5855 33.0861 38.6913 33.3166 38.793 33.5404C38.8423 33.6537 38.8796 33.7718 38.9042 33.8929C38.9982 34.4497 39.2676 34.9618 39.6731 35.3547C39.9877 35.6627 40.2611 36.01 40.4867 36.388C40.8216 36.9237 41.2515 37.6315 41.6203 38.3638C41.8183 38.7584 41.996 39.1774 42.1628 39.5679C42.3119 39.9151 42.4665 40.273 42.6333 40.6161C42.7472 40.8507 42.8855 41.0812 43.0198 41.3036C43.179 41.557 43.3238 41.8192 43.4537 42.0888C43.5337 42.2637 43.6273 42.44 43.7249 42.6095C43.9568 43.0421 44.1954 43.4882 44.2565 44.0076C44.2931 44.3262 44.327 44.6381 44.3324 44.9568C44.3296 45.0769 44.3099 45.196 44.2741 45.3107C44.2619 45.3609 44.2497 45.407 44.2388 45.4544L44.2239 45.5317L43.9608 45.5114V45.4273C43.9608 45.3921 43.9608 45.3554 43.9608 45.3202C43.969 45.2463 43.969 45.1717 43.9608 45.0978C43.9444 45.041 43.9119 44.9902 43.8673 44.9514C43.7873 44.8741 43.6978 44.8022 43.6124 44.7317L43.5012 44.6408L43.6083 44.5052L44.0151 44.7696C44.0072 44.1761 43.86 43.5927 43.5852 43.0665L43.47 42.8454C42.8964 41.7538 42.3038 40.6243 41.7424 39.5028C41.6068 39.2316 41.4915 38.9604 41.3776 38.6892C41.2278 38.311 41.0539 37.9427 40.8569 37.5868C40.5011 36.9389 40.0646 36.3389 39.5578 35.8009C39.2514 35.4944 38.8012 35.3046 38.3672 35.1228L38.1584 35.0347C37.0383 34.5492 36.0064 34.1316 35.0056 33.7533C34.3046 33.4902 33.5737 33.2637 32.8672 33.0454L32.6339 32.9722C31.442 32.6033 30.4738 32.3145 29.5856 32.0623C28.795 31.8385 28.0844 31.6555 27.4159 31.5117C26.1847 31.2405 24.9086 30.9897 23.7831 30.7673L23.3587 30.6818C22.7186 30.5462 22.0582 30.4201 21.4033 30.3333C20.8839 30.2655 20.351 30.2303 19.8357 30.1977C19.5537 30.1788 19.2621 30.1598 18.976 30.1354C18.6411 30.1055 18.298 30.073 17.9739 30.0404C17.4098 29.9835 16.8253 29.9265 16.2517 29.8926C14.9703 29.8167 13.7051 29.7733 12.5294 29.7394C12.0168 29.7231 11.4934 29.7394 10.9876 29.7489L10.673 29.7557C10.6253 29.763 10.5793 29.7791 10.5374 29.8031C10.5117 29.8153 10.4886 29.8262 10.4669 29.8343L10.4235 29.8506L10.3855 29.8248C10.2426 29.7473 10.0766 29.7237 9.91771 29.7584C9.74559 29.7891 9.56822 29.7684 9.40784 29.6987V29.7692H9.32106C9.23563 29.7692 9.1502 29.7692 9.06748 29.7692C8.89023 29.7592 8.71243 29.7688 8.53727 29.7977C8.41658 29.8221 8.2959 29.8343 8.17792 29.8465C7.87688 29.8777 7.59347 29.9062 7.32498 30.1327C6.94517 30.4254 6.543 30.6879 6.12218 30.9178C5.8903 31.0534 5.65164 31.2012 5.42518 31.3544C5.202 31.5115 4.98701 31.6798 4.78107 31.8589C4.68479 31.9389 4.58987 32.0189 4.49223 32.0975L4.41901 32.1559L4.30103 31.9931L4.36612 31.9402C4.50172 31.8331 4.62377 31.7246 4.75259 31.6148C5.04278 31.368 5.34382 31.1117 5.65977 30.8839C5.94318 30.6791 6.24693 30.4974 6.54119 30.3211L6.69036 30.233C6.33309 30.3946 5.98496 30.5756 5.64757 30.7754C4.58002 31.4371 3.66973 32.3238 2.98026 33.3736C2.7392 33.7096 2.46677 34.022 2.16664 34.3065C2.00934 34.4652 1.84526 34.6292 1.6961 34.7988C1.4893 35.0258 1.30196 35.2699 1.13606 35.5283C1.04385 35.6761 1.04791 35.7453 1.06147 35.7887C1.08317 35.8537 1.1564 35.9243 1.29064 36.0083L1.30149 36.0151L1.33404 36.0449L1.74898 35.8565L2.22902 34.7282L2.45954 34.8218L2.03104 35.8632L2.30224 35.8158C2.69549 35.7493 3.06569 35.687 3.43453 35.6341C3.50229 35.6301 3.56973 35.6461 3.62844 35.6802C3.65924 35.6957 3.69213 35.7066 3.72607 35.7127C4.0461 35.7127 4.37019 35.7195 4.68479 35.7195C5.27602 35.7195 5.88759 35.7195 6.48831 35.7548C6.95564 35.788 7.42093 35.8455 7.88231 35.927C8.05452 35.9541 8.22674 35.9812 8.3976 36.0056C8.76644 36.0585 9.13528 36.1087 9.50548 36.1602C10.4547 36.2958 11.4378 36.4314 12.3979 36.5955C13.2115 36.7392 14.0333 36.925 14.8279 37.1054C15.1479 37.1786 15.4693 37.2518 15.7907 37.3223C16.1392 37.3983 16.4985 37.4837 16.8592 37.5759C17.0816 37.6315 17.3054 37.6912 17.5237 37.7495C17.9034 37.8512 18.2966 37.9569 18.6858 38.0451C18.8973 38.0926 19.117 38.121 19.3299 38.1482C19.5008 38.1712 19.6771 38.1943 19.8506 38.2268C21.2528 38.498 22.6576 38.7692 23.977 39.0241L24.2184 39.0702C24.5994 39.1435 24.9927 39.2194 25.3751 39.3198C25.8917 39.4554 26.4138 39.6045 26.9196 39.751L27.6437 39.9571L27.7563 39.9896C27.9705 40.0507 28.1916 40.113 28.4099 40.1659C28.753 40.25 29.096 40.3314 29.4391 40.4127C30.0914 40.5673 30.768 40.7287 31.4284 40.9036C31.9871 41.0514 32.5485 41.2236 33.0923 41.3891C33.3635 41.4731 33.6577 41.5613 33.9411 41.6454C34.1161 41.6969 34.2951 41.7457 34.4686 41.7932L34.9934 41.941L35.7555 42.1701C36.1623 42.2922 36.5786 42.4183 36.9936 42.5349C37.6404 42.7166 38.2818 42.8821 39.0466 43.0773C39.3612 43.1573 39.6826 43.2346 39.9958 43.3092C40.5748 43.4448 41.1742 43.5926 41.7587 43.7594C42.1517 43.8805 42.5382 44.0217 42.9167 44.1825C43.0835 44.2489 43.2557 44.3181 43.4252 44.3832L43.3696 44.5527L42.5763 44.3425C41.9512 44.1716 41.3057 43.994 40.6684 43.8258C40.1436 43.6902 39.6175 43.5628 39.2175 43.4706L38.8106 43.3797C37.894 43.1722 36.9447 42.958 36.0457 42.5973C35.786 42.5012 35.5188 42.4264 35.247 42.3735C35.0707 42.3329 34.8877 42.2922 34.7114 42.2379C34.4402 42.1579 34.169 42.0684 33.8978 41.983C33.5845 41.8813 33.2604 41.7755 32.939 41.6847C32.3736 41.526 31.7945 41.3741 31.2359 41.2291C30.9009 41.1409 30.5673 41.0541 30.2338 40.9646L28.098 40.3883L27.3888 40.189L27.4702 40.3015C27.4973 40.3395 27.5231 40.3693 27.5447 40.3951C27.5926 40.4377 27.6238 40.4958 27.6329 40.5592V40.627C27.6437 40.9809 27.6546 41.3484 27.6329 41.7118C27.6261 41.8474 27.6437 41.8962 27.66 41.9125C27.6763 41.9288 27.6709 41.9261 27.7034 41.9233H27.8729L27.7793 42.0589C27.7648 42.0807 27.749 42.1015 27.7319 42.1213C27.6996 42.1528 27.675 42.1913 27.66 42.2339C27.6504 42.328 27.6463 42.4227 27.6478 42.5173C27.6513 42.6504 27.6413 42.7835 27.618 42.9146V42.9349C27.557 43.2156 27.5339 43.3729 27.7536 43.4773L27.9502 43.518L27.7617 43.678L27.7102 43.655L27.6953 43.6469L27.5502 43.6184L27.5054 43.754C27.452 43.9028 27.4068 44.0545 27.3698 44.2083C27.1773 45.0815 26.5481 45.5846 25.8633 46.066C24.9832 46.6857 24.0014 46.8715 22.8054 46.9542C22.6237 47.418 22.72 47.86 22.8217 48.3279L22.8664 48.5394C22.8895 48.652 22.9153 48.7672 22.941 48.8784C23.0644 49.4127 23.1905 49.9632 23.0061 50.5287C22.6956 51.5078 22.3403 52 21.2975 52ZM20.2371 51.444C20.4265 51.6301 20.6674 51.7548 20.9287 51.802C20.6763 51.7306 20.4411 51.6089 20.2371 51.444ZM21.0629 46.6857C21.0537 46.8817 21.0052 47.0738 20.9201 47.2507C20.8351 47.4275 20.7153 47.5854 20.568 47.7149C20.1932 48.0678 19.9133 48.5095 19.7544 48.9991C19.4506 49.8493 19.5808 50.5274 20.1612 51.1308C20.7198 51.7125 21.5172 51.8522 22.103 51.4698C22.6346 51.1226 22.9342 50.1843 22.7566 49.4208C22.6115 48.7903 22.5234 48.138 22.4379 47.5075V47.4776C22.4262 47.3334 22.4381 47.1882 22.4732 47.0478C22.4732 47.0071 22.4881 46.9651 22.4949 46.9203L21.9647 46.9881C21.9538 47.0654 21.9416 47.1441 21.9281 47.22C21.8806 47.4358 21.8623 47.657 21.8738 47.8777C21.9023 48.0632 21.9509 48.2451 22.0189 48.4201C22.0835 48.5888 22.1325 48.7631 22.1654 48.9408C22.2535 49.5185 22.2861 50.1287 21.9159 50.6819C21.8157 50.84 21.6745 50.9679 21.5073 51.0519C21.3401 51.136 21.1533 51.1731 20.9666 51.1593C20.8185 51.1466 20.6767 51.0931 20.557 51.0048C20.4373 50.9165 20.3444 50.7968 20.2886 50.6589C20.0971 50.2207 20.0418 49.7349 20.13 49.2649C20.3036 48.5914 20.6565 47.9775 21.1511 47.4885C21.2693 47.346 21.3645 47.1858 21.4331 47.0139C21.4589 46.9556 21.4874 46.8973 21.5158 46.8376L21.0629 46.6857ZM21.2256 47.6716C20.7787 48.1254 20.4593 48.689 20.2995 49.3056C20.2192 49.7384 20.2712 50.1855 20.4486 50.5884C20.4926 50.6971 20.5657 50.7915 20.66 50.8611C20.7543 50.9308 20.8661 50.973 20.9829 50.983C21.0884 50.992 21.1946 50.9791 21.2948 50.945C21.1666 50.9505 21.0413 50.9063 20.9449 50.8216C20.393 50.4365 20.3456 49.9104 20.3442 49.4059C20.3529 49.1471 20.4271 48.8947 20.5598 48.6723C20.6954 48.4499 20.8392 48.2357 20.9829 48.0282C21.0643 47.9116 21.1511 47.7922 21.2256 47.6716ZM20.7754 46.2992C20.8392 46.3748 20.8721 46.4717 20.8677 46.5705C20.827 47.0369 20.6683 47.3841 20.3822 47.6282C20.0272 47.9309 19.7621 48.3254 19.616 48.7686C19.376 49.4547 19.2092 50.2494 19.7964 50.9816C19.3747 50.3972 19.3055 49.7273 19.5835 48.9476C19.7527 48.4301 20.0498 47.9636 20.4473 47.5915C20.5914 47.4647 20.7056 47.3074 20.7815 47.131C20.8575 46.9547 20.8934 46.7637 20.8866 46.5718V46.4457L21.7355 46.7278L21.7437 46.721L21.764 46.7006C21.4112 46.6334 21.0752 46.497 20.7754 46.2992ZM21.4914 47.5861C21.3775 47.7733 21.2514 47.955 21.1294 48.1285C20.987 48.3333 20.8405 48.5448 20.7144 48.7604C20.5972 48.9556 20.531 49.1771 20.5219 49.4046C20.5219 49.8819 20.5639 50.3375 21.0466 50.6738C21.2365 50.8094 21.2907 50.7809 21.3952 50.7063C21.5052 50.6301 21.5977 50.5311 21.6664 50.4162C22.0949 49.6541 21.882 48.8771 21.5891 48.1502C21.5167 47.9713 21.4835 47.779 21.4914 47.5861ZM21.7287 47.2946C21.6682 47.4749 21.6543 47.6675 21.6881 47.8546C21.6799 47.667 21.6935 47.479 21.7287 47.2946ZM21.9904 46.7318L21.9823 46.805L22.3335 46.7603C22.2196 46.7562 22.1003 46.7467 21.9904 46.7318ZM22.6915 46.7644V46.7928H22.7444C23.0997 46.7684 23.4346 46.7372 23.7533 46.6871C23.5119 46.7196 23.2705 46.7372 23.0332 46.7522C22.9139 46.7576 22.8068 46.7617 22.6915 46.7644ZM21.8657 46.7128L21.8942 46.7671L21.9389 46.725L21.8657 46.7128ZM20.5205 38.6756C20.4467 38.6962 20.3839 38.7449 20.3456 38.8112C20.1083 39.2425 19.8723 39.6845 19.6445 40.1117C19.4167 40.5388 19.1943 40.9524 18.9665 41.3714C18.5768 42.0896 18.3757 42.8949 18.3821 43.7119C18.37 44.0109 18.4392 44.3076 18.5825 44.5703C18.7258 44.833 18.9377 45.0519 19.1957 45.2036C19.4425 45.3392 19.7042 45.4748 19.9564 45.5982L20.3415 45.7907L20.389 45.8138C20.4608 45.8456 20.5279 45.8871 20.5883 45.9372C21.3165 46.5894 22.2237 46.6261 23.0156 46.5759C23.6868 46.5338 24.396 46.4647 25.0374 46.1297C25.569 45.8585 26.1223 45.529 26.563 45.0354C26.9758 44.5792 27.1908 43.978 27.161 43.3634C27.1637 43.2937 27.1798 43.2251 27.2085 43.1614C27.2281 43.1185 27.2405 43.0727 27.2451 43.0258C27.2451 42.6108 27.2451 42.1891 27.2451 41.7823C27.2451 41.4542 27.2451 41.1246 27.2451 40.7965C27.2484 40.7053 27.2597 40.6145 27.279 40.5253C27.2885 40.4737 27.2993 40.4154 27.3088 40.349L27.3332 40.1822L26.4843 39.953L26.2674 39.8947C25.9962 39.8188 25.71 39.7415 25.4293 39.6791C23.9187 39.3442 22.5817 39.0526 21.3504 38.7896C21.0769 38.7303 20.7988 38.6949 20.5192 38.6838L20.5205 38.6756ZM25.9351 45.8084C25.6736 45.983 25.4019 46.1419 25.1215 46.2843C25.0388 46.3264 24.9561 46.3657 24.8734 46.3996C25.1884 46.2812 25.4873 46.1236 25.7629 45.9304L25.9351 45.8084ZM20.3252 45.9697C20.389 46.0091 20.4514 46.0511 20.5124 46.0931L20.4744 46.0606C20.4291 46.0235 20.3789 45.993 20.3252 45.9697ZM19.2743 45.4395C19.4969 45.5912 19.738 45.7138 19.9917 45.8043H20.0012L19.8818 45.746C19.6811 45.6551 19.475 45.5534 19.2743 45.445V45.4395ZM44.1317 45.0422C44.1317 45.0422 44.1317 45.0517 44.1317 45.0571C44.1317 45.0625 44.1317 45.0666 44.1317 45.0707V45.0476V45.0422ZM18.0851 41.3972L17.9169 41.7891C17.7122 42.2623 17.5183 42.7098 17.7434 43.2102C17.7935 43.3214 17.8464 43.4326 17.8979 43.5411C17.9495 43.6496 18.0322 43.8001 18.0851 43.9357C18.1508 44.0856 18.2246 44.2318 18.3061 44.3737C18.2359 44.1597 18.2011 43.9358 18.2031 43.7106C18.1983 43.0261 18.333 42.3479 18.599 41.7172L18.5109 41.8528L18.2926 41.7782L18.3088 41.7009C18.3088 41.6806 18.3088 41.6589 18.317 41.6372C18.3183 41.5689 18.3385 41.5023 18.3753 41.4447C18.4475 41.3559 18.5288 41.275 18.618 41.2033L18.6668 41.1613C18.7292 41.1084 18.7916 41.1612 18.8323 41.1938L18.8512 41.2087C19.0668 40.8155 19.2797 40.4168 19.4872 40.029C19.715 39.6005 19.951 39.1597 20.1883 38.7272C20.2443 38.6346 20.3284 38.5624 20.4283 38.5211L19.8249 38.4072C19.6893 38.3827 19.5604 38.3638 19.4289 38.3461L19.5415 38.3678L19.7449 38.4072L19.8642 38.4316L19.6296 38.8506C19.4275 39.2113 19.2228 39.5842 19.0085 39.9462C18.983 39.9877 18.9473 40.0219 18.9048 40.0457C18.8624 40.0694 18.8145 40.0819 18.7658 40.0818C18.6239 40.071 18.491 40.0574 18.3671 40.0412L18.8024 40.1293L18.938 40.1564L18.0851 41.3972ZM27.4064 43.1451C27.3983 43.1709 27.3888 43.1953 27.3793 43.2197C27.3595 43.2624 27.3476 43.3084 27.3441 43.3553C27.3456 43.4821 27.3401 43.6088 27.3278 43.735L27.3373 43.7065C27.3603 43.6346 27.3834 43.5641 27.4051 43.4923L27.4295 43.415H27.443C27.4072 43.3298 27.3946 43.2367 27.4064 43.1451ZM36.6532 42.6203C37.2431 42.8123 37.8423 42.9743 38.4486 43.1058C37.917 42.9702 37.437 42.8414 36.957 42.7058C36.8525 42.6786 36.7536 42.6502 36.6532 42.6203ZM27.4539 40.5646C27.4376 40.64 27.4281 40.7167 27.4254 40.7938C27.4254 41.1219 27.4254 41.4487 27.4254 41.7769C27.4254 42.1837 27.4254 42.5905 27.4254 42.9973C27.4322 42.9621 27.4403 42.9282 27.4471 42.8943V42.8753C27.469 42.7559 27.4776 42.6345 27.4729 42.5132C27.4719 42.4113 27.4768 42.3094 27.4878 42.2081C27.4973 42.1506 27.5221 42.0967 27.5597 42.0522L27.5353 42.0318C27.467 41.935 27.4392 41.8153 27.458 41.6982C27.4742 41.3443 27.458 40.9809 27.458 40.6297V40.5673C27.4568 40.5661 27.4554 40.5652 27.4539 40.5646ZM34.6409 42.0223L34.7765 42.063L34.9473 42.1091L34.6409 42.0223ZM4.09627 37.7129C4.47731 37.8919 4.86921 38.0749 5.25974 38.2431C5.73571 38.4478 6.26456 38.6499 6.87478 38.8479L7.28159 38.9835C8.03825 39.2357 8.81932 39.496 9.6004 39.6967C10.2445 39.8622 10.9117 39.991 11.5571 40.1157C11.8568 40.1727 12.1674 40.2324 12.4725 40.2961C12.6501 40.3314 12.8264 40.3707 13.0027 40.41C13.2739 40.4683 13.5451 40.5293 13.8258 40.5809C14.4618 40.7002 15.11 40.81 15.7378 40.9172H15.769C15.948 40.947 16.1297 40.9755 16.3114 41.0026C16.5826 41.0446 16.8687 41.088 17.1467 41.1382C17.346 41.1775 17.5454 41.2345 17.7366 41.2914L17.9088 41.3402L17.7474 41.2914C17.5427 41.229 17.3298 41.164 17.1182 41.1179C16.6219 41.0121 16.1161 40.909 15.6266 40.81C15.1723 40.7192 14.7031 40.6243 14.2421 40.5253C12.9891 40.2541 11.6738 39.9734 10.3313 39.675C10.0737 39.6181 9.81194 39.5625 9.55836 39.5096C8.84102 39.3591 8.10063 39.2031 7.38871 38.9848C6.41883 38.6687 5.46566 38.3035 4.53291 37.8905L4.09627 37.7129ZM1.44659 36.1534L1.471 36.1765C1.57359 36.2879 1.69301 36.3827 1.82492 36.4572C2.65074 36.8572 3.61488 37.3183 4.59258 37.7318C5.52 38.1416 6.46774 38.5036 7.43211 38.8167C8.13588 39.0323 8.87221 39.1882 9.58548 39.3374C9.83906 39.3903 10.1021 39.4459 10.3598 39.5028C11.7022 39.8012 13.0176 40.0873 14.2692 40.3544C14.7303 40.452 15.1981 40.547 15.6524 40.6392C16.1419 40.7382 16.6477 40.8399 17.144 40.947C17.3623 40.9945 17.5793 41.0595 17.7868 41.1233L18.0078 41.1911L18.6343 40.2649L18.1312 40.1632C17.6823 40.0737 17.2593 39.9869 16.8321 39.892C15.5724 39.6208 14.2963 39.3496 13.0352 39.0689L12.8996 39.0391C11.9301 38.8329 10.9347 38.6133 9.95432 38.376C9.80827 38.3335 9.66901 38.2705 9.54073 38.1888C9.49734 38.1644 9.4553 38.14 9.41327 38.1183L9.37936 38.1088L9.26681 38.0763L9.3753 37.8986L9.44852 37.9353L9.48107 37.9515L9.81601 38.0505C10.0967 38.1346 10.3855 38.22 10.6744 38.2851C11.0134 38.3624 11.3619 38.4316 11.6982 38.498C12.0779 38.5739 12.4698 38.6512 12.8522 38.7407C13.0732 38.7923 13.2929 38.856 13.5044 38.9184C13.8795 39.0407 14.2641 39.1315 14.6543 39.1896C15.4571 39.2845 16.2626 39.4459 17.0423 39.6032C17.3935 39.675 17.7583 39.7483 18.1163 39.8134C18.3356 39.8529 18.557 39.8805 18.7794 39.8961C18.8081 39.8905 18.8343 39.8757 18.8539 39.854C19.0641 39.492 19.273 39.1191 19.4737 38.7584L19.5889 38.5536L19.5076 38.5387C19.372 38.5116 19.2174 38.4831 19.075 38.4465C18.6682 38.3434 18.2614 38.2349 17.8546 38.1305C17.026 37.9108 16.169 37.683 15.3188 37.5027C14.1309 37.2491 12.9105 37.0484 11.7307 36.8545L11.1883 36.765C9.92042 36.5548 8.85458 36.388 7.77382 36.2551C6.79587 36.12 5.8113 36.0381 4.82446 36.0097C4.05966 36.0002 3.27858 36.0477 2.51921 36.0938C2.18969 36.1141 1.84119 36.1344 1.51303 36.1507L1.44659 36.1534ZM30.8806 40.9443L31.2942 41.0514L31.583 41.1273L31.3904 41.0758C31.2209 41.0311 31.0501 40.9863 30.8806 40.9443ZM41.5607 38.6567C41.6664 38.9075 41.7763 39.1652 41.8983 39.4093C41.8983 39.4201 41.9105 39.431 41.916 39.4418C41.7993 39.1801 41.6827 38.9184 41.558 38.6567H41.5607ZM1.113 36.1683C1.31942 36.3586 1.5469 36.5247 1.79102 36.6633C2.07621 36.8159 2.37006 36.9517 2.67108 37.0701L2.77143 37.1121C2.41479 36.944 2.07036 36.7786 1.74898 36.6226C1.601 36.5385 1.46734 36.4314 1.35302 36.3053C1.30285 36.2578 1.25267 36.209 1.2025 36.1697L1.113 36.1683ZM10.9808 36.548L11.2249 36.5874L11.7673 36.6769L12.7803 36.845L12.3735 36.7704C11.9151 36.6891 11.4487 36.6131 10.9808 36.548ZM0.913667 35.5744L0.902819 35.5934C0.87532 35.648 0.858887 35.7075 0.854465 35.7685C0.850044 35.8294 0.85772 35.8907 0.877054 35.9487C0.952992 36.0219 1.02622 36.0843 1.09809 36.1548L1.14826 36.1317C1.03274 36.0696 0.942215 35.9695 0.89197 35.8483C0.865146 35.7575 0.872874 35.6599 0.913667 35.5744ZM38.7469 35.0727C39.0924 35.2093 39.4103 35.4073 39.6853 35.6571C39.8236 35.7954 39.9542 35.9401 40.0772 36.091C39.9235 35.8723 39.7496 35.6685 39.5578 35.4822C39.3559 35.295 39.1847 35.0772 39.0507 34.8367C39.0737 34.9099 39.0941 34.99 39.1144 35.0822L39.1524 35.2544L38.991 35.1839L38.7469 35.0727ZM6.60899 35.9405C6.83816 35.9622 7.06733 35.988 7.29786 36.0151C7.0592 35.9826 6.82867 35.9554 6.5995 35.9351L6.60899 35.9405ZM3.48199 35.8049C3.31384 35.8293 3.14434 35.8551 2.97348 35.8836C3.18366 35.8714 3.3952 35.8592 3.60674 35.8497L3.57691 35.8361C3.54403 35.8211 3.50861 35.8123 3.4725 35.8104L3.48199 35.8049ZM1.65813 34.5642L1.5388 34.6835C1.36264 34.8684 1.20923 35.0737 1.08181 35.2951C1.22675 35.08 1.38575 34.8748 1.55778 34.6808L1.65813 34.5642ZM37.7475 34.6469L38.2235 34.8503L38.431 34.9384L38.6357 35.0252C38.3401 34.8977 38.044 34.7716 37.7475 34.6469ZM12.2202 29.4587C16.3578 29.4486 20.4878 29.8116 24.5601 30.5435C29.495 31.4452 34.3073 32.9216 38.8988 34.9425C38.8039 34.5994 38.6872 34.4896 38.3076 34.3038C38.0757 34.1913 37.8438 34.0692 37.6201 33.9499C37.2216 33.7314 36.812 33.5341 36.3928 33.3587C35.7799 33.1146 35.1385 32.9084 34.5188 32.7091C34.2761 32.6305 34.0252 32.5505 33.7798 32.4691C32.9051 32.1775 32.1376 31.9267 31.4352 31.6975C31.2494 31.6365 31.0542 31.5877 30.867 31.5416L30.5673 31.4656C30.0087 31.33 29.431 31.1782 28.8615 31.0398C28.513 30.9558 28.1658 30.869 27.8173 30.7835C26.8789 30.5517 25.9107 30.3116 24.9507 30.1055C23.7872 29.8547 22.7593 29.6716 21.8074 29.5482C21.0344 29.4465 20.2412 29.3868 19.4737 29.3285C19.155 29.3041 18.8255 29.2797 18.5014 29.2526L17.8464 29.1929C17.323 29.1441 16.7819 29.0926 16.249 29.0709C14.215 28.9868 12.208 28.9353 10.1862 29.2214C9.57328 29.3095 9.07019 29.3868 8.60372 29.4668C8.55358 29.4784 8.50523 29.4966 8.45998 29.5211L9.39293 29.4967V29.5089H9.43632C10.3684 29.4745 11.2963 29.4578 12.2202 29.4587ZM33.8313 32.2996C34.0754 32.381 34.3263 32.461 34.5676 32.5382C35.19 32.7389 35.8355 32.9451 36.4539 33.1932C36.8787 33.3717 37.2938 33.5727 37.6973 33.7953C37.9211 33.9133 38.1503 34.0353 38.3754 34.1465C38.5777 34.2266 38.7568 34.3562 38.8961 34.5235C38.8295 34.3548 38.7765 34.1812 38.7374 34.0041C38.7403 34.0493 38.7403 34.0946 38.7374 34.1397L38.7279 34.2753L38.61 34.2184L38.214 34.0299C37.9306 33.8943 37.6621 33.7587 37.3909 33.6326C36.3836 33.1146 35.324 32.7055 34.23 32.4121C34.1012 32.3742 33.9656 32.3376 33.8313 32.2996ZM3.04941 32.96C2.69956 33.4048 2.31309 33.8739 1.89136 34.3241L2.03104 34.1804C2.32446 33.9044 2.59099 33.6011 2.82703 33.2746C2.8989 33.1674 2.97212 33.063 3.0467 32.96H3.04941ZM13.6387 28.6641C14.3587 28.6641 15.0476 28.6898 15.6903 28.7224C16.3331 28.7549 16.9731 28.8173 17.5983 28.8783C17.8622 28.9054 18.1271 28.9308 18.3929 28.9543C18.7875 28.9909 19.1821 29.0234 19.5767 29.0573C20.5625 29.1414 21.5823 29.2282 22.583 29.3434C23.3844 29.4343 24.1737 29.597 24.9791 29.7706C25.3859 29.8587 25.805 29.9699 26.1996 30.0784C26.4708 30.1516 26.7555 30.2276 27.0349 30.2954C27.7237 30.4635 28.4262 30.6303 29.1055 30.7917L30.8345 31.1985C31.1396 31.2731 31.446 31.3666 31.7173 31.4494C31.9885 31.5321 32.28 31.627 32.5539 31.7206C33.1153 31.9023 33.6957 32.0894 34.2734 32.2359C35.3795 32.5309 36.451 32.9432 37.4695 33.4658C37.7407 33.6014 38.0119 33.7261 38.2913 33.8617L38.5625 33.9973C38.5575 33.8509 38.5198 33.7075 38.4522 33.5775C38.3847 33.4475 38.2889 33.3343 38.172 33.2461C37.7932 32.9821 37.3833 32.7657 36.9515 32.602L36.9176 32.5871L36.4498 32.3864C35.4789 31.9674 34.4754 31.5361 33.4665 31.1659C32.6122 30.8514 31.7227 30.5842 30.8616 30.3252L30.2365 30.1259C29.7917 29.9903 29.3347 29.8614 28.894 29.738C28.517 29.6323 28.1265 29.5224 27.7441 29.4085C26.9305 29.1644 26.0952 28.9109 25.2924 28.6654L24.1926 28.3291L23.5702 28.1406L23.299 28.0579L23.337 27.8844C23.8942 27.9683 24.4448 28.0915 24.9846 28.2532C25.4944 28.4051 26.0097 28.5651 26.5087 28.721C26.9481 28.8566 27.4037 28.9922 27.8512 29.1278C28.136 29.2133 28.4289 29.2919 28.7123 29.3679C28.9957 29.4438 29.2954 29.5252 29.5856 29.6119C30.3694 29.8479 31.4013 30.1544 32.4237 30.492L32.7275 30.591C33.4828 30.8337 34.2625 31.0873 35.0124 31.3829C35.7623 31.6785 36.5217 32.0121 37.2512 32.3321C37.5102 32.4447 37.7679 32.5586 38.0269 32.6698L38.0106 32.6237C37.9483 32.4241 37.8741 32.2285 37.7882 32.0379C37.732 31.9016 37.633 31.7874 37.5061 31.7124C36.7224 31.368 35.9548 31.0344 35.1765 30.751C34.1974 30.3957 33.1899 30.0662 32.2149 29.7475L31.7606 29.5997C30.9036 29.319 30.0181 29.0302 29.1381 28.7861C28.6228 28.6424 28.0885 28.5312 27.5719 28.4254L26.9766 28.3007C26.7379 28.2478 26.4938 28.199 26.2592 28.1515C25.8185 28.0634 25.3643 27.9711 24.9208 27.8586C24.5954 27.7759 24.2713 27.6755 23.9567 27.5792C23.5879 27.4653 23.2068 27.3474 22.8258 27.2592C21.1699 26.8901 19.4804 26.6929 17.784 26.6707C16.9704 26.6531 16.1487 26.6463 15.3513 26.6395L14.2665 26.63H13.9709L14.219 26.4687C14.2251 26.4605 14.2306 26.4519 14.2353 26.4429C14.2711 26.4059 14.3195 26.3836 14.3709 26.3805C14.6421 26.3805 14.7492 26.2327 14.8469 25.9615C14.9038 25.8166 14.9713 25.6761 15.0489 25.5411C15.0815 25.4828 15.114 25.4232 15.1439 25.3649L15.1859 25.2821L15.3934 25.396L14.9608 26.3073L15.3676 26.3181C15.7527 26.3276 16.1161 26.3371 16.4823 26.3534L17.0911 26.3805C18.0403 26.4212 19.0343 26.4646 20.0052 26.5283C20.4147 26.5628 20.8221 26.6189 21.2256 26.6965L21.5063 26.7453L21.9565 26.8185C22.5085 26.9094 23.0807 27.0016 23.6353 27.1331C23.9906 27.2158 24.3445 27.3257 24.6862 27.4301C25.028 27.5345 25.3805 27.6443 25.7304 27.7271C26.1724 27.8301 26.6267 27.9169 27.0647 27.9983C27.6302 28.1067 28.2146 28.2193 28.7814 28.3671C29.5761 28.5759 30.3721 28.8309 31.1423 29.0777C31.465 29.1821 31.8 29.2906 32.1308 29.3923C32.4147 29.4827 32.6986 29.5694 32.9824 29.6526C33.6604 29.8601 34.3683 30.0743 35.0531 30.3103C35.6701 30.5232 36.2735 30.7646 36.8702 30.9992L37.5224 31.2554C37.5373 31.0954 37.5509 30.9354 37.5645 30.7795C37.6024 30.3198 37.639 29.8859 37.7109 29.4479C37.8071 28.9197 37.9389 28.3987 38.1055 27.8884C38.2493 27.3745 38.4306 26.8719 38.6479 26.3846C38.9191 25.8178 38.8405 25.1642 38.4554 24.7574C37.3977 23.6318 36.0498 22.6447 34.2137 21.6507C32.9643 20.9865 31.6821 20.3859 30.3721 19.8512C29.4234 19.4614 28.4482 19.1397 27.4539 18.8884C26.4559 18.6308 25.4198 18.4586 24.4083 18.2932H24.3689C23.8984 18.2145 23.4129 18.1725 22.9424 18.1318L22.3566 18.0775L22.1342 18.0531C21.8915 18.0274 21.6406 18.0002 21.3952 17.9948C20.4256 17.9704 19.2811 17.9948 18.1583 18.323C17.799 18.4288 17.4342 18.5291 17.0735 18.6254C16.6924 18.7298 16.3005 18.8383 15.9168 18.9522C15.8397 18.9951 15.7827 19.0668 15.7581 19.1515C15.7256 19.2871 15.7052 19.439 15.6863 19.5814C15.6697 19.7308 15.6452 19.8793 15.613 20.0262C15.4029 20.9144 15.1832 21.8161 14.9703 22.688L14.7343 23.6603L14.7126 23.7471L14.4685 23.6888L14.4875 23.6034C14.6001 23.1152 14.7357 22.627 14.8686 22.1538C15.1398 21.1801 15.4205 20.174 15.4951 19.1434C15.0435 19.3115 14.9716 19.6153 15.011 20.0153C15.0706 20.6445 14.8984 21.2032 14.7031 21.7131C14.5838 22.0277 14.4319 22.3341 14.2882 22.6311C14.0665 23.052 13.8849 23.4929 13.7458 23.9478L13.6522 24.4061L13.4759 24.3763C13.4841 24.3207 13.4922 24.2651 13.5017 24.2109C13.0339 25.0801 12.5755 25.933 12.1185 26.7941C12.1087 26.8266 12.105 26.8606 12.1077 26.8945C12.1077 26.9216 12.1077 26.9487 12.1077 26.9731V27.0111L12.0779 27.0355L12.025 27.0748C11.9896 27.0985 11.9561 27.1248 11.9246 27.1535C11.8704 27.2036 11.8162 27.2606 11.7646 27.3162C11.5694 27.5223 11.3673 27.7352 11.0202 27.7691C10.9848 27.7793 10.952 27.7966 10.9235 27.8199C10.8951 27.8432 10.8717 27.8721 10.8547 27.9047C10.7381 28.2817 10.4303 28.3454 10.1591 28.4024L10.0981 28.4159C9.59769 28.5244 9.22342 28.8322 8.86814 29.1875C8.93187 29.1875 8.98612 29.1767 9.03764 29.1672C9.19359 29.1346 9.3536 29.098 9.50683 29.0627C9.77804 29.0017 10.0587 28.9366 10.3394 28.8946C11.4318 28.7344 12.5347 28.6574 13.6387 28.6641ZM37.597 32.6874C37.84 32.7989 38.0709 32.9352 38.2859 33.0942C38.3606 33.1512 38.4284 33.2168 38.4879 33.2895C38.4323 33.1661 38.3754 33.0441 38.3211 32.9247L38.2086 32.6806C38.2221 32.7213 38.237 32.762 38.2506 32.8013L38.3198 32.9952L38.1313 32.9139L37.597 32.6874ZM30.1388 32.0094C30.8914 32.2277 31.7145 32.4759 32.6868 32.7769L32.9201 32.8488L33.076 32.8976C32.1015 32.5839 31.1206 32.2901 30.1334 32.0162L30.1388 32.0094ZM7.53245 29.6174C7.49894 29.6247 7.46687 29.6375 7.43753 29.6553L7.38871 29.6811L7.13378 29.8059C6.9819 29.8804 6.8246 29.9577 6.66595 30.0255C5.38134 30.554 4.25645 31.4078 3.40198 32.503C4.0121 31.7613 4.74006 31.1249 5.55672 30.6195C5.90818 30.4117 6.27029 30.2225 6.64154 30.0526C6.80562 29.9754 6.97377 29.8953 7.13785 29.8126L7.21107 29.776L7.28837 29.9008C7.54515 29.7397 7.84095 29.6515 8.14402 29.6458H8.19419L8.14945 29.4926C7.96198 29.5972 7.74788 29.6444 7.53381 29.6282L7.53245 29.6174ZM34.0334 30.1706C34.4334 30.3062 34.8334 30.4418 35.228 30.5896C36.0118 30.8744 36.782 31.2093 37.5685 31.5551C37.7021 31.6259 37.812 31.7343 37.8845 31.867C37.8059 31.6012 37.7515 31.3289 37.7218 31.0534C37.7123 31.1673 37.7014 31.2826 37.6906 31.3978L37.6784 31.5144L37.5699 31.4724C37.3177 31.3748 37.0632 31.2749 36.8064 31.1727C36.2179 30.9395 35.6104 30.6981 34.9961 30.4866C34.6788 30.3754 34.3561 30.2723 34.0334 30.1706ZM9.27902 28.5895C9.16285 28.6652 9.05186 28.7485 8.94679 28.839C8.8695 28.9041 8.79492 28.9746 8.71627 29.0492C8.5707 29.1955 8.41079 29.3268 8.23894 29.4411L8.32302 29.3977C8.37754 29.3661 8.43471 29.3393 8.49388 29.3177L8.57388 29.2336C8.78763 28.9967 9.02377 28.781 9.27902 28.5895ZM11.9301 26.79C11.7223 27.1146 11.4156 27.3637 11.0554 27.5006C10.8512 27.5781 10.6808 27.725 10.574 27.9155C10.5447 27.9974 10.4985 28.0723 10.4384 28.1352C10.4977 28.1088 10.5503 28.0695 10.5925 28.0203C10.6347 27.971 10.6654 27.913 10.6825 27.8505C10.7094 27.7833 10.7526 27.724 10.8083 27.6778C10.8639 27.6316 10.9302 27.6001 11.0012 27.586C11.2805 27.5589 11.4514 27.3786 11.6317 27.1874C11.686 27.1304 11.7416 27.0721 11.7999 27.0179C11.8371 26.9846 11.876 26.9534 11.9165 26.9243L11.9341 26.9121V26.889C11.9308 26.8561 11.9295 26.8231 11.9301 26.79ZM38.8486 25.0272C39.002 25.3811 39.0297 25.7768 38.9273 26.1486C38.9835 26.0022 39.0089 25.8457 39.0019 25.6889C39.0025 25.4779 39.0401 25.2686 39.113 25.0706C39.1266 25.0231 39.1415 24.9757 39.1551 24.935L38.9937 25.2062L38.9123 25.1045L38.8486 25.0272ZM20.9233 17.6911C21.4625 17.6906 22.0012 17.7268 22.5356 17.7996C22.8881 17.8484 23.2529 17.8687 23.6041 17.8891C23.9852 17.9108 24.3771 17.9338 24.7608 17.9908C25.9907 18.1738 27.1922 18.3759 28.3448 18.8139C28.7516 18.9685 29.1584 19.1176 29.5652 19.2614C30.1334 19.4661 30.7206 19.6763 31.2915 19.9068C33.2563 20.6974 34.8104 21.5083 36.1732 22.4589C37.0776 23.0867 38.1123 23.8651 38.9693 24.8997L39.0561 24.7506C38.416 23.9085 37.6187 22.9715 36.5434 22.3355C35.5535 21.7483 34.6449 21.2507 33.7608 20.8194L33.5533 20.7177C32.4129 20.1577 31.2345 19.5787 30.0276 19.1285C29.2519 18.8555 28.4615 18.6264 27.66 18.4423C27.3169 18.3555 26.9617 18.2674 26.6145 18.1711C26.5494 18.1535 26.4789 18.1413 26.4125 18.1277L26.3135 18.1087L26.2185 18.0897L26.3026 17.7982L26.3867 17.8199C26.723 17.908 27.0647 17.9921 27.4024 18.0735C28.1685 18.2606 28.9618 18.4532 29.7225 18.7081C30.7209 19.0627 31.6971 19.4766 32.6461 19.9475C33.1397 20.1807 33.6279 20.4425 34.1012 20.6947C34.5744 20.9469 35.0422 21.1964 35.5223 21.4242C37.0776 22.1646 38.271 23.1369 39.1714 24.3994C39.1886 24.4158 39.2083 24.4295 39.2297 24.44L39.2486 24.2787C39.2893 23.9356 39.3273 23.6129 39.3598 23.2928C39.3532 23.2817 39.3454 23.2713 39.3368 23.2616C39.3246 23.2454 39.311 23.2277 39.3002 23.2115C38.7133 22.2405 37.9649 21.3769 37.0871 20.6581C36.2477 19.9706 35.2185 19.3793 33.8503 18.799C32.8685 18.3827 31.8271 17.9853 30.7558 17.607L30.3409 17.4619C29.3235 17.0836 28.2864 16.7604 27.2342 16.4937C26.2009 16.2537 25.112 16.1601 24.0584 16.0706L23.9784 16.0625C22.8827 15.9689 21.7626 15.9269 20.6792 15.897H20.4934C19.504 15.8445 18.5138 15.9826 17.5766 16.3039C17.3501 16.3852 17.2552 16.4706 17.2376 16.6103C17.2009 16.9181 17.1779 17.2354 17.1548 17.5419C17.1481 17.6355 17.1413 17.729 17.1331 17.8226L18.058 17.6951H18.0702L18.1434 17.6599L18.2573 17.8538L18.1136 17.8728L18.0797 17.8918C18.0221 17.9295 17.9583 17.9566 17.8912 17.9718C17.1331 18.1074 16.3494 18.243 15.6605 18.6322C15.6229 18.6507 15.5795 18.6536 15.5398 18.6403H15.5222H15.4788L15.1764 18.8491L15.2876 18.9522L15.3635 18.8925C15.4658 18.8027 15.5834 18.7319 15.7107 18.6837C16.4361 18.4613 17.0938 18.2769 17.7203 18.1236L17.8044 18.1033C18.3497 17.9526 18.9047 17.8393 19.4655 17.7643C19.9498 17.7143 20.4364 17.6899 20.9233 17.6911ZM39.1863 24.6123L39.2446 24.6895L39.2568 24.7045C39.2568 24.6923 39.269 24.6801 39.2744 24.6692L39.2595 24.6584L39.1863 24.6123ZM13.7878 23.3023C13.6848 23.5017 13.5803 23.6996 13.4773 23.8949C13.5116 23.8476 13.5586 23.8109 13.6129 23.7891C13.6609 23.624 13.7175 23.4615 13.7824 23.3023H13.7878ZM39.4887 23.1518L39.5049 23.1721C39.5049 23.1572 39.5049 23.1423 39.5049 23.1274L39.4887 23.1518ZM20.1557 15.5811C20.5205 15.5811 20.8853 15.5987 21.2406 15.615C22.3606 15.6652 23.4956 15.7506 24.594 15.8265L24.7025 15.8347C25.8362 15.9174 27.0417 16.0299 28.2011 16.4245L30.0832 17.0605L31.3728 17.4972C32.8124 17.9911 34.2115 18.5959 35.5575 19.3061C36.9207 20.0215 38.105 21.0352 39.0222 22.2717C39.1375 22.4223 39.2405 22.5782 39.3503 22.7436L39.4209 22.8521L39.4276 22.8386C39.4195 22.8114 39.41 22.783 39.3992 22.7545C39.3536 22.6524 39.3341 22.5406 39.3422 22.429C39.3788 22.1863 39.2446 22.0222 39.1035 21.8432V21.8365C38.4255 20.9984 37.5767 20.3557 36.7603 19.7699C36.2355 19.3915 35.6606 19.0593 35.106 18.7366C34.9026 18.6172 34.691 18.4952 34.4849 18.3718C32.8143 17.3724 31.2087 16.7446 29.5774 16.4584C29.336 16.4101 29.0981 16.3453 28.8655 16.2645C28.7625 16.2306 28.654 16.1967 28.5482 16.1655L28.2417 16.076L28.5509 15.9933C28.6609 15.9658 28.7759 15.9658 28.8859 15.9933C29.0689 16.034 29.2506 16.072 29.4283 16.1086C29.869 16.1994 30.3246 16.2944 30.7653 16.4205C31.4168 16.5863 32.0521 16.8101 32.6638 17.089C33.9927 17.7467 35.2795 18.4545 36.4837 19.123C37.3082 19.5814 38.073 20.2079 38.9639 21.1435C39.1236 21.3193 39.2709 21.5059 39.4046 21.7022L39.5104 21.85C39.5402 21.77 39.5646 21.6995 39.5849 21.6317C39.646 21.4229 39.7138 21.2127 39.7789 21.0079C39.947 20.5209 40.0798 20.0224 40.1762 19.5163C40.2879 18.9424 40.281 18.3517 40.1558 17.7806C39.749 16.2089 39.2568 15.0848 38.5544 14.1342C38.0119 13.3965 37.3922 12.6344 36.5759 12.0513C35.9266 11.5857 35.242 11.1713 34.5283 10.8119C33.7732 10.4462 32.9976 10.1243 32.2054 9.8478L31.8976 9.73524C30.7531 9.31352 29.5693 8.87823 28.2946 8.84569C27.9109 8.83484 27.5203 8.80094 27.1447 8.76704C26.4887 8.68922 25.8268 8.67242 25.1676 8.71687C24.8218 8.75077 24.4679 8.77382 24.1262 8.79823C23.4127 8.83148 22.702 8.91029 21.9986 9.03418C20.9138 9.24979 19.8194 9.7922 18.6641 10.694C18.3042 10.9977 17.9778 11.3391 17.6905 11.7123C17.6118 11.8059 17.5332 11.9008 17.4532 11.9944C16.3127 13.3287 15.7147 14.5708 15.5751 15.8943C15.5534 16.0937 15.5507 16.3011 15.5466 16.4991C15.5466 16.5954 15.5466 16.6903 15.5466 16.7852V16.891H15.5195C15.51 16.9127 15.4991 16.9344 15.4883 16.9561C15.4327 17.0714 15.4178 17.112 15.5046 17.1771L15.5561 17.2165L15.0774 18.6227L15.3934 18.6105L15.2062 18.5915L16.8701 17.8348L17.0152 16.5262L16.3372 16.7663L16.5785 16.4951L16.6029 16.4652C16.6287 16.4222 16.667 16.3881 16.7128 16.3676C16.8701 16.3106 17.026 16.251 17.1833 16.1913C17.5863 16.0299 17.9973 15.8891 18.4146 15.7696C18.9844 15.6316 19.5696 15.5683 20.1557 15.5811ZM39.4914 22.1212C39.53 22.2284 39.5403 22.3438 39.5212 22.4562C39.5165 22.4849 39.5165 22.5142 39.5212 22.543L39.5822 22.3273C39.6839 21.9653 39.7883 21.5897 39.9104 21.2249L39.966 21.0622C40.164 20.475 40.3538 19.9163 40.3836 19.3197C40.3728 19.3956 40.3619 19.4729 40.3497 19.5502C40.2503 20.0637 40.1143 20.5694 39.9429 21.0635C39.8778 21.2669 39.8073 21.4703 39.7504 21.6832C39.7287 21.7592 39.7016 21.8351 39.669 21.9219L39.6161 22.067L39.5619 22.2229L39.4914 22.1212ZM14.8889 18.8071C14.8971 18.86 14.9065 18.9142 14.9201 18.9685C14.9313 19.033 14.9257 19.0993 14.9038 19.161C14.9038 19.1759 14.8957 19.1908 14.893 19.2058C14.8686 19.321 14.8387 19.4376 14.8103 19.5502C14.7446 19.7841 14.6993 20.0232 14.6747 20.2648C14.6346 20.9796 14.4846 21.684 14.2299 22.3531C14.3424 22.1212 14.4523 21.8839 14.5445 21.6439C14.7316 21.1544 14.8957 20.6187 14.8401 20.0275C14.8076 19.6926 14.8401 19.3346 15.1886 19.0973L14.8998 18.8261L14.9323 18.8017L14.8889 18.8071ZM36.0254 19.0783C36.3115 19.2532 36.5935 19.4349 36.8634 19.6288C37.5005 20.0684 38.1021 20.5571 38.6628 21.0906C37.8574 20.2648 37.1522 19.7034 36.3983 19.2844L36.0254 19.0783ZM15.7351 18.864C15.7017 18.8768 15.6699 18.8931 15.6402 18.9129L15.693 18.8979V18.9115C15.7052 18.8912 15.7269 18.8749 15.7351 18.86V18.864ZM24.7513 18.1711C25.6341 18.3176 26.5359 18.4735 27.4119 18.6959C26.537 18.4648 25.6484 18.2895 24.7513 18.1711ZM22.9885 7.95613C22.9885 8.08089 22.9763 8.207 22.9709 8.32904C22.9709 8.39413 22.9709 8.46464 22.9641 8.52024V8.59889L22.8854 8.60567C22.7797 8.61381 22.6793 8.61652 22.5817 8.61788C22.399 8.61388 22.2167 8.63394 22.0393 8.67754C21.3744 8.87422 20.7207 9.10689 20.0812 9.37454C19.616 9.57659 19.1319 9.80033 18.7984 10.1312C18.0837 10.8266 17.4236 11.576 16.824 12.3727C16.364 12.988 15.9857 13.6603 15.6985 14.3729C15.3832 15.1734 15.2231 16.0266 15.2266 16.8869C15.2164 17.1049 15.1706 17.3198 15.091 17.5229C14.9463 17.8789 14.8695 18.2588 14.8645 18.643L15.3283 17.2775C15.2799 17.2232 15.2517 17.1541 15.2482 17.0815C15.2448 17.0089 15.2663 16.9374 15.3093 16.8788C15.3282 16.8444 15.3432 16.808 15.354 16.7703C15.354 16.6835 15.354 16.594 15.354 16.4991C15.354 16.2957 15.354 16.0923 15.3825 15.8781C15.5276 14.5139 16.1378 13.2433 17.3027 11.8805C17.3813 11.7901 17.4599 11.6965 17.5386 11.5998C17.8347 11.2172 18.1706 10.8672 18.5407 10.5556C19.734 9.64032 20.8487 9.08571 21.9647 8.86467C22.6313 8.74596 23.3048 8.66942 23.9811 8.6355L23.8767 8.4999V8.59754H23.7858C23.72 8.60143 23.6543 8.58885 23.5946 8.56092V8.58804L23.0061 8.6694V8.56906C23.0061 8.41447 22.998 8.25988 22.9926 8.10801C22.998 8.05783 22.9966 8.00088 22.9953 7.95478L22.9885 7.95613ZM35.8708 11.372L35.887 11.3815C35.887 11.3815 35.8748 11.3679 35.8694 11.3598L35.8708 11.372ZM36.679 5.15322C36.6559 5.22509 36.6329 5.28882 36.6112 5.3634C36.5399 5.61528 36.452 5.86216 36.3481 6.10244C36.1515 6.52959 35.9413 6.95674 35.7338 7.37033C35.5697 7.69984 35.4016 8.04834 35.2416 8.37786C34.9118 9.04402 34.7831 9.79181 34.8714 10.5299C34.8763 10.586 34.8997 10.6389 34.9378 10.6804C35.1372 10.797 35.3446 10.9028 35.5589 11.0153L35.6552 11.0655C35.5779 10.1285 35.9047 9.34335 36.241 8.69381C36.401 8.38328 36.5664 8.06868 36.7264 7.76493C36.9217 7.39609 37.1237 7.01369 37.3163 6.63536C37.386 6.51619 37.4188 6.37904 37.4106 6.24122C37.4024 6.10341 37.3536 5.97112 37.2702 5.86107C37.121 5.66309 36.9529 5.47324 36.7915 5.29018L36.679 5.15322ZM34.7114 10.7129L34.7643 10.7401C34.7441 10.705 34.7282 10.6677 34.7168 10.6289L34.7114 10.7129ZM34.4985 10.4417L34.5405 10.4594C34.5405 10.42 34.5405 10.3807 34.5405 10.3414L34.4985 10.4417ZM34.169 10.3061L34.2639 10.3495L34.4551 10.0322L34.5473 10.0865C34.5365 9.81205 34.5681 9.53763 34.6409 9.27284C34.9378 8.35209 35.3189 7.44084 35.6755 6.56078L35.6918 6.52145C35.9562 5.88141 36.1908 5.2495 36.1596 4.54843C36.1611 4.44559 36.1339 4.34437 36.0809 4.2562C36.028 4.16802 35.9514 4.0964 35.8599 4.04941C35.7447 3.9907 35.6245 3.94259 35.5006 3.90567L35.4138 3.87719L35.4057 3.92194C35.369 4.72607 35.2701 5.71461 34.8632 6.56756L34.5473 7.23608L35.2253 3.90025V3.80532H35.205C35.18 3.79946 35.1546 3.79539 35.129 3.79312C35.1172 3.81858 35.1072 3.84486 35.0992 3.87177C35.0883 3.90296 35.0761 3.93821 35.0599 3.97618L34.8863 4.38299V3.76871C34.852 3.80177 34.8256 3.84208 34.809 3.88669C34.7905 3.98593 34.7819 4.08677 34.7832 4.18772C34.7832 4.2379 34.7832 4.28671 34.7832 4.33689C34.718 5.42166 34.3738 6.47121 33.7838 7.38389L33.6265 7.30388C33.7093 7.0937 33.8001 6.88351 33.8896 6.68011C34.0585 6.31659 34.2034 5.94243 34.3235 5.56003C34.2788 5.67258 34.2354 5.78377 34.1879 5.89497C34.0089 6.35737 33.8245 6.8347 33.6103 7.29168C33.3391 7.85307 33.0258 8.40091 32.718 8.93112C32.6095 9.11689 32.497 9.30945 32.3885 9.50201C32.4045 9.50358 32.4199 9.50865 32.4338 9.51685C32.4476 9.52505 32.4594 9.53619 32.4685 9.54947C32.5349 9.64981 32.5702 9.65253 32.5743 9.65253C32.5838 9.65253 32.6204 9.64303 32.699 9.51692C32.8563 9.27826 33.0245 9.04231 33.1858 8.81314L33.3553 8.59211L33.457 8.41311L33.5926 8.57177L33.5547 8.62737C33.5398 8.64771 33.5262 8.66805 33.5113 8.68703L32.9133 9.75287L33.556 10.0241L33.8842 9.42065C34.2205 8.80094 34.5622 8.16089 34.9134 7.53576C34.9799 7.41372 35.0585 7.2971 35.1331 7.18455L35.1941 7.0937L35.2931 6.89843L35.4192 7.07471L35.3867 7.12489L35.3487 7.1832L33.8571 10.1421L33.9208 10.1719L34.2544 9.73389L34.4361 9.83017L34.169 10.3061ZM32.6353 9.8261L32.6611 9.83559L32.6746 9.81254C32.6604 9.81621 32.6459 9.81848 32.6312 9.81932L32.6353 9.8261ZM32.257 9.6905H32.2719L32.398 9.7366C32.3806 9.71767 32.3643 9.69774 32.3492 9.67694H32.3139L32.257 9.6905ZM37.5184 6.63671C37.5061 6.66384 37.4939 6.69096 37.479 6.71943C37.2851 7.09776 37.0831 7.48152 36.8878 7.85172C36.7291 8.15411 36.5637 8.46871 36.4037 8.77789C36.2408 9.08191 36.1047 9.39951 35.9969 9.72711C36.2532 9.12774 36.5637 8.54329 36.8647 7.97783C36.9854 7.74866 37.1102 7.51271 37.2309 7.27947C37.3407 7.06907 37.4354 6.8511 37.5143 6.62722L37.5184 6.63671ZM31.9586 9.58201L32.1132 9.63761L32.1593 9.55625C32.2949 9.31759 32.4305 9.07757 32.5661 8.84433L32.7085 8.60025L32.7465 7.26049L32.9011 7.24828C32.9011 7.10048 32.9011 6.95131 32.8889 6.80351C32.8767 6.6557 32.8807 6.54586 32.878 6.41704C32.8685 6.08345 32.8604 5.73902 32.8319 5.40137C32.8319 5.3634 32.8319 5.32543 32.8211 5.28611C32.8389 5.67097 32.823 6.05665 32.7736 6.43873C32.7424 6.68418 32.7166 6.9364 32.6909 7.17913C32.6434 7.62797 32.5946 8.09309 32.5173 8.54601C32.4557 8.8195 32.3557 9.08292 32.2203 9.32843C32.1946 9.37996 32.1688 9.43149 32.1444 9.48438C32.1224 9.51279 32.0939 9.53559 32.0614 9.55091C32.0289 9.56623 31.9932 9.57364 31.9573 9.57252L31.9586 9.58201ZM29.0866 8.58804C29.195 8.60025 29.3035 8.61245 29.412 8.62737C30.0778 8.71415 30.7016 8.95824 31.3104 9.19554C31.484 9.26335 31.663 9.33115 31.8393 9.39895C31.8918 9.41262 31.9468 9.41262 31.9993 9.39895L32.0698 9.26335C32.1973 9.03316 32.2918 8.78621 32.3505 8.52973C32.4278 8.08224 32.4753 7.61984 32.5227 7.1737C32.5485 6.92962 32.5756 6.6774 32.6055 6.4306C32.7329 5.40951 32.6353 4.54436 32.3085 3.7877C32.063 3.21952 31.7729 2.63778 31.1884 2.31505C31.1521 2.29033 31.1108 2.27382 31.0675 2.26667C31.0241 2.25951 30.9797 2.26189 30.9374 2.27364C30.8951 2.28538 30.8558 2.30621 30.8223 2.33467C30.7889 2.36314 30.762 2.39855 30.7436 2.43844L30.6989 2.52252C30.6687 2.5869 30.6324 2.64821 30.5904 2.70558C29.9558 3.5192 29.6941 4.49961 29.5218 5.34577C29.3851 6.08113 29.2855 6.82292 29.2235 7.56831C29.1937 7.87477 29.1611 8.19073 29.1245 8.49854L29.1408 8.51888L29.0866 8.58804ZM29.4771 8.81586C29.7646 8.87281 30.0466 8.94332 30.326 9.02468C30.0488 8.92954 29.7645 8.85654 29.4757 8.80636L29.4771 8.81586ZM26.944 8.58533L27.1623 8.60567C27.4932 8.63415 27.8404 8.66398 28.1699 8.67754L27.999 8.66262L27.3739 8.60703L27.2695 8.59618L27.2952 8.49448C27.6519 7.14794 27.8973 5.7458 28.136 4.38842C28.3231 3.3158 28.517 2.21063 28.7679 1.11632C28.7215 1.20025 28.6478 1.2658 28.5591 1.30209C28.5591 1.32108 28.5496 1.35362 28.5455 1.37532C28.5425 1.40832 28.5366 1.44099 28.5279 1.47295C28.4411 1.79569 28.3516 2.11707 28.2634 2.43844L28.1278 2.92933L28.2634 2.96458L28.254 3.04188C28.2255 3.28325 28.1984 3.53005 28.1726 3.76735C28.1143 4.30977 28.0546 4.8671 27.9543 5.41086C27.8295 6.08888 27.6654 6.75605 27.5081 7.4083C27.4417 7.6795 27.3725 7.96427 27.3088 8.24225C27.2532 8.45244 27.1352 8.56499 26.9427 8.57584L26.944 8.58533ZM24.1859 8.40769L24.0055 8.63415H24.1153C24.4557 8.60974 24.8083 8.58669 25.1514 8.55279C25.3236 8.53516 25.4971 8.52702 25.6694 8.52431L25.2327 8.50397L24.5859 8.47549H24.5561V8.4877L24.3093 8.56635L24.1859 8.40769ZM27.4932 8.43074L28.0126 8.47685C28.3245 8.50397 28.6418 8.53109 28.9618 8.56499C28.9382 8.54399 28.922 8.51593 28.9157 8.48498V8.46193C28.9014 8.39512 28.8955 8.3268 28.8981 8.25853C28.9211 8.00766 28.9415 7.75273 28.9604 7.50729C29.0418 6.48348 29.1245 5.42442 29.4106 4.38842C29.6541 3.58341 29.9976 2.81213 30.4331 2.09266C30.5121 1.96486 30.6336 1.86887 30.7762 1.82145C31.0021 1.7458 31.2428 1.72466 31.4784 1.75978C31.7141 1.7949 31.9381 1.88526 32.1322 2.0235C32.9336 2.60795 33.4882 3.25342 33.811 3.99381C33.8964 4.18637 33.9981 4.3735 34.1066 4.57012L34.1703 4.68674C34.2515 4.44754 34.2713 4.19174 34.2277 3.94291C34.1841 3.69409 34.0785 3.46024 33.9208 3.26291C33.8828 3.21138 33.8462 3.1585 33.8096 3.10426C33.7341 2.98726 33.6498 2.8762 33.5574 2.77203C33.4218 2.63643 33.297 2.48455 33.1709 2.34217C32.8454 1.94978 32.486 1.58677 32.0969 1.25734C31.1857 0.550851 30.2012 0.225403 29.1747 0.299985C29.1432 0.358028 29.1069 0.413362 29.0662 0.465421C28.9523 0.62272 28.9157 0.690522 28.9889 0.775951L29.016 0.81392L29.0052 0.857313C28.7231 2.04113 28.5116 3.24664 28.3068 4.41283C28.0777 5.73631 27.8363 7.1059 27.4932 8.42939V8.43074ZM23.436 6.3967L23.4075 6.46586C23.3752 6.53371 23.3385 6.59939 23.2977 6.66248C23.2297 6.74939 23.1832 6.85115 23.1621 6.95945C23.1458 7.33507 23.1621 7.70662 23.1729 8.09987L23.1851 8.46329L23.3899 8.43617L23.28 7.84901L23.4333 7.91545C23.4892 7.94635 23.5354 7.99207 23.567 8.04758C23.5986 8.10308 23.6142 8.16622 23.6123 8.23005C23.6258 8.33447 23.6367 8.38735 23.6882 8.40769L23.6611 7.92359L23.9987 8.35887L24.1859 8.12428L24.3649 8.34124L24.1994 6.84961L24.5344 7.62662C24.7134 7.17642 24.8056 6.80486 24.6496 6.39534L24.8151 6.3289L24.8517 6.41975C24.8707 6.35466 24.8924 6.29228 24.9127 6.22991C24.9954 5.9804 25.0741 5.74445 24.9873 5.49358L24.9222 5.31187L25.0497 5.36069L24.9805 5.24678L24.4503 5.65359L24.4408 5.68343L24.2794 5.70105C24.2399 5.72072 24.2023 5.74386 24.1669 5.77021C24.112 5.81443 24.0501 5.84926 23.9838 5.87327C23.7289 5.95599 23.6407 6.08481 23.6706 6.33296C23.6866 6.51331 23.6902 6.69454 23.6814 6.87538C23.6814 6.95267 23.6814 7.02996 23.6814 7.1059L23.5038 7.11404L23.436 6.3967ZM24.7079 8.28972L25.2395 8.31413C25.805 8.33989 26.3392 8.36294 26.883 8.39413C27.0308 8.40227 27.0932 8.35074 27.1312 8.18801C27.1962 7.91681 27.2668 7.62662 27.3305 7.35405C27.4878 6.70316 27.6505 6.03057 27.7739 5.36476C27.8743 4.82235 27.9339 4.2718 27.9909 3.73752L27.9977 3.67786L27.4186 5.87869L27.2437 5.84344C27.291 5.47038 27.3603 5.10044 27.4512 4.73556C27.6587 3.94906 27.8783 3.15172 28.0899 2.38014C28.1803 2.05921 28.2707 1.73783 28.3611 1.416C28.367 1.39102 28.3711 1.36564 28.3733 1.34006C28.3855 1.25599 28.3977 1.16784 28.4736 1.13666C28.6458 1.06207 28.6472 0.965796 28.635 0.773239C28.635 0.735271 28.635 0.69459 28.635 0.652553L28.4655 0.727134C28.2201 0.832905 27.9882 0.933251 27.7685 1.04851C27.6888 1.10224 27.6306 1.18247 27.6044 1.27497C27.5163 1.58415 27.4376 1.90281 27.363 2.21199C27.3346 2.32861 27.3061 2.44522 27.2763 2.56184L27.2546 2.64863L27.0512 2.59574L27.2681 1.52855L27.2356 1.57872L27.161 1.53126C27.1394 1.51331 27.1117 1.50455 27.0837 1.50685C27.0376 1.52041 26.9915 1.62211 26.9711 1.66551C26.9196 1.77941 26.8667 1.89468 26.8138 2.00858C26.6281 2.41539 26.4369 2.8222 26.2809 3.24121C26.0246 3.92601 25.8009 4.63115 25.5758 5.35527C25.5387 5.47098 25.5035 5.5876 25.47 5.70512L25.4782 5.71868H25.4673C25.3954 5.96277 25.3317 6.20685 25.2612 6.44687C25.2002 6.66655 25.1392 6.88758 25.0754 7.1059C24.9846 7.41779 24.891 7.72696 24.8042 8.02665C24.7622 8.11479 24.7351 8.20564 24.7079 8.29378V8.28972ZM24.5059 8.01851L24.533 8.25988C24.5615 8.16496 24.59 8.06868 24.6198 7.9724L24.7134 7.65781C24.6822 7.73917 24.6483 7.81782 24.6157 7.89511L24.5411 8.08767L24.5059 8.01851ZM33.0068 7.95342L32.9946 8.00224C32.9797 8.05919 32.9634 8.12835 32.939 8.19479C32.9879 8.10936 33.0353 8.02258 33.0828 7.93715C33.0582 7.9457 33.0327 7.95117 33.0068 7.95342ZM32.9146 7.7134V7.7812C32.9272 7.77894 32.94 7.77894 32.9526 7.7812C33.0136 7.7812 33.0285 7.769 33.0285 7.769C33.0317 7.74879 33.0317 7.72819 33.0285 7.70798L32.9146 7.7134ZM33.2048 7.63882C33.2048 7.65238 33.2048 7.6673 33.2048 7.68221V7.70255C33.2726 7.57644 33.3404 7.44762 33.3987 7.32015C33.3852 7.34456 33.3703 7.36762 33.3553 7.39202L33.2048 7.63882ZM36.1257 5.86378C36.0471 6.10515 35.9521 6.34517 35.8545 6.58519L35.8382 6.62451C35.7379 6.86724 35.6362 7.11404 35.5358 7.36084L35.5752 7.28219C35.7799 6.87538 35.9915 6.4428 36.1881 6.01837L36.245 5.88276L36.1257 5.86378ZM32.7248 3.96533C32.7641 4.09009 32.8048 4.21891 32.8387 4.34774C32.9243 4.68556 32.9823 5.02976 33.0123 5.37696C33.0407 5.71868 33.0502 6.06583 33.0584 6.40212C33.0584 6.53772 33.0651 6.65977 33.0692 6.78859C33.076 6.95809 33.0801 7.1276 33.0841 7.2971C33.1099 7.1615 33.137 7.03674 33.1628 6.91741C33.1791 6.84148 33.194 6.76825 33.2075 6.69909L33.3838 6.71808V6.98928C33.4537 6.86436 33.4982 6.72684 33.5148 6.58464C33.5313 6.44244 33.5195 6.29837 33.4801 6.16075C33.4631 6.08896 33.4631 6.01421 33.4801 5.94243C33.4801 5.91666 33.4882 5.8909 33.4909 5.86513L33.5316 5.34442L33.7269 6.07803C33.8126 5.83131 33.799 5.56094 33.6889 5.32408C33.6687 5.27134 33.659 5.21512 33.6604 5.15864C33.6604 5.13966 33.6604 5.11932 33.6604 5.10033L33.6265 4.80065L33.7621 4.96473C33.5989 4.45983 33.3578 3.98353 33.0475 3.5531L33.1167 3.6982L33.0177 3.89075L32.8821 4.20942L32.7248 3.96533ZM24.8951 6.99606C24.8951 7.02861 24.8869 7.06115 24.8815 7.0937L24.8937 7.05437L24.9032 7.01776L24.8951 6.99606ZM25.1934 5.61427C25.2082 5.84603 25.1693 6.07809 25.0795 6.29228C25.0246 6.43512 24.9868 6.58397 24.9669 6.7357L24.9588 6.8252C24.9995 6.6896 25.0388 6.54044 25.0781 6.39805C25.1459 6.15261 25.2137 5.90175 25.2897 5.65224L25.1934 5.61427ZM33.6943 6.5323C33.6885 6.60887 33.6753 6.6847 33.655 6.75876C33.7906 6.44823 33.9086 6.13363 34.0266 5.82717C34.1622 5.46782 34.3086 5.09762 34.4659 4.74234L34.6015 4.43045C34.6015 4.39655 34.6015 4.36401 34.6083 4.33011C34.6151 4.29621 34.6083 4.23654 34.6083 4.1945C34.6062 4.08076 34.6162 3.96712 34.6381 3.8555C34.6652 3.77526 34.7118 3.70303 34.7737 3.64531C34.7936 3.62379 34.8121 3.60115 34.8293 3.57751L34.8578 3.53819C34.7548 3.51784 34.6503 3.49615 34.5473 3.47174C34.4177 3.44547 34.3012 3.37501 34.2178 3.2724C33.692 2.45559 33.0339 1.73198 32.2705 1.13123C31.9604 0.885683 31.6182 0.68358 31.2535 0.53051C31.5882 0.694138 31.9038 0.894236 32.1946 1.12716C32.592 1.46114 32.9587 1.8301 33.2902 2.22962C33.4164 2.36522 33.5452 2.51709 33.6754 2.65677C33.7736 2.76808 33.8642 2.88587 33.9466 3.00933C33.9818 3.06086 34.0171 3.11375 34.0537 3.16392C34.2508 3.41169 34.3743 3.70989 34.41 4.02448C34.4457 4.33908 34.3923 4.65737 34.2557 4.94303L34.1825 5.11525L34.0957 4.94981C34.0428 4.84947 33.9913 4.75454 33.9398 4.66098C33.8299 4.46029 33.7255 4.27044 33.6374 4.07111C33.3214 3.35919 32.7912 2.73948 32.0169 2.17266C31.8322 2.03897 31.6148 1.95747 31.3877 1.93671L31.7105 2.10757C32.2149 2.372 32.4387 2.80593 32.6597 3.22494C32.7139 3.32664 32.7682 3.43377 32.8265 3.53276L32.7194 3.60463L32.855 3.82024V3.81075L32.9146 3.69548L32.5078 2.81542L32.779 2.99849C33.2401 3.31444 34.0564 4.76132 33.9737 5.26577L33.9411 5.45968L33.9317 5.44748C33.9744 5.60485 33.9844 5.76931 33.961 5.93071C33.9377 6.0921 33.8816 6.247 33.796 6.38585L33.6943 6.5323ZM23.3885 6.07532C23.2139 6.23166 23.1033 6.44709 23.078 6.68011L23.1417 6.57298C23.1784 6.51686 23.2115 6.45843 23.2407 6.39805C23.2543 6.36686 23.2651 6.33703 23.2773 6.30584C23.3067 6.22482 23.3454 6.14747 23.3926 6.07532H23.3885ZM36.6098 4.80336L36.7115 4.92134C36.7807 5.0027 36.8471 5.08406 36.9244 5.16542C37.0898 5.3512 37.2593 5.54375 37.4126 5.74716C37.5385 5.91029 37.6007 6.11373 37.5875 6.3194C37.639 5.91259 37.4641 5.61969 37.0451 5.17491C36.8755 4.98717 36.7205 4.78681 36.5813 4.57555C36.4796 4.4291 36.3752 4.27993 36.2627 4.14297C36.1459 3.97291 35.9871 3.83602 35.8016 3.74566C35.5441 3.66687 35.2819 3.60437 35.0165 3.55853L34.9582 3.54768L35.0775 3.61548C35.1308 3.60146 35.1869 3.60146 35.2402 3.61548C35.2741 3.62226 35.3134 3.62904 35.3568 3.63446L35.4545 3.64531L35.445 3.6887L35.5508 3.72532C35.6861 3.765 35.8174 3.81767 35.9426 3.88262C36.0626 3.94534 36.1631 4.03988 36.2329 4.15589C36.3028 4.2719 36.3393 4.40489 36.3386 4.54029C36.3386 4.63386 36.3386 4.72471 36.3386 4.8115L36.5081 4.8454L36.3535 5.59664C36.3861 5.50307 36.4159 5.4068 36.4471 5.30781C36.4783 5.20881 36.523 5.06914 36.5651 4.94574L36.6098 4.80336ZM23.5743 5.92209V5.93294C23.5808 5.92332 23.588 5.91424 23.596 5.90581L23.5743 5.92209ZM26.8464 1.49194C26.8143 1.52525 26.7844 1.56058 26.7569 1.59771C26.665 1.74149 26.5908 1.89584 26.5359 2.0574C26.4911 2.17868 26.4395 2.2973 26.3813 2.41268C26.2614 2.65561 26.1598 2.90718 26.0775 3.16528C25.9256 3.61005 25.7683 4.06839 25.4185 4.42367C24.9657 4.87936 24.4723 5.29285 23.9445 5.65902L23.8279 5.74038C23.8596 5.7261 23.8922 5.71387 23.9255 5.70377C23.9746 5.68484 24.0203 5.65829 24.0611 5.62512C24.1066 5.59122 24.1552 5.56171 24.2062 5.53697C24.2493 5.51959 24.2953 5.51039 24.3418 5.50985L25.028 4.99049L25.3331 5.49901C25.3534 5.43392 25.3724 5.3634 25.3927 5.30374C25.6192 4.5769 25.8443 3.86906 26.1006 3.18019C26.2592 2.75576 26.4531 2.33945 26.643 1.93536L26.8016 1.59228C26.8148 1.55806 26.8297 1.52456 26.8464 1.49194ZM30.9999 2.06554C31.0924 2.06711 31.183 2.09232 31.263 2.13876C31.8773 2.47641 32.1824 3.05951 32.4346 3.6304C32.4143 3.55039 32.3953 3.46903 32.3804 3.38495L32.3505 3.21409L31.3565 1.92993C31.1734 1.91621 30.9894 1.93738 30.8141 1.99231C30.7148 2.02628 30.6298 2.09267 30.5728 2.1808C30.4128 2.46014 30.246 2.76254 30.0887 3.08663C30.1951 2.90896 30.3134 2.73862 30.4426 2.57676C30.478 2.52793 30.5084 2.47569 30.5334 2.42082L30.5823 2.32996C30.6218 2.25158 30.682 2.18544 30.7563 2.13862C30.8306 2.0918 30.9162 2.06607 31.004 2.06418L30.9999 2.06554ZM27.0851 1.32921C27.1136 1.32928 27.142 1.33385 27.1691 1.34277L27.3047 1.13123C27.2559 1.1692 27.2044 1.20581 27.1542 1.24243C27.104 1.27904 27.0688 1.30345 27.0281 1.33464C27.0468 1.33029 27.0659 1.32847 27.0851 1.32921ZM27.5542 0.968508V0.995628C27.589 0.95287 27.6319 0.917388 27.6804 0.891214C27.9068 0.773239 28.1414 0.671537 28.3896 0.564411C28.4885 0.521018 28.5902 0.477625 28.6947 0.428808L28.8533 0.358294L28.8181 0.529154C28.8489 0.467849 28.8857 0.409714 28.9279 0.355582L28.9726 0.293205C28.5319 0.316257 28.117 0.504745 27.6763 0.877654C27.6329 0.914267 27.5936 0.941387 27.5542 0.968508ZM28.8113 0.832905C28.8113 0.857313 28.8113 0.881722 28.8113 0.907486L28.8235 0.854601C28.8187 0.847825 28.8146 0.840552 28.8113 0.832905Z" fill="#0E8499"/>
<path d="M27.748 43.579C28.2606 43.678 28.7719 43.7756 29.2831 43.876C29.3997 43.899 29.5136 43.9356 29.6289 43.9627C30.1713 44.0902 30.6974 44.2516 31.2412 44.3343C32.2216 44.4848 33.2101 44.5797 34.1919 44.7126C34.7886 44.7926 35.3784 44.9201 35.9751 44.9838C36.8416 45.0869 37.7122 45.1547 38.58 45.2442C39.1468 45.3025 39.7096 45.4042 40.2778 45.4354C41.3111 45.4937 42.3389 45.7391 43.379 45.5371C43.5387 45.4978 43.6958 45.4489 43.8496 45.3906C43.8753 45.4232 43.9174 45.4801 44.0204 45.6158C43.6136 45.6876 43.2515 45.8002 42.8949 45.7988C42.2779 45.7988 41.6609 45.7364 41.0466 45.6754C40.1476 45.5846 39.2513 45.4734 38.3536 45.3662C36.852 45.1854 35.3504 45.0046 33.8488 44.8238C32.9823 44.7181 32.1077 44.6435 31.2507 44.4821C30.2445 44.2909 29.2505 44.0251 28.2538 43.781C28.0817 43.7233 27.9148 43.6512 27.7548 43.5654L27.748 43.579Z" fill="#0E8499"/>
<path d="M42.9018 45.8953H42.8937C42.2957 45.8953 41.699 45.837 41.0373 45.7705C40.3037 45.6959 39.5579 45.6078 38.8378 45.521L38.3442 45.4614C37.0045 45.3027 35.4233 45.1142 33.8381 44.9189C33.6076 44.8905 33.3757 44.8647 33.1438 44.8389C32.516 44.7684 31.8665 44.6952 31.2345 44.5759C30.4453 44.4267 29.6521 44.2287 28.8845 44.0335L28.2336 43.8721C28.1081 43.8358 27.9867 43.7862 27.8716 43.7243L27.7509 43.666L27.5339 43.6239L27.6912 43.5073L27.7102 43.4924L27.7495 43.4707L27.7902 43.4883H27.8051L28.1686 43.5575L29.3008 43.7785C29.3727 43.7921 29.4446 43.8111 29.5124 43.8301L29.648 43.8653C29.8134 43.9046 29.9802 43.948 30.1416 43.9887C30.505 44.0823 30.8806 44.1785 31.2535 44.2355C31.8353 44.325 32.4292 44.3955 33.0055 44.4647C33.3974 44.5108 33.8042 44.5596 34.2029 44.6138C34.4741 44.6504 34.7453 44.6979 35.0165 44.7427C35.3338 44.7969 35.662 44.8539 35.9861 44.8918C36.5136 44.9542 37.0506 45.0044 37.5713 45.0532C37.9049 45.0844 38.2493 45.1169 38.5897 45.1522C38.8053 45.1739 39.0236 45.2037 39.2351 45.2308C39.5782 45.2769 39.9335 45.323 40.2833 45.3434C40.5912 45.3597 40.903 45.3949 41.2041 45.4275C41.9119 45.5047 42.6428 45.5848 43.3629 45.4464C43.4669 45.4239 43.5689 45.3931 43.668 45.3542L43.8226 45.3013L43.8836 45.2824L44.1806 45.6756L44.0355 45.7C43.9066 45.7231 43.7819 45.7488 43.6612 45.7746C43.4131 45.8419 43.1585 45.8824 42.9018 45.8953ZM42.5764 45.7109C42.6821 45.7109 42.7866 45.7109 42.8923 45.7109C43.1358 45.7013 43.3776 45.6663 43.6137 45.6065L43.8538 45.5563L43.8077 45.4966L43.7182 45.5278C43.6105 45.5691 43.4999 45.6022 43.3873 45.6268C43.12 45.6786 42.8486 45.7067 42.5764 45.7109Z" fill="#0E8499"/>
<path d="M33.6482 43.1846L38.6004 44.1962L38.5868 44.2626L33.6265 43.2483L33.6482 43.1846Z" fill="#0E8499"/>
<path d="M38.656 44.3679L33.5112 43.3156L33.5885 43.0811L38.7048 44.1266L38.656 44.3679Z" fill="#0E8499"/>
<path d="M33.7812 43.3101C33.784 43.2961 32.4242 43.0065 30.7439 42.6631C29.0636 42.3197 27.6992 42.0526 27.6963 42.0666C27.6935 42.0805 29.0533 42.3702 30.7336 42.7136C32.4139 43.0569 33.7783 43.324 33.7812 43.3101Z" fill="#0E8499"/>
<path d="M32.9553 43.2511L28.479 42.3371L28.521 42.127L32.9987 43.0409L32.9553 43.2511Z" fill="#0E8499"/>
<path d="M41.0292 44.5676L39.1172 44.4143V44.3506L41.0292 44.5147V44.5676Z" fill="#0E8499"/>
<path d="M41.1105 44.6634L39.0195 44.4953L39.0426 44.2539L41.1309 44.4329L41.1105 44.6634Z" fill="#0E8499"/>
<path d="M19.5454 41.6558L19.3325 42.7013L19.2688 42.6891L19.4831 41.6436L19.5454 41.6558Z" fill="#0E8499"/>
<path d="M19.4138 41.5372L19.1646 42.7568L19.4024 42.8054L19.6516 41.5858L19.4138 41.5372Z" fill="#0E8499"/>
<path d="M4.4367 32.0239C4.08142 32.4343 3.72704 32.8461 3.37357 33.2592L3.29492 33.186C3.67099 32.7927 4.04707 32.399 4.42314 32.0049L4.4367 32.0239Z" fill="#0E8499"/>
<path d="M3.38173 33.3867L3.16748 33.1901L4.43266 31.8652L4.54928 32.028L3.38173 33.3867Z" fill="#0E8499"/>
<path d="M7.27897 32.899L8.09259 31.707L8.17666 31.7694L7.2749 32.8936L7.27897 32.899Z" fill="#0E8499"/>
<path d="M7.28304 33.0518L7.16235 32.8917L7.25863 32.7697L8.07089 31.5791L8.30413 31.7527L7.40237 32.8768L7.28304 33.0518Z" fill="#0E8499"/>
<path d="M6.67943 33.9783C6.51399 34.3336 6.34765 34.6889 6.18041 35.0442L6.13159 35.0252C6.28211 34.6713 6.43263 34.3173 6.58722 33.9661C6.58722 33.958 6.64824 33.9743 6.68078 33.9783H6.67943Z" fill="#0E8499"/>
<path d="M6.22521 35.1568L6.01367 35.0754L6.09639 34.8828C6.23199 34.5696 6.3676 34.2469 6.5032 33.9336C6.51403 33.9119 6.53229 33.8947 6.55468 33.8853C6.57707 33.8758 6.6021 33.8747 6.62524 33.8821L6.65643 33.8184L6.75406 33.9363L6.85577 34.1004L6.72966 34.0814L6.22521 35.1568Z" fill="#0E8499"/>
<path d="M7.98265 34.808L7.61788 35.8766L7.54736 35.8508L7.92841 34.7891L7.98265 34.808Z" fill="#0E8499"/>
<path d="M7.67337 35.9907L7.43335 35.9053L7.87406 34.6768L8.09645 34.7527L7.67337 35.9907Z" fill="#0E8499"/>
<path d="M7.27478 32.8936C7.11205 33.1783 6.94662 33.4617 6.78661 33.7479C6.74457 33.8211 6.71474 33.9011 6.67948 33.9784C6.67853 33.8755 6.69693 33.7734 6.73372 33.6773C6.90187 33.4061 7.09442 33.158 7.27613 32.899L7.27478 32.8936Z" fill="#0E8499"/>
<path d="M6.72436 34.2672L6.59689 34.0164L6.5874 33.9675L6.59554 33.9499C6.59554 33.9255 6.59554 33.8997 6.59554 33.874C6.59468 33.7891 6.6147 33.7052 6.65385 33.6299C6.77725 33.4346 6.91421 33.2448 7.0471 33.0617L7.15829 32.9085L7.26135 32.7295L7.34 32.8393L7.34949 32.8515L7.38068 32.9031L7.34678 32.9505C7.33322 32.9682 7.32101 32.9871 7.30881 33.0048L7.21389 33.1675C7.09591 33.375 6.97658 33.5824 6.85861 33.7913C6.83284 33.8387 6.81115 33.8889 6.7881 33.9418C6.77996 33.9621 6.77047 33.9811 6.76233 34.0001L6.72436 34.2672Z" fill="#0E8499"/>
<path d="M7.5093 37.5245L5.68408 36.9536L5.70171 36.8926L7.55405 37.4567L7.5093 37.5245Z" fill="#0E8499"/>
<path d="M7.54591 37.6284L5.57153 37.0114L5.6434 36.7822L7.69372 37.406L7.54591 37.6284Z" fill="#0E8499"/>
<path d="M9.40931 38.019C9.26166 38.0117 9.11478 37.9931 8.96995 37.9634C8.5428 37.84 8.12108 37.7017 7.698 37.5688L7.72376 37.4834L9.40253 38.0258L9.40931 38.019Z" fill="#0E8499"/>
<path d="M9.42816 38.1291L9.37527 38.1128L9.34137 38.102L9.26272 38.0952C9.15568 38.0905 9.04937 38.0751 8.94541 38.0491C8.63624 37.9596 8.32706 37.862 8.02602 37.7671L7.67074 37.6545L7.58667 37.6274L7.66532 37.3711L7.75211 37.3996L9.37934 37.9257H9.42002L9.55563 37.942L9.48376 38.06C9.47875 38.0687 9.47284 38.0769 9.46613 38.0844L9.42816 38.1291Z" fill="#0E8499"/>
<path d="M15.9614 23.4104C16.3113 21.9323 16.6923 20.3241 17.072 18.7158C16.7439 20.3403 16.4618 21.9676 15.9614 23.4104Z" fill="#0E8499"/>
<path d="M16.0456 23.4397L15.8748 23.3909L16.9853 18.6963L17.1603 18.7343C17.1078 18.9928 17.0559 19.2527 17.0043 19.514C16.7399 20.8456 16.4673 22.2233 16.0456 23.4397Z" fill="#0E8499"/>
<path d="M15.4557 16.7881C15.5791 16.6525 15.693 16.5169 15.8286 16.3895C15.9265 16.3182 16.0309 16.2564 16.1405 16.2051L16.4117 14.8965L16.4741 14.9114C16.3873 15.2179 16.2938 15.5216 16.2178 15.8294C16.2092 15.9228 16.2147 16.017 16.2341 16.1088C16.3262 16.1011 16.4171 16.0834 16.5053 16.0559C17.2565 15.7399 17.9969 15.386 18.8105 15.2423C20.1734 15.0077 21.5348 14.7839 22.9288 15.047C23.4834 15.1528 24.057 15.1555 24.6225 15.2097C24.7192 15.2221 24.8118 15.2559 24.8937 15.3087C24.236 15.2504 23.577 15.2179 22.9234 15.1284C21.835 14.9701 20.7277 14.9976 19.6486 15.2097C18.9328 15.3451 18.2248 15.519 17.5277 15.7304C16.9735 15.9279 16.4335 16.163 15.9114 16.4342C15.7459 16.5349 15.5918 16.6531 15.4517 16.7868L15.4557 16.7881Z" fill="#0E8499"/>
<path d="M15.4843 16.8855L15.4151 16.8679L15.2795 16.8082L15.3948 16.7174L15.4911 16.6089C15.5755 16.5084 15.666 16.4133 15.7623 16.3241C15.8312 16.2695 15.9069 16.2239 15.9874 16.1885L16.0552 16.1533L16.1135 15.8712C16.1148 15.8525 16.1175 15.8339 16.1216 15.8156C16.1216 15.7953 16.1311 15.775 16.1366 15.756L16.3332 14.7959L16.5759 14.8529L16.5501 14.9424C16.5257 15.0264 16.5013 15.1105 16.4783 15.1946C16.42 15.3912 16.3617 15.5932 16.3101 15.7953L16.2898 15.8943C16.2904 15.9343 16.294 15.9742 16.3006 16.0136C16.3553 16.0101 16.4092 15.9987 16.4606 15.9797C16.5759 15.9323 16.6898 15.8834 16.8037 15.8333C17.4329 15.5621 18.0838 15.2908 18.7808 15.1647C20.0501 14.9464 21.4929 14.6983 22.9303 14.9708C23.2978 15.0319 23.6687 15.0712 24.0409 15.0888C24.2293 15.101 24.4246 15.1132 24.6158 15.1322C24.726 15.1454 24.8317 15.1834 24.925 15.2434L25.2477 15.4414L24.8707 15.4075L24.2605 15.3587C23.813 15.3248 23.3506 15.2895 22.8964 15.223C21.818 15.065 20.7206 15.0921 19.6514 15.3031C18.9422 15.4371 18.2406 15.6087 17.5495 15.817C17.0875 15.9778 16.6371 16.1704 16.2016 16.3933L15.944 16.5167C15.8345 16.5764 15.7337 16.6508 15.6443 16.7377C15.6036 16.7743 15.5602 16.8123 15.5087 16.8489L15.4843 16.8855Z" fill="#0E8499"/>
<path d="M28.3475 16.001L25.2883 15.3759L25.2965 15.3379L28.3625 15.9644L28.3475 16.001Z" fill="#0E8499"/>
<path d="M28.4031 16.1004L25.1838 15.4428L25.2259 15.2285L28.4844 15.8943L28.4031 16.1004Z" fill="#0E8499"/>
<path d="M16.5025 16.6045C16.0252 16.8391 16.0239 17.3056 15.9506 17.7368C15.9319 17.8844 15.8829 18.0265 15.8069 18.1544C15.876 17.8195 15.9425 17.4846 16.0103 17.1483C16.02 17.0581 16.02 16.9672 16.0103 16.8771L16.5025 16.6045Z" fill="#0E8499"/>
<path d="M15.6252 18.5994L15.7202 18.1356L15.7771 17.8644C15.8273 17.6257 15.8775 17.3789 15.9222 17.1348C15.9296 17.08 15.9296 17.0243 15.9222 16.9694C15.9222 16.9382 15.9222 16.907 15.9222 16.8772V16.8216L16.409 16.5612C16.4294 16.549 16.4511 16.5382 16.4728 16.5273L16.5406 16.6792L16.4836 16.7091C16.1609 16.8975 16.1121 17.2257 16.0619 17.5715C16.0524 17.6312 16.0443 17.6895 16.0334 17.7478C16.0138 17.907 15.9612 18.0603 15.8788 18.198L15.6252 18.5994Z" fill="#0E8499"/>
<path d="M20.416 10.0075L21.4466 9.28613L21.4927 9.34987L20.4594 10.0686L20.416 10.0075Z" fill="#0E8499"/>
<path d="M20.4392 10.1927L20.29 9.98793L21.4684 9.16211L21.6176 9.37229L20.4392 10.1927Z" fill="#0E8499"/>
<path d="M16.6071 26.9933C16.9623 27.0069 17.3203 26.9933 17.6702 27.0381C19.0357 27.2171 20.3972 27.4137 21.76 27.6049C21.9035 27.6215 22.042 27.6677 22.1668 27.7405C21.8386 27.7025 21.5105 27.6713 21.1837 27.6239C20.1124 27.4693 19.0425 27.3052 17.9699 27.152C17.517 27.0882 17.0613 27.0435 16.6057 26.9893L16.6071 26.9933Z" fill="#0E8499"/>
<path d="M22.556 27.8747L22.1492 27.8272L21.8414 27.7933C21.619 27.7689 21.3898 27.7431 21.1634 27.7106C20.6797 27.6419 20.1965 27.5709 19.7138 27.4977C19.1361 27.4123 18.5381 27.3228 17.9509 27.24C17.6404 27.1953 17.3231 27.16 17.0153 27.1248L16.6519 27.0841H16.599H16.5447L16.4512 26.8848L16.6098 26.9037H16.6641H16.9353C17.1817 26.9023 17.428 26.915 17.673 26.9417C18.7741 27.0855 19.8928 27.2441 20.9735 27.3973L21.7627 27.5085C21.9178 27.5262 22.0675 27.5761 22.2021 27.655L22.556 27.8747Z" fill="#0E8499"/>
<path d="M16.6042 26.9852C16.2828 26.9852 15.9614 26.9784 15.6401 26.9703C15.475 26.9684 15.3106 26.9503 15.1492 26.9161C15.6347 26.8342 16.1323 26.8597 16.6069 26.9906L16.6042 26.9852Z" fill="#0E8499"/>
<path d="M16.7711 27.132L16.5826 27.0791H16.3249C16.1025 27.0791 15.872 27.0791 15.6469 27.0669C15.4755 27.0658 15.3047 27.0471 15.1371 27.0113L14.6787 26.9082L15.1438 26.8364C15.6318 26.7554 16.1313 26.7786 16.6097 26.9042H16.6694L16.7711 27.132Z" fill="#0E8499"/>
<path d="M15.0583 26.8496L14.5254 27.1669L14.581 26.9974L13.8474 27.1073L13.8379 27.0313L15.0583 26.8496Z" fill="#0E8499"/>
<path d="M14.3655 27.3636L14.4509 27.1046L13.7716 27.2063L13.739 26.9527L15.491 26.6924L14.3655 27.3636Z" fill="#0E8499"/>
<path d="M12.1131 28.2725L11.3876 28.7972L11.2737 28.6277L12.1131 28.2725Z" fill="#0E8499"/>
<path d="M11.3606 28.9229L11.1355 28.5866L12.8075 27.8828L11.3606 28.9229Z" fill="#0E8499"/>
<path d="M21.4575 17.291L25.5012 17.7399L25.4917 17.8266L21.448 17.3778L21.4575 17.291Z" fill="#0E8499"/>
<path d="M25.5703 17.926L21.3503 17.4582L21.3788 17.1924L25.6001 17.6616L25.5703 17.926Z" fill="#0E8499"/>
<path d="M18.1135 17.7729L20.3374 17.3457L20.3483 17.4081C19.7367 17.5437 19.1278 17.6793 18.5108 17.7986C18.3775 17.8057 18.2439 17.7948 18.1135 17.7661V17.7729Z" fill="#0E8499"/>
<path d="M18.4253 17.8999C18.3561 17.8976 18.2872 17.8899 18.2192 17.8768L18.1392 17.8632L18.0687 17.8768L18.0375 17.8226C18.0305 17.8124 18.0257 17.801 18.0233 17.7889C18.0208 17.7768 18.0209 17.7644 18.0234 17.7523C18.026 17.7403 18.0309 17.7289 18.038 17.7188C18.0451 17.7087 18.0541 17.7002 18.0646 17.6937L18.089 17.6788H18.1189H18.1324L20.4051 17.2422L20.4472 17.4781L20.3631 17.4958L19.8844 17.6002C19.4396 17.6978 18.9786 17.7982 18.5284 17.8863C18.4946 17.8946 18.4601 17.8991 18.4253 17.8999Z" fill="#0E8499"/>
<path d="M26.1685 8.07297L26.9983 4.9541L27.0756 4.97444L26.1969 8.08246L26.1685 8.07297Z" fill="#0E8499"/>
<path d="M26.258 8.19336L26.0532 8.1337L26.9279 4.84668L27.1801 4.91177L26.258 8.19336Z" fill="#0E8499"/>
<path d="M26.5317 3.46136L25.8157 5.8317L25.7642 5.81679L26.4761 3.41797L26.5317 3.46136Z" fill="#0E8499"/>
<path d="M25.8756 5.94504L25.6545 5.8813L26.4261 3.27637L26.635 3.42553L25.8756 5.94504Z" fill="#0E8499"/>
<path d="M27.0323 2.88477L26.4817 5.57784H26.4546L27.0051 2.88883L27.0323 2.88477Z" fill="#0E8499"/>
<path d="M26.5508 5.68223L26.3501 5.64155L26.9332 2.78711L27.1393 2.80474L26.5508 5.68223Z" fill="#0E8499"/>
<path d="M27.2886 3.77926L27.7645 1.44824L27.8039 1.45638L27.3252 3.79689L27.2886 3.77926Z" fill="#0E8499"/>
<path d="M27.3902 3.92292L27.1868 3.83207L27.6953 1.34375L27.9068 1.38579L27.8905 1.47393L27.3902 3.92292Z" fill="#0E8499"/>
<path d="M26.6931 8.00112L27.1582 6.23828L27.2138 6.25184L26.7663 8.01468L26.6931 8.00112Z" fill="#0E8499"/>
<path d="M26.8302 8.12949L26.5847 8.06846L27.0932 6.13477L27.3224 6.19036L26.8302 8.12949Z" fill="#0E8499"/>
<path d="M27.0675 1.55197L26.6607 2.81308L26.6091 2.79816C26.7366 2.37508 26.8645 1.95245 26.9929 1.53027L27.0675 1.55197Z" fill="#0E8499"/>
<path d="M26.723 2.9224L26.502 2.85731L26.9372 1.41992L27.18 1.49179L26.723 2.9224Z" fill="#0E8499"/>
<path d="M34.8335 7.27389C35.2564 6.3106 35.5307 5.28874 35.6471 4.24316C35.6797 5.33612 35.2539 6.30433 34.8335 7.27389Z" fill="#0E8499"/>
<path d="M34.9148 7.30888L34.7507 7.23836C35.1704 6.28366 35.4412 5.27022 35.5535 4.2334L35.7311 4.24018C35.7691 5.35077 35.3365 6.34474 34.9175 7.30481L34.9148 7.30888Z" fill="#0E8499"/>
<path d="M35.3013 7.0825C35.3854 6.83706 35.4776 6.59569 35.5481 6.34753C35.7027 5.81461 35.8451 5.27898 35.9671 4.83691C35.9319 5.56917 35.6742 6.33804 35.2959 7.07436L35.3013 7.0825Z" fill="#0E8499"/>
<path d="M35.3297 7.27569L35.1941 7.08313L35.2199 7.03432C35.2267 7.01855 35.2344 7.00316 35.2429 6.98821L35.2999 6.82413C35.3582 6.66141 35.4178 6.4919 35.4653 6.32376C35.5765 5.94 35.6836 5.54811 35.7785 5.20232C35.8152 5.06672 35.8504 4.93111 35.8843 4.81449L36.0986 4.03613L36.0592 4.84161C35.9985 5.61799 35.7763 6.37313 35.407 7.05872C35.407 7.07635 35.3948 7.09398 35.3894 7.11161L35.3297 7.27569Z" fill="#0E8499"/>
<path d="M33.9426 8.38086L33.11 9.80198L33.0354 9.77079C33.0331 9.7248 33.0395 9.67878 33.0544 9.63519C33.3183 9.22567 33.5864 8.81886 33.8585 8.41476C33.8707 8.39713 33.9168 8.40256 33.9466 8.39713L33.9426 8.38086Z" fill="#0E8499"/>
<path d="M33.1479 9.91286L32.9377 9.82607L32.9486 9.7637C32.9486 9.75149 32.9486 9.73793 32.9486 9.72437C32.9458 9.67712 32.9566 9.63004 32.9798 9.58877C33.2212 9.21315 33.4842 8.81312 33.7853 8.36834C33.797 8.35297 33.812 8.3403 33.829 8.33118C33.8461 8.32206 33.8649 8.3167 33.8843 8.31546L33.9521 8.2002L34.0755 8.4714L33.9941 8.48632L33.1479 9.91286Z" fill="#0E8499"/>
<path d="M33.9465 8.38688C33.9475 8.31011 33.9593 8.23387 33.9817 8.16043C34.2027 7.67904 34.4319 7.20036 34.6597 6.72168L34.7397 6.75965C34.4685 7.30206 34.2082 7.83769 33.9424 8.37875L33.9465 8.38688Z" fill="#0E8499"/>
<path d="M33.9927 8.69902L33.8435 8.38035L33.8611 8.34103C33.8618 8.32974 33.8618 8.31841 33.8611 8.30712C33.8617 8.24391 33.8742 8.18136 33.8977 8.1227C34.0659 7.75793 34.2408 7.38774 34.4117 7.03788L34.6137 6.60938L34.8578 6.72464L34.8171 6.806C34.5577 7.33123 34.2964 7.85963 34.0333 8.3912V8.39933L33.9927 8.69902Z" fill="#0E8499"/>
<path d="M33.472 8.57706C33.6279 8.21229 33.7812 7.84752 33.9412 7.4841C34.0124 7.31612 34.0972 7.15421 34.1947 7C34.0335 7.55709 33.788 8.0862 33.4666 8.56893L33.472 8.57706Z" fill="#0E8499"/>
<path d="M33.4908 8.74909L33.3986 8.63247L33.3891 8.62027L33.3552 8.5701L33.3891 8.51992C33.3891 8.51043 33.4013 8.50094 33.4081 8.4928L33.5234 8.2216C33.6332 7.96259 33.743 7.70359 33.8556 7.4473C33.9292 7.27459 34.0167 7.10816 34.1173 6.94964L34.4631 6.40723L34.2773 7.02151C34.1185 7.57157 33.8786 8.09488 33.5654 8.57416L33.4908 8.74909Z" fill="#0E8499"/>
<path d="M34.2327 6.78061L34.748 5.37305L34.7914 5.38796C34.6304 5.86438 34.4682 6.33764 34.3045 6.80773L34.2327 6.78061Z" fill="#0E8499"/>
<path d="M34.3588 6.92844L34.1201 6.82403L34.6937 5.25781L34.9053 5.32697L34.3588 6.92844Z" fill="#0E8499"/>
<path d="M33.7134 9.35721C33.9267 8.95944 34.1401 8.56303 34.3534 8.16797L34.4117 8.1978L33.7812 9.39246L33.7134 9.35721Z" fill="#0E8499"/>
<path d="M33.8191 9.51139L33.5913 9.39341L34.3168 8.04688L34.5324 8.16078L33.8191 9.51139Z" fill="#0E8499"/>
<path d="M24.5873 7.28585L24.2822 6.05729L24.3392 6.04102C24.4531 6.44782 24.5656 6.85463 24.6795 7.26144L24.5873 7.28585Z" fill="#0E8499"/>
<path d="M24.5221 7.39577L24.1736 5.99364L24.4014 5.93262L24.7892 7.3239L24.5221 7.39577Z" fill="#0E8499"/>
<path d="M23.6675 7.06928L23.4924 7.09961L23.6904 8.24199L23.8654 8.21167L23.6675 7.06928Z" fill="#0E8499"/>
</svg>
