<svg width="48" height="52" viewBox="0 0 48 52" fill="none" xmlns="http://www.w3.org/2000/svg">
<path d="M46.6493 4.10885C46.4054 4.00573 46.279 3.61766 46.3167 3.33271C46.3701 2.93322 46.3956 2.5305 46.3932 2.12747C46.3932 1.98888 46.381 1.85028 46.3699 1.71723C46.3422 1.36464 46.3156 1.03201 46.4808 0.719333C46.4957 0.686415 46.5034 0.650692 46.5034 0.614554C46.5034 0.578415 46.4957 0.542693 46.4808 0.509775C46.4522 0.421819 46.3911 0.348072 46.31 0.303544C46.1555 0.240369 45.9933 0.197509 45.8277 0.176035C45.5372 0.136119 45.2401 0.105074 44.954 0.074028L44.6691 0.0452C44.6269 0.0452 44.5837 0.0330035 44.5404 0.0263509C44.42 0.00283916 44.297 -0.00498722 44.1746 0.00306666L44.057 0.0141544C43.6368 0.0562877 43.2022 0.100639 42.7786 0.184905C41.7153 0.397789 40.6376 0.628414 39.5964 0.850168L39.0864 0.961045C38.2721 1.13564 37.4917 1.44159 36.7757 1.86691C36.3899 2.11516 35.9691 2.30427 35.5272 2.42795C34.8406 2.57287 34.1455 2.67434 33.4461 2.73175L33.3995 2.7373C32.7464 2.80493 32.0801 2.86037 31.4359 2.91248C31.0389 2.94575 30.6431 2.9779 30.2462 3.01338C28.7682 3.14754 27.462 3.2684 26.2546 3.38593C25.8998 3.4203 25.5394 3.46132 25.1924 3.4968C24.9119 3.52896 24.6302 3.56 24.3497 3.58994C24.128 3.61212 23.9062 3.63762 23.6845 3.66312C23.1024 3.72965 22.4992 3.79728 21.9104 3.82278C20.8405 3.86824 19.8769 3.93366 18.9167 4.25853C18.5552 4.36815 18.1839 4.44241 17.808 4.48028C17.6372 4.50357 17.4609 4.52796 17.288 4.5579L17.248 4.56455C16.8201 4.63884 16.3344 4.722 16.0816 5.20986C15.7944 5.76424 15.5128 6.36298 15.2467 6.98389C15.117 7.28326 14.9828 7.73342 15.3166 8.1736C15.3387 8.20243 15.3742 8.28448 15.3698 8.48517C15.3628 8.69937 15.3379 8.91263 15.2955 9.12271C15.1846 9.73364 15.0449 10.3191 14.6025 10.767C14.3041 11.0698 14.0269 11.3928 13.7732 11.7339C13.4405 12.1774 13.1079 12.6375 12.7875 13.0799C12.2586 13.8073 11.712 14.5601 11.1498 15.2786C10.673 15.8906 10.1419 16.4794 9.62857 17.0526C9.45228 17.2489 9.27709 17.444 9.10191 17.6414C9.00988 17.7456 8.90676 17.8432 8.7981 17.9452C8.61306 18.1054 8.44646 18.2858 8.30137 18.483C8.0264 18.8943 7.74699 19.3245 7.47977 19.768L7.43099 19.7603L7.46425 19.7924C7.26689 20.1169 7.07101 20.4495 6.8766 20.7903C6.63267 21.2161 6.39983 21.6574 6.17475 22.0831C5.93747 22.5344 5.69133 23.0001 5.43298 23.4469C4.92627 24.324 4.35526 25.2598 3.63566 26.3951C2.69875 27.8731 1.63988 29.5485 0.752859 31.2737L0.746206 31.287C0.457926 31.8481 0.447947 31.9412 0.901434 32.3182L1.00344 32.4036C1.91042 33.1675 2.99923 33.325 3.94058 33.3793C4.82759 33.4303 5.75896 33.6121 6.88658 33.9536C7.86008 34.2486 8.80143 34.5646 9.68512 34.8939C10.4679 35.1844 11.2574 35.5015 12.0213 35.8075C12.4227 35.9679 12.8248 36.1279 13.2276 36.2876C13.3835 36.3541 13.547 36.401 13.7144 36.4273C14.2023 36.4827 14.6136 36.7189 15.0449 36.9695C15.2223 37.0704 15.4019 37.1746 15.5927 37.2689C14.9862 37.6082 14.5881 38.045 14.3808 38.5905C14.1014 39.3256 14.0481 40.1705 14.2156 41.1728C14.2847 41.6677 14.4751 42.1377 14.7699 42.5411C14.6347 42.5411 14.5138 42.5411 14.3941 42.5411C13.4994 42.5076 12.6168 42.7566 11.8716 43.2529C11.7244 43.3524 11.5826 43.4597 11.447 43.5744C11.2959 43.7077 11.1338 43.8279 10.9624 43.9337C10.5455 44.1654 10.4258 44.5313 10.3459 44.8551C10.3393 44.8806 10.3315 44.905 10.3238 44.9305C10.3094 44.9715 10.2975 45.0133 10.2883 45.0558C10.1053 45.9428 9.98005 46.8863 10.6043 47.78C10.7761 48.0273 10.9447 48.2856 11.1077 48.5351C11.6055 49.299 12.12 50.0874 12.8507 50.7171C13.8097 51.5432 14.8043 51.9634 15.8909 52H16.0561C16.8844 52 17.676 51.7949 18.4422 51.5964L18.6773 51.5354C19.145 51.4166 19.602 51.2586 20.0433 51.0631C20.6642 50.7837 21.0412 50.2537 21.4048 49.7403L21.4569 49.6683C21.529 49.5662 21.6033 49.4653 21.6787 49.3645C22.028 48.8932 22.3894 48.4054 22.5446 47.7911C22.7387 47.0205 22.3905 46.2898 21.6975 46.0171C21.3954 45.9159 21.0792 45.8628 20.7606 45.8596L20.6498 45.853C20.1442 45.8197 19.7317 45.7687 19.4146 45.4527C19.0188 45.0569 18.6384 44.6633 18.236 44.2475L17.9155 43.9148L18.124 43.8539C18.8935 43.6321 19.6885 43.3937 20.3315 42.8482C20.8405 42.4169 21.3294 41.9457 21.8029 41.49C21.9836 41.3159 22.1654 41.1407 22.3495 40.9666L23.9129 41.9135C23.9025 41.9201 23.8918 41.926 23.8807 41.9312C23.6922 42.0299 23.5026 42.1253 23.313 42.2217C23.1755 42.2905 23.0392 42.3603 22.9028 42.4302C22.6965 42.5355 22.4726 42.754 22.5701 43.1952L22.1865 43.3117L22.5945 43.2973L22.6023 43.3305H22.8562L22.8651 43.3394L21.9947 43.5401L22.8551 43.6709C23.0181 43.6953 23.1744 43.7053 23.3263 43.7153C23.4782 43.7252 23.6013 43.733 23.7332 43.753C24.5363 43.8714 25.3035 44.1647 25.9807 44.6123C26.2468 44.7874 26.5063 44.997 26.6127 45.3474C26.6649 45.5012 26.7531 45.6404 26.87 45.7532C27.044 45.9339 27.2248 46.1135 27.4 46.2876C27.5751 46.4617 27.7725 46.6568 27.9543 46.842C28.6651 47.5827 29.5787 48.1193 30.8305 48.5295C31.3261 48.6925 31.8428 48.8067 32.3429 48.9176L32.558 48.9653C32.8786 49.0488 33.208 49.0938 33.5392 49.0995C33.8149 49.0879 34.0896 49.0597 34.3619 49.0152C34.5127 48.9941 34.6668 48.9719 34.8187 48.9553C36.0305 48.8309 37.2034 48.4572 38.2637 47.8576C39.0343 47.4252 39.5499 46.7588 39.7184 45.9838C39.798 45.5695 39.7892 45.1431 39.6926 44.7325C39.5959 44.3218 39.4135 43.9363 39.1574 43.6011C38.9644 43.3372 38.7504 43.0866 38.5442 42.8427C38.3225 42.5777 38.0852 42.3038 37.879 42.0188C37.798 41.908 37.7193 41.786 37.6439 41.6651L37.6982 41.6807C37.8845 41.7439 38.0792 41.7791 38.2759 41.7849C39.0853 41.7716 40.1353 40.9766 40.397 40.1805L40.4025 40.1605C40.4621 40.0172 40.486 39.8616 40.4724 39.7071C40.4008 39.2121 40.2173 38.74 39.9357 38.3266C39.7748 38.1014 39.6447 37.8556 39.5488 37.596L39.5055 37.4773C39.3026 36.9163 39.0931 36.3397 38.7593 35.8208L38.878 35.8507C38.9744 35.874 39.0709 35.9029 39.174 35.9328C39.561 36.0492 39.9989 36.18 40.4535 35.9328C40.7409 35.7849 41.0106 35.6049 41.2574 35.3962C41.7109 34.9992 41.7486 34.5479 41.3683 34.0922C41.1 33.7791 40.7904 33.5038 40.448 33.274L40.326 33.1908C39.7217 32.7794 39.1518 32.3914 38.9112 31.6685C38.7726 31.2538 38.3923 31.0032 37.8945 31.0165C37.7293 31.0165 37.5618 31.0165 37.4055 31.0165H37.3745V30.9965C37.391 30.8656 37.3933 30.7332 37.3811 30.6018C37.3578 30.4156 37.3246 30.2293 37.2924 30.0474C37.2525 29.8179 37.2104 29.5795 37.1893 29.3478L37.1838 29.289C37.1538 28.9631 37.1228 28.6238 37.2015 28.3421C37.2789 28.1148 37.3871 27.8992 37.523 27.7013C37.5918 27.5904 37.6638 27.4729 37.7271 27.3531C37.8934 27.036 38.0612 26.7193 38.2304 26.4029C38.6739 25.5791 39.123 24.7276 39.5332 23.8705C39.7661 23.3848 39.9668 22.8726 40.1597 22.3858C40.326 21.9634 40.499 21.5265 40.6897 21.1096C41.457 19.4332 42.0069 17.6802 42.538 15.986L42.5801 15.8518C42.7803 15.1623 43.0247 14.4864 43.3119 13.8283C43.5614 13.2939 43.8586 12.7373 44.3486 12.2871C44.8387 11.837 45.2113 11.2283 45.5561 10.6428L45.5993 10.5697C45.7945 10.237 45.9619 9.89441 46.1227 9.55846C46.2922 9.19087 46.4806 8.83226 46.687 8.48406C47.3423 7.42296 47.4421 6.29313 47.4565 5.42607C47.4709 4.75526 47.2192 4.34945 46.6493 4.10885ZM36.7824 24.5025L35.3709 24.0867C34.5793 23.8527 33.792 23.6155 33.0015 23.3937C32.8782 23.3602 32.7531 23.3339 32.6267 23.315C32.4641 23.2952 32.3047 23.255 32.1521 23.1952C31.7969 23.0244 31.458 22.8214 31.1398 22.5887C30.7873 22.3415 30.4336 22.082 30.0921 21.8314C29.48 21.3879 28.848 20.92 28.1972 20.5009C27.4226 20.01 26.6064 19.5881 25.7579 19.2402C25.3798 19.0974 24.9893 18.9898 24.5914 18.9187C24.3242 18.8622 24.0481 18.8078 23.7876 18.7247C23.0037 18.483 22.2109 18.2146 21.4459 17.9485L20.7961 17.7268C20.9614 17.673 21.1299 17.6296 21.3006 17.597L21.8772 17.4928L22.1499 17.444L22.2054 17.7523L22.2641 17.4196C22.8296 17.3187 23.4062 17.2234 23.9761 17.168C24.974 17.0715 26.1071 16.9628 27.207 17.0138C28.9811 17.0959 30.3914 17.4008 31.651 17.9718C31.9027 18.0827 32.151 18.229 32.3905 18.3676C32.5546 18.4619 32.7232 18.5595 32.8961 18.6482C33.476 18.9497 33.9561 19.0739 34.4551 19.0518C35.4042 19.0085 36.34 19.2868 37.2392 19.8756C37.7798 20.2095 38.349 20.4949 38.94 20.7282L39.1928 20.8391C39.2094 20.8455 39.2264 20.8503 39.2438 20.8535C39.959 21.1174 39.9712 21.1507 39.7084 21.8847C39.2283 23.2296 38.6196 24.7941 37.7448 26.251L37.7592 26.19C37.9477 25.4106 37.5563 24.7242 36.7824 24.5025ZM38.9877 33.315C39.1662 33.478 39.3569 33.6254 39.5421 33.7685C39.6607 33.8605 39.7827 33.9547 39.8991 34.0512C40.1331 34.2452 40.3659 34.4504 40.5877 34.6588C40.6764 34.7431 40.6852 34.7885 40.6841 34.8041C40.683 34.8196 40.652 34.875 40.5977 34.9149C40.5165 34.9842 40.4394 35.0583 40.367 35.1367C40.277 35.2394 40.1724 35.3283 40.0566 35.4006C39.8908 35.4774 39.7068 35.5062 39.5255 35.4837C39.316 35.4582 39.1082 35.4196 38.9035 35.3684C38.7771 35.3396 38.6462 35.3097 38.5143 35.2864C38.5003 35.2848 38.4861 35.2848 38.4721 35.2864C38.4306 35.2875 38.3899 35.2973 38.3524 35.3152C38.1983 35.1589 38.0442 35.0003 37.8911 34.8429C37.4366 34.3761 36.9664 33.8938 36.4874 33.4336C36.2775 33.2331 36.1228 32.9818 36.0384 32.7041C35.9807 32.5266 35.9164 32.3249 35.861 32.1275C35.8396 32.0457 35.8129 31.9653 35.7812 31.8869L35.8976 31.674L35.9153 31.7062L36.0506 31.6496C36.0794 31.6374 36.1082 31.6219 36.1371 31.6064C36.1603 31.5927 36.1848 31.5811 36.2102 31.572C36.5939 31.582 36.9864 31.6008 37.3634 31.6175L37.7803 31.6374C38.0819 31.6507 38.2526 31.8004 38.3347 32.1253C38.4167 32.4501 38.5897 32.9491 38.9877 33.3128V33.315ZM32.5369 48.2557C32.3473 48.2014 32.1499 48.1448 31.9504 48.1049C30.8613 47.8795 29.8334 47.4223 28.9367 46.7644C28.7151 46.5961 28.5051 46.4131 28.308 46.2166L28.2038 46.1169C28.2741 46.1088 28.3431 46.0917 28.4089 46.0659L28.4888 46.0326C28.7105 45.9624 28.913 45.8421 29.0809 45.6811C29.4791 45.2451 29.6901 44.6701 29.6685 44.08C29.6596 43.7563 29.6596 43.4237 29.6585 43.1032C29.6585 42.8338 29.6585 42.5555 29.653 42.2805H29.3203L29.2904 42.8804C29.2682 43.3409 29.2442 43.801 29.2183 44.2608C29.1851 44.8307 28.9533 45.272 28.5298 45.5713C28.435 45.638 28.3256 45.6808 28.2108 45.6963C28.0959 45.7117 27.9791 45.6993 27.8701 45.66C27.7454 45.617 27.6314 45.5477 27.5357 45.4569C27.4401 45.366 27.3651 45.2557 27.3157 45.1334L27.2991 45.0879L27.2702 45.0003C27.1948 44.7786 27.1416 44.6178 27.2115 44.4149C27.2246 44.3587 27.2241 44.3001 27.2098 44.2441C27.1955 44.1881 27.1679 44.1364 27.1294 44.0934L27.4709 43.804C27.8091 43.519 28.1584 43.223 28.4976 42.9269C29.052 42.4413 29.3403 41.7938 29.6186 41.1673L29.6552 41.0841C29.6955 41.0252 29.7467 40.9744 29.806 40.9345L29.8814 40.8724C29.9208 40.8673 29.9578 40.8507 29.9877 40.8246C30.0177 40.7986 30.0393 40.7643 30.0499 40.726C30.0943 40.5209 30.2484 40.4034 30.4269 40.2681C30.5497 40.1819 30.6614 40.081 30.7595 39.9676L30.7728 39.9499L30.9325 39.8856C31.0742 39.8207 31.2231 39.7727 31.376 39.7425C32.0475 39.6385 32.7346 39.7577 33.3319 40.0818C33.9516 40.4155 34.6371 40.6085 35.3399 40.6473C35.6836 40.6617 35.9198 40.8347 36.0861 41.1917C36.4586 41.9956 36.9398 42.5876 37.5552 43.0012C37.7621 43.1403 37.9522 43.3029 38.1218 43.4857L38.2271 43.5966C38.5597 43.9536 38.8724 44.2918 39.0354 44.7398C39.4135 45.7809 39.0764 46.7355 38.134 47.2899C37.2308 47.8183 36.2275 48.1528 35.188 48.2723L34.9119 48.3078C34.5493 48.3555 34.1757 48.4043 33.8031 48.4464C33.3718 48.4941 32.9671 48.3788 32.5369 48.2557ZM11.6277 47.9962C11.4359 47.6836 11.2385 47.362 11.0289 47.0527C10.7606 46.6579 10.8072 46.2056 10.887 45.7388C10.9642 45.2697 11.0698 44.8058 11.203 44.3495C11.2163 44.304 11.3316 44.2275 11.4015 44.1809L11.4769 44.1299C12.3484 43.5157 13.2099 43.213 14.0958 43.213C14.2876 43.213 14.4792 43.2267 14.669 43.254C14.7444 43.2651 14.8221 43.274 14.9008 43.2828C15.1791 43.315 15.4674 43.3471 15.6525 43.4769C15.9744 43.6875 16.3121 43.8729 16.6626 44.0313C17.3478 44.3639 17.9931 44.6766 18.3901 45.3718C18.552 45.6567 18.8214 45.8685 19.082 46.0736C19.1403 46.1187 19.1991 46.1653 19.2582 46.2133L18.7504 46.5659L18.9101 46.8985L19.0598 46.8254L19.2549 46.73C19.4146 46.6513 19.5798 46.5692 19.745 46.4994C19.8047 46.4815 19.8677 46.4777 19.9291 46.4883C20.0399 46.5005 20.1508 46.516 20.2617 46.5326C20.4169 46.5548 20.5777 46.5781 20.7407 46.5892C21.1476 46.6169 21.4226 46.6857 21.6277 46.9518C21.7172 47.0575 21.7764 47.1854 21.799 47.3221C21.8217 47.4587 21.8069 47.599 21.7563 47.7279C21.4452 48.5803 21.0144 49.3841 20.4768 50.1151C20.2034 50.4655 19.8274 50.7217 19.4013 50.848C18.0708 51.2726 16.9797 51.4379 15.9508 51.3691C14.9218 51.3004 14.0138 50.879 13.1689 50.0818C12.528 49.472 12.0712 48.7214 11.6277 47.9962ZM18.0319 43.1176C17.8412 43.1742 17.6428 43.2341 17.4498 43.2984C17.2037 43.3815 16.9864 43.3172 16.7158 43.1875C16.1716 42.9342 15.6852 42.572 15.2866 42.1231C15.0033 41.7937 14.8393 41.3785 14.8209 40.9444C14.7723 40.3883 14.7827 39.8286 14.852 39.2746C14.9762 38.3998 15.5927 37.8011 16.5018 37.6702C17.2569 37.5594 17.7658 37.1458 17.9754 36.4672C18.175 35.8219 18.634 35.5181 19.4168 35.5092H19.4501C19.8327 35.5213 20.2137 35.5658 20.5888 35.6423C20.7507 35.6711 20.9214 35.7 21.0822 35.7243C21.1362 35.7338 21.1876 35.7546 21.233 35.7853C21.4303 35.9073 21.6244 36.0337 21.8173 36.1601L21.8849 36.2033C21.6953 36.536 21.7064 36.8874 21.7175 37.2012C21.7175 37.3121 21.7242 37.423 21.7175 37.5228C21.7153 37.7394 21.7358 37.9557 21.7785 38.1681C21.7951 38.2712 21.8117 38.3688 21.8228 38.4663C21.8228 38.5096 21.8339 38.5517 21.8395 38.5927C21.8716 38.8223 21.8949 38.9875 21.7419 39.1782C21.5889 39.3689 21.5379 39.6339 21.4935 39.8845C21.4802 39.9565 21.4669 40.0275 21.4514 40.0962C21.1831 41.2793 20.4391 42.1342 19.1795 42.7118C18.8056 42.8741 18.4211 43.0108 18.0286 43.121L18.0319 43.1176ZM1.14426 31.6485C1.24626 31.4504 1.3479 31.2516 1.44917 31.052C1.80176 30.3601 2.16654 29.645 2.56903 28.9697C2.9194 28.3832 3.3119 27.8188 3.68556 27.2744C3.83635 27.0526 3.98604 26.8387 4.12907 26.6258L4.31423 26.577C4.48828 26.5439 4.65572 26.4825 4.80985 26.3951C5.20568 26.1423 5.60152 25.8751 5.98293 25.619C6.30115 25.3973 6.63046 25.1755 6.95754 24.967C7.09392 24.8783 7.23363 24.7908 7.37333 24.7054L7.13051 24.9271C6.77127 25.2598 6.39983 25.6035 6.04391 25.9516C5.60817 26.3785 5.17131 26.8176 4.74887 27.2422C4.37521 27.617 4.00156 27.9929 3.62458 28.3654C2.88059 29.0961 2.37388 29.7137 1.98138 30.3645C1.81284 30.644 1.75962 30.9045 1.8195 31.1407C1.85739 31.2627 1.91981 31.3757 2.00294 31.4728C2.08607 31.5698 2.18815 31.6489 2.30292 31.7051C2.87734 32.0278 3.52935 32.1865 4.18783 32.1641L4.15346 32.3858C5.95632 32.6974 7.71705 33.1986 9.42012 33.6842C9.59909 33.7242 9.75495 33.8334 9.85365 33.988L8.21156 33.4547L8.10069 33.8117C7.24471 33.529 6.36989 33.2462 5.49951 32.9923C4.73907 32.7715 3.95946 32.623 3.17109 32.5488C2.43789 32.4737 1.73982 32.197 1.15423 31.7494C1.14407 31.7168 1.14067 31.6825 1.14426 31.6485ZM16.4597 5.99154C16.5002 5.92179 16.5318 5.84731 16.554 5.76979C16.6349 5.42274 16.8311 5.24977 17.1738 5.22427C17.8856 5.17105 18.5608 4.96149 19.2128 4.75859C19.4656 4.67986 19.7262 4.59892 19.9889 4.52907C20.2515 4.46593 20.5189 4.42513 20.7884 4.40711C21.9925 4.29623 23.2177 4.18535 24.4018 4.08334C24.6236 4.06339 24.8453 4.04675 25.0671 4.02901C25.362 4.00684 25.6658 3.98245 25.9663 3.95473C26.4601 3.90446 26.9539 3.85383 27.4476 3.80283C28.0774 3.73963 28.7294 3.67421 29.3702 3.61544C29.6763 3.58772 29.99 3.56777 30.2927 3.54781C30.571 3.53007 30.8582 3.51233 31.1421 3.48793C31.5279 3.45356 31.9182 3.41476 32.2974 3.37706C32.6766 3.33936 33.0491 3.30166 33.425 3.26618C33.6634 3.24511 33.9073 3.23181 34.1435 3.21961C34.3553 3.20742 34.5737 3.19633 34.7888 3.17859C35.8244 3.09543 36.7447 2.70182 37.635 2.32151C38.4048 1.99862 39.1953 1.72747 40.0011 1.50989C40.8172 1.28259 41.6987 1.08301 42.6932 0.901171C43.2564 0.78716 43.8308 0.738422 44.4052 0.755922C44.7828 0.787837 45.1569 0.853517 45.5228 0.952175L45.8311 1.02424L45.7579 1.12736C45.5816 1.37573 45.4153 1.61078 45.2334 1.83587C45.1571 1.91878 45.072 1.99314 44.9795 2.05762C44.9152 2.10751 44.8487 2.15852 44.7855 2.21617C44.7428 2.25363 44.708 2.29918 44.6831 2.35019C44.6581 2.4012 44.6436 2.45665 44.6402 2.51332C44.6402 3.05551 44.7079 3.7485 45.2079 4.30177C45.8577 5.02026 45.9785 5.55358 45.6636 6.48273C45.5667 6.41844 45.4734 6.34885 45.3842 6.27428C45.0638 5.99487 44.6879 5.93167 44.3231 5.86958L44.1701 5.84296C44.0293 5.81746 43.8918 5.78087 43.7466 5.74207C43.254 5.60078 42.7416 5.54159 42.2298 5.56688C41.5423 5.60569 40.7329 5.65669 39.9313 5.75094C39.1008 5.8474 38.2626 5.97269 37.4521 6.10242L37.1716 6.14566C37.0209 6.17402 36.8742 6.22056 36.7347 6.28426L36.6416 6.32195C36.0899 6.55361 35.4771 6.59649 34.8986 6.44392C33.607 6.07924 32.2743 5.87992 30.9325 5.85073C29.7505 5.83853 28.5675 5.8607 27.4654 5.88732C26.3633 5.91393 25.3321 6.18779 24.3187 6.45279C23.8985 6.56367 23.4627 6.67454 23.0336 6.7699C21.7508 7.04931 20.3604 7.40411 18.7815 7.85649C18.3841 7.98675 18.0019 8.15962 17.6417 8.37207C17.5308 8.43638 17.4088 8.49958 17.2913 8.56056C16.9077 8.75792 16.5351 8.96083 16.1415 9.17593L15.8976 9.30898C15.8976 9.29789 15.8976 9.28681 15.8976 9.27461C15.9208 8.99853 15.9408 8.75903 15.9807 8.53173C15.9807 8.53173 16.0062 8.48184 16.1648 8.39536C16.3699 8.28448 16.5839 8.1736 16.7901 8.07603L17.1228 7.91304C17.168 7.88836 17.2117 7.86096 17.2536 7.83099L17.3013 7.79884L17.4399 7.71013L17.237 7.38859L17.1261 7.41188L16.9442 7.45068C16.8123 7.48062 16.687 7.50834 16.5595 7.52497C16.2712 7.56378 16.014 7.58706 15.7745 7.59815L15.7634 7.58484C15.763 7.47084 15.7848 7.35785 15.8277 7.25221C15.9608 6.96837 16.106 6.68452 16.2468 6.40844C16.3111 6.28426 16.3743 6.16007 16.4375 6.03589C16.442 6.02369 16.4508 6.00817 16.4597 5.99154ZM23.8242 42.8404C24.0722 42.7125 24.3105 42.5665 24.5371 42.4036C25.0442 42.0345 25.5143 41.6171 25.9408 41.1573C26.3677 40.6883 26.4675 40.0652 26.5085 39.5175C26.5085 39.4942 26.5085 39.4709 26.5174 39.4465L26.6382 39.5263C26.8755 39.6849 27.105 39.8368 27.3312 39.992C27.4133 40.0486 27.4931 40.1084 27.5762 40.1727C27.7447 40.3121 27.9285 40.4319 28.124 40.5298C28.3621 40.6303 28.6084 40.71 28.8602 40.7681L29.0088 40.807C28.6762 41.9102 28.3435 42.4701 26.7369 43.7319C26.0583 43.2407 25.2656 42.7972 24.3264 42.7972C24.1581 42.7976 23.9901 42.8121 23.8242 42.8404ZM36.7713 18.7801L36.7158 18.7923C36.6892 18.799 36.6593 18.8089 36.6305 18.8189L36.5928 18.8322C35.8721 18.5262 35.117 18.4674 34.3431 18.4297C33.7976 18.4031 33.3186 18.1281 32.8751 17.8476C32.3207 17.4995 31.733 17.1447 31.0711 16.9218C31.0855 16.8608 31.0988 16.7987 31.111 16.7366C31.136 16.587 31.1785 16.4407 31.2374 16.3009C31.4237 15.9084 31.6332 15.5181 31.835 15.14L32.0634 14.7098C32.1034 14.6355 32.1444 14.5612 32.1821 14.4936L33.7344 14.8894L33.0314 16.3308L33.4028 16.5127L33.6246 16.0692C33.7576 15.8064 33.8896 15.5436 34.0249 15.2819C34.0681 15.1966 34.1213 15.1045 34.1912 14.9914C34.2278 14.9327 34.2333 14.9227 34.3309 14.9349C35.3288 15.0591 36.0284 14.7697 36.4198 14.0756L36.4464 14.0268C36.8389 13.3305 37.2447 12.6109 37.1538 11.7139C37.1194 11.3813 37.1117 11.0265 37.1039 10.6872C37.1039 10.4943 37.095 10.3013 37.0862 10.1084C37.0807 10.0398 37.0673 9.9721 37.0463 9.90661C37.0353 9.87402 37.0268 9.84067 37.0208 9.80682C36.9986 9.66268 36.9786 9.51743 36.962 9.3866L36.9454 9.26796C36.9484 9.2418 36.9444 9.21531 36.9339 9.19118C36.9234 9.16704 36.9067 9.1461 36.8855 9.13047L36.7547 9.02735L36.7214 9.06727C36.6907 9.00652 36.6648 8.9435 36.6438 8.87878C36.4442 8.21352 36.0317 7.67576 35.382 7.22449C35.3477 7.20018 35.3151 7.1735 35.2844 7.14466C35.9087 7.17016 36.4897 7.00496 37.0585 6.84308L37.0817 6.83642C37.4772 6.72047 37.8909 6.67985 38.3014 6.71668C37.7027 7.1746 37.3656 7.81436 37.0396 8.43527C36.9409 8.62265 36.8389 8.81669 36.7325 9.00074L37.0185 9.17926C37.2104 8.91315 37.3811 8.62487 37.5452 8.35544C37.8845 7.79218 38.2038 7.26108 38.6961 6.84751L38.6795 6.82644C38.8244 6.89296 38.9658 6.96698 39.103 7.0482L39.2272 7.12027C39.6581 7.3493 40.0536 7.63948 40.4014 7.98178C39.2017 9.52187 38.2071 11.2227 37.2458 12.867C36.5373 14.0789 35.8044 15.3307 34.9995 16.5049L34.9086 16.6357L35.2878 16.9218L40.6298 8.24456C40.7111 8.35033 40.7852 8.46146 40.8516 8.57719C41.0412 8.90983 41.2274 9.24246 41.406 9.56511L41.5867 9.89109C41.345 10.2714 41.0966 10.655 40.8549 11.0265C40.2628 11.9368 39.6508 12.8781 39.1064 13.8405C38.5109 14.8961 37.9665 16.0004 37.4432 17.0682C37.2281 17.505 37.013 17.9419 36.7935 18.3765C36.7551 18.4591 36.7261 18.5458 36.707 18.6349C36.6981 18.6692 36.6903 18.7025 36.6804 18.7346L36.7713 18.7801ZM26.2812 16.1967L24.6291 16.3707C24.6535 16.2654 24.6768 16.1601 24.7001 16.0559C24.8343 15.4638 24.9618 14.9038 25.1048 14.3428C25.1488 14.3041 25.2024 14.278 25.26 14.2674C25.7157 14.2142 26.1814 14.1732 26.6327 14.1332L26.8622 14.1122L26.2812 16.1967ZM22.4249 16.5193C22.4837 16.1867 22.5446 15.8374 22.6134 15.507C22.6414 15.4726 22.6771 15.4452 22.7176 15.4272C23.2465 15.1932 23.7854 14.9615 24.3065 14.7364L24.4983 14.6533L24.2167 16.4084L24.0836 16.4328C23.8829 16.4694 23.6745 16.5082 23.4638 16.5559L23.1933 16.618L22.3728 16.8076C22.3905 16.7111 22.4072 16.6136 22.4249 16.5193ZM30.0333 13.4802C30.1471 13.5076 30.2584 13.5447 30.3659 13.5911C30.7229 13.7441 31.0667 13.9159 31.4314 14.0967L31.7463 14.253C31.3013 14.9005 30.959 15.613 30.7318 16.3652L30.7008 16.4583C30.6559 16.5633 30.6347 16.6769 30.6387 16.791C30.1652 16.6646 29.6408 16.5393 29.011 16.4029C28.9958 16.3999 28.981 16.3954 28.9666 16.3896C28.9695 16.3608 28.9743 16.3323 28.9811 16.3042C29.1447 15.4575 29.4639 14.6485 29.9224 13.9181C29.9988 13.7961 30.0374 13.6541 30.0333 13.5101V13.4802ZM26.7535 16.18C26.7923 16.0547 26.8334 15.9295 26.8733 15.8053C27.0163 15.3562 27.1649 14.8905 27.2824 14.4237C27.3567 14.1266 27.5042 14.059 27.8246 14.0135C28.1429 13.9665 28.4497 13.8609 28.7294 13.7019C29.0266 13.5219 29.3688 13.43 29.7162 13.4369C29.1186 14.1721 28.7549 15.0657 28.5464 16.3131L26.7535 16.18ZM22.0379 16.852L22.0435 16.883C21.5944 16.9939 21.1432 17.0981 20.6974 17.2156C20.6619 17.2255 20.6271 17.2377 20.5932 17.2522L20.5167 16.3175L22.0812 15.7044C22.0812 15.731 22.0734 15.7587 22.0701 15.7853C22.0032 16.1369 21.9923 16.4969 22.0379 16.852ZM18.8347 17.0737L20.0943 16.5193L20.2151 17.5039C20.1929 17.5205 20.1708 17.535 20.1497 17.5494L20.1286 17.5627L18.8347 17.0737ZM25.7091 37.2467C25.7086 37.2489 25.7086 37.2512 25.7091 37.2533C25.6536 37.5399 25.6188 37.83 25.6049 38.1215C25.5938 38.3976 25.685 38.668 25.861 38.881C26.1138 39.1427 26.0572 39.4132 25.9863 39.7569L25.9796 39.7902C25.9184 40.1202 25.7805 40.4311 25.5769 40.6979C25.3733 40.9647 25.1098 41.1798 24.8076 41.3259C24.7234 40.9699 24.4639 40.685 24.0215 40.4588C23.0502 39.9632 22.5092 39.1405 22.3661 37.9419C22.3303 37.5849 22.3133 37.2263 22.3151 36.8675V36.6169C23.3552 37.8754 24.6302 37.6691 25.7002 37.2533L25.7091 37.2467ZM25.4042 36.6014C25.28 36.7056 25.0582 36.7411 24.842 36.7744L24.7023 36.7976C24.3538 36.8722 23.9915 36.8496 23.655 36.7323C23.3185 36.615 23.0207 36.4075 22.7941 36.1324C22.515 35.8349 22.2189 35.5539 21.9071 35.2908L21.7064 35.1134C23.4705 35.0702 24.7544 34.1987 25.4208 32.5932C25.7058 31.9046 25.8188 31.1418 25.9286 30.4056L25.9519 30.2481C26.1204 29.1227 26.677 28.2989 27.6528 27.7323L27.7026 27.698L27.7703 27.8587L27.941 27.7301C27.961 27.7146 27.9809 27.6968 28.0009 27.678C28.0085 27.67 28.0167 27.6626 28.0253 27.6558C28.1572 27.6371 28.2916 27.6463 28.4198 27.6828C28.5479 27.7193 28.667 27.7822 28.7693 27.8676C28.7782 27.8765 28.807 27.9219 28.8181 28.1193C28.8172 28.1761 28.8098 28.2327 28.7959 28.2878C28.7704 28.4209 28.7405 28.5717 28.8303 28.6892C28.9722 28.8777 28.9201 29.0218 28.8159 29.2635C28.7904 29.3234 28.7637 29.3844 28.7416 29.4476C28.4454 30.3328 28.3745 31.2779 28.5353 32.1973C28.5912 32.5067 28.6652 32.8125 28.7571 33.1132C28.8081 33.2939 28.8613 33.4824 28.9034 33.6676C28.9057 33.7018 28.9011 33.736 28.8901 33.7685C27.8113 34.2896 26.9254 35.1123 26.1093 36.3497C25.979 36.3359 25.8472 36.3514 25.7237 36.3951C25.6001 36.4389 25.4879 36.5097 25.3953 36.6025L25.4042 36.6014ZM11.8007 19.6727C11.8968 19.6259 11.9965 19.587 12.0989 19.5562C12.3805 19.4786 12.6655 19.4298 12.9671 19.3766L13.0491 19.3622C12.6832 20.1117 12.059 20.6085 11.4004 21.1362L11.1842 21.3003L11.7097 19.9033L11.8007 19.6727ZM9.83591 23.254C9.39758 23.6428 8.97107 24.0464 8.55639 24.4648C8.24316 24.7662 7.90976 25.0458 7.5585 25.3019C7.36557 25.4494 7.16599 25.6013 6.97528 25.7587L6.62935 26.047L6.6238 26.0392C7.57291 25.1311 8.58744 24.2829 9.62746 23.4281L9.83591 23.254ZM29.5898 29.2181C29.6585 29.2325 29.7295 29.2469 29.7705 29.2591C29.7627 29.3057 29.7406 29.3822 29.7239 29.4432C29.47 30.3435 29.5221 31.266 29.6064 32.0499C29.626 32.2664 29.6882 32.477 29.7892 32.6695C29.8902 32.862 30.0282 33.0328 30.1952 33.172L29.47 33.5323C28.8735 31.8692 28.8269 30.4743 29.327 29.156C29.4146 29.1782 29.4989 29.2003 29.5898 29.2181ZM9.87694 31.735L9.69066 31.6929C9.34916 31.6138 9.0084 31.5365 8.66838 31.4611L8.62181 31.4511C8.46951 31.4133 8.31458 31.387 8.15834 31.3724C8.10977 31.3741 8.06219 31.3584 8.02418 31.3281C8.01087 31.3114 7.99092 31.2615 8.01198 31.1241C8.05412 30.848 8.20713 30.6606 8.43332 30.6074C9.28818 30.4078 9.66294 29.7514 10.0244 29.1172L10.0433 29.085C10.1751 28.8433 10.2921 28.5937 10.3936 28.3377C10.4952 28.6403 10.5026 28.9666 10.4147 29.2735C10.2073 29.9654 10.0421 30.6927 9.89579 31.3347C9.87025 31.4665 9.86391 31.6014 9.87694 31.735ZM8.83802 26.0193C9.16198 26.4866 9.51762 26.9312 9.90244 27.3498C10.0832 27.5416 10.0399 27.6891 9.93903 27.9552C9.92572 27.9896 9.91242 28.0239 9.90022 28.0594C9.83982 28.2136 9.7656 28.3621 9.67847 28.5029C9.6226 28.4317 9.57042 28.3577 9.52213 28.2812L9.36358 28.0239C8.92007 27.3099 8.47656 26.5714 8.20824 25.7587L8.18273 25.6789V25.6678C8.19571 25.6283 8.21438 25.591 8.23817 25.5569L8.55417 25.2487L8.59187 25.3596C8.61294 25.4205 8.62957 25.4848 8.64731 25.5492C8.68112 25.7163 8.74579 25.8758 8.83802 26.0193ZM7.85786 25.9184C7.85787 25.9465 7.8616 25.9744 7.86895 26.0015C8.17197 27.0005 8.63559 27.9434 9.24161 28.7934C9.29295 28.8599 9.36659 28.9056 9.44895 28.922L9.43232 28.9531C9.28082 29.2135 9.09428 29.4519 8.87793 29.6616L6.99302 26.6324L7.85786 25.9184ZM6.80675 26.9562C6.80675 26.9628 6.80675 26.9706 6.80675 26.9795C6.81542 27.0383 6.83299 27.0955 6.85886 27.1491C7.07175 27.5627 7.32344 28.0517 7.58178 28.5362L7.6217 28.6116C7.82682 28.9974 8.0397 29.3966 8.26589 29.7824C8.31253 29.8671 8.37458 29.9423 8.44884 30.0042C8.27409 30.1234 8.08847 30.2259 7.89445 30.3102L5.98071 27.5904L5.79998 27.607L6.76905 26.812L6.80675 26.9562ZM10.397 31.327C10.5744 30.6961 10.7518 30.1295 10.9402 29.5951C11.2441 28.7402 11.0578 27.8953 10.3859 27.0859C10.3105 26.9939 10.234 26.9041 10.1641 26.8132C9.76828 26.3441 9.38797 25.9017 9.13628 25.364C9.10452 25.3039 9.06292 25.2496 9.0132 25.2032C8.99916 25.1892 8.98585 25.1748 8.97329 25.16L8.89346 25.0679L8.63844 25.1788L9.05201 24.7808C9.21611 24.6233 9.38464 24.467 9.5432 24.3084C9.63959 24.2035 9.75822 24.1215 9.8904 24.0684C10.0226 24.0153 10.165 23.9923 10.3071 24.0013C11.4159 24.019 12.4304 24.4215 13.5791 25.3052C14.0282 25.6501 14.1823 26.2055 14.2732 26.7023C14.4052 27.4196 14.5127 28.3654 14.1745 29.2846C13.9606 29.8668 13.5628 30.3635 13.0414 30.6994C12.406 31.1207 11.7441 31.5265 11.1032 31.919L10.7839 32.1153C10.7337 32.1415 10.6799 32.1602 10.6242 32.1707L10.5965 32.1397L10.4468 31.97C10.2972 31.8048 10.3171 31.6175 10.3981 31.327H10.397ZM19.378 32.6431C19.256 32.6431 19.1352 32.6431 19.0143 32.6431C18.593 32.6431 18.196 32.6508 17.7947 32.632C17.3822 32.6061 16.9885 32.4509 16.6693 32.1885C16.6533 32.176 16.6395 32.161 16.6282 32.1441C16.6027 31.898 16.5828 31.6518 16.5628 31.3913L16.554 31.2804C17.4587 31.1329 18.0929 30.7072 18.4932 29.9787C18.6761 29.6461 18.8635 29.3046 18.8879 28.952L19.9224 29.6948C19.5062 30.6195 19.3183 31.6306 19.3747 32.6431H19.378ZM24.0792 20.5431L25.3487 20.9034C25.1381 21.8348 24.5604 22.5 23.8064 23.1875C23.8142 23.1564 23.8231 23.1254 23.8319 23.0943C24.0515 22.2849 24.2821 21.4511 24.0759 20.5431H24.0792ZM17.2048 20.3036L16.8389 19.2447C17.1161 19.3034 17.3778 19.3556 17.635 19.4221L17.6594 19.4753L17.6683 19.4942C17.8035 19.7991 17.9366 20.104 18.0663 20.4011V20.4067L17.2048 20.3036ZM20.4602 20.6927C20.4019 20.727 20.3407 20.7559 20.2772 20.7792C19.9169 20.8979 19.9091 20.8779 19.7749 20.5442C19.5997 20.1117 19.4135 19.6749 19.2327 19.2524L19.1163 18.9775C19.3786 19.0319 19.6377 19.1007 19.8925 19.1837L20.4602 20.6927ZM19.5133 26.3874C20.3852 26.3587 21.2311 26.083 21.9526 25.5924C21.9703 25.6356 21.988 25.68 22.0047 25.7232C22.1011 25.9649 22.1909 26.1945 22.3029 26.4184C22.4632 26.7353 22.6447 27.0409 22.8462 27.3332C23.078 27.6658 23.4228 27.7767 23.741 27.862C23.6911 27.8698 23.6423 27.8754 23.5924 27.8809C22.4626 27.9918 21.5501 28.3477 20.8039 28.9575L20.642 29.0884H20.6353C19.6374 28.7236 19.0332 28.1592 18.7371 27.3143C18.695 27.1935 18.6562 27.0682 18.6196 26.9473C18.5642 26.7666 18.5087 26.5792 18.4333 26.3929C18.4173 26.3542 18.3977 26.317 18.3746 26.2821C18.7475 26.369 19.1307 26.4044 19.5133 26.3874ZM15.933 20.3601L15.902 20.2703C15.8377 20.0896 15.7778 19.9199 15.7057 19.7503C15.6897 19.715 15.6688 19.6822 15.6437 19.6527L15.6858 19.6261L16.1703 19.3212C16.2457 19.2735 16.2757 19.2791 16.2812 19.2791C16.304 19.3027 16.3198 19.3323 16.3267 19.3644C16.4109 19.6228 16.4896 19.8811 16.5706 20.1461L16.6172 20.2891L15.933 20.3601ZM20.836 20.461L20.3925 19.3522L20.6376 19.4398C20.9835 19.5618 21.3405 19.6882 21.702 19.7913C21.6576 19.9809 21.5323 20.0674 20.836 20.4577V20.461ZM17.7259 26.0636L17.8601 26.6491C17.7402 26.5725 17.6154 26.504 17.4864 26.4439L17.3024 25.8197C17.4374 25.9113 17.579 25.9928 17.7259 26.0636ZM23.2132 23.325C22.477 24.773 21.3649 25.5824 19.9113 25.7299C19.4162 25.7701 18.918 25.7436 18.43 25.6512C17.9776 25.5735 17.6317 25.2742 17.2669 24.9571L17.0518 24.773C16.2679 24.1199 15.6891 23.2573 15.1724 21.9745C15.0615 21.6928 15.0848 21.613 15.0915 21.5997C15.147 21.4719 15.2339 21.3602 15.3443 21.2751C15.4546 21.19 15.5847 21.1342 15.7224 21.113C16.668 21.0001 17.6268 21.1278 18.5098 21.4844C18.8779 21.615 19.2608 21.6995 19.6496 21.7361C20.122 21.7993 20.5577 21.6385 20.9469 21.2626C21.0445 21.1695 21.1487 21.0852 21.2596 20.9965L21.1565 20.8668L21.2673 20.9877C21.8372 20.5309 21.8927 20.4799 22.1544 19.9288L22.344 19.9898C22.6821 20.1007 23.0325 20.2115 23.3651 20.3224C23.3896 20.3443 23.4073 20.3728 23.4161 20.4045C23.4328 20.4743 23.4516 20.5453 23.4694 20.6162C23.5377 20.8388 23.5783 21.0689 23.5902 21.3015C23.5958 22.1674 23.476 22.8094 23.2132 23.325ZM18.8347 19.5307C18.9833 19.8745 19.1241 20.216 19.2782 20.5774C19.3048 20.6406 19.3303 20.7049 19.3569 20.7681C19.1274 20.706 18.8924 20.6417 18.6651 20.573C18.6423 20.5644 18.6221 20.5503 18.6063 20.532C18.4777 20.1938 18.3535 19.8467 18.2326 19.5108L18.155 19.2957C18.3324 19.1438 18.5087 18.9974 18.5608 18.9963C18.6129 19.0251 18.7305 19.2912 18.8347 19.5307ZM15.2323 19.9155L15.2678 19.8911C15.3221 20.1029 15.3787 20.3102 15.4263 20.5031L15.2833 20.6362C15.1126 20.7864 14.9522 20.9479 14.8032 21.1196C14.7388 21.1988 14.6922 21.2908 14.6664 21.3895C14.6405 21.4881 14.6362 21.5912 14.6535 21.6917C14.903 22.683 15.3188 23.9414 16.3466 24.885C16.5429 25.0657 16.626 25.2952 16.7147 25.5381C16.7469 25.6279 16.7801 25.7199 16.8201 25.8119C16.8794 25.9742 16.9763 26.1201 17.1028 26.2377L17.2203 26.3397C16.9819 26.2553 16.7351 26.197 16.4841 26.1656C16.4122 26.1596 16.3439 26.1316 16.2886 26.0854C16.2332 26.0392 16.1935 25.977 16.1748 25.9073L16.0018 25.4804C15.4352 24.0922 14.8498 22.6564 14.4273 21.1928C14.3891 21.0734 14.3428 20.9567 14.2887 20.8435L14.2455 20.746C14.2245 20.7009 14.1915 20.6625 14.1501 20.6351L14.118 20.6096C14.2843 20.4631 14.471 20.3417 14.6724 20.2492C14.8661 20.1516 15.0525 20.04 15.2301 19.9155H15.2323ZM15.7423 26.0071L14.9983 25.7997C15.0025 25.7922 15.0062 25.7844 15.0094 25.7765C15.03 25.7158 15.0372 25.6513 15.0305 25.5876C15.0238 25.5238 15.0034 25.4623 14.9706 25.4072L14.9595 25.3795C14.8487 25.1112 14.7378 24.8329 14.6402 24.5635C14.5238 24.2541 14.4029 23.9348 14.2699 23.6243C14.0481 23.1043 13.8053 22.5854 13.5725 22.0842C13.4875 21.9009 13.4032 21.7191 13.3197 21.5387L13.4305 21.4179C13.5922 21.2621 13.7379 21.0905 13.8652 20.9056C14.2987 22.6686 14.9695 24.2718 15.7401 26.0071H15.7423ZM13.0092 23.8627C12.9826 23.8106 12.956 23.764 12.9327 23.7197C12.8919 23.6477 12.8549 23.5737 12.8218 23.4979L12.7985 23.4425C12.6422 23.0766 12.4825 22.6985 12.3417 22.326C12.3399 22.298 12.3441 22.2701 12.3539 22.2439C12.5125 22.1142 12.6799 21.9955 12.8739 21.8581L12.9438 21.8093L14.0814 24.7353C13.7799 24.5126 13.4615 24.3139 13.129 24.141H13.16L13.0092 23.8627ZM11.8882 22.6109L11.9304 22.7096C12.0956 23.0954 12.2519 23.4624 12.4138 23.8294C11.8417 23.6193 11.2391 23.5043 10.6298 23.4891L11.8882 22.6109ZM16.6305 29.3423L16.6737 29.1615C16.7414 28.8323 16.7414 28.4928 16.6737 28.1636C16.5967 27.7941 16.4854 27.4325 16.3411 27.0837C16.2926 26.9605 16.2371 26.8402 16.1748 26.7233C16.7702 26.8874 17.3634 27.087 17.7825 27.5837C18.043 27.8931 18.1694 28.1326 18.1595 28.2934C18.1517 28.4042 18.1473 28.5151 18.1428 28.6193C18.1229 29.1471 18.1029 29.6461 17.7625 30.074C17.4631 30.4521 17.0784 30.6828 16.4952 30.8302C16.3954 30.3213 16.5063 29.8445 16.6282 29.3423H16.6305ZM20.1065 30.4333C20.2074 30.063 20.4823 29.8423 20.8005 29.5873L20.8272 29.5662C21.3529 29.1318 21.9717 28.8245 22.6356 28.6681C22.9653 28.5991 23.2984 28.5472 23.6335 28.5129L23.9118 28.4785C24.4529 28.4114 24.9748 28.2357 25.4463 27.9618L25.3898 28.5949C25.3288 29.2935 25.2656 30.0164 25.168 30.7149C25.1558 30.7992 25.1436 30.8823 25.1325 30.9655C25.0216 31.7494 24.9185 32.4901 24.4174 33.1187C23.6312 34.1022 22.6145 34.5302 21.3937 34.3883C20.805 34.3195 20.3859 33.9104 20.1131 33.1365C19.8237 32.3426 19.8237 31.4589 20.1042 30.4333H20.1065ZM27.3844 26.5703C27.5497 26.4535 27.7465 26.3897 27.9488 26.3874C28.1026 26.3868 28.2537 26.4276 28.3862 26.5057C28.5187 26.5837 28.6277 26.6961 28.7017 26.8309C28.5908 26.8608 28.4899 26.8874 28.3845 26.9141C27.9887 27.0149 27.5785 27.1181 27.227 27.3321C26.9049 27.5467 26.6168 27.8083 26.3721 28.1082C26.5026 27.4864 26.8634 26.937 27.3822 26.5703H27.3844ZM27.6716 21.8093C27.6095 22.1352 27.5496 22.4435 27.5131 22.7617C27.4022 23.7596 27.5929 24.6466 28.0863 25.4039V25.4106C27.2891 25.3097 26.4985 25.8541 26.0461 26.5626C25.918 26.7543 25.7772 26.9372 25.6248 27.1103L25.6171 27.1181H25.6104C24.9906 26.8431 24.3331 26.5482 23.6867 26.2432C23.2432 26.0348 22.8706 25.7033 22.4826 25.1766C22.6467 25.0025 22.8052 24.8218 22.9593 24.6455C23.3241 24.2286 23.7011 23.7973 24.1646 23.4569C25.0782 22.7839 25.5428 22.0222 25.9331 21.0941L27.7237 21.5121C27.7049 21.6197 27.6882 21.7117 27.6694 21.8093H27.6716ZM17.3689 18.7369C16.6493 18.5085 15.9608 18.6637 15.2079 19.2258L15.056 19.075L15.1137 19.2968C14.9728 19.4077 14.8232 19.5086 14.6702 19.6072C14.801 19.289 14.9318 18.9697 15.066 18.6526C15.078 18.6276 15.0963 18.6062 15.1192 18.5905C15.5471 18.3577 16.0247 18.231 16.5118 18.2213C16.7849 18.2216 17.056 18.2666 17.3146 18.3543C17.5119 18.4313 17.7007 18.5287 17.8778 18.6448L17.9676 18.7003C17.8435 18.8311 17.6727 18.8355 17.3689 18.7369ZM4.78213 28.443L5.66915 27.7157L5.73235 27.8421C5.78668 27.953 5.83768 28.0572 5.88869 28.1659C5.9997 28.4206 6.13096 28.6661 6.28119 28.8999C6.67259 29.4742 7.10723 30.0297 7.52745 30.563L7.54076 30.5796C7.63168 30.6905 7.63057 30.7271 7.58843 30.8125C7.54369 30.9064 7.51198 31.006 7.49419 31.1085L6.92761 30.9777L6.63822 30.7382C5.87557 30.1017 5.245 29.322 4.78213 28.443ZM10.7141 32.602C10.8793 32.5466 11.0367 32.4912 11.1897 32.438C12.3617 31.9944 13.2044 31.5509 13.9195 30.9899C14.5338 30.5087 14.9174 29.8312 15.1059 28.9209C15.248 28.2031 15.2514 27.4646 15.1159 26.7455C15.3543 26.9262 15.5339 27.1136 15.6082 27.403C15.6951 27.73 15.8097 28.049 15.9508 28.3566C16.0746 28.656 16.0848 28.9903 15.9796 29.2968C15.8133 29.8955 15.8055 30.5386 15.9574 31.3203C16.0179 31.6539 16.0458 31.9925 16.0406 32.3315C16.0406 32.8327 15.749 33.203 15.1292 33.4968C14.3091 33.9041 13.3839 34.0503 12.4781 33.9159C11.7097 33.7895 11.08 33.3449 10.6464 32.6253L10.7141 32.602ZM6.57723 26.0869L6.51292 26.139L6.57502 26.0803L6.57723 26.0869ZM4.93625 29.5662C5.25166 29.9787 5.58768 30.3751 5.94302 30.7537L2.93603 30.0563C3.20495 29.7728 3.4908 29.5058 3.792 29.2569C3.99823 29.0795 4.21001 28.8965 4.41513 28.7025L4.50494 28.8655C4.63239 29.1087 4.77651 29.3429 4.93625 29.5662ZM16.147 33.4613L16.2147 33.4015C16.2491 33.6546 16.3324 33.8985 16.4597 34.12L16.045 33.9991C15.9394 33.9666 15.8296 33.9498 15.7191 33.9492C15.6398 33.9492 15.5609 33.9588 15.484 33.978C15.7188 33.8242 15.9405 33.6514 16.147 33.4613ZM15.4818 34.8861C15.7168 34.6488 15.8344 34.6333 16.2967 34.7919C16.6926 34.9282 17.0839 35.089 17.4643 35.2443L17.7825 35.374C17.7281 35.4715 17.6716 35.568 17.6239 35.6634L17.5807 35.7421L15.4818 34.8861ZM18.9134 34.5269C18.0963 34.2907 17.441 33.8095 16.8844 33.0278C17.7381 33.4846 18.6684 33.478 19.5088 33.3793C19.6659 33.9316 20.0055 34.4143 20.4724 34.7486C20.5422 34.8017 20.6164 34.8488 20.6941 34.8894C20.7932 34.9366 20.8895 34.9895 20.9824 35.048C20.5184 34.8835 20.0327 34.7886 19.541 34.7664C19.4239 34.7476 19.3112 34.7078 19.2084 34.6488C19.1153 34.5998 19.0181 34.559 18.9179 34.5269H18.9134ZM29.1762 25.1677C28.3125 24.4925 27.9954 23.5645 28.1694 22.2073C28.5021 23.0877 29.3026 23.427 30.3027 23.1087C30.5555 23.0289 30.6875 23.0422 30.8427 23.1664C31.0774 23.3585 31.3329 23.5237 31.6044 23.6587L31.692 23.6986C30.611 23.8472 30.0898 24.1831 29.1762 25.1677ZM25.8355 20.0541C25.046 19.809 24.2311 19.5574 23.4416 19.2779C22.2179 18.8531 20.9621 18.5272 19.6862 18.3033C19.4412 18.2579 19.1906 18.2357 18.9489 18.2124C18.7271 18.1925 18.4943 18.1703 18.2737 18.1326C18.1366 18.1009 18.0038 18.0533 17.8778 17.9907C17.788 17.9507 17.6949 17.9097 17.5973 17.8798C16.799 17.6081 16.0118 17.7556 15.3354 17.9142C14.6003 18.0871 14.3187 18.6504 14.0703 19.1471C14.0337 19.2203 13.9971 19.2924 13.9594 19.3689C13.536 20.1711 12.9279 20.8613 12.1854 21.3824C11.9193 21.5731 11.6554 21.7694 11.3937 21.9711C11.7718 21.6485 12.1455 21.3181 12.5025 20.9733C12.8296 20.665 13.0691 20.2692 13.2997 19.8867C13.3784 19.7558 13.4572 19.6261 13.5392 19.4997C13.7188 19.2236 13.8907 18.9387 14.0581 18.6637C14.1956 18.4419 14.3364 18.2035 14.4806 17.9774C14.5492 17.8651 14.6432 17.7706 14.7551 17.7014C14.8671 17.6323 14.9937 17.5905 15.1247 17.5793C15.6036 17.5209 16.0773 17.426 16.5418 17.2955C16.9043 17.1836 17.2865 17.1506 17.6629 17.1986C18.0392 17.2466 18.401 17.3745 18.7238 17.5738C19.1486 17.7962 19.5943 17.9763 20.0543 18.1115L20.1785 18.1525C21.3383 18.5384 22.406 18.8777 23.4416 19.1915C23.9563 19.3562 24.4826 19.4819 25.0161 19.5673C25.8 19.6782 26.4486 20.0574 27.135 20.461C26.7003 20.3213 26.2635 20.1849 25.8355 20.0541ZM5.24782 32.0421L5.53832 31.9967L5.6381 31.9822L5.70907 32.0033C5.9663 32.0798 6.22354 32.1541 6.48521 32.2251C7.11166 32.4058 7.76029 32.5932 8.38897 32.8005C8.52911 32.8479 8.6655 32.9057 8.79699 32.9735C8.19826 32.8227 7.57735 32.6686 6.96863 32.5355C6.2701 32.3847 5.53388 32.2506 4.68013 32.1197C4.86418 32.1031 5.06043 32.0732 5.24782 32.0421ZM9.48 32.6697L6.70031 31.8536L6.64043 31.837L7.06398 31.7749L6.22021 31.715L6.10933 31.6829L5.66582 31.5554L5.63478 31.674L5.53055 31.6662L5.0693 31.6385C4.29982 31.5942 3.57357 31.5532 2.88281 31.2604C2.79482 31.2255 2.71082 31.1813 2.63223 31.1285C2.34395 30.9256 2.32621 30.8258 2.53133 30.5353C2.54907 30.5087 2.56903 30.4843 2.58677 30.461L3.13117 30.5796C3.61016 30.6828 4.06254 30.7803 4.51714 30.9034C5.19127 31.0853 5.87427 31.2848 6.5351 31.4778C6.94978 31.5997 7.36483 31.7198 7.78025 31.8381C8.00201 31.9024 8.23706 31.9601 8.45993 32.0155C8.63622 32.0588 8.81141 32.102 8.98548 32.1497C9.31812 32.2395 9.67958 32.3393 10.0333 32.4557C10.062 32.4772 10.0839 32.5064 10.0965 32.54C10.3023 33.1807 10.7265 33.7289 11.2951 34.0889C11.172 34.0601 11.05 34.0335 10.9269 34.008C10.5333 33.9304 10.2794 33.6898 10.1275 33.2518C10.0784 33.1077 9.99306 32.9786 9.87966 32.8771C9.76625 32.7755 9.62862 32.7049 9.48 32.6719V32.6697ZM15.1114 34.1676C15.0959 34.1798 15.0815 34.1942 15.066 34.2075C14.679 34.5701 14.2189 34.5801 13.6556 34.5546C13.5824 34.5546 13.5082 34.5457 13.4339 34.5391C14.0104 34.5155 14.5783 34.3905 15.1114 34.1698V34.1676ZM14.5216 35.3762C15.1281 35.1666 15.5782 35.3662 16.1005 35.5979L16.3422 35.7088C16.5473 35.8009 16.7613 35.8962 16.9731 35.9849C17.0364 36.0093 17.1048 36.0177 17.1721 36.0091C17.2395 36.0006 17.3037 35.9755 17.3589 35.9361L17.543 35.8252C17.3944 36.0969 17.2503 36.3586 17.0995 36.618L17.0695 36.6646L16.9376 36.6069C15.9807 36.1878 14.9917 35.8219 14.0093 35.4782C14.1839 35.4691 14.3563 35.4355 14.5216 35.3784V35.3762ZM35.5295 31.3103C35.5102 31.3487 35.4957 31.3893 35.4862 31.4312C35.2944 31.2682 35.0316 31.1917 34.6635 31.1728C33.904 31.1351 33.2443 31.4146 32.6356 31.7051C32.2298 31.8969 31.8328 32.1208 31.4492 32.3371C31.2962 32.4224 31.1443 32.5089 30.9902 32.5932L30.9358 32.5788C30.8386 32.5571 30.7432 32.5274 30.6509 32.4901C30.4125 32.3858 30.2683 32.1674 30.1985 31.8048C30.0704 31.1147 30.0912 30.4051 30.2595 29.7237C30.2737 29.7002 30.2835 29.6742 30.2883 29.6472C30.3016 29.5729 30.316 29.5052 30.3282 29.442C30.3848 29.1693 30.4291 28.9542 30.2983 28.7768C30.1819 28.6204 29.9657 28.5439 29.5321 28.504C29.4811 28.5047 29.4315 28.487 29.3924 28.4541C29.3716 28.4135 29.3653 28.3669 29.3747 28.3222C29.4201 27.9419 29.3946 27.7545 29.2061 27.5571L29.6718 27.474L29.6408 27.3088C29.6275 27.2389 29.6186 27.1768 29.6108 27.1214C29.5998 27.0126 29.5749 26.9056 29.5366 26.8032C29.4656 26.638 29.3847 26.4772 29.307 26.322C29.2893 26.2854 29.2705 26.2499 29.2527 26.2111L29.2738 25.9893C29.3148 25.5536 29.6142 25.3241 29.9313 25.0779L30.02 25.0092C30.764 24.4271 31.6366 24.2175 32.6877 24.3683C34.0082 24.5579 35.0793 25.2487 35.9619 26.4816C36.1249 26.71 36.2103 27.0183 36.2945 27.3165C36.3134 27.3797 36.3311 27.444 36.3488 27.5061C36.3487 27.5631 36.3378 27.6195 36.3167 27.6724C36.2966 27.734 36.2814 27.797 36.2712 27.8609C36.1936 28.4652 36.1326 28.9697 36.0805 29.431C36.0123 30.0864 35.8256 30.7239 35.5295 31.3125V31.3103ZM42.4593 9.65492C42.3538 9.5076 42.2301 9.37423 42.0912 9.25798C41.9634 9.15463 41.8514 9.03324 41.7585 8.89763C41.5672 8.57494 41.3542 8.26562 41.121 7.9718C40.6176 7.34868 39.9512 6.95395 39.307 6.62132L39.1529 6.54371L39.2771 6.53262C39.7328 6.49603 40.204 6.45722 40.6675 6.41287C40.9048 6.3907 41.1421 6.3652 41.3793 6.33858C41.7696 6.29645 42.1721 6.2521 42.5691 6.22771C42.7127 6.22925 42.8552 6.2532 42.9915 6.29867C43.0547 6.31641 43.119 6.33304 43.1833 6.34746C43.3518 6.38404 43.5159 6.42507 43.6867 6.46498L43.9639 6.5304L44.1978 6.58473C44.3686 6.62243 44.546 6.66235 44.7156 6.70891C44.7553 6.71825 44.7929 6.73479 44.8265 6.7577C44.8762 6.88138 44.9616 6.98747 45.0718 7.0625C45.1819 7.13753 45.3119 7.17809 45.4452 7.17903C45.1414 8.64483 44.4473 9.91659 43.7122 11.2593C43.6878 11.3014 43.6645 11.3447 43.6412 11.3879C43.5937 11.1786 43.4998 10.9827 43.3663 10.8147C43.2388 10.6406 43.1013 10.4732 42.9671 10.3113C42.7868 10.102 42.6173 9.88368 42.4593 9.65714V9.65492ZM7.75475 21.5299C7.96173 21.1106 8.22963 20.7242 8.54974 20.3834C8.61072 20.3191 8.78147 20.2969 8.93337 20.2725L8.75043 20.6218C8.49541 21.0775 8.23152 21.5487 7.97429 22.0166C7.88004 22.1896 7.80132 22.3714 7.7237 22.5466C7.68933 22.6253 7.65496 22.704 7.61837 22.7828L7.9133 22.9358C8.04746 22.7074 8.18384 22.4801 8.32022 22.2539C8.64177 21.7183 8.97551 21.164 9.26157 20.5907C9.31453 20.4628 9.40492 20.354 9.52087 20.2784C9.63683 20.2028 9.77293 20.164 9.91131 20.1672L9.72947 20.8114L9.22831 22.031L9.64409 22.1818L10.0621 20.9356C10.1031 20.8424 10.1386 20.7437 10.173 20.6484C10.245 20.4388 10.3149 20.2415 10.4369 20.1339C10.5355 20.0485 10.7107 20.023 10.897 19.9864C11.026 19.9686 11.1533 19.9396 11.2773 19.9L11.3084 19.8878C11.2053 20.0293 11.126 20.1865 11.0733 20.3535C10.9968 20.5941 10.9391 20.8424 10.8837 21.0819C10.8737 21.1274 10.8626 21.1717 10.8527 21.2172L10.8227 21.2094L10.7839 21.3791C10.7107 21.7006 10.4757 21.8736 10.204 22.0754C10.057 22.1775 9.91965 22.2929 9.79378 22.4202C9.75725 22.4568 9.71796 22.4905 9.67625 22.5211C9.60479 22.5732 9.54 22.6339 9.48332 22.7018C9.1141 23.1775 8.60296 23.4436 8.06299 23.7241C7.92772 23.7951 7.79245 23.8649 7.65939 23.9392L7.35448 24.1111C7.2303 24.1831 7.10168 24.2563 6.97306 24.3262L6.92871 24.3007L6.81784 24.2452L6.70031 24.3561C6.38985 24.6566 6.09714 24.9404 5.70241 25.0735L5.50838 25.1389C5.38641 25.1799 5.26445 25.2221 5.13805 25.262C5.30436 25.0646 5.47068 24.8639 5.64808 24.6721C6.49536 23.7299 7.20533 22.6728 7.75697 21.5321L7.75475 21.5299ZM35.4119 32.4368C35.4829 32.761 35.6061 33.0714 35.7767 33.356C35.9227 33.5609 36.0871 33.752 36.2679 33.927C36.3644 34.0257 36.4631 34.1277 36.5518 34.2308L36.8844 34.6167C37.3046 35.1023 37.7404 35.6046 38.1362 36.1202C38.2457 36.2695 38.3383 36.4305 38.4123 36.6003L38.2404 36.445C37.8224 36.0725 37.3911 35.6866 36.9986 35.2808C36.5918 34.8571 36.2271 34.3948 35.9098 33.9004C35.7882 33.6884 35.6961 33.4609 35.6359 33.2241C35.5971 33.1021 35.5583 32.9768 35.5117 32.8482L35.2379 32.1031C35.3284 32.1953 35.3897 32.3122 35.4142 32.4391L35.4119 32.4368ZM36.3378 30.6562C36.4642 30.1439 36.585 29.6583 36.7103 29.1671C36.7166 29.4383 36.7384 29.7089 36.7757 29.9776C36.8295 30.2909 36.8036 30.6127 36.7003 30.9134C36.6582 31.0342 36.646 31.0331 36.5717 31.0243C36.4974 31.0154 36.4265 31.0154 36.35 31.0154H36.2391L36.3378 30.6562ZM36.8722 18.8367L36.8423 18.8045L36.9831 18.861C37.1172 18.5949 37.2469 18.3277 37.3778 18.0605C37.6627 17.4773 37.9566 16.8741 38.2759 16.3009C38.9789 15.0402 39.7539 13.7019 40.6487 12.2095C40.9358 11.7316 41.2474 11.2726 41.5767 10.787C41.682 10.6317 41.7896 10.4743 41.896 10.3146C41.9786 10.4658 42.0879 10.6006 42.2187 10.7127C42.4571 10.8956 42.416 11.0098 42.2486 11.3436C42.1056 11.6296 41.9903 11.9312 41.8783 12.2217C41.7951 12.4435 41.7086 12.6652 41.6122 12.8781C41.3461 13.4691 41.0689 14.0656 40.8017 14.6433C40.5345 15.221 40.2539 15.8241 39.9867 16.4173C39.4711 17.5593 39.0321 18.5994 38.6429 19.5962L38.9478 19.7281C39.1529 19.2979 39.3614 18.8677 39.5687 18.4375C40.0366 17.4673 40.52 16.465 40.9802 15.4693C41.4403 14.4736 41.8916 13.4547 42.3273 12.4679L42.8274 11.3403C42.8823 11.3937 42.9248 11.4585 42.952 11.5302C42.9792 11.6018 42.9904 11.6785 42.9848 11.7549C42.9892 11.8867 43.0217 12.016 43.0802 12.1341C43.0979 12.1763 43.1157 12.2195 43.129 12.2627L43.1401 12.296C43.0957 12.3936 43.0503 12.49 43.0048 12.5865C42.8451 12.928 42.6799 13.2806 42.5502 13.6443C42.3451 14.2219 42.1522 14.8129 41.9659 15.385C41.8173 15.8441 41.6621 16.3186 41.5024 16.7821C41.1764 17.7257 40.8372 18.6848 40.5045 19.6117C40.3803 19.9576 40.2569 20.3043 40.1342 20.6517L39.6463 20.4C38.746 19.9255 37.8945 19.4786 37.0352 19.0196C37.0001 18.9928 36.9694 18.9606 36.9443 18.9242C36.921 18.8932 36.8988 18.8644 36.8744 18.8389L36.8722 18.8367ZM45.3942 2.8515C45.3942 2.66744 45.5051 2.45899 45.7268 2.22061L45.5561 3.23957C45.4585 3.13308 45.4012 2.99579 45.3942 2.8515ZM15.1558 11.0021C15.5206 10.4477 16.096 10.3124 16.7081 10.1716C16.8866 10.1306 17.0718 10.0884 17.2503 10.0352C17.5053 9.95761 17.7747 9.89774 18.0342 9.83897C18.2936 9.78021 18.5564 9.72145 18.8103 9.64494L19.5609 9.42319L18.7848 9.32007C18.622 9.2985 18.4579 9.28776 18.2936 9.28792C17.3822 9.28792 16.5451 9.60946 15.7312 9.92102C15.7645 9.82234 15.8687 9.76247 16.1537 9.63053C16.3754 9.52852 16.5917 9.41542 16.8023 9.30566C17.1052 9.14161 17.4164 8.99357 17.7348 8.86215C18.326 8.6232 18.9366 8.43514 19.5598 8.3C20.4225 8.12371 21.3039 7.96737 22.1577 7.81325C22.7808 7.70237 23.4261 7.5915 24.0592 7.4651C24.3675 7.40522 24.6746 7.32761 24.9717 7.25221C25.3044 7.16573 25.657 7.07703 26.0018 7.01826C26.819 6.87745 27.6372 6.77211 28.4322 6.70559C29.2581 6.62771 30.0875 6.5944 30.917 6.6058H31.1177C32.1577 6.63019 33.2343 6.65569 34.2522 6.94508C34.312 6.9781 34.3644 7.023 34.4063 7.07703C34.4739 7.15131 34.536 7.23225 34.6025 7.31763C34.7263 7.49197 34.8724 7.64929 35.0372 7.78553C35.5266 8.13481 35.8874 8.63551 36.0639 9.2103C36.1131 9.36107 36.177 9.50665 36.2546 9.64494C36.4451 10.0301 36.5278 10.4595 36.4941 10.8879C36.4863 11.0863 36.4941 11.287 36.5052 11.4811C36.5371 11.804 36.5237 12.1298 36.4653 12.449C36.3348 12.9714 36.0994 13.4619 35.7734 13.8904C35.525 14.2231 35.1081 14.3195 34.4318 14.2231C33.5947 14.1033 32.9006 13.9869 32.232 13.6864C32.0501 13.6044 31.8694 13.519 31.6898 13.4325C31.3649 13.2795 31.0301 13.1198 30.6919 12.989C29.969 12.704 29.3159 12.7262 28.7482 13.0566C28.0652 13.4536 27.3068 13.5179 26.7291 13.5301H26.5129C26.0314 13.5308 25.5503 13.5567 25.0715 13.6077C24.883 13.642 24.7027 13.712 24.5404 13.8139C24.4592 13.8597 24.3755 13.9012 24.2899 13.9381C24.0762 14.0231 23.8615 14.1066 23.6457 14.1887C23.3241 14.3118 22.9904 14.4393 22.6677 14.579C22.253 14.7575 21.8173 14.9659 21.2563 15.2553C20.8815 15.4494 20.5023 15.6512 20.1364 15.8452C19.6929 16.0802 19.2394 16.3231 18.7881 16.5526C18.4023 16.7488 18.0929 16.812 17.7503 16.7666C17.4016 16.7373 17.0505 16.7617 16.7092 16.8386C16.5905 16.8586 16.4719 16.8786 16.3544 16.8941C16.167 16.9196 15.9796 16.9506 15.8 16.9806C15.5616 17.0205 15.3155 17.0615 15.0737 17.0914C14.8912 17.1053 14.7139 17.1592 14.5545 17.2493C14.3951 17.3394 14.2574 17.4634 14.1512 17.6126C14.1047 17.6758 14.0548 17.739 14.0049 17.8022C13.8471 17.986 13.7144 18.19 13.6102 18.4087C13.5148 18.6304 13.3618 18.7202 13.0647 18.7247C12.5769 18.733 12.1007 18.8744 11.6876 19.1338C11.1864 19.4354 10.6331 19.5197 10.0466 19.6084C9.91685 19.6272 9.78713 19.6472 9.65851 19.6693C9.2527 19.7392 8.8358 19.7935 8.43221 19.8467L8.22376 19.8745C8.55639 19.2669 8.97218 18.6082 9.57646 18.0783C10.1475 17.5771 10.5976 16.9695 11.0312 16.3841C11.1842 16.1778 11.3427 15.9638 11.5024 15.7598C11.9193 15.2276 12.3151 14.6677 12.6965 14.1266C13.394 13.1398 14.1147 12.1186 14.9817 11.2438C15.0481 11.1696 15.1065 11.0886 15.1558 11.0021ZM16.6172 36.9373C16.5318 36.9584 16.442 36.9739 16.3466 36.9906C16.2856 37.0005 16.2247 37.0105 16.1648 37.0227C16.1258 37.0011 16.0887 36.9763 16.0539 36.9484C16.0044 36.9069 15.9514 36.8698 15.8953 36.8376C15.8 36.7877 15.7013 36.7444 15.606 36.7023C15.434 36.6348 15.2707 36.5474 15.1192 36.4417C15.0671 36.4018 15.0083 36.363 14.9584 36.3308L16.6172 36.9373ZM22.1189 40.2038L22.1089 40.2193L22.2253 39.7824C22.2373 39.8562 22.234 39.9317 22.2157 40.0041C22.1974 40.0766 22.1644 40.1445 22.1189 40.2038ZM22.6189 40.3612L22.7963 40.4876C23.129 40.7216 23.4505 40.9511 23.7709 41.1817C23.8427 41.2331 23.9098 41.2906 23.9716 41.3536C24.0217 41.4008 24.0626 41.4568 24.0925 41.5188L22.5502 40.5154L22.6189 40.3612ZM23.4705 43.2706L23.4893 43.264C24.2078 43.2396 24.7345 43.335 25.1924 43.5678C25.2434 43.5944 25.2966 43.621 25.3487 43.6498C24.9675 43.5099 24.5729 43.4096 24.1712 43.3505C23.9761 43.3228 23.8009 43.3039 23.6357 43.2939H23.6213C23.57 43.2955 23.5189 43.2876 23.4705 43.2706ZM35.606 39.5618H35.5771C34.7755 39.5618 34.0437 39.34 33.2698 39.0972L33.1589 39.0606C32.242 38.7779 31.284 38.8311 30.3094 39.2181C29.8481 39.401 29.5 39.7481 29.225 40.3036L29.1773 40.2703C29.0354 40.1694 28.9012 40.0741 28.7615 39.9854L28.4677 39.8035C27.9133 39.4498 27.3379 39.085 26.7646 38.7391C26.1914 38.3932 26.0428 37.9984 26.279 37.4274C26.4465 37.0215 26.6648 36.6385 26.9287 36.2876C27.4869 35.536 28.2416 34.9528 29.1097 34.6023L29.4124 34.4825C29.8351 34.3242 30.2473 34.139 30.6464 33.9281C31.0899 33.6831 31.5257 33.4148 31.9481 33.152C32.3129 32.9302 32.691 32.6952 33.068 32.4801C33.5869 32.1852 34.1579 31.919 34.821 31.9601C34.9462 31.9611 35.0692 31.9931 35.1791 32.0532L35.1869 32.9014C35.192 33.5229 35.393 34.127 35.7612 34.6278C36.3877 35.5148 37.1638 36.2754 37.9089 36.9695C38.1422 37.2038 38.351 37.4612 38.532 37.7379L38.675 37.9386C38.7937 38.1027 38.9079 38.2778 39.0188 38.4464C39.1518 38.6504 39.2904 38.8611 39.4412 39.0606C39.6286 39.3112 39.6574 39.8046 39.4978 40.0386C39.3728 40.2213 39.211 40.3759 39.0227 40.4924C38.8344 40.6089 38.6238 40.6847 38.4045 40.7149C38.0153 40.7837 37.6905 40.9034 37.3989 41.2449C37.2713 41.0232 37.1505 40.8014 37.0318 40.5797L36.9831 40.4887C36.6604 39.8922 36.1714 39.5618 35.606 39.5618Z" fill="#0E8499"/>
</svg>
