<svg width="156" height="50" viewBox="0 0 70 23" fill="none" xmlns="http://www.w3.org/2000/svg">
    <g clip-path="url(#clip0_35_2)">
        <path d="M6.19735 1.59424H5.52637V5.00432H7.75815V4.37045H6.19735V1.59424Z" fill="#1D1D1B" />
        <path d="M13.051 1.59424H12.38V5.00553H13.051V1.59424Z" fill="#1D1D1B" />
        <path
            d="M20.2421 4.027C20.1509 4.13014 20.0388 4.21262 19.9132 4.26894C19.7655 4.33041 19.6065 4.36009 19.4466 4.35604C19.3049 4.35754 19.1643 4.33081 19.0331 4.27741C18.9106 4.22587 18.8002 4.14923 18.7091 4.05241C18.6158 3.94989 18.5439 3.82981 18.4975 3.69918C18.4455 3.55662 18.4196 3.40579 18.4214 3.25402C18.4193 3.10172 18.4456 2.95037 18.4987 2.80765C18.5462 2.67843 18.6189 2.55998 18.7127 2.45926C18.8041 2.36279 18.9144 2.2862 19.0367 2.23426C19.1668 2.18108 19.3061 2.15435 19.4466 2.15563C19.6004 2.15312 19.7531 2.18236 19.8951 2.24152C20.02 2.29508 20.1318 2.37515 20.2227 2.4762L20.3086 2.57176L20.7801 2.09878L20.6954 2.01289C20.5403 1.85727 20.3579 1.7314 20.1575 1.64152C19.7125 1.45836 19.2133 1.45836 18.7683 1.64152C18.5636 1.72874 18.3783 1.8558 18.2231 2.01531C18.0668 2.17559 17.9436 2.36508 17.8604 2.57297C17.7768 2.79139 17.7358 3.02379 17.7395 3.25765C17.7361 3.48951 17.7771 3.71988 17.8604 3.93628C17.9435 4.14492 18.0667 4.3352 18.2231 4.49636C18.3787 4.65705 18.5649 4.78496 18.7708 4.87257C18.9863 4.96415 19.2184 5.01027 19.4526 5.00805C19.6969 5.01169 19.9394 4.96474 20.1647 4.87015C20.3713 4.78142 20.5585 4.65322 20.716 4.49273L20.8006 4.40684L20.3279 3.93507L20.2421 4.027Z"
            fill="#1D1D1B" />
        <path
            d="M28.1439 2.00932C27.9878 1.84982 27.8017 1.72279 27.5963 1.63553C27.164 1.45808 26.6793 1.45808 26.247 1.63553C26.0416 1.72216 25.8558 1.84928 25.7006 2.00932C25.5459 2.1704 25.4228 2.35917 25.3379 2.56578C25.2482 2.78237 25.203 3.0148 25.2049 3.24924C25.2037 3.48271 25.2485 3.71412 25.3367 3.93029C25.4216 4.13798 25.5446 4.32793 25.6994 4.49037C25.9418 4.73626 26.2524 4.90376 26.591 4.97125C26.9295 5.03875 27.2805 5.00313 27.5987 4.869C27.8032 4.78045 27.9885 4.65263 28.1439 4.49279C28.383 4.24087 28.5443 3.92532 28.6086 3.58396C28.673 3.2426 28.6375 2.88992 28.5066 2.5682C28.4231 2.36012 28.2999 2.1703 28.1439 2.00932ZM27.9553 3.24924C27.9592 3.44898 27.9131 3.64652 27.8211 3.82384C27.7379 3.98399 27.6125 4.11828 27.4584 4.21215C27.296 4.30813 27.1103 4.35751 26.9216 4.35489C26.7789 4.35665 26.6374 4.32907 26.5058 4.27384C26.3833 4.22215 26.273 4.14553 26.1817 4.04884C26.0884 3.94847 26.0161 3.83043 25.969 3.70166C25.9171 3.5578 25.8913 3.40581 25.8928 3.25287C25.8886 3.05402 25.9343 2.85729 26.0258 2.6807C26.1097 2.52236 26.2351 2.38982 26.3885 2.29723C26.5501 2.203 26.7346 2.15528 26.9216 2.15932C27.0649 2.1575 27.2071 2.18423 27.34 2.23795C27.4621 2.2901 27.5724 2.36667 27.664 2.46295C27.7572 2.56343 27.8302 2.68088 27.8792 2.80892C27.9308 2.94992 27.9566 3.09908 27.9553 3.24924Z"
            fill="#1D1D1B" />
        <path
            d="M35.1898 3.50093C35.3535 3.42056 35.4903 3.29452 35.5839 3.13803C35.6781 2.9763 35.7258 2.79169 35.7218 2.60456C35.7251 2.42096 35.6773 2.24005 35.5839 2.08198C35.49 1.92664 35.3542 1.80088 35.1922 1.71907C35.0116 1.62976 34.8121 1.58536 34.6107 1.58964H33.3268V5.00456H33.9978V3.62915H34.0933L35.2104 5.00819H36.0675L34.9069 3.60012C35.0052 3.57983 35.1004 3.54647 35.1898 3.50093ZM35.0472 2.61907C35.0511 2.67327 35.0435 2.72768 35.025 2.77876C35.0065 2.82983 34.9773 2.87641 34.9396 2.91544C34.8432 2.99418 34.7202 3.03274 34.5962 3.02311H34.0014V2.2102H34.6059C34.6668 2.20538 34.728 2.21309 34.7858 2.23285C34.8436 2.25262 34.8968 2.28402 34.942 2.32512C34.9784 2.36453 35.0064 2.41088 35.0245 2.46138C35.0426 2.51189 35.0503 2.56552 35.0472 2.61907Z"
            fill="#1D1D1B" />
        <path
            d="M41.1441 3.57569H42.6723V2.95513H41.1441V2.22811H42.8004V1.59424H40.4731V5.00432H42.8234V4.37045H41.1441V3.57569Z"
            fill="#1D1D1B" />
        <path
            d="M49.364 3.5007C49.5279 3.42074 49.6649 3.29461 49.7581 3.1378C49.8523 2.97607 49.9 2.79146 49.896 2.60433C49.8991 2.42075 49.8514 2.23987 49.7581 2.08175C49.6639 1.92624 49.5277 1.80046 49.3652 1.71885C49.1851 1.62941 48.986 1.58499 48.7849 1.58941H47.501V5.00433H48.1708V3.62893H48.2723L49.3894 5.00796H50.2466L49.0847 3.59627C49.1816 3.57682 49.2755 3.54468 49.364 3.5007ZM49.2214 2.61885C49.2248 2.67331 49.2167 2.72788 49.1975 2.77897C49.1783 2.83006 49.1486 2.8765 49.1101 2.91522C49.0138 2.99396 48.8908 3.03252 48.7668 3.02288H48.1708V2.20998H48.7752C48.8361 2.20515 48.8974 2.21286 48.9552 2.23263C49.013 2.25239 49.0661 2.28379 49.1113 2.3249C49.1486 2.36391 49.1775 2.41007 49.1964 2.4606C49.2153 2.51112 49.2238 2.56495 49.2214 2.61885Z"
            fill="#1D1D1B" />
        <path d="M54.6472 0.924194L54.9881 1.26653L55.907 0.514113L55.3932 0L54.6472 0.924194Z"
            fill="#1D1D1B" />
        <path d="M55.3182 1.59424H54.6472V5.00553H55.3182V1.59424Z" fill="#1D1D1B" />
        <path
            d="M61.7355 1.59424H61.2628L59.8628 5.00432H60.5882L60.8747 4.28819H62.1151L62.4004 5.00432H63.1258L61.7355 1.59424ZM61.4937 2.73496L61.8673 3.67125H61.1189L61.4937 2.73496Z"
            fill="#1D1D1B" />
        <path
            d="M37.3782 13.1237C37.2875 13.0717 37.2379 13.1237 37.1811 13.1673C36.8257 13.4431 36.4714 13.7213 36.116 13.9983L35.0726 14.8076V14.5874C35.0726 13.4491 35.0726 12.312 35.0642 11.1749C35.0557 10.2072 34.6882 9.40395 33.8878 8.81968C33.7839 8.74468 33.7282 8.74468 33.6351 8.81968C32.7204 9.59468 31.8023 10.3669 30.8811 11.1362C30.7602 11.2378 30.7263 11.3056 30.8376 11.4326C30.9246 11.5318 30.9669 11.6951 31.0697 11.7483C31.1906 11.81 31.3115 11.654 31.4324 11.6092C31.9027 11.4386 32.2315 11.6007 32.3573 12.0834C32.4104 12.2864 32.4372 12.4953 32.437 12.7052C32.437 15.0052 32.437 17.3035 32.437 19.6003C32.4327 19.9051 32.4595 20.2095 32.5168 20.5088C32.6752 21.2733 33.0125 21.9277 33.675 22.3826C33.7225 22.4234 33.783 22.4457 33.8455 22.4455C34.3527 22.424 34.8517 22.31 35.3181 22.1092C35.9515 21.825 36.5502 21.4691 37.1025 21.0483C38.0201 20.3564 38.806 19.5459 39.3137 18.4995C39.9061 17.2789 39.9835 16.056 39.2678 14.8523C38.8144 14.083 38.1362 13.558 37.3782 13.1237ZM36.2901 20.7084C36.2759 20.7343 36.2565 20.757 36.2331 20.775C36.2098 20.793 36.1829 20.8059 36.1542 20.813C36.1256 20.82 36.0958 20.821 36.0667 20.8159C36.0377 20.8108 36.01 20.7998 35.9854 20.7834C35.7712 20.6677 35.6084 20.4755 35.5296 20.2451C35.3463 19.7929 35.229 19.3166 35.1814 18.831C35.0545 17.8777 35.0605 16.9197 35.0605 15.9616C35.0542 15.9057 35.0645 15.8491 35.0901 15.799C35.1157 15.7489 35.1554 15.7074 35.2044 15.6798C35.2367 15.6594 35.2678 15.6372 35.2975 15.6132C35.607 15.3785 35.7364 15.3785 36.0543 15.6205C36.5162 15.9725 36.741 16.4673 36.8909 17.0092C37.0094 17.4613 37.0616 17.9283 37.0457 18.3955C37.0371 19.226 36.7728 20.0336 36.2889 20.7084H36.2901Z"
            fill="#010101" />
        <path
            d="M10.0431 12.3386C9.50628 12.5975 9.09039 12.387 8.77726 12.0217C8.46413 11.6563 8.23926 11.2378 7.93097 10.8773C7.55014 10.4382 7.11249 10.1116 6.50317 10.062C5.62061 9.9894 4.84444 10.2592 4.12994 10.7539C3.49845 11.2139 2.90641 11.7257 2.35999 12.2842C1.6346 12.987 1.0023 13.7575 0.561025 14.6733C0.0967761 15.641 -0.10996 16.645 0.0653426 17.6975C0.248079 18.857 0.743871 19.9445 1.49919 20.8426C2.35636 21.8612 3.44807 22.4309 4.79004 22.4503C5.74212 22.4653 6.67408 22.1754 7.4498 21.6229C8.20541 21.0991 8.82562 20.4241 9.43011 19.7358C9.52925 19.6221 9.69971 19.5071 9.70455 19.3862C9.70455 19.2434 9.49419 19.1745 9.39263 19.0559C9.31405 18.964 9.26206 18.9809 9.18348 19.0559C8.85866 19.378 8.48437 19.6459 8.07484 19.8495C7.56856 20.1203 6.99005 20.2253 6.42096 20.1495C5.57467 20.0285 4.89401 19.5882 4.32458 18.9761C3.29695 17.8741 2.76137 16.5652 2.73356 15.2527C2.6937 14.7882 2.72468 14.3204 2.82545 13.8652C2.96327 13.2858 3.20265 12.7632 3.70921 12.4027C3.96914 12.2188 4.24479 12.1136 4.56396 12.2104C4.80379 12.2963 5.01827 12.4411 5.1878 12.6313C5.55895 13.0075 5.86241 13.4418 6.2118 13.841C6.49229 14.1567 6.79574 14.4458 7.20921 14.5765C7.53201 14.6817 7.827 14.6805 8.12441 14.4652C8.76517 13.9995 9.42648 13.5616 10.0793 13.1128C10.5254 12.8055 10.5242 12.8079 10.1881 12.3785C10.1374 12.3204 10.1071 12.3108 10.0431 12.3386Z"
            fill="#010101" />
        <path
            d="M69.4464 19.8182C69.0728 20.0432 68.8153 19.9089 68.6895 19.4867C68.6395 19.3159 68.615 19.1385 68.617 18.9605C68.617 18.4137 68.617 17.8718 68.6097 17.3214C68.6013 16.7311 68.6327 16.1395 68.542 15.5528C68.3812 14.5137 67.8372 13.7879 66.835 13.4178C66.1204 13.1553 65.3842 13.0972 64.6286 13.0815C64.5098 13.0784 64.3937 13.1165 64.2997 13.1891C63.4131 13.8286 62.5265 14.4661 61.64 15.1016C61.2217 15.4016 61.2217 15.3992 61.5299 15.8202C61.5759 15.8831 61.6073 15.9 61.6787 15.854C62.0182 15.6443 62.3924 15.4968 62.7837 15.4186C63.5018 15.2528 64.2163 15.2359 64.9066 15.5516C65.2087 15.6807 65.4625 15.9016 65.632 16.1831C65.331 16.2847 65.042 16.3754 64.7579 16.4795C63.8609 16.8097 62.9989 17.2053 62.3182 17.902C61.513 18.7246 61.1588 19.6851 61.5602 20.8149C61.866 21.6762 62.4065 22.3065 63.3809 22.4444C63.427 22.4523 63.4743 22.4502 63.5195 22.4383C63.5648 22.4264 63.607 22.405 63.6432 22.3754C64.1268 22.0174 64.6104 21.6609 65.094 21.3061L66.0298 20.6238C66.086 21.0342 66.2241 21.4292 66.436 21.7851C66.5573 22.0169 66.7348 22.2144 66.9522 22.3597C67.0151 22.4119 67.095 22.4388 67.1766 22.4352C67.2582 22.4316 67.3355 22.3978 67.3935 22.3403C68.1914 21.6726 69.0014 21.0194 69.8115 20.3589C70.046 20.1665 70.0375 20.1714 69.8598 19.921C69.7498 19.754 69.6676 19.6851 69.4464 19.8182ZM65.8085 19.8266C65.5244 20.0057 65.2427 20.1895 64.9622 20.3758C64.9324 20.4014 64.8945 20.4154 64.8552 20.4154C64.816 20.4154 64.7781 20.4014 64.7483 20.3758C64.1438 19.9984 63.902 19.1843 64.1825 18.4766C64.4303 17.8415 64.9248 17.4545 65.5123 17.1569C65.6187 17.1036 65.7312 17.0601 65.8424 17.0141C65.8661 17.0082 65.8905 17.0054 65.9149 17.0057C65.9149 17.5984 65.9149 18.1883 65.9149 18.7754C65.9149 19.0549 65.9149 19.3343 65.9222 19.6125C65.9267 19.6555 65.9184 19.6988 65.8981 19.737C65.8779 19.7751 65.8467 19.8064 65.8085 19.8266Z"
            fill="#010101" />
        <path
            d="M44.4301 13.0827C44.336 13.0798 44.2446 13.1137 44.175 13.177C43.284 13.9125 42.4002 14.6565 41.4959 15.3738C40.5916 16.0912 40.1817 17.019 40.166 18.2311C40.1936 19.3097 40.5713 20.35 41.242 21.1948C41.7026 21.7827 42.2612 22.2399 43.0107 22.4045C43.232 22.4516 43.4424 22.5049 43.666 22.3162C44.6018 21.525 45.5557 20.7569 46.5059 19.9839C47.4223 19.2387 48.0026 18.3073 48.1078 17.1145C48.294 15.0375 46.6873 13.1516 44.4301 13.0827ZM45.2159 19.9694C45.17 20.1145 45.095 20.1436 44.9475 20.123C44.4204 20.0456 44.0239 19.7601 43.6926 19.3645C43.0881 18.6581 42.7859 17.8246 42.6589 16.9174C42.5805 16.4915 42.6075 16.053 42.7375 15.6399C42.9479 15.0569 42.9793 15.0424 43.5584 15.2335C44.0215 15.3871 44.3418 15.7391 44.5969 16.142C45.1337 16.9887 45.3368 17.9323 45.3695 18.9242C45.3756 19.2787 45.3238 19.6317 45.2159 19.9694Z"
            fill="#010101" />
        <path
            d="M14.7629 13.0839C14.7009 13.0801 14.6387 13.0889 14.5802 13.1096C14.5216 13.1304 14.4678 13.1628 14.422 13.2048C13.5322 13.9415 12.6484 14.6855 11.7453 15.4064C10.8627 16.1117 10.4698 17.0335 10.4553 18.1645C10.469 19.2818 10.8573 20.3621 11.5579 21.2322C12.0089 21.7996 12.5602 22.2351 13.288 22.402C13.5527 22.4625 13.78 22.4673 14.0134 22.2617C14.7931 21.5915 15.5971 20.9504 16.3938 20.3008C16.8508 19.927 17.3163 19.5665 17.6596 19.073C18.2738 18.1887 18.5434 17.2197 18.3488 16.1576C18.1922 15.3124 17.7509 14.5463 17.0984 13.987C16.446 13.4278 15.6217 13.109 14.7629 13.0839ZM15.4968 19.9657C15.4921 19.9949 15.481 20.0226 15.4644 20.047C15.4478 20.0715 15.4261 20.092 15.4008 20.1071C15.3754 20.1222 15.347 20.1315 15.3177 20.1345C15.2883 20.1374 15.2587 20.1339 15.2308 20.1242C14.7057 20.0354 14.2369 19.7429 13.9263 19.3101C13.2107 18.4158 12.8519 17.2879 12.9192 16.1443C12.9284 15.8261 13.0237 15.5163 13.1949 15.248C13.2144 15.209 13.2457 15.1772 13.2844 15.157C13.323 15.1368 13.3669 15.1293 13.4101 15.1355C13.965 15.1766 14.3676 15.4778 14.6952 15.8927C15.2187 16.5556 15.4617 17.3359 15.585 18.1597C15.6153 18.3605 15.6261 18.5625 15.6431 18.7294C15.6681 19.1469 15.6186 19.5656 15.4968 19.9657Z"
            fill="#010101" />
        <path
            d="M53.3754 19.6995C53.2714 19.6536 53.1807 19.7818 53.0816 19.8277C52.76 19.9753 52.5073 19.8737 52.3949 19.5362C52.3309 19.323 52.3019 19.1007 52.3091 18.8781C52.3091 17.5826 52.3091 16.287 52.3091 15.0459C52.2752 13.6644 52.3393 12.3362 52.2655 11.0104C52.2519 10.5815 52.1393 10.1615 51.9364 9.78332C51.7336 9.40517 51.4461 9.07908 51.0964 8.83057C50.9925 8.75315 50.9344 8.74468 50.8305 8.83057C49.9842 9.55637 49.1319 10.2628 48.2844 10.9802C47.9144 11.2923 47.9217 11.2947 48.1441 11.7132C48.1852 11.7894 48.2106 11.8148 48.2928 11.7556C48.4347 11.6597 48.5916 11.5881 48.7571 11.5439C49.1959 11.4156 49.451 11.562 49.555 12.0108C49.6088 12.2787 49.6319 12.5518 49.6239 12.8249C49.6239 15.0096 49.6239 17.1943 49.6239 19.379C49.6155 19.7406 49.6443 20.1022 49.7097 20.458C49.8621 21.1983 50.1716 21.8467 50.7749 22.333C50.7962 22.3584 50.8228 22.3789 50.8529 22.3929C50.883 22.4069 50.9158 22.4142 50.949 22.4142C50.9821 22.4142 51.0149 22.4069 51.045 22.3929C51.0751 22.3789 51.1017 22.3584 51.123 22.333C51.9186 21.6725 52.7249 21.0241 53.5277 20.3733C53.755 20.1894 53.7562 20.1894 53.5773 19.9511C53.5108 19.8604 53.4612 19.7382 53.3754 19.6995Z"
            fill="#010101" />
        <path
            d="M25.5568 19.3549C25.5568 19.3549 25.5471 19.3464 25.5447 19.3404C25.4673 19.1977 25.3911 19.2194 25.2642 19.3053C24.5896 19.7577 23.8751 19.9525 23.1025 19.5473C22.7218 19.338 22.4044 19.0301 22.1837 18.6557C21.6372 17.7896 21.4232 16.8303 21.4196 15.8178C21.4196 15.6593 21.4257 15.4997 21.4196 15.3412C21.4196 15.2299 21.4668 15.1839 21.5659 15.1573C21.7597 15.1139 21.9625 15.14 22.139 15.2311C22.7568 15.5076 23.2765 15.9647 23.6296 16.5424C23.701 16.6501 23.7421 16.6537 23.8388 16.5835C24.4916 16.1118 25.1445 15.6412 25.8034 15.1791C25.9134 15.1029 25.9146 15.046 25.8638 14.9372C25.6966 14.559 25.4563 14.2177 25.1566 13.9328C24.857 13.648 24.5041 13.4253 24.1181 13.2775C23.3927 12.986 22.6806 13.0029 21.983 13.4057C21.0388 13.9513 20.2723 14.6856 19.5868 15.5227C19.1243 16.0905 18.8864 16.8086 18.9182 17.5404C18.9277 18.8557 19.3577 20.1333 20.1454 21.1864C20.5818 21.7755 21.1246 22.2267 21.8609 22.396C21.9767 22.4313 22.0996 22.4366 22.218 22.4114C22.3364 22.3862 22.4465 22.3314 22.5379 22.2521C23.5136 21.4718 24.5086 20.7158 25.4963 19.9537C25.6063 19.869 25.7889 19.794 25.8058 19.6912C25.8276 19.5702 25.6414 19.4759 25.5568 19.3549Z"
            fill="#010101" />
        <path
            d="M59.0334 13.2847C58.6832 13.1322 58.3011 13.0674 57.9203 13.0959C57.5394 13.1243 57.1712 13.2452 56.8475 13.448C55.9493 14.0013 55.156 14.7094 54.5045 15.5395C54.0209 16.1298 53.8408 16.8084 53.8444 17.7484C53.8937 19.1014 54.3976 20.3983 55.2746 21.4294C55.6643 21.9199 56.2063 22.2664 56.8149 22.4141C56.9224 22.4451 57.0359 22.4488 57.1453 22.4249C57.2546 22.4011 57.3563 22.3504 57.4411 22.2774C58.4083 21.5044 59.3912 20.7556 60.3681 19.9984C60.4974 19.898 60.7175 19.8036 60.7308 19.6899C60.7453 19.5472 60.5289 19.4359 60.4322 19.2943C60.3753 19.2109 60.3233 19.2121 60.2472 19.2713C60.0616 19.4143 59.8559 19.5289 59.6366 19.6113C59.1119 19.8193 58.5897 19.8423 58.0758 19.5774C57.5149 19.2871 57.1546 18.8129 56.8838 18.2625C56.4377 17.3601 56.3023 16.3972 56.3385 15.4004C56.3385 15.2213 56.4232 15.1584 56.5731 15.15C56.8087 15.139 57.0423 15.1984 57.2441 15.3205C57.783 15.6111 58.2365 16.0377 58.5594 16.558C58.6199 16.6524 58.6549 16.679 58.7553 16.6004C59.4114 16.1238 60.0711 15.652 60.7344 15.1851C60.7552 15.1757 60.7736 15.1619 60.7883 15.1445C60.8031 15.1272 60.8138 15.1068 60.8197 15.0848C60.8256 15.0628 60.8266 15.0397 60.8225 15.0173C60.8184 14.9949 60.8093 14.9737 60.7961 14.9552C60.6267 14.5743 60.3838 14.2306 60.0813 13.944C59.7788 13.6573 59.4227 13.4332 59.0334 13.2847Z"
            fill="#010101" />
        <path
            d="M31.164 19.6985C31.0685 19.6586 30.9693 19.782 30.869 19.8279C30.5426 19.9779 30.302 19.8787 30.1823 19.5376C30.1336 19.4001 30.1091 19.2552 30.1098 19.1094C30.1098 18.5251 30.1098 17.9408 30.1098 17.3566H30.0699C30.0699 16.7916 30.0699 16.2255 30.0699 15.663C30.0699 14.6396 29.7313 13.7771 28.8609 13.1674C28.775 13.107 28.7243 13.0961 28.6396 13.1674C27.7837 13.8848 26.9241 14.5961 26.0669 15.3134C25.7042 15.6158 25.7115 15.6183 25.9339 16.0392C25.975 16.1179 25.9992 16.1408 26.0826 16.0876C26.2378 15.9897 26.4064 15.9151 26.5832 15.8662C26.9555 15.7683 27.1985 15.8953 27.3218 16.2606C27.398 16.5097 27.4331 16.7696 27.4258 17.0299C27.4258 17.8235 27.4258 18.617 27.4258 19.4106C27.4176 19.7724 27.4472 20.134 27.5141 20.4896C27.6712 21.2372 27.9856 21.8904 28.6094 22.3658C28.6253 22.3841 28.6449 22.3987 28.6669 22.4087C28.6889 22.4187 28.7128 22.4239 28.737 22.4239C28.7611 22.4239 28.785 22.4187 28.807 22.4087C28.829 22.3987 28.8486 22.3841 28.8645 22.3658C29.6733 21.7017 30.4882 21.0449 31.3018 20.3868C31.5364 20.1981 31.5436 20.1993 31.3659 19.9658C31.3054 19.8703 31.2547 19.7372 31.164 19.6985Z"
            fill="#010101" />
        <path
            d="M26.935 12.3858C27.1284 12.658 27.1284 12.6592 27.4186 12.4765C28.177 11.987 28.9367 11.4975 29.6975 11.008C29.7507 10.9741 29.8632 10.962 29.7797 10.8471C29.5198 10.4842 29.2623 10.1286 29.0036 9.76807C28.2081 10.4068 27.4319 11.0346 26.6436 11.66C26.5397 11.7423 26.4937 11.8052 26.6013 11.9273C26.7204 12.0743 26.8318 12.2273 26.935 12.3858Z"
            fill="#010101" />
    </g>
    <defs>
        <clipPath id="clip0_35_2">
            <rect width="70" height="22.5" fill="white" />
        </clipPath>
    </defs>
</svg>