<svg width="156" height="50" viewBox="0 0 156 50" fill="none" xmlns="http://www.w3.org/2000/svg">
<g clip-path="url(#clip0_43_2)">
<path d="M13.8109 3.54297H12.3156V11.1209H17.2892V9.71232H13.8109V3.54297Z" fill="white"/>
<path d="M29.0849 3.54297H27.5896V11.1236H29.0849V3.54297Z" fill="white"/>
<path d="M45.1107 8.94887C44.9075 9.17805 44.6577 9.36135 44.3778 9.4865C44.0486 9.62311 43.6943 9.68906 43.3378 9.68005C43.0221 9.68339 42.7089 9.624 42.4164 9.50532C42.1433 9.3908 41.8974 9.22048 41.6943 9.00532C41.4865 8.7775 41.3262 8.51066 41.2228 8.22037C41.1068 7.90357 41.0493 7.5684 41.0531 7.23113C41.0486 6.89269 41.107 6.55635 41.2255 6.23919C41.3312 5.95203 41.4934 5.68882 41.7024 5.465C41.9061 5.25062 42.1519 5.08041 42.4245 4.965C42.7143 4.84682 43.0248 4.78742 43.3378 4.79027C43.6806 4.78469 44.0209 4.84966 44.3374 4.98113C44.6158 5.10015 44.8649 5.27809 45.0676 5.50263L45.2589 5.715L46.3096 4.66392L46.121 4.47306C45.7752 4.12724 45.3689 3.84753 44.9221 3.64779C43.9305 3.24077 42.8179 3.24077 41.8263 3.64779C41.3701 3.84163 40.9571 4.12398 40.6112 4.47844C40.2629 4.83462 39.9883 5.2557 39.8029 5.71769C39.6166 6.20305 39.5252 6.71952 39.5335 7.23919C39.5259 7.75444 39.6173 8.26636 39.8029 8.74726C39.9881 9.2109 40.2628 9.63376 40.6112 9.99188C40.9581 10.349 41.3731 10.6332 41.8317 10.8279C42.3121 11.0314 42.8294 11.1339 43.3513 11.129C43.8958 11.1371 44.4361 11.0327 44.9382 10.8225C45.3986 10.6254 45.8159 10.3405 46.1669 9.98381L46.3555 9.79296L45.302 8.74457L45.1107 8.94887Z" fill="white"/>
<path d="M62.7206 4.46503C62.3726 4.11058 61.9579 3.82829 61.5001 3.63439C60.5368 3.24004 59.4566 3.24004 58.4933 3.63439C58.0356 3.82688 57.6214 4.10938 57.2755 4.46503C56.9307 4.82298 56.6565 5.24246 56.4672 5.70159C56.2673 6.18291 56.1665 6.69943 56.1708 7.22041C56.1682 7.73922 56.268 8.25348 56.4645 8.73385C56.6538 9.19537 56.9279 9.61749 57.2728 9.97847C57.8131 10.5249 58.5052 10.8971 59.2597 11.0471C60.0143 11.1971 60.7965 11.1179 61.5055 10.8199C61.9614 10.6231 62.3742 10.3391 62.7206 9.98385C63.2533 9.42402 63.6129 8.72279 63.7563 7.96421C63.8996 7.20564 63.8207 6.42191 63.5289 5.70697C63.3428 5.24457 63.0683 4.82275 62.7206 4.46503ZM62.3003 7.22041C62.309 7.66427 62.2062 8.10325 62.0013 8.49729C61.8158 8.85317 61.5363 9.15159 61.193 9.36019C60.8309 9.57348 60.4171 9.68322 59.9967 9.6774C59.6786 9.68132 59.3632 9.62001 59.0699 9.49729C58.797 9.38242 58.5511 9.21214 58.3478 8.99729C58.1397 8.77424 57.9785 8.51192 57.8736 8.22578C57.758 7.90608 57.7005 7.56834 57.7038 7.22847C57.6945 6.78658 57.7964 6.3494 58.0002 5.95697C58.1873 5.60512 58.4667 5.31058 58.8085 5.10482C59.1687 4.89543 59.5799 4.78938 59.9967 4.79836C60.316 4.79431 60.6329 4.85371 60.9289 4.97309C61.2012 5.08898 61.4469 5.25912 61.651 5.4731C61.8587 5.69637 62.0215 5.95737 62.1306 6.24191C62.2457 6.55524 62.3032 6.88671 62.3003 7.22041Z" fill="white"/>
<path d="M78.4229 7.77968C78.7876 7.60109 79.0926 7.321 79.3013 6.97323C79.5111 6.61383 79.6174 6.20359 79.6084 5.78774C79.6157 5.37974 79.5094 4.97772 79.3013 4.62645C79.0919 4.28125 78.7894 4.00179 78.4283 3.82C78.0258 3.62153 77.5812 3.52286 77.1323 3.53237H74.271V11.1211H75.7663V8.06462H75.9792L78.4687 11.1291H80.379L77.7924 8.00011C78.0115 7.95501 78.2235 7.88087 78.4229 7.77968ZM78.105 5.82C78.1137 5.94044 78.0969 6.06136 78.0556 6.17485C78.0143 6.28835 77.9494 6.39186 77.8652 6.4786C77.6505 6.65358 77.3764 6.73927 77.1 6.71785H75.7744V4.9114H77.1216C77.2573 4.90068 77.3937 4.91782 77.5226 4.96174C77.6514 5.00566 77.7698 5.07544 77.8706 5.16677C77.9516 5.25436 78.0142 5.35734 78.0544 5.46957C78.0947 5.58181 78.1119 5.70099 78.105 5.82Z" fill="white"/>
<path d="M91.6924 7.94619H95.098V6.56716H91.6924V4.95157H95.3836V3.54297H90.197V11.1209H95.4347V9.71232H91.6924V7.94619Z" fill="white"/>
<path d="M110.011 7.77947C110.376 7.60179 110.682 7.32148 110.889 6.97302C111.099 6.61363 111.205 6.20338 111.196 5.78754C111.203 5.37957 111.097 4.97763 110.889 4.62625C110.679 4.28067 110.376 4.00117 110.014 3.8198C109.612 3.62104 109.168 3.52234 108.72 3.53216H105.859V11.1209H107.352V8.06442H107.578L110.068 11.1289H111.978L109.389 7.99184C109.604 7.94861 109.814 7.87721 110.011 7.77947ZM109.693 5.8198C109.701 5.94082 109.683 6.0621 109.64 6.17563C109.597 6.28915 109.531 6.39235 109.445 6.4784C109.23 6.65338 108.956 6.73906 108.68 6.71764H107.352V4.91119H108.699C108.835 4.90048 108.971 4.91761 109.1 4.96153C109.229 5.00545 109.347 5.07523 109.448 5.16657C109.531 5.25327 109.595 5.35586 109.637 5.46813C109.68 5.5804 109.698 5.70003 109.693 5.8198Z" fill="white"/>
<path d="M121.785 2.05376L122.545 2.81452L124.592 1.14247L123.447 0L121.785 2.05376Z" fill="white"/>
<path d="M123.28 3.54297H121.785V11.1236H123.28V3.54297Z" fill="white"/>
<path d="M137.582 3.54297H136.528L133.408 11.1209H135.025L135.663 9.52953H138.428L139.064 11.1209H140.68L137.582 3.54297ZM137.043 6.07792L137.875 8.15856H136.208L137.043 6.07792Z" fill="white"/>
<path d="M83.2996 29.1639C83.0975 29.0483 82.9871 29.1639 82.8604 29.2607C82.0683 29.8736 81.2789 30.4918 80.4868 31.1074L78.1616 32.9058V32.4166C78.1616 29.887 78.1616 27.3601 78.1427 24.8332C78.1239 22.6827 77.3048 20.8978 75.5212 19.5994C75.2894 19.4327 75.1655 19.4327 74.958 19.5994C72.9194 21.3216 70.8735 23.0375 68.8204 24.7472C68.551 24.973 68.4756 25.1236 68.7234 25.4058C68.9174 25.6262 69.0117 25.9891 69.2407 26.1074C69.5102 26.2445 69.7796 25.8978 70.049 25.7983C71.0971 25.4193 71.83 25.7795 72.1102 26.8521C72.2285 27.3031 72.2883 27.7675 72.288 28.2338C72.288 33.3449 72.288 38.4524 72.288 43.5564C72.2784 44.2336 72.3379 44.91 72.4658 45.5752C72.8188 47.2741 73.5705 48.7284 75.047 49.7391C75.1526 49.8298 75.2875 49.8794 75.4269 49.8789C76.5572 49.8312 77.6693 49.5779 78.7085 49.1316C80.1201 48.5001 81.4544 47.7091 82.6853 46.7741C84.7303 45.2365 86.4816 43.4354 87.6132 41.1101C88.9334 38.3977 89.1058 35.68 87.5108 33.0053C86.5004 31.2956 84.9889 30.1289 83.2996 29.1639ZM80.8747 46.0187C80.8432 46.0763 80.8 46.1267 80.7479 46.1667C80.6957 46.2067 80.6358 46.2354 80.572 46.2511C80.5081 46.2668 80.4417 46.269 80.377 46.2577C80.3122 46.2464 80.2505 46.2218 80.1958 46.1854C79.7184 45.9284 79.3557 45.5012 79.18 44.9891C78.7715 43.9843 78.5101 42.9259 78.4041 41.8467C78.1212 39.7284 78.1346 37.5994 78.1346 35.4703C78.1206 35.3461 78.1435 35.2204 78.2005 35.109C78.2575 34.9976 78.3461 34.9055 78.4553 34.844C78.5272 34.7987 78.5964 34.7493 78.6627 34.6961C79.3525 34.1746 79.6407 34.1746 80.3493 34.7123C81.3786 35.4945 81.8797 36.594 82.2138 37.7983C82.4779 38.803 82.5941 39.8408 82.5587 40.8789C82.5395 42.7245 81.9505 44.5192 80.872 46.0187H80.8747Z" fill="white"/>
<path d="M22.3815 27.4193C21.1852 27.9946 20.2584 27.5269 19.5606 26.715C18.8628 25.9032 18.3616 24.9731 17.6746 24.172C16.8259 23.1962 15.8505 22.4704 14.4926 22.3602C12.5258 22.1989 10.796 22.7984 9.20369 23.8978C7.79638 24.9199 6.47698 26.0574 5.25923 27.2984C3.64265 28.8602 2.23353 30.5726 1.25011 32.6075C0.215502 34.758 -0.245224 36.9892 0.14545 39.3279C0.552692 41.9046 1.6576 44.3213 3.34089 46.3172C5.25115 48.5806 7.6841 49.8468 10.6748 49.8898C12.7966 49.9232 14.8735 49.2789 16.6022 48.0511C18.2862 46.8871 19.6684 45.3871 21.0155 43.8575C21.2364 43.6048 21.6163 43.3494 21.6271 43.0806C21.6271 42.7634 21.1583 42.6102 20.932 42.3468C20.7568 42.1425 20.641 42.1801 20.4659 42.3468C19.742 43.0624 18.9079 43.6578 17.9952 44.1102C16.8669 44.7121 15.5776 44.9453 14.3094 44.7769C12.4234 44.508 10.9065 43.5295 9.63747 42.1693C7.34732 39.7204 6.15374 36.8118 6.09177 33.8951C6.00292 32.8629 6.07197 31.8233 6.29654 30.8118C6.60369 29.5242 7.13716 28.3629 8.26607 27.5618C8.84535 27.1532 9.45965 26.9193 10.1709 27.1344C10.7054 27.3254 11.1834 27.647 11.5612 28.0699C12.3884 28.9059 13.0646 29.8709 13.8433 30.758C14.4684 31.4597 15.1446 32.1021 16.0661 32.3925C16.7854 32.6263 17.4429 32.6236 18.1057 32.1451C19.5336 31.1102 21.0074 30.1371 22.4623 29.1398C23.4565 28.457 23.4538 28.4623 22.7048 27.508C22.5917 27.379 22.5243 27.3575 22.3815 27.4193Z" fill="white"/>
<path d="M154.766 44.0404C153.933 44.5404 153.359 44.242 153.079 43.3038C152.968 42.9242 152.913 42.5301 152.918 42.1345C152.918 40.9194 152.918 39.7151 152.901 38.492C152.883 37.1802 152.953 35.8657 152.751 34.5619C152.392 32.2528 151.18 30.6398 148.946 29.8173C147.354 29.2339 145.713 29.1049 144.029 29.07C143.765 29.0632 143.506 29.1477 143.296 29.3092C141.32 30.7303 139.345 32.147 137.369 33.5592C136.437 34.2259 136.437 34.2205 137.124 35.156C137.226 35.2958 137.296 35.3334 137.455 35.2312C138.212 34.7652 139.046 34.4375 139.918 34.2635C141.518 33.8952 143.11 33.8576 144.649 34.5592C145.322 34.846 145.888 35.337 146.265 35.9624C145.595 36.1882 144.951 36.3898 144.317 36.621C142.318 37.3549 140.397 38.2339 138.88 39.7823C137.086 41.6103 136.296 43.7447 137.191 46.2554C137.873 48.1694 139.077 49.57 141.249 49.8764C141.351 49.894 141.457 49.8894 141.558 49.863C141.658 49.8366 141.752 49.7889 141.833 49.7232C142.911 48.9275 143.989 48.1354 145.066 47.3468L147.152 45.8307C147.277 46.7428 147.585 47.6204 148.057 48.4114C148.327 48.9264 148.723 49.3655 149.208 49.6882C149.348 49.8041 149.526 49.8639 149.708 49.856C149.889 49.848 150.062 49.7729 150.191 49.6452C151.969 48.1614 153.774 46.7097 155.58 45.242C156.102 44.8146 156.083 44.8253 155.687 44.2689C155.442 43.8979 155.259 43.7447 154.766 44.0404ZM146.659 44.0592C146.026 44.457 145.398 44.8657 144.773 45.2796C144.706 45.3364 144.622 45.3676 144.534 45.3676C144.447 45.3676 144.362 45.3364 144.296 45.2796C142.949 44.4409 142.41 42.6318 143.035 41.0592C143.587 39.6479 144.689 38.7877 145.999 38.1264C146.236 38.0081 146.486 37.9114 146.734 37.8092C146.787 37.796 146.841 37.7897 146.896 37.7904C146.896 39.1076 146.896 40.4185 146.896 41.7232C146.896 42.3441 146.896 42.9651 146.912 43.5834C146.922 43.6789 146.904 43.7752 146.858 43.86C146.813 43.9448 146.744 44.0141 146.659 44.0592Z" fill="white"/>
<path d="M99.0155 29.0726C98.8059 29.0663 98.6021 29.1415 98.447 29.2823C96.4613 30.9167 94.4918 32.5699 92.4764 34.164C90.4611 35.7581 89.5477 37.8199 89.5127 40.5135C89.5742 42.9103 90.4159 45.2221 91.9106 47.0995C92.9371 48.406 94.1819 49.4221 95.8524 49.7877C96.3454 49.8925 96.8142 50.0108 97.3127 49.5914C99.3981 47.8334 101.524 46.1264 103.642 44.4087C105.684 42.7527 106.977 40.6828 107.212 38.0323C107.626 33.4167 104.046 29.2259 99.0155 29.0726ZM100.767 44.3764C100.664 44.699 100.497 44.7635 100.169 44.7178C98.9939 44.5458 98.1102 43.9113 97.372 43.0323C96.0248 41.4624 95.3512 39.6103 95.0683 37.5941C94.8936 36.6478 94.9538 35.6732 95.2435 34.7554C95.7123 33.4597 95.7823 33.4275 97.0729 33.8522C98.1048 34.1936 98.8188 34.9759 99.3873 35.871C100.584 37.7527 101.036 39.8495 101.109 42.0538C101.123 42.8415 101.007 43.626 100.767 44.3764Z" fill="white"/>
<path d="M32.9001 29.0754C32.7618 29.067 32.6233 29.0865 32.4928 29.1327C32.3623 29.1789 32.2424 29.2508 32.1403 29.3442C30.1573 30.9813 28.1878 32.6345 26.1751 34.2367C24.2083 35.8039 23.3326 37.8523 23.3003 40.3657C23.3308 42.8486 24.1962 45.2493 25.7575 47.1829C26.7625 48.4437 27.9911 49.4114 29.613 49.7824C30.2031 49.9168 30.7096 49.9275 31.2296 49.4705C32.9674 47.9813 34.7592 46.5566 36.5347 45.113C37.5531 44.2824 38.5905 43.4813 39.3556 42.3845C40.7243 40.4195 41.3252 38.2662 40.8914 35.906C40.5424 34.0277 39.559 32.3253 38.1049 31.0825C36.6509 29.8396 34.814 29.1312 32.9001 29.0754ZM34.5355 44.3684C34.525 44.4332 34.5004 44.4949 34.4635 44.5491C34.4265 44.6034 34.3781 44.6489 34.3215 44.6825C34.265 44.7161 34.2018 44.7369 34.1364 44.7434C34.071 44.75 34.0049 44.7422 33.9428 44.7205C32.7726 44.5233 31.7278 43.8731 31.0356 42.9114C29.4409 40.9242 28.6412 38.4177 28.7913 35.8764C28.8117 35.1693 29.024 34.4808 29.4056 33.8845C29.4492 33.798 29.519 33.7273 29.605 33.6824C29.6911 33.6376 29.7891 33.6208 29.8852 33.6345C31.1218 33.7259 32.019 34.3953 32.7492 35.3173C33.9158 36.7904 34.4574 38.5243 34.7322 40.3549C34.7996 40.8012 34.8238 41.2501 34.8615 41.6211C34.9173 42.5489 34.8069 43.4792 34.5355 44.3684Z" fill="white"/>
<path d="M118.951 43.777C118.719 43.6748 118.517 43.9598 118.296 44.0619C117.579 44.3899 117.016 44.1641 116.766 43.4141C116.623 42.9401 116.558 42.4463 116.574 41.9517C116.574 39.0727 116.574 36.1936 116.574 33.4356C116.499 30.3657 116.642 27.4141 116.477 24.4678C116.447 23.5146 116.196 22.5813 115.744 21.741C115.292 20.9006 114.651 20.176 113.872 19.6237C113.64 19.4517 113.511 19.4329 113.279 19.6237C111.393 21.2366 109.494 22.8065 107.605 24.4006C106.78 25.0942 106.797 25.0995 107.292 26.0296C107.384 26.199 107.441 26.2554 107.624 26.1237C107.94 25.9106 108.29 25.7516 108.658 25.6533C109.636 25.3684 110.205 25.6936 110.437 26.6909C110.556 27.2862 110.608 27.8932 110.59 28.5001C110.59 33.3549 110.59 38.2098 110.59 43.0646C110.572 43.8683 110.636 44.6718 110.781 45.4624C111.121 47.1076 111.811 48.5485 113.155 49.6291C113.203 49.6856 113.262 49.7311 113.329 49.7622C113.396 49.7934 113.469 49.8096 113.543 49.8096C113.617 49.8096 113.69 49.7934 113.757 49.7622C113.824 49.7311 113.884 49.6856 113.931 49.6291C115.704 48.1614 117.501 46.7205 119.29 45.2743C119.797 44.8657 119.799 44.8657 119.401 44.3361C119.252 44.1345 119.142 43.863 118.951 43.777Z" fill="white"/>
<path d="M57.1434 42.8368C57.1434 42.8368 57.1218 42.818 57.1164 42.8045C56.944 42.4873 56.7743 42.5357 56.4914 42.7266C54.9879 43.732 53.3956 44.1647 51.6739 43.2642C50.8254 42.7993 50.1181 42.1149 49.6263 41.283C48.4085 39.3583 47.9316 37.2266 47.9235 34.9766C47.9235 34.6244 47.9369 34.2696 47.9235 33.9174C47.9235 33.6701 48.0286 33.568 48.2495 33.5088C48.6813 33.4123 49.1333 33.4704 49.5266 33.6728C50.9034 34.2872 52.0616 35.3031 52.8487 36.5868C53.0076 36.826 53.0992 36.8341 53.3148 36.6782C54.7697 35.6298 56.2246 34.5841 57.693 33.5572C57.9382 33.3879 57.9409 33.2615 57.8277 33.0196C57.455 32.1792 56.9194 31.4207 56.2517 30.7878C55.584 30.1548 54.7974 29.6598 53.9372 29.3314C52.3206 28.6836 50.7336 28.7212 49.179 29.6164C47.0748 30.8287 45.3666 32.4605 43.8389 34.3207C42.8082 35.5825 42.2779 37.1782 42.349 38.8045C42.37 41.7273 43.3283 44.5666 45.0837 46.9067C46.0563 48.2158 47.2661 49.2185 48.9069 49.5949C49.165 49.6732 49.4388 49.6849 49.7026 49.629C49.9665 49.573 50.2118 49.4512 50.4157 49.275C52.59 47.5411 54.8074 45.861 57.0087 44.1674C57.2538 43.9793 57.6607 43.8126 57.6984 43.5841C57.7469 43.3153 57.332 43.1056 57.1434 42.8368Z" fill="white"/>
<path d="M131.56 29.5214C130.779 29.1827 129.928 29.0387 129.079 29.1019C128.231 29.1651 127.41 29.4337 126.689 29.8843C124.687 31.1139 122.919 32.6875 121.467 34.5322C120.389 35.844 119.988 37.352 119.996 39.4408C120.106 42.4476 121.229 45.3295 123.183 47.6209C124.052 48.7108 125.26 49.4808 126.616 49.809C126.855 49.8779 127.109 49.8861 127.352 49.8331C127.596 49.7801 127.822 49.6674 128.012 49.5053C130.167 47.7875 132.357 46.1236 134.534 44.4408C134.823 44.2176 135.313 44.008 135.343 43.7553C135.375 43.4381 134.893 43.1908 134.677 42.8762C134.551 42.6908 134.435 42.6934 134.265 42.8252C133.851 43.1429 133.393 43.3975 132.904 43.5805C131.735 44.0429 130.571 44.094 129.426 43.5053C128.176 42.8601 127.373 41.8063 126.769 40.5832C125.775 38.5779 125.473 36.4381 125.554 34.223C125.554 33.8252 125.743 33.6854 126.077 33.6666C126.602 33.6422 127.123 33.7741 127.572 34.0456C128.773 34.6912 129.784 35.6393 130.504 36.7956C130.638 37.0053 130.717 37.0644 130.94 36.8897C132.402 35.8305 133.873 34.7822 135.351 33.7445C135.397 33.7238 135.438 33.693 135.471 33.6545C135.504 33.6159 135.528 33.5706 135.541 33.5217C135.554 33.4728 135.556 33.4216 135.547 33.3718C135.538 33.322 135.518 33.2749 135.488 33.2338C135.111 32.3873 134.569 31.6236 133.895 30.9865C133.221 30.3494 132.428 29.8515 131.56 29.5214Z" fill="white"/>
<path d="M69.4509 43.7741C69.2381 43.6854 69.0171 43.9596 68.7935 44.0618C68.0661 44.3951 67.5299 44.1747 67.2632 43.4166C67.1546 43.1111 67.1 42.7891 67.1015 42.465C67.1015 41.1666 67.1015 39.8682 67.1015 38.5698H67.0126C67.0126 37.3145 67.0126 36.0564 67.0126 34.8064C67.0126 32.5322 66.2582 30.6155 64.3183 29.2607C64.127 29.1263 64.0138 29.1021 63.8252 29.2607C61.9177 30.8548 60.002 32.4354 58.0918 34.0295C57.2835 34.7016 57.2996 34.7069 57.7954 35.6424C57.887 35.8172 57.9409 35.8682 58.1268 35.75C58.4725 35.5324 58.8483 35.3667 59.2422 35.258C60.0721 35.0403 60.6136 35.3225 60.8884 36.1344C61.0581 36.6879 61.1363 37.2654 61.1202 37.844C61.1202 39.6075 61.1202 41.3709 61.1202 43.1344C61.1019 43.9383 61.1679 44.7419 61.3168 45.5322C61.6671 47.1935 62.3676 48.6451 63.7579 49.7016C63.7933 49.7421 63.837 49.7745 63.886 49.7968C63.935 49.819 63.9883 49.8305 64.0421 49.8305C64.096 49.8305 64.1492 49.819 64.1982 49.7968C64.2473 49.7745 64.291 49.7421 64.3264 49.7016C66.1289 48.2258 67.9448 46.7661 69.7581 45.3037C70.2808 44.8844 70.2969 44.887 69.9009 44.3682C69.7662 44.1559 69.653 43.8602 69.4509 43.7741Z" fill="white"/>
<path d="M60.0263 27.5242C60.4574 28.1291 60.4573 28.1318 61.104 27.7258C62.7942 26.638 64.4871 25.5502 66.1827 24.4624C66.3013 24.3871 66.5519 24.3603 66.366 24.1049C65.7867 23.2984 65.2128 22.5081 64.6362 21.707C62.8634 23.1264 61.1336 24.5215 59.3769 25.9113C59.1452 26.0941 59.0428 26.2339 59.2826 26.5054C59.5481 26.8319 59.7963 27.172 60.0263 27.5242Z" fill="white"/>
</g>
<defs>
<clipPath id="clip0_43_2">
<rect width="156" height="50" fill="white"/>
</clipPath>
</defs>
</svg>
