<svg width="31" height="36" viewBox="0 0 31 36" fill="none" xmlns="http://www.w3.org/2000/svg">
<path d="M29.1767 6.65193C27.6199 7.40502 26.4091 6.79297 25.5017 5.7312C24.5943 4.66942 23.9503 3.45863 23.0295 2.39419C21.9252 1.12485 20.6532 0.177505 18.8942 0.0338064C16.3183 -0.17642 14.0643 0.60594 11.9887 2.04293C10.1259 3.34154 8.46806 4.9036 6.8448 6.48429C4.74786 8.5147 2.90373 10.7633 1.61842 13.4217C0.266588 16.2159 -0.329496 19.1591 0.181433 22.214C0.712851 25.5752 2.15191 28.7275 4.34338 31.3309C6.83682 34.2873 10.0088 35.9452 13.9073 35.9984C16.669 36.0414 19.3724 35.2025 21.6245 33.6034C23.8305 32.076 25.6161 30.1148 27.3698 28.1163C27.6598 27.7836 28.1681 27.451 28.1681 27.1024C28.1867 26.6873 27.5534 26.4877 27.2607 26.1418C27.0318 25.8756 26.8828 25.9235 26.6513 26.1418C25.7099 27.0793 24.6225 27.8576 23.4314 28.4463C21.9616 29.2344 20.2819 29.5424 18.6281 29.3271C16.156 28.9731 14.1947 27.6958 12.5369 25.9182C9.55379 22.7249 7.99439 18.9169 7.91456 15.1062C7.79754 13.7575 7.88728 12.3989 8.18067 11.0773C8.57983 9.39552 9.27703 7.88402 10.7486 6.81958C11.5017 6.28737 12.3054 5.98134 13.2314 6.26076C13.9286 6.51035 14.5518 6.9313 15.0436 7.48486C16.1081 8.5759 17.0022 9.8346 18.0214 10.9789C18.8357 11.8943 19.7165 12.7219 20.9193 13.1077C21.856 13.4138 22.7102 13.4111 23.5804 12.7831C25.4432 11.4339 27.3591 10.1619 29.2565 8.85798C30.5524 7.96651 30.5498 7.97184 29.5732 6.72911C29.4508 6.57742 29.3629 6.55347 29.1767 6.65193Z" fill="#0E8499"/>
</svg>
