<svg width="151" height="48" viewBox="0 0 151 48" fill="none" xmlns="http://www.w3.org/2000/svg">
<path d="M13.891 3.40869H12.4556V10.6994H17.2298V9.34421H13.891V3.40869Z" fill="#161616"/>
<path d="M28.5526 3.40869H27.1172V10.702H28.5526V3.40869Z" fill="#161616"/>
<path d="M43.9358 8.60969C43.7407 8.83019 43.5009 9.00653 43.2323 9.12695C42.9163 9.25838 42.5761 9.32182 42.234 9.31316C41.9309 9.31637 41.6302 9.25923 41.3495 9.14505C41.0874 9.03487 40.8513 8.871 40.6564 8.664C40.4569 8.44482 40.303 8.18809 40.2038 7.90881C40.0924 7.60401 40.0372 7.28155 40.0408 6.95706C40.0365 6.63144 40.0926 6.30786 40.2063 6.00272C40.3078 5.72644 40.4635 5.47321 40.6641 5.25787C40.8597 5.05162 41.0956 4.88786 41.3572 4.77682C41.6354 4.66313 41.9335 4.60598 42.234 4.60871C42.5631 4.60335 42.8897 4.66585 43.1935 4.79234C43.4607 4.90685 43.6999 5.07804 43.8944 5.29408L44.078 5.49839L45.0867 4.48716L44.9056 4.30353C44.5737 3.97081 44.1836 3.70171 43.7547 3.50954C42.8029 3.11795 41.7349 3.11795 40.7831 3.50954C40.3452 3.69603 39.9487 3.96768 39.6167 4.3087C39.2823 4.65139 39.0187 5.05651 38.8408 5.50098C38.662 5.96795 38.5742 6.46484 38.5822 6.96482C38.5749 7.46053 38.6627 7.95305 38.8408 8.41572C39.0186 8.86178 39.2822 9.26862 39.6167 9.61317C39.9497 9.95673 40.348 10.2302 40.7883 10.4175C41.2494 10.6133 41.746 10.7119 42.2469 10.7072C42.7696 10.7149 43.2882 10.6146 43.7702 10.4123C44.2121 10.2226 44.6127 9.94854 44.9496 9.60541L45.1306 9.42178L44.1194 8.41313L43.9358 8.60969Z" fill="#161616"/>
<path d="M60.8397 4.29578C60.5057 3.95477 60.1075 3.68317 59.6681 3.49662C58.7434 3.11722 57.7065 3.11722 56.7818 3.49662C56.3425 3.68182 55.9449 3.95361 55.6128 4.29578C55.2819 4.64016 55.0187 5.04374 54.837 5.48547C54.6451 5.94854 54.5483 6.44548 54.5525 6.94672C54.55 7.44587 54.6458 7.94063 54.8344 8.40279C55.0161 8.84682 55.2792 9.25295 55.6103 9.60024C56.1289 10.1259 56.7933 10.4841 57.5176 10.6284C58.2419 10.7727 58.9927 10.6965 59.6733 10.4097C60.1109 10.2204 60.5072 9.94715 60.8397 9.60541C61.3511 9.0668 61.6962 8.39215 61.8338 7.66233C61.9715 6.93251 61.8957 6.17848 61.6156 5.49064C61.437 5.04577 61.1734 4.63994 60.8397 4.29578ZM60.4363 6.94672C60.4446 7.37376 60.3459 7.7961 60.1492 8.1752C59.9712 8.51759 59.7029 8.8047 59.3733 9.0054C59.0258 9.2106 58.6285 9.31618 58.225 9.31058C57.9197 9.31435 57.6169 9.25537 57.3353 9.1373C57.0734 9.02678 56.8373 8.86296 56.6422 8.65625C56.4425 8.44165 56.2877 8.18928 56.187 7.91399C56.076 7.6064 56.0208 7.28146 56.0241 6.95448C56.0151 6.52933 56.1129 6.10873 56.3086 5.73116C56.4882 5.39265 56.7563 5.10928 57.0844 4.91131C57.4302 4.70987 57.8249 4.60784 58.225 4.61648C58.5315 4.61258 58.8357 4.66973 59.1198 4.78459C59.3812 4.89608 59.6171 5.05977 59.813 5.26563C60.0124 5.48044 60.1686 5.73155 60.2733 6.00531C60.3838 6.30676 60.439 6.62567 60.4363 6.94672Z" fill="#161616"/>
<path d="M75.9126 7.48469C76.2627 7.31287 76.5555 7.0434 76.7557 6.70881C76.9572 6.36304 77.0592 5.96834 77.0506 5.56826C77.0576 5.17572 76.9555 4.78894 76.7557 4.45099C76.5547 4.11887 76.2644 3.85 75.9178 3.6751C75.5314 3.48415 75.1047 3.38922 74.6738 3.39837H71.9272V10.6994H73.3625V7.75884H73.5669L75.9566 10.7072H77.7902L75.3074 7.69677C75.5177 7.65338 75.7212 7.58205 75.9126 7.48469ZM75.6074 5.59929C75.6158 5.71516 75.5997 5.8315 75.56 5.9407C75.5203 6.04989 75.4581 6.14948 75.3772 6.23293C75.1711 6.40128 74.9081 6.48372 74.6427 6.46311H73.3703V4.72513H74.6634C74.7937 4.71482 74.9247 4.73131 75.0484 4.77356C75.172 4.81582 75.2857 4.88295 75.3824 4.97083C75.4602 5.05509 75.5203 5.15417 75.5589 5.26215C75.5976 5.37013 75.6141 5.4848 75.6074 5.59929Z" fill="#161616"/>
<path d="M88.65 7.64502H91.919V6.31826H88.65V4.7639H92.1932V3.40869H87.2146V10.6994H92.2423V9.34421H88.65V7.64502Z" fill="#161616"/>
<path d="M106.234 7.48467C106.585 7.31372 106.878 7.04404 107.077 6.70879C107.279 6.36301 107.381 5.96832 107.372 5.56824C107.379 5.17573 107.277 4.78902 107.077 4.45096C106.876 4.11848 106.584 3.84958 106.237 3.67508C105.851 3.48385 105.425 3.3889 104.995 3.39835H102.249V10.6994H103.681V7.75882H103.899L106.288 10.7072H108.122L105.637 7.68899C105.844 7.6474 106.045 7.57871 106.234 7.48467ZM105.929 5.59927C105.936 5.71571 105.919 5.83239 105.878 5.94161C105.837 6.05084 105.773 6.15012 105.691 6.23291C105.485 6.40126 105.222 6.48369 104.956 6.46309H103.681V4.72511H104.975C105.105 4.7148 105.236 4.73128 105.36 4.77354C105.483 4.8158 105.597 4.88293 105.694 4.97081C105.773 5.05422 105.835 5.15292 105.876 5.26094C105.916 5.36895 105.934 5.48405 105.929 5.59927Z" fill="#161616"/>
<path d="M117.536 1.97592L118.265 2.70784L120.231 1.09917L119.132 0L117.536 1.97592Z" fill="#161616"/>
<path d="M118.972 3.40869H117.536V10.702H118.972V3.40869Z" fill="#161616"/>
<path d="M132.7 3.40869H131.688L128.693 10.6994H130.245L130.858 9.16834H133.512L134.122 10.6994H135.674L132.7 3.40869ZM132.182 5.84755L132.981 7.84934H131.381L132.182 5.84755Z" fill="#161616"/>
<path d="M80.5937 28.0586C80.3997 27.9474 80.2937 28.0586 80.1721 28.1517C79.4118 28.7414 78.654 29.3362 77.8936 29.9285L75.6617 31.6587V31.188C75.6617 28.7543 75.6617 26.3232 75.6436 23.8921C75.6254 21.8231 74.8392 20.1058 73.1271 18.8566C72.9047 18.6962 72.7857 18.6962 72.5866 18.8566C70.6296 20.5135 68.6658 22.1644 66.695 23.8093C66.4364 24.0266 66.364 24.1714 66.6019 24.443C66.7881 24.655 66.8786 25.0042 67.0985 25.118C67.3571 25.2499 67.6157 24.9162 67.8744 24.8206C68.8804 24.4559 69.5839 24.8024 69.8529 25.8344C69.9665 26.2683 70.0239 26.7151 70.0236 27.1637C70.0236 32.0811 70.0236 36.995 70.0236 41.9055C70.0143 42.5571 70.0715 43.2079 70.1943 43.8478C70.5331 45.4823 71.2546 46.8815 72.6719 47.854C72.7733 47.9412 72.9028 47.989 73.0366 47.9885C74.1216 47.9425 75.1891 47.6988 76.1867 47.2695C77.5417 46.6619 78.8225 45.9009 80.004 45.0013C81.967 43.5219 83.6481 41.7891 84.7343 39.552C86.0016 36.9424 86.1671 34.3277 84.6361 31.7544C83.6662 30.1095 82.2153 28.9871 80.5937 28.0586ZM78.266 44.2746C78.2358 44.3299 78.1943 44.3784 78.1442 44.4169C78.0942 44.4554 78.0367 44.483 77.9754 44.4981C77.9142 44.5132 77.8504 44.5154 77.7882 44.5045C77.7261 44.4936 77.6668 44.4699 77.6143 44.4349C77.156 44.1876 76.8079 43.7767 76.6393 43.284C76.2471 42.3172 75.9962 41.299 75.8944 40.2606C75.6229 38.2227 75.6358 36.1743 75.6358 34.126C75.6223 34.0064 75.6443 33.8855 75.699 33.7784C75.7537 33.6712 75.8388 33.5825 75.9436 33.5234C76.0126 33.4798 76.0791 33.4323 76.1427 33.3811C76.8048 32.8794 77.0815 32.8794 77.7617 33.3967C78.7497 34.1493 79.2307 35.2071 79.5514 36.3657C79.8049 37.3324 79.9164 38.3308 79.8825 39.3296C79.864 41.1052 79.2987 42.8319 78.2635 44.2746H78.266Z" fill="#161616"/>
<path d="M22.1179 26.3801C20.9696 26.9336 20.0799 26.4835 19.4101 25.7025C18.7402 24.9214 18.2592 24.0266 17.5997 23.2559C16.785 22.317 15.8488 21.6188 14.5453 21.5127C12.6573 21.3575 10.9969 21.9343 9.46842 22.9921C8.11753 23.9754 6.85103 25.0698 5.6821 26.2637C4.13033 27.7663 2.77771 29.4138 1.83371 31.3716C0.840583 33.4406 0.398329 35.5873 0.77334 37.8373C1.16425 40.3163 2.22486 42.6414 3.84067 44.5616C5.67434 46.7393 8.00975 47.9574 10.8805 47.9988C12.9172 48.031 14.9109 47.4111 16.5703 46.2298C18.1868 45.1099 19.5135 43.6668 20.8067 42.1952C21.0187 41.9521 21.3834 41.7064 21.3938 41.4478C21.3938 41.1426 20.9437 40.9952 20.7265 40.7417C20.5584 40.5452 20.4472 40.5814 20.2791 40.7417C19.5842 41.4303 18.7835 42.0031 17.9074 42.4383C16.8244 43.0174 15.5868 43.2417 14.3694 43.0797C12.559 42.8211 11.1029 41.8797 9.88481 40.571C7.68647 38.2149 6.54075 35.4166 6.48126 32.6104C6.39597 31.6174 6.46225 30.6171 6.67782 29.644C6.97265 28.4052 7.48474 27.2879 8.56839 26.5172C9.12444 26.1241 9.71411 25.899 10.3969 26.1059C10.9099 26.2897 11.3688 26.5992 11.7314 27.006C12.5254 27.8103 13.1746 28.7388 13.922 29.5923C14.522 30.2673 15.1712 30.8854 16.0557 31.1647C16.7462 31.3897 17.3773 31.3871 18.0135 30.9268C19.3842 29.9311 20.7989 28.9948 22.1955 28.0353C23.1498 27.3784 23.1473 27.3836 22.4283 26.4654C22.3196 26.3413 22.255 26.3206 22.1179 26.3801Z" fill="#161616"/>
<path d="M149.195 42.3711C148.396 42.8521 147.845 42.565 147.576 41.6624C147.469 41.2971 147.416 40.918 147.421 40.5374C147.421 39.3684 147.421 38.2097 147.405 37.033C147.387 35.7709 147.454 34.5062 147.26 33.2518C146.916 31.0302 145.753 29.4785 143.608 28.6871C142.08 28.1258 140.505 28.0017 138.889 27.9681C138.635 27.9616 138.386 28.0429 138.185 28.1983C136.288 29.5655 134.392 30.9285 132.495 32.2872C131.6 32.9286 131.6 32.9234 132.26 33.8234C132.358 33.9579 132.425 33.9941 132.578 33.8958C133.304 33.4474 134.105 33.1321 134.942 32.9648C136.478 32.6104 138.007 32.5742 139.483 33.2493C140.13 33.5252 140.672 33.9975 141.035 34.5993C140.391 34.8165 139.773 35.0105 139.165 35.2329C137.246 35.939 135.402 36.7847 133.946 38.2744C132.224 40.0331 131.466 42.0866 132.325 44.5022C132.979 46.3436 134.135 47.691 136.219 47.9859C136.318 48.0028 136.419 47.9984 136.516 47.973C136.613 47.9476 136.703 47.9017 136.781 47.8385C137.815 47.0729 138.85 46.3108 139.884 45.5522L141.886 44.0935C142.006 44.9711 142.302 45.8154 142.755 46.5764C143.014 47.0719 143.394 47.4943 143.859 47.8048C143.994 47.9164 144.165 47.9739 144.339 47.9662C144.514 47.9586 144.679 47.8863 144.803 47.7635C146.51 46.3358 148.243 44.9392 149.976 43.5271C150.478 43.1159 150.46 43.1263 150.079 42.5909C149.844 42.234 149.668 42.0866 149.195 42.3711ZM141.413 42.3892C140.805 42.7719 140.202 43.1651 139.602 43.5633C139.539 43.618 139.457 43.648 139.373 43.648C139.289 43.648 139.208 43.618 139.145 43.5633C137.851 42.7564 137.334 41.0159 137.934 39.5029C138.464 38.1451 139.522 37.3175 140.779 36.6813C141.007 36.5675 141.247 36.4743 141.485 36.3761C141.536 36.3634 141.588 36.3573 141.64 36.358C141.64 37.6252 141.64 38.8865 141.64 40.1417C141.64 40.7391 141.64 41.3366 141.656 41.9314C141.666 42.0233 141.648 42.1159 141.604 42.1975C141.561 42.2791 141.494 42.3458 141.413 42.3892Z" fill="#161616"/>
<path d="M95.6795 27.9706C95.4783 27.9645 95.2826 28.0369 95.1338 28.1724C93.2277 29.7448 91.3371 31.3354 89.4026 32.869C87.468 34.4027 86.5913 36.3864 86.5577 38.9778C86.6167 41.2838 87.4247 43.508 88.8595 45.3142C89.8448 46.5712 91.0397 47.5488 92.6432 47.9005C93.1165 48.0014 93.5665 48.1152 94.045 47.7117C96.0467 46.0203 98.0873 44.378 100.12 42.7254C102.081 41.1322 103.322 39.1408 103.547 36.5907C103.945 32.1501 100.508 28.118 95.6795 27.9706ZM97.3606 42.6943C97.2623 43.0047 97.1019 43.0668 96.7864 43.0228C95.6588 42.8573 94.8105 42.2469 94.1019 41.4012C92.8087 39.8908 92.1621 38.1089 91.8906 36.1691C91.7229 35.2587 91.7806 34.321 92.0587 33.438C92.5087 32.1914 92.576 32.1604 93.8148 32.569C94.8053 32.8975 95.4907 33.6501 96.0364 34.5113C97.1847 36.3217 97.6192 38.339 97.689 40.4598C97.7022 41.2176 97.5913 41.9724 97.3606 42.6943Z" fill="#161616"/>
<path d="M32.2147 27.9732C32.082 27.9652 31.9491 27.984 31.8238 28.0284C31.6985 28.0728 31.5834 28.142 31.4854 28.2319C29.5819 29.8069 27.6913 31.3975 25.7594 32.9389C23.8714 34.4467 23.0309 36.4175 22.9998 38.8356C23.0291 41.2244 23.8598 43.5341 25.3585 45.3944C26.3232 46.6074 27.5025 47.5385 29.0595 47.8954C29.6259 48.0247 30.1121 48.035 30.6112 47.5954C32.2794 46.1626 33.9993 44.7918 35.7036 43.403C36.6812 42.6038 37.677 41.8331 38.4115 40.7779C39.7253 38.8874 40.302 36.8157 39.8856 34.545C39.5506 32.7379 38.6067 31.1 37.2109 29.9043C35.8152 28.7085 34.0519 28.027 32.2147 27.9732ZM33.7846 42.6866C33.7745 42.7489 33.7509 42.8083 33.7154 42.8605C33.6799 42.9127 33.6334 42.9565 33.5792 42.9888C33.525 43.0211 33.4643 43.0411 33.4015 43.0475C33.3387 43.0538 33.2752 43.0462 33.2156 43.0254C32.0924 42.8357 31.0895 42.2101 30.425 41.2848C28.8942 39.373 28.1266 36.9615 28.2707 34.5165C28.2903 33.8362 28.4941 33.1738 28.8603 32.6001C28.9022 32.5168 28.9692 32.4488 29.0518 32.4057C29.1344 32.3625 29.2284 32.3464 29.3207 32.3596C30.5078 32.4475 31.369 33.0915 32.0699 33.9786C33.1898 35.3959 33.7096 37.064 33.9734 38.8253C34.0381 39.2546 34.0613 39.6865 34.0975 40.0434C34.1511 40.9361 34.0451 41.8311 33.7846 42.6866Z" fill="#161616"/>
<path d="M114.815 42.1176C114.593 42.0193 114.399 42.2935 114.187 42.3917C113.499 42.7073 112.958 42.49 112.718 41.7684C112.581 41.3125 112.519 40.8373 112.534 40.3615C112.534 37.5916 112.534 34.8217 112.534 32.1682C112.462 29.2146 112.599 26.3749 112.441 23.5403C112.412 22.6232 112.171 21.7253 111.737 20.9168C111.303 20.1083 110.688 19.4112 109.94 18.8799C109.718 18.7143 109.594 18.6962 109.371 18.8799C107.561 20.4316 105.738 21.942 103.925 23.4757C103.133 24.1429 103.149 24.1481 103.625 25.043C103.713 25.2059 103.767 25.2602 103.943 25.1335C104.246 24.9285 104.582 24.7755 104.936 24.6809C105.875 24.4067 106.42 24.7197 106.643 25.6792C106.758 26.2519 106.807 26.8359 106.79 27.4198C106.79 32.0906 106.79 36.7614 106.79 41.4322C106.772 42.2055 106.834 42.9785 106.974 43.7392C107.3 45.322 107.962 46.7082 109.252 47.7479C109.298 47.8023 109.355 47.846 109.419 47.876C109.484 47.906 109.554 47.9216 109.625 47.9216C109.696 47.9216 109.766 47.906 109.83 47.876C109.895 47.846 109.952 47.8023 109.997 47.7479C111.699 46.3358 113.424 44.9496 115.141 43.5581C115.628 43.165 115.63 43.165 115.247 42.6555C115.105 42.4616 114.999 42.2004 114.815 42.1176Z" fill="#161616"/>
<path d="M55.305 41.3804C55.305 41.3804 55.2844 41.3623 55.2792 41.3494C55.1137 41.0442 54.9507 41.0908 54.6792 41.2744C53.236 42.2417 51.7075 42.6581 50.0549 41.7917C49.2404 41.3444 48.5614 40.686 48.0893 39.8856C46.9203 38.0338 46.4626 35.9829 46.4548 33.8182C46.4548 33.4794 46.4677 33.138 46.4548 32.7992C46.4548 32.5612 46.5557 32.463 46.7677 32.4061C47.1822 32.3132 47.6162 32.369 47.9936 32.5638C49.3153 33.1549 50.427 34.1323 51.1825 35.3673C51.3351 35.5975 51.423 35.6053 51.6299 35.4553C53.0265 34.4466 54.4231 33.4406 55.8326 32.4526C56.068 32.2897 56.0706 32.1681 55.962 31.9354C55.6042 31.1268 55.0901 30.3971 54.4491 29.7881C53.8082 29.1791 53.0531 28.7029 52.2274 28.387C50.6756 27.7637 49.1523 27.7999 47.66 28.6611C45.6401 29.8275 44.0004 31.3974 42.534 33.1871C41.5446 34.4011 41.0356 35.9364 41.1038 37.501C41.1239 40.313 42.0439 43.0447 43.7289 45.2961C44.6625 46.5556 45.8237 47.5203 47.3988 47.8824C47.6465 47.9577 47.9093 47.969 48.1626 47.9152C48.4159 47.8614 48.6514 47.7442 48.8471 47.5746C50.9342 45.9064 53.0627 44.29 55.1757 42.6607C55.4111 42.4796 55.8016 42.3193 55.8378 42.0994C55.8844 41.8408 55.4861 41.6391 55.305 41.3804Z" fill="#161616"/>
<path d="M126.919 28.4025C126.17 28.0766 125.353 27.9381 124.538 27.999C123.723 28.0598 122.936 28.3181 122.243 28.7517C120.322 29.9347 118.625 31.4486 117.231 33.2234C116.196 34.4855 115.811 35.9364 115.819 37.9459C115.924 40.8387 117.002 43.6115 118.878 45.816C119.712 46.8646 120.872 47.6054 122.173 47.9212C122.403 47.9874 122.646 47.9954 122.88 47.9443C123.114 47.8933 123.332 47.7849 123.513 47.6289C125.582 45.9763 127.685 44.3754 129.774 42.7564C130.051 42.5417 130.522 42.34 130.55 42.0969C130.581 41.7917 130.118 41.5538 129.912 41.2512C129.79 41.0727 129.679 41.0753 129.516 41.202C129.119 41.5077 128.679 41.7526 128.21 41.9288C127.087 42.3736 125.97 42.4228 124.871 41.8564C123.671 41.2357 122.9 40.2218 122.321 39.0451C121.366 37.1157 121.077 35.057 121.154 32.9259C121.154 32.5432 121.335 32.4087 121.656 32.3906C122.16 32.3672 122.66 32.4941 123.092 32.7552C124.244 33.3764 125.214 34.2886 125.905 35.401C126.035 35.6027 126.11 35.6596 126.324 35.4915C127.728 34.4725 129.139 33.4639 130.558 32.4656C130.603 32.4456 130.642 32.416 130.674 32.3789C130.705 32.3418 130.728 32.2982 130.741 32.2512C130.753 32.2041 130.755 32.1549 130.747 32.107C130.738 32.0591 130.718 32.0137 130.69 31.9742C130.328 31.1598 129.808 30.4251 129.161 29.8121C128.514 29.1992 127.752 28.7201 126.919 28.4025Z" fill="#161616"/>
<path d="M67.3002 42.115C67.0959 42.0296 66.8839 42.2934 66.6692 42.3917C65.9709 42.7124 65.4562 42.5003 65.2002 41.771C65.096 41.4771 65.0435 41.1673 65.045 40.8555C65.045 39.6063 65.045 38.3571 65.045 37.1079H64.9597C64.9597 35.9001 64.9597 34.6898 64.9597 33.4871C64.9597 31.2991 64.2355 29.4551 62.3734 28.1516C62.1898 28.0223 62.0811 27.999 61.9001 28.1516C60.069 29.6853 58.2302 31.206 56.3965 32.7397C55.6206 33.3863 55.6361 33.3914 56.112 34.2915C56.1999 34.4596 56.2517 34.5087 56.4301 34.3949C56.7619 34.1856 57.1227 34.0262 57.5008 33.9216C58.2974 33.7121 58.8172 33.9837 59.081 34.7648C59.2439 35.2974 59.319 35.8529 59.3035 36.4096C59.3035 38.1062 59.3035 39.8028 59.3035 41.4994C59.286 42.2729 59.3493 43.0461 59.4923 43.8064C59.8285 45.4047 60.5009 46.8013 61.8354 47.8177C61.8694 47.8567 61.9114 47.8879 61.9584 47.9093C62.0055 47.9307 62.0566 47.9418 62.1083 47.9418C62.16 47.9418 62.2111 47.9307 62.2582 47.9093C62.3052 47.8879 62.3472 47.8567 62.3811 47.8177C64.1114 46.3979 65.8545 44.9935 67.5951 43.5866C68.0968 43.1831 68.1123 43.1857 67.7322 42.6865C67.6028 42.4822 67.4942 42.1977 67.3002 42.115Z" fill="#161616"/>
<path d="M58.2534 26.4809C58.6672 27.0628 58.6672 27.0654 59.2879 26.6749C60.9104 25.6283 62.5354 24.5817 64.1631 23.5352C64.2769 23.4627 64.5174 23.4369 64.3389 23.1912C63.7829 22.4153 63.232 21.6549 62.6785 20.8842C60.9768 22.2498 59.3164 23.5921 57.6301 24.9292C57.4077 25.105 57.3094 25.2395 57.5396 25.5007C57.7944 25.8148 58.0327 26.142 58.2534 26.4809Z" fill="#161616"/>
</svg>
