<svg width="112" height="36" viewBox="0 0 112 36" fill="none" xmlns="http://www.w3.org/2000/svg">
<path d="M9.91191 2.55652H8.83813V8.02456H12.4096V7.00815H9.91191V2.55652Z" fill="#0E8499"/>
<path d="M20.8799 2.55652H19.8062V8.0265H20.8799V2.55652Z" fill="#0E8499"/>
<path d="M32.3876 6.45728C32.2417 6.62265 32.0623 6.75491 31.8613 6.84522C31.6249 6.94379 31.3705 6.99137 31.1145 6.98488C30.8878 6.98729 30.6629 6.94443 30.4529 6.8588C30.2568 6.77616 30.0802 6.65326 29.9343 6.49801C29.7851 6.33362 29.67 6.14108 29.5958 5.93161C29.5124 5.70302 29.4711 5.46117 29.4739 5.2178C29.4707 4.97359 29.5126 4.7309 29.5977 4.50205C29.6736 4.29484 29.7901 4.10492 29.9402 3.94341C30.0864 3.78872 30.2629 3.6659 30.4587 3.58262C30.6668 3.49735 30.8897 3.45449 31.1145 3.45654C31.3607 3.45252 31.605 3.4994 31.8323 3.59426C32.0322 3.68015 32.2111 3.80854 32.3566 3.97057L32.494 4.1238L33.2485 3.36538L33.1131 3.22766C32.8648 2.97812 32.573 2.77629 32.2521 2.63217C31.5401 2.33847 30.7412 2.33847 30.0292 2.63217C29.7016 2.77203 29.405 2.97577 29.1566 3.23154C28.9065 3.48855 28.7093 3.79239 28.5762 4.12574C28.4424 4.47597 28.3767 4.84864 28.3827 5.22362C28.3772 5.59541 28.4429 5.9648 28.5762 6.3118C28.7092 6.64635 28.9064 6.95147 29.1566 7.20988C29.4057 7.46755 29.7037 7.67266 30.033 7.81313C30.378 7.95998 30.7494 8.03394 31.1242 8.03038C31.5152 8.03622 31.9032 7.96093 32.2638 7.80925C32.5943 7.66699 32.894 7.46141 33.146 7.20406L33.2814 7.06634L32.5249 6.30986L32.3876 6.45728Z" fill="#0E8499"/>
<path d="M45.033 3.22184C44.7831 2.96608 44.4853 2.76239 44.1566 2.62247C43.4648 2.33792 42.6892 2.33792 41.9974 2.62247C41.6687 2.76137 41.3713 2.96522 41.1229 3.22184C40.8753 3.48013 40.6784 3.78282 40.5425 4.11411C40.399 4.46142 40.3266 4.83412 40.3297 5.21005C40.3278 5.58441 40.3995 5.95548 40.5406 6.3021C40.6765 6.63512 40.8734 6.93972 41.121 7.20019C41.509 7.59446 42.006 7.86305 42.5478 7.97127C43.0896 8.0795 43.6513 8.02239 44.1604 7.80732C44.4878 7.66532 44.7842 7.46037 45.033 7.20407C45.4155 6.80011 45.6737 6.29412 45.7767 5.74676C45.8796 5.19939 45.8229 4.63387 45.6134 4.11799C45.4798 3.78434 45.2826 3.47996 45.033 3.22184ZM44.7312 5.21005C44.7374 5.53033 44.6636 5.84708 44.5164 6.13141C44.3833 6.3882 44.1826 6.60353 43.936 6.75405C43.6761 6.90795 43.3789 6.98714 43.077 6.98294C42.8486 6.98577 42.6221 6.94154 42.4114 6.85298C42.2155 6.77009 42.0389 6.64723 41.8929 6.49219C41.7436 6.33125 41.6278 6.14197 41.5524 5.9355C41.4694 5.70481 41.4281 5.4611 41.4305 5.21586C41.4238 4.897 41.497 4.58155 41.6434 4.29838C41.7777 4.0445 41.9783 3.83197 42.2238 3.68349C42.4824 3.53241 42.7777 3.45588 43.077 3.46237C43.3063 3.45944 43.5338 3.5023 43.7464 3.58845C43.9419 3.67207 44.1184 3.79484 44.2649 3.94923C44.4141 4.11034 44.531 4.29867 44.6093 4.50399C44.692 4.73008 44.7332 4.96926 44.7312 5.21005Z" fill="#0E8499"/>
<path d="M56.3086 5.61354C56.5704 5.48467 56.7895 5.28256 56.9393 5.03162C57.09 4.77229 57.1663 4.47627 57.1598 4.17621C57.1651 3.88181 57.0887 3.59172 56.9393 3.33825C56.7889 3.08917 56.5717 2.88751 56.3124 2.75634C56.0234 2.61313 55.7042 2.54193 55.3818 2.54879H53.3271V8.0246H54.4009V5.81914H54.5538L56.3414 8.03042H57.7132L55.8558 5.77259C56.0131 5.74005 56.1654 5.68655 56.3086 5.61354ZM56.0803 4.19949C56.0866 4.28639 56.0745 4.37364 56.0448 4.45554C56.0151 4.53743 55.9685 4.61212 55.9081 4.67472C55.7539 4.80097 55.5571 4.8628 55.3586 4.84735H54.4067V3.54386H55.3741C55.4715 3.53613 55.5695 3.54849 55.662 3.58019C55.7545 3.61188 55.8396 3.66223 55.9119 3.72814C55.9701 3.79133 56.015 3.86564 56.044 3.94663C56.0729 4.02761 56.0852 4.11361 56.0803 4.19949Z" fill="#0E8499"/>
<path d="M65.837 5.73376H68.2824V4.73869H65.837V3.57293H68.4875V2.55652H64.7632V8.02456H68.5243V7.00815H65.837V5.73376Z" fill="#0E8499"/>
<path d="M78.9912 5.6135C79.2535 5.48529 79.4727 5.28303 79.6219 5.03159C79.7726 4.77226 79.8489 4.47624 79.8425 4.17618C79.8475 3.8818 79.7712 3.59177 79.6219 3.33822C79.471 3.08886 79.2531 2.88718 78.9931 2.75631C78.7048 2.61289 78.3862 2.54167 78.0644 2.54876H76.0098V8.02456H77.0816V5.81911H77.2441L79.0318 8.03038H80.4035L78.5443 5.76674C78.6993 5.73555 78.8496 5.68403 78.9912 5.6135ZM78.7629 4.19945C78.7684 4.28678 78.7554 4.37429 78.7247 4.45621C78.694 4.53813 78.6464 4.61259 78.5849 4.67468C78.4307 4.80094 78.2339 4.86277 78.0354 4.84732H77.0816V3.54383H78.049C78.1464 3.5361 78.2444 3.54846 78.3369 3.58015C78.4294 3.61185 78.5145 3.6622 78.5868 3.7281C78.6464 3.79067 78.6927 3.86469 78.723 3.9457C78.7533 4.02672 78.7668 4.11304 78.7629 4.19945Z" fill="#0E8499"/>
<path d="M87.446 1.48194L87.9916 2.03088L89.462 0.824377L88.6398 0L87.446 1.48194Z" fill="#0E8499"/>
<path d="M88.5198 2.55652H87.446V8.0265H88.5198V2.55652Z" fill="#0E8499"/>
<path d="M98.7891 2.55652H98.0327L95.7922 8.02456H96.9531L97.4116 6.87625H99.3966L99.8532 8.02456H101.014L98.7891 2.55652ZM98.4022 4.38567L99 5.887H97.8024L98.4022 4.38567Z" fill="#0E8499"/>
<path d="M59.8105 21.0439C59.6654 20.9605 59.5861 21.0439 59.4951 21.1138C58.9263 21.556 58.3595 22.0021 57.7906 22.4463L56.121 23.744V23.391C56.121 21.5657 56.121 19.7424 56.1074 17.9191C56.0939 16.3673 55.5057 15.0793 54.2249 14.1424C54.0586 14.0222 53.9696 14.0222 53.8206 14.1424C52.3567 15.3852 50.8876 16.6233 49.4133 17.857C49.2198 18.0199 49.1657 18.1285 49.3436 18.3322C49.4829 18.4913 49.5507 18.7531 49.7151 18.8385C49.9086 18.9374 50.1021 18.6872 50.2955 18.6154C51.0481 18.3419 51.5744 18.6018 51.7756 19.3758C51.8606 19.7013 51.9035 20.0363 51.9033 20.3728C51.9033 24.0608 51.9033 27.7463 51.9033 31.4291C51.8964 31.9178 51.9391 32.4059 52.031 32.8859C52.2844 34.1118 52.8242 35.1611 53.8844 35.8905C53.9603 35.9559 54.0572 35.9917 54.1572 35.9913C54.9689 35.9569 55.7675 35.7741 56.5137 35.4521C57.5274 34.9964 58.4855 34.4256 59.3694 33.751C60.8378 32.6415 62.0954 31.3419 62.908 29.664C63.856 27.7068 63.9798 25.7458 62.8345 23.8158C62.1089 22.5821 61.0236 21.7403 59.8105 21.0439ZM58.0693 33.2059C58.0466 33.2474 58.0156 33.2838 57.9781 33.3127C57.9407 33.3415 57.8977 33.3623 57.8519 33.3736C57.806 33.3849 57.7583 33.3865 57.7118 33.3784C57.6653 33.3702 57.621 33.3524 57.5817 33.3262C57.2389 33.1407 56.9784 32.8325 56.8523 32.463C56.5589 31.7379 56.3713 30.9742 56.2951 30.1955C56.092 28.667 56.1016 27.1307 56.1016 25.5945C56.0915 25.5048 56.108 25.4141 56.1489 25.3338C56.1898 25.2534 56.2535 25.1869 56.3319 25.1425C56.3835 25.1099 56.4332 25.0742 56.4808 25.0359C56.9761 24.6596 57.1831 24.6596 57.692 25.0475C58.431 25.612 58.7909 26.4053 59.0308 27.2743C59.2204 27.9993 59.3039 28.7481 59.2785 29.4972C59.2647 30.8289 58.8417 32.1239 58.0673 33.2059H58.0693Z" fill="#0E8499"/>
<path d="M16.0664 19.7851C15.2074 20.2002 14.5418 19.8627 14.0407 19.2769C13.5396 18.6911 13.1798 18.0199 12.6864 17.4419C12.077 16.7378 11.3766 16.2141 10.4015 16.1345C8.98915 16.0182 7.74706 16.4507 6.60364 17.2441C5.59308 17.9816 4.64564 18.8023 3.7712 19.6978C2.61037 20.8248 1.59851 22.0604 0.892334 23.5287C0.1494 25.0805 -0.181437 26.6904 0.0990975 28.378C0.39153 30.2372 1.18494 31.9811 2.39368 33.4212C3.7654 35.0545 5.51245 35.9681 7.66 35.9991C9.18361 36.0232 10.675 35.5583 11.9164 34.6724C13.1256 33.8325 14.1181 32.7501 15.0855 31.6464C15.2441 31.4641 15.5169 31.2798 15.5246 31.0858C15.5246 30.8569 15.188 30.7464 15.0255 30.5563C14.8997 30.4089 14.8165 30.436 14.6908 30.5563C14.171 31.0727 13.572 31.5023 12.9166 31.8287C12.1064 32.263 11.1807 32.4313 10.2699 32.3098C8.91563 32.1158 7.82638 31.4098 6.91513 30.4283C5.27061 28.6612 4.41353 26.5624 4.36903 24.4578C4.30523 23.713 4.35481 22.9628 4.51607 22.233C4.73663 21.3039 5.11971 20.4659 5.93035 19.8879C6.34632 19.593 6.78744 19.4243 7.2982 19.5795C7.682 19.7173 8.02523 19.9494 8.29652 20.2545C8.89048 20.8577 9.3761 21.5541 9.93523 22.1942C10.3841 22.7005 10.8697 23.164 11.5314 23.3735C12.048 23.5423 12.52 23.5404 12.996 23.1951C14.0214 22.4483 15.0797 21.7461 16.1244 21.0265C16.8383 20.5338 16.8364 20.5377 16.2985 19.8491C16.2173 19.756 16.1689 19.7405 16.0664 19.7851Z" fill="#0E8499"/>
<path d="M111.129 31.7783C110.531 32.1391 110.119 31.9238 109.918 31.2468C109.838 30.9728 109.799 30.6885 109.802 30.403C109.802 29.5263 109.802 28.6573 109.79 27.7747C109.777 26.8281 109.827 25.8796 109.682 24.9389C109.424 23.2727 108.554 22.1088 106.95 21.5153C105.807 21.0944 104.628 21.0013 103.419 20.976C103.229 20.9712 103.043 21.0322 102.893 21.1487C101.474 22.1741 100.055 23.1964 98.6364 24.2154C97.967 24.6964 97.967 24.6925 98.4604 25.3675C98.5339 25.4684 98.5842 25.4956 98.6984 25.4219C99.2417 25.0855 99.8405 24.8491 100.467 24.7236C101.616 24.4578 102.759 24.4307 103.864 24.9369C104.347 25.1439 104.754 25.4981 105.025 25.9495C104.543 26.1124 104.081 26.2579 103.626 26.4247C102.191 26.9542 100.811 27.5885 99.7218 28.7058C98.4333 30.0248 97.8664 31.5649 98.5087 33.3766C98.9982 34.7577 99.8631 35.7683 101.422 35.9894C101.496 36.0021 101.572 35.9988 101.644 35.9797C101.717 35.9607 101.784 35.9262 101.842 35.8788C102.616 35.3047 103.39 34.7331 104.164 34.1641L105.661 33.0701C105.751 33.7283 105.972 34.3615 106.311 34.9323C106.506 35.3039 106.79 35.6207 107.138 35.8536C107.238 35.9373 107.366 35.9804 107.497 35.9747C107.627 35.9689 107.751 35.9147 107.844 35.8226C109.121 34.7519 110.417 33.7044 111.713 32.6453C112.089 32.3369 112.075 32.3447 111.791 31.9432C111.615 31.6755 111.483 31.5649 111.129 31.7783ZM105.307 31.7919C104.853 32.0789 104.402 32.3738 103.953 32.6725C103.905 32.7135 103.845 32.736 103.782 32.736C103.719 32.736 103.658 32.7135 103.611 32.6725C102.643 32.0673 102.256 30.7619 102.705 29.6271C103.102 28.6088 103.893 27.9881 104.833 27.5109C105.004 27.4256 105.184 27.3557 105.362 27.282C105.399 27.2725 105.439 27.268 105.478 27.2685C105.478 28.2189 105.478 29.1649 105.478 30.1063C105.478 30.5543 105.478 31.0024 105.489 31.4485C105.497 31.5174 105.483 31.5869 105.451 31.6481C105.418 31.7093 105.368 31.7594 105.307 31.7919Z" fill="#0E8499"/>
<path d="M71.0957 20.978C70.9452 20.9734 70.7989 21.0277 70.6875 21.1293C69.2616 22.3086 67.8473 23.5015 66.4002 24.6518C64.953 25.802 64.2971 27.2898 64.272 29.2334C64.3161 30.9629 64.9205 32.631 65.9939 33.9857C66.731 34.9284 67.6248 35.6616 68.8244 35.9254C69.1784 36.001 69.5151 36.0864 69.873 35.7838C71.3705 34.5152 72.897 33.2835 74.4177 32.044C75.8842 30.8492 76.8129 29.3556 76.9812 27.443C77.2791 24.1125 74.7079 21.0885 71.0957 20.978ZM72.3533 32.0207C72.2798 32.2535 72.1598 32.3001 71.9238 32.2671C71.0803 32.1429 70.4457 31.6852 69.9156 31.0509C68.9482 29.9181 68.4645 28.5816 68.2614 27.1269C68.1359 26.444 68.1791 25.7408 68.3871 25.0785C68.7238 24.1436 68.7741 24.1203 69.7008 24.4268C70.4418 24.6731 70.9545 25.2376 71.3627 25.8835C72.2218 27.2413 72.5468 28.7543 72.599 30.3448C72.6089 30.9132 72.5259 31.4793 72.3533 32.0207Z" fill="#0E8499"/>
<path d="M23.6195 20.9799C23.5202 20.9739 23.4208 20.988 23.327 21.0213C23.2333 21.0546 23.1472 21.1065 23.0739 21.1739C21.6499 22.3552 20.2357 23.5481 18.7904 24.7042C17.3781 25.835 16.7493 27.3131 16.7261 29.1267C16.748 30.9183 17.3694 32.6506 18.4905 34.0458C19.2122 34.9555 20.0944 35.6538 21.2591 35.9215C21.6828 36.0185 22.0466 36.0263 22.42 35.6965C23.6679 34.6219 24.9545 33.5939 26.2294 32.5522C26.9608 31.9529 27.7056 31.3748 28.2551 30.5834C29.2379 29.1655 29.6694 27.6118 29.3579 25.9087C29.1073 24.5534 28.4011 23.325 27.357 22.4282C26.3129 21.5314 24.9938 21.0202 23.6195 20.9799ZM24.7939 32.0149C24.7863 32.0617 24.7687 32.1062 24.7421 32.1454C24.7156 32.1845 24.6808 32.2174 24.6402 32.2416C24.5996 32.2658 24.5543 32.2808 24.5073 32.2856C24.4603 32.2903 24.4128 32.2847 24.3682 32.269C23.528 32.1267 22.7777 31.6576 22.2807 30.9636C21.1355 29.5297 20.5613 27.7211 20.669 25.8874C20.6837 25.3771 20.8362 24.8804 21.1102 24.4501C21.1415 24.3876 21.1916 24.3366 21.2534 24.3042C21.3152 24.2719 21.3855 24.2598 21.4545 24.2697C22.3426 24.3356 22.9868 24.8186 23.5112 25.4839C24.3489 26.5469 24.7378 27.798 24.9351 29.1189C24.9835 29.4409 25.0009 29.7649 25.028 30.0326C25.068 30.702 24.9888 31.3733 24.7939 32.0149Z" fill="#0E8499"/>
<path d="M85.4109 31.5882C85.2445 31.5145 85.0994 31.7201 84.9407 31.7938C84.4261 32.0304 84.0217 31.8675 83.8418 31.3263C83.7393 30.9844 83.693 30.628 83.7044 30.2711C83.7044 28.1937 83.7044 26.1163 83.7044 24.1261C83.6503 21.911 83.7528 19.7812 83.6348 17.6552C83.613 16.9674 83.4327 16.294 83.1082 15.6876C82.7836 15.0812 82.3235 14.5584 81.7639 14.1599C81.5975 14.0357 81.5047 14.0222 81.3383 14.1599C79.984 15.3237 78.62 16.4565 77.2637 17.6067C76.6717 18.1072 76.6833 18.1111 77.0393 18.7822C77.1051 18.9044 77.1457 18.9451 77.2773 18.8501C77.5044 18.6963 77.7555 18.5816 78.0202 18.5106C78.7225 18.305 79.1308 18.5397 79.2971 19.2594C79.3832 19.6889 79.4202 20.1269 79.4074 20.5648C79.4074 24.0679 79.4074 27.571 79.4074 31.0742C79.394 31.6541 79.44 32.2339 79.5448 32.8044C79.7886 33.9915 80.2839 35.0312 81.2493 35.8109C81.2834 35.8517 81.3261 35.8845 81.3742 35.907C81.4223 35.9295 81.4748 35.9412 81.5279 35.9412C81.581 35.9412 81.6334 35.9295 81.6816 35.907C81.7297 35.8845 81.7723 35.8517 81.8065 35.8109C83.0795 34.7518 84.37 33.7122 85.6546 32.6686C86.0184 32.3738 86.0203 32.3738 85.734 31.9916C85.6276 31.8462 85.5482 31.6502 85.4109 31.5882Z" fill="#0E8499"/>
<path d="M40.8928 31.0353C40.8928 31.0353 40.8773 31.0218 40.8734 31.0121C40.7496 30.7832 40.6277 30.8181 40.4245 30.9558C39.345 31.6813 38.2016 31.9936 36.9653 31.3438C36.356 31.0083 35.848 30.5145 35.4949 29.9142C34.6204 28.5254 34.2779 26.9872 34.2721 25.3636C34.2721 25.1095 34.2818 24.8535 34.2721 24.5994C34.2721 24.4209 34.3476 24.3472 34.5062 24.3046C34.8163 24.2349 35.1409 24.2768 35.4233 24.4229C36.412 24.8662 37.2436 25.5992 37.8088 26.5255C37.923 26.6982 37.9887 26.704 38.1435 26.5915C39.1883 25.835 40.233 25.0804 41.2874 24.3395C41.4635 24.2173 41.4654 24.1261 41.3842 23.9515C41.1165 23.3451 40.7319 22.7978 40.2525 22.3411C39.773 21.8844 39.2081 21.5272 38.5904 21.2902C37.4296 20.8228 36.29 20.8499 35.1737 21.4959C33.6627 22.3707 32.4361 23.5481 31.3391 24.8903C30.5989 25.8009 30.2182 26.9523 30.2692 28.1258C30.2843 30.2348 30.9724 32.2836 32.2329 33.9721C32.9314 34.9167 33.8001 35.6402 34.9783 35.9118C35.1636 35.9683 35.3602 35.9768 35.5497 35.9364C35.7392 35.896 35.9154 35.8081 36.0617 35.681C37.6231 34.4298 39.2153 33.2175 40.796 31.9955C40.9721 31.8597 41.2642 31.7395 41.2913 31.5746C41.3261 31.3806 41.0282 31.2293 40.8928 31.0353Z" fill="#0E8499"/>
<path d="M94.4653 21.3019C93.9049 21.0575 93.2935 20.9536 92.684 20.9992C92.0745 21.0449 91.4853 21.2386 90.9673 21.5638C89.5298 22.4511 88.2604 23.5865 87.2178 24.9175C86.4439 25.8641 86.1557 26.9523 86.1615 28.4594C86.2404 30.6291 87.0468 32.7086 88.4502 34.362C89.0739 35.1484 89.9412 35.704 90.9151 35.9409C91.0872 35.9906 91.2689 35.9965 91.4438 35.9583C91.6187 35.92 91.7815 35.8387 91.9173 35.7217C93.465 34.4823 95.038 33.2816 96.6012 32.0673C96.8082 31.9063 97.1604 31.755 97.1816 31.5727C97.2049 31.3438 96.8585 31.1653 96.7038 30.9384C96.6128 30.8046 96.5296 30.8065 96.4078 30.9015C96.1108 31.1308 95.7816 31.3145 95.4307 31.4466C94.5911 31.7802 93.7553 31.8171 92.933 31.3923C92.0353 30.9268 91.4587 30.1664 91.0254 29.2838C90.3114 27.8368 90.0948 26.2928 90.1528 24.6945C90.1528 24.4074 90.2882 24.3065 90.5281 24.293C90.9052 24.2754 91.2789 24.3706 91.6019 24.5665C92.4643 25.0323 93.19 25.7164 93.7069 26.5508C93.8036 26.7021 93.8597 26.7447 94.0203 26.6187C95.0702 25.8544 96.1259 25.0979 97.1875 24.3492C97.2207 24.3342 97.2502 24.312 97.2738 24.2842C97.2974 24.2564 97.3145 24.2237 97.324 24.1884C97.3334 24.1531 97.3349 24.1162 97.3284 24.0803C97.3218 24.0443 97.3074 24.0103 97.2861 23.9807C97.0151 23.3699 96.6264 22.8188 96.1423 22.3591C95.6582 21.8994 95.0883 21.5401 94.4653 21.3019Z" fill="#0E8499"/>
<path d="M49.866 31.5862C49.7132 31.5222 49.5545 31.7201 49.3939 31.7938C48.8716 32.0343 48.4865 31.8752 48.295 31.3282C48.2171 31.1078 48.1778 30.8755 48.1789 30.6416C48.1789 29.7047 48.1789 28.7678 48.1789 27.8309H48.1151C48.1151 26.9251 48.1151 26.0173 48.1151 25.1153C48.1151 23.4743 47.5734 22.0913 46.1804 21.1137C46.043 21.0167 45.9617 20.9993 45.8263 21.1137C44.4565 22.264 43.0809 23.4045 41.7092 24.5548C41.1288 25.0397 41.1404 25.0436 41.4964 25.7186C41.5622 25.8447 41.6009 25.8815 41.7344 25.7962C41.9826 25.6392 42.2525 25.5196 42.5353 25.4412C43.1312 25.2841 43.5201 25.4878 43.7175 26.0736C43.8393 26.473 43.8955 26.8897 43.8838 27.3072C43.8838 28.5797 43.8838 29.8521 43.8838 31.1246C43.8708 31.7047 43.9181 32.2845 44.0251 32.8548C44.2766 34.0535 44.7796 35.101 45.7779 35.8633C45.8034 35.8925 45.8347 35.9159 45.8699 35.932C45.9051 35.948 45.9434 35.9563 45.9821 35.9563C46.0207 35.9563 46.059 35.948 46.0942 35.932C46.1294 35.9159 46.1607 35.8925 46.1862 35.8633C47.4805 34.7984 48.7845 33.7451 50.0866 32.6899C50.4619 32.3873 50.4735 32.3893 50.1891 32.0149C50.0924 31.8617 50.0111 31.6483 49.866 31.5862Z" fill="#0E8499"/>
<path d="M43.0983 19.8607C43.4078 20.2971 43.4078 20.2991 43.8722 20.0062C45.0859 19.2212 46.3015 18.4363 47.5191 17.6514C47.6042 17.5971 47.7842 17.5777 47.6507 17.3934C47.2347 16.8115 46.8226 16.2412 46.4086 15.6632C45.1355 16.6873 43.8934 17.694 42.632 18.6969C42.4656 18.8288 42.3921 18.9296 42.5643 19.1255C42.7549 19.3611 42.9331 19.6065 43.0983 19.8607Z" fill="#0E8499"/>
</svg>
