<svg width="191" height="104" viewBox="0 0 191 104" fill="none" xmlns="http://www.w3.org/2000/svg">
<g filter="url(#filter0_d_58_5882)">
<path d="M32 34C32 30.6863 34.6863 28 38 28H153C156.314 28 159 30.6863 159 34V62C159 65.3137 156.314 68 153 68H38C34.6863 68 32 65.3137 32 62V34Z" fill="white" shape-rendering="crispEdges"/>
<path d="M45.152 54V42.752H47.328V54H45.152ZM46.752 49.392V47.456H52.416V49.392H46.752ZM46.752 44.672V42.752H52.688V44.672H46.752ZM57.1444 54.16C56.4404 54.16 55.8057 53.984 55.2404 53.632C54.675 53.28 54.2324 52.8 53.9124 52.192C53.5924 51.584 53.4324 50.9013 53.4324 50.144C53.4324 49.376 53.5924 48.688 53.9124 48.08C54.2324 47.472 54.675 46.992 55.2404 46.64C55.8057 46.288 56.4404 46.112 57.1444 46.112C57.699 46.112 58.195 46.224 58.6324 46.448C59.0697 46.672 59.4164 46.9867 59.6724 47.392C59.939 47.7867 60.083 48.2347 60.1044 48.736V51.52C60.083 52.032 59.939 52.4853 59.6724 52.88C59.4164 53.2747 59.0697 53.5893 58.6324 53.824C58.195 54.048 57.699 54.16 57.1444 54.16ZM57.5284 52.224C58.115 52.224 58.5897 52.032 58.9524 51.648C59.315 51.2533 59.4964 50.7467 59.4964 50.128C59.4964 49.7227 59.411 49.3653 59.2404 49.056C59.0804 48.736 58.851 48.4907 58.5524 48.32C58.2644 48.1387 57.923 48.048 57.5284 48.048C57.1444 48.048 56.803 48.1387 56.5044 48.32C56.2164 48.4907 55.987 48.736 55.8164 49.056C55.6564 49.3653 55.5764 49.7227 55.5764 50.128C55.5764 50.544 55.6564 50.912 55.8164 51.232C55.987 51.5413 56.2164 51.7867 56.5044 51.968C56.803 52.1387 57.1444 52.224 57.5284 52.224ZM59.3844 54V51.92L59.7204 50.032L59.3844 48.176V46.272H61.4644V54H59.3844ZM66.9666 54.16C66.1773 54.16 65.468 53.984 64.8386 53.632C64.2093 53.28 63.7133 52.8 63.3506 52.192C62.988 51.584 62.8066 50.9013 62.8066 50.144C62.8066 49.376 62.988 48.688 63.3506 48.08C63.7133 47.472 64.2093 46.992 64.8386 46.64C65.4786 46.2773 66.188 46.096 66.9666 46.096C67.5746 46.096 68.1346 46.208 68.6466 46.432C69.1586 46.656 69.6013 46.976 69.9746 47.392L68.6306 48.752C68.428 48.528 68.1826 48.3573 67.8946 48.24C67.6173 48.1227 67.308 48.064 66.9666 48.064C66.5826 48.064 66.236 48.1547 65.9266 48.336C65.628 48.5067 65.388 48.7467 65.2066 49.056C65.036 49.3547 64.9506 49.712 64.9506 50.128C64.9506 50.5333 65.036 50.896 65.2066 51.216C65.388 51.5253 65.628 51.7707 65.9266 51.952C66.236 52.1227 66.5826 52.208 66.9666 52.208C67.3186 52.208 67.6333 52.1493 67.9106 52.032C68.1986 51.904 68.444 51.7227 68.6466 51.488L70.0066 52.848C69.612 53.2747 69.1586 53.6 68.6466 53.824C68.1346 54.048 67.5746 54.16 66.9666 54.16ZM74.7178 54.16C73.9071 54.16 73.1871 53.9893 72.5578 53.648C71.9284 53.296 71.4271 52.816 71.0538 52.208C70.6911 51.6 70.5098 50.9067 70.5098 50.128C70.5098 49.36 70.6858 48.6773 71.0378 48.08C71.4004 47.472 71.8911 46.992 72.5098 46.64C73.1284 46.2773 73.8164 46.096 74.5738 46.096C75.3204 46.096 75.9764 46.2667 76.5418 46.608C77.1178 46.9387 77.5658 47.3973 77.8858 47.984C78.2164 48.56 78.3818 49.216 78.3818 49.952C78.3818 50.0907 78.3711 50.2347 78.3498 50.384C78.3391 50.5227 78.3124 50.6827 78.2698 50.864L71.7738 50.88V49.312L77.2938 49.296L76.4458 49.952C76.4244 49.4933 76.3391 49.1093 76.1898 48.8C76.0511 48.4907 75.8431 48.256 75.5658 48.096C75.2991 47.9253 74.9684 47.84 74.5738 47.84C74.1578 47.84 73.7951 47.936 73.4858 48.128C73.1764 48.3093 72.9364 48.5707 72.7658 48.912C72.6058 49.2427 72.5258 49.6373 72.5258 50.096C72.5258 50.5653 72.6111 50.976 72.7818 51.328C72.9631 51.6693 73.2191 51.936 73.5498 52.128C73.8804 52.3093 74.2644 52.4 74.7018 52.4C75.0964 52.4 75.4538 52.336 75.7738 52.208C76.0938 52.0693 76.3711 51.8667 76.6058 51.6L77.8378 52.832C77.4644 53.2693 77.0058 53.6 76.4618 53.824C75.9284 54.048 75.3471 54.16 74.7178 54.16ZM83.966 54.16C83.4113 54.16 82.91 54.0427 82.462 53.808C82.014 53.5733 81.6567 53.2533 81.39 52.848C81.1233 52.4427 80.9793 51.9893 80.958 51.488V48.736C80.9793 48.2347 81.1233 47.7867 81.39 47.392C81.6673 46.9867 82.03 46.672 82.478 46.448C82.926 46.224 83.422 46.112 83.966 46.112C84.6807 46.112 85.3207 46.288 85.886 46.64C86.4513 46.992 86.894 47.472 87.214 48.08C87.5447 48.688 87.71 49.376 87.71 50.144C87.71 50.9013 87.5447 51.584 87.214 52.192C86.894 52.8 86.4513 53.28 85.886 53.632C85.3207 53.984 84.6807 54.16 83.966 54.16ZM83.614 52.224C83.998 52.224 84.334 52.1387 84.622 51.968C84.9207 51.7867 85.15 51.5413 85.31 51.232C85.4807 50.912 85.566 50.544 85.566 50.128C85.566 49.7227 85.4807 49.3653 85.31 49.056C85.15 48.736 84.9207 48.4907 84.622 48.32C84.3233 48.1387 83.982 48.048 83.598 48.048C83.214 48.048 82.8727 48.1387 82.574 48.32C82.286 48.4907 82.0567 48.736 81.886 49.056C81.726 49.3653 81.646 49.7227 81.646 50.128C81.646 50.544 81.726 50.912 81.886 51.232C82.0567 51.5413 82.2913 51.7867 82.59 51.968C82.8887 52.1387 83.23 52.224 83.614 52.224ZM79.678 54V42.432H81.774V48.176L81.422 50.032L81.758 51.92V54H79.678ZM92.7163 54.16C91.9376 54.16 91.2336 53.984 90.6043 53.632C89.9856 53.2693 89.4896 52.784 89.1163 52.176C88.7536 51.5573 88.5723 50.8693 88.5723 50.112C88.5723 49.3547 88.7536 48.6773 89.1163 48.08C89.4789 47.472 89.9749 46.992 90.6043 46.64C91.2336 46.2773 91.9323 46.096 92.7003 46.096C93.4896 46.096 94.1936 46.2773 94.8123 46.64C95.4416 46.992 95.9376 47.472 96.3003 48.08C96.6629 48.6773 96.8443 49.3547 96.8443 50.112C96.8443 50.8693 96.6629 51.5573 96.3003 52.176C95.9376 52.784 95.4416 53.2693 94.8123 53.632C94.1936 53.984 93.4949 54.16 92.7163 54.16ZM92.7003 52.208C93.0949 52.208 93.4416 52.1227 93.7403 51.952C94.0496 51.7707 94.2843 51.5253 94.4443 51.216C94.6149 50.896 94.7003 50.5333 94.7003 50.128C94.7003 49.7227 94.6149 49.3653 94.4443 49.056C94.2736 48.7467 94.0389 48.5067 93.7403 48.336C93.4416 48.1547 93.0949 48.064 92.7003 48.064C92.3163 48.064 91.9749 48.1547 91.6763 48.336C91.3776 48.5067 91.1429 48.7467 90.9723 49.056C90.8016 49.3653 90.7163 49.7227 90.7163 50.128C90.7163 50.5333 90.8016 50.896 90.9723 51.216C91.1429 51.5253 91.3776 51.7707 91.6763 51.952C91.9749 52.1227 92.3163 52.208 92.7003 52.208ZM101.826 54.16C101.047 54.16 100.343 53.984 99.7136 53.632C99.095 53.2693 98.599 52.784 98.2256 52.176C97.863 51.5573 97.6816 50.8693 97.6816 50.112C97.6816 49.3547 97.863 48.6773 98.2256 48.08C98.5883 47.472 99.0843 46.992 99.7136 46.64C100.343 46.2773 101.042 46.096 101.81 46.096C102.599 46.096 103.303 46.2773 103.922 46.64C104.551 46.992 105.047 47.472 105.41 48.08C105.772 48.6773 105.954 49.3547 105.954 50.112C105.954 50.8693 105.772 51.5573 105.41 52.176C105.047 52.784 104.551 53.2693 103.922 53.632C103.303 53.984 102.604 54.16 101.826 54.16ZM101.81 52.208C102.204 52.208 102.551 52.1227 102.85 51.952C103.159 51.7707 103.394 51.5253 103.554 51.216C103.724 50.896 103.81 50.5333 103.81 50.128C103.81 49.7227 103.724 49.3653 103.554 49.056C103.383 48.7467 103.148 48.5067 102.85 48.336C102.551 48.1547 102.204 48.064 101.81 48.064C101.426 48.064 101.084 48.1547 100.786 48.336C100.487 48.5067 100.252 48.7467 100.082 49.056C99.911 49.3653 99.8256 49.7227 99.8256 50.128C99.8256 50.5333 99.911 50.896 100.082 51.216C100.252 51.5253 100.487 51.7707 100.786 51.952C101.084 52.1227 101.426 52.208 101.81 52.208ZM112.231 54L109.239 50.016L112.215 46.272H114.631L111.143 50.496L111.223 49.472L114.791 54H112.231ZM107.303 54V42.432H109.399V54H107.303Z" fill="black"/>
<path d="M138.12 41.32H140V38.14C139.09 38.0454 138.175 37.9986 137.26 38C134.54 38 132.68 39.66 132.68 42.7V45.32H129.61V48.88H132.68V58H136.36V48.88H139.42L139.88 45.32H136.36V43.05C136.36 42 136.64 41.32 138.12 41.32Z" fill="#2C2C2C"/>
</g>
<defs>
<filter id="filter0_d_58_5882" x="0" y="0" width="191" height="104" filterUnits="userSpaceOnUse" color-interpolation-filters="sRGB">
<feFlood flood-opacity="0" result="BackgroundImageFix"/>
<feColorMatrix in="SourceAlpha" type="matrix" values="0 0 0 0 0 0 0 0 0 0 0 0 0 0 0 0 0 0 127 0" result="hardAlpha"/>
<feOffset dy="4"/>
<feGaussianBlur stdDeviation="16"/>
<feComposite in2="hardAlpha" operator="out"/>
<feColorMatrix type="matrix" values="0 0 0 0 0.172549 0 0 0 0 0.172549 0 0 0 0 0.172549 0 0 0 0.12 0"/>
<feBlend mode="normal" in2="BackgroundImageFix" result="effect1_dropShadow_58_5882"/>
<feBlend mode="normal" in="SourceGraphic" in2="effect1_dropShadow_58_5882" result="shape"/>
</filter>
</defs>
</svg>
