<svg width="25" height="24" viewBox="0 0 25 24" fill="none" xmlns="http://www.w3.org/2000/svg">
<path d="M17.792 5.46C17.5547 5.46 17.3226 5.53038 17.1253 5.66224C16.928 5.79409 16.7742 5.98151 16.6833 6.20078C16.5925 6.42005 16.5688 6.66133 16.6151 6.89411C16.6614 7.12689 16.7756 7.34071 16.9435 7.50853C17.1113 7.67635 17.3251 7.79064 17.5579 7.83694C17.7907 7.88324 18.0319 7.85948 18.2512 7.76866C18.4705 7.67783 18.6579 7.52402 18.7898 7.32668C18.9216 7.12935 18.992 6.89734 18.992 6.66C18.992 6.34174 18.8656 6.03652 18.6405 5.81147C18.4155 5.58643 18.1103 5.46 17.792 5.46ZM22.392 7.88C22.3725 7.0503 22.2172 6.2294 21.932 5.45C21.6777 4.78313 21.282 4.17928 20.772 3.68C20.2768 3.16743 19.6716 2.77418 19.002 2.53C18.2247 2.23616 17.4028 2.07721 16.572 2.06C15.512 2 15.172 2 12.452 2C9.732 2 9.392 2 8.332 2.06C7.50115 2.07721 6.67934 2.23616 5.902 2.53C5.23367 2.77665 4.62893 3.16956 4.132 3.68C3.61942 4.17518 3.22617 4.78044 2.982 5.45C2.68816 6.22734 2.52921 7.04915 2.512 7.88C2.452 8.94 2.452 9.28 2.452 12C2.452 14.72 2.452 15.06 2.512 16.12C2.52921 16.9508 2.68816 17.7727 2.982 18.55C3.22617 19.2196 3.61942 19.8248 4.132 20.32C4.62893 20.8304 5.23367 21.2234 5.902 21.47C6.67934 21.7638 7.50115 21.9228 8.332 21.94C9.392 22 9.732 22 12.452 22C15.172 22 15.512 22 16.572 21.94C17.4028 21.9228 18.2247 21.7638 19.002 21.47C19.6716 21.2258 20.2768 20.8326 20.772 20.32C21.2842 19.8226 21.6803 19.2182 21.932 18.55C22.2172 17.7706 22.3725 16.9497 22.392 16.12C22.392 15.06 22.452 14.72 22.452 12C22.452 9.28 22.452 8.94 22.392 7.88ZM20.592 16C20.5847 16.6348 20.4697 17.2637 20.252 17.86C20.0923 18.2952 19.8359 18.6884 19.502 19.01C19.1776 19.3405 18.7852 19.5964 18.352 19.76C17.7557 19.9778 17.1268 20.0927 16.492 20.1C15.492 20.15 15.122 20.16 12.492 20.16C9.862 20.16 9.492 20.16 8.492 20.1C7.83289 20.1123 7.17659 20.0109 6.552 19.8C6.13778 19.6281 5.76335 19.3728 5.452 19.05C5.12008 18.7287 4.86684 18.3352 4.712 17.9C4.46785 17.2952 4.33244 16.6519 4.312 16C4.312 15 4.252 14.63 4.252 12C4.252 9.37 4.252 9 4.312 8C4.31648 7.35106 4.43495 6.70795 4.662 6.1C4.83804 5.67791 5.10826 5.30166 5.452 5C5.75581 4.65617 6.13128 4.3831 6.552 4.2C7.16155 3.98004 7.80399 3.86508 8.452 3.86C9.452 3.86 9.822 3.8 12.452 3.8C15.082 3.8 15.452 3.8 16.452 3.86C17.0868 3.86728 17.7157 3.98225 18.312 4.2C18.7664 4.36865 19.1743 4.64285 19.502 5C19.8297 5.30718 20.0858 5.68273 20.252 6.1C20.4742 6.70893 20.5893 7.35178 20.592 8C20.642 9 20.652 9.37 20.652 12C20.652 14.63 20.642 15 20.592 16ZM12.452 6.87C11.4378 6.87198 10.447 7.17453 9.60465 7.73942C8.76234 8.30431 8.10637 9.1062 7.71963 10.0438C7.33289 10.9813 7.23272 12.0125 7.43179 13.0069C7.63086 14.0014 8.12023 14.9145 8.83807 15.631C9.55591 16.3474 10.47 16.835 11.4649 17.0321C12.4597 17.2293 13.4907 17.1271 14.4275 16.7385C15.3643 16.35 16.1649 15.6924 16.7281 14.849C17.2914 14.0056 17.592 13.0142 17.592 12C17.5933 11.3251 17.4612 10.6566 17.2032 10.033C16.9453 9.40931 16.5666 8.84281 16.0889 8.36605C15.6112 7.88929 15.0439 7.51168 14.4198 7.25493C13.7956 6.99818 13.1269 6.86736 12.452 6.87ZM12.452 15.33C11.7934 15.33 11.1496 15.1347 10.6019 14.7688C10.0543 14.4029 9.62752 13.8828 9.37548 13.2743C9.12344 12.6659 9.05749 11.9963 9.18598 11.3503C9.31447 10.7044 9.63162 10.111 10.0973 9.64533C10.563 9.17963 11.1564 8.86247 11.8023 8.73398C12.4483 8.6055 13.1179 8.67144 13.7263 8.92348C14.3348 9.17552 14.8549 9.60234 15.2208 10.15C15.5867 10.6976 15.782 11.3414 15.782 12C15.782 12.4373 15.6959 12.8703 15.5285 13.2743C15.3612 13.6784 15.1159 14.0454 14.8067 14.3547C14.4974 14.6639 14.1303 14.9092 13.7263 15.0765C13.3223 15.2439 12.8893 15.33 12.452 15.33Z" fill="#2C2C2C"/>
</svg>
