<svg width="195" height="104" viewBox="0 0 195 104" fill="none" xmlns="http://www.w3.org/2000/svg">
<g filter="url(#filter0_d_58_5886)">
<path d="M32 34C32 30.6863 34.6863 28 38 28H157C160.314 28 163 30.6863 163 34V62C163 65.3137 160.314 68 157 68H38C34.6863 68 32 65.3137 32 62V34Z" fill="white" shape-rendering="crispEdges"/>
<path d="M45.152 54V42.752H47.328V54H45.152ZM54.6124 54V49.568C54.6124 49.1093 54.4684 48.736 54.1804 48.448C53.8924 48.16 53.519 48.016 53.0604 48.016C52.7617 48.016 52.495 48.08 52.2604 48.208C52.0257 48.336 51.839 48.5173 51.7004 48.752C51.5724 48.9867 51.5084 49.2587 51.5084 49.568L50.6924 49.152C50.6924 48.544 50.8204 48.016 51.0764 47.568C51.343 47.1093 51.7057 46.752 52.1644 46.496C52.6337 46.24 53.1617 46.112 53.7484 46.112C54.3137 46.112 54.8204 46.256 55.2684 46.544C55.7164 46.8213 56.0684 47.1893 56.3244 47.648C56.5804 48.096 56.7084 48.5813 56.7084 49.104V54H54.6124ZM49.4124 54V46.272H51.5084V54H49.4124ZM61.0528 54.176C60.6154 54.176 60.1834 54.1173 59.7568 54C59.3408 53.8827 58.9568 53.7227 58.6048 53.52C58.2528 53.3067 57.9488 53.0507 57.6928 52.752L58.9408 51.488C59.2074 51.7867 59.5168 52.0107 59.8688 52.16C60.2208 52.3093 60.6101 52.384 61.0368 52.384C61.3781 52.384 61.6341 52.336 61.8048 52.24C61.9861 52.144 62.0768 52 62.0768 51.808C62.0768 51.5947 61.9808 51.4293 61.7888 51.312C61.6074 51.1947 61.3674 51.0987 61.0688 51.024C60.7701 50.9387 60.4554 50.848 60.1248 50.752C59.8048 50.6453 59.4954 50.512 59.1968 50.352C58.8981 50.1813 58.6528 49.952 58.4608 49.664C58.2794 49.3653 58.1888 48.9813 58.1888 48.512C58.1888 48.0213 58.3061 47.5947 58.5408 47.232C58.7861 46.8693 59.1328 46.5867 59.5807 46.384C60.0288 46.1813 60.5568 46.08 61.1648 46.08C61.8048 46.08 62.3808 46.192 62.8928 46.416C63.4154 46.64 63.8474 46.976 64.1888 47.424L62.9248 48.688C62.6901 48.4 62.4234 48.192 62.1248 48.064C61.8368 47.936 61.5221 47.872 61.1808 47.872C60.8714 47.872 60.6314 47.92 60.4608 48.016C60.3008 48.112 60.2208 48.2453 60.2208 48.416C60.2208 48.608 60.3114 48.7573 60.4928 48.864C60.6848 48.9707 60.9301 49.0667 61.2288 49.152C61.5274 49.2267 61.8368 49.3173 62.1568 49.424C62.4874 49.52 62.7968 49.6587 63.0848 49.84C63.3834 50.0213 63.6234 50.2613 63.8048 50.56C63.9968 50.8587 64.0928 51.2427 64.0928 51.712C64.0928 52.4693 63.8208 53.072 63.2768 53.52C62.7328 53.9573 61.9914 54.176 61.0528 54.176ZM66.6421 54V43.056H68.7381V54H66.6421ZM64.8341 48.112V46.272H70.5461V48.112H64.8341ZM74.7694 54.16C74.0654 54.16 73.4307 53.984 72.8654 53.632C72.3 53.28 71.8574 52.8 71.5374 52.192C71.2174 51.584 71.0574 50.9013 71.0574 50.144C71.0574 49.376 71.2174 48.688 71.5374 48.08C71.8574 47.472 72.3 46.992 72.8654 46.64C73.4307 46.288 74.0654 46.112 74.7694 46.112C75.324 46.112 75.82 46.224 76.2574 46.448C76.6947 46.672 77.0414 46.9867 77.2974 47.392C77.564 47.7867 77.708 48.2347 77.7294 48.736V51.52C77.708 52.032 77.564 52.4853 77.2974 52.88C77.0414 53.2747 76.6947 53.5893 76.2574 53.824C75.82 54.048 75.324 54.16 74.7694 54.16ZM75.1534 52.224C75.74 52.224 76.2147 52.032 76.5774 51.648C76.94 51.2533 77.1214 50.7467 77.1214 50.128C77.1214 49.7227 77.036 49.3653 76.8654 49.056C76.7054 48.736 76.476 48.4907 76.1774 48.32C75.8894 48.1387 75.548 48.048 75.1534 48.048C74.7694 48.048 74.428 48.1387 74.1294 48.32C73.8414 48.4907 73.612 48.736 73.4414 49.056C73.2814 49.3653 73.2014 49.7227 73.2014 50.128C73.2014 50.544 73.2814 50.912 73.4414 51.232C73.612 51.5413 73.8414 51.7867 74.1294 51.968C74.428 52.1387 74.7694 52.224 75.1534 52.224ZM77.0094 54V51.92L77.3454 50.032L77.0094 48.176V46.272H79.0894V54H77.0094ZM84.1756 57.424C83.3543 57.424 82.629 57.2747 81.9996 56.976C81.3703 56.688 80.869 56.2773 80.4956 55.744L81.8236 54.416C82.1223 54.768 82.453 55.0347 82.8156 55.216C83.189 55.408 83.637 55.504 84.1596 55.504C84.8103 55.504 85.3223 55.3387 85.6956 55.008C86.0796 54.6773 86.2716 54.2187 86.2716 53.632V51.696L86.6236 50L86.2876 48.304V46.272H88.3676V53.6C88.3676 54.368 88.1863 55.0347 87.8236 55.6C87.4716 56.176 86.981 56.624 86.3516 56.944C85.7223 57.264 84.997 57.424 84.1756 57.424ZM84.0796 53.792C83.3863 53.792 82.7623 53.6267 82.2076 53.296C81.653 52.9547 81.2156 52.4907 80.8956 51.904C80.5863 51.3173 80.4316 50.6613 80.4316 49.936C80.4316 49.2107 80.5863 48.56 80.8956 47.984C81.2156 47.408 81.653 46.9547 82.2076 46.624C82.7623 46.2827 83.3863 46.112 84.0796 46.112C84.6556 46.112 85.1623 46.224 85.5996 46.448C86.0476 46.672 86.3996 46.9813 86.6556 47.376C86.9116 47.76 87.0503 48.2133 87.0716 48.736V51.168C87.0503 51.68 86.9063 52.1387 86.6396 52.544C86.3836 52.9387 86.0316 53.248 85.5836 53.472C85.1463 53.6853 84.645 53.792 84.0796 53.792ZM84.4956 51.888C84.8796 51.888 85.2103 51.808 85.4876 51.648C85.7756 51.4773 85.9996 51.248 86.1596 50.96C86.3196 50.6613 86.3996 50.3253 86.3996 49.952C86.3996 49.568 86.3196 49.232 86.1596 48.944C85.9996 48.656 85.7756 48.432 85.4876 48.272C85.2103 48.1013 84.8796 48.016 84.4956 48.016C84.1116 48.016 83.7756 48.1013 83.4876 48.272C83.1996 48.432 82.9756 48.6613 82.8156 48.96C82.6556 49.248 82.5756 49.5787 82.5756 49.952C82.5756 50.3147 82.6556 50.6453 82.8156 50.944C82.9756 51.232 83.1996 51.4613 83.4876 51.632C83.7756 51.8027 84.1116 51.888 84.4956 51.888ZM90.2093 54V46.272H92.3053V54H90.2093ZM92.3053 49.728L91.4893 49.184C91.5853 48.2347 91.8626 47.488 92.3213 46.944C92.7799 46.3893 93.4413 46.112 94.3053 46.112C94.6786 46.112 95.0146 46.176 95.3133 46.304C95.6119 46.4213 95.8839 46.6187 96.1293 46.896L94.8173 48.4C94.6999 48.272 94.5559 48.176 94.3853 48.112C94.2253 48.048 94.0386 48.016 93.8253 48.016C93.3773 48.016 93.0093 48.16 92.7213 48.448C92.4439 48.7253 92.3053 49.152 92.3053 49.728ZM99.8788 54.16C99.1748 54.16 98.5401 53.984 97.9748 53.632C97.4094 53.28 96.9668 52.8 96.6468 52.192C96.3268 51.584 96.1668 50.9013 96.1668 50.144C96.1668 49.376 96.3268 48.688 96.6468 48.08C96.9668 47.472 97.4094 46.992 97.9748 46.64C98.5401 46.288 99.1748 46.112 99.8788 46.112C100.433 46.112 100.929 46.224 101.367 46.448C101.804 46.672 102.151 46.9867 102.407 47.392C102.673 47.7867 102.817 48.2347 102.839 48.736V51.52C102.817 52.032 102.673 52.4853 102.407 52.88C102.151 53.2747 101.804 53.5893 101.367 53.824C100.929 54.048 100.433 54.16 99.8788 54.16ZM100.263 52.224C100.849 52.224 101.324 52.032 101.687 51.648C102.049 51.2533 102.231 50.7467 102.231 50.128C102.231 49.7227 102.145 49.3653 101.975 49.056C101.815 48.736 101.585 48.4907 101.287 48.32C100.999 48.1387 100.657 48.048 100.263 48.048C99.8788 48.048 99.5374 48.1387 99.2388 48.32C98.9508 48.4907 98.7214 48.736 98.5508 49.056C98.3908 49.3653 98.3108 49.7227 98.3108 50.128C98.3108 50.544 98.3908 50.912 98.5508 51.232C98.7214 51.5413 98.9508 51.7867 99.2388 51.968C99.5374 52.1387 99.8788 52.224 100.263 52.224ZM102.119 54V51.92L102.455 50.032L102.119 48.176V46.272H104.199V54H102.119ZM106.053 54V46.272H108.149V54H106.053ZM111.093 54V49.44C111.093 48.992 110.949 48.6453 110.661 48.4C110.384 48.144 110.037 48.016 109.621 48.016C109.344 48.016 109.093 48.0747 108.869 48.192C108.645 48.2987 108.469 48.4587 108.341 48.672C108.213 48.8853 108.149 49.1413 108.149 49.44L107.333 49.04C107.333 48.4427 107.461 47.9253 107.717 47.488C107.984 47.0507 108.341 46.7147 108.789 46.48C109.237 46.2347 109.744 46.112 110.309 46.112C110.842 46.112 111.328 46.2347 111.765 46.48C112.202 46.7147 112.549 47.0507 112.805 47.488C113.061 47.9147 113.189 48.432 113.189 49.04V54H111.093ZM116.133 54V49.44C116.133 48.992 115.989 48.6453 115.701 48.4C115.424 48.144 115.077 48.016 114.661 48.016C114.394 48.016 114.144 48.0747 113.909 48.192C113.685 48.2987 113.509 48.4587 113.381 48.672C113.253 48.8853 113.189 49.1413 113.189 49.44L111.989 49.152C112.032 48.5333 112.197 48 112.485 47.552C112.773 47.0933 113.152 46.7413 113.621 46.496C114.09 46.24 114.613 46.112 115.189 46.112C115.765 46.112 116.282 46.2347 116.741 46.48C117.2 46.7147 117.562 47.056 117.829 47.504C118.096 47.952 118.229 48.4853 118.229 49.104V54H116.133Z" fill="black"/>
<path d="M144.34 41.46C144.103 41.46 143.871 41.5304 143.673 41.6622C143.476 41.7941 143.322 41.9815 143.231 42.2008C143.141 42.4201 143.117 42.6613 143.163 42.8941C143.209 43.1269 143.324 43.3407 143.491 43.5085C143.659 43.6764 143.873 43.7906 144.106 43.8369C144.339 43.8832 144.58 43.8595 144.799 43.7687C145.018 43.6778 145.206 43.524 145.338 43.3267C145.47 43.1293 145.54 42.8973 145.54 42.66C145.54 42.3417 145.414 42.0365 145.189 41.8115C144.963 41.5864 144.658 41.46 144.34 41.46ZM148.94 43.88C148.921 43.0503 148.765 42.2294 148.48 41.45C148.226 40.7831 147.83 40.1793 147.32 39.68C146.825 39.1674 146.22 38.7742 145.55 38.53C144.773 38.2362 143.951 38.0772 143.12 38.06C142.06 38 141.72 38 139 38C136.28 38 135.94 38 134.88 38.06C134.049 38.0772 133.227 38.2362 132.45 38.53C131.782 38.7766 131.177 39.1696 130.68 39.68C130.167 40.1752 129.774 40.7804 129.53 41.45C129.236 42.2273 129.077 43.0492 129.06 43.88C129 44.94 129 45.28 129 48C129 50.72 129 51.06 129.06 52.12C129.077 52.9508 129.236 53.7727 129.53 54.55C129.774 55.2196 130.167 55.8248 130.68 56.32C131.177 56.8304 131.782 57.2234 132.45 57.47C133.227 57.7638 134.049 57.9228 134.88 57.94C135.94 58 136.28 58 139 58C141.72 58 142.06 58 143.12 57.94C143.951 57.9228 144.773 57.7638 145.55 57.47C146.22 57.2258 146.825 56.8326 147.32 56.32C147.832 55.8226 148.228 55.2182 148.48 54.55C148.765 53.7706 148.921 52.9497 148.94 52.12C148.94 51.06 149 50.72 149 48C149 45.28 149 44.94 148.94 43.88ZM147.14 52C147.133 52.6348 147.018 53.2637 146.8 53.86C146.64 54.2952 146.384 54.6884 146.05 55.01C145.726 55.3405 145.333 55.5964 144.9 55.76C144.304 55.9778 143.675 56.0927 143.04 56.1C142.04 56.15 141.67 56.16 139.04 56.16C136.41 56.16 136.04 56.16 135.04 56.1C134.381 56.1123 133.725 56.0109 133.1 55.8C132.686 55.6281 132.311 55.3728 132 55.05C131.668 54.7287 131.415 54.3352 131.26 53.9C131.016 53.2952 130.88 52.6519 130.86 52C130.86 51 130.8 50.63 130.8 48C130.8 45.37 130.8 45 130.86 44C130.864 43.3511 130.983 42.7079 131.21 42.1C131.386 41.6779 131.656 41.3017 132 41C132.304 40.6562 132.679 40.3831 133.1 40.2C133.71 39.98 134.352 39.8651 135 39.86C136 39.86 136.37 39.8 139 39.8C141.63 39.8 142 39.8 143 39.86C143.635 39.8673 144.264 39.9822 144.86 40.2C145.314 40.3687 145.722 40.6428 146.05 41C146.378 41.3072 146.634 41.6827 146.8 42.1C147.022 42.7089 147.137 43.3518 147.14 44C147.19 45 147.2 45.37 147.2 48C147.2 50.63 147.19 51 147.14 52ZM139 42.87C137.986 42.872 136.995 43.1745 136.153 43.7394C135.31 44.3043 134.654 45.1062 134.268 46.0438C133.881 46.9813 133.781 48.0125 133.98 49.0069C134.179 50.0014 134.668 50.9145 135.386 51.631C136.104 52.3474 137.018 52.835 138.013 53.0321C139.008 53.2293 140.039 53.1271 140.975 52.7385C141.912 52.35 142.713 51.6924 143.276 50.849C143.839 50.0056 144.14 49.0142 144.14 48C144.141 47.3251 144.009 46.6566 143.751 46.033C143.493 45.4093 143.115 44.8428 142.637 44.3661C142.159 43.8893 141.592 43.5117 140.968 43.2549C140.344 42.9982 139.675 42.8674 139 42.87ZM139 51.33C138.341 51.33 137.698 51.1347 137.15 50.7688C136.602 50.4029 136.176 49.8828 135.923 49.2743C135.671 48.6659 135.605 47.9963 135.734 47.3503C135.862 46.7044 136.18 46.111 136.645 45.6453C137.111 45.1796 137.704 44.8625 138.35 44.734C138.996 44.6055 139.666 44.6714 140.274 44.9235C140.883 45.1755 141.403 45.6023 141.769 46.15C142.135 46.6976 142.33 47.3414 142.33 48C142.33 48.4373 142.244 48.8703 142.077 49.2743C141.909 49.6784 141.664 50.0454 141.355 50.3547C141.045 50.6639 140.678 50.9092 140.274 51.0765C139.87 51.2439 139.437 51.33 139 51.33Z" fill="#2C2C2C"/>
</g>
<defs>
<filter id="filter0_d_58_5886" x="0" y="0" width="195" height="104" filterUnits="userSpaceOnUse" color-interpolation-filters="sRGB">
<feFlood flood-opacity="0" result="BackgroundImageFix"/>
<feColorMatrix in="SourceAlpha" type="matrix" values="0 0 0 0 0 0 0 0 0 0 0 0 0 0 0 0 0 0 127 0" result="hardAlpha"/>
<feOffset dy="4"/>
<feGaussianBlur stdDeviation="16"/>
<feComposite in2="hardAlpha" operator="out"/>
<feColorMatrix type="matrix" values="0 0 0 0 0.172549 0 0 0 0 0.172549 0 0 0 0 0.172549 0 0 0 0.12 0"/>
<feBlend mode="normal" in2="BackgroundImageFix" result="effect1_dropShadow_58_5886"/>
<feBlend mode="normal" in="SourceGraphic" in2="effect1_dropShadow_58_5886" result="shape"/>
</filter>
</defs>
</svg>
