<svg width="25" height="24" viewBox="0 0 25 24" fill="none" xmlns="http://www.w3.org/2000/svg">
<path d="M17.7921 5.46C17.5548 5.46 17.3228 5.53038 17.1255 5.66224C16.9281 5.79409 16.7743 5.98151 16.6835 6.20078C16.5927 6.42005 16.5689 6.66133 16.6152 6.89411C16.6615 7.12689 16.7758 7.34071 16.9436 7.50853C17.1114 7.67635 17.3253 7.79064 17.558 7.83694C17.7908 7.88324 18.0321 7.85948 18.2514 7.76866C18.4706 7.67783 18.6581 7.52402 18.7899 7.32668C18.9218 7.12935 18.9921 6.89734 18.9921 6.66C18.9921 6.34174 18.8657 6.03652 18.6407 5.81147C18.4156 5.58643 18.1104 5.46 17.7921 5.46ZM22.3921 7.88C22.3727 7.0503 22.2173 6.2294 21.9321 5.45C21.6779 4.78313 21.2821 4.17928 20.7721 3.68C20.277 3.16743 19.6717 2.77418 19.0021 2.53C18.2248 2.23616 17.403 2.07721 16.5721 2.06C15.5121 2 15.1721 2 12.4521 2C9.73215 2 9.39215 2 8.33215 2.06C7.5013 2.07721 6.67949 2.23616 5.90215 2.53C5.23382 2.77665 4.62908 3.16956 4.13215 3.68C3.61957 4.17518 3.22632 4.78044 2.98215 5.45C2.68831 6.22734 2.52936 7.04915 2.51215 7.88C2.45215 8.94 2.45215 9.28 2.45215 12C2.45215 14.72 2.45215 15.06 2.51215 16.12C2.52936 16.9508 2.68831 17.7727 2.98215 18.55C3.22632 19.2196 3.61957 19.8248 4.13215 20.32C4.62908 20.8304 5.23382 21.2234 5.90215 21.47C6.67949 21.7638 7.5013 21.9228 8.33215 21.94C9.39215 22 9.73215 22 12.4521 22C15.1721 22 15.5121 22 16.5721 21.94C17.403 21.9228 18.2248 21.7638 19.0021 21.47C19.6717 21.2258 20.277 20.8326 20.7721 20.32C21.2844 19.8226 21.6805 19.2182 21.9321 18.55C22.2173 17.7706 22.3727 16.9497 22.3921 16.12C22.3921 15.06 22.4521 14.72 22.4521 12C22.4521 9.28 22.4521 8.94 22.3921 7.88ZM20.5921 16C20.5849 16.6348 20.4699 17.2637 20.2521 17.86C20.0925 18.2952 19.836 18.6884 19.5021 19.01C19.1778 19.3405 18.7854 19.5964 18.3521 19.76C17.7559 19.9778 17.1269 20.0927 16.4921 20.1C15.4921 20.15 15.1221 20.16 12.4921 20.16C9.86215 20.16 9.49215 20.16 8.49215 20.1C7.83304 20.1123 7.17674 20.0109 6.55215 19.8C6.13793 19.6281 5.7635 19.3728 5.45215 19.05C5.12024 18.7287 4.86699 18.3352 4.71215 17.9C4.468 17.2952 4.33259 16.6519 4.31215 16C4.31215 15 4.25215 14.63 4.25215 12C4.25215 9.37 4.25215 9 4.31215 8C4.31663 7.35106 4.4351 6.70795 4.66215 6.1C4.8382 5.67791 5.10841 5.30166 5.45215 5C5.75596 4.65617 6.13144 4.3831 6.55215 4.2C7.1617 3.98004 7.80415 3.86508 8.45215 3.86C9.45215 3.86 9.82215 3.8 12.4521 3.8C15.0821 3.8 15.4521 3.8 16.4521 3.86C17.0869 3.86728 17.7159 3.98225 18.3121 4.2C18.7666 4.36865 19.1744 4.64285 19.5021 5C19.8298 5.30718 20.0859 5.68273 20.2521 6.1C20.4744 6.70893 20.5894 7.35178 20.5921 8C20.6421 9 20.6521 9.37 20.6521 12C20.6521 14.63 20.6421 15 20.5921 16ZM12.4521 6.87C11.438 6.87198 10.4471 7.17453 9.6048 7.73942C8.7625 8.30431 8.10653 9.1062 7.71978 10.0438C7.33304 10.9813 7.23287 12.0125 7.43194 13.0069C7.63101 14.0014 8.12038 14.9145 8.83822 15.631C9.55606 16.3474 10.4702 16.835 11.465 17.0321C12.4599 17.2293 13.4908 17.1271 14.4276 16.7385C15.3644 16.35 16.165 15.6924 16.7283 14.849C17.2915 14.0056 17.5921 13.0142 17.5921 12C17.5935 11.3251 17.4614 10.6566 17.2034 10.033C16.9454 9.40931 16.5667 8.84281 16.089 8.36605C15.6113 7.88929 15.0441 7.51168 14.4199 7.25493C13.7958 6.99818 13.127 6.86736 12.4521 6.87ZM12.4521 15.33C11.7935 15.33 11.1497 15.1347 10.6021 14.7688C10.0545 14.4029 9.62767 13.8828 9.37563 13.2743C9.12359 12.6659 9.05764 11.9963 9.18613 11.3503C9.31462 10.7044 9.63177 10.111 10.0975 9.64533C10.5632 9.17963 11.1565 8.86247 11.8025 8.73398C12.4485 8.6055 13.118 8.67144 13.7265 8.92348C14.335 9.17552 14.855 9.60234 15.2209 10.15C15.5868 10.6976 15.7821 11.3414 15.7821 12C15.7821 12.4373 15.696 12.8703 15.5287 13.2743C15.3613 13.6784 15.116 14.0454 14.8068 14.3547C14.4976 14.6639 14.1305 14.9092 13.7265 15.0765C13.3225 15.2439 12.8895 15.33 12.4521 15.33Z" fill="white"/>
</svg>
