<svg width="70" height="52" viewBox="0 0 70 52" fill="none" xmlns="http://www.w3.org/2000/svg">
<path d="M67.3557 18.5977C66.2791 16.4945 64.8178 15.0072 62.8939 14.0582C61.3697 13.3035 59.7215 13.15 58.1288 13.0038L57.7144 12.9613C57.5294 12.9484 57.3445 12.9484 57.1595 12.9373C56.7044 12.9373 56.2753 12.9225 55.8239 12.6801C54.5438 11.9975 53.1324 11.5406 51.6785 11.0948C50.3836 10.6953 49.0184 10.4196 47.7069 10.1551C47.1519 10.046 46.597 9.97013 46.0587 9.90169C45.6887 9.85175 45.2873 9.8018 44.9044 9.73891C44.7033 9.68824 44.5112 9.60715 44.3346 9.49843L44.2866 9.47253C43.9036 9.2672 43.5152 9.04707 43.1397 8.83434L42.6698 8.56982L42.4848 8.45698C42.3156 8.34238 42.1352 8.24508 41.9465 8.16656C41.6746 8.06297 41.3916 7.98157 41.127 7.88538C40.8625 7.78919 40.5462 7.7004 40.2669 7.58941L39.6065 7.33044L39.2495 6.92347L39.3457 7.22684L37.0667 6.32413C35.5073 5.70444 33.8942 5.06255 32.3015 4.45026C29.2698 3.31414 26.2982 2.02375 23.3983 0.584124C22.8434 0.30665 22.0276 -0.0244684 21.2063 0.00142917C19.3975 0.0330123 17.6155 0.443238 15.975 1.20567C14.2266 2.05304 12.5359 3.01456 10.9139 4.08399C9.77437 4.80912 8.30931 5.81358 7.06807 7.02891C6.19381 7.91645 5.37758 8.85934 4.62445 9.85175C4.31553 10.2421 3.99551 10.6435 3.67364 11.0319C3.56289 11.1701 3.46212 11.316 3.37212 11.4685C3.33513 11.5295 3.29628 11.5924 3.25743 11.6535L3.1298 11.8385L3.68474 12.3638L3.86973 12.0937C6.72956 7.87798 10.9139 4.63894 17.0183 1.92155C17.0303 1.94719 17.0402 1.9738 17.0479 2.00109C17.128 2.39079 17.2045 2.78233 17.2773 3.17573C17.4289 3.97115 17.5843 4.79433 17.7897 5.59345C18.7775 9.44663 20.052 12.4378 21.8019 15.0146C22.2403 15.662 22.7398 16.278 23.2226 16.8644C23.3632 17.0365 23.5019 17.2104 23.6425 17.3842L23.4575 17.4619C23.1038 17.6288 22.7353 17.7626 22.3569 17.8615C21.6169 18.0298 20.8881 18.213 20.1685 18.3924L20.4275 18.1723L15.4977 3.55864L15.4052 3.32926L14.7855 3.45875L14.8114 3.69923C14.8114 3.74917 14.8207 3.79912 14.8225 3.85091C14.8262 3.98952 14.8454 4.12727 14.8799 4.26158V4.28377C15.1685 5.24938 15.4589 6.23904 15.7678 7.2139C16.665 10.0201 17.4012 12.2935 18.0819 14.3672C18.4667 15.5418 18.8219 16.574 19.1918 17.5248C19.2929 17.7494 19.434 17.9537 19.608 18.1279C19.6691 18.2 19.732 18.2703 19.793 18.3443L19.8911 18.4756C19.0623 18.681 18.2262 18.89 17.3753 19.0805L16.4633 18.4849L16.5854 18.4312L12.4474 4.99411L12.1199 5.41772C12.0672 5.48248 12.0309 5.55903 12.0142 5.64084C11.9974 5.72265 12.0007 5.8073 12.0238 5.88757C12.1545 6.38702 12.2846 6.88648 12.4141 7.38593C12.7341 8.62161 13.0652 9.89984 13.4204 11.1503C14.016 13.2554 14.6616 15.3846 15.2702 17.3861C15.3607 17.6563 15.4759 17.9176 15.6143 18.1667C15.6698 18.274 15.7271 18.3813 15.777 18.4904L15.8936 18.7365L16.4171 18.4978L17.0183 19.1564C15.5832 19.4855 14.127 19.7142 12.6601 19.8408C10.4403 20.011 8.60158 19.5411 7.05882 18.4053C6.25554 17.7911 5.48379 17.1366 4.74654 16.4445C4.42097 16.1486 4.08431 15.8415 3.74579 15.5474C3.63295 15.4493 3.52566 15.3476 3.41652 15.244L3.0669 14.9184L2.58965 15.4105L2.61739 15.1681L2.19563 15.2995C1.89781 15.3938 1.72208 15.5455 1.67398 15.7508C1.62589 15.9562 1.56299 16.217 1.5075 16.4501C1.32252 17.19 1.13753 17.9725 1.02655 18.7513C0.964193 19.2902 0.943167 19.8332 0.963651 20.3754C0.963651 20.6177 0.963651 20.8619 0.963651 21.1042C0.963651 21.267 0.952552 21.4316 0.945153 21.5944C0.924805 21.9071 0.924805 22.2382 0.924805 22.5674C0.950702 23.1224 1.00435 23.6977 1.05614 24.2471L1.10609 24.802L1.21338 26.0303C1.32067 27.2641 1.42981 28.5387 1.55559 29.7929C1.62959 30.5328 2.78203 31.7648 3.51271 31.8795C4.83903 32.0866 6.2523 32.3031 7.65262 32.4344C8.76251 32.5454 9.91495 32.7341 10.7825 33.683C11.023 33.9032 11.316 34.058 11.6334 34.1325C11.713 34.1584 11.7944 34.1843 11.8702 34.2139C12.0552 34.2824 12.2402 34.3342 12.4252 34.3841C12.7114 34.4464 12.9874 34.5491 13.2446 34.6893C14.3878 35.4071 15.5366 36.1692 16.6483 36.8906C17.3476 37.3494 18.0486 37.8155 18.7534 38.2632C19.2549 38.6076 19.7868 38.9054 20.3424 39.153C20.8826 39.3787 21.4375 39.5821 21.974 39.7801C22.651 40.0316 23.3502 40.2888 24.0088 40.5847C24.7154 40.8992 25.4128 41.2692 26.0898 41.628C26.543 41.8685 27.0147 42.1182 27.4809 42.3495C27.886 42.5474 28.293 42.7435 28.6981 42.9377C30.3629 43.7368 32.0833 44.5637 33.6131 45.6551C33.8905 45.853 34.168 46.0676 34.4381 46.2748C35.1447 46.8186 35.8754 47.3847 36.7004 47.7399C38.0233 48.2878 39.3729 48.7687 40.7441 49.1809C41.2658 49.3474 41.8059 49.5212 42.3331 49.697C42.803 49.8542 43.2821 50.004 43.7464 50.1465C44.7391 50.4359 45.716 50.7773 46.6728 51.1694C47.5626 51.5542 48.6336 51.9501 49.8175 51.9704C50.6832 51.9852 51.7228 52 52.8253 52C53.4709 52 54.1369 52 54.8028 51.9833C55.1142 51.9671 55.4236 51.9244 55.7277 51.8557C56.0892 51.7591 56.4651 51.7278 56.8376 51.7632C58.9612 52.1332 60.393 51.0233 61.2864 50.1613C61.3918 50.0683 61.5065 49.9865 61.6287 49.9171L61.7397 49.8487C63.6894 48.5982 64.7956 47.0166 65.0305 45.1446C65.276 43.2268 65.6555 41.3285 66.1663 39.4637C66.2363 39.1604 66.2722 38.8502 66.2736 38.5388C66.2736 38.389 66.2865 38.2466 66.3013 38.106C66.3061 38.0091 66.3261 37.9136 66.3605 37.8229C67.8864 34.6662 68.7908 31.2454 69.0243 27.747C69.2536 24.2323 68.7079 21.2393 67.3557 18.5977ZM24.5045 17.8948C25.1251 17.5921 25.7186 17.2369 26.2785 16.833C26.5871 16.6012 26.9089 16.3875 27.2423 16.1929L27.1683 16.3058L30.4684 18.4571L30.8661 17.843L27.8805 15.8415C28.8553 15.3696 29.8788 15.0055 30.9327 14.7556C33.1617 14.2151 35.2989 13.3494 37.2757 12.1862C38.9906 11.1532 40.951 10.5987 42.9528 10.5806L42.5459 10.7896C41.6481 11.2582 40.7515 11.7244 39.8562 12.1881C39.4123 12.4175 38.948 12.6376 38.4984 12.8503C37.4859 13.2936 36.5126 13.8215 35.5887 14.4282C33.559 15.8287 32.0761 17.888 31.3914 20.257C31.2847 20.5956 31.1574 20.9273 31.0104 21.2504L30.4092 20.4364C29.8542 19.6836 25.9418 17.7394 25.0188 17.9003L24.536 17.9854L24.5045 17.8948ZM31.2194 4.83132C32.6567 5.40847 34.1218 5.98561 35.5387 6.54241C36.6647 6.98637 37.7906 7.43156 38.9165 7.87798C39.1145 7.96377 39.3051 8.06587 39.4863 8.1832L39.6712 8.29419C39.6879 8.34784 39.7027 8.40333 39.7175 8.45883C39.7713 8.69573 39.8514 8.92591 39.9561 9.14511C40.0789 9.35771 40.2214 9.55837 40.3816 9.74446L39.9894 9.8647C39.4164 10.026 38.8532 10.2199 38.3024 10.4455C37.3739 10.8479 36.474 11.3133 35.609 11.8385C34.5842 12.4563 33.4336 12.928 31.8798 13.3664C31.2878 13.5329 30.6996 13.7068 30.1113 13.8807L29.7173 13.9972C29.7432 13.7364 29.7691 13.4774 29.7969 13.2203C29.8302 12.9114 29.8746 12.8041 30.1668 12.8041C30.2286 12.8047 30.2904 12.8084 30.3518 12.8152C30.9068 12.8651 31.5339 12.9225 32.0851 12.4563C32.1542 12.4308 32.2263 12.4146 32.2997 12.4082L32.4199 12.3897C32.7214 12.3361 33.3448 12.2214 33.4392 11.4999C33.4965 11.0412 33.4873 10.39 32.7288 10.0552C32.4239 9.91908 32.0928 9.85134 31.7588 9.85677C31.4249 9.8622 31.0962 9.94067 30.7958 10.0867C30.313 10.305 29.9597 10.2495 29.6489 9.90169C29.1753 9.38189 28.7129 8.83434 28.2745 8.2757C28.248 8.24656 28.2285 8.21172 28.2176 8.17388C28.2067 8.13603 28.2046 8.09619 28.2116 8.05742C28.2237 8.02341 28.2435 7.99267 28.2695 7.96763C28.2955 7.94259 28.327 7.92393 28.3614 7.91313L28.5242 7.85209C29.0366 7.656 29.5693 7.45437 30.0595 7.46362C31.7506 7.52125 33.4054 7.96884 34.895 8.77145C34.9283 8.7881 34.9616 8.80844 34.9967 8.83064H34.9135C34.5158 8.87689 34.0663 8.93053 33.7851 9.38559L33.528 9.80735H34.0367C34.1939 9.80735 34.3474 9.80735 34.4991 9.80735C34.8691 9.80735 35.2187 9.81845 35.5776 9.7907C36.2861 9.73521 36.595 9.61497 36.6875 9.35969C36.7505 9.1468 36.7666 8.92277 36.7347 8.70305C36.7027 8.48333 36.6235 8.27316 36.5025 8.08701C36.1731 7.68417 35.7653 7.3525 35.3038 7.11216C33.7652 6.20912 32.0712 5.60181 30.3093 5.32153C28.6833 5.08105 27.3736 5.38997 26.3044 6.26494C25.8425 6.62015 25.5161 7.12281 25.3795 7.6893C25.0626 6.60365 24.6516 5.54771 24.1512 4.5335C23.8994 4.06986 23.5885 3.64082 23.2263 3.25712C22.988 2.99195 22.7674 2.7114 22.5659 2.4173C22.36 2.07301 22.1883 1.70931 22.0535 1.33145C22.0239 1.25931 21.9962 1.18532 21.9666 1.11317L22.2089 1.19087C22.59 1.31295 22.984 1.43874 23.3539 1.58858C24.5489 2.07323 25.7408 2.56097 26.9296 3.05179C28.3244 3.65298 29.7821 4.25418 31.2194 4.83132ZM40.6535 8.54392L41.1049 8.63641C41.1268 8.83759 41.176 9.03485 41.251 9.22281L40.6535 8.54392ZM42.4367 9.09887L42.8788 9.41889L42.4978 9.44108L42.3498 9.08777L42.4367 9.09887ZM46.8005 10.9801C46.9333 11.0338 47.0579 11.106 47.1704 11.1947C47.3383 11.3286 47.5254 11.4365 47.7254 11.5147L48.5744 11.8015C47.988 11.9014 47.4109 12.0419 46.8393 12.1825C45.8145 12.4323 44.7213 12.706 43.6558 13.0149C43.117 13.1884 42.6431 13.5204 42.2961 13.9676C42.1556 14.1322 42.0261 14.3098 41.9003 14.4837C41.5673 14.9462 41.251 15.3827 40.7182 15.5529L40.4778 15.6306L40.5314 15.8766C40.5666 16.0376 40.5314 16.082 40.2854 16.2614C40.0804 16.3925 39.9052 16.5652 39.7711 16.7682L39.4012 17.3768L40.08 17.1752C40.1892 17.1438 40.2928 17.1216 40.3945 17.1012C40.618 17.0782 40.8301 16.9908 41.005 16.8496C41.0706 16.7695 41.1611 16.7135 41.2621 16.6905C41.2972 16.6905 41.3749 16.7201 41.51 16.8755C41.5828 16.9569 41.6803 17.0123 41.7875 17.033C41.8948 17.0537 42.0059 17.0387 42.1038 16.9902L42.5255 16.8385L41.7171 16.0672L42.6735 14.8518L44.466 16.2003L43.874 15.0905L43.8518 15.0442C43.8697 15.0342 43.8882 15.0255 43.9073 15.0183C44.4623 14.7852 45.0339 14.5337 45.5722 14.2895C46.2529 13.9861 46.9484 13.6753 47.6532 13.3979L48.4672 14.2099C48.8834 14.6142 49.3368 14.9783 49.8212 15.2976C49.6196 15.4567 49.4143 15.6195 49.2126 15.7878C48.6984 16.217 48.1866 16.6486 47.6773 17.0827L47.0668 17.5988L47.0354 17.6303C46.8116 17.8892 46.584 18.1445 46.3565 18.4016C45.8608 18.9566 45.3502 19.5319 44.8896 20.1368C42.708 22.9941 41.1342 26.2676 40.265 29.7559C39.907 31.2252 39.6493 32.7171 39.4937 34.2213C39.333 35.5519 39.2971 36.8945 39.3864 38.2318C39.6805 42.0738 40.6812 44.9485 42.5403 47.2756C42.9222 47.7377 43.3318 48.1763 43.7668 48.5889C42.8677 48.2893 42.1167 47.664 41.4341 47.024C40.8435 46.4226 40.0797 46.021 39.2495 45.8752C39.1357 45.8243 39.0439 45.7344 38.9905 45.6218C38.8594 45.1887 38.7507 44.7491 38.6649 44.3047C38.6427 44.1974 38.6187 44.0902 38.5965 43.9829C38.4781 43.4279 38.356 42.8878 38.2265 42.3402C37.9176 40.9417 37.5976 39.497 37.3257 38.069C36.989 36.3061 36.743 34.5543 36.545 33.0911C36.4172 32.1454 36.3474 31.1929 36.336 30.2387C36.3138 28.1817 36.8484 26.0525 37.9694 23.731C38.0785 23.5053 38.1877 23.2796 38.2987 23.0558L38.5632 22.5156L37.9361 22.1697L37.8011 22.4084L37.4847 22.9633C37.2535 23.3629 37.0167 23.7772 36.7948 24.1934C35.5924 26.4373 35.0929 28.9105 34.7341 31.2468C34.3468 33.7745 34.2846 36.3413 34.5491 38.8847C34.808 41.3839 35.659 43.3373 37.1647 44.856C37.3877 45.1044 37.5842 45.3753 37.7511 45.6644C36.1473 45.3998 34.6212 45.0336 33.3578 44.1161C32.8056 43.6772 32.3015 43.1812 31.8539 42.6362C31.6689 42.4309 31.4839 42.22 31.2897 42.0165L31.077 41.7945C30.6866 41.4052 30.3238 40.9892 29.9911 40.5496C29.1356 39.3783 28.5322 38.0424 28.219 36.6261C28.0136 35.679 28.2005 34.8133 28.8294 33.8199L29.0606 33.45C29.6718 32.5254 30.2277 31.5655 30.7255 30.5753C31.6211 28.6995 32.1665 26.6759 32.3348 24.6041C32.4816 22.7041 32.8199 20.8237 33.3448 18.9917C33.5724 18.2278 34.1551 17.5119 34.7193 16.8367C34.8709 16.6517 35.0226 16.4667 35.1651 16.2817C35.8384 15.4216 36.7874 14.9221 37.7918 14.3949L38.11 14.2266C38.9498 13.7808 39.7989 13.3165 40.6202 12.8688C41.5914 12.3398 42.5958 11.7904 43.591 11.2669C44.0754 10.9953 44.6119 10.8293 45.165 10.7799C45.7182 10.7305 46.2756 10.7987 46.8005 10.9801ZM24.6821 30.5402C24.449 31.2117 24.2307 31.8462 24.0569 32.5084C23.6462 34.0752 23.8719 35.3257 24.7302 36.332C24.7722 36.3745 24.8033 36.4265 24.8208 36.4837C24.967 37.4086 25.1057 38.3205 25.2556 39.3121L25.2999 39.6117L25.115 39.5211C24.6895 39.3139 24.3232 39.1345 23.9385 38.9661C20.2388 37.3512 16.9646 34.9779 14.188 32.8802C14.0431 32.7432 13.9262 32.5792 13.844 32.3974C13.1688 31.1377 12.3641 30.6105 11.0304 30.6105C10.8861 30.6105 10.7326 30.6105 10.5753 30.629C10.2446 30.6493 9.91308 30.653 9.58199 30.6401H9.36741L9.20647 30.1924C9.03629 29.7133 8.86795 29.2453 8.69592 28.7792C8.47764 28.1872 8.54053 27.8357 8.9179 27.5287C9.29526 27.2216 9.65783 26.9034 10.0056 26.5945L10.235 26.3929C10.42 26.2245 10.5605 26.1838 10.9028 26.367L11.1562 26.502C11.9461 26.9275 12.7637 27.3659 13.6387 27.5953C14.5136 27.8246 15.4478 27.9782 16.3375 28.1206C16.9054 28.2131 17.4918 28.3056 18.0616 28.424C19.7764 28.7718 21.5152 29.1491 23.1967 29.5135L24.9078 29.8835L24.6821 30.5402ZM49.0776 12.9095C49.923 12.6524 50.896 12.6764 51.8375 12.7005C52.0521 12.7005 52.263 12.7116 52.4739 12.7134C53.286 12.7219 54.0906 12.8696 54.8528 13.15L54.5124 13.2554C53.6559 13.5181 52.7717 13.79 51.9134 14.0934C51.6134 14.2144 51.33 14.3729 51.0699 14.5651C50.97 14.6335 50.8738 14.6983 50.7776 14.7593L50.7905 14.5559L50.452 14.8241L49.0203 13.9121L48.0176 13.2721C48.3728 13.1333 48.7243 13.0186 49.0776 12.9095ZM56.4196 45.7772C56.7895 46.1268 57.3704 46.2655 58.0326 46.1657L58.6486 46.075C58.2786 46.3673 57.8902 46.6651 57.4962 46.9278C56.0163 47.9211 54.6012 48.5556 53.1953 48.8701C52.879 48.93 52.5588 48.9665 52.2371 48.9792C51.9763 48.9959 51.708 49.0144 51.4417 49.0551C49.8382 49.3296 48.1891 49.0525 46.7635 48.2689C45.6902 47.6445 44.751 46.814 43.9998 45.8253C47.5145 47.7917 51.1124 47.368 55.2412 44.5304L54.9656 44.0513L54.4106 44.3158C53.9852 44.5156 53.5616 44.7154 53.1398 44.9189C51.72 45.6115 50.1651 45.9829 48.5855 46.0066C46.8652 46.0325 45.1726 45.5404 43.406 44.5064C42.8511 44.1789 42.6384 43.5815 42.4201 42.9581L42.3479 42.7546C41.4748 40.3091 41.201 37.6694 41.5137 34.6893C42.0353 29.7207 43.9184 25.0703 47.1057 20.8823C47.4394 20.491 47.8275 20.1496 48.2581 19.8685C48.4672 19.7169 48.6817 19.5596 48.8834 19.3931L49.2108 19.1175L50.1875 18.2832L50.1116 18.5404L53.0251 17.5396H56.5731C56.7322 17.6007 56.8931 17.6599 57.054 17.7246C57.4499 17.8707 57.8606 18.0206 58.2509 18.1889C60.8684 19.3118 62.6757 21.2633 63.7763 24.1546C63.9243 24.5468 64.0501 24.95 64.1759 25.3736L63.0586 24.4173L62.5443 24.9981L62.7423 25.1831L62.8717 25.2978L62.8458 25.2867C62.1318 24.9537 61.3919 24.6115 60.6076 24.5116C58.9205 24.2933 57.1817 24.1416 55.4391 24.0603C55.269 24.0603 55.0969 24.051 54.9249 24.051C55.1709 24.0325 55.4188 24.0177 55.6648 24.014C56.857 23.9958 58.0493 24.0403 59.2368 24.1472C59.7878 24.2132 60.3335 24.317 60.8702 24.458C61.1218 24.519 61.3715 24.5782 61.6231 24.63L61.8395 24.6762L62.1244 24.0584L61.8007 23.977L61.1237 23.8105C60.6353 23.6903 60.1303 23.5663 59.6438 23.4406C58.1639 23.0391 56.6841 23.1483 55.2394 23.2556C54.9415 23.2778 54.6437 23.3 54.3477 23.3166C53.5068 23.3796 52.6624 23.3833 51.8209 23.3277C50.1241 23.177 48.414 23.3153 46.7635 23.7365C45.8774 23.9715 45.3151 24.6614 44.9266 25.2534L44.4808 25.9193L44.7028 25.8453C44.462 26.0758 44.2428 26.3278 44.0479 26.5982C43.641 27.1754 43.4005 27.8616 43.1693 28.5239C43.0731 28.8032 42.9713 29.0918 42.8603 29.3618L42.7604 29.606L43.2285 29.8262C43.2285 30.1314 43.2525 30.4384 43.2654 30.7381L43.2802 31.0507L43.1637 31.1414L43.2691 31.2783V31.2894L43.2839 31.3042C43.2839 32.3068 43.7668 33.141 44.2921 33.8939C44.7694 34.5802 45.3169 35.2258 45.846 35.851C46.1197 36.1766 46.4009 36.5114 46.6728 36.8462C47.7087 38.1411 48.8926 39.6043 50.021 41.0694C50.4472 41.6258 50.9519 42.1175 51.5194 42.5289C51.4092 42.4801 51.2961 42.4381 51.1808 42.4031L49.3902 41.8685L50.9478 42.8896C51.0643 42.9655 51.1808 43.0469 51.2974 43.1282C51.9282 43.5704 52.6422 44.0698 53.6467 43.8682C53.9944 43.7997 54.3459 43.7646 54.7159 43.7294C55.0858 43.6943 55.4558 43.6554 55.8369 43.5815L56.0015 43.55L55.9774 44.0883C55.9774 44.2122 55.9774 44.3362 55.959 44.4583C55.9299 44.6987 55.9563 44.9426 56.0361 45.1712C56.116 45.3998 56.2471 45.6071 56.4196 45.7772ZM56.6045 16.857C58.6967 17.2399 60.3948 18.0557 61.7988 19.3469C61.889 19.4278 61.9939 19.4906 62.1078 19.5319C62.1392 19.5448 62.1725 19.5578 62.2021 19.5726L63.2454 20.0905L62.548 19.1656C61.8395 18.2204 60.8832 17.6858 59.7955 17.1308C58.0103 16.2254 56.0103 15.8292 54.0148 15.9858C53.3591 16.0453 52.7075 16.1428 52.0632 16.278C52.317 16.1182 52.5809 15.9748 52.8531 15.8489C53.0851 15.771 53.3306 15.7414 53.5745 15.7619C53.7331 15.7662 53.8919 15.7613 54.0499 15.7471C56.2475 15.5289 58.262 15.8988 60.036 16.857C63.2639 18.5866 65.1914 21.3521 65.7797 25.074C65.6446 24.5579 65.4707 24.0529 65.2987 23.5608C65.2025 23.2833 65.1137 23.0058 65.0175 22.7265L64.4811 22.8671C64.494 22.9319 64.5051 22.9985 64.5162 23.0632C64.5381 23.2318 64.5765 23.3979 64.6309 23.5589C64.9687 24.4611 65.1815 25.4053 65.2636 26.3651C65.1877 26.0359 65.0971 25.7121 65.0064 25.3977C64.0205 22.0162 62.2687 19.6096 59.6549 18.0409C58.7947 17.5248 57.7736 16.9773 56.562 16.9847H56.5194C56.3678 16.9625 56.2142 16.9384 56.0625 16.9125C55.6204 16.8253 55.1719 16.7746 54.7214 16.7608C54.296 16.7735 53.8725 16.8243 53.4561 16.9125C53.2712 16.944 53.1047 16.9754 52.9289 17.0013V17.042L52.9141 16.9958L52.5849 17.0901C51.8819 17.2936 51.1771 17.4952 50.4742 17.7043C50.4106 17.7273 50.3551 17.7685 50.3147 17.8227C50.2742 17.877 50.2506 17.9419 50.2467 18.0095V18.0372L50.2134 18.1445L49.2977 18.4423C49.7974 17.9832 50.3915 17.6391 51.0384 17.4342C53.212 16.7312 54.923 16.5518 56.5879 16.857H56.6045ZM66.1496 23.1039C64.692 18.7365 61.8525 16.0357 57.7144 15.0775C56.9494 14.922 56.1716 14.8378 55.3911 14.8259C55.9567 14.66 56.5531 14.627 57.1336 14.7297C61.2291 15.5122 64.1888 17.8337 65.9462 21.6314C66.6861 23.2482 66.9895 25.0703 66.8544 27.2068C66.826 27.6545 66.7786 28.0984 66.712 28.5387C66.9319 26.7078 66.7398 24.8509 66.1496 23.1039ZM49.0388 24.1398C49.4975 24.0991 49.9637 24.0658 50.4113 24.0603C50.7541 24.0616 51.0962 24.0906 51.4343 24.1472L51.6544 24.1749C51.2141 24.1749 50.7739 24.1657 50.3447 24.1583C49.9156 24.1509 49.4772 24.1416 49.0388 24.1398ZM51.5416 41.5392C51.0588 41.1693 50.6795 40.6717 50.28 40.1371C50.1153 39.9188 49.947 39.6931 49.7713 39.4804C49.2811 38.8866 48.7946 38.2891 48.3081 37.6935C47.3573 36.5299 46.375 35.3257 45.3853 34.1603C44.6883 33.3208 44.1923 32.3331 43.9351 31.2727C43.9169 31.204 43.8826 31.1406 43.8352 31.0877V30.8343C43.8463 30.6364 43.8574 30.4384 43.8648 30.2405C43.8876 29.3202 44.1128 28.4162 44.5242 27.5927C44.9357 26.7692 45.5233 26.0463 46.2455 25.4754C46.9355 24.9019 47.7642 24.889 48.6503 24.8742C48.8963 24.8742 49.1497 24.8742 49.3995 24.8483C49.9596 24.8231 50.5208 24.8367 51.0791 24.889C51.3307 24.9056 51.5823 24.9241 51.8338 24.9352C52.0188 24.9352 52.2038 24.9537 52.3777 24.9648C52.7661 24.9907 53.1694 25.0166 53.5708 25.0055C53.8258 24.9935 54.0798 24.9651 54.3311 24.9204C54.6011 24.8727 54.8745 24.8467 55.1487 24.8427C56.6637 24.8816 57.9013 24.95 59.0426 25.0573C59.6033 25.123 60.1593 25.2237 60.7074 25.3588C60.9035 25.4032 61.0978 25.4458 61.2938 25.4865C61.6194 25.5549 61.9505 25.6363 62.2705 25.7158L62.7145 25.8231L63.743 26.0673C63.9341 26.2447 64.1133 26.4344 64.2795 26.6352C64.5107 26.9219 64.7308 27.3881 64.6846 27.6859C64.598 28.3266 64.556 28.9725 64.5588 29.619C64.5366 30.7418 64.5162 31.8018 64.0482 32.8229C63.7474 33.5221 63.5001 34.2431 63.3083 34.9798C63.2251 35.2739 63.1418 35.5662 63.0512 35.8566C62.6627 37.1015 61.8266 38.1189 61.0164 39.1012L60.8406 39.3158C59.9157 40.4534 58.6615 41.2803 57.4536 42.0905L57.054 42.355C56.7689 42.539 56.4501 42.6648 56.1162 42.725L56.0496 42.5456L56.0403 42.7305C55.6118 42.7964 55.179 42.8304 54.7455 42.8323H54.7177C53.4302 42.8767 52.5164 42.2736 51.5416 41.5392ZM65.2987 31.1969L65.4652 30.6419C65.48 30.6253 65.4966 30.6068 65.5133 30.5846C65.4097 30.9545 65.2895 31.3375 65.1433 31.7074C65.1914 31.5317 65.2414 31.3634 65.2987 31.1969ZM64.1315 35.3035C64.2707 35.0077 64.4263 34.7199 64.5976 34.4415C64.6994 34.2694 64.8011 34.0974 64.8973 33.9235C64.9503 33.8163 64.9906 33.7033 65.0175 33.5868C65.0286 33.5462 65.0397 33.5073 65.0527 33.4685C65.1193 33.3519 65.1877 33.2391 65.258 33.1244C65.3283 33.0097 65.3857 32.9154 65.443 32.8099C65.0496 33.6876 64.6023 34.5402 64.1037 35.3627L64.1315 35.3035ZM49.7028 16.8996C46.3177 19.6743 43.7279 23.3111 42.0057 27.6896C41.1409 29.9081 40.5809 32.2335 40.3409 34.6024C40.1589 36.2635 40.1782 37.9405 40.3982 39.5969C40.1089 37.5547 40.1051 35.4821 40.3871 33.4389C40.7499 30.5767 41.5831 27.794 42.8529 25.2034C43.643 23.5449 44.6019 21.9722 45.7146 20.5104C47.5256 18.1667 49.4587 16.4519 51.6248 15.268C51.9023 15.1176 52.1711 14.9795 52.4313 14.8537C51.475 15.4734 50.5616 16.1569 49.6973 16.8996H49.7028ZM48.789 11.7663L48.2803 11.315L49.849 11.6683C49.4922 11.6799 49.1364 11.7126 48.7835 11.7663H48.789ZM32.1406 11.1873C32.1748 11.2199 32.2041 11.2573 32.2275 11.2983C32.181 11.2838 32.1358 11.2652 32.0925 11.2428L31.976 11.1799C32.0303 11.1769 32.0849 11.1794 32.1388 11.1873H32.1406ZM28.354 14.271V14.4893L26.7891 15.2902C26.5393 14.3339 26.2804 13.322 25.9492 12.0086C25.9209 11.9074 25.9054 11.803 25.903 11.6979C25.9118 11.0957 25.8785 10.4936 25.8031 9.89614L25.8253 9.93314C26.334 10.8063 27.1498 11.3612 27.8749 11.8144C28.0691 11.9346 28.2615 12.0586 28.452 12.1844L28.563 12.2565C28.5519 12.3065 28.539 12.3583 28.5279 12.4119C28.4553 12.7117 28.4009 13.0156 28.3651 13.322C28.3441 13.6379 28.3404 13.9547 28.354 14.271ZM23.9699 8.1832C24.56 9.04892 24.8116 9.84805 24.7653 10.6694C24.6877 12.0512 25.0724 13.3405 25.4609 14.419C25.6413 14.9021 25.7902 15.3964 25.9067 15.8988C25.8833 15.9858 25.8343 16.0638 25.7661 16.1227C25.3443 16.4075 24.8985 16.6776 24.4712 16.9421C24.3972 16.9884 24.3232 17.0346 24.2474 17.079L24.0976 16.6277C23.8996 16.0376 23.6943 15.4253 23.5241 14.8185C23.2651 13.8936 23.0099 12.8781 22.7472 11.7127C22.3254 9.86285 21.7501 7.68005 20.6717 5.66189C20.526 5.35168 20.4257 5.02212 20.3739 4.68334C20.3424 4.52795 20.311 4.37257 20.2703 4.22088C20.0872 3.6121 19.8353 3.02622 19.5192 2.47464C19.4027 2.25637 19.2843 2.02884 19.177 1.80686C19.1178 1.68292 19.0549 1.56083 18.9809 1.42024L21.1582 0.989236C21.1212 3.75842 22.4679 5.97266 23.9699 8.1832ZM24.1549 18.0668L24.8319 18.9344L24.6211 18.2777L30.9826 21.2985L30.9382 21.4021C30.7329 21.8428 30.5616 22.2985 30.4258 22.7654C30.0817 24.0808 29.8064 25.4132 29.6008 26.7573C29.4861 27.4972 29.4288 28.2372 29.3733 28.9641C29.3437 29.3526 29.3141 29.754 29.2734 30.1462C29.1846 31.0507 28.7332 31.811 28.2578 32.6009C28.1746 32.7415 28.0913 32.8802 28.0099 33.0208C27.6633 33.6317 27.3764 34.2748 27.1535 34.9409C26.8926 35.7049 27.0739 36.4208 27.2497 37.1126C27.3052 37.3346 27.3588 37.5418 27.3976 37.7527C27.6437 39.0753 28.3725 40.1315 29.0791 41.1526C29.2993 41.4708 29.5249 41.7964 29.7321 42.1275C29.5952 42.0516 29.4584 41.9758 29.3233 41.8981C29.0335 41.7353 28.7437 41.5719 28.4539 41.4079C27.9489 41.123 27.4457 40.8382 26.9389 40.557C26.3525 40.2314 26.2212 39.9798 26.2415 39.214C26.2619 38.4482 26.2415 37.7027 26.2212 36.9665C26.2082 36.5133 26.1971 36.0416 26.1934 35.5847V35.4866C26.1728 35.103 26.2007 34.7182 26.2767 34.3416L26.3654 33.9846C26.6947 32.6749 27.0351 31.3227 27.4642 30.0278C28.0192 28.3333 27.9045 26.6223 27.0943 24.7946C26.63 23.7513 25.8234 23.0558 24.5545 22.6044C21.9888 21.6925 20.0779 20.8064 18.4057 19.752L20.385 19.2748C21.2155 19.0694 21.7964 19.0343 22.4956 19.4209C23.6055 20.035 24.7672 20.5715 25.8956 21.0857C26.482 21.3558 27.0869 21.6407 27.6733 21.92C27.9267 22.0421 28.182 22.1808 28.428 22.314C28.7665 22.499 29.118 22.684 29.4806 22.8486L29.7506 22.3658C27.4346 20.7879 24.9651 19.6077 22.786 18.6662L22.8119 18.6551C23.2633 18.4701 23.7183 18.2814 24.1642 18.0668H24.1549ZM19.571 21.3207C18.8632 21.2131 18.1486 21.1568 17.4326 21.1523C16.3338 21.1232 15.2403 20.9876 14.1677 20.7472L14.9798 20.5622C15.88 20.3514 16.7926 20.1374 17.7175 19.9203L17.8045 20.0147C18.3193 20.5421 18.9158 20.9831 19.571 21.3207ZM14.3434 22.4934C13.5779 22.4135 12.8293 22.2163 12.1236 21.9089L12.1939 21.9274C13.4892 22.2778 14.8194 22.4831 16.16 22.5397C15.5541 22.5559 14.9477 22.5405 14.3434 22.4934ZM61.144 43.6776C60.7999 44.0476 60.4448 44.4453 60.1081 44.8412C59.9046 45.0798 59.6623 45.1113 59.2831 45.1446C59.1924 45.1446 59.0981 45.1594 59.0149 45.1723C58.8687 45.1908 58.7226 45.2148 58.5746 45.237C58.1923 45.3103 57.804 45.3475 57.4148 45.348C56.9449 45.3314 56.7192 45.0965 56.6748 44.5582C56.6563 44.3092 56.606 44.0636 56.525 43.8275L56.39 43.4575C56.7841 43.3733 57.16 43.2192 57.4999 43.0025C58.5247 42.2958 59.5199 41.5226 60.4836 40.7605L61.0441 40.3258C61.1831 40.2087 61.3073 40.0751 61.4141 39.928C61.4776 39.841 61.5475 39.7588 61.6231 39.682C61.8414 39.4674 62.0745 39.2547 62.2983 39.0475C62.7294 38.6656 63.1406 38.2618 63.5303 37.8377C64.2258 37.059 64.8955 36.2358 65.541 35.433C65.7519 35.1721 65.9628 34.9113 66.1755 34.6542C66.2424 34.5622 66.2821 34.4532 66.2902 34.3397C66.2902 34.3175 66.2902 34.2972 66.2995 34.2768L66.5658 33.1947L65.8777 33.9661C65.9221 33.8773 65.9665 33.7811 66.009 33.6978C67.1189 31.3819 67.6887 29.5228 67.8478 27.673C68.1548 24.0621 67.365 21.0913 65.4319 18.5903C64.026 16.7701 62.1892 15.3864 59.8306 14.3709C60.5186 14.4456 61.1924 14.6175 61.8321 14.8814C64.1888 15.8063 65.8648 17.5581 66.958 20.2459C67.8829 22.5286 68.2307 25.1054 68.018 28.1206L68.0013 28.3407C67.9236 29.4506 67.8441 30.6142 67.2836 31.6168C67.0893 31.9627 66.9136 32.3179 66.7286 32.6619C66.6491 32.8192 66.5677 32.9764 66.4863 33.1336L66.9543 33.4278L66.9932 33.3778C66.8082 33.992 66.6102 34.6191 66.3772 35.2165C65.308 37.9413 64.039 40.1981 62.4925 42.1164C62.0745 42.6584 61.5991 43.1763 61.1477 43.6776H61.144ZM3.03176 18.4978C3.71804 19.2378 4.42837 20.0184 5.1572 20.7509C5.54937 21.1449 5.96928 21.5204 6.37439 21.8849C6.84054 22.3011 7.3215 22.7321 7.75436 23.1797C8.3241 23.7754 8.86425 24.4321 9.37665 25.0666L9.89461 25.6973L9.66153 25.8712C9.29156 26.145 8.9216 26.4262 8.55163 26.711C7.68961 27.377 7.53053 27.919 7.90049 28.9438C7.94674 29.0714 8.00039 29.1954 8.05403 29.3138C8.12696 29.4714 8.18877 29.634 8.23901 29.8003C8.29681 30.0381 8.34127 30.2789 8.3722 30.5217C8.3722 30.542 8.3722 30.5642 8.3722 30.5846H8.28156C8.0571 30.5754 7.83407 30.5445 7.61562 30.4921C7.14392 30.3552 6.66481 30.2017 6.20236 30.0518C5.67516 29.8835 5.13131 29.7078 4.58746 29.5561C3.84753 29.347 3.40727 28.8291 2.93926 28.0596C2.36212 27.1069 2.09574 25.9841 2.10129 24.5283C2.10129 23.8253 2.10129 23.1224 2.10129 22.4195C2.10129 21.2004 2.08649 19.9407 2.11424 18.7032C2.12778 18.3423 2.16486 17.9826 2.22523 17.6266L2.24558 17.6506C2.51072 17.9268 2.77278 18.2093 3.03176 18.4978ZM2.43981 16.3724L2.5175 15.8359L2.5767 15.4382L2.91152 15.8248C3.0484 15.9839 3.18529 16.1448 3.32588 16.3002L3.85678 16.9051C4.32663 17.4379 4.81129 17.991 5.32184 18.5052C5.55749 18.7213 5.82058 18.9054 6.10431 19.0528C6.2338 19.1286 6.35774 19.2008 6.47428 19.2803C6.96263 19.6096 7.44729 19.9462 7.93009 20.2829C8.99929 21.0228 10.1055 21.7942 11.245 22.4731C12.6009 23.2833 14.2047 23.62 16.0249 23.4702C16.3061 23.4461 16.5799 23.4147 16.8647 23.3814C17.4163 23.3037 17.9726 23.266 18.5296 23.2685C19.3972 23.2981 20.2666 23.3906 21.1082 23.4813L22.1534 23.5885L22.5807 23.6274L22.442 23.2223C22.3717 23.0133 22.0461 22.9726 22.0424 22.9726C21.6724 22.9319 21.2914 22.8875 20.9177 22.8449C19.9503 22.7321 18.9495 22.6174 17.958 22.5545C17.699 22.5397 17.4382 22.5323 17.1774 22.5286C17.3383 22.5286 17.4992 22.5119 17.6583 22.499C18.6158 22.4558 19.5752 22.4967 20.5255 22.6211C20.927 22.6618 21.3432 22.7043 21.7538 22.7321C22.9303 22.8153 23.9533 23.3666 24.9855 23.9733C25.2517 24.1385 25.4634 24.3785 25.5941 24.6633C26.2767 26.2338 26.1786 27.6582 25.2944 29.0104L25.0687 28.9401C24.7598 28.8439 24.4416 28.744 24.1216 28.6534C20.8789 27.7285 17.5714 27.1014 14.7652 26.6056C12.9418 26.3022 11.2948 25.3358 10.1406 23.8919C9.39739 22.9348 8.5345 22.0769 7.57308 21.3392C5.79354 20.0276 4.21749 18.8104 2.94851 17.2029C2.871 17.1126 2.76773 17.048 2.65254 17.018C2.6147 17.0061 2.57763 16.9919 2.54155 16.9754L2.36582 16.8959C2.38432 16.7275 2.41391 16.55 2.43981 16.3724Z" fill="#0E8499"/>
<path d="M15.7937 10.3585L15.7567 9.86462L15.6698 9.93491L15.0908 7.66333L14.3508 7.89271L15.1981 10.3289L15.1833 10.34L15.248 10.525C15.2464 10.6132 15.2582 10.7012 15.2831 10.7858L15.6198 11.8088C16.0508 13.1037 16.4948 14.4614 16.9498 15.7822C17.0997 16.2132 17.2828 16.635 17.4622 17.0438C17.5436 17.2288 17.625 17.4138 17.7027 17.5987L17.8063 17.8466L18.4278 17.608L18.3594 17.3638L18.3261 17.2417C18.3011 17.1391 18.2708 17.0379 18.2355 16.9384L17.0627 13.7936L16.3708 11.9438C16.2352 11.585 16.102 11.2261 15.9713 10.8672L15.8418 10.5158L15.7937 10.3585Z" fill="#0E8499"/>
<path d="M58.2787 40.6753C60.1285 39.5932 61.3198 38.204 61.9265 36.4207C62.1325 35.8152 62.336 35.2079 62.537 34.5987C62.8144 33.7607 63.103 32.895 63.399 32.0496C64.015 30.2849 63.8762 28.7625 62.9717 27.3917C62.574 26.7905 61.8618 26.1468 61.1681 26.3133C59.1129 26.8072 57.72 27.8098 56.9135 29.3747L56.9043 29.3914C56.895 29.4099 56.8802 29.4395 56.8636 29.4691C56.1532 29.4099 55.861 29.9075 55.6797 30.3441L54.8842 30.098L54.8602 30.1739C54.7066 30.1016 54.5443 30.0493 54.3774 30.0185L54.5309 29.9759L54.3885 29.3285L53.7374 29.482C53.7577 29.175 53.7799 28.8568 53.7817 28.5423C53.7788 28.4623 53.7579 28.3839 53.7207 28.3129L53.828 27.8042L53.5394 28.0799C53.5033 28.0455 53.46 28.0197 53.4126 28.0044C53.3652 27.989 53.315 27.9845 53.2657 27.9911C53.1491 28.0068 53.0379 28.05 52.9414 28.1173C52.8449 28.1845 52.7658 28.2738 52.7107 28.3777C52.5921 28.6874 52.5083 29.0095 52.461 29.3378C52.3962 29.7688 52.2889 30.0777 51.9541 30.3385C51.7518 30.5109 51.5864 30.7223 51.4676 30.96L51.3326 30.8398L51.2623 31.2357L51.1753 31.3134L51.2123 31.3855L51.1753 31.4484C51.0653 31.6126 50.9817 31.793 50.9275 31.983C50.8427 32.4602 50.6135 32.8999 50.2708 33.2427C49.994 33.5302 49.7496 33.8472 49.542 34.188C49.4365 34.3452 49.3274 34.5099 49.2053 34.6782L48.9204 35.0722L49.4069 35.1166C50.1598 35.185 50.5557 34.8206 50.8461 34.5617L51.0311 34.8317C51.3289 35.2572 51.6101 35.6623 51.8857 36.0748L51.7099 36.3874C51.6487 36.5029 51.598 36.6236 51.5583 36.7481C51.5361 36.8073 51.5176 36.8665 51.4917 36.922C50.7998 38.5184 51.525 40.7327 53.0437 41.6631C53.4987 41.9425 54.0629 42.2181 54.6808 42.2181C54.9473 42.2184 55.211 42.1642 55.4558 42.059C56.4253 41.6583 57.3681 41.1961 58.2787 40.6753ZM54.7751 30.7399L55.4207 31.0285L55.3689 31.2005C54.3145 30.6456 53.1621 31.1284 52.4332 31.9275C52.2866 32.0888 52.1736 32.2777 52.1008 32.4832C52.0281 32.6887 51.9971 32.9067 52.0096 33.1243V33.1965L51.8857 33.0818L52.0355 33.3741C52.1052 33.725 52.2711 34.0497 52.5146 34.3119L52.8753 35.0149L52.4721 35.6216L52.4425 35.5791C52.2427 35.3016 52.0559 35.0408 51.8413 34.7873C51.7532 34.6835 51.6763 34.5706 51.6119 34.4507L51.7562 33.2612C51.8672 32.3474 52.1465 31.7999 52.7181 31.3726C53.471 30.8139 54.0851 30.6252 54.7751 30.7399ZM54.1499 32.6896L54.2794 32.673C54.3864 32.6545 54.4945 32.6434 54.6031 32.6397C54.6889 32.6311 54.7752 32.6516 54.848 32.6979C54.9208 32.7442 54.9759 32.8136 55.0045 32.895L53.8298 33.6663C53.8298 33.5332 53.8188 33.3981 53.8095 33.2649C53.7707 32.7414 54.0555 32.7007 54.1499 32.6896ZM53.3507 32.1347C53.9519 31.6944 54.6697 31.6371 55.1247 31.9756C54.5328 31.7092 53.9075 31.7536 53.4728 32.1273C52.9493 32.5805 52.8864 33.461 53.3359 34.053L53.4081 34.1473L53.3248 34.4155L53.1399 34.2416L53.0566 33.9864C53.0141 33.8624 52.9734 33.7385 52.929 33.6164C52.6478 32.8413 52.72 32.6064 53.3507 32.1384V32.1347ZM53.6671 35.6494C54.2058 35.0503 54.7963 34.5 55.4318 34.0049L55.5872 33.8772C56.6249 33.0171 57.0115 31.8424 57.3834 30.6974C57.7764 29.5118 58.5994 28.5165 59.6901 27.9078L59.7345 27.8819C59.7622 27.8634 59.7918 27.8468 59.8214 27.8301C59.9648 27.7522 60.1038 27.6663 60.2376 27.573C60.467 27.4176 60.726 27.24 60.8777 27.2641C61.7841 27.3936 62.3113 28.0836 62.5925 28.6404C62.7796 28.9969 62.8934 29.3874 62.927 29.7887C62.9607 30.19 62.9136 30.5939 62.7885 30.9767L62.6924 31.2819C62.3834 32.2734 62.0634 33.2982 61.5825 34.2046C61.329 34.6819 60.7963 35.0667 60.2876 35.4366L60.1026 35.5661C58.1825 36.9646 56.5657 38.0985 55.0137 39.1363C54.638 39.3668 54.2394 39.5577 53.8243 39.706L53.5246 39.8263L53.4765 39.6413L53.1824 39.7652C53.0659 39.8152 52.9974 39.8189 52.9697 39.8059C52.8994 39.7708 52.8402 39.5395 52.8198 39.4637C52.4591 38.0486 52.7421 36.7629 53.6671 35.6605V35.6494Z" fill="#0E8499"/>
<path d="M43.6484 35.0021L46.2345 37.6307L46.7358 37.1405L44.1516 34.51L43.6484 35.0021Z" fill="#0E8499"/>
<path d="M38.8017 20.294L37.2886 19.7927L41.7041 23.2371L42.1758 22.7524L41.9594 22.5675C41.7929 22.4195 41.6283 22.2659 41.4636 22.1124C40.696 21.3947 39.8968 20.6547 38.8017 20.294Z" fill="#0E8499"/>
<path d="M33.7037 20.5475C33.872 21.232 34.6286 22.1439 35.2779 22.4602C35.4192 22.5342 35.5754 22.5753 35.7348 22.5805C35.8272 22.5806 35.9187 22.561 36.003 22.5231L36.373 22.3511L33.4817 19.6411L33.7037 20.5475Z" fill="#0E8499"/>
<path d="M38.2283 24.5579L40.6386 26.7111L41.1528 26.1728L38.7166 24.0085L38.2283 24.5579Z" fill="#0E8499"/>
<path d="M41.4526 19.9482L41.9095 19.4302L39.8617 17.5471L39.3789 18.0928L41.4526 19.9482Z" fill="#0E8499"/>
<path d="M34.7839 17.7468L36.6282 19.2618L37.1055 18.668L35.2501 17.1697L34.7839 17.7468Z" fill="#0E8499"/>
<path d="M19.5414 30.6124C19.0151 30.1688 18.3585 29.909 17.6712 29.8725C16.9313 29.8059 16.171 29.719 15.4385 29.6357C14.8835 29.5728 14.3138 29.5081 13.7496 29.4508C13.2335 29.399 12.7081 29.3638 12.1994 29.3305L11.502 29.2824L11.232 29.2639L11.158 30.0038L11.4262 30.0371C11.9127 30.0982 12.401 30.1629 12.8875 30.2221C14.0085 30.3701 15.1665 30.5236 16.3116 30.6365L16.5705 30.6624C17.6527 30.766 18.6738 30.8622 19.5303 31.6354C19.9872 32.0516 20.581 32.2976 21.1544 32.5344L21.3708 32.625C21.7702 32.784 22.1792 32.9174 22.5954 33.0246C22.7804 33.0746 22.9469 33.1227 23.1208 33.1763L23.3835 33.2558L23.5684 32.6768L23.3428 32.5474C23.2946 32.5148 23.2423 32.4887 23.1874 32.4697C22.0886 32.1219 20.6864 31.5965 19.5414 30.6124Z" fill="#161616"/>
<path d="M48.8908 15.908L46.8264 14.1821L46.3677 14.7204L48.4358 16.4574L48.8908 15.908Z" fill="#161616"/>
</svg>
