<svg width="21" height="20" viewBox="0 0 21 20" fill="none" xmlns="http://www.w3.org/2000/svg">
<path d="M12.7265 6.56633L12.7265 6.56628C12.4424 6.27557 12.1035 6.04393 11.7294 5.88469C11.3554 5.72545 10.9535 5.64176 10.547 5.63843C10.1405 5.6351 9.73729 5.71219 9.36067 5.86528C8.98457 6.01815 8.64236 6.2438 8.35368 6.52927C7.77511 7.11024 7.45025 7.89679 7.45025 8.71675C7.45025 9.53725 7.77553 10.3243 8.35479 10.9054L12.7265 6.56633ZM12.7265 6.56633L12.7327 6.57245M12.7265 6.56633L12.7327 6.57245M12.7327 6.57245C13.0212 6.85744 13.2496 7.19737 13.4044 7.57215C13.5591 7.94674 13.6372 8.34854 13.6341 8.75381C13.6276 9.36251 13.4416 9.95576 13.0993 10.4592C12.757 10.9628 12.2735 11.354 11.7096 11.5839C11.1457 11.8137 10.5265 11.8719 9.9296 11.7512C9.33286 11.6305 8.78504 11.3362 8.35485 10.9054L12.7327 6.57245ZM5.85464 13.3802L5.85431 13.3799C4.62199 12.1476 3.92969 10.4762 3.92969 8.73342C3.92969 6.99067 4.62199 5.31929 5.85431 4.08697C7.08662 2.85466 8.758 2.16235 10.5008 2.16235C12.2435 2.16235 13.9149 2.85466 15.1472 4.08697C16.374 5.31377 17.0632 6.97765 17.0632 8.71259C17.0632 10.4475 16.374 12.1114 15.1472 13.3382L15.1465 13.3389L10.7215 17.7805L10.7208 17.7813C10.6898 17.8126 10.6529 17.8374 10.6123 17.8543C10.5717 17.8712 10.5281 17.8799 10.4841 17.8799C10.4401 17.8799 10.3965 17.8712 10.3559 17.8543C10.3153 17.8374 10.2784 17.8126 10.2474 17.7813L10.2463 17.7802L5.85464 13.3802ZM10.1464 16.6779L10.5008 17.0337L10.8551 16.6779L14.6628 12.8535C14.6629 12.8534 14.663 12.8533 14.663 12.8533C15.4852 12.0303 16.0449 10.982 16.2714 9.84104C16.498 8.69993 16.3812 7.51727 15.9357 6.44254C15.4903 5.36782 14.7362 4.44928 13.7688 3.80305C12.8014 3.15682 11.6641 2.81191 10.5008 2.81191C9.33737 2.81191 8.2001 3.15682 7.23271 3.80305C6.26532 4.44928 5.51123 5.36782 5.06578 6.44254C4.62033 7.51727 4.5035 8.69993 4.73007 9.84104C4.95663 10.982 5.51635 12.0303 6.33848 12.8533C6.33856 12.8533 6.33863 12.8534 6.33871 12.8535L10.1464 16.6779ZM12.2653 10.426L13.1034 9.57509H12.7944C12.9009 9.30794 12.9604 9.02157 12.9673 8.72854L12.9674 8.72854L12.9674 8.71783C12.9686 8.15192 12.7732 7.60316 12.4146 7.16536C12.0561 6.72757 11.5565 6.42793 11.0014 6.31768C10.4464 6.20743 9.87024 6.29341 9.37155 6.56093C8.87286 6.82844 8.48258 7.26087 8.26743 7.78429C8.05228 8.30771 8.02563 8.88962 8.19203 9.43051C8.35843 9.97141 8.70755 10.4377 9.1797 10.7497C9.65185 11.0617 10.2177 11.2 10.7805 11.1409C11.3434 11.0819 11.8682 10.8291 12.2653 10.426Z" fill="#2C2C2C" stroke="#2C2C2C"/>
</svg>
