<svg width="25" height="24" viewBox="0 0 25 24" fill="none" xmlns="http://www.w3.org/2000/svg">
<path d="M19.94 13C19.72 13 19.49 12.93 19.27 12.88C18.8245 12.7818 18.3867 12.6515 17.96 12.49C17.4961 12.3212 16.9862 12.33 16.5283 12.5146C16.0705 12.6992 15.6971 13.0466 15.48 13.49L15.26 13.94C14.286 13.3982 13.391 12.7252 12.6 11.94C11.8148 11.149 11.1418 10.254 10.6 9.27999L11.02 8.99999C11.4634 8.78291 11.8108 8.40952 11.9954 7.95168C12.18 7.49384 12.1888 6.9839 12.02 6.51999C11.8612 6.09241 11.7309 5.65479 11.63 5.20999C11.58 4.98999 11.54 4.75999 11.51 4.52999C11.3886 3.82561 11.0196 3.18773 10.4696 2.73123C9.91963 2.27473 9.22471 2.0296 8.51001 2.03999H5.51001C5.07904 2.03594 4.65226 2.1248 4.25872 2.30052C3.86518 2.47624 3.51412 2.73469 3.22944 3.05827C2.94476 3.38186 2.73314 3.76298 2.609 4.1757C2.48485 4.58842 2.45109 5.02305 2.51001 5.44999C3.04275 9.63937 4.95604 13.5319 7.94766 16.5126C10.9393 19.4934 14.8387 21.3925 19.03 21.91H19.41C20.1474 21.9111 20.8594 21.6405 21.41 21.15C21.7264 20.867 21.9791 20.5202 22.1515 20.1323C22.3239 19.7444 22.412 19.3244 22.41 18.9V15.9C22.3978 15.2054 22.1448 14.5365 21.6943 14.0077C21.2439 13.4788 20.6238 13.1226 19.94 13ZM20.44 19C20.4398 19.142 20.4094 19.2823 20.3508 19.4116C20.2922 19.5409 20.2067 19.6563 20.1 19.75C19.9883 19.8465 19.8576 19.9185 19.7164 19.9616C19.5752 20.0046 19.4266 20.0177 19.28 20C15.5349 19.5198 12.0562 17.8065 9.39273 15.1303C6.72921 12.4541 5.03242 8.96733 4.57001 5.21999C4.55409 5.07351 4.56804 4.92532 4.61101 4.78438C4.65398 4.64344 4.72508 4.51268 4.82001 4.39999C4.91372 4.29332 5.02907 4.20783 5.15839 4.14921C5.28771 4.09058 5.42802 4.06017 5.57001 4.05999H8.57001C8.80256 4.05482 9.02963 4.13087 9.21215 4.27506C9.39467 4.41925 9.52122 4.62256 9.57001 4.84999C9.61001 5.12332 9.66001 5.39332 9.72001 5.65999C9.83553 6.18713 9.98927 6.70517 10.18 7.20999L8.78001 7.85999C8.66031 7.91491 8.55263 7.99294 8.46317 8.08959C8.3737 8.18623 8.30421 8.2996 8.25868 8.42318C8.21315 8.54677 8.19248 8.67812 8.19786 8.80971C8.20323 8.9413 8.23455 9.07054 8.29001 9.18999C9.72921 12.2727 12.2073 14.7508 15.29 16.19C15.5335 16.29 15.8065 16.29 16.05 16.19C16.1747 16.1454 16.2893 16.0764 16.3872 15.9872C16.485 15.8979 16.5642 15.7901 16.62 15.67L17.24 14.27C17.757 14.4549 18.2846 14.6085 18.82 14.73C19.0867 14.79 19.3567 14.84 19.63 14.88C19.8574 14.9288 20.0607 15.0553 20.2049 15.2378C20.3491 15.4204 20.4252 15.6474 20.42 15.88L20.44 19Z" fill="#2C2C2C"/>
</svg>
