<svg width="146" height="64" viewBox="0 0 146 64" fill="none" xmlns="http://www.w3.org/2000/svg">
<rect width="143" height="30" transform="translate(7.25757) rotate(14)" fill="#FFC340"/>
<path d="M6.00827 26.5876L8.58846 18.3058L10.8201 18.8623L9.21025 27.386L6.00827 26.5876ZM10.1204 16.9564C9.60294 16.8273 9.21956 16.5462 8.97028 16.1131C8.73394 15.6831 8.67706 15.2223 8.79963 14.7307C8.92866 14.2132 9.19682 13.8266 9.60412 13.5709C10.0244 13.3184 10.4932 13.2567 11.0107 13.3857C11.5153 13.5115 11.8873 13.7829 12.1269 14.1999C12.3794 14.6201 12.4411 15.089 12.3121 15.6065C12.1895 16.0981 11.9165 16.4766 11.4931 16.7421C11.0825 17.0107 10.625 17.0822 10.1204 16.9564ZM16.2798 19.6257L16.8701 17.2582L19.8198 17.9937C20.195 18.0872 20.5572 18.0951 20.9064 18.0172C21.2556 17.9394 21.5578 17.7743 21.8131 17.5219C22.0684 17.2695 22.2493 16.9298 22.3558 16.5029C22.459 16.0889 22.4571 15.7105 22.3502 15.3678C22.2433 15.0251 22.0539 14.7374 21.7821 14.5048C21.5103 14.2721 21.1869 14.109 20.8117 14.0155L17.862 13.28L18.4523 10.9125L21.8483 11.7592C22.7151 11.9753 23.4543 12.3451 24.0658 12.8686C24.6773 13.3921 25.1013 14.0338 25.3379 14.7936C25.5906 15.5436 25.6057 16.365 25.3831 17.2577C25.1605 18.1504 24.76 18.875 24.1815 19.4316C23.6192 19.9784 22.9435 20.3459 22.1546 20.534C21.3689 20.7091 20.5426 20.6886 19.6758 20.4725L16.2798 19.6257ZM12.7076 24.0325L16.1235 10.3319L19.1703 11.0915L15.7543 24.7921L12.7076 24.0325ZM28.4972 21.9711L29.0585 19.72L31.9499 20.4409C32.558 20.5925 33.0624 20.5534 33.4633 20.3235C33.8771 20.0969 34.1501 19.7184 34.2823 19.188C34.4049 18.6963 34.3448 18.2485 34.102 17.8444C33.8592 17.4403 33.4338 17.1625 32.8258 17.0109L29.9149 16.2851L30.5052 13.9176L33.7653 14.7305C34.671 14.9563 35.4231 15.3293 36.0216 15.8496C36.6234 16.3569 37.0426 16.963 37.2791 17.6678C37.5156 18.3726 37.5355 19.1196 37.3387 19.9088C37.1388 20.7109 36.7689 21.3676 36.2292 21.8789C35.6927 22.3772 35.0332 22.7075 34.2507 22.8697C33.4682 23.0318 32.6048 22.9952 31.6604 22.7597L28.4972 21.9711ZM24.7605 27.0376L28.1764 13.337L31.2232 14.0966L27.8072 27.7972L24.7605 27.0376ZM32.2124 28.8955L29.414 21.9317L32.3971 21.8716L35.8219 29.7955L32.2124 28.8955ZM43.5604 31.9723C42.5255 31.7142 41.6133 31.2944 40.8238 30.7128C40.0474 30.1345 39.4099 29.4396 38.9113 28.6282C38.4128 27.8169 38.0889 26.9391 37.9395 25.9949C37.7934 25.0378 37.8445 24.0611 38.0929 23.065C38.3445 22.0559 38.7579 21.1695 39.333 20.406C39.9081 19.6425 40.5982 19.0244 41.4031 18.5517C42.2112 18.0661 43.0923 17.7567 44.0461 17.6236C45.0162 17.4807 46.0187 17.5382 47.0537 17.7963C48.0757 18.0511 48.975 18.4677 49.7515 19.0461C50.5441 19.6147 51.1832 20.3031 51.6688 21.1113C52.1706 21.9097 52.4945 22.7875 52.6406 23.7446C52.79 24.6888 52.7389 25.6654 52.4873 26.6745C52.2389 27.6707 51.8255 28.557 51.2472 29.3335C50.672 30.097 49.9804 30.7216 49.1722 31.2072C48.3673 31.6798 47.4798 31.9876 46.5098 32.1305C45.5527 32.2766 44.5696 32.2239 43.5604 31.9723ZM44.2135 29.1876C45.0286 29.3908 45.7853 29.3871 46.4837 29.1764C47.195 28.969 47.7994 28.5838 48.2971 28.0208C48.798 27.4449 49.1549 26.73 49.3677 25.8761C49.529 25.2292 49.5771 24.6229 49.5121 24.057C49.4503 23.4782 49.2851 22.956 49.0163 22.4905C48.7509 22.0121 48.3901 21.6129 47.9339 21.2931C47.4939 20.9635 46.9698 20.7229 46.3618 20.5713C45.5467 20.3681 44.7836 20.3702 44.0723 20.5776C43.3771 20.7753 42.7807 21.1557 42.2831 21.7187C41.7886 22.2687 41.4334 22.9772 41.2173 23.844C41.056 24.4908 41.0062 25.1037 41.068 25.6825C41.1299 26.2613 41.287 26.7883 41.5396 27.2635C41.8083 27.729 42.1691 28.1282 42.622 28.461C43.075 28.7937 43.6055 29.0359 44.2135 29.1876ZM52.7134 34.007L56.1293 20.3064L58.3028 20.8483L61.6026 30.5962L60.4964 30.3204L67.9669 23.2579L70.1598 23.8046L66.7438 37.5052L63.6971 36.7456L65.8309 28.1876L66.3404 28.4589L61.4634 33.0556L59.4452 32.5524L57.3166 26.209L57.8744 26.2038L55.7407 34.7618L52.7134 34.007ZM75.8531 40.0237C74.8181 39.7657 73.9059 39.3459 73.1165 38.7643C72.34 38.1859 71.7025 37.4911 71.204 36.6797C70.7055 35.8683 70.3815 34.9905 70.2322 34.0464C70.0861 33.0893 70.1372 32.1126 70.3856 31.1164C70.6372 30.1073 71.0505 29.221 71.6257 28.4575C72.2008 27.6939 72.8908 27.0758 73.6957 26.6032C74.5039 26.1176 75.3849 25.8082 76.3388 25.675C77.3088 25.5321 78.3114 25.5897 79.3463 25.8477C80.3684 26.1026 81.2677 26.5192 82.0441 27.0975C82.8368 27.6662 83.4759 28.3546 83.9615 29.1627C84.4632 29.9611 84.7872 30.8389 84.9333 31.796C85.0826 32.7402 85.0315 33.7169 84.7799 34.726C84.5315 35.7221 84.1182 36.6085 83.5398 37.3849C82.9647 38.1485 82.273 38.773 81.4649 39.2586C80.66 39.7313 79.7725 40.039 78.8024 40.1819C77.8453 40.3281 76.8622 40.2753 75.8531 40.0237ZM76.5062 37.239C77.3212 37.4422 78.0779 37.4385 78.7763 37.2279C79.4876 37.0205 80.0921 36.6353 80.5897 36.0723C81.0906 35.4963 81.4475 34.7814 81.6604 33.9276C81.8217 33.2807 81.8698 32.6743 81.8048 32.1085C81.743 31.5296 81.5777 31.0075 81.309 30.542C81.0435 30.0636 80.6827 29.6644 80.2265 29.3446C79.7865 29.015 79.2625 28.7744 78.6545 28.6228C77.8394 28.4196 77.0762 28.4217 76.3649 28.6291C75.6698 28.8268 75.0734 29.2071 74.5757 29.7701C74.0813 30.3202 73.726 31.0286 73.5099 31.8954C73.3486 32.5423 73.2989 33.1551 73.3607 33.7339C73.4225 34.3128 73.5797 34.8398 73.8322 35.315C74.1009 35.7805 74.4617 36.1796 74.9147 36.5124C75.3676 36.8452 75.8981 37.0874 76.5062 37.239ZM91.6773 43.9691C90.6423 43.7111 89.7301 43.2913 88.9407 42.7097C88.1642 42.1313 87.5267 41.4365 87.0282 40.6251C86.5296 39.8137 86.2057 38.9359 86.0564 37.9918C85.9102 37.0347 85.9613 36.058 86.2097 35.0618C86.4613 34.0527 86.8747 33.1664 87.4498 32.4029C88.025 31.6393 88.715 31.0212 89.5199 30.5486C90.328 30.063 91.2091 29.7536 92.163 29.6204C93.133 29.4775 94.1355 29.5351 95.1705 29.7932C96.1926 30.048 97.0918 30.4646 97.8683 31.0429C98.6609 31.6116 99.3 32.3 99.7856 33.1081C100.287 33.9066 100.611 34.7843 100.757 35.7414C100.907 36.6856 100.856 37.6623 100.604 38.6714C100.356 39.6675 99.9423 40.5539 99.364 41.3303C98.7888 42.0939 98.0972 42.7185 97.289 43.204C96.4841 43.6767 95.5966 43.9845 94.6266 44.1274C93.6695 44.2735 92.6864 44.2207 91.6773 43.9691ZM92.3303 41.1844C93.1454 41.3876 93.9021 41.3839 94.6005 41.1733C95.3118 40.9659 95.9163 40.5807 96.4139 40.0177C96.9148 39.4417 97.2717 38.7268 97.4846 37.873C97.6458 37.2261 97.694 36.6197 97.6289 36.0539C97.5671 35.4751 97.4019 34.9529 97.1332 34.4874C96.8677 34.009 96.5069 33.6098 96.0507 33.29C95.6107 32.9604 95.0867 32.7198 94.4786 32.5682C93.6636 32.365 92.9004 32.3671 92.1891 32.5745C91.4939 32.7722 90.8975 33.1525 90.3999 33.7155C89.9055 34.2656 89.5502 34.974 89.3341 35.8408C89.1728 36.4877 89.1231 37.1005 89.1849 37.6793C89.2467 38.2582 89.4038 38.7852 89.6564 39.2604C89.9251 39.7259 90.2859 40.125 90.7388 40.4578C91.1918 40.7906 91.7223 41.0328 92.3303 41.1844ZM107.501 47.9146C106.466 47.6565 105.554 47.2367 104.765 46.6551C103.988 46.0767 103.351 45.3819 102.852 44.5705C102.354 43.7591 102.03 42.8814 101.881 41.9372C101.734 40.9801 101.786 40.0034 102.034 39.0072C102.285 37.9981 102.699 37.1118 103.274 36.3483C103.849 35.5847 104.539 34.9666 105.344 34.494C106.152 34.0084 107.033 33.699 107.987 33.5658C108.957 33.4229 109.96 33.4805 110.995 33.7386C112.017 33.9934 112.916 34.41 113.692 34.9883C114.485 35.557 115.124 36.2454 115.61 37.0535C116.112 37.852 116.435 38.7297 116.582 39.6868C116.731 40.631 116.68 41.6077 116.428 42.6168C116.18 43.6129 115.766 44.4993 115.188 45.2758C114.613 46.0393 113.921 46.6639 113.113 47.1494C112.308 47.6221 111.421 47.9299 110.451 48.0728C109.494 48.2189 108.511 48.1662 107.501 47.9146ZM108.155 45.1298C108.97 45.333 109.726 45.3293 110.425 45.1187C111.136 44.9113 111.74 44.5261 112.238 43.9631C112.739 43.3871 113.096 42.6722 113.309 41.8184C113.47 41.1715 113.518 40.5651 113.453 39.9993C113.391 39.4205 113.226 38.8983 112.957 38.4328C112.692 37.9544 112.331 37.5552 111.875 37.2354C111.435 36.9058 110.911 36.6652 110.303 36.5136C109.488 36.3104 108.725 36.3125 108.013 36.5199C107.318 36.7176 106.722 37.098 106.224 37.661C105.73 38.211 105.374 38.9194 105.158 39.7862C104.997 40.4331 104.947 41.0459 105.009 41.6248C105.071 42.2036 105.228 42.7306 105.481 43.2058C105.749 43.6713 106.11 44.0704 106.563 44.4032C107.016 44.736 107.546 44.9782 108.155 45.1298ZM123.326 51.86C122.291 51.6019 121.378 51.1821 120.589 50.6005C119.812 50.0221 119.175 49.3273 118.676 48.5159C118.178 47.7045 117.854 46.8268 117.705 45.8826C117.559 44.9255 117.61 43.9488 117.858 42.9527C118.11 41.9435 118.523 41.0572 119.098 40.2937C119.673 39.5301 120.363 38.912 121.168 38.4394C121.976 37.9538 122.857 37.6444 123.811 37.5112C124.781 37.3683 125.784 37.4259 126.819 37.684C127.841 37.9388 128.74 38.3554 129.517 38.9337C130.309 39.5024 130.948 40.1908 131.434 40.9989C131.936 41.7974 132.26 42.6751 132.406 43.6323C132.555 44.5764 132.504 45.5531 132.252 46.5622C132.004 47.5584 131.591 48.4447 131.012 49.2212C130.437 49.9847 129.746 50.6093 128.937 51.0948C128.132 51.5675 127.245 51.8753 126.275 52.0182C125.318 52.1643 124.335 52.1116 123.326 51.86ZM123.979 49.0752C124.794 49.2784 125.55 49.2747 126.249 49.0641C126.96 48.8567 127.565 48.4715 128.062 47.9085C128.563 47.3325 128.92 46.6176 129.133 45.7638C129.294 45.1169 129.342 44.5106 129.277 43.9447C129.215 43.3659 129.05 42.8437 128.781 42.3782C128.516 41.8998 128.155 41.5006 127.699 41.1808C127.259 40.8512 126.735 40.6106 126.127 40.459C125.312 40.2558 124.549 40.2579 123.837 40.4653C123.142 40.663 122.546 41.0434 122.048 41.6064C121.554 42.1564 121.199 42.8648 120.982 43.7316C120.821 44.3785 120.771 44.9913 120.833 45.5702C120.895 46.149 121.052 46.676 121.305 47.1512C121.573 47.6167 121.934 48.0158 122.387 48.3486C122.84 48.6814 123.371 48.9236 123.979 49.0752ZM134.037 48.9654L135.817 39.7624L139.019 40.5608L136.269 49.5218L134.037 48.9654ZM133.842 54.4614C133.337 54.3356 132.96 54.0561 132.711 53.6229C132.462 53.1897 132.399 52.7273 132.521 52.2357C132.65 51.7182 132.925 51.3332 133.345 51.0807C133.768 50.8153 134.232 50.7455 134.737 50.8713C135.255 51.0003 135.631 51.2798 135.868 51.7097C136.12 52.13 136.182 52.5988 136.053 53.1163C135.93 53.6079 135.657 53.9865 135.234 54.2519C134.823 54.5206 134.359 54.5904 133.842 54.4614Z" fill="#A74B3B"/>
</svg>
