<svg width="20" height="20" viewBox="0 0 20 20" fill="none" xmlns="http://www.w3.org/2000/svg">
<path d="M14.5334 11.1667H14.5334C14.9792 11.1668 15.4122 11.0179 15.7637 10.7437C16.1152 10.4695 16.365 10.0858 16.4734 9.65342L16.4738 9.65188L17.8488 4.24377L14.5334 11.1667ZM14.5334 11.1667H5.83342C5.47979 11.1667 5.14065 11.3072 4.89061 11.5573C4.64056 11.8073 4.50008 12.1465 4.50008 12.5001C4.50008 12.8537 4.64056 13.1928 4.89061 13.4429C5.14065 13.6929 5.47979 13.8334 5.83342 13.8334H17.5001C17.5885 13.8334 17.6733 13.8685 17.7358 13.931C17.7983 13.9936 17.8334 14.0783 17.8334 14.1667C17.8334 14.2552 17.7983 14.3399 17.7358 14.4025C17.6733 14.465 17.5885 14.5001 17.5001 14.5001H17.3501H16.6367L16.8801 15.1707C16.9897 15.4728 17.025 15.7968 16.9828 16.1154C16.9406 16.434 16.8223 16.7377 16.6379 17.0009C16.4534 17.2641 16.2083 17.4789 15.9232 17.6272C15.6381 17.7756 15.3215 17.853 15.0001 17.853C14.6787 17.853 14.3621 17.7756 14.077 17.6272C13.7919 17.4789 13.5467 17.2641 13.3623 17.0009C13.1778 16.7377 13.0595 16.434 13.0174 16.1154C12.9752 15.7968 13.0104 15.4728 13.1201 15.1707L13.3635 14.5001H12.6501H10.6834H9.97002L10.2134 15.1707C10.3231 15.4728 10.3583 15.7968 10.3161 16.1154C10.274 16.434 10.1557 16.7377 9.9712 17.0009C9.78675 17.2641 9.5416 17.4789 9.25651 17.6272C8.97142 17.7756 8.65479 17.853 8.33342 17.853C8.01204 17.853 7.69541 17.7756 7.41032 17.6272C7.12523 17.4789 6.88008 17.2641 6.69563 17.0009C6.51118 16.7377 6.39286 16.434 6.3507 16.1154C6.30854 15.7968 6.34377 15.4728 6.45341 15.1707L6.6968 14.5001H5.98341H5.83342H5.82217L5.81094 14.5006C5.28037 14.5245 4.76205 14.3366 4.37 13.9783C3.97795 13.62 3.74428 13.1207 3.72041 12.5901C3.69653 12.0595 3.8844 11.5412 4.24269 11.1492C4.60097 10.7571 5.10033 10.5235 5.63089 10.4996L6.24528 10.4719L6.0928 9.87612L4.65897 4.27339L4.61289 3.90473L4.60924 3.87553L4.60219 3.84696C4.52919 3.55113 4.35706 3.28922 4.11446 3.10484C3.87402 2.92211 3.57874 2.82646 3.27698 2.83341H2.50008C2.41168 2.83341 2.32689 2.7983 2.26438 2.73578C2.20187 2.67327 2.16675 2.58849 2.16675 2.50008C2.16675 2.41168 2.20187 2.32689 2.26438 2.26438C2.32689 2.20187 2.41168 2.16675 2.50008 2.16675H3.28267C3.69507 2.16804 4.09699 2.29679 4.43339 2.53537C4.76996 2.77408 5.02447 3.11105 5.16201 3.50008L5.27986 3.83341H5.63341H17.5001H17.5088M14.5334 11.1667L17.5088 3.83341M17.5088 3.83341L17.5175 3.83311M17.5088 3.83341L17.5175 3.83311M17.5175 3.83311C17.5698 3.83128 17.6218 3.8418 17.6693 3.8638C17.7163 3.88558 17.7576 3.918 17.7899 3.95849C17.8204 3.99824 17.8417 4.04439 17.8519 4.09349C17.8623 4.14309 17.8613 4.19441 17.8488 4.24355L17.5175 3.83311ZM16.9185 5.12135L17.0738 4.50008H16.4334H6.06675H5.42636L5.58168 5.12135L6.83168 10.1213L6.92636 10.5001H7.31675H14.502C14.8037 10.507 15.099 10.4114 15.3395 10.2287L15.0369 9.83057L15.3395 10.2287C15.5818 10.0444 15.7539 9.78286 15.827 9.48735C15.8271 9.48708 15.8271 9.48681 15.8272 9.48653L16.9185 5.12135ZM7.10157 16.3437L7.56352 16.1523L7.10158 16.3437C7.20249 16.5873 7.37339 16.7955 7.59265 16.942C7.81192 17.0886 8.06971 17.1667 8.33342 17.1667C8.68704 17.1667 9.02618 17.0263 9.27622 16.7762C9.52627 16.5262 9.66675 16.187 9.66675 15.8334C9.66675 15.5697 9.58855 15.3119 9.44204 15.0927C9.29553 14.8734 9.08729 14.7025 8.84366 14.6016C8.60002 14.5007 8.33194 14.4743 8.0733 14.5257C7.81465 14.5771 7.57708 14.7041 7.39061 14.8906C7.20414 15.0771 7.07715 15.3147 7.0257 15.5733C6.97425 15.8319 7.00066 16.1 7.10157 16.3437ZM14.2593 16.942C14.4786 17.0886 14.7364 17.1667 15.0001 17.1667C15.3537 17.1667 15.6928 17.0263 15.9429 16.7762C16.1929 16.5262 16.3334 16.187 16.3334 15.8334C16.3334 15.5697 16.2552 15.3119 16.1087 15.0927C15.9622 14.8734 15.754 14.7025 15.5103 14.6016C15.2667 14.5007 14.9986 14.4743 14.74 14.5257C14.4813 14.5771 14.2437 14.7041 14.0573 14.8906C13.8708 15.0771 13.7438 15.3147 13.6924 15.5733C13.6409 15.8319 13.6673 16.1 13.7682 16.3437C13.8692 16.5873 14.0401 16.7955 14.2593 16.942Z" fill="#2C2C2C" stroke="white"/>
</svg>
