<svg width="154" height="154" viewBox="0 0 154 154" fill="none" xmlns="http://www.w3.org/2000/svg">
<g filter="url(#filter0_d_135_36144)">
<path d="M32 48C32 36.9543 40.9543 28 52 28H102C113.046 28 122 36.9543 122 48V98C122 109.046 113.046 118 102 118H52C40.9543 118 32 109.046 32 98V48Z" fill="#FFC340"/>
</g>
<path fill-rule="evenodd" clip-rule="evenodd" d="M64.4784 53.6576C65.1222 52.5412 66.549 52.1581 67.6654 52.8019L88.6654 64.9119C89.7817 65.5557 90.1648 66.9825 89.5211 68.0989C88.8773 69.2152 87.4505 69.5983 86.3341 68.9545L65.3341 56.8446C64.2178 56.2008 63.8347 54.7739 64.4784 53.6576Z" fill="white"/>
<path fill-rule="evenodd" clip-rule="evenodd" d="M73.5043 48.2731C74.5673 47.6606 75.7725 47.3381 76.9993 47.3381C78.2262 47.3381 79.4315 47.6606 80.4945 48.2731C80.4961 48.2741 80.4977 48.275 80.4993 48.276L96.8327 57.6093C97.8958 58.2231 98.7788 59.1056 99.3931 60.1684C100.007 61.2311 100.331 62.4368 100.333 63.6643V82.3357C100.331 83.5633 100.007 84.7689 99.3931 85.8317C98.7788 86.8944 97.8958 87.777 96.8327 88.3907L96.8237 88.3959L80.4993 97.7241C80.498 97.7249 80.4966 97.7257 80.4952 97.7265C79.432 98.3393 78.2265 98.6619 76.9993 98.6619C75.7723 98.6619 74.5667 98.3393 73.5037 97.7266C73.5022 97.7257 73.5008 97.7249 73.4993 97.7241L57.175 88.3959L57.166 88.3907C56.1029 87.777 55.2199 86.8944 54.6056 85.8317C53.9913 84.7689 53.6673 83.5633 53.666 82.3357V63.6643C53.6673 62.4367 53.9913 61.2311 54.6056 60.1684C55.2199 59.1056 56.1029 58.2231 57.166 57.6093L57.175 57.6041L73.5043 48.2731ZM76.9993 52.0048C76.5898 52.0048 76.1874 52.1126 75.8327 52.3174L75.8237 52.3226L59.4993 61.6507C59.4981 61.6515 59.4969 61.6522 59.4957 61.6529C59.143 61.8574 58.8499 62.1507 58.6459 62.5038C58.4413 62.8577 58.3333 63.2592 58.3327 63.6681V82.332C58.3333 82.7408 58.4413 83.1423 58.6459 83.4963C58.8499 83.8493 59.143 84.1427 59.4957 84.3472C59.4969 84.3479 59.4981 84.3486 59.4993 84.3493L75.8327 93.6826C76.1874 93.8874 76.5898 93.9952 76.9993 93.9952C77.4089 93.9952 77.8113 93.8874 78.166 93.6826L78.175 93.6774L94.4994 84.3493C94.5006 84.3486 94.5018 84.3479 94.5031 84.3471C94.8558 84.1427 95.1488 83.8493 95.3528 83.4963C95.5576 83.142 95.6656 82.7401 95.666 82.331V63.6691C95.6656 63.2599 95.5576 62.858 95.3528 62.5038C95.1488 62.1507 94.8558 61.8574 94.5031 61.6529C94.5018 61.6522 94.5006 61.6515 94.4994 61.6507L78.166 52.3174C77.8113 52.1126 77.4089 52.0048 76.9993 52.0048Z" fill="white"/>
<path fill-rule="evenodd" clip-rule="evenodd" d="M54.6108 60.0716C55.2561 58.9561 56.6835 58.575 57.799 59.2202L77.0006 70.3277L96.2022 59.2202C97.3177 58.575 98.7451 58.9561 99.3903 60.0716C100.036 61.1871 99.6544 62.6145 98.5389 63.2597L78.1689 75.0431C77.4462 75.4612 76.555 75.4612 75.8322 75.0431L55.4622 63.2597C54.3468 62.6145 53.9656 61.1871 54.6108 60.0716Z" fill="white"/>
<path d="M77 96.52V73" stroke="white" stroke-width="2" stroke-linecap="round" stroke-linejoin="round"/>
<defs>
<filter id="filter0_d_135_36144" x="0" y="0" width="154" height="154" filterUnits="userSpaceOnUse" color-interpolation-filters="sRGB">
<feFlood flood-opacity="0" result="BackgroundImageFix"/>
<feColorMatrix in="SourceAlpha" type="matrix" values="0 0 0 0 0 0 0 0 0 0 0 0 0 0 0 0 0 0 127 0" result="hardAlpha"/>
<feOffset dy="4"/>
<feGaussianBlur stdDeviation="16"/>
<feComposite in2="hardAlpha" operator="out"/>
<feColorMatrix type="matrix" values="0 0 0 0 0.172549 0 0 0 0 0.172549 0 0 0 0 0.172549 0 0 0 0.06 0"/>
<feBlend mode="normal" in2="BackgroundImageFix" result="effect1_dropShadow_135_36144"/>
<feBlend mode="normal" in="SourceGraphic" in2="effect1_dropShadow_135_36144" result="shape"/>
</filter>
</defs>
</svg>
