<svg width="154" height="154" viewBox="0 0 154 154" fill="none" xmlns="http://www.w3.org/2000/svg">
<g filter="url(#filter0_d_137_36308)">
<path d="M32 48C32 36.9543 40.9543 28 52 28H102C113.046 28 122 36.9543 122 48V98C122 109.046 113.046 118 102 118H52C40.9543 118 32 109.046 32 98V48Z" fill="#F79009"/>
</g>
<g clip-path="url(#clip0_137_36308)">
<mask id="path-2-inside-1_137_36308" fill="white">
<path d="M89.8296 78.5556C89.1346 78.2084 85.7078 76.528 85.0691 76.2983C84.4305 76.0659 83.9662 75.9511 83.502 76.6456C83.0378 77.3374 81.7014 78.9029 81.2934 79.365C80.8883 79.8271 80.4803 79.8831 79.7854 79.5359C77.7317 78.722 75.8361 77.5582 74.1837 76.0967C72.6597 74.6945 71.3531 73.0749 70.3067 71.2909C69.9015 70.5963 70.2645 70.221 70.6133 69.8765C70.9256 69.5657 71.3111 69.0672 71.6572 68.6611C71.9438 68.3105 72.1787 67.921 72.3549 67.5044C72.4476 67.313 72.4908 67.1015 72.4805 66.8892C72.4701 66.6769 72.4067 66.4706 72.2958 66.289C72.1214 65.9417 70.7287 62.5277 70.1491 61.1386C69.5836 59.7887 69.0096 59.9708 68.5792 59.9484C68.174 59.9288 67.7098 59.9232 67.2456 59.9232C66.8924 59.933 66.5452 60.0154 66.2256 60.1653C65.906 60.3152 65.6211 60.5293 65.3887 60.7942C64.601 61.5367 63.9772 62.4344 63.5573 63.4301C63.1373 64.4258 62.9303 65.4977 62.9494 66.5774C63.1753 69.1939 64.1639 71.6877 65.7938 73.7526C68.7815 78.2113 72.8828 81.8199 77.6949 84.2241C78.993 84.7792 80.319 85.2671 81.6676 85.686C83.0894 86.1157 84.5924 86.2087 86.0567 85.9577C87.0265 85.7621 87.945 85.3684 88.7542 84.8015C89.5634 84.2346 90.2457 83.5069 90.758 82.6641C91.2151 81.6278 91.356 80.4805 91.1632 79.365C90.9916 79.0738 90.5273 78.9029 89.8296 78.5556ZM96.8408 53.1289C92.0577 48.3688 85.6999 45.5012 78.9509 45.0598C72.2019 44.6184 65.5218 46.6333 60.1541 50.7295C54.7864 54.8257 51.0971 60.724 49.7729 67.3262C48.4486 73.9285 49.5798 80.7847 52.9558 86.6186L49 101L63.7822 97.1433C67.8706 99.3593 72.4516 100.52 77.1069 100.521H77.1182C82.6329 100.518 88.0231 98.8882 92.6077 95.8374C97.1923 92.7865 100.766 88.4515 102.876 83.3799C104.987 78.3084 105.54 72.7279 104.466 67.3436C103.391 61.9593 100.738 57.0127 96.8408 53.1288V53.1289ZM89.4329 92.3066C85.742 94.6095 81.4742 95.8315 77.1182 95.8326H77.1069C72.9567 95.8324 68.883 94.7209 65.3127 92.6147L64.4658 92.1162L55.6933 94.4071L58.0342 85.8932L57.4855 85.0194C55.0506 81.1541 53.8217 76.6569 53.9544 72.0965C54.0871 67.536 55.5753 63.1171 58.2309 59.3985C60.8865 55.68 64.5902 52.8288 68.8736 51.2055C73.1571 49.5821 77.8279 49.2596 82.2955 50.2787C86.7631 51.2977 90.8268 53.6126 93.9727 56.9306C97.1186 60.2485 99.2055 64.4206 99.9695 68.9191C100.733 73.4177 100.14 78.0407 98.2647 82.2036C96.3892 86.3666 93.3157 89.8824 89.4329 92.3066Z"/>
</mask>
<path d="M89.8296 78.5556C89.1346 78.2084 85.7078 76.528 85.0691 76.2983C84.4305 76.0659 83.9662 75.9511 83.502 76.6456C83.0378 77.3374 81.7014 78.9029 81.2934 79.365C80.8883 79.8271 80.4803 79.8831 79.7854 79.5359C77.7317 78.722 75.8361 77.5582 74.1837 76.0967C72.6597 74.6945 71.3531 73.0749 70.3067 71.2909C69.9015 70.5963 70.2645 70.221 70.6133 69.8765C70.9256 69.5657 71.3111 69.0672 71.6572 68.6611C71.9438 68.3105 72.1787 67.921 72.3549 67.5044C72.4476 67.313 72.4908 67.1015 72.4805 66.8892C72.4701 66.6769 72.4067 66.4706 72.2958 66.289C72.1214 65.9417 70.7287 62.5277 70.1491 61.1386C69.5836 59.7887 69.0096 59.9708 68.5792 59.9484C68.174 59.9288 67.7098 59.9232 67.2456 59.9232C66.8924 59.933 66.5452 60.0154 66.2256 60.1653C65.906 60.3152 65.6211 60.5293 65.3887 60.7942C64.601 61.5367 63.9772 62.4344 63.5573 63.4301C63.1373 64.4258 62.9303 65.4977 62.9494 66.5774C63.1753 69.1939 64.1639 71.6877 65.7938 73.7526C68.7815 78.2113 72.8828 81.8199 77.6949 84.2241C78.993 84.7792 80.319 85.2671 81.6676 85.686C83.0894 86.1157 84.5924 86.2087 86.0567 85.9577C87.0265 85.7621 87.945 85.3684 88.7542 84.8015C89.5634 84.2346 90.2457 83.5069 90.758 82.6641C91.2151 81.6278 91.356 80.4805 91.1632 79.365C90.9916 79.0738 90.5273 78.9029 89.8296 78.5556ZM96.8408 53.1289C92.0577 48.3688 85.6999 45.5012 78.9509 45.0598C72.2019 44.6184 65.5218 46.6333 60.1541 50.7295C54.7864 54.8257 51.0971 60.724 49.7729 67.3262C48.4486 73.9285 49.5798 80.7847 52.9558 86.6186L49 101L63.7822 97.1433C67.8706 99.3593 72.4516 100.52 77.1069 100.521H77.1182C82.6329 100.518 88.0231 98.8882 92.6077 95.8374C97.1923 92.7865 100.766 88.4515 102.876 83.3799C104.987 78.3084 105.54 72.7279 104.466 67.3436C103.391 61.9593 100.738 57.0127 96.8408 53.1288V53.1289ZM89.4329 92.3066C85.742 94.6095 81.4742 95.8315 77.1182 95.8326H77.1069C72.9567 95.8324 68.883 94.7209 65.3127 92.6147L64.4658 92.1162L55.6933 94.4071L58.0342 85.8932L57.4855 85.0194C55.0506 81.1541 53.8217 76.6569 53.9544 72.0965C54.0871 67.536 55.5753 63.1171 58.2309 59.3985C60.8865 55.68 64.5902 52.8288 68.8736 51.2055C73.1571 49.5821 77.8279 49.2596 82.2955 50.2787C86.7631 51.2977 90.8268 53.6126 93.9727 56.9306C97.1186 60.2485 99.2055 64.4206 99.9695 68.9191C100.733 73.4177 100.14 78.0407 98.2647 82.2036C96.3892 86.3666 93.3157 89.8824 89.4329 92.3066Z" fill="white"/>
<path d="M85.0691 76.2983L84.7271 77.238L84.7308 77.2394L85.0691 76.2983ZM83.502 76.6456L84.3324 77.2029L84.3334 77.2013L83.502 76.6456ZM81.2934 79.365L80.5437 78.7032L80.5415 78.7058L81.2934 79.365ZM79.7854 79.5359L80.2324 78.6413L80.1938 78.6221L80.1538 78.6062L79.7854 79.5359ZM74.1837 76.0967L73.5066 76.8326L73.5138 76.8393L73.5212 76.8458L74.1837 76.0967ZM70.3067 71.2909L69.4429 71.7947L69.4441 71.7968L70.3067 71.2909ZM70.6133 69.8765L71.316 70.5881L71.3188 70.5853L70.6133 69.8765ZM71.6572 68.6611L72.4183 69.3097L72.4249 69.3019L72.4313 69.294L71.6572 68.6611ZM72.3549 67.5044L71.4549 67.0686L71.4438 67.0915L71.4339 67.1149L72.3549 67.5044ZM72.2958 66.289L71.4022 66.7378L71.4207 66.7747L71.4422 66.8099L72.2958 66.289ZM70.1491 61.1386L71.072 60.7536L71.0715 60.7522L70.1491 61.1386ZM68.5792 59.9484L68.6312 58.9497L68.6275 58.9495L68.5792 59.9484ZM67.2456 59.9232V58.9232H67.2317L67.2178 58.9235L67.2456 59.9232ZM65.3887 60.7942L66.0746 61.5218L66.1091 61.4893L66.1403 61.4537L65.3887 60.7942ZM62.9494 66.5774L61.9495 66.5951L61.9501 66.6293L61.9531 66.6634L62.9494 66.5774ZM65.7938 73.7526L66.6245 73.1959L66.6029 73.1636L66.5787 73.133L65.7938 73.7526ZM77.6949 84.2241L77.248 85.1187L77.2745 85.1319L77.3017 85.1435L77.6949 84.2241ZM81.6676 85.686L81.371 86.641L81.3783 86.6432L81.6676 85.686ZM86.0567 85.9577L86.2256 86.9433L86.24 86.9408L86.2544 86.9379L86.0567 85.9577ZM90.758 82.6641L91.6125 83.1836L91.6466 83.1276L91.673 83.0676L90.758 82.6641ZM91.1632 79.365L92.1486 79.1947L92.1175 79.0147L92.0247 78.8574L91.1632 79.365ZM96.8408 53.1289L96.1354 53.8377L97.8408 55.5349V53.1289H96.8408ZM52.9558 86.6186L53.92 86.8838L54.031 86.4801L53.8213 86.1177L52.9558 86.6186ZM49 101L48.0358 100.735L47.5764 102.405L49.2524 101.967L49 101ZM63.7822 97.1433L64.2587 96.2641L63.9117 96.076L63.5297 96.1757L63.7822 97.1433ZM77.1069 100.521L77.1068 101.521H77.1069V100.521ZM77.1182 100.521V101.521H77.1187L77.1182 100.521ZM96.8408 53.1288L97.5467 52.4205L95.8408 50.7205V53.1288H96.8408ZM77.1182 95.8326V96.8326H77.1184L77.1182 95.8326ZM77.1069 95.8326L77.1069 96.8326H77.1069V95.8326ZM65.3127 92.6147L65.8208 91.7534L65.82 91.7529L65.3127 92.6147ZM64.4658 92.1162L64.9731 91.2544L64.6151 91.0437L64.2132 91.1486L64.4658 92.1162ZM55.6933 94.4071L54.7291 94.142L54.2698 95.8124L55.946 95.3746L55.6933 94.4071ZM58.0342 85.8932L58.9984 86.1583L59.115 85.7341L58.8811 85.3615L58.0342 85.8932ZM57.4855 85.0194L58.3324 84.4877L58.3316 84.4864L57.4855 85.0194ZM90.2766 77.6611C89.9238 77.4848 88.8888 76.9757 87.8617 76.4817C86.8671 76.0034 85.7889 75.4945 85.4075 75.3573L84.7308 77.2394C84.9881 77.3319 85.9426 77.778 86.9948 78.2841C88.0146 78.7745 89.0404 79.2792 89.3826 79.4502L90.2766 77.6611ZM85.4111 75.3587C85.121 75.2531 84.6291 75.071 84.1065 75.1308C83.4741 75.2032 83.0105 75.5814 82.6706 76.0899L84.3334 77.2013C84.4017 77.0992 84.4364 77.0779 84.427 77.0845C84.4079 77.0979 84.3708 77.1136 84.3338 77.1179C84.3094 77.1207 84.3204 77.1139 84.3942 77.131C84.4714 77.1489 84.5716 77.1815 84.7271 77.238L85.4111 75.3587ZM82.6717 76.0884C82.2508 76.7155 80.9604 78.2313 80.5437 78.7032L82.0431 80.0268C82.4424 79.5745 83.8247 77.9593 84.3324 77.2029L82.6717 76.0884ZM80.5415 78.7058C80.4865 78.7685 80.4602 78.784 80.4632 78.7822C80.4726 78.7764 80.4987 78.7647 80.5305 78.7609C80.5573 78.7577 80.5543 78.7644 80.5048 78.7518C80.4521 78.7383 80.3649 78.7076 80.2324 78.6413L79.3384 80.4304C79.7517 80.6369 80.2393 80.8093 80.7656 80.747C81.3337 80.6798 81.7451 80.3667 82.0453 80.0243L80.5415 78.7058ZM80.1538 78.6062C78.2077 77.835 76.4117 76.7323 74.8462 75.3477L73.5212 76.8458C75.2605 78.3842 77.2556 79.609 79.417 80.4655L80.1538 78.6062ZM74.8608 75.3608C73.4095 74.0255 72.1655 72.4834 71.1692 70.7849L69.4441 71.7968C70.5407 73.6663 71.9098 75.3634 73.5066 76.8326L74.8608 75.3608ZM71.1705 70.787C71.121 70.7023 71.1237 70.6764 71.1267 70.6997C71.1306 70.7307 71.1258 70.771 71.1138 70.8029C71.1054 70.8253 71.1027 70.8185 71.1374 70.7757C71.175 70.7294 71.226 70.677 71.316 70.5881L69.9107 69.165C69.7625 69.3113 69.414 69.6387 69.2407 70.102C69.0315 70.661 69.1207 71.2424 69.4429 71.7947L71.1705 70.787ZM71.3188 70.5853C71.6685 70.2372 72.1274 69.6511 72.4183 69.3097L70.896 68.0125C70.4948 68.4833 70.1827 68.8942 69.9079 69.1678L71.3188 70.5853ZM72.4313 69.294C72.7782 68.8698 73.0626 68.3984 73.2759 67.8939L71.4339 67.1149C71.2948 67.4437 71.1094 67.7512 70.883 68.0281L72.4313 69.294ZM73.2549 67.9403C73.4205 67.5983 73.4977 67.2203 73.4793 66.8407L71.4816 66.9378C71.4838 66.9827 71.4747 67.0277 71.4549 67.0686L73.2549 67.9403ZM73.4793 66.8407C73.4608 66.4611 73.3473 66.0923 73.1494 65.768L71.4422 66.8099C71.466 66.8489 71.4794 66.8928 71.4816 66.9378L73.4793 66.8407ZM73.1894 65.8401C73.1902 65.8416 73.1881 65.8375 73.1825 65.8255C73.1773 65.8143 73.1704 65.7992 73.1618 65.7799C73.1444 65.7411 73.1221 65.6905 73.0951 65.628C73.0412 65.5033 72.9718 65.3397 72.8902 65.1456C72.7273 64.7579 72.5197 64.2575 72.2986 63.7225C71.8579 62.6561 71.3626 61.45 71.072 60.7536L69.2262 61.5237C69.5152 62.2164 70.0061 63.4118 70.4502 64.4864C70.8797 65.5257 71.2933 66.5209 71.4022 66.7378L73.1894 65.8401ZM71.0715 60.7522C70.7442 59.9711 70.3275 59.4175 69.7391 59.1408C69.4525 59.006 69.1864 58.9674 68.9847 58.9557C68.8888 58.9501 68.8007 58.9504 68.7436 58.9506C68.6762 58.9508 68.6513 58.9508 68.6312 58.9497L68.5272 60.947C68.6147 60.9516 68.7019 60.9507 68.7504 60.9506C68.8093 60.9504 68.8411 60.9507 68.8684 60.9523C68.913 60.9549 68.9066 60.9594 68.8879 60.9506C68.8355 60.926 68.9885 60.9563 69.2268 61.525L71.0715 60.7522ZM68.6275 58.9495C68.1983 58.9288 67.7152 58.9232 67.2456 58.9232V60.9232C67.7045 60.9232 68.1498 60.9288 68.5308 60.9472L68.6275 58.9495ZM67.2178 58.9235C66.7274 58.9372 66.245 59.0516 65.8009 59.2599L66.6502 61.0707C66.8453 60.9792 67.0574 60.9288 67.2733 60.9228L67.2178 58.9235ZM65.8009 59.2599C65.3568 59.4683 64.9605 59.766 64.637 60.1346L66.1403 61.4537C66.2817 61.2926 66.4552 61.1621 66.6502 61.0707L65.8009 59.2599ZM64.7027 60.0665C63.814 60.9043 63.11 61.9174 62.6359 63.0415L64.4787 63.8188C64.8445 62.9514 65.3879 62.1691 66.0746 61.5218L64.7027 60.0665ZM62.6359 63.0415C62.1617 64.1656 61.9279 65.3758 61.9495 66.5951L63.9492 66.5597C63.9326 65.6195 64.1128 64.6861 64.4787 63.8188L62.6359 63.0415ZM61.9531 66.6634C62.1958 69.4749 63.2581 72.1541 65.0089 74.3722L66.5787 73.133C65.0697 71.2212 64.1547 68.9128 63.9457 66.4914L61.9531 66.6634ZM64.9631 74.3093C68.0475 78.9123 72.2812 82.6372 77.248 85.1187L78.1419 83.3295C73.4844 81.0026 69.5155 77.5103 66.6245 73.1959L64.9631 74.3093ZM77.3017 85.1435C78.6314 85.7121 79.9896 86.2119 81.371 86.641L81.9642 84.731C80.6484 84.3223 79.3546 83.8462 78.0881 83.3046L77.3017 85.1435ZM81.3783 86.6432C82.9486 87.1178 84.6085 87.2205 86.2256 86.9433L85.8877 84.972C84.5762 85.1969 83.2302 85.1135 81.9569 84.7288L81.3783 86.6432ZM86.2544 86.9379C87.3591 86.7151 88.4057 86.2666 89.328 85.6205L88.1805 83.9825C87.4843 84.4702 86.6939 84.809 85.859 84.9774L86.2544 86.9379ZM89.328 85.6205C90.2503 84.9744 91.0283 84.1447 91.6125 83.1836L89.9035 82.1447C89.4632 82.869 88.8766 83.4948 88.1805 83.9825L89.328 85.6205ZM91.673 83.0676C92.2095 81.8512 92.3749 80.5043 92.1486 79.1947L90.1778 79.5353C90.337 80.4566 90.2207 81.4043 89.8431 82.2606L91.673 83.0676ZM92.0247 78.8574C91.7909 78.4604 91.4168 78.2366 91.1724 78.1034C90.9316 77.9721 90.5634 77.8039 90.2752 77.6604L89.384 79.4509C89.5665 79.5417 89.7363 79.6223 89.8748 79.6889C90.0195 79.7585 90.1275 79.8116 90.215 79.8593C90.42 79.9711 90.3639 79.9783 90.3016 79.8727L92.0247 78.8574ZM97.5462 52.4201C92.5913 47.489 86.0058 44.519 79.0161 44.0619L78.8856 46.0576C85.3939 46.4833 91.5242 49.2486 96.1354 53.8377L97.5462 52.4201ZM79.0161 44.0619C72.0265 43.6048 65.1075 45.6915 59.5474 49.9346L60.7608 51.5245C65.936 47.5752 72.3773 45.632 78.8856 46.0576L79.0161 44.0619ZM59.5474 49.9346C53.9872 54.1777 50.1645 60.2884 48.7924 67.1296L50.7533 67.5229C52.0296 61.1596 55.5857 55.4737 60.7608 51.5245L59.5474 49.9346ZM48.7924 67.1296C47.4202 73.9708 48.5925 81.0751 52.0903 87.1195L53.8213 86.1177C50.5672 80.4944 49.477 73.8861 50.7533 67.5229L48.7924 67.1296ZM51.9916 86.3534L48.0358 100.735L49.9642 101.265L53.92 86.8838L51.9916 86.3534ZM49.2524 101.967L64.0346 98.1109L63.5297 96.1757L48.7476 100.032L49.2524 101.967ZM63.3056 98.0224C67.5406 100.318 72.2854 101.52 77.1068 101.521L77.107 99.5208C72.6179 99.5205 68.2007 98.4008 64.2587 96.2641L63.3056 98.0224ZM77.1069 101.521H77.1182V99.5208H77.1069V101.521ZM77.1187 101.521C82.8301 101.518 88.4129 99.83 93.1617 96.6699L92.0537 95.0049C87.6333 97.9464 82.4357 99.5181 77.1177 99.5208L77.1187 101.521ZM93.1617 96.6699C97.9106 93.5097 101.613 89.0188 103.799 83.7641L101.953 82.9957C99.9186 87.8841 96.474 92.0633 92.0537 95.0049L93.1617 96.6699ZM103.799 83.7641C105.986 78.5094 106.559 72.7271 105.446 67.148L103.485 67.5393C104.52 72.7288 103.987 78.1074 101.953 82.9957L103.799 83.7641ZM105.446 67.148C104.333 61.5689 101.584 56.444 97.5467 52.4205L96.1349 53.8372C99.8922 57.5815 102.45 62.3497 103.485 67.5393L105.446 67.148ZM95.8408 53.1288V53.1289H97.8408V53.1288H95.8408ZM88.9035 91.4582C85.3715 93.662 81.2872 94.8315 77.1179 94.8326L77.1184 96.8326C81.6613 96.8314 86.1124 95.5571 89.9622 93.155L88.9035 91.4582ZM77.1182 94.8326H77.1069V96.8326H77.1182V94.8326ZM77.107 94.8326C73.1353 94.8324 69.237 93.7687 65.8208 91.7534L64.8046 93.476C68.529 95.6731 72.7782 96.8324 77.1069 96.8326L77.107 94.8326ZM65.82 91.7529L64.9731 91.2544L63.9586 92.978L64.8054 93.4765L65.82 91.7529ZM64.2132 91.1486L55.4407 93.4395L55.946 95.3746L64.7185 93.0837L64.2132 91.1486ZM56.6575 94.6722L58.9984 86.1583L57.0699 85.6281L54.7291 94.142L56.6575 94.6722ZM58.8811 85.3615L58.3324 84.4877L56.6386 85.5512L57.1873 86.425L58.8811 85.3615ZM58.3316 84.4864C56.0023 80.7889 54.8271 76.4873 54.954 72.1255L52.9548 72.0674C52.8164 76.8266 54.0988 81.5194 56.6394 85.5524L58.3316 84.4864ZM54.954 72.1255C55.0809 67.7638 56.5042 63.537 59.0447 59.9797L57.4171 58.8174C54.6464 62.6972 53.0933 67.3082 52.9548 72.0674L54.954 72.1255ZM59.0447 59.9797C61.5851 56.4223 65.1288 53.694 69.228 52.1406L68.5192 50.2704C64.0515 51.9635 60.1878 54.9376 57.4171 58.8174L59.0447 59.9797ZM69.228 52.1406C73.3272 50.5871 77.7974 50.2784 82.0731 51.2536L82.5179 49.3037C77.8584 48.2409 72.9869 48.5772 68.5192 50.2704L69.228 52.1406ZM82.0731 51.2536C86.3487 52.2289 90.2372 54.4442 93.247 57.6186L94.6984 56.2425C91.4163 52.781 87.1774 50.3666 82.5179 49.3037L82.0731 51.2536ZM93.247 57.6186C96.2568 60.793 98.2529 64.7839 98.9836 69.0865L100.955 68.7517C100.158 64.0572 97.9804 59.7041 94.6984 56.2425L93.247 57.6186ZM98.9836 69.0865C99.7143 73.3891 99.1469 77.8109 97.353 81.7929L99.1764 82.6144C101.133 78.2705 101.753 73.4462 100.955 68.7517L98.9836 69.0865ZM97.353 81.7929C95.559 85.7749 92.6187 89.1387 88.9033 91.4584L89.9625 93.1549C94.0127 90.6262 97.2194 86.9582 99.1764 82.6144L97.353 81.7929Z" fill="white" mask="url(#path-2-inside-1_137_36308)"/>
</g>
<defs>
<filter id="filter0_d_137_36308" x="0" y="0" width="154" height="154" filterUnits="userSpaceOnUse" color-interpolation-filters="sRGB">
<feFlood flood-opacity="0" result="BackgroundImageFix"/>
<feColorMatrix in="SourceAlpha" type="matrix" values="0 0 0 0 0 0 0 0 0 0 0 0 0 0 0 0 0 0 127 0" result="hardAlpha"/>
<feOffset dy="4"/>
<feGaussianBlur stdDeviation="16"/>
<feComposite in2="hardAlpha" operator="out"/>
<feColorMatrix type="matrix" values="0 0 0 0 0.172549 0 0 0 0 0.172549 0 0 0 0 0.172549 0 0 0 0.06 0"/>
<feBlend mode="normal" in2="BackgroundImageFix" result="effect1_dropShadow_137_36308"/>
<feBlend mode="normal" in="SourceGraphic" in2="effect1_dropShadow_137_36308" result="shape"/>
</filter>
<clipPath id="clip0_137_36308">
<rect width="56" height="56" fill="white" transform="translate(49 45)"/>
</clipPath>
</defs>
</svg>
