<svg width="154" height="154" viewBox="0 0 154 154" fill="none" xmlns="http://www.w3.org/2000/svg">
<g filter="url(#filter0_d_137_36307)">
<path d="M32 48C32 36.9543 40.9543 28 52 28H102C113.046 28 122 36.9543 122 48V98C122 109.046 113.046 118 102 118H52C40.9543 118 32 109.046 32 98V48Z" fill="#A74B3B"/>
</g>
<path d="M78.8327 61.3334V61.8334H79.3327H83.9993C84.4856 61.8334 84.9519 62.0266 85.2957 62.3704C85.6395 62.7142 85.8327 63.1805 85.8327 63.6667C85.8327 64.153 85.6395 64.6193 85.2957 64.9631C84.9519 65.3069 84.4856 65.5001 83.9993 65.5001H74.666C73.9146 65.5001 73.1939 65.7986 72.6625 66.3299C72.1312 66.8613 71.8327 67.582 71.8327 68.3334C71.8327 69.0849 72.1312 69.8055 72.6625 70.3369C73.1939 70.8682 73.9146 71.1667 74.666 71.1667H79.3327C81.0566 71.1667 82.7099 71.8516 83.9289 73.0706C85.1479 74.2895 85.8327 75.9428 85.8327 77.6667C85.8327 79.3907 85.1479 81.044 83.9289 82.2629C82.7099 83.4819 81.0566 84.1667 79.3327 84.1667H78.8327V84.6667V87.0001C78.8327 87.4863 78.6395 87.9526 78.2957 88.2964C77.9519 88.6403 77.4856 88.8334 76.9993 88.8334C76.5131 88.8334 76.0468 88.6403 75.703 88.2964C75.3592 87.9526 75.166 87.4863 75.166 87.0001V84.6667V84.1667H74.666H69.9993C69.5131 84.1667 69.0468 83.9736 68.703 83.6298C68.3592 83.286 68.166 82.8196 68.166 82.3334C68.166 81.8472 68.3592 81.3809 68.703 81.0371C69.0468 80.6932 69.5131 80.5001 69.9993 80.5001H79.3327C80.0841 80.5001 80.8048 80.2016 81.3362 79.6702C81.8675 79.1389 82.166 78.4182 82.166 77.6667C82.166 76.9153 81.8675 76.1946 81.3362 75.6633C80.8048 75.1319 80.0841 74.8334 79.3327 74.8334H74.666C72.9421 74.8334 71.2888 74.1486 70.0698 72.9296C68.8508 71.7106 68.166 70.0573 68.166 68.3334C68.166 66.6095 68.8508 64.9562 70.0698 63.7372C71.2888 62.5182 72.9421 61.8334 74.666 61.8334H75.166V61.3334V59.0001C75.166 58.5139 75.3592 58.0475 75.703 57.7037C76.0468 57.3599 76.5131 57.1667 76.9993 57.1667C77.4856 57.1667 77.9519 57.3599 78.2957 57.7037C78.6395 58.0475 78.8327 58.5139 78.8327 59.0001V61.3334ZM60.666 50.1667H93.3327C95.0566 50.1667 96.7099 50.8516 97.9289 52.0706C99.1479 53.2895 99.8327 54.9428 99.8327 56.6667V89.3334C99.8327 91.0573 99.1479 92.7106 97.9289 93.9296C96.7099 95.1486 95.0566 95.8334 93.3327 95.8334H60.666C58.9421 95.8334 57.2888 95.1486 56.0698 93.9296C54.8508 92.7106 54.166 91.0573 54.166 89.3334V56.6667C54.166 54.9428 54.8508 53.2895 56.0698 52.0706C57.2888 50.8516 58.9421 50.1667 60.666 50.1667ZM95.3361 91.3369C95.8675 90.8055 96.166 90.0849 96.166 89.3334V56.6667C96.166 55.9153 95.8675 55.1946 95.3362 54.6633C94.8048 54.1319 94.0841 53.8334 93.3327 53.8334H60.666C59.9146 53.8334 59.1939 54.1319 58.6625 54.6633C58.1312 55.1946 57.8327 55.9153 57.8327 56.6667V89.3334C57.8327 90.0849 58.1312 90.8055 58.6625 91.3369C59.1939 91.8682 59.9146 92.1667 60.666 92.1667H93.3327C94.0841 92.1667 94.8048 91.8682 95.3361 91.3369Z" fill="white" stroke="white"/>
<defs>
<filter id="filter0_d_137_36307" x="0" y="0" width="154" height="154" filterUnits="userSpaceOnUse" color-interpolation-filters="sRGB">
<feFlood flood-opacity="0" result="BackgroundImageFix"/>
<feColorMatrix in="SourceAlpha" type="matrix" values="0 0 0 0 0 0 0 0 0 0 0 0 0 0 0 0 0 0 127 0" result="hardAlpha"/>
<feOffset dy="4"/>
<feGaussianBlur stdDeviation="16"/>
<feComposite in2="hardAlpha" operator="out"/>
<feColorMatrix type="matrix" values="0 0 0 0 0.172549 0 0 0 0 0.172549 0 0 0 0 0.172549 0 0 0 0.06 0"/>
<feBlend mode="normal" in2="BackgroundImageFix" result="effect1_dropShadow_137_36307"/>
<feBlend mode="normal" in="SourceGraphic" in2="effect1_dropShadow_137_36307" result="shape"/>
</filter>
</defs>
</svg>
