<svg width="154" height="154" viewBox="0 0 154 154" fill="none" xmlns="http://www.w3.org/2000/svg">
<g filter="url(#filter0_d_135_36240)">
<path d="M32 48C32 36.9543 40.9543 28 52 28H102C113.046 28 122 36.9543 122 48V98C122 109.046 113.046 118 102 118H52C40.9543 118 32 109.046 32 98V48Z" fill="#17B26A"/>
</g>
<path fill-rule="evenodd" clip-rule="evenodd" d="M58.3333 70.6667C59.622 70.6667 60.6667 71.7114 60.6667 73.0001V94.0001H93.3333V73.0001C93.3333 71.7114 94.378 70.6667 95.6667 70.6667C96.9553 70.6667 98 71.7114 98 73.0001V96.3334C98 97.6221 96.9553 98.6667 95.6667 98.6667H58.3333C57.0447 98.6667 56 97.6221 56 96.3334V73.0001C56 71.7114 57.0447 70.6667 58.3333 70.6667Z" fill="white"/>
<path fill-rule="evenodd" clip-rule="evenodd" d="M51.334 61.3333C51.334 60.0447 52.3787 59 53.6673 59H100.334C101.623 59 102.667 60.0447 102.667 61.3333V73C102.667 74.2887 101.623 75.3333 100.334 75.3333H53.6673C52.3787 75.3333 51.334 74.2887 51.334 73V61.3333ZM56.0007 63.6667V70.6667H98.0007V63.6667H56.0007Z" fill="white"/>
<path fill-rule="evenodd" clip-rule="evenodd" d="M76.9993 59C78.288 59 79.3327 60.0447 79.3327 61.3333V96.3333C79.3327 97.622 78.288 98.6667 76.9993 98.6667C75.7107 98.6667 74.666 97.622 74.666 96.3333V61.3333C74.666 60.0447 75.7107 59 76.9993 59Z" fill="white"/>
<path fill-rule="evenodd" clip-rule="evenodd" d="M77.1424 54.3754C78.8831 51.2104 82.1185 47.3333 87.4994 47.3333C89.6653 47.3333 91.7425 48.1937 93.2741 49.7252C94.8056 51.2568 95.666 53.334 95.666 55.4999C95.666 57.6659 94.8056 59.7431 93.2741 61.2746C91.7425 62.8062 89.6653 63.6666 87.4994 63.6666H76.9994C76.3003 63.6666 75.6381 63.3532 75.1949 62.8126C74.7517 62.272 74.5743 61.5611 74.7113 60.8756L76.9994 61.3333C74.7113 60.8756 74.7115 60.8749 74.7117 60.874L74.7121 60.8721L74.713 60.8675L74.7155 60.855L74.7234 60.8174C74.7298 60.7869 74.7388 60.7454 74.7503 60.6936C74.7734 60.5903 74.807 60.4458 74.8519 60.266C74.9417 59.907 75.0775 59.4046 75.2671 58.8059C75.6436 57.617 76.245 56.0071 77.1424 54.3754ZM80.14 58.9999H87.4994C88.4276 58.9999 89.3179 58.6312 89.9742 57.9748C90.6306 57.3184 90.9994 56.4282 90.9994 55.4999C90.9994 54.5717 90.6306 53.6814 89.9742 53.025C89.3179 52.3687 88.4276 51.9999 87.4994 51.9999C84.7136 51.9999 82.699 53.9561 81.2314 56.6244C80.7854 57.4352 80.4248 58.2547 80.14 58.9999ZM79.2866 61.7948C79.2865 61.7954 79.2865 61.7953 79.2866 61.7946L79.2866 61.7948Z" fill="white"/>
<path fill-rule="evenodd" clip-rule="evenodd" d="M66.5007 51.9999C65.5724 51.9999 64.6822 52.3687 64.0258 53.025C63.3694 53.6814 63.0007 54.5717 63.0007 55.4999C63.0007 56.4282 63.3694 57.3184 64.0258 57.9748C64.6822 58.6312 65.5724 58.9999 66.5007 58.9999H73.86C73.5752 58.2547 73.2146 57.4352 72.7686 56.6244C71.3011 53.9561 69.2864 51.9999 66.5007 51.9999ZM77.0007 61.3333C79.2887 60.8756 79.2885 60.8749 79.2883 60.874L79.288 60.8721L79.287 60.8675L79.2845 60.855L79.2766 60.8174C79.2702 60.7869 79.2612 60.7454 79.2497 60.6936C79.2266 60.5903 79.193 60.4458 79.1481 60.266C79.0584 59.907 78.9225 59.4046 78.7329 58.8059C78.3564 57.617 77.755 56.0071 76.8577 54.3754C75.1169 51.2104 71.8815 47.3333 66.5007 47.3333C64.3347 47.3333 62.2575 48.1937 60.7259 49.7252C59.1944 51.2568 58.334 53.334 58.334 55.4999C58.334 57.6659 59.1944 59.7431 60.7259 61.2746C62.2575 62.8062 64.3347 63.6666 66.5007 63.6666H77.0007C77.6997 63.6666 78.3619 63.3532 78.8051 62.8126C79.2483 62.272 79.4258 61.5611 79.2887 60.8756L77.0007 61.3333Z" fill="white"/>
<defs>
<filter id="filter0_d_135_36240" x="0" y="0" width="154" height="154" filterUnits="userSpaceOnUse" color-interpolation-filters="sRGB">
<feFlood flood-opacity="0" result="BackgroundImageFix"/>
<feColorMatrix in="SourceAlpha" type="matrix" values="0 0 0 0 0 0 0 0 0 0 0 0 0 0 0 0 0 0 127 0" result="hardAlpha"/>
<feOffset dy="4"/>
<feGaussianBlur stdDeviation="16"/>
<feComposite in2="hardAlpha" operator="out"/>
<feColorMatrix type="matrix" values="0 0 0 0 0.172549 0 0 0 0 0.172549 0 0 0 0 0.172549 0 0 0 0.06 0"/>
<feBlend mode="normal" in2="BackgroundImageFix" result="effect1_dropShadow_135_36240"/>
<feBlend mode="normal" in="SourceGraphic" in2="effect1_dropShadow_135_36240" result="shape"/>
</filter>
</defs>
</svg>
