<svg width="154" height="154" viewBox="0 0 154 154" fill="none" xmlns="http://www.w3.org/2000/svg">
<g filter="url(#filter0_d_137_36310)">
<path d="M32 48C32 36.9543 40.9543 28 52 28H102C113.046 28 122 36.9543 122 48V98C122 109.046 113.046 118 102 118H52C40.9543 118 32 109.046 32 98V48Z" fill="#0E8499"/>
</g>
<path fill-rule="evenodd" clip-rule="evenodd" d="M85.5477 53.8048C81.4112 51.9617 76.7898 51.5051 72.3727 52.5031C67.9555 53.5011 63.9793 55.9002 61.037 59.3426C58.0948 62.785 56.3441 67.0863 56.0462 71.605C55.7482 76.1237 56.9189 80.6176 59.3837 84.4166C61.8484 88.2156 65.4752 91.116 69.723 92.6854C73.9709 94.2547 78.6123 94.4089 82.9549 93.1249C87.2976 91.841 91.1088 89.1876 93.8203 85.5606C96.5317 81.9336 97.9981 77.5272 98.0007 72.9988V70.8534C98.0007 69.5648 99.0453 68.5201 100.334 68.5201C101.623 68.5201 102.667 69.5648 102.667 70.8534V73.0001C102.664 78.5349 100.872 83.9218 97.5579 88.3548C94.2439 92.7878 89.5857 96.0308 84.2781 97.6001C78.9704 99.1694 73.2976 98.981 68.1058 97.0629C62.914 95.1447 58.4813 91.5997 55.4688 86.9566C52.4563 82.3134 51.0254 76.8208 51.3896 71.298C51.7538 65.7751 53.8935 60.518 57.4896 56.3106C61.0857 52.1032 65.9455 49.1709 71.3442 47.9511C76.7429 46.7314 82.3913 47.2894 87.447 49.5421C88.6241 50.0666 89.1532 51.446 88.6287 52.6231C88.1042 53.8002 86.7248 54.3292 85.5477 53.8048Z" fill="white"/>
<path fill-rule="evenodd" clip-rule="evenodd" d="M101.982 52.6826C102.893 53.5934 102.894 55.0707 101.983 55.9824L78.6501 79.3391C78.2126 79.777 77.619 80.0232 76.9999 80.0233C76.3809 80.0235 75.7872 79.7776 75.3494 79.3399L68.3494 72.3399C67.4382 71.4287 67.4382 69.9513 68.3494 69.0401C69.2607 68.1289 70.738 68.1289 71.6493 69.0401L76.9985 74.3893L98.6819 52.6842C99.5927 51.7726 101.07 51.7718 101.982 52.6826Z" fill="white"/>
<defs>
<filter id="filter0_d_137_36310" x="0" y="0" width="154" height="154" filterUnits="userSpaceOnUse" color-interpolation-filters="sRGB">
<feFlood flood-opacity="0" result="BackgroundImageFix"/>
<feColorMatrix in="SourceAlpha" type="matrix" values="0 0 0 0 0 0 0 0 0 0 0 0 0 0 0 0 0 0 127 0" result="hardAlpha"/>
<feOffset dy="4"/>
<feGaussianBlur stdDeviation="16"/>
<feComposite in2="hardAlpha" operator="out"/>
<feColorMatrix type="matrix" values="0 0 0 0 0.172549 0 0 0 0 0.172549 0 0 0 0 0.172549 0 0 0 0.06 0"/>
<feBlend mode="normal" in2="BackgroundImageFix" result="effect1_dropShadow_137_36310"/>
<feBlend mode="normal" in="SourceGraphic" in2="effect1_dropShadow_137_36310" result="shape"/>
</filter>
</defs>
</svg>
