<svg width="154" height="154" viewBox="0 0 154 154" fill="none" xmlns="http://www.w3.org/2000/svg">
<g filter="url(#filter0_d_137_36311)">
<path d="M32 48C32 36.9543 40.9543 28 52 28H102C113.046 28 122 36.9543 122 48V98C122 109.046 113.046 118 102 118H52C40.9543 118 32 109.046 32 98V48Z" fill="#A74B3B"/>
</g>
<path fill-rule="evenodd" clip-rule="evenodd" d="M63 56.6667C62.3812 56.6667 61.7877 56.9125 61.3501 57.3501C60.9125 57.7877 60.6667 58.3812 60.6667 59V91.6667C60.6667 92.2855 60.9125 92.879 61.3501 93.3166C61.7877 93.7542 62.3812 94 63 94H91C91.6188 94 92.2123 93.7542 92.6499 93.3166C93.0875 92.879 93.3333 92.2855 93.3333 91.6667V59C93.3333 58.3812 93.0875 57.7877 92.6499 57.3501C92.2123 56.9125 91.6188 56.6667 91 56.6667H86.3333C85.0447 56.6667 84 55.622 84 54.3333C84 53.0447 85.0447 52 86.3333 52H91C92.8565 52 94.637 52.7375 95.9497 54.0503C97.2625 55.363 98 57.1435 98 59V91.6667C98 93.5232 97.2625 95.3037 95.9497 96.6164C94.637 97.9292 92.8565 98.6667 91 98.6667H63C61.1435 98.6667 59.363 97.9292 58.0503 96.6164C56.7375 95.3037 56 93.5232 56 91.6667V59C56 57.1435 56.7375 55.363 58.0503 54.0503C59.363 52.7375 61.1435 52 63 52H67.6667C68.9553 52 70 53.0447 70 54.3333C70 55.622 68.9553 56.6667 67.6667 56.6667H63Z" fill="white"/>
<path fill-rule="evenodd" clip-rule="evenodd" d="M65.334 51.9999C65.334 49.4226 67.4233 47.3333 70.0007 47.3333H84.0007C86.578 47.3333 88.6673 49.4226 88.6673 51.9999V56.6666C88.6673 59.2439 86.578 61.3333 84.0007 61.3333H70.0007C67.4233 61.3333 65.334 59.2439 65.334 56.6666V51.9999ZM84.0007 51.9999H70.0007V56.6666H84.0007V51.9999Z" fill="white"/>
<defs>
<filter id="filter0_d_137_36311" x="0" y="0" width="154" height="154" filterUnits="userSpaceOnUse" color-interpolation-filters="sRGB">
<feFlood flood-opacity="0" result="BackgroundImageFix"/>
<feColorMatrix in="SourceAlpha" type="matrix" values="0 0 0 0 0 0 0 0 0 0 0 0 0 0 0 0 0 0 127 0" result="hardAlpha"/>
<feOffset dy="4"/>
<feGaussianBlur stdDeviation="16"/>
<feComposite in2="hardAlpha" operator="out"/>
<feColorMatrix type="matrix" values="0 0 0 0 0.172549 0 0 0 0 0.172549 0 0 0 0 0.172549 0 0 0 0.06 0"/>
<feBlend mode="normal" in2="BackgroundImageFix" result="effect1_dropShadow_137_36311"/>
<feBlend mode="normal" in="SourceGraphic" in2="effect1_dropShadow_137_36311" result="shape"/>
</filter>
</defs>
</svg>
