<svg width="82" height="52" viewBox="0 0 82 52" fill="none" xmlns="http://www.w3.org/2000/svg">
<path d="M81.4006 37.5073C81.6651 34.1971 81.6991 30.8725 81.5023 27.5576C81.2694 23.8974 80.1305 20.8892 78.0177 18.3595C77.9011 18.2251 77.7744 18.0999 77.6388 17.9848L77.6706 17.9615L77.3361 17.7032C77.3014 17.6244 77.2526 17.5527 77.1921 17.4915L77.1604 17.4407H77.1498C76.8386 17.1655 76.5147 16.8966 76.2056 16.6278L75.8542 16.3293C73.8664 14.6357 71.4764 12.6733 68.8259 11.0856C63.8744 8.12185 59.6214 6.07264 55.4383 4.65216C51.9855 3.45935 48.4471 2.53086 44.8535 1.87472C42.2031 1.40052 39.4976 1.00253 36.8789 0.619362L34.707 0.289117C32.7659 -0.00306977 30.7979 -0.0740892 28.8409 0.0774212C25.0769 0.388614 21.1055 1.08933 16.3339 2.28752C13.7089 2.9459 11.7782 3.90064 10.2561 5.29783C8.37866 7.01401 6.83046 9.05867 5.68772 11.3312C5.26433 12.1779 4.84094 13.0459 4.43236 13.8842C4.04285 14.6759 3.64062 15.5037 3.23417 16.306C2.94415 16.8797 2.62448 17.4534 2.31541 17.9996C2.127 18.3404 1.93859 18.6812 1.75442 19.0242C1.31621 19.8371 1.70996 20.2943 2.1524 20.6373C2.26519 20.7445 2.33957 20.8859 2.3641 21.0395C2.46148 21.6471 2.20744 22.206 1.94071 22.7966C1.8645 22.9702 1.78617 23.1395 1.72901 23.311C1.56603 23.6166 1.34448 23.887 1.07699 24.107C0.945739 24.2319 0.810254 24.3631 0.685353 24.5007C0.551229 24.6379 0.455276 24.8077 0.407004 24.9934C0.358731 25.1791 0.359815 25.3741 0.410149 25.5592C0.465952 25.7408 0.567807 25.9049 0.705805 26.0355C0.843803 26.1661 1.01325 26.2587 1.19766 26.3044C1.5092 26.3804 1.81054 26.4934 2.09525 26.641L2.27307 26.7447C2.90634 27.0939 3.51339 27.4887 4.08942 27.926C4.1995 28.0128 4.52763 28.2753 4.17833 28.8934C4.02591 29.1602 3.85232 29.4417 3.60887 29.8037C2.9632 30.7712 3.2257 31.3512 3.85867 31.9715C4.53186 32.6341 5.19235 33.0024 5.94175 33.1337C6.02362 33.1519 6.10368 33.1774 6.18097 33.2099C6.31704 33.2652 6.45915 33.3043 6.60436 33.3263C6.745 33.3431 6.88712 33.3431 7.02775 33.3263C7.11879 33.3103 7.21192 33.3103 7.30296 33.3263C8.08505 33.6439 8.8484 34.0057 9.58927 34.4102C10.9251 35.166 11.4564 36.1334 11.2595 37.4565C11.2428 37.6537 11.2723 37.8521 11.3458 38.0359C11.4193 38.2197 11.5348 38.3838 11.6829 38.515C12.5509 39.2009 13.6475 39.5375 14.9431 39.5205C17.1193 39.4867 18.9653 40.0985 20.5742 41.3877C20.8155 41.5803 21.0441 41.7857 21.3109 42.0228L21.7342 42.3911L22.2889 42.8759C22.3609 43.0029 22.4307 43.1257 22.5006 43.2464L22.6043 43.4284C22.7223 43.6486 22.8545 43.8607 23.0002 44.0635C23.7581 45.0606 24.8758 45.122 25.8708 45.0564C26.3915 45.0204 26.9081 44.9315 27.4077 44.8447C27.7337 44.7896 28.0703 44.7325 28.4005 44.6923C30.672 44.4086 32.4228 44.7156 33.8877 45.6576C35.2066 46.5044 36.0406 47.4231 36.5169 48.5642C36.6244 48.8718 36.8005 49.1509 37.0319 49.3802C37.2633 49.6096 37.5439 49.7832 37.8525 49.8879C38.161 49.9926 38.4894 50.0256 38.8126 49.9844C39.1358 49.9432 39.4454 49.8289 39.7178 49.6502C40.0112 49.4791 40.2774 49.265 40.5074 49.0151C40.5916 48.9112 40.7016 48.8312 40.8265 48.7833C40.9513 48.7353 41.0866 48.7211 41.2187 48.742C43.414 49.0236 45.749 49.4004 47.9443 50.2556C48.2279 50.3657 48.5137 50.4673 48.7911 50.5732C49.115 50.6917 49.4515 50.8124 49.7754 50.9415C49.8626 50.984 49.945 51.0359 50.021 51.0961C50.1006 51.1571 50.184 51.213 50.2708 51.2633C50.3745 51.3226 50.4825 51.3861 50.5841 51.4517C50.8773 51.6513 51.1955 51.8114 51.5304 51.928C51.6876 51.9754 51.851 51.9996 52.0152 52C52.5444 52 52.9869 51.7396 53.3848 51.5025C53.5772 51.3802 53.7798 51.2746 53.9903 51.1871C54.0851 51.1508 54.1705 51.0937 54.2401 51.0199V51.1384L55.3261 51.0495C55.7855 51.0114 56.2364 50.9754 56.6873 50.9352C59.1684 50.7235 61.1901 50.9352 63.0509 51.6189C63.4009 51.7468 63.7706 51.812 64.1432 51.8116C64.6066 51.8072 65.0655 51.7198 65.4981 51.5533C65.9913 51.3691 66.9101 51.0262 67.0265 49.9148C67.0925 49.7297 67.2234 49.5748 67.3949 49.4787L67.4901 49.4258C68.3683 48.9147 69.2808 48.4648 70.221 48.0794C71.4531 47.6073 72.4375 47.6391 73.316 48.1831C73.4124 48.2363 73.5195 48.2672 73.6294 48.2734C73.7394 48.2797 73.8493 48.2611 73.9511 48.2191C74.3469 48.0561 74.7386 47.8846 75.1556 47.7026L75.9093 47.3723L75.7949 47.0506C75.3165 45.7253 75.9664 45.0479 77.2514 44.3239C77.3829 44.2339 77.5325 44.1736 77.6897 44.1473C77.8469 44.121 78.008 44.1292 78.1617 44.1715C78.495 44.2564 78.8476 44.2228 79.1588 44.0762C79.441 43.9291 79.7108 43.7592 79.9653 43.5682C80.0712 43.4941 80.177 43.42 80.2829 43.3565C80.3528 43.3099 80.4226 43.2549 80.4946 43.2019C80.7677 42.9902 80.8142 42.9754 80.9667 43.0749L81.5213 43.4411V42.7764C81.5213 42.7489 81.5213 42.7235 81.5213 42.6981C81.5306 42.6165 81.5306 42.5341 81.5213 42.4525C81.2122 40.7166 81.2884 38.9807 81.4006 37.5073ZM80.4903 42.1329L80.2787 42.2112C80.3041 41.9402 80.3252 41.6735 80.3464 41.411C80.3803 41.6502 80.429 41.8915 80.4903 42.1329ZM6.99176 18.7955C7.3707 19.5873 7.44056 20.4235 7.51677 21.3063C7.58451 22.1149 7.65649 22.9511 7.98038 23.7471L8.0206 23.8487C7.37282 25.2713 6.66999 26.7045 5.64538 27.9726C5.5547 27.6334 5.3923 27.3177 5.16916 27.0468C4.94602 26.7758 4.66734 26.5558 4.35192 26.4018C3.81356 26.1173 3.25782 25.867 2.68799 25.6524C2.4763 25.5677 2.2646 25.4809 2.05291 25.392L2.50594 24.9305C3.1518 24.3041 3.7564 23.6366 4.31593 22.9321C5.08077 21.8671 5.76571 20.747 6.36515 19.5809C6.55567 19.2338 6.72715 18.895 6.88592 18.5627L6.99176 18.7955ZM3.60464 20.8638C3.50932 20.4732 3.29829 20.1205 2.99919 19.8519L3.0881 19.7101C3.53478 19.0094 3.95817 18.2811 4.38156 17.5317C4.27359 17.8831 4.16986 18.2388 4.09789 18.5902L3.60464 20.8638ZM20.8938 39.9503C19.4683 39.0361 17.8488 38.4677 16.1645 38.2906L15.938 38.2652C17.0634 36.2364 18.0597 34.1385 18.9208 31.9842L19.685 32.0371C21.2219 32.1408 22.4371 32.8458 23.3707 34.1922L24.2428 35.4391C23.7094 37.556 23.1484 39.5735 22.1449 41.3898C21.903 40.7821 21.4619 40.2746 20.8938 39.9503ZM54.7249 49.8852C54.8028 49.6685 54.8672 49.4472 54.9175 49.2226C54.9472 49.1104 54.9747 48.9982 55.0064 48.886C55.1102 48.524 55.2054 48.1535 55.2965 47.7957C55.478 46.9952 55.7222 46.2103 56.0268 45.448C57.0091 43.1744 58.2263 41.6989 59.8564 40.7907C59.9306 40.7468 59.9954 40.6885 60.0469 40.6192L60.2459 40.4076L59.8754 39.7555L59.5664 39.9101C59.4118 39.9863 59.2552 40.0583 59.0985 40.1218C58.7241 40.2768 58.3649 40.466 58.0252 40.687C56.2279 41.936 54.9705 43.7227 54.1851 46.153C53.7978 47.3817 53.5347 48.6462 53.3997 49.9275C53.3298 50.533 53.0207 50.7468 52.4365 50.9479C52.2935 51.0045 52.1398 51.0293 51.9863 51.0205C51.8327 51.0118 51.6829 50.9696 51.5473 50.8971C51.4321 50.8248 51.3344 50.7279 51.2612 50.6133C51.188 50.4988 51.1411 50.3694 51.1239 50.2345C51.0564 49.711 51.0779 49.18 51.1875 48.6637C51.2615 48.2403 51.3716 47.8169 51.4754 47.3935C51.6233 46.8514 51.7413 46.3016 51.8289 45.7465C52.0758 44.1906 51.9709 42.5992 51.5219 41.0892C51.4223 40.8021 51.2917 40.5267 51.1324 40.2678C51.071 40.162 51.0096 40.0561 50.9546 39.9461L50.7768 39.5989L50.0866 40.0223L50.1734 40.2975C50.7217 42.0228 50.5968 43.8158 50.364 45.4967C50.2348 46.4663 50.0147 47.4316 49.803 48.3652C49.7395 48.6474 49.6781 48.9205 49.6188 49.1844L48.7106 48.9071C47.7072 48.5896 46.6699 48.2615 45.6114 48.0074C44.2729 47.6632 42.895 47.4959 41.513 47.5099C41.5828 47.2982 41.6506 47.0971 41.7247 46.8897C42.0104 46.0217 42.2814 45.1961 42.5714 44.3641C42.8615 43.5322 43.1494 42.7129 43.4352 41.9106C43.5622 41.5549 43.6913 41.1972 43.8162 40.8415L43.9284 40.5282L43.0943 40.1472L42.9271 40.4266C42.8318 40.5875 42.7302 40.7441 42.6265 40.9008C42.3749 41.2654 42.1573 41.6523 41.9766 42.0567C41.6739 42.7891 41.3986 43.5385 41.1298 44.271C40.9181 44.8278 40.7064 45.4036 40.4947 45.9646C40.2068 46.7013 39.8406 47.5332 39.1547 48.1027C38.8477 48.3567 38.545 48.4626 38.3269 48.3927C38.1089 48.3228 37.9649 48.1006 37.8739 47.7576C37.6899 47.0147 37.601 46.2514 37.6093 45.4861C37.6093 44.5039 37.6411 43.5047 37.6686 42.5393C37.6961 41.6079 37.7257 40.6446 37.73 39.6941C37.7187 39.1626 37.6685 38.6327 37.5797 38.1085C37.5479 37.8799 37.514 37.6513 37.4886 37.4226L37.4505 37.0776L36.6037 37.1305L36.5445 38.1043C36.1069 37.2101 35.4686 36.4291 34.6794 35.8222C34.1974 35.4546 33.6283 35.218 33.0277 35.1357C32.427 35.0533 31.8153 35.1279 31.2521 35.3523C31.0189 35.4481 30.8041 35.5835 30.617 35.7524C30.545 35.8095 30.4752 35.8667 30.4053 35.9175L30.1005 36.1292L30.5768 36.7854L30.8499 36.6605C31.9464 36.1588 32.9668 36.2096 33.911 36.8151C34.285 37.0775 34.6312 37.3775 34.944 37.7105C35.0668 37.8333 35.1896 37.9561 35.3166 38.0747C35.4526 38.2087 35.5812 38.3501 35.7019 38.4981L35.8903 38.7098L36.138 38.9871L36.5169 38.6314L36.0936 45.7211C34.4233 44.3451 32.7064 43.6274 31.0023 43.583C29.9766 43.5786 28.9517 43.6436 27.9348 43.7777L27.0351 43.8709L27.0563 43.8391C27.4321 43.3157 27.7723 42.7676 28.0745 42.1985C28.4156 41.4699 28.7042 40.7179 28.9382 39.9482L29.0589 39.5883C29.1224 39.3956 29.1965 39.2072 29.2706 39.0188C29.5225 38.3668 29.7829 37.6936 29.7342 36.9188L29.6538 35.5788L29.0462 36.777C28.5921 37.6721 28.1858 38.5908 27.829 39.529C27.2341 41.0807 26.7027 42.3552 25.712 43.4306C25.6498 43.516 25.5673 43.5845 25.4719 43.63C25.3766 43.6754 25.2713 43.6964 25.1658 43.6909C25.0003 43.6905 24.8368 43.6533 24.6874 43.5819C24.5381 43.5105 24.4064 43.4067 24.3021 43.2781C24.1751 43.1363 24.0587 42.9839 23.9338 42.823C23.8089 42.6621 23.667 42.4758 23.5104 42.3086L23.4829 42.2768C23.4953 42.2464 23.5094 42.2167 23.5252 42.1879C24.7967 39.8771 25.4089 37.2613 25.295 34.6261C25.2911 34.5354 25.282 34.4449 25.2674 34.3552L25.0155 32.2954L24.4312 34.641L24.2852 35.2274L24.0163 33.9064C23.7708 32.7039 22.7017 31.7556 21.7512 31.3491C20.9044 30.9892 20.0873 30.9934 19.5051 31.3491L19.0415 31.6412C19.2532 31.1353 19.4437 30.6378 19.6279 30.1594L18.9886 29.8545C18.6308 30.4663 18.3217 31.0845 17.983 31.7598L17.2082 33.3327C16.4461 34.8851 15.6805 36.4375 14.9113 37.99C14.8774 38.0653 14.8347 38.1363 14.7843 38.2017C13.9904 38.2969 13.3532 38.2821 12.7859 37.9625C13.5134 37.3471 14.0991 36.5816 14.5027 35.7185C15.4067 33.8132 15.9634 31.836 16.5011 29.791C16.6281 29.3098 16.7573 28.8292 16.8885 28.3494L17.6189 25.6206L16.408 27.3904C15.9339 28.0582 15.5315 28.7742 15.2077 29.5264C14.869 30.3478 14.5472 31.1882 14.2339 32.0011C13.9079 32.8479 13.5734 33.718 13.222 34.5669C13.0694 34.9146 12.8904 35.25 12.6864 35.5703C12.6029 35.2659 12.4653 34.979 12.2799 34.7235C11.834 34.1858 11.3128 33.7152 10.7324 33.3263C9.97456 32.7987 9.11987 32.426 8.21748 32.2298L8.34027 32.0519C8.66628 31.5798 9.00499 31.0908 9.29713 30.5828C9.69512 29.8863 10.0296 29.1475 10.3556 28.434L10.4085 28.3155C10.6435 27.7968 10.8637 27.257 11.0775 26.7489C11.1685 26.5373 11.2595 26.3044 11.3527 26.0842L11.8481 26.3213C12.6186 26.6876 12.9827 27.3798 13.404 28.1927C13.6066 28.6046 13.8372 29.0021 14.0942 29.3824L14.7843 30.3626L14.7546 29.1644C14.725 27.8815 14.0666 26.4695 13.2241 25.8789C13.0368 25.7341 12.8171 25.6373 12.584 25.5967C12.3508 25.5561 12.1113 25.573 11.8862 25.646L11.4755 25.7857L11.4966 25.7349L10.7176 25.3941L10.0973 26.605C9.74804 27.2972 9.39874 27.9895 9.0558 28.686C8.52021 29.772 7.91476 31.0019 6.93884 31.9291C6.87083 32.0085 6.7863 32.0721 6.69116 32.1154C6.00738 32.2552 4.97642 31.8296 4.43872 31.2348C6.59801 29.5941 7.521 28.542 8.30216 26.8717C9.17646 25.0025 10.345 21.6683 10.1164 20.8956L9.86236 20.0488L9.43896 20.8363C9.1807 21.3232 8.93936 21.827 8.7065 22.3309C8.7065 22.1594 8.6938 21.9943 8.67898 21.8313C8.61547 20.9104 8.50962 20.1165 8.39107 19.3862C8.3517 19.133 8.24158 18.8961 8.0734 18.7029C7.90523 18.5096 7.68585 18.3678 7.44056 18.2938L7.06798 18.1647C7.38143 17.4747 7.64048 16.7612 7.84278 16.0308L8.35297 14.1658L7.19923 15.7175C6.5218 16.6278 5.92905 17.6228 5.35536 18.5606C4.87693 19.3544 4.38156 20.1567 3.84808 20.9273L4.77955 18.8252C5.00394 18.3213 5.25798 17.8175 5.50354 17.3285C6.13863 16.0583 6.80336 14.7352 7.04892 13.2428L7.36858 11.3058C7.93015 10.2164 8.56677 9.16738 9.27384 8.16631C10.9441 5.82284 12.9319 4.37696 15.3707 3.74399C18.6829 2.88827 22.0446 2.23713 25.4368 1.79427C27.6088 1.5106 29.9396 1.27562 32.283 1.52119C34.1057 1.70748 35.9538 1.94458 37.7723 2.24942L38.8689 2.42936C41.5172 2.85275 44.2544 3.30578 46.9133 3.86889C52.2194 4.95113 57.3874 6.62481 62.3205 8.85855C66.4084 10.7342 69.8802 12.7982 72.9222 15.1713L75.7103 17.3497L76.7476 18.1605H76.7582L76.9317 18.4822L76.9677 18.4547C76.9804 18.4695 76.9889 18.4865 76.9995 18.5013C77.7722 19.5238 78.6465 20.6818 79.1164 22.0472C79.7025 23.7848 80.0133 25.6033 80.0373 27.437C80.0627 28.4086 80.103 29.393 80.1432 30.3457C80.2046 31.8275 80.2681 33.3623 80.2723 34.8717C80.213 34.3615 80.1432 33.8598 80.0606 33.3666L79.8722 32.27L79.3747 33.2649C79.2981 33.4227 79.2666 33.5985 79.2837 33.773C79.3049 34.1456 79.1863 34.3933 78.8603 34.6875C78.3415 35.1463 77.8469 35.6318 77.3784 36.1419L77.4292 35.9598L78.0368 33.665L76.7666 35.6889C76.5676 35.9936 76.3927 36.3136 76.2437 36.6457C74.6412 40.4097 74.0104 43.6931 74.2559 46.9659C74.2528 46.9833 74.2479 47.0003 74.2411 47.0167C74.03 47.0843 73.806 47.1017 73.587 47.0675C72.1982 46.5044 70.7206 46.5869 69.0694 47.3215C68.4809 47.5819 67.9262 47.8952 67.3885 48.1979L67.2234 48.2911C67.1726 46.0217 67.5155 44.1016 68.2819 42.4674L68.1104 43.1278L68.9572 42.4525C69.1689 42.2853 69.3806 42.1011 69.5923 41.9212C70.0511 41.4856 70.5608 41.1067 71.1101 40.7928C71.6925 40.5248 72.3042 40.3259 72.9328 40.2001C73.2355 40.126 73.5489 40.0498 73.8643 39.9566L74.8148 39.6814L73.9109 39.275C73.3979 39.0458 72.8404 38.9336 72.2788 38.9464C71.7172 38.9592 71.1654 39.0968 70.6634 39.3491C70.6126 39.3724 70.5639 39.3978 70.5153 39.4253C70.8726 39.0958 71.2501 38.7889 71.6457 38.5065L71.2647 37.8884C68.3856 39.4147 66.6455 41.8301 66.0929 45.067C65.9134 46.2862 65.8165 47.5161 65.8029 48.7484C65.7881 49.159 65.7754 49.5697 65.7542 49.9804C65.7608 50.1124 65.7304 50.2435 65.6664 50.3591C65.6025 50.4746 65.5075 50.5701 65.3922 50.6346C65.1972 50.7605 64.9746 50.8373 64.7434 50.8583C64.5122 50.8793 64.2794 50.844 64.0649 50.7552C63.6716 50.5775 63.2917 50.3717 62.9281 50.1392C62.8582 50.0947 62.7862 50.0524 62.7164 50.0101C63.7198 48.1874 63.8765 46.1784 64.0268 44.2329C64.048 43.9408 64.0712 43.6465 64.0966 43.3544L64.1961 42.2091L63.7727 42.7044C63.7356 42.3959 63.5945 42.1092 63.3726 41.8915C63.0766 41.5925 62.6877 41.4029 62.2697 41.3538C61.758 41.2893 61.2417 41.2688 60.7265 41.2924C59.8924 41.3369 58.8381 41.5041 58.076 42.4462L56.7635 44.0614L58.5481 42.9881C59.2134 42.549 60.024 42.3872 60.8069 42.5372C61.3869 42.6621 61.9733 42.842 62.5407 43.0156C62.7968 43.094 63.053 43.1723 63.3091 43.2464H63.324C63.2124 43.4012 63.1332 43.5769 63.0911 43.7629C63.0255 44.0678 62.9683 44.3747 62.9112 44.6796C62.8286 45.1199 62.7439 45.5729 62.6338 46.0069C62.4116 46.8981 62.1618 47.8021 61.9183 48.6764C61.8336 48.9855 61.7468 49.2945 61.6621 49.6036C61.6563 49.6259 61.6493 49.6478 61.641 49.6692C61.5784 49.6766 61.5152 49.6766 61.4526 49.6692C60.3016 49.5133 59.1422 49.4277 57.9808 49.4131C57.2148 49.443 56.4531 49.5422 55.705 49.7095L55.2689 49.792C55.0705 49.8209 54.8785 49.8839 54.7016 49.9783C54.7016 49.9381 54.7101 49.9106 54.7206 49.8852H54.7249ZM76.7709 38.3605H76.8619L79.2392 35.6804L78.8455 42.9288L78.7439 42.95C78.6278 42.9845 78.5071 43.001 78.3861 42.9987C78.0991 42.8775 77.7849 42.8356 77.4762 42.8773C77.1675 42.919 76.8757 43.0428 76.6311 43.2358C76.3009 43.4793 75.9961 43.7502 75.6849 44.0191C75.8076 42.1075 76.267 40.2128 76.7666 38.3605H76.7709Z" fill="#0E8499"/>
<path d="M62.113 25.5042C62.6973 25.5042 63.2837 25.4449 63.8489 25.3941C64.1114 25.3708 64.3718 25.3454 64.6343 25.3264L64.9942 25.301L64.9392 24.469H64.5877L64.1897 24.4859C63.9103 24.4986 63.6457 24.5135 63.3832 24.5008L62.3544 24.4563C60.0913 24.3568 57.75 24.2446 55.451 24.1239C51.3818 23.9265 47.3411 23.3388 43.3843 22.369C38.2888 21.0988 33.9257 19.6677 30.0475 18.0123C26.0486 16.3166 23.0679 14.4008 20.6821 11.998C20.1571 11.473 19.5876 10.9882 19.0372 10.5161C18.7853 10.3044 18.5312 10.0928 18.2836 9.86624L18.0465 9.65454L17.4114 10.1986L17.549 10.4569C17.6083 10.5669 17.6633 10.6813 17.7205 10.7935C17.8427 11.0623 17.9842 11.3219 18.1438 11.5704C19.6286 13.7188 21.5079 15.5658 23.6818 17.0131C26.1989 18.7066 29.0864 19.9938 32.7635 21.0819C34.3513 21.5518 35.9855 21.9286 37.5669 22.3139L38.3608 22.5023C41.6399 23.292 45.4505 24.1642 49.3076 24.6786C53.2731 25.2201 57.2703 25.4973 61.2726 25.5084C61.5541 25.5084 61.8336 25.5084 62.113 25.5042Z" fill="#0E8499"/>
<path d="M47.0573 39.3809C46.7279 39.2502 46.3714 39.2025 46.0192 39.242C45.6671 39.2815 45.33 39.407 45.0377 39.6074C44.9164 39.6797 44.8113 39.7762 44.729 39.8909C44.6467 40.0057 44.5889 40.1362 44.5593 40.2742C44.5407 40.3928 44.5475 40.5139 44.5793 40.6296C44.611 40.7453 44.667 40.8529 44.7435 40.9453L44.9552 41.2269L45.2452 41.0258C46.1407 40.4055 46.9028 40.7569 47.7855 41.1634C48.0417 41.2798 48.3063 41.4026 48.5773 41.5L49.441 41.8112L49.0176 40.9919C48.6387 40.2383 47.9909 39.7111 47.0573 39.3809Z" fill="#0E8499"/>
</svg>
