<svg width="327" height="344" viewBox="0 0 327 344" fill="none" xmlns="http://www.w3.org/2000/svg">
<g clip-path="url(#clip0_69_9858)">
<path d="M322.749 185.011C321.131 180.184 319.205 175.465 316.981 170.885C311.864 160.278 305.571 149.731 297.735 138.648C297.411 138.193 297.091 137.776 296.81 137.41L296.716 137.291C296.52 137.035 296.217 136.644 296.047 136.401C295.906 135.869 295.787 135.026 295.667 134.214V134.171C295.599 133.673 295.527 133.179 295.445 132.673C295.416 132.507 295.39 132.341 295.36 132.175C296.294 131.941 297.356 131.749 298.502 131.549L299.909 131.298C303.212 130.696 306.475 129.897 309.681 128.906C312.38 128.055 316.077 126.927 319.279 123.799C321.917 121.226 323.745 117.938 324.536 114.342C325.879 108.153 323.977 101.731 318.891 95.2654C314.828 90.0899 310.193 86.0977 305.124 83.4035C302.767 82.1913 300.348 81.1044 297.876 80.1475L297.637 80.0497C297.04 79.8071 296.439 79.5645 295.829 79.3091C292.73 78.0067 289.711 76.7554 286.842 75.602L285.264 74.9635L284.322 74.5805C279.133 72.4524 273.765 70.2945 268.248 68.4814C261.992 66.4857 255.533 65.1909 248.99 64.6211C242.897 64.038 236.259 63.7103 229.25 63.6379C228.789 63.2123 228.325 62.7654 227.851 62.31L227.51 61.9865C227.084 61.595 226.692 61.2076 226.304 60.8459C223.984 58.6582 221.674 56.5557 219.725 54.7894C214.144 49.733 208.32 44.4554 202.185 39.2459L202.232 39.1693C203.003 37.643 203.439 35.9699 203.511 34.2619V34.0193C203.575 33.2021 203.613 32.4403 203.647 31.6954V31.3039C203.738 29.9138 203.677 28.5181 203.464 27.1413C203.285 26.081 203.049 25.031 202.756 23.996C202.148 21.8197 201.314 19.7128 200.266 17.7097C199.763 16.7435 199.209 15.7944 198.621 14.8879L198.45 14.624C197.698 13.3482 196.771 12.1836 195.696 11.1637C193.597 9.28076 190.84 8.29905 188.022 8.43127C186.63 8.49666 185.266 8.83867 184.009 9.43724C182.752 10.0358 181.627 10.8789 180.701 11.9171C177.908 15.0368 177.819 18.6503 178.007 20.889C172.296 17.1175 166.342 13.7251 160.185 10.7339C147.744 4.74969 135.538 1.21708 123.907 0.238165C117.044 -0.386618 110.126 0.148655 103.442 1.82146C99.6599 2.79186 96.7053 4.11978 94.1344 6.001C91.2991 8.08652 89.2185 10.6402 87.5686 12.6874L87.1848 13.1556C85.4499 15.2141 83.9286 17.443 82.6442 19.808C80.8968 21.8246 79.5133 24.1288 78.5555 26.6178C78.2485 27.3414 77.9543 28.116 77.6814 28.9332L77.3617 29.9632C77.3062 30.1632 77.2593 30.3888 77.2167 30.5761C76.5559 32.9467 76.138 35.2578 75.7245 37.4753C75.6307 37.9946 75.5369 38.5095 75.4345 39.0331C73.8229 47.5113 72.7016 54.0658 71.7892 60.2841C70.6466 68.1239 70.2075 76.0318 69.9261 82.7395C69.7342 87.3702 69.7044 91.7711 69.8323 96.0188C69.0492 95.5121 68.2249 95.0722 67.368 94.7036C62.8188 92.716 58.2525 93.1927 54.3812 93.929L54.1084 93.9801C49.2735 94.8909 44.3364 95.8272 39.4205 96.9594C40.0115 95.7082 40.288 94.332 40.2263 92.9501C40.2775 92.8692 40.3329 92.7671 40.4054 92.6479L40.4992 92.4947C41.6126 90.7981 42.3308 88.874 42.6011 86.8638C43.0658 82.8672 41.4798 79.1559 37.9112 75.8275C34.6691 72.8229 30.4306 71.118 26.0074 71.0394C23.6631 71.0505 21.3372 71.4533 19.1261 72.2311H19.0622C18.5351 72.4039 17.9984 72.546 17.4548 72.6567C11.5967 72.9887 8.97038 76.8235 7.84907 78.4621L7.77659 78.5643C7.62736 78.7856 7.48667 78.9899 7.40992 79.0835C5.50413 81.3818 3.67934 83.7014 2.29369 86.8638C0.99006 89.8588 0.227916 93.0606 0.0425439 96.3209C-0.0333492 97.4559 -0.00766624 98.5954 0.119287 99.7259C0.0645247 100.521 0.124835 101.319 0.298356 102.097C0.531255 103.106 0.823095 104.101 1.17238 105.076L1.21928 105.212C1.35571 105.604 1.47509 105.948 1.54331 106.204V106.268C2.13494 108.341 3.5109 110.104 5.38048 111.183C6.2158 111.705 7.13659 112.075 8.10062 112.277C10.4215 112.779 12.8466 112.367 14.8711 111.128C14.544 112.68 14.4863 114.277 14.7006 115.848C15.1269 119.202 15.8048 122.428 16.4486 125.535L16.5381 125.961C16.875 127.604 17.2246 129.302 17.506 130.894L17.6424 131.664C17.8878 133.376 18.2859 135.062 18.8319 136.703C18.7594 137.006 18.6955 137.333 18.6443 137.678C18.218 140.568 18.9726 142.998 19.416 144.454L19.4629 144.624C19.5141 144.794 19.5695 144.96 19.6121 145.148C20.0641 147.029 20.4649 149.102 20.8017 151.668C21.1513 154.145 21.3517 156.699 21.5137 159.091V159.363C21.616 161.27 21.9102 166.194 26.2249 169.059C28.459 170.544 30.8167 170.697 32.0702 170.761H32.245C33.2682 170.919 34.2403 171.068 35.2934 171.187C38.1444 171.584 41.0274 171.702 43.9015 171.54C44.9882 171.46 46.068 171.305 47.1332 171.076C48.9708 172.038 50.6677 172.923 52.3902 173.8L52.2751 174.145C48.8732 184.607 48.2619 195.773 50.5014 206.543C52.4328 215.693 56.5301 224.819 62.4393 233.386C58.45 231.857 54.338 230.668 50.1476 229.832C45.2019 228.883 41.1302 229.628 38.0349 232.046C34.2787 234.978 33.2768 239.545 35.3446 243.878C35.3446 244.303 35.3446 244.844 35.3915 245.452C35.505 247.051 35.7373 248.638 36.0864 250.202C36.6981 252.822 37.6168 255.361 38.8236 257.766C41.0449 262.222 44.0464 265.95 46.6898 269.257L47.0522 269.708C50.5227 274.028 53.989 278.144 56.918 281.6C63.5649 289.419 70.1137 297.08 77.1997 304.358C78.9605 306.167 80.7128 307.907 82.4012 309.537C82.9981 310.112 83.5907 310.67 84.2387 311.278L83.6248 312.827C82.4287 315.62 81.4938 318.516 80.8322 321.48C80.332 324.082 80.1374 326.733 80.2523 329.38C80.2523 329.575 80.2523 330.082 80.2225 330.308C80.1372 332.121 80.0051 334.857 81.2074 337.705C82.9128 341.697 86.4558 343.983 90.9623 343.983C93.8573 343.983 96.5049 343.029 97.946 342.514H97.9886L98.4576 342.348C106.435 339.705 114.233 334.794 122.969 326.894C126.51 323.78 129.83 320.426 132.907 316.854L133.679 315.926C134.203 315.283 135.729 313.432 136.48 312.913C137.218 313.031 137.95 313.189 138.671 313.385C139.596 313.611 140.858 313.921 142.218 314.13C144.847 314.521 147.5 314.72 150.157 314.726C155.056 314.726 159.797 314.215 164.397 313.7L166.192 313.504C176.585 312.441 186.852 310.393 196.856 307.388C206.552 304.356 216 300.581 225.114 296.097C244.198 286.814 259.223 276.135 271.088 263.443C278.038 255.999 283.495 247.934 287.289 239.464C288.321 237.166 290.461 234.65 292.525 232.229C292.862 231.837 293.224 231.411 293.595 230.952C295.673 231.535 297.786 231.984 299.922 232.297C304.898 233.054 310.688 233.68 316.477 231.488C318.332 230.79 322.672 229.147 324.843 224.776C326.198 222.035 326.437 218.988 326.595 216.962L326.62 216.668C326.637 216.464 326.655 216.268 326.672 216.081C327.661 206.343 326.335 195.885 322.749 185.011Z" fill="white"/>
<path d="M314.857 187.594C313.351 183.114 311.563 178.732 309.502 174.477C304.19 163.625 297.984 153.232 290.947 143.407C290.065 142.164 288.816 140.828 288.295 139.398C287.69 137.695 287.532 135.784 287.247 134.005C287.008 132.55 286.688 131.077 286.539 129.613C286.313 127.425 287.392 126.634 289.097 125.693C291.962 124.114 295.19 123.714 298.366 123.139C301.347 122.595 304.294 121.876 307.191 120.986C309.489 120.271 311.711 119.568 313.472 117.857C314.94 116.429 315.955 114.601 316.392 112.601C317.36 108.149 314.998 103.799 312.329 100.403C309.276 96.5127 305.584 93.0737 301.197 90.7413C298.447 89.2772 295.479 88.1877 292.61 86.9789C289.68 85.7418 286.729 84.5217 283.759 83.3186C277.79 80.9054 271.787 78.3942 265.66 76.3768C259.98 74.5717 254.118 73.3984 248.18 72.8783C241.785 72.2696 235.24 71.9845 228.802 71.9334C226.871 71.9334 225.694 71.6993 224.244 70.3501C223.012 69.2009 221.801 68.0305 220.578 66.8771C218.446 64.8682 216.284 62.8933 214.118 60.9184C196.48 44.9366 178.185 28.6185 156.561 18.1994C146.158 13.1941 134.778 9.47851 123.216 8.51236C117.283 7.9656 111.3 8.42028 105.518 9.85731C103.202 10.3855 101.007 11.3474 99.0501 12.6919C96.9524 14.2284 95.2768 16.382 93.6482 18.3867C92.0195 20.3913 90.5486 22.3576 89.5339 24.6858C88.063 25.9626 87.0056 27.929 86.2552 29.7932C85.9595 30.4885 85.7005 31.1988 85.4792 31.9212C85.4537 31.9978 85.4281 32.0787 85.4068 32.1553C85.3985 32.1758 85.3985 32.1987 85.4068 32.2192C84.5967 34.9346 84.1277 37.7947 83.6204 40.5655C82.3029 47.4988 81.0622 54.4746 80.0347 61.4632C78.9944 68.6093 78.551 75.8533 78.2526 83.0675C77.9305 90.0786 78.063 97.1031 78.6491 104.097C78.9816 107.851 79.4421 111.592 79.8258 115.342C80.0091 117.13 80.3161 118.938 79.2545 120.522C78.172 122.055 76.8556 123.409 75.3534 124.535C72.7266 126.516 69.8007 128.066 66.6856 129.128C65.4065 129.583 63.8248 130.319 62.4647 130.426C62.0384 130.46 61.3903 130.515 61.2667 129.834C61.3642 129.431 61.5072 129.039 61.693 128.668C62.0341 127.702 62.3539 126.723 62.6566 125.74C63.6756 122.403 64.4728 118.998 65.2147 115.593C65.5686 113.988 65.9096 112.38 66.2593 110.775C66.5833 109.298 67.1503 107.728 67.2185 106.208C67.3081 104.148 65.7945 103.05 64.0507 102.288C61.4926 101.177 58.5678 101.569 55.9117 102.071C48.2629 103.514 40.4265 104.987 32.9781 107.264C32.054 107.606 31.1118 107.897 30.1557 108.136C28.8084 108.379 28.834 107.455 28.4503 106.323C27.8022 104.47 27.1556 102.617 26.5104 100.765L25.5809 98.1513C25.3941 97.7819 25.251 97.3919 25.1546 96.9894C25.2526 96.3084 26.0499 96.1382 26.5615 95.9041L31.8355 93.4781C31.9037 93.4483 31.908 93.3461 31.8995 93.2865C31.5968 91.3968 32.3258 89.954 33.251 88.3834C33.7157 87.6088 34.2146 86.8299 34.3211 85.9063C34.513 84.255 33.3448 82.9568 32.1894 81.9098C30.451 80.2893 28.1722 79.3703 25.7941 79.3306C22.9887 79.2753 20.5968 80.8202 17.8852 80.9777C15.5147 81.1097 15.1779 82.71 13.7667 84.4124C12.2403 86.2554 10.8291 88.0259 9.85701 90.2391C8.94898 92.3307 8.41508 94.5649 8.2795 96.8404C8.21355 97.9505 8.29817 99.0643 8.53105 100.152C8.42873 100.186 8.34346 100.245 8.35625 100.313C8.63338 101.565 9.15353 102.752 9.49887 103.987C9.49887 104.025 9.56283 104.038 9.59693 104.046H9.63104C9.67679 104.1 9.73772 104.138 9.80585 104.157C10.2876 104.263 10.7396 103.85 11.1275 103.62C11.9966 103.046 12.8977 102.522 13.8264 102.05C14.8991 101.537 16.0534 101.214 17.2372 101.097C18.0345 101.024 18.8786 101.212 19.6418 100.909C20.405 100.607 20.7759 99.7644 21.5178 99.3899C23.1507 98.5684 23.7092 100.714 24.2379 101.79C24.6984 102.718 25.156 103.645 25.6108 104.57C25.8921 105.136 26.1693 105.697 26.4635 106.272C26.698 106.74 27.6445 108.043 27.589 108.549C27.4611 109.698 24.6728 110.46 23.8286 111.316C22.8693 112.286 22.7414 113.491 22.9077 114.789C23.5429 119.709 24.7964 124.578 25.6619 129.46C25.9604 131.162 26.1778 132.907 26.8557 134.512C27.2821 135.486 27.7724 135.976 27.427 137.065C27.1873 137.64 26.9976 138.233 26.86 138.84C26.6511 140.313 27.346 141.82 27.6828 143.207C28.2584 145.612 28.6762 148.068 29.0216 150.511C29.3968 153.175 29.6099 155.844 29.7933 158.525C29.8615 159.525 29.8615 161.504 30.8336 162.147C31.375 162.504 32.6882 162.462 33.3448 162.573C34.3041 162.722 35.2634 162.866 36.2312 162.977C38.5677 163.307 40.9302 163.417 43.2873 163.305C44.2621 163.227 45.228 163.063 46.1738 162.815C46.8058 162.603 47.4767 162.531 48.1395 162.604C48.8024 162.678 49.4411 162.895 50.0109 163.241C52.3218 164.454 54.6326 165.671 56.9648 166.841C57.9539 167.339 58.9388 167.85 59.9492 168.301C60.7337 168.655 62.4178 168.957 62.6225 169.804C62.7077 170.14 62.1194 171.234 62 171.57L61.3946 173.294C60.9895 174.43 60.5888 175.567 60.2178 176.699C57.2501 185.783 56.7136 195.485 58.6616 204.84C62.0725 221.082 72.7313 235.438 85.1808 246.087C92.5293 252.299 100.654 257.534 109.351 261.66C118.654 266.142 128.362 269.083 138.228 271.998L128.665 284.239L126.72 286.725C126.563 286.925 125.923 288.027 125.595 288.002C125.39 287.976 124.572 286.618 124.384 286.371C123.037 284.581 121.652 282.835 120.231 281.132C114.403 274.271 107.624 268.836 100.252 263.733C96.0429 260.819 91.8092 257.946 87.5513 255.114C83.599 252.488 79.6212 249.883 75.3278 247.828C70.8937 245.7 66.3232 243.835 61.7484 242.031C57.4849 240.328 53.1191 238.834 48.5869 237.962C46.9583 237.651 44.5877 237.46 43.1765 238.562C41.7653 239.664 43.2106 240.46 43.5176 241.703C43.7563 242.673 43.6156 243.831 43.6881 244.836C43.7706 246.024 43.9431 247.205 44.204 248.368C44.664 250.345 45.3596 252.26 46.2761 254.071C48.1776 257.902 50.8935 261.201 53.5497 264.512C56.7303 268.47 59.9876 272.36 63.2705 276.229C69.7255 283.835 76.2189 291.419 83.1769 298.574C84.817 300.259 86.4854 301.921 88.1823 303.558C89.0691 304.409 89.9688 305.26 90.8684 306.09C91.6742 306.844 93.3114 308.027 93.7121 309.07C94.0532 309.959 93.1749 311.308 92.8594 312.1C92.3947 313.27 91.9342 314.441 91.4695 315.616C90.4974 318.071 89.5126 320.506 88.9967 323.106C88.6182 325.083 88.4751 327.097 88.5703 329.108C88.63 330.759 88.2079 332.9 88.873 334.47C89.9133 336.935 94.1854 335.007 95.8482 334.47C103.949 331.789 111.146 326.384 117.405 320.74C120.648 317.889 123.69 314.819 126.511 311.551C129.202 308.342 132.003 304.315 136.714 304.605C138.978 304.733 141.212 305.588 143.459 305.924C145.685 306.255 147.932 306.423 150.183 306.426C155.222 306.426 160.287 305.801 165.288 305.252C175.159 304.233 184.912 302.287 194.417 299.438C203.704 296.539 212.753 292.926 221.482 288.631C237.581 280.804 252.746 270.917 265.012 257.783C271.074 251.4 276.044 244.067 279.726 236.076C281.717 231.646 285.456 227.905 288.487 224.129C289.131 223.321 290.124 221.418 291.263 221.363C292.239 221.316 293.74 222.303 294.674 222.61C296.801 223.292 298.981 223.793 301.193 224.108C305.243 224.721 309.63 225.227 313.557 223.742C314.896 223.231 316.729 222.486 317.394 221.112C318.187 219.516 318.247 217.022 318.404 215.285C319.338 205.939 317.773 196.46 314.857 187.594ZM19.0662 97.2788C15.8601 97.2788 13.2849 98.9472 10.6458 100.577C11.0721 97.6619 11.2768 94.6485 12.2574 91.8607C12.8218 90.3871 13.5092 88.9633 14.3124 87.6046C14.6279 87.0385 14.8922 86.3277 15.374 85.8638C15.8558 85.3999 16.5763 85.5105 17.1434 85.8638C16.9664 89.7619 17.6219 93.6529 19.0662 97.2788ZM92.7571 21.7277C93.894 20.2636 95.0196 18.7952 96.1338 17.3226C98.0743 14.7385 100.759 12.808 103.829 11.7896C110.651 9.49128 118.543 9.66153 125.573 10.7256C139.643 12.8877 152.89 19.1145 164.947 26.4734C177.103 33.9046 188.324 42.7276 199.017 52.1167C210.256 61.991 221.106 72.3164 231.778 82.7994C252.465 103.127 272.9 124.212 288.845 148.557C296.724 160.482 303.151 173.301 307.993 186.743C310.389 193.498 312.38 200.491 313.476 207.598C314.022 211.157 314.559 215.055 314.375 218.664C314.196 222.159 309.805 222.069 307.179 221.942C303.659 221.754 300.165 221.239 296.741 220.405C292.955 219.469 289.331 217.928 285.656 216.634C278.651 214.17 271.651 211.761 264.812 208.854C257.973 205.947 251.07 203.53 244.21 200.801C237.261 198.031 230.32 195.302 223.204 192.991C221.499 192.434 219.759 191.889 218.041 191.331C216.826 190.94 216.156 190.689 214.963 191.259C214.792 191.34 214.963 191.612 215.044 191.685C216.723 192.996 218.617 193.545 220.654 194.115C223.336 194.864 226.001 195.66 228.64 196.554C233.245 198.116 237.922 199.746 242.335 201.797C239.261 204.211 234.89 205.415 231.215 206.479C227.39 207.555 223.501 208.389 219.572 208.977C210.894 210.413 202.13 211.274 193.338 211.552C184.457 211.778 175.542 211.978 166.665 211.578C157.938 211.152 149.351 209.837 140.807 208.088C136.488 207.254 132.218 206.184 128.016 204.883C125.821 204.176 123.523 203.666 121.775 202.112C120.262 200.747 118.838 199.287 117.511 197.741C112.19 191.591 107.5 184.722 103.331 177.737C99.0335 170.534 95.314 163.003 92.2071 155.214C90.6552 151.336 89.2226 147.404 87.918 143.437C86.5579 139.342 85.1041 135.176 84.1192 130.975C84.0254 130.579 83.5436 128.791 84.1192 129.217C84.5455 129.54 84.7672 130.464 85.0486 130.962C85.9796 132.567 87.0526 134.085 88.2548 135.499C90.3269 138.132 92.6082 140.595 95.0765 142.862C100.121 147.352 106.501 150.066 113.239 150.587C120.508 151.243 128.456 150.255 134.685 146.216C140.47 142.458 144.636 136.452 147.394 130.23C150.528 123.109 151.781 115.299 152.208 107.57C152.415 103.376 152.368 99.1732 152.067 94.9847C151.798 91.1542 151.47 87.2385 150.481 83.4931C149.172 78.5475 144.938 69.9287 138.488 71.2992C135.311 71.9717 132.57 74.9212 130.387 77.1472C127.403 80.1818 124.601 83.3952 121.553 86.366C116.245 91.5373 109.376 95.5763 101.8 95.8828C94.552 96.1722 87.5428 92.8311 82.7506 87.5024C81.139 85.7021 80.0091 83.9953 79.9452 81.4885C79.894 79.4583 80.0688 77.3983 80.1754 75.3681C80.4184 70.8991 80.7936 66.4302 81.4545 62.008C82.6909 53.5468 83.437 44.8557 85.4579 36.5392C86.4556 32.4405 88.1269 28.7632 89.9815 24.988C91.0687 24.0814 91.8703 22.8769 92.7571 21.7277ZM280.651 228.832C274.645 235.441 267.83 241.268 260.365 246.176C258.504 247.446 256.578 248.619 254.596 249.692C254.861 248.096 255.104 246.495 255.411 244.904C255.718 243.312 256.046 241.622 256.234 239.954C256.617 236.671 256.596 233.353 256.17 230.075C255.287 223.487 252.55 217.468 248.764 212.042C246.796 209.129 244.38 206.543 241.605 204.381C242.808 203.772 244.057 202.968 245.443 203.176C246.182 203.335 246.904 203.563 247.6 203.857C248.453 204.141 249.294 204.442 250.124 204.76C253.155 205.866 256.165 207.041 259.154 208.258C262.143 209.475 265.123 210.735 268.082 212.012C271.041 213.289 274.081 214.698 277.151 215.877C280.425 217.154 283.75 218.256 287.012 219.558C285.686 223.155 283.166 226.002 280.651 228.832ZM272.299 243.972C264.889 255.391 254.959 264.776 244.01 272.82C233.181 280.704 221.366 287.143 208.866 291.973C195.41 297.233 181.319 301.008 166.955 302.702C159.362 303.6 151.747 303.298 144.124 303.107C142.269 303.06 140.415 303.034 138.582 302.924C136.919 302.822 135.269 302.498 133.606 302.43C132.577 302.346 131.544 302.546 130.621 303.009C129.398 303.681 128.703 304.898 127.897 305.988C123.774 311.521 118.667 316.509 113.363 320.931C108.157 325.273 102.512 329.363 96.2532 332.036C94.6203 332.734 92.9319 332.934 91.2094 333.262C90.992 331.904 91.2094 330.512 91.2904 329.137C91.3684 327.34 91.5664 325.55 91.8831 323.779C92.4885 320.74 93.7803 317.82 94.6885 314.841C95.1148 313.479 95.5412 312.117 95.9675 310.763C96.3873 309.701 96.5481 308.555 96.4365 307.418C96.0741 305.103 94.0489 303.707 92.4288 302.243C82.8273 293.581 73.5925 284.469 65.1763 274.65C61.045 269.832 57.0756 264.861 53.2043 259.826C51.2388 257.272 49.235 254.718 47.8195 251.816C47.2049 250.566 46.7082 249.263 46.3358 247.921C45.9094 246.449 45.4831 244.623 45.5982 243.095C45.6664 242.299 46.1013 242.401 46.8772 242.503C47.5588 242.632 48.2322 242.801 48.8939 243.01C50.5737 243.435 52.2578 243.861 53.9291 244.346C57.1779 245.261 60.3244 246.402 63.4794 247.598C69.3461 249.824 75.1956 251.909 80.7339 254.893C86.5537 258.03 92.0792 261.788 97.6346 265.367C102.96 268.802 108.37 272.177 113.06 276.433C115.269 278.459 117.345 280.617 119.362 282.818C120.304 283.856 121.229 284.903 122.15 285.959C123.003 286.942 124.951 288.742 124.555 290.117C124.316 290.93 123.898 291.658 124.128 292.53C124.316 293.309 124.725 293.854 125.565 293.807C125.994 293.793 126.412 293.668 126.779 293.444C127.145 293.221 127.447 292.905 127.654 292.53C128.554 291.113 129.543 289.751 130.494 288.372L136.151 280.153L138.974 276.042C139.4 275.45 139.801 274.863 140.193 274.258C140.747 273.407 140.914 272.645 142.09 272.871C148.507 274.105 154.919 275.314 161.455 275.748C174.605 276.645 187.816 275.954 200.799 273.688C224.726 269.479 248.785 260.63 268.091 245.627C269.276 244.708 270.44 243.759 271.582 242.793C272.38 242.116 273.249 241.014 274.273 240.613C273.599 241.771 272.981 242.891 272.299 243.972ZM115.226 257.366C113.346 256.514 111.815 255.063 110.425 253.565C109.174 252.21 108.076 250.721 107.151 249.126C105.107 245.652 103.982 241.717 103.881 237.69C103.913 235.344 104.16 233.006 104.618 230.705C104.999 228.56 105.481 226.432 106.064 224.321C106.646 222.21 107.331 220.114 108.119 218.035C108.779 216.1 109.605 214.226 110.587 212.433C112.405 209.405 115.02 206.932 118.146 205.283C118.974 204.836 119.852 204.36 120.815 204.313C121.367 204.289 121.913 204.438 122.376 204.738C122.741 205.027 123.134 205.279 123.548 205.492C125.552 206.288 127.65 206.905 129.705 207.547C138.166 210.225 146.858 212.109 155.67 213.174C160.236 213.71 164.824 213.957 169.415 214.161C174.105 214.37 178.795 214.587 183.464 214.689C184.56 214.701 185.655 214.656 186.747 214.553C187.685 214.476 188.627 214.357 189.356 215.072C190.085 215.787 190.524 216.843 190.972 217.715C191.458 218.665 191.896 219.638 192.285 220.631C193.88 224.661 194.609 228.918 195.073 233.204C195.576 237.821 195.849 242.507 195.926 247.151C196.026 251.821 195.643 256.489 194.783 261.081C194.433 263.224 193.861 265.325 193.078 267.351C192.98 267.585 192.878 267.819 192.78 268.049C192.639 268.385 192.609 268.474 192.238 268.538C191.667 268.623 191.057 268.615 190.477 268.657C189.343 268.738 188.205 268.823 187.066 268.874C184.721 268.989 182.376 268.951 180.027 268.96C177.606 268.96 175.188 268.96 172.779 268.913C163.979 268.686 155.207 267.833 146.529 266.359C137.897 264.965 129.419 262.753 121.208 259.753C119.19 259.019 117.196 258.223 115.226 257.366ZM103.075 251.56C96.0613 247.653 89.325 243.21 83.2579 237.941C77.1909 232.671 71.7464 226.594 67.6492 219.669C65.6537 216.282 64.0121 212.699 62.7504 208.977C62.0955 207.039 61.5462 205.067 61.1046 203.07C60.6783 201.069 60.1837 198.975 60.2519 196.915C60.3927 194.775 60.8928 192.673 61.7314 190.697C62.4773 188.784 63.3622 186.928 64.379 185.143C66.3408 181.739 68.7529 178.613 71.5503 175.852C72.2534 175.118 72.9964 174.423 73.7759 173.77C74.1194 173.487 74.5181 173.278 74.9466 173.157C75.3752 173.035 75.8244 173.004 76.2658 173.064C78.5766 173.324 80.8789 173.749 83.1812 174.056C85.4835 174.362 87.8071 174.647 90.1308 174.809C92.2625 174.962 94.4412 174.92 96.5943 174.877C97.6815 174.856 98.7687 174.839 99.8601 174.835C104.278 182.504 109.287 189.818 114.842 196.711C116.377 198.629 117.94 200.522 119.532 202.389C113.214 204.56 107.701 208.531 104.324 214.37C101.377 219.707 99.8109 225.693 99.7663 231.786C99.8066 233.943 99.9903 236.094 100.316 238.226C100.64 240.741 100.862 243.235 101.416 245.717C101.84 247.822 102.591 249.848 103.642 251.722C103.447 251.691 103.257 251.637 103.075 251.56ZM60.3543 187.05C60.4243 185.654 60.5781 184.264 60.8147 182.887C61.2994 179.831 62.0512 176.823 63.0616 173.898C63.4934 172.585 64.0532 171.318 64.7329 170.114L71.3925 172.051C66.3275 176.826 62.8015 182.794 60.4054 189.284C60.3203 188.542 60.3032 187.795 60.3543 187.05ZM61.5139 161.181C55.4683 158.504 49.4567 155.775 43.4877 152.915C40.8167 151.671 38.2772 150.162 35.9072 148.412C33.5793 146.659 31.294 144.646 30.2495 141.849C29.8828 140.866 29.4266 139.508 29.9425 138.491C30.5053 137.389 32.0402 136.878 33.1146 136.499C34.6034 136.039 36.1258 135.694 37.668 135.469C39.3095 135.167 40.9552 134.865 42.6052 134.584C45.8327 134.031 49.073 133.546 52.326 133.167C55.5791 132.788 58.9644 132.511 62.2302 131.869C65.6785 131.125 69.0281 129.982 72.2111 128.464C73.7817 127.782 75.3158 127.019 76.8072 126.178C78.2312 125.327 79.5657 124.356 80.9429 123.446C82.4138 129.902 84.1149 136.308 86.1273 142.598C88.2102 149.161 90.6628 155.601 93.4734 161.887C95.0168 165.326 96.6795 168.709 98.4617 172.034C93.58 172.183 88.6982 171.047 84.0126 169.782C79.0411 168.386 74.1685 166.659 69.4271 164.615C66.7751 163.505 64.1445 162.343 61.5139 161.181ZM36.4359 152.728C38.8703 155.026 41.4583 157.163 43.9908 159.355C42.7118 160.108 41.0064 160.244 39.5738 160.364C36.9898 160.545 34.3948 160.501 31.8185 160.232C31.4603 157.635 31.132 155.039 30.7227 152.456C30.3689 150.242 29.9681 148.038 29.5844 145.829C31.8568 148.14 34.0781 150.502 36.4359 152.728ZM28.9022 121.867C27.9292 122.42 27.0872 123.176 26.4336 124.084C25.8282 120.811 25.1801 117.547 24.7026 114.252C24.6515 113.367 25.3933 112.597 26.0925 112.163C26.8522 111.738 27.6351 111.355 28.4375 111.018L32.0828 120.909C30.9712 121.023 29.8916 121.348 28.9022 121.867ZM41.5564 107.353C45.5087 106.468 49.4823 105.651 53.4942 105.165C55.4086 104.931 57.3314 104.74 59.2756 104.706C60.2489 104.651 61.2165 104.887 62.0554 105.383C62.6353 105.715 63.3004 105.685 63.9484 105.744C64.3748 109.532 62.4434 113.014 61.838 116.683C61.3605 116.641 60.8799 116.707 60.431 116.874C59.798 117.163 59.1344 117.38 58.4527 117.521C57.1584 117.748 55.8429 117.831 54.5303 117.768C53.2972 117.709 52.0619 117.716 50.8295 117.789C49.564 117.899 48.3119 118.13 47.0904 118.479C45.9154 118.814 44.7621 119.22 43.637 119.696C42.4517 120.19 41.3261 120.794 40.1494 121.292C38.9197 121.888 37.5076 121.988 36.2056 121.573C35.8871 121.478 35.595 121.311 35.3529 121.084C35.1583 120.806 35.0007 120.504 34.8839 120.185C34.5812 119.564 34.2828 118.947 33.9843 118.326C32.7053 115.653 31.4561 112.967 30.194 110.286C33.9886 109.294 37.7448 108.213 41.5564 107.353ZM56.5597 131.09C51.1322 132.469 45.5129 132.435 39.9661 132.907C38.9087 130.07 37.8485 127.217 36.7855 124.348C38.2807 124.259 39.7492 123.912 41.1257 123.322C42.7587 122.671 44.3618 121.973 46.0288 121.407C47.6958 120.841 49.3842 120.215 51.0896 119.785C51.9892 119.556 53.0039 119.815 53.9121 119.926C54.7222 120.043 55.5414 120.086 56.3593 120.054C58.0136 119.947 59.5655 119.245 61.1217 118.713C60.0729 123.003 58.7341 127.229 56.5597 131.09ZM28.1134 133.763C27.5507 131.32 27.1499 128.838 26.6894 126.374C27.7383 125.778 28.7018 125.016 29.8146 124.535C30.432 124.255 31.107 124.126 31.7843 124.156C32.4406 124.153 33.0831 124.344 33.6305 124.705C33.894 125.03 34.0975 125.399 34.2316 125.795L34.7304 126.834C35.063 127.515 35.387 128.2 35.7111 128.889C36.3549 130.251 36.9901 131.618 37.6296 132.979C35.6514 133.269 33.7029 133.499 31.7886 134.116C30.9587 134.455 30.1033 134.728 29.2305 134.933C28.4247 135.035 28.2712 134.414 28.1134 133.763ZM196.975 265.891C197.456 265.136 197.883 264.348 198.254 263.533C198.916 261.823 199.393 260.049 199.678 258.238C200.454 254.357 201.434 250.539 201.767 246.581C202.107 242.608 201.987 238.609 201.409 234.663C200.872 231.024 200.224 227.343 198.535 224.023C197.617 222.288 196.581 220.617 195.436 219.022C194.89 218.239 194.34 217.46 193.794 216.673C193.47 216.209 193.138 215.749 192.814 215.285C192.617 215.013 192.473 214.707 192.387 214.383C204.751 213.761 217.116 211.978 229.054 208.611C232.41 207.667 235.727 206.598 239.005 205.407C241.955 207.279 243.371 210.425 244.782 213.493C246.374 216.935 247.795 220.451 249.045 224.04C250.299 227.636 251.36 231.296 252.226 235.004C253.143 238.945 252.874 242.946 252.286 246.921C252.098 248.198 251.996 249.585 251.539 250.794C251.217 251.512 250.646 252.091 249.932 252.424C246.957 254.07 243.896 255.555 240.761 256.872C233.98 259.823 226.971 262.221 219.802 264.044C216.257 264.954 212.685 265.738 209.083 266.393C207.273 266.725 205.459 267.027 203.643 267.3C201.78 267.576 199.904 267.887 198.028 268.032C197.602 268.066 197.175 268.087 196.723 268.104C196.493 268.104 196.254 268.104 196.02 268.138C195.926 268.158 195.828 268.158 195.734 268.138C196.156 267.397 196.548 266.627 196.975 265.891ZM134.037 79.769C135.085 78.9518 135.9 77.8665 137.021 77.1259C138.171 76.3252 139.579 75.9808 140.969 76.1598C142.133 76.3768 142.593 77.3387 142.551 78.4453C142.488 79.7197 142.276 80.9824 141.92 82.2077C141.236 84.6063 140.017 86.8194 138.356 88.6814C137.622 89.5071 136.676 90.6903 135.503 90.8435C134.224 91.0095 133.725 89.4986 133.435 88.5452C133.008 86.9036 132.673 85.2397 132.429 83.5612C132.131 82.0716 132.877 80.6755 134.037 79.769ZM228.261 73.7252C230.554 73.887 232.848 74.0019 235.138 74.2487L242.096 74.9893C246.671 75.483 251.254 76.0193 255.769 76.9216C260.16 77.8089 264.484 79.0007 268.709 80.4883C273.062 82.0205 277.3 83.8719 281.589 85.5957C285.797 87.2683 290.078 88.8176 294.205 90.703C297.939 92.3431 301.415 94.5166 304.522 97.1554C307.481 99.7346 310.039 102.859 311.344 106.604C311.928 108.281 312.342 110.124 311.463 111.78C310.585 113.435 308.841 114.018 307.089 114.435C302.651 115.495 298.033 115.61 293.51 116.044C289.672 116.414 285.763 116.947 282.582 119.343C281.877 119.878 281.227 120.482 280.642 121.147C279.419 122.565 278.566 124.242 277.573 125.829C271.42 118.743 265.281 111.652 258.864 104.795C255.654 101.365 252.294 98.0705 249.092 94.6272C245.988 91.2861 242.641 88.2004 239.418 84.9743C235.709 81.2586 231.944 77.6111 228.184 73.9551L228.261 73.7252ZM23.0228 82.0716C24.174 81.8846 25.352 81.9463 26.4773 82.2524C27.6026 82.5586 28.649 83.1021 29.546 83.8464C30.3955 84.5726 31.0988 85.4537 31.6181 86.4426L31.6735 86.549C31.6612 86.5589 31.6523 86.5723 31.6479 86.5873C31.2685 87.7025 30.8933 88.8218 30.5181 89.9369C29.158 85.6552 24.6643 84.1017 20.6778 82.7483C21.4327 82.4387 22.2189 82.2118 23.0228 82.0716ZM22.2937 95.6572C20.2259 92.712 19.8251 89.124 19.4073 85.634C23.1635 86.6682 25.9945 89.2857 28.9193 91.716L22.2937 95.6572Z" fill="#00829B"/>
<path d="M187.246 26.3031C188.076 29.7294 189.773 32.8858 192.174 35.4709C192.382 35.6897 192.632 35.8649 192.909 35.9862C193.185 36.1076 193.484 36.1726 193.786 36.1774C194.029 36.1339 194.257 36.03 194.449 35.8753C194.642 35.7205 194.792 35.52 194.886 35.2921C195.131 34.7057 195.254 34.0759 195.248 33.4407C195.308 32.6789 195.342 31.9127 195.372 31.1466C195.45 30.2704 195.43 29.3881 195.312 28.5163C195.176 27.7417 195.005 26.9671 194.792 26.2095C194.338 24.5883 193.715 23.0191 192.933 21.5277C192.549 20.7871 192.123 20.0636 191.654 19.3613C191.243 18.6208 190.738 17.9357 190.153 17.3226C189.933 17.1181 189.674 16.9591 189.391 16.855C189.109 16.7508 188.809 16.7035 188.508 16.7158C188.207 16.728 187.912 16.7996 187.639 16.9264C187.366 17.0532 187.12 17.2327 186.917 17.4546C185.984 18.4973 186.299 20.1743 186.444 21.4298C186.6 23.0705 186.868 24.6988 187.246 26.3031Z" fill="#00829B"/>
<path d="M214.072 152.443C213.867 153.004 214.259 153.498 214.69 153.809C215.332 154.242 216.099 154.453 216.873 154.409C219.33 154.447 221.769 153.983 224.04 153.047C226.348 152.045 228.472 150.666 230.324 148.965C232.204 147.378 233.749 145.433 234.869 143.245C236.05 140.819 236.715 137.976 236.332 135.282C236.05 133.307 234.2 132.209 232.286 132.302C231.842 132.321 231.408 132.428 231.006 132.616C230.605 132.805 230.246 133.072 229.949 133.4C229.045 134.418 228.951 135.784 228.67 137.057C228.254 139.15 227.521 141.168 226.496 143.041C225.372 145.061 223.842 146.827 222.002 148.229C221.043 148.956 220.015 149.586 218.932 150.11C217.679 150.662 216.398 151.147 215.095 151.566C214.875 151.637 214.671 151.751 214.495 151.902C214.32 152.052 214.176 152.236 214.072 152.443Z" fill="#00829B"/>
<path d="M230.93 165.565C230.265 165.905 229.915 166.59 229.438 167.135V167.156L229.834 167.905C229.868 167.969 229.983 167.961 230.043 167.957C231.268 167.95 232.49 167.853 233.701 167.667C234.815 167.441 235.903 167.098 236.946 166.646C239.077 165.718 240.783 164.262 242.544 162.739C244.483 161.085 246.314 159.309 248.026 157.423C249.512 155.716 250.634 153.724 251.322 151.57C251.652 150.545 251.903 149.497 252.073 148.434C252.281 147.469 252.155 146.461 251.714 145.578C251.333 144.861 250.721 144.294 249.977 143.966C249.233 143.639 248.4 143.571 247.613 143.773C246.842 143.993 246.16 144.45 245.664 145.08C244.88 146.054 244.641 147.272 244.292 148.442C243.557 150.766 242.521 152.984 241.209 155.039C238.617 159.257 235.607 163.466 230.93 165.565Z" fill="#00829B"/>
<path d="M164.572 70.0051H164.61C166.452 70.6052 167.595 69.1539 168.61 67.8557C169.82 66.3306 170.894 64.7028 171.82 62.9909C172.736 61.2894 173.488 59.5052 174.067 57.6622C174.553 56.113 174.92 54.4318 174.626 52.8145C174.331 51.1971 173.986 49.4904 172.643 48.4689C172.094 48.0315 171.409 47.8011 170.707 47.8183C170.006 47.8354 169.332 48.0989 168.806 48.5626C168.22 49.2106 167.743 49.9495 167.395 50.7502C166.874 51.7334 166.367 52.7208 165.881 53.7295C164.949 55.6104 164.127 57.543 163.417 59.5179C162.999 60.6538 162.645 61.8118 162.355 62.9867C162.118 64.1632 162.008 65.3618 162.027 66.5619C162.044 67.3275 162.298 68.0692 162.754 68.6854C163.209 69.3017 163.844 69.7626 164.572 70.0051Z" fill="#00829B"/>
<path d="M199.861 136.993H199.887C202.155 137.678 204.487 136.103 206.325 134.928C208.127 133.779 209.785 132.417 211.262 130.872C212.716 129.343 213.985 127.649 215.044 125.825C216.212 123.945 217.111 121.91 217.713 119.781C217.849 119.215 217.956 118.64 218.067 118.078C218.162 117.794 218.225 117.5 218.254 117.202C218.205 116.954 218.135 116.71 218.045 116.474C217.857 115.561 217.411 114.721 216.76 114.054C216.108 113.386 215.279 112.919 214.37 112.707C213.895 112.666 213.418 112.756 212.991 112.969C212.564 113.181 212.205 113.508 211.953 113.912C211.202 114.959 211.1 116.329 210.738 117.534C210.379 118.746 209.952 119.937 209.459 121.1C208.489 123.406 207.329 125.629 205.992 127.744C204.692 129.888 202.962 131.74 200.91 133.183C200.394 133.525 199.857 133.835 199.303 134.111C199.052 134.226 198.83 134.397 198.656 134.611C198.481 134.825 198.358 135.077 198.297 135.346C198.186 136.137 199.247 136.754 199.861 136.993Z" fill="#00829B"/>
<path d="M94.2493 40.9104C95.0944 38.5989 95.5902 36.1747 95.7202 33.7175C95.75 32.3045 95.6008 30.7382 94.697 29.5975C94.697 29.5167 94.3132 29.24 94.2706 29.2698C93.9984 29.5976 93.7612 29.9527 93.5629 30.3296C93.4588 30.747 93.4114 31.1765 93.4222 31.6064C93.3539 32.6279 93.2942 33.6451 93.2772 34.6666C93.216 36.6519 93.3978 38.6372 93.8187 40.5784C93.9383 40.717 94.0847 40.8299 94.2493 40.9104Z" fill="#00829B"/>
<g clip-path="url(#clip1_69_9858)">
<path d="M294.253 16.0155C283.321 42.2534 255.809 55.7766 232.803 46.2167" stroke="#0E8499" stroke-linecap="round"/>
<path fill-rule="evenodd" clip-rule="evenodd" d="M293.74 17.2454L282.006 23.4552C281.656 23.6368 281.282 23.6633 280.959 23.5294C280.637 23.3955 280.392 23.1113 280.274 22.7353C280.217 22.5529 280.195 22.3523 280.208 22.146C280.222 21.9396 280.271 21.7318 280.353 21.5351C280.435 21.3385 280.548 21.1571 280.685 21.002C280.822 20.847 280.98 20.7216 281.15 20.6333L294.15 13.7567C294.504 13.561 294.887 13.5246 295.217 13.6552C295.548 13.7858 295.8 14.0731 295.92 14.4559L300.208 28.5529C300.265 28.7352 300.287 28.9354 300.273 29.1414C300.259 29.3473 300.21 29.5548 300.128 29.7511C300.047 29.9474 299.934 30.1284 299.797 30.2833C299.661 30.4381 299.503 30.5635 299.333 30.6518C298.983 30.8334 298.609 30.86 298.286 30.726C297.964 30.5921 297.719 30.308 297.601 29.932L293.74 17.2454Z" fill="#0E8499"/>
</g>
</g>
<defs>
<clipPath id="clip0_69_9858">
<rect width="327" height="343.987" fill="white"/>
</clipPath>
<clipPath id="clip1_69_9858">
<rect width="61.0282" height="60.1005" fill="white" transform="matrix(0.923443 0.383735 -0.384597 0.923085 252.45 -7.83789)"/>
</clipPath>
</defs>
</svg>
