<svg width="92" height="92" viewBox="0 0 92 92" fill="none" xmlns="http://www.w3.org/2000/svg">
<path d="M0 46C0 20.5949 20.5949 0 46 0C71.4051 0 92 20.5949 92 46C92 71.4051 71.4051 92 46 92C20.5949 92 0 71.4051 0 46Z" fill="#84EDFF"/>
<path d="M21.0531 35.3853L15.6072 30.6168L16.2846 28.7957H23.5165L22.8215 30.652L16.7773 30.4233L17.0588 29.7458L21.7745 33.5641L21.0531 35.3853ZM20.578 33.4145L19.1879 32.9043L20.5076 29.3851L21.8977 29.8954L20.578 33.4145Z" fill="#00829B"/>
<path d="M25.2583 29.9923L19.698 26.2532L20.7362 24.7048L21.6951 25.3558L22.4605 26.2356L23.5427 26.6667L26.2348 28.4879L25.2583 29.9923ZM25.2583 26.5436C25.1084 26.7651 24.9208 26.9587 24.704 27.1154C24.5053 27.2641 24.2775 27.369 24.0354 27.4233C23.8154 27.4669 23.5878 27.4518 23.3755 27.3794L21.2728 25.9277C21.1192 25.7555 21.0131 25.5463 20.9649 25.3206C20.9104 25.0613 20.9089 24.7936 20.9603 24.5335C21.0117 24.2735 21.115 24.0266 21.264 23.8074C21.4991 23.4533 21.824 23.1679 22.2054 22.9804C22.568 22.8128 22.97 22.7489 23.3667 22.7956C23.8009 22.8488 24.2151 23.009 24.572 23.2619C24.9397 23.5007 25.242 23.8272 25.4518 24.2121C25.6469 24.5769 25.7348 24.9894 25.7052 25.402C25.6756 25.8146 25.5298 26.2104 25.2847 26.5436H25.2583ZM23.7098 25.9189C23.7927 25.7993 23.8413 25.6594 23.8506 25.5142C23.8594 25.3804 23.832 25.2467 23.7714 25.1271C23.7048 25.0002 23.6081 24.8914 23.4899 24.8104C23.3721 24.729 23.2362 24.6777 23.094 24.6608C22.9613 24.6547 22.8289 24.6788 22.7069 24.7312C22.5799 24.7978 22.4712 24.8945 22.3902 25.0127C22.3113 25.1278 22.2629 25.261 22.2494 25.3998C22.2397 25.5337 22.2671 25.6676 22.3286 25.7869C22.3958 25.9162 22.4959 26.0255 22.6189 26.1037C22.7315 26.1886 22.8656 26.2404 23.006 26.2532C23.1383 26.2688 23.2722 26.2475 23.3931 26.1916C23.5319 26.1324 23.6531 26.0385 23.745 25.9189H23.7098Z" fill="#00829B"/>
<path d="M26.7365 24.4672L23.4373 21.1592L24.7481 19.8483L28.0562 23.1563L26.7365 24.4672ZM26.2702 21.3615L25.1089 21.4319C24.9374 20.9929 24.8711 20.5199 24.9153 20.0506C24.9929 19.6273 25.2023 19.2393 25.5136 18.9421C25.6465 18.8099 25.7975 18.6973 25.9623 18.6078C26.0911 18.5347 26.2364 18.4954 26.3846 18.4934L26.6925 20.253C26.6135 20.2555 26.5358 20.2735 26.4637 20.3058C26.3688 20.344 26.2843 20.4043 26.2174 20.4817C26.1552 20.5304 26.1059 20.5935 26.0737 20.6655C26.0414 20.7376 26.0274 20.8165 26.0326 20.8952C26.0366 20.9836 26.0581 21.0704 26.0959 21.1504C26.1336 21.2305 26.1869 21.3022 26.2526 21.3615H26.2702Z" fill="#00829B"/>
<path d="M31.3643 20.5256C30.9797 20.8109 30.5283 20.9926 30.0534 21.0535C29.6172 21.111 29.1736 21.0503 28.7689 20.8776C28.3585 20.6845 28.0108 20.3795 27.7659 19.9978C27.5064 19.6401 27.3538 19.2159 27.3261 18.7749C27.3166 18.3519 27.4166 17.9337 27.6164 17.5607C27.8479 17.1455 28.1711 16.7886 28.5614 16.5172C28.9517 16.2458 29.3988 16.0671 29.8686 15.9947C30.3012 15.9343 30.742 15.992 31.1443 16.1619C31.5491 16.3389 31.8964 16.6253 32.1473 16.9889C32.4034 17.3517 32.5555 17.7776 32.5872 18.2206C32.6147 18.6561 32.5235 19.0909 32.3233 19.4787C32.0964 19.9025 31.7666 20.2625 31.3643 20.5256ZM30.4229 19.1972C30.5398 19.1109 30.636 18.9997 30.7044 18.8716C30.7582 18.7502 30.7765 18.616 30.7572 18.4845C30.7365 18.3377 30.679 18.1985 30.5901 18.0798C30.5088 17.954 30.3968 17.8511 30.2646 17.7807C30.1447 17.7209 30.0112 17.6936 29.8774 17.7015C29.7346 17.7158 29.5981 17.7674 29.4815 17.8511C29.3665 17.9332 29.273 18.0418 29.2088 18.1678C29.1581 18.2933 29.137 18.4288 29.1472 18.5637C29.1703 18.7126 29.2275 18.8541 29.3144 18.9772C29.3968 19.0998 29.5087 19.1996 29.6399 19.2675C29.7595 19.3282 29.8932 19.3555 30.027 19.3467C30.1682 19.3259 30.3032 19.2748 30.4229 19.1972Z" fill="#00829B"/>
<path d="M33.5901 18.8717L30.8804 12.4668L32.596 11.7366L33.9332 14.895L34.0916 16.0563L34.7778 17.0065L35.2617 18.1502L33.5901 18.8717ZM36.2823 17.8335C36.0342 17.947 35.7631 18.0012 35.4905 17.9919C35.2337 17.9923 34.9795 17.9415 34.7426 17.8423C34.5312 17.7528 34.3464 17.6104 34.206 17.4288L33.203 15.0446C33.1678 14.8244 33.1952 14.5988 33.2822 14.3935C33.3841 14.1645 33.5306 13.9581 33.7133 13.7865C33.9094 13.605 34.1357 13.4591 34.3819 13.3554C34.7707 13.1812 35.1998 13.1173 35.6224 13.1706C36.0206 13.2242 36.3957 13.3888 36.7046 13.6457C37.0362 13.9298 37.2956 14.2886 37.4612 14.6927C37.6393 15.093 37.7149 15.5315 37.6811 15.9684C37.6576 16.3667 37.5236 16.7505 37.294 17.0769C37.0342 17.4187 36.6836 17.6809 36.2823 17.8335ZM35.3321 16.461C35.4623 16.4124 35.5755 16.3268 35.6576 16.2147C35.74 16.1073 35.7917 15.9796 35.8072 15.8452C35.8189 15.7008 35.7947 15.5557 35.7368 15.4229C35.6827 15.2909 35.5947 15.1756 35.4817 15.0886C35.376 15.0033 35.2474 14.9512 35.1122 14.939C34.9713 14.9212 34.8282 14.9425 34.6987 15.0006C34.5667 15.0547 34.4514 15.1427 34.3643 15.2557C34.2869 15.3617 34.2384 15.486 34.2236 15.6164C34.2161 15.7587 34.2433 15.9006 34.3028 16.0299C34.3541 16.1683 34.4424 16.29 34.5579 16.3819C34.6634 16.4617 34.7876 16.5132 34.9186 16.5314C35.0603 16.546 35.2032 16.5217 35.3321 16.461Z" fill="#00829B"/>
<path d="M40.4436 16.5753C40.0436 16.6556 39.6291 16.6221 39.2471 16.4786C38.8772 16.3347 38.5544 16.091 38.3146 15.7747C38.0552 15.4399 37.8801 15.0477 37.8043 14.631C37.7099 14.2001 37.725 13.7524 37.8483 13.3289C37.9565 12.9489 38.17 12.6073 38.4641 12.3435C38.7684 12.0716 39.1437 11.8916 39.5463 11.8245C39.7991 11.7762 40.0588 11.7762 40.3117 11.8245C40.5424 11.8697 40.7612 11.9626 40.9539 12.0972C41.1331 12.2269 41.2731 12.4035 41.3586 12.6075L41.8513 15.2469C41.844 15.4659 41.7771 15.6788 41.6578 15.8627C41.5328 16.0596 41.3642 16.2252 41.1651 16.3466C40.9405 16.466 40.696 16.5435 40.4436 16.5753ZM40.558 14.8861C40.6612 14.871 40.7601 14.8341 40.848 14.778C40.936 14.7219 41.011 14.6478 41.0683 14.5606C41.1258 14.4734 41.1648 14.3753 41.183 14.2724C41.2011 14.1695 41.198 14.064 41.1739 13.9624C41.1517 13.8186 41.0943 13.6826 41.0067 13.5665C40.9192 13.4661 40.807 13.3903 40.6812 13.3465C40.5463 13.3062 40.4026 13.3062 40.2677 13.3465C40.1275 13.3736 39.997 13.4374 39.8894 13.5313C39.788 13.6179 39.712 13.7304 39.6694 13.8568C39.6351 13.9955 39.6351 14.1404 39.6694 14.2791C39.6904 14.4205 39.748 14.554 39.8366 14.6662C39.9246 14.7721 40.0403 14.8513 40.1709 14.8949C40.2988 14.923 40.4315 14.92 40.558 14.8861ZM41.5522 16.2674L41.3146 15.0357L41.3586 13.8656L40.9011 12.801L40.6812 11.6749L42.4408 11.3318L43.3206 15.9331L41.5522 16.2674Z" fill="#00829B"/>
<path d="M45.7663 16.0564C45.3428 16.0512 44.9288 15.9295 44.5698 15.7045C44.2304 15.4918 43.9587 15.1865 43.7868 14.8247C43.5981 14.43 43.5104 13.9947 43.5317 13.5578C43.5379 13.1184 43.6496 12.6869 43.8572 12.2997C44.0536 11.9495 44.3428 11.6603 44.693 11.4639C45.0007 11.3055 45.3383 11.2134 45.6838 11.1937C46.0294 11.174 46.3752 11.2271 46.6989 11.3495C46.9299 11.4455 47.1416 11.5826 47.3236 11.7542C47.4796 11.9144 47.5864 12.1159 47.6315 12.3349L47.5523 14.9214C47.4933 15.1428 47.3746 15.3437 47.2092 15.5021C47.0224 15.6826 46.8009 15.8233 46.5582 15.9156C46.3078 16.0204 46.0374 16.0684 45.7663 16.0564ZM46.1623 14.4288C46.2978 14.438 46.4333 14.4101 46.5542 14.3481C46.6751 14.2861 46.7769 14.1923 46.8485 14.0768C46.9193 13.947 46.9584 13.8023 46.9629 13.6545C46.9655 13.5127 46.9385 13.3719 46.8837 13.241C46.8203 13.1245 46.7297 13.0249 46.6197 12.9507C46.4961 12.8804 46.3572 12.8412 46.215 12.8363C46.0738 12.8306 45.9337 12.8641 45.8103 12.9331C45.6899 12.995 45.5893 13.0895 45.52 13.2058C45.4453 13.3276 45.4057 13.4677 45.4056 13.6106C45.3982 13.7537 45.4286 13.8963 45.4936 14.0241C45.5529 14.1463 45.6481 14.2476 45.7663 14.3144C45.885 14.3888 46.0222 14.4285 46.1623 14.4288ZM48.6521 16.0476L46.8309 15.9948V14.7367L47.1212 13.6106L46.8485 12.4668L46.9717 9.03564L48.8368 9.09723L48.6521 16.0476Z" fill="#00829B"/>
<path d="M51.3704 16.7866C50.9038 16.6815 50.4712 16.4606 50.1123 16.1444C49.783 15.855 49.5395 15.4806 49.4085 15.0623C49.2851 14.634 49.2851 14.1796 49.4085 13.7514C49.5074 13.3186 49.7307 12.9241 50.0507 12.6164C50.3448 12.3231 50.7078 12.1083 51.1065 11.9918C51.5688 11.8777 52.0519 11.8777 52.5141 11.9918C52.9774 12.099 53.4067 12.3197 53.7635 12.634C54.0969 12.9358 54.343 13.3218 54.4761 13.7514C54.5997 14.1766 54.5997 14.6282 54.4761 15.0535C54.3748 15.4859 54.1555 15.8819 53.8426 16.1972C53.5283 16.5002 53.14 16.7156 52.7165 16.8218C52.2711 16.9145 51.8103 16.9024 51.3704 16.7866ZM51.7575 15.203C51.8962 15.2373 52.0411 15.2373 52.1798 15.203C52.3107 15.1695 52.4277 15.0957 52.5141 14.9919C52.6094 14.8773 52.6757 14.7415 52.7077 14.596C52.745 14.4517 52.745 14.3003 52.7077 14.1561C52.6791 14.0249 52.6117 13.9053 52.5141 13.813C52.4115 13.7134 52.2838 13.6434 52.1446 13.6106C52.0097 13.5708 51.8661 13.5708 51.7311 13.6106C51.5986 13.646 51.4794 13.7194 51.388 13.8217C51.2932 13.9379 51.2242 14.0728 51.1857 14.2177C51.1506 14.3622 51.1506 14.513 51.1857 14.6575C51.218 14.7873 51.2848 14.9059 51.3792 15.0007C51.4775 15.0923 51.5946 15.1613 51.7223 15.203H51.7575Z" fill="#00829B"/>
<path d="M54.6609 19.7514L57.9777 13.9624L59.5965 14.8422L59.0246 15.8364L58.1976 16.6722L57.8545 17.7895L56.2357 20.6048L54.6609 19.7514ZM58.1097 19.5315C57.8881 19.3998 57.6915 19.23 57.529 19.03C57.3669 18.8404 57.2469 18.6185 57.1771 18.3789C57.1112 18.1639 57.1112 17.9341 57.1771 17.7191L58.4088 15.5108C58.5698 15.3467 58.7695 15.2257 58.9895 15.1589C59.2352 15.0893 59.4923 15.0684 59.7461 15.0973C60.017 15.1247 60.2784 15.2118 60.5115 15.3525C60.8815 15.5573 61.1864 15.8622 61.3913 16.2323C61.5908 16.5794 61.6884 16.9759 61.6728 17.376C61.6493 17.8141 61.5195 18.2399 61.2945 18.6165C61.0847 19.0014 60.7823 19.3279 60.4147 19.5667C60.0788 19.7842 59.6887 19.9031 59.2886 19.9098C58.8683 19.8945 58.4604 19.7636 58.1097 19.5315ZM58.6111 17.9391C58.7365 18.0119 58.8797 18.0484 59.0246 18.0446C59.1581 18.0451 59.289 18.0086 59.403 17.9391C59.5271 17.8661 59.6278 17.7593 59.6933 17.6311C59.7628 17.5226 59.805 17.3988 59.8165 17.2704C59.8169 17.137 59.7804 17.006 59.7109 16.8921C59.6437 16.7666 59.5392 16.6652 59.4118 16.6018C59.2929 16.5278 59.1559 16.4882 59.0158 16.4874C58.8824 16.4869 58.7514 16.5235 58.6375 16.593C58.5139 16.6693 58.4112 16.7751 58.3384 16.9009C58.2681 17.0246 58.2289 17.1634 58.224 17.3056C58.2175 17.4402 58.2479 17.5741 58.312 17.6927C58.3922 17.796 58.4944 17.8802 58.6111 17.9391Z" fill="#00829B"/>
<path d="M61.9281 22.3732C61.5653 22.0635 61.2868 21.667 61.1187 21.2206C60.973 20.7989 60.9486 20.3447 61.0483 19.9097C61.1282 19.4686 61.3328 19.0595 61.6377 18.7308C61.9302 18.4009 62.3075 18.1574 62.7287 18.027C63.1492 17.9126 63.5926 17.9126 64.0132 18.027C64.4764 18.1465 64.9027 18.3793 65.2537 18.7044C65.6005 19.0384 65.8603 19.4522 66.0103 19.9097C66.164 20.3165 66.2065 20.7568 66.1335 21.1854C66.0587 21.6239 65.8568 22.0308 65.5528 22.3556C65.2585 22.6876 64.8778 22.9313 64.4531 23.0594C64.0338 23.1826 63.5879 23.1826 63.1686 23.0594C62.7033 22.9402 62.2763 22.704 61.9281 22.3732ZM63.0102 21.1502C63.1177 21.2479 63.2476 21.3174 63.3885 21.3526C63.5145 21.3924 63.6497 21.3924 63.7756 21.3526C63.9155 21.2952 64.0393 21.2046 64.1363 21.0887C64.244 20.9824 64.3202 20.8484 64.3563 20.7016C64.3915 20.5749 64.3915 20.4411 64.3563 20.3144C64.3152 20.1755 64.2323 20.0526 64.1187 19.9625C64.0164 19.8643 63.8883 19.7971 63.7492 19.769C63.6195 19.7343 63.483 19.7343 63.3533 19.769C63.2122 19.8197 63.0875 19.9079 62.9926 20.0241C62.8918 20.1306 62.8192 20.2607 62.7815 20.4024C62.7518 20.5312 62.761 20.6659 62.8079 20.7895C62.8421 20.9276 62.9154 21.0528 63.019 21.1502H63.0102Z" fill="#00829B"/>
<path d="M64.0571 24.3088L67.7698 21.467L68.9048 22.9451L65.1921 25.7868L64.0571 24.3088ZM67.2068 24.212L67.2948 23.0595C67.754 22.9447 68.2344 22.9447 68.6936 23.0595C69.1041 23.1856 69.4604 23.4458 69.7054 23.7985C69.8214 23.9458 69.9161 24.1087 69.9869 24.2824C70.0376 24.4201 70.0556 24.5676 70.0397 24.7135L68.2273 24.7838C68.2441 24.7085 68.2441 24.6304 68.2273 24.5551C68.1953 24.4653 68.1476 24.3819 68.0866 24.3088C68.0424 24.2422 67.984 24.1863 67.9155 24.1452C67.847 24.1041 67.7702 24.0789 67.6907 24.0712C67.5179 24.06 67.3466 24.1098 67.2068 24.212Z" fill="#00829B"/>
<path d="M67.981 30.3617L74.2275 27.7223L74.9577 29.4819L68.7112 32.1212L67.981 30.3617ZM71.9664 26.517L73.4532 25.9011L75.7407 31.3998L74.2451 32.0245L71.9664 26.517Z" fill="#00829B"/>
<path d="M69.415 34.3208L73.9724 33.2738L74.3859 35.095L69.8461 36.1331L69.415 34.3208ZM74.6058 34.0832C74.5734 33.9612 74.5676 33.8336 74.5888 33.7091C74.6101 33.5846 74.6579 33.4661 74.729 33.3618C74.7968 33.2544 74.8855 33.1617 74.9897 33.0892C75.094 33.0166 75.2117 32.9657 75.336 32.9395C75.5851 32.8823 75.8466 32.9233 76.0662 33.0539C76.1771 33.1164 76.2731 33.2023 76.3475 33.3056C76.4219 33.4089 76.4731 33.5271 76.4973 33.6521C76.5311 33.7755 76.5376 33.9047 76.5163 34.0308C76.4951 34.1569 76.4465 34.2769 76.3742 34.3823C76.3053 34.4897 76.2151 34.5818 76.1091 34.653C76.0032 34.7241 75.8838 34.7727 75.7583 34.7958C75.6357 34.8278 75.508 34.835 75.3825 34.8168C75.2571 34.7987 75.1366 34.7557 75.0281 34.6903C74.9179 34.6258 74.823 34.5381 74.7501 34.4333C74.6771 34.3284 74.6279 34.209 74.6058 34.0832Z" fill="#00829B"/>
<path d="M70.0398 37.4177L76.603 36.793L76.779 38.6406L70.2158 39.2653L70.0398 37.4177ZM73.0839 36.1244L74.5971 35.9836L74.9666 39.8195L73.4534 39.9691L73.0839 36.1244Z" fill="#00829B"/>
<path d="M70.0396 42.7844C70.0702 42.3098 70.2184 41.8502 70.4707 41.4471C70.7003 41.0673 71.0331 40.7606 71.4303 40.5628C71.8275 40.365 72.2728 40.2842 72.7142 40.3298C73.1521 40.3597 73.5727 40.5126 73.9276 40.771C74.2824 41.0294 74.5571 41.3827 74.7201 41.7902C74.9007 42.233 74.9702 42.7133 74.9225 43.1891C74.8919 43.6637 74.7437 44.1233 74.4914 44.5264C74.2605 44.8974 73.9358 45.2009 73.55 45.4062C73.1517 45.6016 72.7073 45.6838 72.2655 45.6437C71.8254 45.614 71.4024 45.4613 71.0447 45.2031C70.687 44.945 70.4089 44.5916 70.242 44.1833C70.0593 43.7411 69.9897 43.2603 70.0396 42.7844ZM71.6672 42.9164C71.6448 43.054 71.6637 43.1953 71.7217 43.3222C71.7796 43.449 71.874 43.5558 71.9928 43.629C72.1218 43.7041 72.2662 43.7493 72.4151 43.761C72.5644 43.7733 72.7147 43.7522 72.855 43.6994C72.9769 43.6449 73.0829 43.5601 73.1629 43.453C73.2443 43.3333 73.29 43.193 73.2949 43.0483C73.3123 42.9066 73.2879 42.7628 73.2245 42.6348C73.1635 42.5165 73.0725 42.4164 72.9605 42.3445C72.8328 42.2651 72.6881 42.2169 72.5382 42.2037C72.3917 42.1919 72.2444 42.2129 72.1071 42.2653C71.9828 42.3201 71.8761 42.4084 71.7992 42.5205C71.7249 42.6273 71.6795 42.7516 71.6672 42.8812V42.9164Z" fill="#00829B"/>
<path d="M68.7905 66.7059C68.7079 65.8688 68.5757 65.0374 68.3946 64.216C67.9087 62.1134 67.2526 60.0538 66.4327 58.0575C66.301 57.8046 66.2034 57.5354 66.1423 57.2569C66.1118 56.9321 66.1118 56.6051 66.1423 56.2803C66.1423 56.0252 66.1423 55.7525 66.1951 55.4973C66.2479 55.2422 66.4679 55.0134 66.8022 54.9167C67.3635 54.8007 67.94 54.7769 68.509 54.8463C69.0451 54.8814 69.5829 54.8814 70.119 54.8463C70.5416 54.8527 70.9591 54.7528 71.3331 54.556C71.6443 54.3689 71.8924 54.0932 72.0457 53.7641C72.1784 53.3922 72.2291 52.996 72.1941 52.6027C72.1592 52.2093 72.0395 51.8282 71.8434 51.4855C71.4809 50.6807 70.9568 49.959 70.3038 49.3652C69.8903 49.0045 69.424 48.6966 68.9753 48.371L67.5852 47.3769C66.6526 46.717 65.7113 46.0396 64.7347 45.4501C63.8487 44.9165 62.9078 44.4799 61.9282 44.148C60.846 43.7785 59.7287 43.4706 58.6113 43.2067C58.4648 43.1849 58.3246 43.1321 58.2001 43.0516C58.0757 42.9712 57.9699 42.8651 57.8899 42.7404L57.3972 41.9926C57.1069 41.5615 56.8166 41.1128 56.5174 40.7081C54.1156 37.1889 51.6082 33.6697 48.2914 31.0304C46.6968 29.7055 44.8756 28.6802 42.9159 28.0039C41.912 27.6707 40.859 27.5101 39.8014 27.5288C39.3799 27.5246 38.9616 27.6023 38.5697 27.7576C38.1479 27.9605 37.7545 28.2178 37.3996 28.523C37.0361 28.7744 36.7051 29.0699 36.4143 29.4028C36.1054 29.5941 35.8437 29.8527 35.6488 30.1594C35.5675 30.2653 35.4939 30.377 35.4289 30.4937C35.1854 30.9382 34.968 31.3964 34.7778 31.8662C34.2764 33.0099 33.7749 34.1712 33.3174 35.3853C32.8625 36.5875 32.469 37.8119 32.1385 39.0541C31.7984 40.2558 31.5369 41.4783 31.3555 42.714C31.2675 43.3738 31.1883 44.0425 31.1091 44.7111C31.1153 45.0318 31.006 45.3441 30.8012 45.5909C30.5519 45.8118 30.27 45.9929 29.9654 46.1276C29.429 46.3639 28.8591 46.5153 28.2762 46.5763C28.0182 46.6248 27.7554 46.6425 27.4932 46.629C27.4228 46.629 27.3084 46.6291 27.3172 46.4795C27.3456 46.4124 27.3841 46.35 27.4316 46.2947L27.7219 45.8284C28.0299 45.2918 28.3026 44.7287 28.6017 44.1744L28.9712 43.3826C29.1098 43.1408 29.2275 42.8877 29.3231 42.626C29.3548 42.4674 29.3343 42.3027 29.2645 42.1568C29.1947 42.0109 29.0794 41.8915 28.936 41.8166C28.5152 41.5617 28.0288 41.4363 27.5372 41.4559C26.1453 41.3767 24.75 41.3767 23.3582 41.4559C23.1853 41.4646 23.012 41.4646 22.8391 41.4559C22.5928 41.4559 22.6367 41.2887 22.6104 41.0776L22.5048 40.0394L22.452 39.5467C22.4472 39.4735 22.4472 39.4 22.452 39.3268C22.496 39.2124 22.6455 39.2212 22.7423 39.1948L23.7541 38.9925C23.7925 38.6835 23.9466 38.4006 24.1852 38.2007C24.3084 38.0958 24.4049 37.9631 24.4667 37.8136C24.4966 37.6777 24.4938 37.5367 24.4586 37.4021C24.4235 37.2675 24.3569 37.1432 24.2644 37.0393C24.0273 36.6939 23.6748 36.4443 23.2702 36.3355C22.7863 36.2123 22.3112 36.3355 21.8361 36.3355C21.361 36.3355 21.2907 36.5291 20.9563 36.7666C20.6229 37.0167 20.3267 37.3129 20.0766 37.6464C19.8366 37.9735 19.6551 38.3396 19.5399 38.7285C19.4818 38.9166 19.4522 39.1123 19.4519 39.3092C19.4519 39.5379 19.4519 39.7667 19.4519 39.9866C19.4519 39.9866 19.6279 39.9866 19.707 39.9866C19.88 39.9217 20.0562 39.8659 20.2349 39.8195C20.442 39.7888 20.6525 39.7888 20.8596 39.8195C20.9964 39.8615 21.1388 39.8823 21.2819 39.8811C21.4402 39.8811 21.5282 39.7315 21.669 39.6963C21.9857 39.6171 21.9945 40.013 22.0473 40.2242L22.1705 40.7609L22.2408 41.0864C22.2408 41.1744 22.3816 41.4383 22.3464 41.5263C22.3112 41.6142 21.7658 41.7374 21.5898 41.8518C21.497 41.9133 21.421 41.997 21.3688 42.0954C21.3166 42.1937 21.2897 42.3035 21.2907 42.4149C21.1939 43.2946 21.2203 44.1744 21.1675 45.0542C21.1356 45.3466 21.1356 45.6416 21.1675 45.934C21.1675 46.1188 21.2643 46.2243 21.1675 46.4003C21.1037 46.4909 21.045 46.5849 20.9915 46.6818C20.9428 46.9435 20.9428 47.212 20.9915 47.4736C20.9915 47.9135 20.9915 48.3534 20.9212 48.7933C20.8508 49.2332 20.8068 49.7347 20.7364 50.2098C20.7364 50.3858 20.622 50.7289 20.7364 50.8784C20.8652 50.9564 21.0044 51.0157 21.1499 51.0544L21.6338 51.2392C22.0234 51.3905 22.4272 51.5025 22.8391 51.5735C23.0117 51.5909 23.1856 51.5909 23.3582 51.5735C23.4755 51.5614 23.5941 51.5756 23.7052 51.6152C23.8163 51.6548 23.9172 51.7187 24.0004 51.8022L25.0562 52.682L25.5137 53.0515C25.6368 53.1483 25.9184 53.2627 25.9184 53.421C25.9184 53.5794 25.7776 53.6498 25.7424 53.7026L25.5664 53.9753C25.4433 54.1601 25.3289 54.336 25.2233 54.5208C24.3395 55.9734 23.854 57.6333 23.8157 59.3332C23.8675 62.3282 24.8928 65.2249 26.7366 67.5856C27.7492 68.9529 28.9318 70.1857 30.2557 71.2544C31.6974 72.3631 33.2275 73.3517 34.8306 74.2105L32.6839 75.97L32.244 76.322C32.244 76.322 32.0505 76.5155 31.9977 76.4979C31.9372 76.3927 31.8899 76.2804 31.8569 76.1636C31.6986 75.8029 31.5314 75.4422 31.3467 75.0903C30.6042 73.7019 29.6812 72.418 28.6017 71.272C27.9859 70.5916 27.37 69.923 26.7542 69.266C26.1867 68.6399 25.5783 68.0521 24.933 67.5065C24.2468 66.961 23.5341 66.4595 22.8127 65.958C22.1504 65.48 21.4433 65.0675 20.7012 64.7263C20.5568 64.645 20.3977 64.5931 20.2331 64.5735C20.0686 64.5538 19.9017 64.5669 19.7422 64.612C19.4695 64.7351 19.6719 64.9375 19.6806 65.1662C19.6612 65.353 19.6289 65.5382 19.5839 65.7205C19.5481 65.9297 19.5305 66.1417 19.5311 66.3539C19.5424 66.7143 19.5986 67.0719 19.6982 67.4185C19.9148 68.1491 20.2097 68.8541 20.578 69.5212C20.9739 70.3394 21.3786 71.14 21.7833 71.9406C22.5928 73.5242 23.411 75.099 24.3259 76.6123C24.5459 76.973 24.7658 77.3337 24.9946 77.6768C25.109 77.8616 25.2321 78.0463 25.3553 78.2311C25.5145 78.4158 25.6396 78.6273 25.7248 78.8558C25.7248 79.0229 25.5401 79.2253 25.4521 79.3484L25.0738 79.9027C24.7955 80.2792 24.5511 80.6796 24.3435 81.0992C24.1985 81.4259 24.0922 81.7684 24.0268 82.1198C23.9238 82.4233 23.8674 82.7407 23.8597 83.0611C23.9476 83.5274 24.7394 83.3691 25.0738 83.3427C26.5875 83.1359 28.0427 82.6209 29.3495 81.8294C29.9997 81.4656 30.6257 81.06 31.2235 80.6153C31.813 80.1666 32.464 79.586 33.2646 79.8235C33.6517 79.9379 34.0036 80.1754 34.3731 80.325C34.7534 80.4473 35.1414 80.5443 35.5345 80.6153C36.4063 80.7979 37.2874 80.9329 38.1738 81.02C39.9241 81.2435 41.6917 81.2994 43.4526 81.1872C45.174 81.0582 46.883 80.7964 48.5641 80.4042C51.6944 79.7648 54.6779 78.5474 57.362 76.8146C58.6684 75.9532 59.8245 74.8832 60.7844 73.6474C61.374 72.9798 62.045 72.3886 62.7816 71.8878C62.9223 71.7734 63.1775 71.4831 63.371 71.5183C63.5646 71.5535 63.7669 71.7822 63.9165 71.8702C64.2549 72.0775 64.6112 72.2542 64.981 72.3981C65.6524 72.719 66.3933 72.8672 67.1365 72.8292C67.4188 72.8222 67.6897 72.7164 67.9019 72.5301C68.0915 72.2321 68.2311 71.9052 68.3154 71.5623C68.7999 69.9921 68.9615 68.3401 68.7905 66.7059ZM21.2819 39.142C20.743 39.0655 20.1935 39.1449 19.6982 39.3708C19.864 38.8711 20.076 38.3881 20.3317 37.9279C20.4881 37.6958 20.6647 37.4779 20.8596 37.2769C20.9307 37.1765 21.0168 37.0875 21.1147 37.0129C21.1658 36.9882 21.2241 36.9826 21.2789 36.9972C21.3338 37.0117 21.3817 37.0454 21.4138 37.0921C21.2323 37.7597 21.1904 38.4575 21.2907 39.142H21.2819ZM37.1181 29.0245L37.8747 28.3998C38.3135 28.0262 38.8578 27.7986 39.4319 27.7488C40.7386 27.6794 42.0434 27.9174 43.2414 28.4438C45.5572 29.4629 47.6498 30.9277 49.3999 32.7548C51.1835 34.5495 52.8084 36.4952 54.2564 38.5702C55.8048 40.7345 57.2653 42.9691 58.6553 45.2038C61.5422 49.4962 63.9608 54.0855 65.8696 58.8933C66.7476 61.2751 67.3383 63.753 67.6292 66.2748C67.7831 67.5474 67.8185 68.8315 67.7348 70.1106C67.7035 70.7697 67.6062 71.4241 67.4444 72.0638C67.2773 72.662 66.5207 72.4685 66.072 72.3365C65.4664 72.1636 64.8775 71.9369 64.3124 71.6591C63.6965 71.3423 63.1335 70.9288 62.5528 70.5593C61.4531 69.8467 60.3445 69.1781 59.2888 68.3687C58.233 67.5593 57.1245 66.8906 56.0512 66.1428C54.9778 65.395 53.8693 64.6296 52.7344 63.9433L51.9074 63.4506C51.8351 63.3898 51.7504 63.3457 51.6591 63.3213C51.5679 63.297 51.4724 63.2931 51.3795 63.3099C51.3795 63.3099 51.3795 63.3714 51.3795 63.389C51.6249 63.662 51.9245 63.8807 52.2593 64.0313C52.6904 64.2776 53.1391 64.5152 53.535 64.7791C54.2809 65.2241 55.0006 65.7117 55.6904 66.2396C55.0146 66.4879 54.2989 66.6102 53.5789 66.6003C52.8759 66.6487 52.1705 66.6487 51.4675 66.6003C49.907 66.5037 48.355 66.3008 46.8222 65.9932C45.2825 65.6765 43.7341 65.351 42.2121 64.9199C40.7279 64.4869 39.2805 63.9368 37.8835 63.2747C37.1609 62.9381 36.4587 62.5591 35.7808 62.1397C35.4094 61.9688 35.0793 61.7197 34.813 61.4095C34.6083 61.1293 34.4231 60.8354 34.2588 60.5297C33.5927 59.2347 33.0421 57.8833 32.6136 56.4915C32.1596 55.0719 31.8184 53.6186 31.593 52.1453C31.4874 51.4063 31.3995 50.6673 31.3291 49.9283C31.2587 49.1628 31.1795 48.3886 31.1795 47.6232C31.1795 47.544 31.1795 47.2185 31.2411 47.3153C31.3027 47.4121 31.3027 47.5616 31.3379 47.6584C31.435 47.9619 31.5587 48.2563 31.7074 48.5382C31.9589 49.077 32.2531 49.5948 32.5872 50.0866C33.2796 51.0694 34.2745 51.7986 35.4201 52.1629C36.6666 52.6237 38.0302 52.6608 39.3 52.2685C40.4442 51.8026 41.4306 51.0178 42.1417 50.0074C42.9532 48.8831 43.5498 47.6184 43.9013 46.2771C44.103 45.5594 44.2645 44.831 44.3851 44.0953C44.5128 43.4166 44.5747 42.7271 44.5699 42.0365C44.5699 41.1568 44.1652 39.4676 42.9951 39.45C42.3894 39.5217 41.8162 39.7626 41.3411 40.145C40.7076 40.5497 40.0918 41.0248 39.4407 41.3855C38.3276 42.1344 36.9779 42.4475 35.6488 42.2653C35.0235 42.1356 34.4344 41.8698 33.9234 41.4866C33.4125 41.1034 32.9923 40.6123 32.6927 40.0482C32.4646 39.7104 32.3762 39.2973 32.4464 38.8957C32.5256 38.5421 32.6225 38.1927 32.7367 37.8487C32.9567 37.0833 33.203 36.3267 33.4934 35.5789C34.0476 34.1624 34.5315 32.6932 35.2089 31.3295C35.5599 30.6827 35.9787 30.0752 36.4582 29.5171C36.6863 29.3798 36.8962 29.2143 37.0829 29.0245H37.1181ZM61.2067 72.4685C59.9051 73.3744 58.4915 74.1078 57.0013 74.6504C56.6304 74.7975 56.2515 74.9238 55.8664 75.0287C55.972 74.7647 56.0776 74.5008 56.2007 74.2369C56.3239 73.9729 56.4383 73.6914 56.535 73.4099C56.7423 72.8433 56.8725 72.2515 56.9222 71.6503C57.0046 70.5057 56.8178 69.3577 56.3767 68.2983C56.1478 67.7181 55.8335 67.1754 55.4441 66.6883C55.6693 66.5925 55.9199 66.5739 56.1567 66.6355C56.2788 66.689 56.394 66.7569 56.4999 66.8378L56.9046 67.093C57.3796 67.4097 57.8547 67.7352 58.321 68.0695C58.7873 68.4038 59.2536 68.7382 59.7111 69.0725C60.1686 69.4068 60.6437 69.7851 61.1275 70.1106C61.6114 70.4362 62.1745 70.7881 62.6848 71.1488C62.2777 71.6761 61.7766 72.1235 61.2067 72.4685ZM59.1568 74.7559C57.3948 76.3908 55.3536 77.696 53.1303 78.6094C50.9405 79.5365 48.6397 80.1753 46.2855 80.5098C43.7431 80.8936 41.1622 80.9527 38.6049 80.6857C37.2627 80.4891 35.9366 80.1951 34.6371 79.8059C34.3204 79.7267 34.0036 79.6476 33.6869 79.5508C33.3702 79.454 33.1326 79.3396 32.8071 79.2605C32.6309 79.2165 32.4466 79.2165 32.2704 79.2605C32.049 79.3549 31.8486 79.4925 31.681 79.6652C30.7258 80.4545 29.6803 81.1279 28.5665 81.6711C27.4978 82.2456 26.3507 82.6606 25.1617 82.9028C24.8548 82.938 24.5449 82.938 24.238 82.9028C24.2706 82.6596 24.3296 82.4206 24.4139 82.1902C24.506 81.8911 24.6147 81.5974 24.7394 81.3104C24.9682 80.8089 25.3025 80.3514 25.6192 79.8675L26.0063 79.2165C26.12 79.048 26.1923 78.8551 26.2175 78.6534C26.1853 78.2555 26.014 77.8818 25.7336 77.5977C24.4105 75.7171 23.2086 73.7541 22.1353 71.7207C21.6162 70.7177 21.1323 69.6971 20.666 68.6678C20.4069 68.1573 20.2034 67.6205 20.059 67.0666C20.0053 66.8232 19.97 66.5762 19.9534 66.3275C19.9312 66.0324 19.9549 65.7356 20.0238 65.4478C20.0238 65.3158 20.1381 65.351 20.2701 65.395C20.4021 65.439 20.4901 65.5093 20.5956 65.5621L21.4138 66.002C21.9417 66.2924 22.4344 66.6179 22.9359 66.9522C23.8587 67.543 24.7405 68.1955 25.5752 68.9053C26.455 69.6883 27.2644 70.5593 28.0738 71.4039C28.8849 72.1884 29.6294 73.0388 30.2997 73.9465C30.5988 74.3864 30.8716 74.8263 31.1267 75.3102C31.2499 75.5214 31.3643 75.7413 31.4874 75.9612C31.6106 76.1812 31.8569 76.5595 31.7338 76.7794C31.6367 76.8941 31.5755 77.0349 31.5578 77.1842C31.5496 77.2467 31.5648 77.3101 31.6005 77.3621C31.6363 77.4141 31.69 77.451 31.7514 77.4657C31.8266 77.4794 31.904 77.4737 31.9764 77.449C32.0488 77.4244 32.1136 77.3817 32.1649 77.3249C32.376 77.1138 32.6048 76.9202 32.8247 76.7179L34.1356 75.5213L34.7866 74.9231L35.0682 74.6679C35.2001 74.536 35.2617 74.4128 35.4553 74.5008C36.5058 74.9955 37.5873 75.4216 38.6929 75.7765C40.9281 76.4632 43.2382 76.8768 45.5729 77.0082C49.9391 77.3345 54.3193 76.5979 58.3386 74.8615L59.06 74.5096C59.2288 74.3892 59.416 74.2971 59.6143 74.2369L59.1568 74.7559ZM31.4522 70.7441C31.1699 70.499 30.9396 70.1999 30.7748 69.8643C30.6165 69.5848 30.4868 69.2901 30.3877 68.9845C30.1758 68.3005 30.1425 67.5736 30.2909 66.873C30.3846 66.4671 30.5203 66.072 30.6956 65.6941C30.8462 65.3359 31.0165 64.9864 31.2059 64.6471C31.3907 64.304 31.593 63.9697 31.813 63.6354C32.0068 63.3257 32.2245 63.0315 32.464 62.7556C32.9048 62.3073 33.4577 61.9853 34.0652 61.823C34.2231 61.7675 34.3912 61.7465 34.5579 61.7614C34.6538 61.7852 34.7418 61.8337 34.813 61.9022C34.8672 61.9652 34.926 62.024 34.989 62.0782C35.2969 62.2981 35.64 62.4917 35.9656 62.6852C37.3208 63.4905 38.7496 64.1652 40.2325 64.6999C40.998 64.9815 41.781 65.2102 42.564 65.4302L44.9746 66.09C45.1682 66.09 45.3529 66.1692 45.5465 66.1956C45.74 66.222 45.8808 66.2396 45.9776 66.3891C46.0638 66.5546 46.1232 66.7328 46.1535 66.917C46.198 67.0999 46.2332 67.2849 46.2591 67.4713C46.3647 68.2301 46.3647 68.9999 46.2591 69.7587C46.1623 70.5769 46.0216 71.4039 45.8456 72.2133C45.6738 73.0257 45.4203 73.8186 45.089 74.58C44.9411 74.9362 44.7553 75.2754 44.5347 75.5917C44.5135 75.6332 44.4869 75.6716 44.4555 75.7061C44.4555 75.7589 44.4555 75.7677 44.35 75.7677L44.0332 75.7149L43.4526 75.6357C43.0479 75.5565 42.6432 75.4598 42.2385 75.363L40.9804 75.0639C39.4806 74.6698 38.0106 74.17 36.5814 73.5682C35.147 72.9772 33.7714 72.2526 32.4728 71.4039C32.0769 71.1928 31.7602 70.9376 31.4522 70.7441ZM29.5871 69.2484C28.5295 68.2978 27.5741 67.2392 26.7366 66.09C25.8841 64.939 25.2217 63.6588 24.7746 62.2981C24.5712 61.6297 24.4327 60.9432 24.3611 60.2482C24.339 59.8849 24.339 59.5206 24.3611 59.1573C24.3452 58.788 24.3778 58.4183 24.4579 58.0575C24.5687 57.6935 24.7413 57.3512 24.9682 57.0458C25.1708 56.7353 25.3973 56.4412 25.6456 56.166C26.1256 55.6576 26.6698 55.214 27.2644 54.8463C27.4148 54.747 27.5705 54.6559 27.7307 54.5736C27.8031 54.5431 27.8809 54.5274 27.9595 54.5274C28.038 54.5274 28.1158 54.5431 28.1882 54.5736C28.5841 54.7143 28.9624 54.8727 29.3495 55.0222C29.7366 55.1718 30.1238 55.3126 30.5197 55.4357C30.9156 55.5589 31.2587 55.6293 31.637 55.7085L32.2001 55.8317C32.6535 57.3402 33.2241 58.811 33.9069 60.2306C34.0916 60.6265 34.294 61.0136 34.4963 61.4007C33.3135 61.4936 32.2057 62.0162 31.3819 62.87C30.9028 63.3867 30.5159 63.9819 30.2381 64.6296C30.0672 64.9595 29.9259 65.304 29.8158 65.6589C29.7374 66.0335 29.6815 66.4125 29.6487 66.7938C29.6487 67.2425 29.5431 67.6736 29.5431 68.1311C29.5278 68.5146 29.5754 68.8979 29.6839 69.266C29.6509 69.2649 29.6183 69.2589 29.5871 69.2484ZM24.801 56.3507C24.8714 56.1132 24.9594 55.8844 25.0562 55.6469C25.263 55.1507 25.5133 54.6738 25.804 54.2216C25.9305 54.0109 26.0779 53.8134 26.2439 53.6322L27.3172 54.2392C26.2667 54.8741 25.3782 55.7446 24.7218 56.7818C24.7394 56.6147 24.7746 56.4827 24.801 56.3507ZM26.0503 51.9518C25.109 51.2479 24.1764 50.5353 23.2614 49.7963C22.8507 49.4612 22.4736 49.087 22.1353 48.679C21.7896 48.2945 21.5554 47.823 21.4578 47.3153C21.4069 47.1121 21.4385 46.897 21.5458 46.717C21.7224 46.5738 21.9431 46.4961 22.1705 46.4971C22.4458 46.4795 22.7221 46.4795 22.9975 46.4971L23.8772 46.5411C24.4579 46.5411 25.0386 46.6203 25.6368 46.6906C26.2351 46.761 26.8069 46.8402 27.3964 46.8666C28.0234 46.8728 28.6492 46.8079 29.2616 46.673C29.5607 46.6115 29.8598 46.5499 30.1414 46.4619C30.4229 46.3739 30.6956 46.2595 30.9684 46.154C30.9684 47.3329 30.9684 48.5118 31.0915 49.6731C31.1727 50.9039 31.3254 52.1289 31.549 53.3418C31.6722 53.9929 31.8305 54.6527 31.9977 55.295C31.1541 55.0915 30.3449 54.7655 29.5959 54.3272C28.7931 53.8824 28.0202 53.3857 27.282 52.8404L26.0503 51.9518ZM22.0561 49.4444C22.3816 49.9459 22.7423 50.4121 23.0942 50.896C22.8275 50.9533 22.5516 50.9533 22.2848 50.896C21.8338 50.8199 21.3896 50.7081 20.9563 50.5617C21.0003 50.0954 21.0443 49.6291 21.0795 49.1716C21.1147 48.7142 21.0795 48.371 21.1499 47.9751C21.4578 48.4678 21.7394 48.9429 22.0561 49.4444ZM21.9945 43.7961C21.8071 43.8545 21.6335 43.9503 21.4842 44.0777C21.4842 43.4882 21.5282 42.8987 21.581 42.3181C21.581 42.1597 21.7658 42.0629 21.9065 42.0102L22.3376 41.9046L22.5752 43.7697C22.3817 43.7411 22.1846 43.7501 21.9945 43.7961ZM24.7746 41.7902C25.4873 41.7902 26.2087 41.7902 26.9213 41.8958C27.2639 41.9277 27.6045 41.9777 27.9419 42.0453C28.112 42.0796 28.2699 42.1585 28.3994 42.2741C28.489 42.3454 28.5947 42.3937 28.7073 42.4149C28.523 43.0522 28.2537 43.6618 27.9067 44.2272C27.8225 44.2099 27.7357 44.2099 27.6515 44.2272C27.5287 44.2402 27.4049 44.2402 27.282 44.2272C27.0502 44.2106 26.8205 44.1723 26.5958 44.1129C26.3846 44.0601 26.1735 43.9985 25.9536 43.9633C25.7312 43.9413 25.5073 43.9413 25.2849 43.9633C25.0666 43.9733 24.8492 43.9968 24.6339 44.0337C24.4139 44.0337 24.194 44.1304 23.9652 44.1656C23.7285 44.2197 23.4802 44.182 23.2702 44.0601C23.2209 44.0282 23.1789 43.9862 23.147 43.9369C23.1231 43.881 23.1082 43.8216 23.103 43.7609L23.0239 43.409C22.9095 42.8899 22.8039 42.3797 22.6895 41.8606C23.3846 41.8254 24.0972 41.7902 24.7746 41.7902ZM26.411 46.5059C25.4204 46.4722 24.4344 46.3545 23.4637 46.154C23.3934 45.6173 23.3318 45.0806 23.2614 44.5439C23.5235 44.5879 23.7911 44.5879 24.0532 44.5439C24.3611 44.4912 24.6691 44.4384 24.977 44.4032C25.2849 44.368 25.6104 44.3328 25.9184 44.3328C26.0864 44.3467 26.2504 44.3914 26.4022 44.4648C26.5358 44.5191 26.6743 44.5603 26.8157 44.5879C27.1077 44.6274 27.4036 44.6274 27.6955 44.5879C27.3543 45.2814 26.9223 45.9263 26.411 46.5059ZM21.3786 45.8284C21.3786 45.3797 21.3786 44.9487 21.4314 44.4912C21.6328 44.4147 21.8384 44.3501 22.0473 44.2976C22.1626 44.267 22.2839 44.267 22.3992 44.2976C22.5139 44.3259 22.6179 44.3871 22.6983 44.4736C22.7319 44.5395 22.7528 44.6111 22.7599 44.6847C22.7599 44.7463 22.7599 44.8167 22.7599 44.8783C22.7599 44.9399 22.8215 45.1422 22.8479 45.2742C22.8743 45.4061 22.9623 45.802 23.0151 46.0572C22.6636 46.0308 22.3107 46.0308 21.9593 46.0572C21.8014 46.0743 21.6421 46.0743 21.4842 46.0572C21.3874 46.0572 21.3786 45.9428 21.3786 45.8284ZM45.2122 75.5125C45.3247 75.4017 45.4304 75.2842 45.5289 75.1606C45.7133 74.8851 45.8668 74.5901 45.9864 74.2808C46.2992 73.651 46.5782 73.0049 46.8222 72.3453C47.0382 71.6711 47.1769 70.9745 47.2357 70.269C47.3391 69.6154 47.3301 68.9489 47.2093 68.2983C47.1164 67.9609 47.0048 67.629 46.875 67.3041L46.6814 66.829C46.6814 66.7323 46.611 66.6443 46.567 66.5475C46.5588 66.4921 46.5588 66.4358 46.567 66.3803C48.7288 66.7956 50.9303 66.9668 53.1303 66.8906C53.7461 66.8906 54.3708 66.8114 54.9778 66.7323C55.359 67.1996 55.5946 67.7686 55.6553 68.3687C55.7872 69.0285 55.8928 69.6971 55.9632 70.3658C56.0364 71.0408 56.0745 71.7191 56.0776 72.3981C56.0391 73.1094 55.869 73.8075 55.5761 74.4568C55.5058 74.6805 55.4114 74.8958 55.2945 75.0991C55.2075 75.2082 55.0869 75.2855 54.9514 75.319C54.3722 75.4837 53.7849 75.6188 53.1918 75.7237C51.899 75.9565 50.5901 76.0889 49.2768 76.1196C48.6257 76.1196 47.9747 76.1196 47.3324 76.1196L46.3559 76.058C46.0216 76.058 45.6784 76.0052 45.3529 75.9612L45.1242 75.9173H45.001H44.9482L45.2122 75.5125ZM41.8777 40.7433C42.0889 40.6377 42.2737 40.4881 42.4936 40.4001C42.7261 40.3123 42.9826 40.3123 43.215 40.4001C43.3003 40.4387 43.3672 40.5089 43.4017 40.5959C43.4362 40.6829 43.4355 40.7799 43.3998 40.8664C43.3321 41.0827 43.2437 41.2918 43.1358 41.4911C42.9232 41.8811 42.6218 42.2156 42.2561 42.4676C42.101 42.6219 41.8939 42.7129 41.6754 42.7228C41.4554 42.7228 41.4291 42.4237 41.4115 42.2477C41.4115 41.9398 41.4115 41.6406 41.4115 41.3679C41.419 41.2294 41.4673 41.0963 41.5502 40.9851C41.6332 40.874 41.7471 40.7899 41.8777 40.7433ZM58.409 43.4882C58.7961 43.6114 59.192 43.7257 59.5791 43.8577L60.7492 44.2624C61.5235 44.5352 62.2889 44.8167 63.0367 45.1422C63.7607 45.4803 64.4604 45.8683 65.1306 46.3035C65.8256 46.7434 66.4767 47.2361 67.1541 47.7024C67.8315 48.1687 68.4914 48.5822 69.1248 49.0925C69.7051 49.5275 70.2206 50.043 70.6557 50.6233C71.0811 51.18 71.354 51.838 71.4475 52.5324C71.4782 52.6839 71.4777 52.8401 71.4459 52.9914C71.4142 53.1427 71.3518 53.2859 71.2627 53.4122C71.1466 53.5222 71.0073 53.6047 70.855 53.6534C70.7026 53.7021 70.5413 53.7159 70.3829 53.6938C69.5713 53.6629 68.7628 53.5747 67.9635 53.4298C67.2908 53.281 66.5897 53.3236 65.94 53.553C65.8003 53.6236 65.6651 53.703 65.5353 53.7905C65.278 54.0009 65.0369 54.2303 64.8139 54.4768C64.0396 52.9987 63.2654 51.5295 62.4296 50.0778C62.0161 49.3564 61.5498 48.6526 61.1539 47.9223C60.758 47.1921 60.2742 46.5499 59.8694 45.8636C59.4647 45.1774 58.8753 44.2888 58.3738 43.5058L58.409 43.4882ZM22.584 36.6698C22.7915 36.6815 22.994 36.7378 23.1778 36.835C23.3615 36.9322 23.5221 37.0679 23.6485 37.2329C23.7655 37.3936 23.8492 37.5761 23.8948 37.7696L23.5693 38.2974C23.5077 37.5056 22.7863 37.0569 22.1529 36.661C22.2964 36.6463 22.4412 36.6492 22.584 36.6698ZM21.9153 38.9925C21.7292 38.3914 21.6959 37.7533 21.8185 37.1361C22.382 37.5086 22.859 37.9977 23.2174 38.5702L21.9153 38.9925Z" fill="#00829B"/>
<path d="M53.2356 33.6257C53.2454 34.2437 53.4119 34.8492 53.7195 35.3853C53.7741 35.4769 53.8626 35.5433 53.9658 35.57C54.0103 35.5704 54.0542 35.5602 54.0939 35.5403C54.1337 35.5205 54.1682 35.4914 54.1946 35.4557C54.2569 35.3651 54.3016 35.2636 54.3265 35.1565C54.3265 35.0246 54.4057 34.8926 54.4409 34.7606C54.4908 34.6154 54.5233 34.4648 54.5377 34.3119C54.5465 34.1713 54.5465 34.0303 54.5377 33.8896C54.5282 33.5922 54.4839 33.297 54.4057 33.0099C54.3698 32.8667 54.3257 32.7257 54.2738 32.5876C54.2337 32.4397 54.1746 32.2978 54.0978 32.1653C54.0678 32.1213 54.0294 32.0837 53.9849 32.0546C53.9403 32.0255 53.8905 32.0055 53.8382 31.9957C53.7859 31.9859 53.7321 31.9865 53.6801 31.9975C53.628 32.0085 53.5786 32.0296 53.5347 32.0597C53.3236 32.2005 53.3148 32.5084 53.2884 32.7283C53.2477 33.0257 53.2301 33.3257 53.2356 33.6257Z" fill="#00829B"/>
<path d="M52.7783 56.5532C52.7581 56.5971 52.7523 56.6463 52.7618 56.6938C52.7713 56.7412 52.7955 56.7844 52.8311 56.8171C52.9258 56.9162 53.0486 56.9838 53.183 57.0107C53.6067 57.1115 54.0458 57.1294 54.4763 57.0635C54.9294 56.9823 55.3662 56.8278 55.7696 56.606C56.1564 56.4047 56.5001 56.1298 56.7813 55.7966C57.1022 55.4244 57.3044 54.9649 57.362 54.4769C57.3656 54.3123 57.3083 54.1522 57.2012 54.0272C57.0941 53.9022 56.9446 53.8211 56.7813 53.7995C56.7039 53.7842 56.6242 53.785 56.547 53.8016C56.4699 53.8183 56.3969 53.8505 56.3327 53.8962C56.1583 54.052 56.0304 54.253 55.9631 54.4769C55.8072 54.823 55.5995 55.1434 55.3473 55.4271C55.0701 55.7285 54.735 55.9708 54.3619 56.1397C54.1677 56.2294 53.9641 56.2972 53.7549 56.342C53.5166 56.3908 53.2757 56.426 53.0334 56.4476C52.9856 56.4441 52.9377 56.4519 52.8934 56.4702C52.8491 56.4885 52.8097 56.517 52.7783 56.5532Z" fill="#00829B"/>
<path d="M55.1627 59.5003C55.0469 59.554 54.94 59.6252 54.8459 59.7114V59.8522C55.057 59.9023 55.2718 59.9347 55.4882 59.949C55.6915 59.9562 55.8951 59.9415 56.0952 59.905C56.5136 59.8365 56.9178 59.6998 57.2918 59.5003C57.6937 59.2911 58.0816 59.056 58.4531 58.7965C58.779 58.563 59.0519 58.2631 59.2537 57.9167C59.3544 57.7549 59.4398 57.584 59.5088 57.4064C59.5855 57.2479 59.6072 57.0683 59.5704 56.8961C59.5327 56.756 59.4488 56.6328 59.3321 56.5466C59.2155 56.4603 59.0731 56.4161 58.9282 56.421C58.7871 56.4235 58.6508 56.4731 58.5411 56.5618C58.3852 56.7124 58.2597 56.8916 58.1716 57.0897C57.9473 57.4612 57.6784 57.804 57.3709 58.1102C56.795 58.7893 56.024 59.2746 55.1627 59.5003Z" fill="#00829B"/>
<path d="M47.5436 40.2769C47.8428 40.4528 48.0979 40.2769 48.3266 40.0657C48.597 39.8481 48.8473 39.6067 49.0745 39.3443C49.3019 39.0879 49.5051 38.8111 49.6815 38.5173C49.8451 38.2731 49.9449 37.9918 49.9718 37.6991C50.0198 37.4094 49.9603 37.1122 49.8047 36.8633C49.7279 36.7643 49.6179 36.6964 49.4951 36.6722C49.3722 36.6479 49.2447 36.6689 49.136 36.7313C49.0102 36.8205 48.8976 36.9271 48.8017 37.048C48.6698 37.1976 48.5466 37.3472 48.4234 37.5055C48.1885 37.7872 47.9683 38.0809 47.7636 38.3853C47.6492 38.5701 47.5348 38.7548 47.438 38.9484C47.3523 39.1442 47.2846 39.3474 47.2357 39.5554C47.2016 39.6928 47.2133 39.8375 47.2688 39.9677C47.3244 40.0979 47.4209 40.2064 47.5436 40.2769Z" fill="#00829B"/>
<path d="M50.9483 53.3419C51.1434 53.4109 51.3507 53.4379 51.5569 53.4212C51.7631 53.4046 51.9635 53.3445 52.1449 53.2451C52.4944 53.1079 52.8254 52.9276 53.1302 52.7084C53.4506 52.5031 53.7459 52.261 54.01 51.987C54.2865 51.7068 54.5233 51.3901 54.7138 51.0456L54.8458 50.7641C54.8458 50.7641 54.8898 50.7025 54.8898 50.6233C54.8942 50.5765 54.8942 50.5294 54.8898 50.4825C54.893 50.2971 54.8376 50.1155 54.7314 49.9635C54.6479 49.8441 54.5361 49.7474 54.4059 49.6819C54.3335 49.6721 54.2597 49.6797 54.1908 49.7042C54.122 49.7287 54.06 49.7693 54.01 49.8227C53.8585 49.995 53.7366 50.1912 53.6493 50.4034C53.5407 50.6002 53.4172 50.7885 53.2798 50.9664C53.0183 51.33 52.7238 51.6687 52.4 51.9782C52.0869 52.296 51.7128 52.5473 51.3003 52.7172L50.9835 52.814C50.9364 52.8228 50.8919 52.8425 50.8538 52.8715C50.8156 52.9005 50.7847 52.9381 50.7636 52.9811C50.6932 53.0867 50.8516 53.2363 50.9483 53.3419Z" fill="#00829B"/>
<path d="M36.5638 32.4116C36.8054 32.046 36.9894 31.6454 37.1092 31.2239C37.193 30.9787 37.193 30.7126 37.1092 30.4673C37.1092 30.4673 37.0565 30.3881 37.0477 30.3969C36.9858 30.4394 36.9296 30.4897 36.8805 30.5465C36.8475 30.6164 36.8238 30.6903 36.8101 30.7664C36.7573 30.9336 36.7045 31.1096 36.6606 31.2855C36.5715 31.6278 36.5213 31.979 36.511 32.3325L36.5638 32.4116Z" fill="#00829B"/>
</svg>
