<svg width="485" height="620" viewBox="0 0 485 620" fill="none" xmlns="http://www.w3.org/2000/svg">
<path d="M376.911 295.346C374.554 287.166 371.318 279.266 367.258 271.784C363.263 264.36 358.686 256.899 353.092 250.556C350.586 247.699 347.779 245.12 344.72 242.864C343.184 241.741 341.261 240.916 339.825 239.693C338.114 238.244 340.15 235.06 340.805 233.206C344.071 224.009 347.604 214.869 349.827 205.354C352.106 195.602 354.541 185.888 356.951 176.167C359.273 166.802 360.965 157.624 361.227 147.953C361.49 138.157 362.526 128.393 362.607 118.609C362.751 102.008 360.534 84.9575 350.17 71.4282C345.625 65.497 339.794 59.8343 332.795 56.9811C324.562 53.677 315.733 52.1166 306.866 52.3985C302.146 52.5795 297.383 53.3038 292.694 53.8407C288.133 54.2791 283.626 55.1679 279.24 56.4941C270.38 59.3536 261.046 60.8083 252.106 63.5116C242.797 66.3336 233.665 69.7111 224.76 73.6259C216.188 77.3719 207.279 80.0565 198.925 84.3395C191.096 88.3414 183.798 93.1551 176.393 97.8688C168.42 102.945 160.341 107.858 152.475 113.109C148.591 115.681 144.783 118.334 141.099 121.119C139.31 122.463 137.543 123.839 135.799 125.246C134.55 126.276 133.726 127.119 132.096 127.5C130.342 127.874 128.7 127.612 126.921 127.431C117.325 126.472 107.682 126.055 98.0389 126.182C87.8539 126.311 77.6772 126.544 67.5089 126.882C58.4935 127.169 49.6404 127.456 41.1183 130.728C33.1892 133.774 25.8221 138.844 19.2666 144.213C12.967 149.351 6.70494 155.139 3.12125 162.531C0.349206 168.194 -1.67988 175.811 1.97872 181.542C3.88918 184.533 7.2044 187.03 10.0951 189.034C13.7656 191.523 17.5807 193.791 21.5204 195.827C25.4662 197.962 29.4307 199.935 32.9582 202.745C36.4857 205.554 39.0954 208.769 41.7863 212.247C47.5052 219.658 54.4541 225.651 58.787 234.099C59.5027 235.717 60.3374 237.28 61.2843 238.775C61.84 239.537 62.4955 240.18 63.1074 240.885C64.3997 242.377 64.1188 243.926 63.894 245.736C63.3009 250.438 62.8139 255.164 62.0959 259.852C61.328 264.847 60.173 269.761 59.7547 274.805C59.3364 279.85 59.0679 284.832 58.7994 289.852C58.25 299.935 57.2074 310.049 57.6444 320.151C58.0677 329.383 59.5124 338.539 61.9523 347.453C64.0509 355.595 67.0758 363.469 70.9677 370.922C72.8555 374.465 75.0115 377.859 77.4171 381.073C77.9665 381.81 79.2901 382.896 79.5211 383.739C79.7771 384.819 79.1278 384.988 78.6346 385.862C77.8104 387.279 77.5669 389.327 77.4671 390.957C77.3601 392.434 77.5403 393.918 77.9977 395.327C78.4285 396.613 79.3151 397.862 79.4337 399.241C79.5336 400.49 79.1028 401.995 78.9342 403.256C78.3829 408.053 77.296 412.773 75.6939 417.328C73.9645 421.936 71.3236 426.182 69.3882 430.708C67.5152 435.078 65.7358 439.499 64.9616 444.244C63.5631 452.828 64.6495 461.687 65.6422 470.266C66.8221 480.43 68.8949 490.65 68.9761 500.902C69.0136 505.834 68.9386 510.766 68.6639 515.692C68.3767 520.768 67.459 525.863 67.7274 530.951C67.9147 534.46 68.6202 537.694 71.1862 540.223C73.7523 542.751 76.8427 542.982 80.2703 543.419C83.9601 543.887 88.2681 544.1 91.883 543.07C93.1172 542.708 94.2516 542.067 95.1982 541.197C96.5655 539.948 97.7954 539.386 99.6684 539.992C100.667 540.31 101.635 540.759 102.609 541.147C102.674 541.174 102.745 541.182 102.814 541.167C102.883 541.153 102.946 541.118 102.994 541.067C103.043 541.016 103.074 540.951 103.084 540.882C103.095 540.812 103.084 540.741 103.052 540.678C102.631 539.884 102.045 539.189 101.333 538.64C100.622 538.091 99.8005 537.7 98.9254 537.494C97.7767 537.17 97.4083 537.332 97.5644 536.046C97.8724 534.34 98.2704 532.652 98.7569 530.989C98.7768 530.91 98.7726 530.828 98.7447 530.752C98.7168 530.676 98.6667 530.611 98.6008 530.564C94.0993 526.781 92.5635 538.587 91.0214 540.235C89.0297 542.352 86.4949 541.147 84.7281 539.43C83.3358 538.081 82.955 536.139 82.1933 534.435C81.1069 531.975 80.2016 530.065 77.7293 528.853C77.6725 528.826 77.6093 528.816 77.5468 528.823C77.4843 528.83 77.425 528.854 77.3756 528.893C77.3263 528.932 77.2888 528.984 77.2674 529.043C77.2461 529.103 77.2417 529.166 77.2548 529.228C77.6377 532.637 78.0165 536.048 78.3911 539.461C73.5462 536.339 72.5286 530.04 72.5848 524.683C72.6472 518.802 73.3277 512.97 73.2091 507.07C73.0796 501.598 72.5769 496.141 71.7044 490.738C71.2799 488.053 70.7867 485.381 70.3809 482.69C70.2622 481.897 69.5817 480.193 70.3809 479.737C71.0052 479.406 74.7512 481.079 75.5878 481.292C85.7609 483.782 96.3897 483.739 106.542 481.167C107.567 480.831 108.609 480.552 109.664 480.33C110.388 480.243 110.532 479.762 111.144 480.417C111.212 481.132 111.212 481.851 111.144 482.565C111.144 485.375 111.144 488.184 111.144 490.994C111.094 496.906 110.551 502.812 111.044 508.719C111.587 515.237 111.294 521.411 110.931 527.936C110.775 530.789 111.244 534.566 109.876 537.145C108.728 539.317 105.874 539.923 103.845 541.128C103.521 541.315 103.845 541.752 104.082 541.752C106.58 542.339 109.47 542.814 111.706 541.178C114.365 539.236 115.608 535.272 116.176 532.212C117.025 527.642 116.307 522.978 115.089 518.552C113.569 513.404 112.755 508.073 112.667 502.706C112.636 491.805 115.264 481.285 116.207 470.484C116.682 465.078 116.351 459.552 116.157 454.139C115.976 449.244 116.157 444.15 115.252 439.318C113.504 429.697 106.261 422.598 103.577 413.358C102.938 411.124 102.473 408.845 102.184 406.54C101.791 403.481 101.186 400.821 103.196 398.367C104.181 397.321 104.863 396.026 105.169 394.621C105.269 393.793 105.31 392.958 105.294 392.124C105.381 390.251 106.361 389.346 107.735 388.284C111.432 385.406 114.824 382.155 117.855 378.582C118.261 378.114 120.246 375.223 120.796 375.248C121.714 375.292 122.251 377.259 122.569 377.889C123.73 380.187 124.904 382.472 126.153 384.726C130.83 393.384 136.443 401.503 142.891 408.937C150.146 417.179 157.357 425.451 164.787 433.53C171.579 440.916 178.559 448.146 186.638 454.133C194.386 459.902 202.796 464.803 211.287 469.373C212.898 470.235 217.043 471.577 217.755 473.2C218.467 474.823 216.756 478.713 216.319 480.461C215.053 485.395 214.152 490.416 213.622 495.483C211.612 516.042 217.137 536.271 226.24 554.582C234.668 571.533 245.869 587.578 260.147 600.115C267.159 606.277 273.952 613.164 282.43 617.322C284.078 618.133 289.504 621.43 291.246 619.288C291.82 618.577 291.595 615.542 291.739 614.587C292.189 611.919 292.462 609.225 292.557 606.521C292.632 601.401 291.495 596.257 290.877 591.193C290.209 585.78 289.785 580.349 289.21 574.923C288.061 564.166 286.544 553.427 284.028 542.895C283.396 540.252 282.698 537.627 281.937 535.022C281.761 534.163 281.493 533.326 281.138 532.524C281.138 532.524 281.138 532.524 281.138 532.487L281.1 532.387C281.102 532.368 281.102 532.35 281.1 532.331C281.066 532.271 281.027 532.214 280.982 532.162C280.982 532.162 280.95 532.162 280.938 532.125C280.882 532.06 280.822 531.999 280.757 531.944L280.663 531.869C280.586 531.796 280.505 531.727 280.42 531.663V531.625C280.414 531.623 280.407 531.621 280.401 531.621C280.394 531.621 280.388 531.623 280.382 531.625C280.438 531.001 280.563 530.346 280.594 529.696C280.606 529.488 280.606 529.28 280.594 529.072C280.382 527.898 280.103 526.737 279.758 525.594C279.441 524.346 279.115 523.114 278.778 521.898C278.44 520.683 278.085 519.449 277.71 518.196C277.593 517.63 277.43 517.075 277.223 516.535C276.961 516.097 276.647 515.692 276.287 515.33C276.193 515.218 275.731 515.362 275.625 515.405L274.963 515.68C274.963 515.68 274.851 515.717 274.857 515.749C275.481 518.377 276.056 520.974 276.88 523.553C277.741 526.237 278.659 528.897 279.539 531.575C279.532 531.596 279.532 531.618 279.539 531.638C279.556 531.669 279.582 531.693 279.614 531.707C281.65 550 284.347 568.286 286.969 586.511C287.593 590.993 288.386 595.464 288.904 599.959C289.204 602.416 289.366 604.888 289.391 607.364C289.391 609.361 289.772 612.82 288.811 614.6C287.849 616.379 284.865 614.381 283.404 613.663C281.297 612.636 279.274 611.444 277.354 610.098C273.727 607.538 270.655 604.298 267.546 601.151C256.152 589.601 246.187 577.052 238.826 562.536C230.947 547.047 225.715 529.977 222.169 512.995C220.071 502.894 218.361 492.823 219.672 482.503C219.853 481.061 220.065 479.625 220.296 478.195C220.421 477.402 220.402 475.142 221.089 474.686C222.076 474.062 225.459 476.135 226.589 476.64C230.104 478.214 233.532 479.406 237.422 479.319C237.796 479.319 237.753 478.844 237.54 478.694C231.921 474.149 225.135 471.577 218.81 468.081C212.182 464.454 205.749 460.482 199.537 456.181C186.84 447.394 175.237 437.124 164.974 425.588C153.673 412.877 141.536 400.515 131.647 386.649C129.142 383.148 126.82 379.52 124.692 375.779C123.593 373.837 122.956 372.87 123.805 370.659C124.71 368.312 126.24 366.046 127.414 363.792C131.303 356.431 135.287 349.089 138.858 341.565C142.864 333.395 145.905 324.786 147.917 315.912C148.797 311.785 149.303 307.602 149.79 303.425C150.258 299.473 151.782 294.428 150.414 290.607C150.397 290.537 150.36 290.473 150.309 290.421C150.258 290.37 150.194 290.333 150.124 290.314C150.054 290.296 149.98 290.296 149.911 290.316C149.841 290.336 149.778 290.374 149.728 290.426C148.535 291.793 148.223 293.473 147.705 295.177C146.872 297.874 146.059 300.567 145.264 303.256C143.878 307.82 142.479 312.378 141.024 316.91C138.065 326.291 134.468 335.459 130.261 344.35C126.128 352.966 121.789 361.863 116.251 369.679C113.629 373.41 110.597 376.834 107.21 379.887C103.09 383.564 98.4697 387.098 93.1004 383.39C89.2857 380.742 85.496 377.496 83.0673 373.506C80.6387 369.517 79.365 364.965 77.6793 360.739C73.9065 351.412 70.9262 341.784 68.7701 331.957C66.6411 321.999 66.8284 312.072 67.2529 301.989C67.6775 291.906 67.9584 281.71 68.8575 271.634C70.668 251.268 77.0425 232.007 84.1974 212.946C87.6624 203.719 91.1462 194.472 96.322 186.037C101.666 177.34 107.516 168.924 113.179 160.44C118.736 152.13 124.13 144.063 131.029 136.79C137.462 130.013 144.503 123.84 152.063 118.347C160.235 112.397 168.682 106.791 177.142 101.259C185.433 95.8397 193.787 90.3456 202.671 85.9315C211.025 81.7859 220.003 79.5009 228.656 76.2293C237.915 72.7331 247.436 69.986 256.97 67.3825C276.324 62.0569 295.741 58.1923 315.832 57.6866C325.821 57.4369 335.068 61.495 342.541 68.0568C349.49 74.1628 354.241 83.8212 356.226 92.7368C358.348 102.653 359.432 112.764 359.46 122.905C359.548 132.956 358.093 143.177 357.319 153.197C355.752 173.407 350.451 192.88 343.958 212.035C340.705 221.587 336.241 230.247 331.596 239.168C327.051 247.909 322.812 256.768 318.079 265.39C308.583 282.728 297.957 299.36 287.98 316.417C278.297 332.91 269.688 350.011 262.208 367.613C258.649 376.029 255.34 384.682 254.285 393.835C253.211 403.237 254.179 413.227 255.103 422.617C256.089 432.606 258.175 442.458 259.954 452.354C260.578 455.694 260.672 459.671 263.026 462.343C264.143 463.623 264.555 463.367 266.235 463.486C269.066 463.704 271.863 464.248 274.57 465.109C279.177 466.545 283.66 468.486 288.155 470.26C292.65 472.033 297.42 473.687 301.934 475.66C310.288 479.319 318.579 485.212 324.123 492.517C327.317 496.822 329.813 501.603 331.521 506.683C332.19 508.724 332.71 510.811 333.076 512.927C333.288 514.075 333.469 515.23 333.632 516.379C333.825 517.678 334.512 519.07 332.907 519.114C330.766 519.17 328.25 518.215 326.096 517.953C323.68 517.653 321.245 517.472 318.816 517.328C313.934 517.097 309.045 517.21 304.169 516.935C299.615 516.693 295.077 516.197 290.578 515.449C285.783 514.65 281.131 513.208 276.311 512.621C275.906 512.571 275.825 513.045 276.099 513.245C278.553 515.23 282.03 516.173 284.983 517.185C288.521 518.396 292.133 519.376 295.797 520.119C303.47 521.686 311.405 522.267 319.16 523.241C322.743 523.671 326.352 524.252 329.961 524.321C332.015 524.358 335.511 524.733 337.203 523.103C338.595 521.767 338.452 519.27 338.408 517.54C338.353 513.98 337.744 510.45 336.604 507.077C332.858 495.77 325.303 484.644 315.701 477.514C310.263 473.475 304.188 470.903 297.807 468.774C290.796 466.42 283.672 463.779 276.461 462.162C273.431 461.449 270.328 461.085 267.215 461.076C263.4 461.076 263.625 458.447 263.207 455.457C262.907 453.284 262.582 451.086 262.245 448.951C260.997 441.009 259.636 433.087 258.705 425.108C256.895 409.605 256.789 393.416 262.451 378.645C265.398 370.965 269.494 363.623 273.29 356.331C276.919 349.351 280.684 342.448 284.584 335.622C286.503 332.292 288.401 328.941 290.278 325.57C291.208 323.909 292.038 321.712 293.287 320.282C295.067 318.253 297.514 318.128 300.074 318.047C304.18 317.803 308.283 318.571 312.023 320.282C315.582 322.011 318.891 324.49 322.013 326.894C328.637 331.976 334.368 338.063 341.186 342.914C347.429 347.372 354.041 351.436 361.92 351.767C368.513 352.042 375.387 350.962 379.139 344.987C380.744 342.427 379.926 339.617 380.388 336.777C381.057 332.064 381.174 327.289 380.738 322.548C379.907 313.289 379.458 304.336 376.911 295.346ZM378.284 334.248C378.072 337.095 377.66 339.786 375.231 341.603C374.082 342.497 372.66 342.967 371.204 342.933C369.716 342.805 368.249 342.499 366.834 342.021C363.911 341.184 361.147 339.868 358.655 338.125C355.891 336.169 353.123 334.217 350.351 332.269C344.951 328.473 339.682 324.477 333.881 321.293C328.429 318.277 322.724 315.743 316.831 313.72C313.52 312.567 310.035 311.996 306.529 312.034C303.508 312.091 300.548 312.809 297.595 313.414C303.214 304.28 308.933 295.209 314.452 286.018C320.071 276.653 325.447 267.195 330.242 257.411C332.895 251.998 335.355 246.498 337.577 240.898C340.415 242.564 343.063 244.534 345.475 246.773C347.817 249.046 349.949 251.526 351.844 254.184C355.887 259.648 359.528 265.398 362.738 271.39C369.071 283.168 373.429 295.905 375.637 309.094C376.292 313.058 376.711 317.06 377.31 321.031C377.991 325.408 378.596 329.809 378.284 334.248ZM99.2688 404.423C94.7549 405.416 90.1223 404.779 85.5335 405.21C85.1464 405.248 85.1714 405.834 85.5335 405.903C89.8289 407.189 94.2742 406.877 98.6445 406.39C99.0441 409.106 99.2688 411.809 100.099 414.457C100.976 417.063 102.044 419.6 103.296 422.048C104.578 424.733 105.837 427.426 107.073 430.127L108.996 434.323C109.474 435.434 109.873 436.577 110.188 437.744C105.175 440.207 99.8041 441.863 94.2742 442.651C88.8588 443.359 83.3602 443.086 78.0414 441.846C74.9205 441.111 71.8735 440.091 68.9386 438.799C68.9386 436.564 70.025 434.716 71.2362 432.887C72.4849 430.933 73.7335 428.947 74.8573 426.9C77.055 422.909 78.7534 418.662 79.9144 414.257C80.2329 413.039 80.4951 411.809 80.7136 410.573C80.9508 409.187 80.9196 407.732 81.3005 406.378C81.519 405.847 82.1059 405.578 82.5491 405.223C82.5953 405.178 82.6291 405.122 82.6474 405.06C82.6656 404.998 82.6676 404.933 82.6531 404.87C82.6387 404.807 82.6083 404.749 82.565 404.702C82.5216 404.654 82.4667 404.618 82.4056 404.598C80.6387 403.974 81.3629 401.695 81.2006 400.141C81.8068 399.933 82.4356 399.799 83.0736 399.741C83.8666 399.802 84.6536 399.925 85.4273 400.109C87.0296 400.329 88.6429 400.458 90.2597 400.496C93.3814 400.578 96.503 400.403 99.6247 400.234C99.4624 401.626 99.35 403.025 99.2688 404.423ZM123.618 135.654C113.953 143.839 106.817 154.621 99.8058 165.053C96.1284 170.523 92.5947 176.098 89.4043 181.867C86.2125 187.715 83.3669 193.747 80.8822 199.929C79.4337 203.488 78.0477 207.065 76.6617 210.649C75.2756 214.232 73.8959 217.641 72.6097 221.169C72.3724 221.012 72.179 220.797 72.0478 220.544C71.8668 220.195 71.7169 219.826 71.5421 219.477C71.155 218.703 70.7367 217.953 70.2934 217.217C69.4525 215.843 68.5267 214.523 67.5214 213.265C65.4684 210.764 63.2601 208.395 60.9097 206.172C58.3499 203.675 55.7777 201.177 53.1492 198.786C50.6815 196.412 47.9954 194.276 45.1265 192.406C39.1266 188.66 32.415 186.63 25.8595 184.146C22.3133 182.803 18.6297 181.555 15.2458 179.775C14.3655 179.32 13.5102 178.82 12.6486 178.327C11.8837 177.937 11.1527 177.484 10.4634 176.972C9.91238 176.515 9.46159 175.949 9.1393 175.31C8.81701 174.671 8.63015 173.972 8.59043 173.257C8.56406 171.709 8.8005 170.168 9.28968 168.7C9.71305 167.17 10.2644 165.679 10.9379 164.242C12.4694 161.166 14.4964 158.363 16.9378 155.944C21.8724 150.888 27.3117 146.351 33.1705 142.403C36.1106 140.31 39.247 138.507 42.5355 137.021C45.792 135.656 49.1877 134.652 52.6622 134.024C56.2907 133.429 59.9482 133.026 63.6193 132.819C67.5485 132.519 71.4776 132.236 75.4067 131.97C83.3733 131.439 91.3398 130.94 99.3125 130.621C103.283 130.465 107.254 130.403 111.225 130.365C115.196 130.328 119.304 130.222 123.337 130.303C125.154 130.34 126.958 130.59 128.762 130.753C128.8 130.834 128.831 130.921 128.862 131.002C127.139 132.557 125.41 134.136 123.618 135.654ZM280.326 531.482C280.326 531.482 280.326 531.469 280.326 531.457V531.482Z" fill="#0E8499"/>
<path d="M230.31 199.598C231.656 200.517 233.186 201.133 234.793 201.402C240.443 202.382 246.031 201.402 251.65 200.59C257.475 199.735 263.282 198.786 269.132 197.912C274.982 197.038 280.663 196.283 286.538 196.938C291.946 197.585 297.239 198.978 302.265 201.077C307.26 203.1 311.911 206.028 317.106 207.514C319.168 208.123 321.342 208.249 323.461 207.883C325.579 207.517 327.585 206.669 329.324 205.404C333.206 202.559 335.864 198.346 336.76 193.617C337.927 188.048 337.072 182.379 335.948 176.853C334.85 171.483 333.33 166.208 331.403 161.076C329.655 156.431 327.725 151.63 324.891 147.528C322.692 144.397 319.897 141.731 316.666 139.683C313.435 137.634 309.831 136.244 306.061 135.591C303.939 135.154 301.769 134.992 299.605 135.11C296.943 135.302 294.296 135.674 291.683 136.222C286.214 137.439 280.839 139.045 275.6 141.029C266.999 144.093 258.94 148.506 251.725 154.102C244.393 159.857 238.142 166.869 233.264 174.812C231.827 177.196 230.526 179.66 229.368 182.191C228.174 184.589 227.393 187.17 227.058 189.827C226.677 193.492 227.101 197.288 230.31 199.598ZM256.782 170.185C255.783 168.937 255.702 167.195 255.596 165.646C255.604 164.535 255.766 163.43 256.077 162.362C256.316 161.219 256.618 160.089 256.982 158.979C257.44 157.503 258.329 156.198 259.536 155.233C260.242 154.762 261.006 154.384 261.808 154.109C262.744 153.71 263.659 153.264 264.549 152.773C266.029 152.005 268.083 150.687 269.818 151.399C271.554 152.111 271.654 154.421 271.392 155.944C271.042 157.911 269.575 159.647 268.52 161.289C267.392 163.049 266.235 164.793 265.048 166.52C264.528 167.399 263.91 168.216 263.207 168.955C262.46 169.602 261.617 170.128 260.709 170.516C259.442 171.066 257.762 171.446 256.782 170.185Z" fill="#0E8499"/>
<path d="M414.452 60.059C422.15 52.6669 430.116 45.5744 437.808 38.1573C441.473 34.6884 444.922 30.9979 448.135 27.1066C451.256 23.2545 454.141 19.215 456.875 15.0882C458.318 12.9155 460.072 10.7178 460.621 8.10185C460.852 6.94366 460.852 5.75128 460.621 4.59309C460.449 3.92029 460.326 3.23588 460.253 2.54527C460.216 1.82104 460.253 1.10306 460.209 0.38507C460.209 0.185283 459.785 -0.0332341 459.585 0.00422598C458.861 0.154066 458.149 0.410044 457.419 0.503694C456.637 0.52123 455.855 0.492042 455.077 0.416287C453.853 0.435306 452.648 0.718557 451.544 1.24665C448.959 2.49532 447.023 4.79288 445.082 6.81572C440.587 11.4867 436.338 16.3881 432.351 21.5001C428.338 26.6964 424.659 32.1433 421.338 37.8077C417.867 43.6889 414.471 49.6264 410.999 55.4889C407.053 62.1068 402.933 68.5999 398.363 74.8433C398.313 74.9119 398.431 75.0181 398.469 75.0493L398.956 75.5363C399.056 75.6362 399.399 75.8547 399.53 75.7048C404.375 70.3855 409.27 65.0537 414.452 60.059Z" fill="#0E8499"/>
<path d="M483.903 88.7785C481.574 88.9033 479.239 89.0095 476.91 89.1468C474.775 89.2779 472.434 89.1905 470.386 89.8898C462.301 92.8429 454.341 96.2268 446.905 100.578C442.934 102.901 439.207 105.573 435.429 108.189C431.542 110.882 427.638 113.548 423.717 116.187C421.544 117.648 419.384 119.127 417.136 120.47C414.889 121.812 412.529 123.086 410.269 124.415C410.26 124.425 410.255 124.437 410.255 124.45C410.255 124.463 410.26 124.475 410.269 124.484C410.312 124.609 410.356 124.734 410.406 124.859C410.456 124.984 410.899 125.14 411.074 125.102C413.784 124.534 416.344 123.404 418.922 122.405C421.501 121.406 424.191 120.357 426.845 119.39C432.021 117.517 437.346 116.093 442.566 114.32C452.619 110.903 462.305 106.487 471.479 101.14C474.038 99.6419 476.573 98.1372 478.621 95.9521C480.669 93.7669 482.542 91.3882 484.483 89.0844C484.64 88.9158 483.996 88.7722 483.903 88.7785Z" fill="#0E8499"/>
<path d="M477.578 162.2C476.292 161.295 475.025 160.327 473.433 160.065C466.091 159.129 458.624 158.816 451.275 159.896C447.66 160.427 444.126 161.345 440.568 162.175C437.088 162.987 433.566 163.6 430.017 164.011C426.033 164.479 422.031 164.816 418.042 165.26C417.648 165.303 417.542 165.734 417.986 165.803C419.746 166.084 421.507 166.39 423.28 166.621C424.354 166.764 425.428 166.877 426.495 167.07C427.744 167.295 428.993 167.694 430.198 168.013C434.718 169.261 439.176 170.81 443.721 171.965C452.461 174.187 461.489 173.551 470.274 172.096C472.434 171.734 474.694 171.615 476.473 170.223C478.205 168.806 479.842 167.277 481.374 165.647C481.462 165.553 481.518 165.409 481.406 165.309C480.144 164.229 478.933 163.155 477.578 162.2Z" fill="#0E8499"/>
<path d="M157.007 219.764C158.618 220.719 160.241 221.637 161.902 222.517C163.232 223.204 164.581 223.273 165.648 222.105C166.753 220.694 166.372 219.47 165.355 218.159C164.162 216.617 162.895 215.144 161.559 213.72C159.216 211.259 157.165 208.536 155.447 205.604C153.681 202.487 152.316 199.16 151.382 195.702C150.939 194.11 150.477 192.393 149.453 191.057C148.623 189.988 147.524 189.159 146.269 188.653C145.082 188.159 143.788 187.976 142.511 188.123C141.233 188.269 140.015 188.74 138.97 189.49C137.88 190.331 137.019 191.433 136.467 192.694C135.915 193.956 135.689 195.336 135.811 196.707C136.08 198.471 136.719 200.158 137.684 201.658C138.635 203.276 139.699 204.824 140.868 206.291C142.934 208.885 145.267 211.254 147.83 213.358C150.719 215.727 153.787 217.869 157.007 219.764Z" fill="#0E8499"/>
<path d="M228.206 131.252C228.579 130.426 228.821 129.548 228.924 128.648C229.03 128.173 229.055 127.684 228.999 127.2C228.875 126.526 228.743 125.864 228.606 125.196C227.357 119.208 225.547 113.333 222.463 108.008C222.463 108.008 222.463 108.008 222.463 107.97C221.358 106.303 219.185 104.849 217.143 104.849C216.238 104.874 215.362 105.172 214.63 105.705C213.897 106.238 213.344 106.98 213.041 107.833C212.75 108.829 212.658 109.873 212.773 110.905C212.848 112.235 213.004 113.564 213.21 114.882C213.673 117.649 214.315 120.383 215.133 123.067C215.532 124.415 215.957 125.751 216.382 127.094C216.704 128.296 217.214 129.44 217.892 130.484C219.216 132.313 221.17 133.805 223.511 133.843C224.457 133.889 225.397 133.671 226.226 133.213C227.056 132.756 227.741 132.077 228.206 131.252Z" fill="#0E8499"/>
<path d="M130.916 239.212C127.426 236.715 123.736 234.217 121.551 230.415C121.12 229.48 120.571 228.605 119.916 227.812C119.237 227.075 118.428 226.47 117.531 226.026C116.704 225.663 115.799 225.513 114.9 225.589C114 225.665 113.134 225.966 112.38 226.463C111.68 226.886 111.089 227.467 110.655 228.16C110.221 228.853 109.957 229.638 109.882 230.452C109.714 232.392 110.275 234.324 111.456 235.872C114.456 239.498 118.261 242.373 122.569 244.269C124.933 245.243 127.372 246.026 129.861 246.61C131.179 246.929 132.496 247.235 133.819 247.509C134.444 247.64 135.068 247.815 135.692 247.909C136.34 247.961 136.992 247.938 137.634 247.84C137.714 247.835 137.79 247.805 137.854 247.757C137.917 247.708 137.964 247.641 137.99 247.565C138.427 245.899 137.803 244.706 136.567 243.613C134.761 242.049 132.875 240.58 130.916 239.212Z" fill="#0E8499"/>
<path d="M144.09 236.09C144.805 236.237 145.549 236.098 146.163 235.703C146.881 235.235 146.606 234.248 146.163 233.668C144.558 231.551 143.135 229.297 141.636 227.131C140.129 224.908 138.404 222.842 136.485 220.963C134.39 218.822 132.408 216.574 130.548 214.226C129.156 212.553 127.351 211.104 125.035 211.285C123.206 211.448 121.451 212.534 120.939 214.351C120.315 216.598 121.676 219.346 122.994 221.062C124.584 223.138 126.409 225.024 128.431 226.681C130.688 228.531 133.087 230.201 135.605 231.676C138.278 233.357 141.077 234.829 143.977 236.078C144.014 236.089 144.052 236.093 144.09 236.09Z" fill="#0E8499"/>
<path d="M190.653 74.0941C190.982 74.9915 191.42 75.8449 191.958 76.6351C191.968 76.6686 191.985 76.6996 192.007 76.7264C192.03 76.7532 192.058 76.7753 192.089 76.7912C192.142 76.8228 192.202 76.8426 192.264 76.8493C192.326 76.8559 192.388 76.8492 192.448 76.8297C192.507 76.8102 192.561 76.7783 192.607 76.7361C192.653 76.694 192.689 76.6425 192.713 76.5852C193.125 75.5238 192.944 74.4125 192.944 73.3012C192.941 72.0173 193.022 70.7347 193.188 69.4615C193.356 68.1785 193.636 66.9126 194.024 65.6781C194.33 64.7166 194.648 63.4492 195.385 62.7062C196.01 62.0819 196.79 62.5376 197.414 62.9122C198.443 63.5918 199.409 64.3628 200.299 65.216C202.287 66.8544 204.372 68.3722 206.542 69.7612C206.62 69.823 206.717 69.8566 206.817 69.8566C206.916 69.8566 207.013 69.823 207.091 69.7612C207.399 69.5577 207.675 69.3094 207.909 69.0245C208.017 68.6945 208.047 68.3441 207.997 68.0006C207.999 67.2026 207.926 66.4061 207.778 65.6219C207.505 64.1828 206.976 62.8043 206.217 61.5512C204.636 58.9298 202.386 56.7753 199.699 55.3078C198.594 54.698 197.339 54.4114 196.078 54.481C194.817 54.5505 193.601 54.9734 192.569 55.7012C189.96 57.6304 189.198 61.0705 189.029 64.136C188.937 66.358 189.16 68.5819 189.691 70.7414C189.955 71.8744 190.276 72.9934 190.653 74.0941Z" fill="#0E8499"/>
<path d="M96.4718 497.993L97.4957 521.942C97.7517 522.008 98.0201 522.008 98.2761 521.942C99.4124 513.951 98.3323 505.922 97.2522 497.986C97.2522 497.943 97.0774 497.93 96.8963 497.93C96.7522 497.924 96.6081 497.945 96.4718 497.993Z" fill="#0E8499"/>
<path d="M339.013 92.7866L339.856 93.0176C340.012 93.0551 340.3 93.0613 340.368 92.874C340.893 91.4068 341.617 89.9896 341.854 88.435C341.894 87.8739 341.787 87.312 341.542 86.8055C341.411 86.4987 341.266 86.1986 341.105 85.9064C341.037 85.7309 340.93 85.5729 340.793 85.4444C340.473 85.2749 340.111 85.1991 339.75 85.2259C339.407 85.1826 339.059 85.2505 338.757 85.4195C338.6 85.6039 338.477 85.8154 338.395 86.0438C338.257 86.3157 338.134 86.595 338.027 86.8804C337.797 87.4415 337.707 88.05 337.765 88.6535C337.999 89.999 338.323 91.3276 338.732 92.6305C338.782 92.7242 338.939 92.7679 339.013 92.7866Z" fill="#0E8499"/>
<path d="M81.6751 491.893C81.6751 491.743 81.1132 491.599 81.007 491.599H80.6574C80.6479 491.594 80.6371 491.591 80.6262 491.591C80.6152 491.591 80.6045 491.594 80.595 491.599V508.331C80.595 508.481 81.1881 508.631 81.3067 508.619L81.6563 508.581H81.7063L81.6751 491.893Z" fill="#0E8499"/>
<path d="M79.9644 514.974L80.0206 515.049L80.0643 515.087L80.1455 515.162L80.1892 515.193L80.2266 515.23L80.3141 515.28L80.389 515.343C80.4313 515.368 80.4751 515.391 80.5201 515.411H80.9883L80.8385 513.538C80.8385 513.501 80.7698 513.457 80.7448 513.432C80.6874 513.377 80.627 513.325 80.5638 513.276L80.4015 513.164C80.3521 513.128 80.2973 513.101 80.2391 513.083H80.0269L79.8958 514.956C79.8958 514.956 79.8958 514.956 79.8958 514.987L79.9644 514.974Z" fill="#0E8499"/>
<path d="M82.3182 433.33C82.1496 434.698 82.4618 435.871 83.879 436.333H83.9352C83.9496 436.337 83.9645 436.337 83.9789 436.333C85.5772 436.727 86.5387 435.709 87.1443 434.354C88.0133 432.469 88.6607 430.489 89.0735 428.454C89.9912 423.497 88.9673 418.509 87.2005 413.863C87.1068 413.62 86.5075 413.439 86.4325 413.795C85.4523 418.359 84.5907 422.979 83.4357 427.53C82.9415 429.438 82.5683 431.375 82.3182 433.33ZM84.1912 434.797C84.5408 429.64 85.9955 424.652 86.6885 419.545C88.3805 424.608 87.8061 430.789 84.1849 434.797H84.1912Z" fill="#0E8499"/>
<path d="M99.4311 431.376L100.236 431.22C100.274 431.22 100.293 431.22 100.299 431.176C100.302 431.16 100.302 431.143 100.299 431.126C100.299 431.126 100.299 431.126 100.299 431.082C99.5039 426.883 98.7131 422.681 97.9265 418.477C97.9265 418.284 97.3021 417.94 97.2397 418.234C96.222 422.604 96.9775 426.974 98.813 431.051C98.872 431.161 98.9623 431.25 99.0724 431.308C99.1826 431.366 99.3075 431.389 99.4311 431.376Z" fill="#0E8499"/>
<path d="M82.4555 410.686L82.5491 410.717C82.5885 410.733 82.631 410.739 82.6733 410.735C82.7155 410.731 82.7563 410.718 82.7923 410.695C82.8282 410.673 82.8583 410.642 82.8801 410.606C82.9018 410.569 82.9147 410.528 82.9175 410.486C82.9175 410.367 82.9175 410.248 82.9175 410.124C82.9451 410.072 82.9601 410.014 82.9612 409.955L82.9237 408.631C82.9211 408.6 82.9113 408.57 82.8951 408.543C82.8788 408.515 82.8566 408.492 82.8301 408.475C82.8301 408.475 82.8301 408.475 82.7864 408.475H82.6865C82.6422 408.445 82.5903 408.428 82.5366 408.425C82.4948 408.42 82.4523 408.425 82.413 408.44C82.3737 408.455 82.3389 408.48 82.3119 408.513C82.2758 408.545 82.2534 408.59 82.2495 408.638V408.8C82.2495 409.044 82.2495 409.281 82.2495 409.524C82.2495 409.768 82.2495 409.974 82.2057 410.199C82.192 410.296 82.2086 410.394 82.2533 410.482C82.298 410.569 82.3687 410.64 82.4555 410.686Z" fill="#0E8499"/>
</svg>
