<svg width="92" height="120" viewBox="0 0 92 120" fill="none" xmlns="http://www.w3.org/2000/svg">
<path d="M90.1612 14.4315C89.583 13.8188 88.9249 13.2869 88.2047 12.8499C86.6653 11.9163 85.0204 10.9877 83.3172 10.3968C81.5792 9.79226 79.8226 9.70412 78.0138 9.93006C73.9891 10.4341 69.8875 10.9195 65.941 11.8741C65.4717 11.9883 65.0058 12.1125 64.5432 12.2466C64.0751 12.3843 63.55 12.6599 63.077 12.7183C62.6041 12.7766 62.0914 12.4278 61.6767 12.2292L60.2739 11.5563C58.4751 10.6948 56.6738 9.84067 54.8241 9.09086C51.3046 7.66198 47.8262 6.08785 44.0547 5.44107C42.1131 5.10837 40.2125 4.59566 38.2672 4.27414C36.2812 3.95367 34.2798 3.73778 32.2711 3.62736C28.5469 3.40886 24.5272 3.01658 20.9829 4.47525C19.482 5.09596 18.0693 5.99599 17.0302 7.25603C16.0731 8.418 15.4511 9.81585 15.065 11.2646C14.052 15.0695 14.9061 18.9229 15.8508 22.6484C16.3077 24.4473 16.6118 26.2784 17.2003 28.0424C17.821 29.9157 18.7372 31.6798 19.5304 33.4848C20.3001 35.2377 21.0201 37.0129 21.8717 38.7261C22.3025 39.5951 22.7618 40.4405 23.2559 41.2698C23.4786 41.6422 23.7074 42.0105 23.9424 42.3746C24.0542 42.5484 24.254 42.7682 24.3149 42.9705C24.4229 43.3181 24.1498 43.5043 23.9176 43.7414C21.3255 46.3956 20.027 49.7735 19.2002 53.3376C18.762 55.2271 18.4864 57.0619 18.5932 59.006C18.7191 60.9955 19.0098 62.9712 19.4621 64.9127C19.5962 65.5098 19.6496 66.128 20.0829 66.5886C20.4297 66.9906 20.8808 67.2892 21.3864 67.4514C22.7705 67.8424 24.5545 67.3533 25.7313 66.5948C27.231 65.6252 28.5047 64.1194 29.5797 62.7129C30.6548 61.3063 31.8143 59.7074 33.3735 58.8135C34.1331 58.3782 34.9826 58.1234 35.8564 58.0687C36.4411 58.0352 36.6186 58.1022 37.1115 58.6348C37.2579 58.7937 37.3858 58.9749 37.5224 59.1413C37.8426 59.5352 38.1646 59.9279 38.4882 60.3194C39.7296 61.829 40.9909 63.3298 42.1988 64.8705C43.4067 66.4111 44.5972 67.9579 45.5581 69.6487C46.5081 71.3204 47.1427 73.1526 47.4302 75.0538C47.7455 77.0811 47.8684 79.1332 47.9329 81.1827C47.9652 82.2069 47.9826 83.2311 48.0037 84.2565C48.0136 84.7531 48.0434 85.2496 48.0372 85.7363C48.031 86.2229 47.8274 86.3135 47.3892 86.4513C46.5202 86.7257 45.6351 86.9628 44.8021 87.3477C43.9256 87.7524 43.0641 88.2005 42.2236 88.6648C40.585 89.5636 38.9823 90.512 37.7359 91.9297C35.6937 94.25 34.3369 97.7967 34.8732 100.895C34.9032 101.098 34.9728 101.292 35.078 101.468C35.1144 101.549 35.1673 101.622 35.2333 101.681C35.2994 101.741 35.3771 101.786 35.4616 101.814C35.834 101.987 36.3529 101.918 36.9277 101.778C38.8358 101.307 40.7153 100.609 42.5774 99.9866C44.3154 99.4044 45.856 98.7712 47.3122 97.6366C47.3482 97.608 47.2489 97.5124 47.2154 97.5186C46.2446 97.7508 45.3533 98.2436 44.4123 98.5788C43.4843 98.9092 42.5365 99.1808 41.5744 99.3919C40.5552 99.6191 39.5347 99.8177 38.5217 100.073C38.0822 100.183 37.6403 100.289 37.2033 100.411C36.9948 100.469 36.7862 100.535 36.5826 100.6C36.4461 100.642 35.9619 100.89 35.8291 100.839C35.6044 100.754 35.7173 99.5372 35.726 99.3286C35.7486 98.8713 35.7955 98.4154 35.8663 97.9631C36.0016 97.0422 36.267 96.1452 36.6546 95.299C37.4367 93.633 38.811 92.1681 40.2758 91.0781C41.043 90.5046 41.8897 90.0428 42.6991 89.5412C43.5606 89.0099 44.4048 88.4451 45.285 87.9448C46.1191 87.4581 47.0113 87.0785 47.9404 86.8151C48.3761 86.6909 48.3364 86.5047 48.4593 86.0479C48.5822 85.591 48.545 85.0932 48.5499 84.6153C48.5834 80.4751 48.7001 76.1637 47.4972 72.1564C46.9385 70.2942 45.9926 68.6742 44.9498 67.0492C43.8797 65.3807 42.7438 63.7643 41.5508 62.1902C39.0766 58.9067 36.3542 55.8304 33.6578 52.7293C32.2202 51.0758 30.779 49.4222 29.3997 47.7202C28.0689 46.0766 26.8263 44.3684 25.5302 42.6924C24.2789 41.0786 23.1144 39.4412 22.156 37.6312C21.1977 35.8212 20.2231 34.0012 19.3839 32.123C18.5407 30.2165 17.8709 28.238 17.3828 26.2113C16.8787 24.1741 16.1922 22.1903 15.8384 20.1184C15.1991 16.3706 14.7956 11.8555 17.0799 8.56325C17.6422 7.75384 18.3287 7.14555 19.1034 6.54718C19.878 5.94882 20.5459 5.4299 21.5142 5.25238C23.5867 4.88058 25.6821 4.6508 27.7859 4.56463C32.1892 4.36476 36.6434 4.97678 40.9872 5.64218C43.0653 5.96123 45.1795 6.19462 47.1943 6.83023C49.2476 7.47204 51.2463 8.24296 53.2201 9.08465C56.8761 10.6451 60.5905 12.2937 63.7722 14.7021C65.4556 15.9721 66.8758 17.4717 68.3394 18.9838C69.8031 20.4958 71.3102 21.9632 72.6596 23.5708C74.0252 25.1983 75.0816 27.0282 76.1765 28.8406C77.1995 30.5339 78.1938 32.2335 79.0417 34.0099C79.9505 35.9143 80.6171 37.8919 81.2142 39.9117C81.8349 41.991 82.2074 44.1151 82.7412 46.2119C83.2688 48.2627 83.6238 50.3644 83.5891 52.4885C83.5531 54.6362 83.0751 56.764 82.6903 58.8682C82.5152 59.8265 82.442 60.8544 82.0336 61.747C81.6549 62.5763 81.0404 63.2653 80.4197 63.9195C80.1379 64.215 79.8598 64.5762 79.4266 64.6209C78.822 64.683 78.0983 64.2485 77.5918 63.9543C76.747 63.4633 75.9621 62.8759 75.2529 62.2039C74.8954 61.865 74.5515 61.5074 74.2163 61.1375C73.6825 60.5151 73.1603 59.8837 72.6497 59.2431C72.1531 58.5901 71.6689 57.9247 71.2021 57.2692C69.9471 55.5064 68.8956 53.6356 67.8838 51.7275C67.031 50.1199 66.2861 48.3968 65.2768 46.886C65.2694 46.876 65.1887 46.7991 65.1825 46.8425C65.0894 47.5154 65.2284 48.0839 65.4544 48.7046C65.7622 49.5596 66.0763 50.412 66.3966 51.262C66.6871 52.0317 66.9602 52.8187 67.3202 53.5611C67.7132 54.3248 68.1536 55.0632 68.6386 55.7721C69.5275 57.1438 70.4747 58.4784 71.4939 59.7608C71.9905 60.3815 72.4994 60.9885 73.001 61.603C73.0966 61.7272 73.2257 61.8513 73.356 61.9879L73.7607 62.4844C73.7869 62.5273 73.8097 62.5721 73.829 62.6185C73.9978 63.0356 73.5907 63.7184 73.4417 64.1082C72.194 67.4278 70.1432 70.3786 68.2972 73.3891C66.4723 76.3685 64.7083 79.3194 62.2503 81.8308C60.9393 83.169 59.5899 84.4762 58.161 85.6904C57.4733 86.2751 56.7657 86.8374 56.0345 87.3675C55.4262 87.8082 54.6689 88.1496 54.4094 88.8994C54.3945 88.9392 54.4727 89.0124 54.5112 89.0087C55.5987 88.8932 56.5695 88.0366 57.4596 87.4445C57.8755 88.5154 58.1999 89.6197 58.4292 90.7454C58.634 91.8503 58.6576 92.9725 58.6601 94.0973C58.654 96.5373 58.4661 98.9735 58.0977 101.386C57.4593 105.847 55.8778 110.121 53.4585 113.924C52.1699 115.953 50.8664 117.987 48.6828 119.123C48.0186 117.47 48.0372 115.718 48.0049 113.959C47.9727 112.155 47.8932 110.359 47.8249 108.552C47.7542 106.732 47.676 104.911 47.6126 103.09C47.5977 102.675 47.4972 102.298 47.4562 101.887C47.4207 101.389 47.4504 100.888 47.5444 100.397C47.6685 99.6464 47.9044 98.8916 47.7169 98.1381C47.707 98.0984 47.6623 98.0363 47.6151 98.0388L47.4438 98.0487C47.4406 98.049 47.4376 98.0504 47.4353 98.0527C47.4331 98.0549 47.4317 98.0579 47.4314 98.0611C47.2253 99.9233 47.1682 101.819 47.0081 103.692C46.8479 105.566 46.9261 107.382 47.059 109.248C47.1893 111.082 47.2564 112.918 47.3482 114.756C47.4364 116.533 47.6871 118.278 48.4258 119.913C48.437 119.939 48.4866 120.012 48.5238 119.998C50.5958 119.23 51.8844 117.484 53.2326 115.823C54.6187 114.134 55.8279 112.307 56.8414 110.371C58.8959 106.399 60.3087 101.876 60.4105 97.3833C60.463 95.3116 60.1929 93.2443 59.6097 91.2557C59.2884 90.1845 58.8807 89.1412 58.3907 88.136C58.2789 87.9063 58.0729 87.591 58.0356 87.3216C57.986 86.9703 58.3013 86.825 58.5458 86.6251C59.025 86.2527 59.5042 85.8691 59.9785 85.483C61.6482 84.1426 63.1968 82.6579 64.6065 81.0462C66.0701 79.3454 67.1986 77.4647 68.3581 75.5529C69.5523 73.5865 70.8632 71.6846 71.9147 69.635C72.4218 68.6531 72.8703 67.6421 73.2579 66.6072C73.4533 66.0875 73.6312 65.5611 73.7918 65.0281C73.9283 64.5713 74.0115 63.881 74.2796 63.4838C74.4758 63.1921 74.6111 63.4292 74.8321 63.5968C74.9848 63.7122 75.1437 63.8165 75.3013 63.9232C75.7917 64.2547 76.2771 64.5936 76.7712 64.9164C77.5309 65.413 78.3639 66.0237 79.3037 66.0722C80.2968 66.1243 81.0193 65.5557 81.7232 64.9263C82.4817 64.2485 83.2005 63.6005 83.7095 62.7029C84.206 61.8339 84.4158 60.8718 84.6567 59.9122C84.9596 58.7118 85.2774 57.5299 85.4351 56.2997C85.7318 53.9906 85.6312 51.6481 85.3022 49.3477C85.1272 48.1237 84.8379 46.9294 84.5686 45.724C84.3203 44.6067 84.1142 43.4733 83.8237 42.361C83.558 41.3467 83.2241 40.3573 82.879 39.3729C82.6878 38.8027 82.4883 38.2357 82.2806 37.6721C82.0472 36.9993 81.8225 36.3227 81.6239 35.6362C81.4638 35.0838 81.1075 34.2706 81.2651 33.7058C81.4166 33.1658 81.748 32.6804 81.9231 32.1441C82.2857 30.9921 82.7947 29.8915 83.4376 28.8692C84.5946 27.0505 85.4239 25.0307 87.0862 23.5994C87.9887 22.8235 88.9483 22.1245 89.8421 21.3313C90.5485 20.7006 91.3579 19.921 91.7241 19.0284C92.3721 17.4183 91.2238 15.581 90.1612 14.4315ZM89.3927 18.7404C88.5237 19.3847 87.6088 19.9558 86.6951 20.5318C86.2395 20.8198 85.7814 21.1004 85.3134 21.3685C84.8678 21.61 84.4359 21.876 84.0198 22.1655C83.2623 22.729 82.5928 23.4022 82.0336 24.163C81.3793 25.032 80.7214 25.901 80.1193 26.8047C79.8172 27.2534 79.5459 27.7221 79.3074 28.2075C79.0591 28.7227 78.8282 29.2466 78.5799 29.7618C77.1666 27.2076 75.5557 24.7678 73.762 22.4647C71.9547 20.1548 69.9137 18.0378 67.6715 16.1471C66.41 15.0898 65.0832 14.113 63.699 13.2223C64.1434 13.0982 64.5829 12.9529 65.0373 12.8623C65.5661 12.7572 66.097 12.6579 66.63 12.5644C67.7125 12.3732 68.7983 12.2014 69.8875 12.0492C72.0451 11.7438 74.2101 11.4992 76.3776 11.2696C77.3981 11.1678 78.421 11.0436 79.4427 11.0622C80.3973 11.0795 81.3464 11.2116 82.2694 11.4558C83.2012 11.7056 84.0978 12.0714 84.9385 12.5445C85.8807 13.0733 86.8006 13.6432 87.7081 14.2366C88.1067 14.4883 88.4739 14.7867 88.8018 15.1254C89.1153 15.4638 89.3867 15.839 89.61 16.2427C89.9638 16.8758 90.371 17.6889 89.8372 18.3357C89.7055 18.4877 89.5563 18.6236 89.3927 18.7404ZM24.7047 43.6756C24.7861 43.7298 24.8596 43.795 24.9232 43.8693C26.1266 45.7326 27.4356 47.5257 28.8436 49.2397C30.2551 50.9777 31.7361 52.6511 33.2295 54.3159C34.0687 55.2519 34.9083 56.1875 35.7484 57.1227C35.4902 57.1227 35.2319 57.1339 34.9737 57.1227C34.646 57.1043 34.3174 57.1101 33.9905 57.1401C33.3559 57.2125 32.7374 57.3882 32.1594 57.6603C31.5378 57.9696 30.9384 58.3218 30.3656 58.7142C29.7908 59.0867 29.2309 59.4814 28.6934 59.9048C27.5525 60.8023 26.5705 61.8612 25.5538 62.8904C25.0212 63.4304 24.4961 63.9816 23.9524 64.5042C23.4898 64.9586 22.9549 65.3328 22.3696 65.6116C21.873 65.8425 21.3057 66.0548 20.7557 65.8797C20.104 65.6699 19.9538 65.0107 19.811 64.4211C19.4535 62.9487 19.4199 61.4305 19.4063 59.9221C19.3774 58.4676 19.445 57.0128 19.6086 55.5672C19.7739 54.2271 20.0467 52.9023 20.4243 51.6059C20.8029 50.3092 21.281 49.0438 21.8544 47.8208C22.4316 46.5893 23.0499 45.3305 23.9958 44.3373C24.2205 44.1047 24.4571 43.8838 24.7047 43.6756ZM22.516 38.3624C22.9009 39.0215 23.3006 39.6696 23.7215 40.3039C23.2919 39.6758 22.8872 39.0302 22.516 38.3624Z" fill="#0E8499"/>
<path d="M35.2894 21.0371C33.5037 20.5874 31.6685 20.3646 29.8271 20.3742C29.5937 20.3742 29.3616 20.3742 29.1282 20.3816C28.1948 20.4013 27.2795 20.6438 26.4589 21.0891C25.6383 21.5344 24.936 22.1695 24.4108 22.9415C23.7901 23.8564 23.5021 24.9277 23.2488 25.9842C22.941 27.26 22.7609 28.5633 22.7113 29.8748C22.6887 30.5204 22.6991 31.1668 22.7423 31.8114C22.7677 32.3968 22.867 32.9766 23.0378 33.537C23.3755 34.5525 24.0856 35.5022 25.0526 35.9925C25.9402 36.4407 26.9495 36.3972 27.8446 35.9925C28.4169 35.7331 28.9321 35.3457 29.4435 34.9845C29.955 34.6232 30.4938 34.231 31.0462 33.8958C32.089 33.2626 33.2187 32.7549 34.4216 32.5228C35.0897 32.4082 35.7636 32.3307 36.4402 32.2906C37.123 32.236 37.8058 32.1963 38.491 32.1528C38.8076 32.1329 39.1254 32.1106 39.4419 32.0883C39.4487 32.0991 39.458 32.1082 39.469 32.1146C39.4801 32.1211 39.4925 32.1248 39.5053 32.1255C40.5704 32.1255 41.6405 32.1888 42.7044 32.0945C43.1987 32.0531 43.6876 31.9633 44.1643 31.8263C44.5566 31.7109 44.9551 31.578 45.2667 31.2975C45.8502 30.7835 45.9135 30.0238 45.7062 29.3112C45.4242 28.4091 44.9772 27.5672 44.3878 26.8283C43.2904 25.3957 41.8652 24.235 40.3606 23.2543C38.8005 22.2472 37.0881 21.4985 35.2894 21.0371ZM37.8269 26.2312C37.6403 26.1685 37.4613 26.0852 37.293 25.9829C37.1064 25.8512 36.9344 25.6997 36.7803 25.5311C36.4584 25.2091 36.1476 24.8781 35.848 24.5379C35.5513 24.204 35.2546 23.8825 35.1826 23.4206C35.133 23.1028 35.3068 22.6385 35.6792 22.6299C36.0705 22.6311 36.4598 22.6858 36.8362 22.7925C37.2329 22.8893 37.6061 23.0649 37.9336 23.3089C38.5196 23.762 38.753 24.4709 38.8759 25.1711C38.9292 25.4789 38.8759 25.8936 38.6512 26.1307C38.4265 26.3678 38.1 26.3231 37.8269 26.2312Z" fill="#0E8499"/>
<path d="M63.276 25.5683C62.9972 25.5278 62.7126 25.5672 62.4553 25.6819C62.198 25.7966 61.9785 25.9819 61.8223 26.2163C61.6365 26.5092 61.5245 26.8427 61.4958 27.1883C61.4449 27.5856 61.42 27.9828 61.3431 28.3764C61.1993 29.1091 60.9571 29.819 60.623 30.4868C60.2767 31.1857 59.79 31.8002 59.4437 32.4991C59.3096 32.771 59.2252 33.0503 59.4549 33.2986C59.6324 33.4898 59.8931 33.5941 60.1376 33.4699C60.2944 33.3763 60.4408 33.2664 60.5746 33.1422C60.7075 33.0342 60.8403 32.9249 60.9706 32.8144C61.24 32.586 61.5057 32.3539 61.7639 32.1118C62.8315 31.1125 63.7949 29.9406 64.3374 28.5675C64.4168 28.3652 64.4851 28.1604 64.5509 27.953C64.6078 27.808 64.6495 27.6574 64.675 27.5036C64.7017 27.1586 64.641 26.8123 64.4988 26.4968C64.3862 26.254 64.2159 26.0425 64.0028 25.8806C63.7896 25.7187 63.5401 25.6115 63.276 25.5683Z" fill="#0E8499"/>
<path d="M43.6528 17.283C43.8043 17.3542 43.9703 17.3889 44.1376 17.3844C44.3049 17.3799 44.4688 17.3362 44.6162 17.257C44.8771 17.1303 45.0963 16.9318 45.2481 16.6847C45.3947 16.4029 45.4793 16.0931 45.4963 15.7759C45.5969 14.9591 45.6615 14.1385 45.7446 13.3192C45.7408 13.2848 45.7244 13.2529 45.6987 13.2298C45.6982 12.8311 45.6671 12.4331 45.6056 12.0393C45.5566 11.7752 45.4264 11.533 45.2332 11.3465C45.1345 11.2572 45.0175 11.1905 44.8903 11.151C44.7632 11.1116 44.6289 11.1003 44.497 11.1181C44.3533 11.1427 44.2168 11.1988 44.0974 11.2826C43.9781 11.3663 43.8788 11.4755 43.8068 11.6023C43.7025 11.761 43.6096 11.927 43.5287 12.0988C43.4484 12.3026 43.3966 12.5165 43.3748 12.7345C43.3019 13.1987 43.2341 13.6639 43.1712 14.1298C43.1116 14.5751 43.0561 15.0212 43.0048 15.4681C42.974 15.6555 42.9624 15.8456 42.97 16.0354C42.9877 16.2192 43.0295 16.4 43.0942 16.5729C43.1859 16.8707 43.385 17.1238 43.6528 17.283Z" fill="#0E8499"/>
<path d="M65.9857 37.5381C65.9757 37.5629 66.0614 37.656 66.0862 37.6536C66.5606 37.6096 67.0232 37.4805 67.4518 37.2724C67.8726 37.0775 68.3059 36.9 68.7143 36.6766C69.179 36.4241 69.6127 36.1183 70.0066 35.7654C70.4068 35.432 70.7502 35.0357 71.0233 34.5922C71.253 34.1925 71.4218 33.6835 71.3027 33.2266C71.2116 32.8831 70.9885 32.5895 70.682 32.4098C70.4973 32.3059 70.2859 32.2591 70.0746 32.2755C69.8633 32.2918 69.6616 32.3705 69.4952 32.5016C69.2869 32.662 69.127 32.8768 69.0333 33.1224C68.9576 33.3717 68.863 33.6149 68.7503 33.8498C68.1817 34.9448 67.1464 35.6909 66.399 36.6517C66.2017 36.9075 66.116 37.2377 65.9857 37.5381Z" fill="#0E8499"/>
<path d="M67.8691 29.6749C67.6991 29.6297 67.5205 29.6269 67.3491 29.6667C67.1777 29.7065 67.0186 29.7878 66.8859 29.9033C66.5048 30.2137 66.336 30.7351 66.074 31.1373C65.4752 32.015 64.936 32.932 64.4602 33.8821C64.336 34.1411 64.2206 34.4047 64.1138 34.6729C64.0565 34.7918 64.0123 34.9167 63.9822 35.0453C63.975 35.1897 63.9821 35.3344 64.0033 35.4773C64.0042 35.4862 64.0069 35.4947 64.0113 35.5024C64.0157 35.5101 64.0216 35.5168 64.0288 35.5221C64.0359 35.5274 64.0441 35.5311 64.0527 35.533C64.0614 35.5349 64.0704 35.535 64.0791 35.5332C64.2039 35.5317 64.3285 35.5201 64.4515 35.4984C64.5759 35.4482 64.69 35.3754 64.7879 35.2837C65.0163 35.1181 65.2414 34.9452 65.4632 34.7647C65.9151 34.4091 66.3454 34.0269 66.7518 33.6201C67.1491 33.2183 67.5101 32.7821 67.8306 32.3167C67.9975 32.0703 68.1508 31.815 68.29 31.5519C68.4196 31.3349 68.5002 31.0921 68.5258 30.8406C68.5296 30.3713 68.3396 29.8437 67.8691 29.6749Z" fill="#0E8499"/>
<path d="M45.1215 3.19661C45.15 3.28475 45.2009 3.32075 45.2717 3.37413C45.2815 3.38141 45.2931 3.38611 45.3052 3.38779C45.3232 3.39684 45.3437 3.39989 45.3635 3.39648C45.8266 3.2984 46.0935 2.9446 46.348 2.57465C46.6323 2.16126 46.9277 1.78014 47.3945 1.58152C48.1394 2.32637 48.2635 3.41634 48.5788 4.3772C48.5975 4.43679 48.7154 4.45789 48.7315 4.38589C48.9053 3.64104 49.0059 2.85397 48.8917 2.08677C48.8392 1.73806 48.7406 1.39784 48.5987 1.07502C48.4621 0.765901 48.2995 0.454304 48.0202 0.246986C47.5472 -0.0981292 46.9029 -0.0633693 46.4163 0.238296C45.9296 0.539962 45.5572 1.05764 45.3275 1.584C45.1919 1.88516 45.106 2.20629 45.0731 2.53493C45.0581 2.68824 45.0606 2.84275 45.0805 2.9955C45.0882 3.06361 45.1019 3.13091 45.1215 3.19661Z" fill="#0E8499"/>
<path d="M1.51504 6.71725C1.15627 6.30758 0.811152 5.88674 0.413896 5.51431C0.399656 5.5023 0.382549 5.49417 0.36424 5.49073C0.319286 5.47986 0.272522 5.47878 0.227115 5.48756C0.181708 5.49634 0.138719 5.51478 0.101058 5.54162C0.101058 5.84701 0.101058 6.1524 0.108507 6.45779C0.115955 6.76318 0.0874023 7.03878 0.0874023 7.31934C0.0874023 7.73149 0.322031 7.97854 0.655974 8.18834C1.71118 8.84753 2.74529 9.53776 3.77815 10.2317C4.34672 10.6128 4.88674 11.0225 5.43297 11.4359C5.45531 11.452 5.54966 11.4942 5.5658 11.4533L5.59187 11.3937C5.59222 11.3905 5.59184 11.3873 5.59077 11.3843C5.58969 11.3813 5.58795 11.3785 5.58566 11.3763C4.2292 9.8237 2.87233 8.27068 1.51504 6.71725Z" fill="#0E8499"/>
<path d="M4.78641 31.1025L0.231629 31.295C0.213684 31.2958 0.196686 31.3033 0.183868 31.3159C0.17105 31.3285 0.163306 31.3453 0.162109 31.3632V33.2452C0.162109 33.2725 0.181972 33.2874 0.208042 33.2924C0.217267 33.2963 0.22719 33.2984 0.237215 33.2984C0.247241 33.2984 0.257164 33.2963 0.266389 33.2924L4.82117 31.2168C4.90186 31.1783 4.86834 31.0988 4.78641 31.1025Z" fill="#0E8499"/>
<path d="M0.285823 20.2724C0.248581 20.2575 0.161681 20.3009 0.161681 20.3469V21.5535C0.160997 21.5551 0.160645 21.5568 0.160645 21.5585C0.160645 21.5602 0.160997 21.5619 0.161681 21.5635C0.163056 21.5641 0.164533 21.5643 0.166026 21.5643C0.167518 21.5643 0.168996 21.5641 0.170371 21.5635L2.90895 22.0489L4.24472 22.2847L4.89522 22.4002C5.06902 22.4312 5.19317 22.4945 5.33096 22.3729C5.3409 22.3642 5.36572 22.3319 5.34338 22.322L0.285823 20.2724Z" fill="#0E8499"/>
<path d="M18.8949 11.8245C18.808 11.7487 18.7037 11.7003 18.6144 11.6221C18.5982 11.6085 18.5659 11.6221 18.5374 11.6358C18.5219 11.6455 18.5084 11.6582 18.4977 11.673C18.4244 11.7748 18.3288 11.858 18.2618 11.9635C18.2346 11.9997 18.2179 12.0426 18.2134 12.0876C18.2202 12.153 18.2366 12.2169 18.2618 12.2776C18.3599 12.5867 18.5101 12.8784 18.6268 13.1789C18.633 13.1962 18.664 13.1888 18.6752 13.1863L18.9235 13.1317C18.9533 13.1317 19.0104 13.092 19.0104 13.056C19.0104 12.7369 19.0364 12.4154 19.0104 12.0976C19.0131 12.0463 19.0041 11.995 18.9841 11.9477C18.9641 11.9004 18.9336 11.8583 18.8949 11.8245Z" fill="#0E8499"/>
</svg>
