<svg width="150" height="120" viewBox="0 0 150 120" fill="none" xmlns="http://www.w3.org/2000/svg">
<path d="M148.216 44.0671C147.391 42.7695 146.335 41.6352 145.099 40.7212C140.023 36.8574 134.239 34.9283 127.917 34.5286C126.763 34.4667 125.606 34.4667 124.451 34.5286C123.335 34.5793 122.224 34.7162 120.94 34.8382C120.97 34.8626 120.908 34.8382 120.867 34.7782C120.762 34.6449 120.659 34.5098 120.565 34.3672C117.711 30.0413 114.269 26.1337 110.338 22.757C104.622 17.7748 98.2809 13.8078 91.2176 11.0155C87.5977 9.58371 83.884 8.51033 80.0277 7.97739C77.2404 7.57123 74.4236 7.40173 71.6077 7.47072C69.4328 7.53828 67.256 7.49512 65.083 7.56643C63.1445 7.63023 61.2079 7.84978 59.2657 7.88544C55.5914 7.95675 51.9228 8.10875 48.2729 8.56287C45.9723 8.84998 43.7148 9.35289 41.6055 10.3662C38.2371 11.9857 35.9403 14.5115 34.9776 18.2027C34.2176 21.1057 34.317 23.9862 34.9607 26.8892C36.3412 33.1263 39.0981 38.976 43.0298 44.0108C45.8446 47.6494 48.9578 51.029 52.0466 54.4312C52.3206 54.7333 52.5758 55.0523 52.8423 55.3695C53.1087 55.6866 53.3733 55.9812 53.6398 56.2871C52.6058 55.8555 51.7314 55.2606 50.7856 54.814C49.3106 54.1159 47.8019 53.827 46.3851 55.0017C46.3401 55.0392 46.2575 55.0279 46.1768 55.043C44.0525 52.8455 41.8964 50.6669 39.7966 48.43C37.935 46.4428 36.1467 44.3898 34.3189 42.3725C32.6075 40.481 30.8999 38.5838 29.1584 36.7185C28.5598 36.0786 27.8655 35.5288 27.3025 35.0165C25.5949 35.3918 24.4389 36.4051 23.2455 37.4278C22.4191 36.6195 21.9042 35.5458 21.7911 34.3954C22.1026 34.3653 22.3316 34.3447 22.5605 34.3203C23.298 34.2377 23.7352 33.8268 23.7746 33.1812C23.8122 32.5695 23.3599 32.0328 22.6487 31.9802C22.3034 31.9559 21.9281 32.106 21.5922 32.2392C21.3558 32.3349 21.1606 32.5357 20.8153 32.7834C20.7121 32.6145 20.6277 32.4606 20.5338 32.3237C19.8864 31.4398 19.8714 30.4246 19.8996 29.3944C19.9146 28.9046 19.8996 28.4148 19.8996 27.788C18.3083 29.5952 18.601 32.0609 20.5207 33.9018C20.2298 35.7615 21.1118 37.2102 22.2509 38.3868C20.8228 40.7925 19.4361 43.1288 18.038 45.4895C16.6119 45.2286 15.8406 45.512 15.5873 46.4277C15.2927 47.503 15.7355 48.2349 17.0435 48.7622C16.9834 49.1375 16.9027 49.5409 16.8558 49.9406C16.732 51.1716 17.3813 52.3389 18.3139 52.6447C19.3741 52.9956 20.4194 53.3954 21.4815 53.7406C24.6716 54.7896 27.8617 55.8517 31.065 56.8613C34.6548 57.9872 38.2522 59.1132 41.8701 60.1509C43.3526 60.5769 44.8726 61.0141 46.4001 60.7852C47.2802 62.2357 48.0984 63.6919 49.016 65.0806C51.1571 68.2951 53.7674 71.1212 56.3026 74.0167C58.106 76.0809 60.0857 77.9574 62.4558 79.3423C63.8238 80.1473 65.2706 80.8098 66.7062 81.5472C66.9426 87.9857 60.1814 100.266 54.7526 103.182C54.268 101.758 53.4841 100.455 52.4538 99.3594C51.2041 98.0646 49.9205 96.7754 48.5131 95.672C42.6958 91.1364 36.1504 88.0588 29.0684 86.0828C27.3926 85.6175 25.6906 85.3059 23.936 85.4392C21.9469 85.5912 20.9035 87.1637 21.5735 89.0328C21.7048 89.3834 21.8577 89.7256 22.0313 90.0574C23.2994 92.5043 24.7827 94.8335 26.4637 97.0175C29.3194 100.754 32.5661 104.174 36.1486 107.22C38.1547 108.937 40.3743 110.388 42.7521 111.536C40.6879 112.829 39.4663 114.711 38.832 117.042C38.3723 118.731 39.0197 119.87 40.7348 119.966C44.0263 120.153 47.162 119.59 50.0124 117.81C51.7426 116.729 53.4653 115.629 55.248 114.636C56.9766 113.668 58.9343 113.183 60.9152 113.233C63.3284 113.276 65.7304 113.452 68.1361 113.565C72.0018 113.752 75.875 113.698 79.7331 113.086C83.323 112.523 86.864 111.867 90.3224 110.688C95.0826 109.055 99.7254 107.097 104.218 104.83C110.064 101.896 115.202 97.9989 119.446 93.0129C122.715 89.1791 125.136 84.803 127.296 80.2524C128.85 76.9854 129.443 73.5269 129.705 69.9859C129.797 68.7548 129.931 67.5464 130.298 66.3791C130.655 65.242 130.981 64.0935 131.406 62.9826C131.663 62.2839 132.015 61.6241 132.453 61.0216C133.832 59.1995 135.626 57.8521 137.634 56.7919C139.349 55.8874 141.092 55.0373 142.811 54.1403C144.53 53.2434 146.189 52.2263 147.536 50.787C149.42 48.7903 149.659 46.4109 148.216 44.0671ZM33.7466 43.3033C30.3688 45.3881 27.235 47.6832 23.5194 49.0436C23.9961 48.3981 24.499 47.7695 24.9437 47.1014C25.4129 46.394 25.6943 45.5045 26.2986 44.9622C26.9028 44.4198 27.8111 44.251 28.5504 43.8569C29.8273 43.1687 30.8926 42.1456 31.6317 40.8976L33.7466 43.3033ZM28.5692 37.3434L31.1964 40.3459C30.0545 41.7833 28.6012 42.9428 26.946 43.7368C27.3213 42.5602 27.6966 41.5788 27.9518 40.5673C28.207 39.5558 28.3478 38.5294 28.5692 37.3434ZM16.9346 48.0078C16.5049 47.6081 16.3379 47.1427 16.5969 46.636C16.8333 46.1707 17.278 46.3452 17.734 46.3771C17.5501 47.0114 17.537 47.6344 16.9271 48.0116L16.9346 48.0078ZM18.267 51.1773C17.796 51.0272 17.8917 50.5449 17.9517 50.2052C18.1394 49.1731 18.2614 48.1091 18.6179 47.1333C19.5945 44.5156 20.8816 42.0245 22.4517 39.7135C22.5952 39.516 22.7513 39.328 22.9189 39.1505L25.486 40.1376L23.7427 38.1053C24.4277 37.5179 25.0244 36.9643 25.6681 36.4727C25.9098 36.271 26.2053 36.1445 26.5181 36.1088C26.8309 36.0731 27.1473 36.1298 27.4283 36.2719C27.1412 39.1712 26.4562 41.9484 25.077 44.5287C24.0974 46.3639 23.0615 48.1692 21.5828 49.6554C20.9898 50.2503 20.2693 50.7175 19.6012 51.2373C19.149 51.6051 18.6873 51.318 18.2595 51.181L18.267 51.1773ZM22.2828 52.7592C21.6279 52.6185 20.9917 52.3951 20.1266 52.1418C21.0386 51.5075 21.7104 50.9483 22.5849 50.588C25.8482 49.2407 29.0815 47.8051 31.9226 45.6509C32.6732 45.0879 33.3863 44.4461 34.1951 43.7743L36.1692 45.923C32.9791 49.9725 28.8113 52.2206 23.784 52.8868C23.2777 52.9295 22.7678 52.8877 22.2753 52.763L22.2828 52.7592ZM29.4868 54.9566C28.1582 54.5813 26.8409 54.1685 25.5198 53.7669C27.8295 52.8881 30.0853 51.8736 32.2754 50.7288C33.9267 49.8637 35.3717 48.7753 36.4694 47.2515C36.5839 47.0939 36.7228 46.9551 36.9104 46.7355C37.5184 47.3942 38.0851 48.0097 38.65 48.6252C37.4321 49.828 36.2536 51.0253 35.0358 52.1906C33.6528 53.5042 31.9545 54.2698 30.1755 54.8778C29.9561 54.9713 29.7145 55 29.4793 54.9604L29.4868 54.9566ZM34.0393 56.4372C33.101 56.1557 32.1628 55.8386 31.0369 55.467C34.3902 54.0446 37.3814 52.4815 39.3481 49.3401L41.5455 51.6839C40.2469 53.4479 38.8358 54.966 36.8335 55.8123C36.1695 56.0803 35.4887 56.3047 34.7956 56.4841C34.5418 56.5392 34.2778 56.5243 34.0318 56.441L34.0393 56.4372ZM37.9801 57.7677C37.4058 57.5688 36.8279 57.383 36.0491 57.1259C38.7588 56.2514 40.99 55.0054 42.1966 52.5809L44.0206 54.1647C42.6057 55.5984 41.2734 56.9345 39.4513 57.6607C38.9427 57.8671 38.4792 57.9478 37.9688 57.7714L37.9801 57.7677ZM40.4571 58.3813C42.1685 57.687 43.5834 56.6924 44.6136 54.9416L45.6814 56.1313C45.3061 57.2967 45.642 58.4451 45.9422 59.7118C43.9362 59.708 42.2436 58.8861 40.444 58.3851L40.4571 58.3813ZM66.0438 79.5206C62.9089 77.6574 60.1679 75.2 57.9746 72.2865C55.552 69.0438 52.9736 65.9063 50.947 62.3934C50.1851 61.0704 49.4683 59.7155 48.7889 58.3457C48.3367 57.4374 48.5319 57.0415 49.5396 56.8444C50.1698 56.7334 50.8133 56.7189 51.448 56.8013C53.5422 57.0471 55.2893 57.8428 56.6648 59.5936C58.5976 62.0518 60.6656 64.4031 62.3882 67.0209C64.0396 69.5317 65.4995 72.1383 66.2033 75.09C66.4068 75.9477 66.5665 76.8152 66.6818 77.6891C66.7681 78.359 66.755 79.0439 66.7944 79.8771C66.4754 79.7307 66.2483 79.6444 66.0438 79.5206ZM127.527 74.5252C126.207 79.714 124.091 84.6668 121.254 89.2073C118.332 93.8761 114.419 97.571 109.889 100.654C105.102 103.904 99.8196 106.171 94.4921 108.348C90.6396 109.922 86.6332 110.934 82.5423 111.628C80.3374 112.004 78.1268 112.368 75.905 112.604C74.8748 112.715 73.8108 112.499 72.7599 112.443C70.2847 112.309 67.8096 112.152 65.3307 112.067C63.5611 112.005 61.7859 112.054 60.0144 112.034C58.4813 112.015 57.0739 112.461 55.6984 113.094C52.2756 114.67 48.8246 116.19 45.1278 117.023C43.7729 117.327 42.3937 117.522 41.0219 117.753C40.7489 117.773 40.4749 117.773 40.2019 117.753C40.4571 115.047 42.2004 113.358 43.6266 111.452C43.2513 110.48 42.4894 109.74 41.6281 109.042C38.4379 106.445 35.3154 103.745 32.4855 100.742C29.1078 97.1619 26.1503 93.2738 24.0561 88.7832C23.9717 88.5955 23.9097 88.4079 23.8122 88.1639C24.9719 87.9181 26.0396 88.0645 27.0811 88.3234C35.4824 90.4101 43.2738 93.8273 50.2639 98.9916C51.8608 100.172 53.12 101.592 53.728 103.522C53.7674 103.647 53.7899 103.779 53.8218 103.914C52.5927 104.944 51.114 105.603 49.8923 106.674C50.3502 107.262 50.7781 107.119 51.2397 106.95C53.7899 106.012 56.1356 104.723 58.136 102.88C64.1072 97.3721 67.7946 90.6184 68.9486 82.5681C69.6861 77.4113 68.5583 72.5642 66.0212 68.0305C64.087 64.6261 61.8041 61.4319 59.2094 58.4995C56.053 54.8816 52.816 51.3349 49.6259 47.7451C46.8204 44.5887 44.1088 41.3648 41.8664 37.7581C39.5507 34.0177 37.8875 29.9109 36.948 25.6131C36.5241 23.6739 36.535 21.6647 36.9799 19.7302C37.6066 16.9154 39.2129 14.8136 41.7144 13.38C43.6041 12.2972 45.6551 11.7136 47.7906 11.4096C51.3654 10.8973 54.9684 10.8072 58.5732 10.7415C60.4104 10.7078 62.2475 10.5539 64.0846 10.4901C71.0916 10.2142 78.0987 9.99467 84.9349 12.0063C91.4688 13.9399 97.6342 16.9506 103.177 20.9143C106.905 23.5602 110.433 26.452 113.592 29.7622C117.532 33.8906 120.993 38.3793 123.802 43.3558C125.29 45.9961 126.163 48.8522 126.65 51.8266C127.285 55.6866 127.913 59.5467 128.476 63.418C129.017 67.1804 128.469 70.8697 127.527 74.5252ZM144.592 48.0153C144.015 48.6394 143.382 49.2091 142.701 49.7173C141.308 50.6931 139.867 51.5939 138.426 52.5059C136.435 53.7575 134.485 55.0467 132.819 56.7393C131.304 58.2674 130.132 60.0992 129.377 62.1138C129.27 61.8662 129.187 61.6092 129.127 61.3463C128.671 56.1783 127.579 51.1397 126.159 46.1463C125.159 42.5697 123.636 39.1607 121.638 36.0298C121.554 35.8789 121.478 35.7236 121.411 35.5644C122.764 35.161 124.061 35.2173 125.335 35.3768C130.402 36.0411 135.024 37.9458 139.334 40.6311C141.074 41.7195 142.65 43.0162 143.905 44.6582C144.251 45.1208 144.565 45.6067 144.844 46.1125C145.034 46.4078 145.114 46.7615 145.068 47.1102C145.022 47.4588 144.853 47.7797 144.592 48.0153Z" fill="#0E8499"/>
<path d="M6.97081 49.9444C7.03015 49.7487 7.06482 49.5463 7.07402 49.342C7.09278 48.5539 6.54295 48.0585 5.82799 48.3625C5.02108 48.704 4.47501 48.4863 3.95145 47.9065C3.8265 47.7899 3.68637 47.6908 3.53486 47.6118C3.12202 47.3454 2.6998 47.3078 2.30385 47.6287C2.12344 47.7621 1.99055 47.9498 1.92469 48.1643C1.85883 48.3788 1.86347 48.6087 1.93792 48.8203C2.0355 49.1394 2.18562 49.4415 2.34325 49.8243C2.20017 49.9066 2.04685 49.9697 1.88725 50.0119C1.35994 50.0645 0.967747 50.2709 0.870167 50.8357C0.772587 51.4006 1.11599 51.6783 1.58325 51.9204C1.84357 52.0496 2.06888 52.2398 2.24006 52.4746C2.41124 52.7095 2.52324 52.9822 2.56656 53.2696C2.63324 53.637 2.77161 53.9877 2.97377 54.3017C3.34908 54.8741 3.91204 54.9341 4.32301 54.4031C4.92162 53.6205 5.68913 53.2509 6.63115 53.0482C7.57318 52.8455 7.77209 52.3238 7.23352 51.4888C7.07528 51.2682 6.96937 51.0145 6.92385 50.7469C6.87833 50.4793 6.89439 50.2049 6.97081 49.9444ZM3.88014 52.9469L2.64162 50.7288C3.16706 50.4848 3.15017 49.875 3.1633 49.2163C4.0753 49.5916 4.93101 50.1414 5.99876 49.3233C5.79046 50.3779 5.74167 51.258 6.31214 51.9954L3.88014 52.9469Z" fill="#0E8499"/>
<path d="M82.8092 2.16948C83.5166 3.03457 83.7737 3.96346 83.8713 4.96178C83.922 5.48721 83.9069 6.06143 84.5074 6.34667C84.7082 6.30627 84.8942 6.21189 85.0453 6.07367C85.1964 5.93546 85.3069 5.75865 85.365 5.56227C85.8473 4.26746 85.8848 2.97077 85.32 1.69659C84.5431 -0.0523445 82.9499 -0.508344 81.4093 0.606322C79.681 1.85798 79.0617 3.58815 79.4164 5.688C79.9718 3.94094 80.9251 2.62736 82.8092 2.16948Z" fill="#0E8499"/>
<path d="M15.739 42.7047C16.0448 42.3294 16.4258 42.2468 16.908 42.2656C17.927 42.305 18.3061 41.7139 17.8707 40.7531C17.7653 40.5655 17.7133 40.3527 17.7202 40.1377C17.7272 39.9227 17.7928 39.7137 17.9101 39.5333C18.4093 38.6457 18.0396 38.1165 16.9869 37.9795C16.1548 37.8684 15.3301 37.7074 14.5173 37.4973C13.6353 37.2702 12.9392 37.7806 12.9936 38.6908C13.0067 38.9159 13.0424 39.1393 13.0649 39.3325C12.5864 39.6759 11.9296 39.7585 11.9558 40.4735C11.9952 41.5393 13.0273 41.3142 13.671 41.7664C13.6597 41.8884 13.656 41.9841 13.641 42.0798C13.564 42.5602 13.7029 42.9862 14.127 43.2057C14.5868 43.4497 15.0484 43.3164 15.4406 42.9787C15.5482 42.8967 15.6481 42.805 15.739 42.7047ZM14.675 42.1417C14.5905 41.438 14.2809 40.8657 13.3726 40.785C14.0107 40.2089 14.6412 39.7285 14.2058 38.8315L16.8161 39.0679C16.2982 39.7416 16.3732 40.4359 16.7617 41.0646L14.675 42.1417Z" fill="#0E8499"/>
<path d="M10.6443 36.0636C10.9558 35.996 11.2279 35.7427 11.622 35.5006C11.6933 35.6883 11.7496 35.8028 11.7909 35.9285C11.911 36.2944 12.0817 36.7298 12.5021 36.6528C12.8042 36.5984 13.0519 36.2287 13.3146 35.9904C13.3578 35.951 13.3521 35.8628 13.3728 35.8028C13.4536 35.542 13.5993 35.306 13.7962 35.117C13.9931 34.9279 14.2349 34.792 14.4987 34.7219C14.6936 34.6714 14.8824 34.5996 15.0617 34.508C15.7673 34.0895 15.863 33.4909 15.2775 32.9298C14.7412 32.4597 14.3113 31.8808 14.0164 31.2315C13.8119 30.7417 13.3916 30.6029 13.0219 30.8806C12.288 31.4377 11.3829 31.7217 10.4623 31.6838C9.96311 31.6838 9.66474 32.0722 9.85052 32.5169C10.2258 33.4252 10.1095 34.2058 9.61595 35.0278C9.4846 35.2473 9.53339 35.7596 9.70415 35.9266C9.87492 36.0936 10.3459 36.1293 10.6443 36.0636ZM13.2095 31.6931L13.9602 33.4721L12.3125 35.1253L10.999 35.0465C11.0909 33.5002 11.0909 33.5002 10.436 32.3274C11.4381 32.3762 12.397 32.3274 13.2095 31.6931Z" fill="#0E8499"/>
<path d="M15.5316 25.9321C15.8591 25.9523 16.1875 25.9523 16.5149 25.9321C16.5431 26.1648 16.5581 26.2962 16.5731 26.4276C16.6857 27.4034 17.2149 27.6848 17.9861 27.0881C18.4121 26.7616 18.84 26.7466 19.2997 26.6921C20.2042 26.5852 20.4744 26.0391 19.9396 25.3166C19.7668 25.1084 19.6475 24.861 19.5922 24.596C19.537 24.3311 19.5473 24.0566 19.6225 23.7966C19.6861 23.603 19.7159 23.3999 19.7107 23.1961C19.6844 22.8377 19.4592 22.5731 19.1046 22.7289C18.4177 23.0329 17.8867 22.8452 17.3237 22.4286C16.9447 22.1434 16.6125 22.3311 16.4999 22.7721C16.4578 22.9006 16.4526 23.0385 16.4849 23.1699C16.7401 23.8417 16.3723 24.172 15.8488 24.4647C15.5807 24.6093 15.3435 24.805 15.1507 25.0408C14.8486 25.433 15.04 25.8646 15.5316 25.9321ZM17.4213 23.5959L18.8756 23.8586V25.6338L17.2655 26.3731L16.545 25.0596L17.4213 23.5959Z" fill="#0E8499"/>
<path d="M10.8512 46.317C9.19613 45.3131 7.09816 45.6133 6.20117 46.9344C7.3271 47.3529 8.45302 46.3715 9.65026 47.0076C9.52233 47.3434 9.42008 47.6884 9.34438 48.0397C9.26369 48.6177 9.59771 49.1525 10.0462 49.2595C10.5791 49.3871 11.1046 49.0718 11.281 48.4563C11.3529 48.1262 11.3769 47.7874 11.3523 47.4505C11.3294 47.2277 11.2874 47.0073 11.2266 46.7918C12.1198 46.1913 13.0749 46.4165 14.1765 46.4165C12.9342 45.8873 11.8608 45.8986 10.8512 46.317ZM10.2714 48.3062L10.0988 48.3287C10.0744 48.141 10.0481 47.9534 10.0218 47.7657L10.2714 47.7301V48.3062Z" fill="#0E8499"/>
<path d="M5.82661 37.379C6.74799 37.3509 7.50048 36.5158 7.48172 35.5381C7.46295 34.5605 6.54345 33.7216 5.60518 33.7761C4.6669 33.8305 3.96883 34.6974 3.97071 35.8797C3.97634 36.6584 4.90147 37.4072 5.82661 37.379ZM5.84537 34.6543C6.307 34.6543 6.65416 34.8307 6.75925 35.2792C6.86434 35.7277 6.63915 36.0654 6.28448 36.315C5.80409 36.6472 5.38562 36.5402 4.66878 35.8984C4.87708 35.3223 4.97841 34.6637 5.84537 34.6543Z" fill="#0E8499"/>
<path d="M24.715 30.4002C25.3436 30.4096 26.0173 29.7096 26.0004 29.0641C25.9797 28.2947 25.4487 27.7318 24.7487 27.7505C24.1614 27.7505 23.4352 28.4767 23.4126 29.0641C23.3901 29.6515 24.0901 30.4002 24.715 30.4002ZM25.3192 28.3792C25.5388 28.6606 25.4337 29.2198 25.1147 29.4694C24.7525 29.7528 24.4241 29.5839 23.9512 28.8389C24.6812 28.1371 25.0377 28.0245 25.3192 28.3867V28.3792Z" fill="#0E8499"/>
<path d="M17.1458 33.5678C16.873 33.5737 16.6134 33.6862 16.4226 33.8812C16.2318 34.0763 16.1249 34.3383 16.125 34.6112C16.1456 35.4125 16.688 36.0636 17.3691 36.0993C17.5129 36.1005 17.6555 36.0732 17.7887 36.0189C17.9218 35.9646 18.0429 35.8845 18.1448 35.783C18.2468 35.6816 18.3276 35.561 18.3825 35.4281C18.4375 35.2952 18.4656 35.1528 18.465 35.009C18.4669 34.2884 17.8139 33.5734 17.1458 33.5678ZM17.1759 35.6095C16.9188 35.191 16.7161 35.0034 16.6936 34.7951C16.6467 34.3503 16.9394 33.9975 17.2228 34.1176C17.3311 34.1725 17.425 34.2521 17.497 34.3498C17.5691 34.4476 17.6172 34.5609 17.6375 34.6806C17.6431 34.9208 17.4217 35.1554 17.1759 35.6095Z" fill="#0E8499"/>
<path d="M8.98105 42.0347C9.1648 42.0257 9.33817 41.9469 9.4658 41.8143C9.59343 41.6818 9.6657 41.5056 9.66786 41.3217C9.67719 41.2302 9.66836 41.1378 9.64188 41.0498C9.6154 40.9617 9.57179 40.8798 9.51355 40.8086C9.45532 40.7375 9.3836 40.6785 9.30252 40.6352C9.22144 40.5919 9.1326 40.5649 9.0411 40.556C8.68455 40.5298 8.29048 40.9313 8.27734 41.3254C8.28713 41.5094 8.36426 41.6834 8.49402 41.8142C8.62379 41.945 8.79714 42.0235 8.98105 42.0347Z" fill="#0E8499"/>
<path d="M14.8258 29.7096C15.0942 29.6289 15.3081 29.3625 15.6909 29.0641C15.3344 28.7638 15.128 28.4861 14.8784 28.4054C14.7886 28.3836 14.6951 28.3829 14.605 28.4034C14.5149 28.4238 14.4308 28.4647 14.3592 28.5231C14.2876 28.5814 14.2305 28.6555 14.1923 28.7396C14.1541 28.8237 14.1358 28.9155 14.139 29.0078C14.1315 29.3643 14.5068 29.8034 14.8258 29.7096Z" fill="#0E8499"/>
<path d="M73.1112 28.7413C71.1934 29.1504 69.5364 30.0267 68.0089 31.1808C65.1847 33.3144 61.9683 34.5698 58.5605 35.3092C56.41 35.7802 54.2031 36.0035 52.0189 36.3169C50.8929 36.4783 50.1104 37.0375 50.0691 38.0508C50.0203 39.1767 49.9303 40.3721 50.7391 41.3517C51.2363 41.9522 51.7712 42.5283 52.214 43.1663C55.0626 47.2703 58.9696 49.8881 63.6609 51.4231C65.8584 52.1493 68.0295 51.9804 70.1275 51.0421C73.3495 49.616 75.714 47.1933 77.6487 44.3429C79.452 41.6838 80.5817 38.7526 80.668 35.4893C80.668 35.2848 80.668 35.0803 80.668 34.8757C80.7056 31.3178 77.5736 27.788 73.1112 28.7413ZM75.3893 34.6881C75.1994 35.3395 74.9067 35.9565 74.5224 36.5158C74.1714 37.0431 73.5372 37.06 73.0211 36.5477C72.5458 36.0637 72.1295 35.5251 71.7807 34.9433C71.4992 34.4873 71.6494 34.0425 72.1335 33.8474C72.8203 33.5715 73.5409 33.3839 73.9706 33.2469C75.0647 33.2563 75.6107 33.8774 75.3893 34.6881Z" fill="#0E8499"/>
<path d="M112.647 67.8578C109.27 65.6341 105.804 63.5418 102.315 61.4776C100.868 60.657 99.3561 59.9566 97.7945 59.3834C96.1698 58.7244 94.3602 58.6831 92.7072 59.267C90.3577 60.1002 89.4101 61.958 89.4889 64.0635C89.5525 65.496 89.9068 66.9006 90.5304 68.1919C92.4583 72.3289 94.8628 76.2266 97.695 79.8058C99.9056 82.5681 102.891 84.2644 106.034 85.7131C106.509 85.9327 107.089 85.9477 107.626 85.9946C107.853 86.0153 108.095 85.8764 108.491 85.7638C107.252 84.4502 106.162 83.238 104.878 82.2284C103.486 81.1306 102.139 79.9934 101.033 78.5917C98.3612 75.1905 96.0676 71.5083 94.1934 67.6101C93.7134 66.5622 93.3545 65.463 93.1238 64.3337C92.8029 62.9038 93.454 62.1531 94.9384 62.0818C96.0305 62.0255 97.117 62.0593 98.151 62.4815C100.191 63.3185 102.279 64.0729 104.259 65.0186C108.763 67.1598 113.464 68.9387 117.545 71.9618C117.481 71.846 117.403 71.7388 117.312 71.6428C115.768 70.3705 114.314 68.9537 112.647 67.8578Z" fill="#0E8499"/>
<path d="M76.9589 18.9646C76.3012 19.8826 75.8944 20.9563 75.7786 22.0796C75.6491 23.1267 76.0826 24.232 76.8257 24.8231C76.9045 22.9729 77.7396 21.5579 79.0682 20.4114C79.8 20.8374 80.0871 21.4791 80.2466 22.196C80.423 22.9916 80.5619 23.7948 80.7608 24.5829C80.8115 24.78 81.0498 25.0877 81.1699 25.0727C81.2944 25.0498 81.4132 25.0024 81.5192 24.9331C81.6252 24.8638 81.7163 24.7741 81.7873 24.6693C82.7256 23.1023 82.5379 20.402 81.442 18.9439C80.2279 17.3282 78.1637 17.3301 76.9589 18.9646Z" fill="#0E8499"/>
<path d="M100.445 42.0348C101.735 40.7681 102.904 39.4076 103.435 37.6211C103.715 36.7762 103.715 35.8633 103.435 35.0184C103.157 34.2302 102.583 34.0801 101.95 34.6262C101.694 34.85 101.479 35.1167 101.314 35.4143C100.445 37.0225 99.5972 38.6438 98.7471 40.2652C98.3718 40.9895 98.3305 41.6914 98.946 42.32C99.4827 42.4589 100.031 42.4326 100.445 42.0348Z" fill="#0E8499"/>
<path d="M103.609 44.0483C104.035 44.3466 104.442 44.2153 104.821 43.9469C106.354 42.866 107.234 41.4173 107.302 39.644C107.302 39.4564 107.302 39.3794 107.302 39.3119C107.287 38.9047 107.315 38.4412 106.844 38.276C106.373 38.1109 106.108 38.4899 105.823 38.7752C105.8 38.7996 105.78 38.8267 105.763 38.8559C104.973 40.1563 104.161 41.4417 103.406 42.7628C103.108 43.2845 103.241 43.7893 103.609 44.0483Z" fill="#0E8499"/>
<path d="M108.477 46.698C109.323 46.0337 110.252 45.4313 110.815 44.4743C110.945 44.278 111.014 44.048 111.014 43.8128C111.014 43.5776 110.945 43.3476 110.815 43.1513C109.076 43.4966 107.477 45.4032 107.725 46.8293C107.967 46.7918 108.295 46.8406 108.477 46.698Z" fill="#0E8499"/>
<path d="M41.205 24.5622C41.1468 23.6409 40.9554 22.8433 40.4543 22.1434C40.3943 23.1755 40.6326 23.9017 41.205 24.5622Z" fill="#0E8499"/>
<path d="M21.6368 46.9551C21.9435 46.9529 22.2375 46.8328 22.458 46.6197C22.6784 46.4066 22.8084 46.1168 22.8209 45.8104C22.8209 45.0898 22.1923 44.403 21.5074 44.3917C20.8712 44.3786 20.5391 44.8121 20.5391 45.6546C20.5391 46.4465 20.9557 46.9382 21.6368 46.9551ZM21.7644 45.1517C21.9183 45.1892 22.1229 45.6002 22.0722 45.771C21.9146 46.3039 21.5261 46.2345 21.0251 45.9586C21.1883 45.5195 21.1827 45.0091 21.7644 45.1517Z" fill="#0E8499"/>
<path d="M22.6297 42.7028C23.2245 42.7028 23.7725 42.1905 23.7556 41.6557C23.7406 41.149 23.1926 40.6104 22.716 40.6161C22.0723 40.6161 21.7439 41.0571 21.7646 41.8771C21.7815 42.5001 21.9973 42.7047 22.6297 42.7028ZM22.7892 41.0796C22.9074 41.2166 23.1345 41.3629 23.127 41.4905C23.0988 41.8996 22.7835 41.9071 22.1512 41.8302C22.4495 41.4718 22.6165 41.2841 22.7892 41.0796Z" fill="#0E8499"/>
<path d="M20.3193 48.2405C20.1351 48.2295 19.9532 48.2867 19.8085 48.4013C19.6638 48.5159 19.5664 48.6797 19.5349 48.8616C19.5164 49.0441 19.5685 49.2267 19.6806 49.3719C19.7926 49.5172 19.9561 49.6139 20.1373 49.6423C20.228 49.6604 20.3215 49.6589 20.4116 49.6379C20.5017 49.6169 20.5863 49.5769 20.6597 49.5206C20.7331 49.4643 20.7936 49.3929 20.8372 49.3113C20.8807 49.2297 20.9063 49.1397 20.9123 49.0474C20.9301 48.8635 20.8794 48.6795 20.77 48.5306C20.6606 48.3817 20.5001 48.2784 20.3193 48.2405Z" fill="#0E8499"/>
</svg>
