<svg width="506" height="470" viewBox="0 0 506 470" fill="none" xmlns="http://www.w3.org/2000/svg">
<g clip-path="url(#clip0_69_9856)">
<path d="M377.18 284.213C375.29 278.571 373.038 273.057 370.439 267.704C364.46 255.309 357.106 242.983 347.948 230.031C347.569 229.499 347.195 229.012 346.866 228.584L346.757 228.445C346.528 228.146 346.174 227.689 345.975 227.405C345.81 226.783 345.671 225.798 345.531 224.848V224.799C345.451 224.217 345.367 223.64 345.272 223.048C345.237 222.854 345.207 222.66 345.172 222.466C346.264 222.192 347.504 221.968 348.845 221.735L350.489 221.441C354.348 220.737 358.161 219.804 361.909 218.646C365.063 217.651 369.383 216.333 373.125 212.677C376.208 209.67 378.344 205.828 379.268 201.625C380.838 194.393 378.615 186.887 372.671 179.332C367.923 173.283 362.507 168.618 356.582 165.469C353.828 164.053 351.001 162.783 348.112 161.664L347.833 161.55C347.135 161.266 346.433 160.983 345.72 160.684C342.098 159.162 338.57 157.7 335.217 156.352L333.374 155.606L332.273 155.158C326.209 152.671 319.936 150.15 313.488 148.031C306.177 145.698 298.628 144.185 290.982 143.519C283.862 142.838 276.104 142.455 267.913 142.37C267.375 141.873 266.831 141.351 266.278 140.818L265.88 140.44C265.382 139.983 264.923 139.53 264.47 139.107C261.759 136.551 259.059 134.094 256.782 132.029C250.259 126.12 243.453 119.953 236.283 113.865L236.338 113.775C237.24 111.991 237.749 110.036 237.833 108.04V107.757C237.908 106.802 237.952 105.911 237.992 105.041V104.583C238.098 102.959 238.027 101.328 237.778 99.7186C237.569 98.4794 237.293 97.2524 236.951 96.0429C236.24 93.4994 235.265 91.0372 234.041 88.6963C233.453 87.5672 232.805 86.458 232.118 85.3986L231.919 85.0902C231.039 83.5993 229.956 82.2382 228.7 81.0464C226.247 78.8459 223.025 77.6986 219.731 77.8531C218.105 77.9295 216.511 78.3292 215.042 79.0287C213.573 79.7282 212.259 80.7135 211.176 81.9268C207.913 85.5727 207.808 89.7956 208.027 92.4119C201.353 88.0043 194.396 84.0397 187.2 80.544C172.661 73.5506 158.396 69.4222 144.803 68.2782C136.784 67.5481 128.698 68.1736 120.887 70.1285C116.467 71.2626 113.015 72.8145 110.01 75.013C106.697 77.4502 104.265 80.4346 102.337 82.8271L101.888 83.3742C99.8609 85.7799 98.083 88.3846 96.582 91.1485C94.5399 93.5052 92.9232 96.198 91.8037 99.1068C91.445 99.9524 91.1012 100.858 90.7823 101.813L90.4086 103.016C90.3438 103.25 90.289 103.514 90.2392 103.733C89.4669 106.503 88.9786 109.204 88.4953 111.795C88.3857 112.402 88.2761 113.004 88.1565 113.616C86.2731 123.524 84.9627 131.184 83.8964 138.451C82.5611 147.613 82.0479 156.854 81.719 164.693C81.4948 170.105 81.4599 175.248 81.6094 180.212C80.6943 179.62 79.7309 179.106 78.7295 178.675C73.4131 176.352 68.0767 176.909 63.5526 177.77L63.2337 177.83C57.5835 178.894 51.8136 179.988 46.0687 181.311C46.7593 179.849 47.0826 178.241 47.0104 176.626C47.0702 176.531 47.135 176.412 47.2197 176.273L47.3293 176.094C48.6305 174.111 49.4699 171.862 49.7857 169.513C50.3288 164.843 48.4753 160.505 44.3049 156.616C40.516 153.104 35.5626 151.112 30.3936 151.02C27.6539 151.033 24.9357 151.504 22.3517 152.413H22.277C21.661 152.615 21.0338 152.781 20.3985 152.91C13.5525 153.298 10.4832 157.78 9.1728 159.695L9.0881 159.814C8.91371 160.073 8.74929 160.311 8.6596 160.421C6.43239 163.107 4.29985 165.817 2.68052 169.513C1.15703 173.013 0.266354 176.755 0.0497189 180.565C-0.0389735 181.892 -0.00895914 183.223 0.139405 184.544C0.0754067 185.473 0.145888 186.406 0.348673 187.315C0.62085 188.494 0.961909 189.657 1.3701 190.797L1.42491 190.956C1.58435 191.413 1.72386 191.816 1.80358 192.115V192.189C2.49499 194.613 4.10301 196.673 6.2879 197.934C7.26409 198.543 8.34017 198.976 9.46678 199.213C12.1791 199.799 15.0132 199.318 17.3791 197.87C16.9969 199.683 16.9294 201.549 17.1798 203.386C17.6781 207.305 18.4703 211.076 19.2226 214.706L19.3273 215.204C19.7209 217.124 20.1295 219.108 20.4583 220.969L20.6178 221.869C20.9045 223.869 21.3698 225.84 22.0079 227.758C21.9232 228.111 21.8485 228.494 21.7887 228.897C21.2904 232.275 22.1723 235.115 22.6905 236.816L22.7453 237.015C22.8051 237.214 22.8699 237.408 22.9197 237.626C23.4479 239.825 23.9162 242.247 24.3099 245.247C24.7184 248.141 24.9526 251.126 25.1419 253.921V254.239C25.2615 256.468 25.6053 262.223 30.6477 265.57C33.2585 267.306 36.0139 267.485 37.4788 267.56H37.6831C38.8789 267.744 40.0149 267.918 41.2456 268.057C44.5774 268.521 47.9467 268.659 51.3054 268.47C52.5754 268.376 53.8373 268.195 55.0822 267.928C57.2297 269.052 59.2128 270.087 61.2257 271.111L61.0912 271.514C57.1156 283.74 56.4012 296.79 59.0184 309.376C61.2755 320.07 66.0638 330.734 72.9696 340.746C68.3075 338.96 63.502 337.57 58.6049 336.593C52.8251 335.484 48.0667 336.354 44.4494 339.18C40.0598 342.607 38.8889 347.944 41.3054 353.007C41.3054 353.505 41.3054 354.136 41.3602 354.848C41.4928 356.716 41.7643 358.571 42.1724 360.399C42.8872 363.46 43.9609 366.427 45.3712 369.237C47.9671 374.445 51.4748 378.802 54.564 382.667L54.9875 383.194C59.0433 388.243 63.0942 393.053 66.5172 397.091C74.285 406.229 81.9383 415.182 90.2193 423.687C92.2771 425.801 94.3249 427.835 96.298 429.741C96.9956 430.412 97.6882 431.064 98.4455 431.775L97.728 433.585C96.3302 436.848 95.2376 440.233 94.4644 443.697C93.8799 446.738 93.6525 449.836 93.7868 452.929C93.7868 453.158 93.7868 453.75 93.7519 454.013C93.6523 456.132 93.4978 459.331 94.9029 462.658C96.8959 467.324 101.036 469.995 106.303 469.995C109.686 469.995 112.78 468.881 114.464 468.279H114.514L115.062 468.085C124.385 464.996 133.498 459.256 143.707 450.024C147.845 446.386 151.726 442.465 155.322 438.291L156.223 437.206C156.836 436.455 158.62 434.292 159.497 433.685C160.36 433.823 161.215 434.007 162.058 434.237C163.139 434.501 164.614 434.864 166.203 435.107C169.275 435.564 172.376 435.797 175.481 435.804C181.206 435.804 186.747 435.207 192.123 434.605L194.22 434.376C206.365 433.133 218.364 430.74 230.055 427.229C241.387 423.685 252.428 419.274 263.08 414.033C285.382 403.185 302.94 390.705 316.807 375.873C324.928 367.173 331.306 357.747 335.74 347.849C336.946 345.163 339.447 342.224 341.859 339.394C342.253 338.936 342.676 338.439 343.11 337.901C345.538 338.583 348.008 339.108 350.504 339.473C356.318 340.359 363.085 341.09 369.851 338.528C372.018 337.712 377.091 335.792 379.627 330.684C381.211 327.481 381.49 323.92 381.675 321.552L381.705 321.209C381.725 320.97 381.744 320.741 381.764 320.522C382.92 309.142 381.371 296.921 377.18 284.213Z" fill="white"/>
<path d="M367.958 287.232C366.198 281.995 364.107 276.875 361.7 271.902C355.492 259.22 348.239 247.075 340.015 235.592C338.984 234.14 337.524 232.578 336.916 230.907C336.209 228.917 336.024 226.684 335.69 224.605C335.411 222.904 335.038 221.183 334.863 219.472C334.599 216.915 335.86 215.99 337.853 214.891C341.201 213.045 344.973 212.578 348.685 211.906C352.17 211.27 355.613 210.43 358.999 209.39C361.685 208.554 364.28 207.733 366.338 205.734C368.054 204.064 369.241 201.928 369.751 199.591C370.882 194.388 368.122 189.305 365.003 185.336C361.435 180.789 357.121 176.77 351.993 174.045C348.78 172.334 345.312 171.06 341.959 169.648C338.534 168.202 335.086 166.776 331.615 165.37C324.639 162.55 317.624 159.615 310.464 157.258C303.826 155.148 296.975 153.777 290.035 153.169C282.561 152.458 274.913 152.124 267.389 152.065C265.132 152.065 263.757 151.791 262.063 150.214C260.623 148.872 259.208 147.504 257.778 146.156C255.287 143.808 252.761 141.5 250.229 139.192C229.617 120.515 208.236 101.445 182.965 89.2686C170.807 83.4192 157.509 79.077 143.996 77.9479C137.062 77.3089 130.07 77.8403 123.313 79.5197C120.607 80.1369 118.042 81.261 115.755 82.8323C113.303 84.6279 111.345 87.1447 109.442 89.4875C107.539 91.8302 105.82 94.1282 104.634 96.8489C102.915 98.3411 101.679 100.639 100.802 102.818C100.457 103.63 100.154 104.46 99.8954 105.305C99.8655 105.394 99.8356 105.489 99.8107 105.578C99.801 105.602 99.801 105.629 99.8107 105.653C98.864 108.826 98.3159 112.169 97.723 115.407C96.1834 123.509 94.7334 131.662 93.5326 139.829C92.3169 148.18 91.7987 156.646 91.4499 165.077C91.0736 173.27 91.2284 181.479 91.9133 189.653C92.3019 194.04 92.8401 198.412 93.2885 202.794C93.5027 204.883 93.8615 206.997 92.6208 208.847C91.3557 210.639 89.8174 212.222 88.0618 213.538C84.992 215.852 81.5726 217.664 77.9322 218.905C76.4374 219.437 74.5889 220.298 72.9995 220.422C72.5012 220.462 71.7439 220.526 71.5994 219.73C71.7133 219.259 71.8805 218.802 72.0976 218.368C72.4962 217.239 72.8699 216.095 73.2237 214.946C74.4145 211.046 75.3463 207.067 76.2132 203.088C76.6268 201.212 77.0254 199.332 77.434 197.457C77.8126 195.731 78.4753 193.896 78.555 192.12C78.6597 189.713 76.8908 188.429 74.853 187.539C71.8634 186.241 68.4454 186.698 65.3413 187.285C56.4025 188.972 47.2446 190.693 38.54 193.354C37.46 193.753 36.3589 194.094 35.2416 194.373C33.6671 194.657 33.697 193.577 33.2485 192.254C32.4912 190.089 31.7355 187.924 30.9815 185.758L29.8953 182.704C29.6769 182.273 29.5097 181.817 29.397 181.346C29.5116 180.551 30.4433 180.352 31.0412 180.078L37.2047 177.243C37.2844 177.208 37.2894 177.089 37.2794 177.019C36.9257 174.811 37.7777 173.125 38.8589 171.289C39.402 170.384 39.985 169.474 40.1095 168.394C40.3337 166.464 38.9685 164.947 37.6182 163.724C35.5867 161.83 32.9236 160.756 30.1444 160.71C26.8658 160.645 24.0706 162.45 20.9017 162.634C18.1314 162.789 17.7378 164.659 16.0886 166.648C14.3048 168.802 12.6556 170.871 11.5195 173.458C10.4584 175.902 9.83442 178.513 9.67598 181.172C9.59891 182.47 9.69779 183.771 9.96995 185.042C9.85037 185.082 9.75072 185.152 9.76567 185.231C10.0895 186.693 10.6974 188.081 11.101 189.524C11.101 189.568 11.1757 189.583 11.2156 189.593H11.2555C11.3089 189.656 11.3801 189.701 11.4597 189.723C12.0228 189.847 12.5509 189.364 13.0043 189.096C14.02 188.425 15.073 187.812 16.1583 187.26C17.412 186.661 18.7609 186.284 20.1444 186.146C21.0761 186.062 22.0627 186.281 22.9545 185.927C23.8464 185.574 24.2799 184.589 25.1469 184.152C27.0552 183.192 27.7079 185.699 28.3257 186.957C28.8639 188.041 29.3987 189.124 29.9301 190.205C30.259 190.867 30.5828 191.523 30.9266 192.195C31.2007 192.742 32.3068 194.264 32.242 194.856C32.0926 196.199 28.834 197.089 27.8474 198.089C26.7263 199.223 26.5769 200.63 26.7712 202.148C27.5136 207.897 28.9785 213.588 29.9899 219.293C30.3387 221.282 30.5928 223.322 31.385 225.197C31.8833 226.336 32.4563 226.908 32.0527 228.181C31.7726 228.852 31.5509 229.546 31.39 230.255C31.1459 231.976 31.958 233.737 32.3517 235.359C33.0243 238.169 33.5126 241.039 33.9162 243.894C34.3547 247.008 34.6038 250.126 34.818 253.26C34.8978 254.429 34.8978 256.742 36.0338 257.493C36.6666 257.911 38.2012 257.861 38.9685 257.99C40.0896 258.164 41.2107 258.333 42.3417 258.463C45.0723 258.849 47.8332 258.977 50.5879 258.846C51.727 258.755 52.8558 258.564 53.9611 258.274C54.6997 258.025 55.4837 257.941 56.2584 258.027C57.033 258.113 57.7794 258.367 58.4454 258.771C61.1459 260.189 63.8465 261.611 66.5719 262.979C67.7279 263.561 68.8789 264.158 70.0597 264.685C70.9765 265.098 72.9447 265.451 73.1838 266.441C73.2835 266.834 72.5959 268.112 72.4564 268.505L71.7488 270.52C71.2755 271.848 70.8071 273.176 70.3737 274.499C66.9054 285.115 66.2784 296.453 68.555 307.386C72.5411 326.367 84.9975 343.144 99.5466 355.589C108.134 362.849 117.629 368.967 127.793 373.789C138.665 379.026 150.01 382.463 161.54 385.871L150.364 400.176L148.092 403.08C147.907 403.314 147.16 404.602 146.776 404.573C146.537 404.543 145.581 402.956 145.361 402.668C143.787 400.575 142.169 398.534 140.508 396.545C133.697 388.527 125.775 382.175 117.16 376.211C112.241 372.806 107.293 369.448 102.317 366.139C97.6981 363.07 93.0493 360.026 88.0319 357.623C82.85 355.136 77.5087 352.958 72.1624 350.849C67.1798 348.859 62.0777 347.113 56.7812 346.094C54.8779 345.731 52.1075 345.507 50.4583 346.795C48.8091 348.083 50.4982 349.014 50.8569 350.466C51.1359 351.6 50.9715 352.953 51.0562 354.127C51.1527 355.516 51.3542 356.896 51.6591 358.255C52.1967 360.565 53.0096 362.803 54.0806 364.92C56.3029 369.397 59.4768 373.252 62.5809 377.121C66.2979 381.747 70.1046 386.293 73.9412 390.815C81.4848 399.703 89.0732 408.567 97.2048 416.928C99.1214 418.898 101.071 420.839 103.054 422.752C104.091 423.747 105.142 424.742 106.193 425.712C107.135 426.592 109.048 427.975 109.517 429.194C109.915 430.233 108.889 431.81 108.52 432.735C107.977 434.103 107.439 435.471 106.896 436.844C105.76 439.714 104.609 442.559 104.006 445.598C103.564 447.908 103.396 450.262 103.508 452.611C103.577 454.541 103.084 457.043 103.861 458.878C105.077 461.758 110.07 459.505 112.013 458.878C121.48 455.745 129.89 449.428 137.205 442.832C140.995 439.5 144.551 435.912 147.848 432.094C150.992 428.343 154.265 423.638 159.771 423.976C162.417 424.125 165.028 425.125 167.653 425.518C170.255 425.905 172.881 426.101 175.511 426.105C181.4 426.105 187.32 425.374 193.164 424.732C204.7 423.542 216.098 421.267 227.205 417.938C238.059 414.55 248.634 410.328 258.834 405.309C277.649 396.162 295.372 384.607 309.706 369.258C316.79 361.798 322.599 353.228 326.901 343.89C329.228 338.712 333.598 334.34 337.14 329.928C337.893 328.983 339.054 326.76 340.384 326.695C341.525 326.641 343.279 327.795 344.37 328.153C346.856 328.949 349.404 329.535 351.988 329.904C356.722 330.62 361.849 331.212 366.438 329.476C368.002 328.879 370.145 328.008 370.922 326.402C371.849 324.537 371.919 321.622 372.103 319.593C373.194 308.67 371.366 297.593 367.958 287.232ZM22.2819 181.685C18.535 181.685 15.5255 183.634 12.4413 185.54C12.9396 182.132 13.1787 178.611 14.3247 175.353C14.9843 173.631 15.7877 171.967 16.7263 170.379C17.095 169.717 17.4039 168.887 17.967 168.345C18.53 167.802 19.3721 167.932 20.0347 168.345C19.8279 172.9 20.5939 177.447 22.2819 181.685ZM108.401 93.392C109.729 91.681 111.045 89.965 112.347 88.244C114.615 85.224 117.752 82.9679 121.34 81.7778C129.312 79.0919 138.535 79.2909 146.751 80.5344C163.194 83.0611 178.675 90.338 192.765 98.938C206.971 107.623 220.085 117.934 232.581 128.906C245.715 140.446 258.396 152.512 270.867 164.763C295.043 188.519 318.924 213.16 337.559 241.611C346.766 255.547 354.278 270.528 359.936 286.237C362.736 294.131 365.063 302.303 366.343 310.61C366.981 314.768 367.609 319.324 367.395 323.542C367.185 327.626 362.053 327.521 358.984 327.372C354.871 327.152 350.788 326.551 346.787 325.576C342.362 324.482 338.127 322.681 333.832 321.169C325.646 318.289 317.464 315.474 309.472 312.077C301.48 308.68 293.413 305.855 285.396 302.666C277.275 299.428 269.163 296.24 260.847 293.539C258.854 292.887 256.821 292.251 254.813 291.599C253.393 291.142 252.611 290.848 251.216 291.515C251.017 291.609 251.216 291.927 251.311 292.012C253.274 293.544 255.486 294.186 257.868 294.852C261.002 295.728 264.116 296.658 267.2 297.702C272.581 299.528 278.047 301.433 283.204 303.83C279.612 306.65 274.505 308.058 270.21 309.301C265.74 310.559 261.195 311.534 256.602 312.221C246.461 313.899 236.219 314.905 225.944 315.23C215.566 315.494 205.147 315.728 194.773 315.26C184.574 314.763 174.539 313.226 164.554 311.182C159.507 310.208 154.517 308.957 149.606 307.436C147.04 306.611 144.355 306.014 142.312 304.198C140.544 302.603 138.88 300.897 137.329 299.09C131.111 291.903 125.63 283.875 120.757 275.712C115.735 267.294 111.389 258.493 107.758 249.39C105.944 244.859 104.27 240.263 102.745 235.627C101.156 230.842 99.4569 225.973 98.3059 221.064C98.1963 220.601 97.6333 218.512 98.3059 219.009C98.8042 219.387 99.0633 220.467 99.3921 221.049C100.48 222.924 101.734 224.699 103.139 226.351C105.561 229.428 108.227 232.306 111.111 234.956C117.006 240.202 124.463 243.374 132.337 243.983C140.832 244.749 150.12 243.596 157.399 238.875C164.161 234.483 169.029 227.465 172.252 220.193C175.914 211.872 177.379 202.744 177.878 193.712C178.119 188.81 178.064 183.899 177.713 179.004C177.399 174.527 177.016 169.951 175.86 165.574C174.33 159.794 169.382 149.722 161.844 151.324C158.132 152.11 154.928 155.557 152.377 158.158C148.889 161.704 145.615 165.46 142.053 168.931C135.85 174.975 127.823 179.695 118.969 180.053C110.498 180.391 102.307 176.487 96.7065 170.26C94.8231 168.156 93.5027 166.161 93.428 163.231C93.3682 160.859 93.5725 158.451 93.6971 156.079C93.9811 150.856 94.4195 145.633 95.1918 140.466C96.6368 130.577 97.5087 120.42 99.8705 110.701C101.036 105.911 102.99 101.614 105.157 97.2021C106.428 96.1426 107.364 94.735 108.401 93.392ZM327.982 335.425C320.964 343.148 312.999 349.958 304.275 355.694C302.1 357.177 299.85 358.548 297.534 359.802C297.843 357.937 298.127 356.067 298.486 354.206C298.844 352.346 299.228 350.371 299.447 348.422C299.896 344.585 299.871 340.708 299.373 336.877C298.341 329.177 295.142 322.144 290.718 315.802C288.418 312.398 285.594 309.376 282.352 306.849C283.757 306.138 285.217 305.198 286.836 305.442C287.7 305.628 288.544 305.894 289.358 306.238C290.354 306.569 291.337 306.921 292.307 307.292C295.85 308.585 299.368 309.958 302.86 311.381C306.353 312.803 309.836 314.275 313.294 315.768C316.752 317.26 320.304 318.906 323.892 320.284C327.718 321.776 331.605 323.064 335.416 324.586C333.867 328.789 330.922 332.117 327.982 335.425ZM318.222 353.117C309.562 366.462 297.957 377.43 285.162 386.831C272.507 396.045 258.699 403.569 244.091 409.213C228.366 415.361 211.899 419.773 195.112 421.753C186.238 422.802 177.339 422.449 168.431 422.225C166.263 422.17 164.096 422.141 161.953 422.011C160.01 421.892 158.082 421.514 156.139 421.434C154.936 421.336 153.729 421.57 152.651 422.111C151.221 422.897 150.409 424.319 149.467 425.593C144.649 432.059 138.68 437.888 132.481 443.056C126.398 448.13 119.801 452.909 112.486 456.033C110.578 456.849 108.605 457.083 106.592 457.466C106.338 455.879 106.592 454.252 106.687 452.646C106.778 450.545 107.009 448.453 107.379 446.384C108.087 442.832 109.596 439.42 110.658 435.938C111.156 434.347 111.654 432.755 112.152 431.173C112.643 429.932 112.831 428.592 112.701 427.264C112.277 424.558 109.91 422.926 108.017 421.215C96.7962 411.093 86.004 400.444 76.1684 388.969C71.3403 383.339 66.7015 377.529 62.1773 371.645C59.8804 368.661 57.5386 365.676 55.8843 362.284C55.1662 360.824 54.5857 359.3 54.1504 357.733C53.6521 356.012 53.1539 353.878 53.2884 352.092C53.3681 351.162 53.8764 351.282 54.7832 351.401C55.5797 351.552 56.3667 351.75 57.1399 351.993C59.1031 352.49 61.0712 352.988 63.0244 353.555C66.8211 354.624 70.4982 355.957 74.1853 357.355C81.0413 359.956 87.8774 362.393 94.3498 365.88C101.151 369.546 107.608 373.938 114.101 378.121C120.324 382.135 126.647 386.079 132.128 391.053C134.709 393.421 137.135 395.943 139.492 398.514C140.593 399.728 141.674 400.952 142.75 402.185C143.747 403.334 146.024 405.438 145.561 407.045C145.282 407.995 144.793 408.845 145.062 409.865C145.282 410.775 145.76 411.412 146.742 411.357C147.243 411.341 147.732 411.195 148.16 410.933C148.588 410.672 148.94 410.304 149.183 409.865C150.234 408.209 151.39 406.617 152.501 405.005L159.113 395.401L162.412 390.596C162.91 389.904 163.378 389.218 163.837 388.512C164.484 387.517 164.679 386.627 166.054 386.89C173.553 388.333 181.046 389.745 188.685 390.253C204.052 391.301 219.491 390.493 234.664 387.845C262.626 382.926 290.743 372.585 313.304 355.052C314.689 353.978 316.049 352.868 317.385 351.739C318.316 350.948 319.333 349.66 320.529 349.193C319.741 350.546 319.019 351.854 318.222 353.117ZM134.659 368.77C132.461 367.775 130.673 366.079 129.048 364.328C127.586 362.745 126.303 361.005 125.222 359.141C122.834 355.081 121.519 350.482 121.4 345.775C121.438 343.034 121.726 340.302 122.262 337.613C122.707 335.106 123.27 332.619 123.951 330.152C124.632 327.685 125.433 325.236 126.353 322.806C127.125 320.545 128.09 318.355 129.238 316.26C131.362 312.721 134.418 309.831 138.072 307.904C139.038 307.382 140.065 306.824 141.191 306.77C141.836 306.742 142.473 306.916 143.015 307.267C143.442 307.604 143.901 307.899 144.385 308.147C146.727 309.078 149.178 309.799 151.58 310.55C161.467 313.679 171.626 315.881 181.923 317.125C187.26 317.752 192.621 318.041 197.987 318.279C203.468 318.523 208.949 318.777 214.405 318.896C215.686 318.91 216.966 318.857 218.241 318.737C219.338 318.648 220.439 318.508 221.291 319.344C222.143 320.18 222.656 321.413 223.179 322.433C223.747 323.542 224.26 324.679 224.714 325.84C226.577 330.55 227.429 335.524 227.972 340.533C228.56 345.93 228.879 351.406 228.969 356.833C229.086 362.291 228.638 367.746 227.633 373.112C227.224 375.617 226.556 378.072 225.64 380.439C225.526 380.713 225.406 380.986 225.292 381.255C225.127 381.648 225.092 381.752 224.659 381.827C223.991 381.926 223.279 381.916 222.601 381.966C221.276 382.06 219.945 382.16 218.615 382.22C215.875 382.354 213.134 382.309 210.389 382.319C207.559 382.319 204.734 382.319 201.918 382.264C191.634 381.999 181.383 381.002 171.241 379.28C161.154 377.651 151.245 375.066 141.649 371.56C139.291 370.702 136.961 369.771 134.659 368.77ZM120.458 361.986C112.262 357.419 104.39 352.227 97.2995 346.069C90.2093 339.911 83.8465 332.808 79.0583 324.716C76.7263 320.758 74.8079 316.571 73.3333 312.221C72.568 309.956 71.926 307.652 71.41 305.317C70.9118 302.98 70.3338 300.532 70.4135 298.125C70.578 295.623 71.1625 293.167 72.1425 290.858C73.0142 288.622 74.0483 286.453 75.2366 284.367C77.5293 280.388 80.3482 276.736 83.6173 273.509C84.4391 272.651 85.3073 271.839 86.2182 271.077C86.6197 270.746 87.0856 270.501 87.5865 270.359C88.0873 270.217 88.6122 270.18 89.128 270.251C91.8286 270.554 94.5192 271.052 97.2098 271.41C99.9004 271.768 102.616 272.101 105.331 272.29C107.823 272.469 110.369 272.42 112.885 272.37C114.155 272.345 115.426 272.325 116.702 272.32C121.864 281.283 127.718 289.831 134.21 297.886C136.004 300.128 137.831 302.34 139.691 304.521C132.307 307.058 125.865 311.699 121.918 318.523C118.475 324.76 116.644 331.756 116.592 338.877C116.639 341.397 116.854 343.911 117.235 346.402C117.613 349.342 117.872 352.257 118.52 355.156C119.016 357.617 119.893 359.985 121.121 362.175C120.893 362.139 120.671 362.075 120.458 361.986ZM70.5331 286.595C70.6149 284.965 70.7946 283.34 71.0712 281.731C71.6376 278.159 72.5162 274.644 73.697 271.226C74.2016 269.692 74.8558 268.211 75.6502 266.804L83.433 269.067C77.5137 274.648 73.3931 281.621 70.5929 289.207C70.4934 288.34 70.4734 287.466 70.5331 286.595ZM71.8883 256.364C64.8231 253.235 57.7976 250.047 50.822 246.704C47.7006 245.25 44.7328 243.487 41.963 241.442C39.2426 239.393 36.5719 237.04 35.3512 233.772C34.9227 232.623 34.3895 231.036 34.9924 229.848C35.6501 228.559 37.4438 227.962 38.6995 227.52C40.4393 226.981 42.2185 226.579 44.0208 226.316C45.9391 225.963 47.8624 225.61 49.7907 225.281C53.5625 224.635 57.3492 224.068 61.1509 223.625C64.9526 223.182 68.9088 222.859 72.7254 222.108C76.7552 221.239 80.6698 219.903 84.3896 218.129C86.225 217.332 88.0178 216.44 89.7608 215.458C91.425 214.463 92.9846 213.329 94.5939 212.265C96.3129 219.81 98.3009 227.296 100.653 234.647C103.087 242.317 105.953 249.843 109.238 257.189C111.041 261.208 112.985 265.161 115.067 269.047C109.362 269.221 103.657 267.893 98.1814 266.416C92.3715 264.784 86.6771 262.766 81.136 260.378C78.0368 259.079 74.9626 257.722 71.8883 256.364ZM42.5809 246.485C45.4259 249.171 48.4503 251.668 51.41 254.23C49.9152 255.11 47.9222 255.269 46.248 255.409C43.2282 255.621 40.1956 255.569 37.1847 255.254C36.7662 252.22 36.3826 249.186 35.9042 246.167C35.4907 243.581 35.0223 241.004 34.5739 238.423C37.2296 241.123 39.8255 243.884 42.5809 246.485ZM33.7767 210.419C32.6396 211.066 31.6556 211.95 30.8918 213.011C30.1842 209.186 29.4269 205.371 28.8688 201.521C28.8091 200.486 29.676 199.586 30.4932 199.079C31.381 198.582 32.2959 198.135 33.2336 197.741L37.4937 209.3C36.1946 209.433 34.9329 209.813 33.7767 210.419ZM48.5649 193.458C53.1838 192.423 57.8275 191.468 62.5161 190.901C64.7533 190.628 67.0005 190.404 69.2725 190.364C70.41 190.3 71.5408 190.576 72.5211 191.155C73.1988 191.543 73.9761 191.508 74.7334 191.578C75.2317 196.005 72.9745 200.073 72.267 204.361C71.7091 204.313 71.1474 204.389 70.6228 204.585C69.883 204.923 69.1075 205.176 68.3109 205.341C66.7983 205.606 65.2609 205.703 63.7269 205.629C62.2859 205.561 60.8422 205.569 59.402 205.654C57.923 205.783 56.4598 206.053 55.0323 206.46C53.6592 206.851 52.3113 207.326 50.9964 207.883C49.6113 208.46 48.2959 209.166 46.9207 209.748C45.4837 210.444 43.8333 210.562 42.3118 210.076C41.9395 209.966 41.5983 209.77 41.3153 209.504C41.0879 209.179 40.9037 208.827 40.7672 208.455C40.4135 207.728 40.0647 207.007 39.7159 206.281C38.2211 203.157 36.7612 200.019 35.2864 196.885C39.7209 195.726 44.1105 194.463 48.5649 193.458ZM66.0986 221.198C59.7558 222.809 53.1888 222.77 46.7064 223.322C45.4708 220.006 44.2318 216.671 42.9894 213.319C44.7369 213.215 46.453 212.809 48.0617 212.12C49.97 211.359 51.8435 210.544 53.7917 209.882C55.7398 209.221 57.7129 208.489 59.706 207.987C60.7573 207.718 61.9431 208.022 63.0044 208.151C63.9512 208.288 64.9085 208.338 65.8644 208.3C67.7977 208.176 69.6113 207.355 71.43 206.734C70.2042 211.747 68.6397 216.686 66.0986 221.198ZM32.8549 224.321C32.1972 221.466 31.7288 218.567 31.1907 215.687C32.4164 214.99 33.5425 214.1 34.8429 213.538C35.5645 213.211 36.3533 213.059 37.1449 213.095C37.9118 213.091 38.6627 213.314 39.3023 213.737C39.6103 214.116 39.8482 214.548 40.0049 215.01L40.5878 216.224C40.9765 217.02 41.3552 217.82 41.7338 218.626C42.4862 220.218 43.2286 221.815 43.976 223.406C41.6641 223.744 39.387 224.013 37.1499 224.734C36.18 225.13 35.1804 225.45 34.1603 225.689C33.2186 225.809 33.0393 225.082 32.8549 224.321ZM230.195 378.733C230.757 377.851 231.256 376.93 231.689 375.977C232.463 373.98 233.02 371.905 233.354 369.79C234.26 365.253 235.406 360.792 235.795 356.166C236.192 351.523 236.052 346.85 235.376 342.239C234.749 337.986 233.991 333.684 232.018 329.804C230.945 327.776 229.735 325.823 228.396 323.96C227.758 323.044 227.115 322.134 226.478 321.214C226.099 320.672 225.71 320.135 225.332 319.593C225.102 319.275 224.933 318.917 224.833 318.538C239.283 317.812 253.732 315.728 267.683 311.793C271.606 310.689 275.483 309.441 279.313 308.048C282.761 310.237 284.415 313.912 286.064 317.499C287.924 321.521 289.585 325.629 291.047 329.824C292.511 334.027 293.752 338.303 294.764 342.637C295.835 347.243 295.521 351.918 294.833 356.564C294.614 358.056 294.495 359.678 293.961 361.09C293.584 361.929 292.918 362.605 292.083 362.995C288.607 364.919 285.029 366.654 281.366 368.193C273.44 371.641 265.249 374.444 256.871 376.574C252.729 377.639 248.554 378.554 244.345 379.32C242.229 379.708 240.11 380.061 237.987 380.379C235.81 380.703 233.618 381.066 231.425 381.235C230.927 381.275 230.429 381.299 229.901 381.319C229.632 381.319 229.353 381.319 229.078 381.359C228.968 381.383 228.855 381.383 228.745 381.359C229.238 380.494 229.696 379.593 230.195 378.733ZM156.642 161.222C157.868 160.267 158.819 158.998 160.13 158.133C161.474 157.197 163.118 156.795 164.744 157.004C166.104 157.258 166.642 158.382 166.592 159.675C166.519 161.164 166.271 162.64 165.855 164.072C165.055 166.875 163.631 169.461 161.689 171.637C160.832 172.602 159.726 173.985 158.356 174.164C156.861 174.358 156.278 172.592 155.939 171.478C155.44 169.56 155.048 167.615 154.763 165.654C154.415 163.913 155.287 162.281 156.642 161.222ZM266.757 154.159C269.437 154.348 272.118 154.482 274.794 154.771L282.925 155.636C288.271 156.213 293.628 156.84 298.904 157.894C304.036 158.931 309.089 160.324 314.026 162.062C319.113 163.853 324.066 166.017 329.079 168.031C333.996 169.986 338.999 171.796 343.822 174C348.186 175.917 352.248 178.457 355.88 181.54C359.338 184.555 362.327 188.206 363.852 192.583C364.535 194.542 365.018 196.696 363.992 198.631C362.965 200.566 360.927 201.247 358.879 201.735C353.693 202.973 348.296 203.108 343.01 203.615C338.526 204.048 333.957 204.669 330.24 207.47C329.415 208.095 328.655 208.802 327.973 209.579C326.543 211.235 325.546 213.195 324.385 215.05C317.195 206.768 310.02 198.482 302.522 190.469C298.77 186.46 294.843 182.61 291.101 178.586C287.474 174.681 283.563 171.075 279.796 167.305C275.461 162.963 271.062 158.7 266.667 154.427L266.757 154.159ZM26.9057 163.913C28.2511 163.694 29.6277 163.766 30.9428 164.124C32.2579 164.482 33.4808 165.117 34.529 165.987C35.5219 166.836 36.3437 167.865 36.9506 169.021L37.0153 169.145C37.001 169.157 36.9906 169.172 36.9855 169.19C36.542 170.493 36.1035 171.801 35.6651 173.105C34.0756 168.101 28.824 166.285 24.1653 164.704C25.0474 164.342 25.9663 164.077 26.9057 163.913ZM26.0537 179.79C23.6371 176.348 23.1688 172.155 22.6805 168.076C27.0701 169.285 30.3786 172.344 33.7966 175.184L26.0537 179.79Z" fill="#00829B"/>
<path d="M218.824 98.7389C219.796 102.743 221.779 106.432 224.584 109.453C224.827 109.709 225.119 109.913 225.443 110.055C225.766 110.197 226.115 110.273 226.468 110.279C226.752 110.228 227.018 110.106 227.243 109.925C227.468 109.745 227.643 109.51 227.753 109.244C228.039 108.559 228.183 107.823 228.177 107.08C228.247 106.19 228.286 105.295 228.321 104.399C228.413 103.375 228.389 102.344 228.252 101.325C228.092 100.42 227.893 99.5149 227.644 98.6295C227.113 96.7349 226.385 94.9011 225.471 93.1582C225.023 92.2927 224.525 91.4471 223.976 90.6264C223.496 89.761 222.906 88.9604 222.223 88.2439C221.965 88.0048 221.662 87.8191 221.332 87.6974C221.002 87.5756 220.651 87.5204 220.3 87.5347C219.948 87.549 219.603 87.6327 219.284 87.7809C218.965 87.9291 218.678 88.1388 218.441 88.3981C217.35 89.6167 217.718 91.5765 217.888 93.0438C218.07 94.9612 218.383 96.864 218.824 98.7389Z" fill="#00829B"/>
<path d="M250.175 246.152C249.935 246.809 250.394 247.386 250.897 247.749C251.648 248.255 252.544 248.501 253.448 248.45C256.32 248.494 259.17 247.953 261.824 246.858C264.521 245.688 267.003 244.076 269.168 242.088C271.365 240.233 273.17 237.961 274.48 235.403C275.86 232.568 276.637 229.246 276.189 226.097C275.86 223.789 273.697 222.506 271.46 222.615C270.942 222.637 270.434 222.762 269.965 222.982C269.497 223.203 269.077 223.514 268.73 223.899C267.673 225.087 267.564 226.684 267.235 228.171C266.749 230.618 265.892 232.976 264.694 235.165C263.38 237.525 261.592 239.589 259.442 241.228C258.322 242.077 257.12 242.814 255.855 243.426C254.391 244.071 252.894 244.639 251.37 245.127C251.113 245.211 250.875 245.345 250.67 245.52C250.465 245.696 250.296 245.911 250.175 246.152Z" fill="#00829B"/>
<path d="M269.876 261.487C269.098 261.885 268.69 262.686 268.132 263.322V263.347L268.595 264.223C268.635 264.297 268.77 264.287 268.839 264.282C270.271 264.274 271.7 264.161 273.114 263.944C274.417 263.679 275.687 263.279 276.906 262.75C279.397 261.666 281.39 259.965 283.448 258.184C285.715 256.252 287.855 254.177 289.856 251.972C291.592 249.977 292.903 247.65 293.707 245.132C294.093 243.935 294.386 242.709 294.584 241.467C294.828 240.339 294.681 239.162 294.166 238.129C293.72 237.292 293.004 236.629 292.135 236.246C291.266 235.864 290.293 235.784 289.373 236.02C288.471 236.277 287.674 236.811 287.095 237.547C286.179 238.686 285.9 240.109 285.491 241.477C284.633 244.193 283.422 246.785 281.889 249.186C278.859 254.115 275.342 259.035 269.876 261.487Z" fill="#00829B"/>
<path d="M192.327 149.812H192.372C194.524 150.513 195.86 148.817 197.046 147.3C198.46 145.517 199.715 143.615 200.798 141.615C201.867 139.626 202.747 137.541 203.423 135.387C203.991 133.577 204.42 131.612 204.076 129.722C203.732 127.832 203.329 125.837 201.759 124.643C201.118 124.132 200.317 123.863 199.497 123.883C198.677 123.903 197.89 124.211 197.275 124.753C196.59 125.51 196.033 126.374 195.626 127.309C195.018 128.458 194.425 129.612 193.857 130.791C192.768 132.989 191.807 135.248 190.977 137.556C190.489 138.883 190.075 140.237 189.736 141.61C189.459 142.985 189.33 144.385 189.353 145.788C189.373 146.682 189.67 147.549 190.202 148.269C190.735 148.99 191.477 149.528 192.327 149.812Z" fill="#00829B"/>
<path d="M233.568 228.097H233.598C236.248 228.897 238.974 227.057 241.121 225.684C243.228 224.34 245.165 222.749 246.891 220.944C248.59 219.157 250.073 217.177 251.311 215.045C252.676 212.848 253.726 210.47 254.43 207.982C254.589 207.32 254.714 206.649 254.843 205.992C254.955 205.66 255.028 205.316 255.063 204.968C255.005 204.678 254.923 204.393 254.818 204.117C254.599 203.051 254.077 202.069 253.316 201.289C252.555 200.509 251.586 199.963 250.523 199.715C249.968 199.667 249.41 199.773 248.912 200.021C248.413 200.269 247.993 200.651 247.698 201.123C246.821 202.346 246.702 203.948 246.278 205.356C245.86 206.772 245.361 208.164 244.783 209.524C243.65 212.219 242.295 214.816 240.733 217.288C239.214 219.794 237.191 221.958 234.793 223.645C234.19 224.044 233.562 224.406 232.915 224.729C232.621 224.864 232.363 225.064 232.159 225.314C231.955 225.564 231.811 225.857 231.739 226.172C231.61 227.097 232.85 227.818 233.568 228.097Z" fill="#00829B"/>
<path d="M110.145 115.81C111.132 113.108 111.712 110.275 111.864 107.404C111.899 105.752 111.724 103.922 110.668 102.589C110.668 102.494 110.219 102.171 110.17 102.206C109.852 102.589 109.574 103.004 109.342 103.444C109.221 103.932 109.166 104.434 109.178 104.937C109.098 106.13 109.029 107.319 109.009 108.513C108.937 110.833 109.15 113.153 109.641 115.422C109.781 115.584 109.952 115.716 110.145 115.81Z" fill="#00829B"/>
<g clip-path="url(#clip1_69_9856)">
<path d="M343.878 86.7172C331.102 117.38 298.95 133.184 272.065 122.012" stroke="#0E8499" stroke-linecap="round"/>
<path fill-rule="evenodd" clip-rule="evenodd" d="M343.279 88.1543L329.567 95.4114C329.157 95.6236 328.72 95.6546 328.343 95.4981C327.966 95.3417 327.68 95.0095 327.542 94.5701C327.475 94.3569 327.449 94.1225 327.465 93.8814C327.481 93.6403 327.538 93.3974 327.634 93.1675C327.73 92.9377 327.862 92.7257 328.022 92.5445C328.182 92.3633 328.367 92.2167 328.566 92.1137L343.759 84.0773C344.172 83.8486 344.619 83.8061 345.006 83.9587C345.392 84.1113 345.686 84.4471 345.827 84.8944L350.838 101.369C350.904 101.582 350.93 101.816 350.914 102.057C350.898 102.297 350.841 102.54 350.745 102.769C350.649 102.998 350.518 103.21 350.358 103.391C350.198 103.572 350.014 103.719 349.816 103.822C349.407 104.034 348.969 104.065 348.592 103.908C348.216 103.752 347.929 103.42 347.791 102.98L343.279 88.1543Z" fill="#0E8499"/>
</g>
</g>
<g filter="url(#filter0_d_69_9856)">
<path d="M343 34C343 30.6863 345.686 28 349 28H468C471.314 28 474 30.6863 474 34V62C474 65.3137 471.314 68 468 68H349C345.686 68 343 65.3137 343 62V34Z" fill="white" shape-rendering="crispEdges"/>
<path d="M356.104 57.232L356.424 50.192H358.024L358.344 57.232H356.104ZM357.224 48.768C356.84 48.768 356.525 48.64 356.28 48.384C356.035 48.128 355.912 47.8133 355.912 47.44C355.912 47.056 356.035 46.7413 356.28 46.496C356.525 46.24 356.84 46.112 357.224 46.112C357.608 46.112 357.923 46.24 358.168 46.496C358.413 46.7413 358.536 47.056 358.536 47.44C358.536 47.8133 358.413 48.128 358.168 48.384C357.923 48.64 357.608 48.768 357.224 48.768ZM360.605 54V42.752H362.781V54H360.605ZM367.661 54V42.752H369.837V54H367.661ZM361.981 49.152V47.232H368.269V49.152H361.981ZM375.544 54.16C374.766 54.16 374.062 53.984 373.432 53.632C372.814 53.2693 372.318 52.784 371.944 52.176C371.582 51.5573 371.4 50.8693 371.4 50.112C371.4 49.3547 371.582 48.6773 371.944 48.08C372.307 47.472 372.803 46.992 373.432 46.64C374.062 46.2773 374.76 46.096 375.528 46.096C376.318 46.096 377.022 46.2773 377.64 46.64C378.27 46.992 378.766 47.472 379.128 48.08C379.491 48.6773 379.672 49.3547 379.672 50.112C379.672 50.8693 379.491 51.5573 379.128 52.176C378.766 52.784 378.27 53.2693 377.64 53.632C377.022 53.984 376.323 54.16 375.544 54.16ZM375.528 52.208C375.923 52.208 376.27 52.1227 376.568 51.952C376.878 51.7707 377.112 51.5253 377.272 51.216C377.443 50.896 377.528 50.5333 377.528 50.128C377.528 49.7227 377.443 49.3653 377.272 49.056C377.102 48.7467 376.867 48.5067 376.568 48.336C376.27 48.1547 375.923 48.064 375.528 48.064C375.144 48.064 374.803 48.1547 374.504 48.336C374.206 48.5067 373.971 48.7467 373.8 49.056C373.63 49.3653 373.544 49.7227 373.544 50.128C373.544 50.5333 373.63 50.896 373.8 51.216C373.971 51.5253 374.206 51.7707 374.504 51.952C374.803 52.1227 375.144 52.208 375.528 52.208ZM381.022 54V42.432H383.118V54H381.022ZM388.207 54.16C387.503 54.16 386.868 53.984 386.303 53.632C385.738 53.28 385.295 52.8 384.975 52.192C384.655 51.584 384.495 50.9013 384.495 50.144C384.495 49.376 384.655 48.688 384.975 48.08C385.295 47.472 385.738 46.992 386.303 46.64C386.868 46.288 387.503 46.112 388.207 46.112C388.762 46.112 389.258 46.224 389.695 46.448C390.132 46.672 390.479 46.9867 390.735 47.392C391.002 47.7867 391.146 48.2347 391.167 48.736V51.52C391.146 52.032 391.002 52.4853 390.735 52.88C390.479 53.2747 390.132 53.5893 389.695 53.824C389.258 54.048 388.762 54.16 388.207 54.16ZM388.591 52.224C389.178 52.224 389.652 52.032 390.015 51.648C390.378 51.2533 390.559 50.7467 390.559 50.128C390.559 49.7227 390.474 49.3653 390.303 49.056C390.143 48.736 389.914 48.4907 389.615 48.32C389.327 48.1387 388.986 48.048 388.591 48.048C388.207 48.048 387.866 48.1387 387.567 48.32C387.279 48.4907 387.05 48.736 386.879 49.056C386.719 49.3653 386.639 49.7227 386.639 50.128C386.639 50.544 386.719 50.912 386.879 51.232C387.05 51.5413 387.279 51.7867 387.567 51.968C387.866 52.1387 388.207 52.224 388.591 52.224ZM390.447 54V51.92L390.783 50.032L390.447 48.176V46.272H392.527V54H390.447ZM394.365 55.904L395.501 53.792L396.157 53.616C396.082 53.7547 395.997 53.872 395.901 53.968C395.805 54.064 395.693 54.112 395.565 54.112C395.298 54.112 395.048 53.9947 394.813 53.76C394.578 53.5253 394.461 53.232 394.461 52.88C394.461 52.496 394.589 52.1707 394.845 51.904C395.101 51.6373 395.421 51.504 395.805 51.504C396.157 51.504 396.466 51.6373 396.733 51.904C397 52.1707 397.133 52.496 397.133 52.88C397.133 53.0293 397.101 53.2107 397.037 53.424C396.973 53.6267 396.856 53.888 396.685 54.208L395.453 56.48L394.365 55.904ZM404.647 54.176C404.209 54.176 403.777 54.1173 403.351 54C402.935 53.8827 402.551 53.7227 402.199 53.52C401.847 53.3067 401.543 53.0507 401.287 52.752L402.535 51.488C402.801 51.7867 403.111 52.0107 403.463 52.16C403.815 52.3093 404.204 52.384 404.631 52.384C404.972 52.384 405.228 52.336 405.399 52.24C405.58 52.144 405.671 52 405.671 51.808C405.671 51.5947 405.575 51.4293 405.383 51.312C405.201 51.1947 404.961 51.0987 404.663 51.024C404.364 50.9387 404.049 50.848 403.719 50.752C403.399 50.6453 403.089 50.512 402.791 50.352C402.492 50.1813 402.247 49.952 402.055 49.664C401.873 49.3653 401.783 48.9813 401.783 48.512C401.783 48.0213 401.9 47.5947 402.135 47.232C402.38 46.8693 402.727 46.5867 403.174 46.384C403.623 46.1813 404.151 46.08 404.759 46.08C405.399 46.08 405.975 46.192 406.487 46.416C407.009 46.64 407.441 46.976 407.783 47.424L406.519 48.688C406.284 48.4 406.017 48.192 405.719 48.064C405.431 47.936 405.116 47.872 404.775 47.872C404.465 47.872 404.225 47.92 404.055 48.016C403.895 48.112 403.815 48.2453 403.815 48.416C403.815 48.608 403.905 48.7573 404.087 48.864C404.279 48.9707 404.524 49.0667 404.823 49.152C405.121 49.2267 405.431 49.3173 405.751 49.424C406.081 49.52 406.391 49.6587 406.679 49.84C406.977 50.0213 407.217 50.2613 407.399 50.56C407.591 50.8587 407.687 51.2427 407.687 51.712C407.687 52.4693 407.415 53.072 406.871 53.52C406.327 53.9573 405.585 54.176 404.647 54.176ZM412.732 54.16C411.953 54.16 411.249 53.984 410.62 53.632C410.001 53.2693 409.505 52.784 409.132 52.176C408.769 51.5573 408.588 50.8693 408.588 50.112C408.588 49.3547 408.769 48.6773 409.132 48.08C409.495 47.472 409.991 46.992 410.62 46.64C411.249 46.2773 411.948 46.096 412.716 46.096C413.505 46.096 414.209 46.2773 414.828 46.64C415.457 46.992 415.953 47.472 416.316 48.08C416.679 48.6773 416.86 49.3547 416.86 50.112C416.86 50.8693 416.679 51.5573 416.316 52.176C415.953 52.784 415.457 53.2693 414.828 53.632C414.209 53.984 413.511 54.16 412.732 54.16ZM412.716 52.208C413.111 52.208 413.457 52.1227 413.756 51.952C414.065 51.7707 414.3 51.5253 414.46 51.216C414.631 50.896 414.716 50.5333 414.716 50.128C414.716 49.7227 414.631 49.3653 414.46 49.056C414.289 48.7467 414.055 48.5067 413.756 48.336C413.457 48.1547 413.111 48.064 412.716 48.064C412.332 48.064 411.991 48.1547 411.692 48.336C411.393 48.5067 411.159 48.7467 410.988 49.056C410.817 49.3653 410.732 49.7227 410.732 50.128C410.732 50.5333 410.817 50.896 410.988 51.216C411.159 51.5253 411.393 51.7707 411.692 51.952C411.991 52.1227 412.332 52.208 412.716 52.208ZM420.407 54.064L417.175 46.272H419.447L421.591 52.224H420.823L423.047 46.272H425.335L421.895 54.048L420.407 54.064ZM418.263 57.232L420.615 52.256L421.895 54.048L420.487 57.232H418.263ZM432.28 54V42.992H434.472V54H432.28ZM428.696 44.688V42.752H438.056V44.688H428.696ZM439.334 54V46.272H441.446V54H439.334ZM440.39 45.024C440.049 45.024 439.766 44.912 439.542 44.688C439.318 44.4533 439.206 44.1653 439.206 43.824C439.206 43.4933 439.318 43.2107 439.542 42.976C439.766 42.7413 440.049 42.624 440.39 42.624C440.742 42.624 441.025 42.7413 441.238 42.976C441.462 43.2107 441.574 43.4933 441.574 43.824C441.574 44.1653 441.462 44.4533 441.238 44.688C441.025 44.912 440.742 45.024 440.39 45.024ZM444.439 54V43.056H446.535V54H444.439ZM442.631 48.112V46.272H448.343V48.112H442.631ZM452.966 54.16C452.188 54.16 451.484 53.984 450.854 53.632C450.236 53.2693 449.74 52.784 449.366 52.176C449.004 51.5573 448.822 50.8693 448.822 50.112C448.822 49.3547 449.004 48.6773 449.366 48.08C449.729 47.472 450.225 46.992 450.854 46.64C451.484 46.2773 452.182 46.096 452.95 46.096C453.74 46.096 454.444 46.2773 455.062 46.64C455.692 46.992 456.188 47.472 456.55 48.08C456.913 48.6773 457.094 49.3547 457.094 50.112C457.094 50.8693 456.913 51.5573 456.55 52.176C456.188 52.784 455.692 53.2693 455.062 53.632C454.444 53.984 453.745 54.16 452.966 54.16ZM452.95 52.208C453.345 52.208 453.692 52.1227 453.99 51.952C454.3 51.7707 454.534 51.5253 454.694 51.216C454.865 50.896 454.95 50.5333 454.95 50.128C454.95 49.7227 454.865 49.3653 454.694 49.056C454.524 48.7467 454.289 48.5067 453.99 48.336C453.692 48.1547 453.345 48.064 452.95 48.064C452.566 48.064 452.225 48.1547 451.926 48.336C451.628 48.5067 451.393 48.7467 451.222 49.056C451.052 49.3653 450.966 49.7227 450.966 50.128C450.966 50.5333 451.052 50.896 451.222 51.216C451.393 51.5253 451.628 51.7707 451.926 51.952C452.225 52.1227 452.566 52.208 452.95 52.208ZM458.86 50.08L458.54 42.432H460.78L460.46 50.08H458.86ZM459.66 54.16C459.276 54.16 458.961 54.032 458.716 53.776C458.47 53.52 458.348 53.2053 458.348 52.832C458.348 52.4587 458.47 52.144 458.716 51.888C458.961 51.632 459.276 51.504 459.66 51.504C460.044 51.504 460.358 51.632 460.604 51.888C460.849 52.144 460.972 52.4587 460.972 52.832C460.972 53.2053 460.849 53.52 460.604 53.776C460.358 54.032 460.044 54.16 459.66 54.16Z" fill="black"/>
</g>
<defs>
<filter id="filter0_d_69_9856" x="311" y="0" width="195" height="104" filterUnits="userSpaceOnUse" color-interpolation-filters="sRGB">
<feFlood flood-opacity="0" result="BackgroundImageFix"/>
<feColorMatrix in="SourceAlpha" type="matrix" values="0 0 0 0 0 0 0 0 0 0 0 0 0 0 0 0 0 0 127 0" result="hardAlpha"/>
<feOffset dy="4"/>
<feGaussianBlur stdDeviation="16"/>
<feComposite in2="hardAlpha" operator="out"/>
<feColorMatrix type="matrix" values="0 0 0 0 0.172549 0 0 0 0 0.172549 0 0 0 0 0.172549 0 0 0 0.12 0"/>
<feBlend mode="normal" in2="BackgroundImageFix" result="effect1_dropShadow_69_9856"/>
<feBlend mode="normal" in="SourceGraphic" in2="effect1_dropShadow_69_9856" result="shape"/>
</filter>
<clipPath id="clip0_69_9856">
<rect width="382.148" height="402" fill="white" transform="translate(0 68)"/>
</clipPath>
<clipPath id="clip1_69_9856">
<rect width="71.3205" height="70.2364" fill="white" transform="matrix(0.923443 0.383735 -0.384597 0.923085 295.026 58.8405)"/>
</clipPath>
</defs>
</svg>
