<svg width="128" height="52" viewBox="0 0 128 52" fill="none" xmlns="http://www.w3.org/2000/svg">
<path d="M47.5386 17.7012C47.9302 17.9923 48.404 18.1517 48.8919 18.1566C49.0412 18.1567 49.1901 18.1405 49.336 18.1082L49.7978 18.008L49.4312 17.7077C49.3553 17.6463 49.2827 17.593 49.2132 17.5462C49.1054 17.4758 49.0076 17.391 48.9226 17.2943C48.8547 17.2022 48.7772 17.1102 48.7029 17.0197C48.4946 16.7662 48.2798 16.5062 48.2491 16.2656C48.0877 14.922 48.5495 13.6818 49.6234 12.5611C49.7407 12.4484 49.8809 12.3624 50.0345 12.3089C50.188 12.2554 50.3513 12.2356 50.5132 12.251C50.6426 12.2531 50.77 12.283 50.8867 12.3388C51.0035 12.3945 51.1069 12.4747 51.1898 12.574C51.4611 12.9535 51.6743 13.2199 51.9763 13.2555C52.2492 13.2845 52.4979 13.1117 52.858 12.7839C53.2232 12.4531 53.4968 12.0337 53.6525 11.5663C54.2856 9.52508 55.3756 8.37044 57.0842 7.93281C57.4202 7.83008 57.7141 7.62166 57.9223 7.33853C59.9393 4.61746 62.1468 4.03772 65.299 5.37484C67.0754 6.13545 68.1089 7.38537 68.4416 9.19403C68.4723 9.35552 68.49 9.52831 68.5143 9.74793C68.5272 9.87067 68.5417 10.0079 68.5611 10.1678L68.6144 10.6038L68.9374 10.3115C69.2006 10.0758 69.4622 9.85452 69.7254 9.63166C70.2893 9.18469 70.8134 8.68977 71.2919 8.15243C71.6047 7.75259 71.8722 7.31931 72.0896 6.86053C72.2568 6.51857 72.4461 6.18789 72.6564 5.87061C73.6383 4.47051 74.9673 3.77127 76.629 3.79872C77.4591 3.80679 77.8709 3.16892 78.2052 2.65377L78.2633 2.56334C78.6331 1.99813 78.3699 1.59441 78.1357 1.22783L78.0857 1.15032C78.0126 0.982446 77.9778 0.800397 77.9839 0.617408C77.9847 0.606657 77.9847 0.595861 77.9839 0.58511C79.4373 0.811193 80.4418 1.441 81.1313 2.55849L81.2928 2.82333L81.5011 2.58433C81.7514 2.29365 81.8645 2.0272 81.8451 1.77689C81.8371 1.68636 81.8136 1.59788 81.7757 1.51528L85.9743 3.9053L86.4281 3.67599L86.3797 3.49674C86.3479 3.36418 86.3236 3.22993 86.307 3.09463C86.2537 2.73936 86.1988 2.37278 85.9534 2.14993C84.9887 1.24746 83.7215 0.738277 82.4006 0.722375C82.1632 0.722375 81.9759 0.908086 81.8386 1.04535C81.8106 1.07441 81.7809 1.1019 81.7498 1.12771L81.5883 1.24237C81.5463 1.19876 81.5011 1.15516 81.4495 1.10995C80.9533 0.663897 80.3609 0.338534 79.7182 0.159254C79.0756 -0.0200266 78.4003 -0.0483744 77.7449 0.0764231L77.4575 0.000523759L77.493 0.245985C77.2863 0.489832 77.1038 0.52213 76.7082 0.392939C76.1672 0.220147 75.3614 0.120025 74.7202 0.365486C73.7594 0.733679 72.9972 1.4959 72.5176 2.55365C72.2915 3.05265 72.0492 3.56456 71.8345 4.01673L71.6116 4.48504C71.6033 4.47711 71.5958 4.46846 71.589 4.45921C71.2579 3.49028 70.4925 3.00581 69.6689 2.53588C68.0395 1.6154 66.1872 0.959762 63.8408 0.451075C59.7891 -0.427419 56.3074 0.843491 53.1923 4.33647C51.7744 5.92552 51.1656 7.88921 50.9056 9.26347C50.6408 9.41204 50.3808 9.54446 50.1499 9.66235C49.5911 9.94656 49.0647 10.2163 48.6464 10.6038C47.13 12.0072 46.4695 13.9111 46.6811 16.2559C46.7137 16.5438 46.8069 16.8214 46.9547 17.0706C47.1026 17.3197 47.3016 17.5347 47.5386 17.7012Z" fill="#0E8499"/>
<path d="M127.661 50.8691C127.575 50.777 127.499 50.6979 127.446 50.6268C127.348 50.51 127.24 50.4019 127.123 50.3039C126.992 50.1989 126.863 50.0875 126.737 49.9809C126.151 49.4738 125.544 48.949 124.594 48.907C123.693 48.8646 122.801 48.7111 121.938 48.45C121.155 48.2142 120.375 47.8945 119.619 47.586L119.593 47.5763C119.27 47.4407 118.921 47.3018 118.584 47.171C118.199 47.0224 117.815 46.8771 117.431 46.7317H117.413C115.404 45.976 113.327 45.1928 111.533 43.9186C111.459 43.8699 111.373 43.8431 111.284 43.8411C109.75 42.307 108.143 41.204 106.37 40.4676C102.115 38.7026 98.0989 36.5548 93.3786 33.8725C90.5687 32.277 87.6522 30.7622 84.831 29.2975C83.5569 28.637 82.2472 27.9539 80.9456 27.2676C80.3659 26.9608 79.7894 26.6491 79.179 26.3197L78.9367 26.1873C81.6255 25.8158 83.7458 24.4561 85.5868 21.9272C86.3054 22.6394 86.5105 22.6975 87.2178 22.037L87.4068 21.861L85.561 20.3075L85.4221 20.5368C84.2798 22.4292 82.5308 23.8794 80.4596 24.6515C79.9852 24.8225 79.4995 24.9606 79.0062 25.0649C78.7365 25.1295 78.4587 25.1957 78.1842 25.2716C78.0851 25.3024 77.9884 25.3407 77.8951 25.3863C77.6868 25.4832 77.5609 25.5478 77.3299 25.4153C75.3792 24.3495 73.4009 23.316 71.4905 22.2986L71.4243 22.2647C70.6298 21.8448 69.8353 21.425 69.0408 21.0051C68.8341 20.8953 68.6273 20.7677 68.4271 20.645L68.1396 20.469L67.4937 20.083L67.8167 20.7629C67.9787 21.0919 68.2426 21.3598 68.5692 21.5267L70.176 22.4262C72.5257 23.7423 74.9528 25.1037 77.3687 26.4327C80.0349 27.9023 82.6477 29.3395 85.2929 30.7218C86.1423 31.1675 87.0192 31.5842 87.8767 31.9927C88.8456 32.4562 89.8517 32.9342 90.8109 33.4461C92.3515 34.2794 93.9034 35.1563 95.4101 36.0089C96.8474 36.8164 98.3331 37.661 99.8091 38.462C101.141 39.1849 102.517 39.8246 103.929 40.3772L104.311 40.5274C106.178 41.2573 108.108 42.0098 109.661 43.3825C109.95 43.6213 110.259 43.8327 110.587 44.0139C110.722 44.0946 110.863 44.1754 110.99 44.2594C111.058 44.3143 111.123 44.374 111.194 44.4402C111.354 44.6004 111.537 44.7364 111.737 44.844L112.58 45.2525L112.668 45.2961C114.149 46.0147 115.68 46.7576 117.216 47.4294L118.185 47.8638C120.242 48.7859 122.371 49.7403 124.756 49.9147C125.052 49.9224 125.343 49.9969 125.607 50.1325C125.871 50.268 126.101 50.4613 126.28 50.6979C126.036 50.7108 125.796 50.7302 125.557 50.748C124.475 50.8303 123.457 50.9094 122.413 50.5316C120.284 49.7613 118.039 48.8957 116.053 47.536C115.917 47.4482 115.775 47.371 115.627 47.305H115.611L115.481 47.2421L114.622 46.8125L114.58 46.7899C113.865 46.4298 113.127 46.0567 112.382 45.7144C111.869 45.477 111.336 45.2719 110.808 45.0684C110.58 44.9812 110.353 44.894 110.127 44.8036L109.913 44.718L109.689 45.3413L109.863 45.4382C110.046 45.54 110.233 45.6385 110.416 45.7338C110.808 45.9323 111.19 46.1517 111.559 46.391C111.958 46.6607 112.366 46.9465 112.744 47.2243C114.49 48.4758 116.297 49.7709 118.648 49.9696C118.691 49.9776 118.732 49.9906 118.771 50.0083L119.347 50.2328C120.002 50.4863 120.673 50.748 121.337 51.0128C119.144 51.3358 117.138 50.4169 115.2 49.5336L115.104 49.49C114.416 49.1473 113.664 48.9531 112.896 48.9199C112.263 48.9051 111.639 48.7686 111.058 48.5178C109.531 47.8541 107.904 47.5957 106.332 47.3454C105.976 47.2889 105.566 47.2243 105.156 47.1516L104.896 47.0903L104.734 47.0208L104.717 47.0466L104.602 47.0176L101.148 45.9049L100.969 46.6026L104.434 47.4471L104.408 47.481L104.822 47.5586L104.948 47.6183C105.118 47.7097 105.297 47.7848 105.482 47.8428L106.52 48.1399C108.011 48.5679 109.553 49.0103 111.083 49.4011C111.569 49.5116 112.063 49.5855 112.56 49.6224C112.817 49.6482 113.082 49.6741 113.337 49.7112L113.511 49.7354C113.816 49.7653 114.116 49.8292 114.406 49.926C115.06 50.1763 115.709 50.4767 116.344 50.7722C116.113 50.7157 115.882 50.6543 115.656 50.5945C114.761 50.3588 113.836 50.1101 112.911 50.0875C111.767 50.0503 110.614 50.2699 109.495 50.4815H109.471L108.781 50.6107L108.403 50.6785C106.848 50.9611 105.38 51.226 103.835 51.016L103.736 51.0015C102.222 50.7692 100.697 50.6129 99.1663 50.5332C98.2895 50.5025 97.4045 50.5413 96.5373 50.5784C95.7299 50.6139 94.903 50.6494 94.0908 50.6268C93.427 50.6091 92.7536 50.6268 92.1012 50.6559C90.4864 50.714 88.8036 50.7738 87.2227 50.1795L87.192 50.1714C86.9336 50.0293 86.672 49.8678 86.3846 49.687C85.6999 49.2542 84.9893 48.8053 84.219 48.7035C83.657 48.6276 83.0886 48.5985 82.5266 48.5711C81.5706 48.5243 80.5807 48.4758 79.6489 48.1835L78.1664 47.7217L79.4583 48.5921C80.6776 49.4173 82.0422 49.3995 83.368 49.3995H83.657C84.0214 49.3945 84.3836 49.4558 84.7261 49.5804C85.2897 49.8032 85.8565 50.0649 86.3959 50.3216L86.4282 50.3378C86.6462 50.4395 86.8626 50.5412 87.0741 50.6398L87.1274 50.6559L87.4149 50.8061L87.1161 50.7851V50.8658L87.1064 50.7835C86.2634 50.7205 85.393 50.6559 84.5323 50.6301C83.199 50.5661 81.8632 50.5731 80.5306 50.6511C79.6214 50.7205 78.2698 50.144 77.8289 49.2719C77.6142 48.8505 77.3687 48.4403 77.1297 48.0398C77.0409 47.8928 76.952 47.7443 76.8648 47.5957V47.586C76.8438 47.5182 76.8245 47.4504 76.8019 47.3761C76.755 47.2146 76.705 47.0531 76.6646 46.8787C76.7034 46.8561 76.7421 46.8351 76.7712 46.8141L76.9327 46.7011L76.5403 45.9405C76.34 45.5529 76.1333 45.1556 75.9331 44.76L76.0946 44.9538L75.2274 43.3276L75.292 43.2711L75.0966 43.0821C75.0045 42.9029 74.9157 42.7155 74.8301 42.5347C74.6149 42.0216 74.3342 41.5386 73.9952 41.0974C73.8337 40.9101 73.6722 40.7309 73.5107 40.5581C72.9811 39.988 72.4821 39.4503 72.3206 38.6751C72.2998 38.609 72.266 38.5478 72.221 38.495C72.1761 38.4423 72.121 38.3992 72.059 38.3683H72.0493C72.0396 38.2875 72.0331 38.2068 72.0283 38.1148C72.0319 37.8208 71.9707 37.5297 71.849 37.2621C71.5261 36.684 71.153 36.1317 70.7897 35.5988C70.6637 35.4131 70.5378 35.229 70.4134 35.0416C70.352 34.9496 70.2842 34.8656 70.218 34.7816C70.1244 34.6748 70.0432 34.5578 69.9758 34.4328C69.7836 34.0323 69.6076 33.6157 69.4364 33.2136L69.4154 33.1651C69.3524 33.015 69.2878 32.8648 69.2232 32.7162L69.1328 32.5047L68.5305 32.7711L68.6031 32.9714C68.6613 33.1328 68.7162 33.2943 68.7646 33.4558C68.8986 33.8369 69.0375 34.2326 69.1974 34.6137C69.3143 34.8731 69.4583 35.1194 69.627 35.3485L69.6706 35.4114C69.8563 35.6844 70.0452 35.9557 70.2341 36.227L70.2584 36.2609C70.5975 36.7453 70.9495 37.2556 71.279 37.7611C71.3083 37.8368 71.3231 37.9173 71.3226 37.9985C71.3263 38.0999 71.341 38.2006 71.3662 38.2988C71.404 38.4057 71.4628 38.504 71.539 38.5879L71.5826 38.6412C71.6213 38.7591 71.6601 38.8786 71.6972 38.9965C71.9459 39.7748 72.2027 40.5791 72.9455 41.2056C73.3382 41.5742 73.6828 41.9909 73.971 42.4459C74.1212 42.6623 74.2762 42.8867 74.4425 43.0918C74.5165 43.1821 74.5987 43.2654 74.688 43.3405L74.7203 43.3712L74.7607 43.4503C74.801 43.586 74.8398 43.7216 74.8785 43.8589L74.8898 43.8976C75.0126 44.3304 75.1402 44.7794 75.3081 45.2089C75.5439 45.8113 75.8136 46.4088 76.0784 46.995L76.3319 47.5634L76.4466 47.9042C76.797 48.9667 77.1588 50.0632 78.1164 50.7722C77.4882 50.7431 76.8697 50.6963 76.269 50.6527C75.749 50.6139 75.2128 50.5735 74.6799 50.5461C74.0143 50.4874 73.3564 50.3613 72.7162 50.1698C71.8926 49.955 71.04 49.7322 70.1033 49.7742C68.327 49.8533 66.4957 49.7128 64.721 49.5772C64.0508 49.5255 63.358 49.4722 62.6749 49.4318C62.0289 49.3931 61.4008 49.3317 60.7193 49.2703H60.6821L60.0927 49.2122L60.1751 48.97L60.9486 48.0769C61.271 47.6762 61.5423 47.2368 61.756 46.7689L61.8675 46.5509C61.9256 46.4378 61.9789 46.3167 62.0289 46.1956C62.1565 45.9049 62.2889 45.6029 62.4827 45.4705C63.3628 44.8633 63.7326 44.0817 63.7197 42.856V42.7042C63.7036 41.0668 63.6874 39.5213 62.4747 38.168C62.2152 37.8549 61.998 37.5091 61.8287 37.1394L62.1307 37.3283L61.8885 36.6581C61.8368 36.5289 61.7754 36.4111 61.7173 36.2948C61.6233 36.1536 61.5646 35.9919 61.5461 35.8232C61.769 34.1341 60.9001 32.9294 60.0701 31.7634C59.8763 31.4921 59.6745 31.2128 59.4936 30.9334C59.1625 30.4215 59.0592 30.1372 59.2788 29.6964C59.3969 29.4432 59.4905 29.1793 59.5582 28.9083C59.5905 28.7985 59.6228 28.6822 59.6583 28.5724L59.6825 28.4998L59.2594 28.3383L59.2304 28.4093C59.1787 28.5321 59.1238 28.6548 59.0689 28.784C58.6861 29.6366 58.2081 30.6992 59.3256 31.6488C59.3825 31.7384 59.4215 31.8382 59.4403 31.9427C59.5291 32.2834 59.6276 32.6274 59.7213 32.9633C59.9718 33.7848 60.1751 34.62 60.3301 35.4647C60.4771 36.3642 60.9583 37.0522 61.425 37.7256C61.7253 38.1236 61.9855 38.5504 62.2017 38.9997C62.5558 39.7578 62.8266 40.5522 63.0092 41.3687C63.1335 42.0002 63.077 42.6945 63.0237 43.368L63.0156 43.4665C62.9787 43.7619 62.8607 44.0413 62.6749 44.2739C62.5312 44.448 62.3735 44.6101 62.2034 44.7584C61.9385 44.9765 61.7101 45.2354 61.5267 45.5254C61.2538 46.05 61.0216 46.5947 60.8323 47.1548C60.75 47.3777 60.6708 47.6086 60.5756 47.8299L60.3059 48.5L59.8828 48.6761C59.777 48.7209 59.6735 48.771 59.5727 48.8262C59.3993 48.9359 59.2043 49.0069 59.001 49.0346C58.6628 49.0259 58.3256 48.9941 57.9917 48.9393C57.6483 48.8826 57.3014 48.8497 56.9534 48.8408C54.5311 48.823 52.0312 48.8246 49.8269 48.8279H47.4304H45.7881H45.7397C44.5947 48.8279 43.411 48.8279 42.2451 48.8359C41.0371 48.8489 39.9471 48.8698 38.8538 48.9667C37.4569 49.0911 36.0132 49.2187 34.5873 48.8456C33.8931 48.6577 33.1596 48.6722 32.4734 48.8876C31.4205 49.2671 30.4225 49.1347 29.4052 48.9409C29.6797 48.1335 30.345 47.8105 31.2477 47.4439C32.0406 47.107 32.8157 46.7297 33.5699 46.3135C33.8929 46.152 34.2159 45.9728 34.5389 45.8097L34.6051 45.7774L34.4436 45.3656L34.3725 45.3882C33.1222 45.8034 31.8962 46.2887 30.7003 46.8416L30.4419 46.9562C29.7717 47.2501 29.0386 47.6442 28.8093 48.6018C28.6792 48.7051 28.5211 48.767 28.3555 48.7794C28.1189 48.7736 27.8831 48.7509 27.6498 48.7116C27.3212 48.6521 26.9866 48.6331 26.6534 48.6551C26.0656 48.7164 25.4762 48.8166 24.9045 48.9086C24.1082 49.0582 23.3036 49.1596 22.4951 49.2122C20.5944 49.2962 18.6565 49.2752 16.7816 49.2542H16.6024H15.7126C15.1571 49.2542 14.5822 49.2138 14.0331 49.1783C13.0319 49.1169 11.9968 49.0523 10.9858 49.1638C9.24481 49.3828 7.48532 49.4147 5.73748 49.259C6.02938 49.1938 6.31601 49.1069 6.59498 48.999C7.62851 48.5808 8.66203 48.1222 9.66325 47.6797L9.70201 47.6619C10.2979 47.3987 10.9132 47.1258 11.522 46.8642C11.8078 46.7414 12.1114 46.6332 12.4053 46.5267C12.915 46.3581 13.4103 46.1486 13.8862 45.9001C16.4412 44.4787 18.888 42.8708 21.2064 41.0894C22.1931 40.3271 23.3058 39.4616 24.4652 38.7058C25.1435 38.2617 25.8573 37.8418 26.5646 37.4317C27.2719 37.0215 27.9808 36.6016 28.6639 36.1511C29.347 35.7005 30.014 35.2435 30.6664 34.7913L30.6825 34.7816C32.3991 33.5947 34.1739 32.3674 36.1134 31.4776L36.2668 31.4082C37.851 30.6815 39.4965 29.9289 40.9838 28.9858C42.237 28.1962 43.4062 27.3015 44.5511 26.4295C45.0356 26.0597 45.4926 25.7092 45.9544 25.3701L46.6004 24.8953L45.8026 24.9583C44.929 25.0278 44.1038 25.6447 43.3432 26.3003C41.8533 27.6025 40.1937 28.6966 38.4097 29.5527L37.9075 29.7917C36.2442 30.5797 34.5163 31.3952 32.9224 32.3593C31.8033 33.0327 30.7229 33.7966 29.6797 34.5346L29.6635 34.5459C28.9013 35.0852 28.1116 35.644 27.3171 36.1607C26.7277 36.5419 26.0963 36.8891 25.4842 37.2233C24.5621 37.7288 23.6094 38.2504 22.7728 38.9093C20.2536 40.8923 17.497 42.9465 14.4045 44.4887C13.3936 44.9958 12.3052 45.5367 11.1845 46.0664C10.1332 46.5638 9.27084 46.9514 8.46824 47.2873C7.46379 47.7071 6.63536 48.022 5.86183 48.2788C5.1206 48.5243 4.34384 48.7067 3.67528 48.8569C2.96958 49.0184 2.24773 49.1573 1.53718 49.2946L0.846014 49.427C0.729743 49.4512 0.611856 49.4657 0.472977 49.4835C0.411611 49.4916 0.350246 49.498 0.290495 49.5077L0.117703 49.5319L0.0385742 50.1989L0.251738 50.236C0.376084 50.2586 0.503659 50.2861 0.62639 50.3152C0.916281 50.3906 1.21359 50.4339 1.51296 50.4444C2.87915 50.4363 4.25825 50.3975 5.58891 50.362L6.38021 50.341C6.67088 50.3329 6.96156 50.341 7.28454 50.341C8.02237 50.3708 8.76133 50.327 9.49046 50.2102C11.094 49.8969 12.7315 49.9486 14.3173 49.9986C14.776 50.0132 15.2524 50.0277 15.7223 50.0342C18.1446 50.0665 20.5669 50.0342 22.9473 49.9244C23.4947 49.8861 24.0384 49.8057 24.5734 49.6837C25.1043 49.5608 25.6444 49.4825 26.1883 49.4496C26.7517 49.4546 27.313 49.519 27.8629 49.6418C28.2198 49.708 28.5913 49.7758 28.9643 49.8146C29.1742 49.8355 29.3842 49.8614 29.6102 49.8888C30.4096 49.9857 31.238 50.0859 32.0326 49.9631L32.1391 49.947C33.0096 49.8113 33.8315 49.6837 34.6923 49.8501C35.3889 49.9852 36.0987 50.0394 36.8078 50.0116C37.3407 49.989 37.8784 49.9292 38.4065 49.8695C39.0121 49.8016 39.6386 49.7306 40.2507 49.7209L41.7622 49.6951C45.9221 49.624 50.2226 49.5497 54.4535 49.5949C55.7052 49.6339 56.9538 49.7417 58.1936 49.9179C58.9897 50.0148 59.8085 50.1149 60.6305 50.1763C61.8723 50.2699 63.1368 50.3378 64.3608 50.4072H64.3996C65.7351 50.4799 67.1158 50.5574 68.4707 50.664C69.3427 50.7318 70.2309 50.8465 71.0949 50.9579C71.9588 51.0693 72.8939 51.1904 73.8014 51.2599C75.749 51.4084 77.6771 51.4617 79.6473 51.5086C80.3223 51.5231 81.0199 51.5086 81.6433 51.494C82.3054 51.4795 82.9885 51.4633 83.6554 51.4811C84.2352 51.4956 84.8262 51.5441 85.3979 51.5893C86.0858 51.6458 86.7964 51.704 87.4972 51.7056C88.2643 51.7056 89.0523 51.6474 89.8033 51.5909C90.3119 51.5538 90.8384 51.5134 91.3535 51.494C92.3645 51.4553 93.4529 51.444 94.664 51.4617C95.3907 51.4714 96.1174 51.4617 96.8328 51.4504C98.5543 51.4262 100.334 51.402 102.026 51.6717C104.625 52.0851 107.181 51.9171 110.073 51.1436C112.265 50.5574 114.285 50.6898 116.082 51.536C116.735 51.8499 117.452 52.0085 118.177 51.9995C118.307 51.9995 118.443 51.9995 118.582 51.9866C120.886 51.8332 123.265 51.6636 125.633 51.4843C126.041 51.452 126.44 51.3971 126.874 51.3374H126.923L127.52 51.2566L127.961 51.2017L127.661 50.8691ZM111.27 43.8766V43.8992V43.8799V43.8766Z" fill="#0E8499"/>
<path d="M85.5723 4.93879C84.3982 4.68202 83.4406 4.95494 82.5605 5.79952C80.7502 7.53713 80.3675 9.79796 80.2222 11.9797C80.2274 12.2245 80.2905 12.4647 80.4063 12.6805C80.466 12.8226 80.5338 12.9825 80.6017 13.1811L80.7825 13.7157L81.0215 13.2037C82.5492 9.92715 85.0264 10.4584 87.4326 11.2901L87.6312 11.3595L87.7168 11.1674C88.6858 8.98083 88.6858 8.98083 90.685 7.83104C90.8199 7.74502 90.9412 7.63944 91.0451 7.51775C91.1007 7.45453 91.1606 7.39518 91.2243 7.34011L91.7282 6.92186L91.7783 6.87987C92.3854 6.37603 93.012 5.85442 93.6515 5.37481C93.7022 5.33059 93.7616 5.29741 93.8258 5.27739C93.89 5.25738 93.9577 5.25095 94.0245 5.25853C94.0992 5.27966 94.1687 5.31575 94.229 5.36461C94.2892 5.41347 94.3389 5.47408 94.375 5.54275C94.4475 5.68173 94.5485 5.80379 94.6715 5.90093C94.7946 5.99806 94.9368 6.06807 95.0888 6.10635C95.381 6.16287 95.6976 6.06436 96.0577 5.80436C96.6568 5.37481 97.264 5.41033 97.8147 5.90933C98.2692 6.28864 98.6644 6.73391 98.9871 7.2303C99.2277 7.66495 99.4397 8.11484 99.6217 8.57711C99.7493 8.88071 99.8801 9.19561 100.03 9.50082C100.213 9.8787 100.403 10.0757 100.647 10.1468C100.959 10.2291 101.269 10.0596 101.556 9.86256C102.106 9.47863 102.707 9.17419 103.342 8.95822C103.988 8.74829 104.602 8.93723 104.943 9.45238C105.209 9.88323 105.438 10.336 105.627 10.8056V10.8218C105.661 10.8993 105.695 10.9833 105.731 11.0576L105.679 11.0996L105.282 11.4048L106.516 11.6567L106.317 11.2433C106.307 11.2191 106.296 11.1948 106.285 11.1722L106.298 11.1593C106.499 10.9655 106.708 10.7669 106.89 10.7427C108.305 10.5586 109.411 11.0527 110.185 12.209C110.364 12.4787 110.609 12.8549 110.948 12.9341C111.472 13.0665 111.716 13.2958 111.875 13.8077C112.026 14.2922 112.297 14.3923 112.445 14.4133C112.471 14.4157 112.497 14.4157 112.523 14.4133C112.772 14.4133 113.007 14.2518 113.216 13.9401C113.81 13.0471 113.598 12.1928 112.623 11.5323L112.116 11.1851C111.762 10.9413 111.362 10.6635 110.963 10.4181C109.14 9.28766 107.428 9.12617 106.241 9.93361C106.055 9.0858 105.553 8.43823 104.851 8.14755C104.148 7.85688 103.276 7.97153 102.44 8.48991C102.68 7.46284 102.49 6.98646 101.758 5.93517C101.736 5.90287 101.715 5.87057 101.694 5.83666L101.684 5.82051C101.638 5.74477 101.587 5.67196 101.532 5.6025C100.379 4.20402 98.8756 2.83137 96.4662 3.25285C96.3435 3.22763 96.231 3.16634 96.1433 3.07683C95.1743 2.20641 94.1166 2.1402 93.167 2.89274C92.6514 3.3021 92.1848 3.76975 91.7766 4.28638C91.3503 4.82413 90.9579 5.39257 90.5784 5.94163L90.5639 5.96101C90.4718 6.13703 90.3507 6.29852 90.2344 6.46C88.8456 5.64288 87.3664 5.32959 85.9356 5.00661L85.5723 4.93879Z" fill="#0E8499"/>
<path d="M93.075 20.2415L92.8408 20.3368C92.7298 20.3754 92.6218 20.4224 92.5178 20.4773C92.295 20.6048 92.0721 20.7356 91.8396 20.8729C91.4746 21.0861 91.0983 21.3089 90.7205 21.5075C89.8856 21.9452 89.0894 21.8854 88.2126 21.317L87.5908 20.9133L87.8783 21.5964C88.3724 22.7768 88.8294 23.2112 89.5642 23.2112C89.8285 23.204 90.0904 23.1599 90.3426 23.0804C90.7098 22.9616 91.0659 22.8108 91.4068 22.6299C91.6312 22.5185 91.8638 22.4038 92.0947 22.3069C92.2691 22.2547 92.4542 22.2503 92.6309 22.294C92.8264 22.337 93.0195 22.3909 93.209 22.4555C93.5982 22.5782 94.0003 22.7058 94.3992 22.646C96.1368 22.3844 97.7791 21.5948 99.2809 20.298C99.4109 20.2005 99.5159 20.0736 99.5873 19.9276C99.6586 19.7816 99.6942 19.6207 99.6911 19.4583C99.6774 19.3302 99.632 19.2077 99.559 19.1016C99.4859 18.9956 99.3876 18.9095 99.2729 18.8511C98.8885 18.6201 98.1731 18.1922 97.4222 18.9415C96.6957 19.6728 95.8916 20.3226 95.0241 20.8794C94.5849 21.1603 93.9098 21.4252 93.1654 21.1281L93.5417 20.0332L93.075 20.2415Z" fill="#0E8499"/>
<path d="M70.8866 28.8763C71.1013 29.6175 71.371 30.3781 72.1785 30.8287C72.6454 31.1056 73.0932 31.4137 73.5188 31.7508L73.5414 31.7685L73.7836 31.951C74.1373 32.2158 74.4877 32.4985 74.8398 32.7811L74.9189 32.8456L75.3049 33.1541L75.4663 33.2865L75.8991 32.815L75.7377 32.6535C75.6618 32.5824 75.5858 32.5098 75.5067 32.4322C75.3452 32.2708 75.1741 32.1093 74.99 31.9591C73.6577 30.8868 72.3189 29.6821 71.8539 27.8072C71.7743 27.5296 71.6403 27.2705 71.4598 27.045C70.4005 25.6433 68.9212 25.0135 67.3451 24.3417C67.0028 24.1947 66.6459 24.0429 66.2987 23.8847L66.2325 23.854L66.0112 24.2351L66.071 24.2787C66.3584 24.4838 66.6362 24.6937 66.9107 24.9021C67.4851 25.3627 68.0941 25.7785 68.7323 26.1455C69.8369 26.7495 70.52 27.6151 70.8866 28.8763Z" fill="#0E8499"/>
<path d="M22.3127 45.4527L22.2659 45.5109L22.5888 45.8177L22.6438 45.766L22.8149 45.6045C22.9409 45.4915 23.0701 45.3752 23.1944 45.2476C24.3394 44.0801 25.5231 42.8721 27.2316 42.3215C27.8381 42.1394 28.3907 41.8114 28.8412 41.3664C29.2916 40.9213 29.6261 40.3726 29.8154 39.7683L29.9479 39.3291L29.5183 39.4906C26.4516 40.6129 24.3604 42.9561 22.3127 45.4527Z" fill="#0E8499"/>
<path d="M66.4181 18.8769C65.8206 18.52 65.2037 18.1485 64.5319 18.0452C63.3401 17.8595 62.1096 17.853 60.9081 17.8466C60.4947 17.8466 60.0684 17.8466 59.6485 17.832C59.4931 17.8409 59.3413 17.8822 59.2028 17.9531C59.141 17.9821 59.0773 18.0069 59.0122 18.0274C58.8507 18.0694 58.6892 18.1163 58.5407 18.1615C58.157 18.2904 57.7616 18.3813 57.3602 18.4328C56.6238 18.5022 56.1184 18.7767 55.7211 19.3242C55.4671 19.6594 55.1914 19.9777 54.8959 20.277C54.7764 20.4029 54.6521 20.5337 54.5358 20.6645L54.4583 20.7501L54.4825 20.8648C54.4932 20.9095 54.5061 20.9537 54.5212 20.9972C54.5411 21.0457 54.5536 21.0968 54.5584 21.149C54.5015 21.3467 54.4313 21.5404 54.3485 21.7287C54.3162 21.8095 54.2839 21.8902 54.2564 21.9613C54.1692 22.1228 54.0836 22.2972 53.998 22.4667C53.8026 22.8527 53.6008 23.2516 53.3795 23.6278C53.3375 23.7005 53.2939 23.7764 53.252 23.8523C53.0662 24.185 52.8741 24.5273 52.606 24.713C51.5801 25.4555 50.5108 26.1361 49.4037 26.751C47.8023 27.6234 46.461 28.9051 45.5167 30.4652L45.2583 30.8835L45.7428 30.8124C45.9769 30.7828 46.1994 30.6932 46.3887 30.5524C46.9846 30.0841 47.5773 29.6077 48.1554 29.1443C49.3779 28.1624 50.6439 27.1467 51.9358 26.2197C53.3061 25.2492 54.2911 23.8274 54.7183 22.2035L55.1591 21.5382C55.5709 20.9181 55.9956 20.2753 56.4365 19.6617C56.5786 19.5025 56.7655 19.3899 56.9726 19.3387C57.814 19.1046 58.7006 18.8849 59.6081 18.6928L59.7292 18.6653C60.0199 18.6007 60.3493 18.5248 60.5464 18.6072C61.567 19.0287 62.573 18.9576 63.6873 18.8316C63.995 18.7932 64.3074 18.8269 64.5997 18.9301C65.1504 19.1465 65.7011 19.4033 66.2356 19.6536L66.2824 19.6746L66.8928 19.9572L67.0899 20.046L67.4128 19.4308L67.2061 19.3258C66.9429 19.1918 66.6781 19.0335 66.4181 18.8769Z" fill="#0E8499"/>
<path d="M77.0329 15.5891C76.4596 15.6607 75.9136 15.8759 75.4456 16.2146C74.9776 16.5534 74.6026 17.0048 74.3554 17.527C74.2843 17.7165 74.2775 17.9242 74.336 18.118C74.3505 18.1939 74.3635 18.2795 74.3699 18.3457L74.4232 19.0466L74.7914 18.4491C75.8588 16.7195 77.2783 16.9359 78.7818 17.1572C79.2369 17.2362 79.6963 17.2874 80.1577 17.3106H80.3757L80.3934 17.0942C80.3934 17.0748 80.3934 17.057 80.4015 17.0377C80.4162 16.9883 80.4188 16.9362 80.4093 16.8857C80.3997 16.8351 80.3782 16.7875 80.3466 16.747C79.4697 15.7845 78.3603 15.3905 77.0329 15.5891Z" fill="#0E8499"/>
<path d="M53.3893 30.2634C53.311 30.3867 53.1988 30.4848 53.0663 30.5461C51.7324 30.8852 50.4357 31.7734 49.7639 32.8069L49.1179 33.8016L50.0868 33.1186C50.5175 32.8073 50.9315 32.4737 51.3271 32.1189L51.3674 32.0834C51.8519 31.6635 52.2249 31.3325 52.8935 31.494C53.3134 31.5941 53.927 31.2857 54.2145 30.9465C54.6812 30.3943 55.1269 29.8161 55.5613 29.2428C56.0167 28.647 56.4866 28.0317 56.9791 27.4568C57.3278 27.0804 57.7129 26.7396 58.1289 26.4394C58.3179 26.2925 58.5133 26.1423 58.7006 25.984L58.8847 25.8225L58.3566 25.2573L58.1952 25.3623C56.1846 26.6865 54.7183 28.5097 53.3893 30.2634Z" fill="#0E8499"/>
<path d="M105.997 14.2678C105.922 14.1247 105.822 13.9962 105.702 13.8883C105.324 13.5799 104.972 13.4717 104.65 13.5653C104.329 13.659 104.076 13.961 103.916 14.4535C103.888 14.5359 103.862 14.615 103.837 14.7103C103.724 15.0865 103.607 15.4741 103.384 15.6582C103.344 15.6905 103.304 15.7196 103.258 15.7519C103.097 15.873 102.753 16.1217 103.052 16.5351C103.257 16.8177 103.638 17.1035 103.985 17.1035C104.676 17.0874 106.084 15.3062 106.084 14.4567V14.3841L106.043 14.3243C106.026 14.3066 106.011 14.2877 105.997 14.2678Z" fill="#0E8499"/>
<path d="M66.0242 9.63172C66.0242 8.80167 65.501 8.11535 64.5611 7.69386C63.5809 7.25785 62.3633 6.71525 61.1521 7.47747L60.7839 7.7084L66.0258 9.97892L66.0242 9.63172Z" fill="#0E8499"/>
<path d="M66.239 27.6265C67.0707 28.5486 67.5051 29.44 67.6068 30.4283C67.6413 30.5937 67.7279 30.7437 67.8539 30.8563C67.9185 30.9289 67.9912 31.0178 68.0719 31.1195L68.5434 31.7509L68.4821 30.9645C68.4643 30.7416 68.4562 30.543 68.4482 30.367C68.4465 30.0485 68.4102 29.7312 68.34 29.4206C68.2544 29.1362 68.1374 28.8621 67.9912 28.6035C67.9266 28.4775 67.8604 28.3484 67.8054 28.2208C67.644 27.8558 67.5002 27.4925 67.3662 27.1501C67.3113 27.008 67.258 26.8578 67.2047 26.7093C67.1055 26.407 66.9857 26.1119 66.8462 25.8259C66.6308 25.4314 66.376 25.0597 66.0856 24.7165C65.9074 24.5054 65.717 24.3048 65.5155 24.1158L65.2798 23.8848L65.2281 23.8315L64.8857 24.1093L65.0392 24.3386C65.501 25.033 65.9015 25.6305 65.8369 26.4767C65.8234 26.8966 65.9668 27.3065 66.239 27.6265Z" fill="#0E8499"/>
<path d="M106.269 50.7531L106.445 50.808L106.742 50.2848L97.7873 45.0381L97.3804 45.7422L97.6274 45.8391C99.0534 46.3962 100.329 47.2925 101.565 48.1532C103.01 49.1641 104.504 50.2089 106.269 50.7531Z" fill="#0E8499"/>
<path d="M110.335 14.935C109.856 15.0107 109.428 15.2732 109.143 15.6649C109.105 15.7457 109.085 15.8333 109.082 15.9224C109.079 16.0115 109.094 16.1002 109.127 16.1833C109.141 16.2541 109.171 16.3209 109.214 16.3788C109.257 16.4366 109.313 16.484 109.377 16.5175C109.597 16.6021 109.83 16.6443 110.065 16.6419C110.468 16.6355 110.863 16.5367 111.221 16.353C111.579 16.1693 111.89 15.9057 112.13 15.5825L112.273 15.3904L112.08 15.2596C111.563 14.9285 110.937 14.8121 110.335 14.935Z" fill="#0E8499"/>
<path d="M91.1807 43.0257C91.8137 43.4327 92.4726 43.8525 93.3785 43.7621C93.629 43.7683 93.8752 43.8284 94.1004 43.9381L94.2296 43.9866C94.6898 44.1577 95.1533 44.3467 95.6054 44.5324L96.169 44.7617L97.0443 45.1138L96.4307 44.4097C95.7686 43.6442 94.8658 43.4084 94.0697 43.1985C93.2316 42.9805 92.3822 42.735 91.5456 42.4734C91.4119 42.4206 91.2867 42.3482 91.1742 42.2586C91.1096 42.2134 91.0434 42.1666 90.974 42.1246L90.7915 42.0132L90.3975 42.5687L90.6219 42.6914C90.8109 42.7948 90.9982 42.9078 91.1807 43.0257Z" fill="#0E8499"/>
<path d="M45.9528 36.5725C45.7113 36.7507 45.515 36.983 45.3795 37.2508C45.3149 37.3574 45.2535 37.4575 45.1873 37.5463L44.3589 38.6686L45.5022 37.8693C45.7945 37.6642 46.0561 37.451 46.3097 37.2395C46.5406 37.0489 46.7602 36.8713 46.9911 36.7082C47.2923 36.5049 47.543 36.2356 47.7244 35.9208C47.9057 35.6059 48.0128 35.2539 48.0376 34.8914C48.0876 34.5905 48.1749 34.2971 48.2976 34.0178C48.3622 33.8482 48.4348 33.6544 48.5059 33.4397L48.9419 32.1235L48.107 33.2313C48.0099 33.3541 47.9064 33.4716 47.797 33.5834C47.5418 33.8563 47.2996 34.1131 47.3238 34.4118C47.4142 35.4518 46.8894 35.9912 45.9528 36.5725Z" fill="#0E8499"/>
<path d="M51.2158 21.4494L51.8875 21.8532L50.2065 18.4619L49.982 18.6686C49.8526 18.7799 49.7521 18.9209 49.6891 19.0795C49.6261 19.2381 49.6025 19.4097 49.6203 19.5794C49.6816 20.2044 50.2484 20.8665 51.2158 21.4494Z" fill="#0E8499"/>
<path d="M18.8842 48.2254L22.0429 46.0873L21.6666 45.5205L18.4934 47.6392L18.8842 48.2254Z" fill="#0E8499"/>
</svg>
