<svg width="194" height="104" viewBox="0 0 194 104" fill="none" xmlns="http://www.w3.org/2000/svg">
<g filter="url(#filter0_d_58_5884)">
<path d="M32 34C32 30.6863 34.6863 28 38 28H155.904C159.218 28 161.904 30.6863 161.904 34V62C161.904 65.3137 159.218 68 155.904 68H38C34.6863 68 32 65.3137 32 62V34Z" fill="white" shape-rendering="crispEdges"/>
<path d="M48 54L44.352 42.752H46.496L49.2 51.408H48.48L51.136 42.752H52.752L55.408 51.408H54.672L57.392 42.752H59.536L55.872 54H54.256L51.584 45.36H52.288L49.632 54H48ZM66.003 54V49.568C66.003 49.1093 65.859 48.736 65.571 48.448C65.283 48.16 64.9097 48.016 64.451 48.016C64.1523 48.016 63.8857 48.08 63.651 48.208C63.4163 48.336 63.2297 48.5173 63.091 48.752C62.963 48.9867 62.899 49.2587 62.899 49.568L62.083 49.152C62.083 48.544 62.211 48.016 62.467 47.568C62.723 47.1093 63.075 46.752 63.523 46.496C63.9817 46.24 64.5043 46.112 65.091 46.112C65.6777 46.112 66.195 46.24 66.643 46.496C67.1017 46.752 67.459 47.104 67.715 47.552C67.971 48 68.099 48.5173 68.099 49.104V54H66.003ZM60.803 54V42.432H62.899V54H60.803ZM73.0194 54.16C72.3154 54.16 71.6807 53.984 71.1154 53.632C70.55 53.28 70.1074 52.8 69.7874 52.192C69.4674 51.584 69.3074 50.9013 69.3074 50.144C69.3074 49.376 69.4674 48.688 69.7874 48.08C70.1074 47.472 70.55 46.992 71.1154 46.64C71.6807 46.288 72.3154 46.112 73.0194 46.112C73.574 46.112 74.07 46.224 74.5074 46.448C74.9447 46.672 75.2914 46.9867 75.5474 47.392C75.814 47.7867 75.958 48.2347 75.9794 48.736V51.52C75.958 52.032 75.814 52.4853 75.5474 52.88C75.2914 53.2747 74.9447 53.5893 74.5074 53.824C74.07 54.048 73.574 54.16 73.0194 54.16ZM73.4034 52.224C73.99 52.224 74.4647 52.032 74.8274 51.648C75.19 51.2533 75.3714 50.7467 75.3714 50.128C75.3714 49.7227 75.286 49.3653 75.1154 49.056C74.9554 48.736 74.726 48.4907 74.4274 48.32C74.1394 48.1387 73.798 48.048 73.4034 48.048C73.0194 48.048 72.678 48.1387 72.3794 48.32C72.0914 48.4907 71.862 48.736 71.6914 49.056C71.5314 49.3653 71.4514 49.7227 71.4514 50.128C71.4514 50.544 71.5314 50.912 71.6914 51.232C71.862 51.5413 72.0914 51.7867 72.3794 51.968C72.678 52.1387 73.0194 52.224 73.4034 52.224ZM75.2594 54V51.92L75.5954 50.032L75.2594 48.176V46.272H77.3394V54H75.2594ZM80.3296 54V43.056H82.4256V54H80.3296ZM78.5216 48.112V46.272H84.2336V48.112H78.5216ZM87.9121 54.176C87.4748 54.176 87.0428 54.1173 86.6161 54C86.2001 53.8827 85.8161 53.7227 85.4641 53.52C85.1121 53.3067 84.8081 53.0507 84.5521 52.752L85.8001 51.488C86.0668 51.7867 86.3761 52.0107 86.7281 52.16C87.0801 52.3093 87.4695 52.384 87.8961 52.384C88.2375 52.384 88.4935 52.336 88.6641 52.24C88.8455 52.144 88.9361 52 88.9361 51.808C88.9361 51.5947 88.8401 51.4293 88.6481 51.312C88.4668 51.1947 88.2268 51.0987 87.9281 51.024C87.6295 50.9387 87.3148 50.848 86.9841 50.752C86.6641 50.6453 86.3548 50.512 86.0561 50.352C85.7575 50.1813 85.5121 49.952 85.3201 49.664C85.1388 49.3653 85.0481 48.9813 85.0481 48.512C85.0481 48.0213 85.1655 47.5947 85.4001 47.232C85.6455 46.8693 85.9921 46.5867 86.4401 46.384C86.8881 46.1813 87.4161 46.08 88.0241 46.08C88.6641 46.08 89.2401 46.192 89.7521 46.416C90.2748 46.64 90.7068 46.976 91.0481 47.424L89.7841 48.688C89.5495 48.4 89.2828 48.192 88.9841 48.064C88.6961 47.936 88.3815 47.872 88.0401 47.872C87.7308 47.872 87.4908 47.92 87.3201 48.016C87.1601 48.112 87.0801 48.2453 87.0801 48.416C87.0801 48.608 87.1708 48.7573 87.3521 48.864C87.5441 48.9707 87.7895 49.0667 88.0881 49.152C88.3868 49.2267 88.6961 49.3173 89.0161 49.424C89.3468 49.52 89.6561 49.6587 89.9441 49.84C90.2428 50.0213 90.4828 50.2613 90.6641 50.56C90.8561 50.8587 90.9521 51.2427 90.9521 51.712C90.9521 52.4693 90.6801 53.072 90.1361 53.52C89.5921 53.9573 88.8508 54.176 87.9121 54.176ZM91.7575 54L96.2855 42.752H98.0615L102.574 54H100.253L96.7655 44.768H97.5655L94.0295 54H91.7575ZM94.1575 51.904V50.08H100.206V51.904H94.1575ZM108.091 54.16C107.536 54.16 107.035 54.048 106.587 53.824C106.139 53.5893 105.782 53.2747 105.515 52.88C105.248 52.4853 105.104 52.032 105.083 51.52V48.784C105.104 48.272 105.248 47.8187 105.515 47.424C105.792 47.0187 106.15 46.6987 106.587 46.464C107.035 46.2293 107.536 46.112 108.091 46.112C108.806 46.112 109.446 46.288 110.011 46.64C110.576 46.992 111.019 47.472 111.339 48.08C111.67 48.688 111.835 49.376 111.835 50.144C111.835 50.9013 111.67 51.584 111.339 52.192C111.019 52.8 110.576 53.28 110.011 53.632C109.446 53.984 108.806 54.16 108.091 54.16ZM107.723 52.224C108.107 52.224 108.448 52.1387 108.747 51.968C109.046 51.7867 109.275 51.5413 109.435 51.232C109.606 50.912 109.691 50.544 109.691 50.128C109.691 49.7227 109.606 49.3653 109.435 49.056C109.275 48.736 109.046 48.4907 108.747 48.32C108.448 48.1387 108.107 48.048 107.723 48.048C107.35 48.048 107.014 48.1387 106.715 48.32C106.416 48.4907 106.182 48.736 106.011 49.056C105.851 49.3653 105.771 49.7227 105.771 50.128C105.771 50.544 105.851 50.912 106.011 51.232C106.182 51.5413 106.411 51.7867 106.699 51.968C106.998 52.1387 107.339 52.224 107.723 52.224ZM103.803 57.232V46.272H105.899V48.304L105.547 50.176L105.883 52.048V57.232H103.803ZM117.497 54.16C116.943 54.16 116.441 54.048 115.993 53.824C115.545 53.5893 115.188 53.2747 114.921 52.88C114.655 52.4853 114.511 52.032 114.489 51.52V48.784C114.511 48.272 114.655 47.8187 114.921 47.424C115.199 47.0187 115.556 46.6987 115.993 46.464C116.441 46.2293 116.943 46.112 117.497 46.112C118.212 46.112 118.852 46.288 119.417 46.64C119.983 46.992 120.425 47.472 120.745 48.08C121.076 48.688 121.241 49.376 121.241 50.144C121.241 50.9013 121.076 51.584 120.745 52.192C120.425 52.8 119.983 53.28 119.417 53.632C118.852 53.984 118.212 54.16 117.497 54.16ZM117.129 52.224C117.513 52.224 117.855 52.1387 118.153 51.968C118.452 51.7867 118.681 51.5413 118.841 51.232C119.012 50.912 119.097 50.544 119.097 50.128C119.097 49.7227 119.012 49.3653 118.841 49.056C118.681 48.736 118.452 48.4907 118.153 48.32C117.855 48.1387 117.513 48.048 117.129 48.048C116.756 48.048 116.42 48.1387 116.121 48.32C115.823 48.4907 115.588 48.736 115.417 49.056C115.257 49.3653 115.177 49.7227 115.177 50.128C115.177 50.544 115.257 50.912 115.417 51.232C115.588 51.5413 115.817 51.7867 116.105 51.968C116.404 52.1387 116.745 52.224 117.129 52.224ZM113.209 57.232V46.272H115.305V48.304L114.953 50.176L115.289 52.048V57.232H113.209Z" fill="black"/>
<g clip-path="url(#clip0_58_5884)">
<path d="M144.512 49.9835C144.265 49.8595 143.047 49.2595 142.82 49.1775C142.593 49.0945 142.428 49.0535 142.263 49.3015C142.098 49.5485 141.623 50.1075 141.478 50.2725C141.334 50.4375 141.189 50.4575 140.942 50.3335C140.212 50.0429 139.538 49.6273 138.951 49.1055C138.409 48.6048 137.945 48.0265 137.573 47.3895C137.429 47.1415 137.558 47.0075 137.682 46.8845C137.793 46.7735 137.93 46.5955 138.053 46.4505C138.155 46.3253 138.238 46.1862 138.301 46.0375C138.334 45.9691 138.349 45.8936 138.346 45.8178C138.342 45.742 138.319 45.6683 138.28 45.6035C138.218 45.4795 137.723 44.2605 137.517 43.7645C137.316 43.2825 137.112 43.3475 136.959 43.3395C136.815 43.3325 136.65 43.3305 136.485 43.3305C136.359 43.334 136.236 43.3634 136.122 43.4169C136.009 43.4705 135.908 43.5469 135.825 43.6415C135.545 43.9066 135.323 44.2272 135.174 44.5827C135.025 44.9382 134.951 45.321 134.958 45.7065C135.038 46.6407 135.39 47.5312 135.969 48.2685C137.031 49.8605 138.489 51.149 140.199 52.0075C140.66 52.2057 141.132 52.3799 141.611 52.5295C142.116 52.6829 142.651 52.7161 143.171 52.6265C143.516 52.5567 143.842 52.4161 144.13 52.2137C144.417 52.0113 144.66 51.7514 144.842 51.4505C145.004 51.0804 145.055 50.6708 144.986 50.2725C144.925 50.1685 144.76 50.1075 144.512 49.9835ZM147.004 40.9045C145.304 39.2048 143.044 38.1809 140.645 38.0233C138.247 37.8657 135.872 38.5852 133.964 40.0478C132.057 41.5104 130.745 43.6164 130.275 45.9739C129.804 48.3313 130.206 50.7794 131.406 52.8625L130 57.9975L135.254 56.6205C136.707 57.4117 138.335 57.8264 139.99 57.8265H139.994C141.954 57.8255 143.87 57.2435 145.499 56.1542C147.129 55.0648 148.399 53.5169 149.149 51.7061C149.899 49.8952 150.096 47.9026 149.714 45.9801C149.332 44.0575 148.389 42.2913 147.004 40.9045V40.9045ZM144.371 54.8935C143.059 55.7158 141.542 56.1521 139.994 56.1525H139.99C138.515 56.1524 137.067 55.7555 135.798 55.0035L135.497 54.8255L132.379 55.6435L133.211 52.6035L133.016 52.2915C132.151 50.9113 131.714 49.3055 131.761 47.6771C131.808 46.0488 132.337 44.4709 133.281 43.1432C134.225 41.8154 135.541 40.7973 137.064 40.2177C138.586 39.6381 140.246 39.5229 141.834 39.8868C143.422 40.2507 144.866 41.0772 145.985 42.2619C147.103 43.4467 147.844 44.9363 148.116 46.5426C148.388 48.1489 148.177 49.7996 147.51 51.2861C146.843 52.7725 145.751 54.0279 144.371 54.8935Z" fill="#2C2C2C"/>
</g>
</g>
<defs>
<filter id="filter0_d_58_5884" x="0" y="0" width="193.904" height="104" filterUnits="userSpaceOnUse" color-interpolation-filters="sRGB">
<feFlood flood-opacity="0" result="BackgroundImageFix"/>
<feColorMatrix in="SourceAlpha" type="matrix" values="0 0 0 0 0 0 0 0 0 0 0 0 0 0 0 0 0 0 127 0" result="hardAlpha"/>
<feOffset dy="4"/>
<feGaussianBlur stdDeviation="16"/>
<feComposite in2="hardAlpha" operator="out"/>
<feColorMatrix type="matrix" values="0 0 0 0 0.172549 0 0 0 0 0.172549 0 0 0 0 0.172549 0 0 0 0.12 0"/>
<feBlend mode="normal" in2="BackgroundImageFix" result="effect1_dropShadow_58_5884"/>
<feBlend mode="normal" in="SourceGraphic" in2="effect1_dropShadow_58_5884" result="shape"/>
</filter>
<clipPath id="clip0_58_5884">
<rect width="19.904" height="19.9956" fill="white" transform="translate(130 38.002)"/>
</clipPath>
</defs>
</svg>
