<svg width="21" height="20" viewBox="0 0 21 20" fill="none" xmlns="http://www.w3.org/2000/svg">
<g clip-path="url(#clip0_25_3476)">
<path d="M15.06 11.9839C14.813 11.8599 13.595 11.2599 13.368 11.1779C13.141 11.0949 12.976 11.0539 12.811 11.3019C12.646 11.5489 12.171 12.1079 12.026 12.2729C11.882 12.4379 11.737 12.4579 11.49 12.3339C10.7601 12.0433 10.0863 11.6277 9.499 11.1059C8.95732 10.6052 8.49293 10.0269 8.121 9.38985C7.977 9.14185 8.106 9.00785 8.23 8.88485C8.341 8.77385 8.478 8.59585 8.601 8.45085C8.70288 8.32567 8.78639 8.18661 8.849 8.03785C8.88196 7.96949 8.89729 7.89398 8.89363 7.81819C8.88996 7.74239 8.8674 7.66871 8.828 7.60385C8.766 7.47985 8.271 6.26085 8.065 5.76485C7.864 5.28285 7.66 5.34785 7.507 5.33985C7.363 5.33285 7.198 5.33085 7.033 5.33085C6.90749 5.33435 6.78406 5.36379 6.67047 5.41731C6.55689 5.47083 6.45561 5.54728 6.373 5.64185C6.09303 5.90699 5.87134 6.22753 5.72207 6.58306C5.5728 6.93859 5.49922 7.32132 5.506 7.70685C5.5863 8.64109 5.93768 9.53154 6.517 10.2689C7.57892 11.8609 9.03663 13.1494 10.747 14.0079C11.2084 14.2061 11.6797 14.3803 12.159 14.5299C12.6643 14.6833 13.1985 14.7165 13.719 14.6269C14.0637 14.557 14.3902 14.4165 14.6778 14.214C14.9654 14.0116 15.2079 13.7518 15.39 13.4509C15.5525 13.0808 15.6025 12.6711 15.534 12.2729C15.473 12.1689 15.308 12.1079 15.06 11.9839ZM17.552 2.90485C15.852 1.2052 13.5922 0.181262 11.1934 0.0236578C8.79462 -0.133947 6.42031 0.585526 4.51249 2.04813C2.60467 3.51073 1.29336 5.6168 0.822698 7.97422C0.352033 10.3316 0.754086 12.7798 1.954 14.8629L0.548004 19.9978L5.802 18.6208C7.25516 19.4121 8.88339 19.8267 10.538 19.8268H10.542C12.5021 19.8258 14.4179 19.2439 16.0474 18.1545C17.6769 17.0652 18.947 15.5173 19.6971 13.7064C20.4473 11.8956 20.6439 9.90298 20.2621 7.98044C19.8803 6.05789 18.9372 4.29164 17.552 2.90484V2.90485ZM14.919 16.8938C13.6071 17.7161 12.0903 18.1524 10.542 18.1528H10.538C9.06291 18.1528 7.61499 17.7559 6.346 17.0038L6.045 16.8258L2.927 17.6438L3.759 14.6038L3.564 14.2918C2.69855 12.9117 2.26179 11.3059 2.30894 9.6775C2.3561 8.04912 2.88505 6.47129 3.82893 5.14352C4.7728 3.81576 6.08919 2.7977 7.61165 2.21807C9.13411 1.63844 10.7943 1.52328 12.3822 1.88715C13.9701 2.25102 15.4144 3.07757 16.5326 4.2623C17.6507 5.44703 18.3925 6.93671 18.664 8.54299C18.9356 10.1493 18.7247 11.8 18.0581 13.2864C17.3915 14.7729 16.2991 16.0282 14.919 16.8938Z" fill="#2C2C2C"/>
</g>
<defs>
<clipPath id="clip0_25_3476">
<rect width="19.904" height="19.9956" fill="white" transform="translate(0.548004 0.00219727)"/>
</clipPath>
</defs>
</svg>
