<svg width="21" height="20" viewBox="0 0 21 20" fill="none" xmlns="http://www.w3.org/2000/svg">
<g clip-path="url(#clip0_69_24526)">
<path d="M15.0601 11.9835C14.8131 11.8595 13.5951 11.2595 13.3681 11.1775C13.1411 11.0945 12.9761 11.0535 12.8111 11.3015C12.6461 11.5485 12.1711 12.1075 12.0261 12.2725C11.8821 12.4375 11.7371 12.4575 11.4901 12.3335C10.7602 12.0429 10.0864 11.6273 9.4991 11.1055C8.95742 10.6048 8.49303 10.0265 8.1211 9.38949C7.9771 9.14149 8.1061 9.00749 8.2301 8.88449C8.3411 8.77349 8.4781 8.59549 8.6011 8.45049C8.70297 8.32531 8.78648 8.18624 8.8491 8.03749C8.88205 7.96913 8.89739 7.89362 8.89372 7.81782C8.89005 7.74202 8.86749 7.66834 8.8281 7.60349C8.7661 7.47949 8.2711 6.26049 8.0651 5.76449C7.8641 5.28249 7.6601 5.34749 7.5071 5.33949C7.3631 5.33249 7.1981 5.33049 7.0331 5.33049C6.90758 5.33399 6.78415 5.36342 6.67056 5.41695C6.55698 5.47047 6.4557 5.54692 6.3731 5.64149C6.09312 5.90662 5.87144 6.22717 5.72216 6.5827C5.57289 6.93823 5.49931 7.32095 5.5061 7.70649C5.58639 8.64072 5.93778 9.53117 6.5171 10.2685C7.57901 11.8605 9.03673 13.149 10.7471 14.0075C11.2085 14.2057 11.6798 14.3799 12.1591 14.5295C12.6644 14.6829 13.1986 14.7161 13.7191 14.6265C14.0638 14.5567 14.3903 14.4161 14.6779 14.2137C14.9655 14.0113 15.208 13.7514 15.3901 13.4505C15.5525 13.0804 15.6026 12.6708 15.5341 12.2725C15.4731 12.1685 15.3081 12.1075 15.0601 11.9835ZM17.5521 2.90449C15.852 1.20484 13.5923 0.180896 11.1935 0.0232916C8.79471 -0.134313 6.4204 0.58516 4.51258 2.04776C2.60476 3.51037 1.29345 5.61643 0.822789 7.97385C0.352125 10.3313 0.754178 12.7794 1.9541 14.8625L0.548096 19.9975L5.8021 18.6205C7.25525 19.4117 8.88348 19.8264 10.5381 19.8265H10.5421C12.5022 19.8255 14.418 19.2435 16.0475 18.1542C17.677 17.0648 18.9471 15.5169 19.6972 13.7061C20.4474 11.8952 20.644 9.90262 20.2622 7.98007C19.8804 6.05752 18.9373 4.29127 17.5521 2.90448V2.90449ZM14.9191 16.8935C13.6072 17.7158 12.0904 18.1521 10.5421 18.1525H10.5381C9.063 18.1524 7.61508 17.7555 6.3461 17.0035L6.0451 16.8255L2.9271 17.6435L3.7591 14.6035L3.5641 14.2915C2.69864 12.9113 2.26188 11.3055 2.30903 9.67714C2.35619 8.04876 2.88515 6.47092 3.82902 5.14316C4.77289 3.81539 6.08928 2.79733 7.61174 2.2177C9.1342 1.63807 10.7943 1.52291 12.3823 1.88678C13.9702 2.25065 15.4145 3.07721 16.5327 4.26193C17.6508 5.44666 18.3926 6.93635 18.6641 8.54262C18.9356 10.1489 18.7248 11.7996 18.0582 13.2861C17.3916 14.7725 16.2992 16.0279 14.9191 16.8935Z" fill="white"/>
</g>
<defs>
<clipPath id="clip0_69_24526">
<rect width="19.904" height="19.9956" fill="white" transform="translate(0.548096 0.00195312)"/>
</clipPath>
</defs>
</svg>
